M48
; DRILL file {KiCad 8.0.8} date 2025-01-27T20:55:45+0900
; FORMAT={-:-/ absolute / inch / decimal}
; #@! TF.CreationDate,2025-01-27T20:55:45+09:00
; #@! TF.GenerationSoftware,Kicad,Pcbnew,8.0.8
; #@! TF.FileFunction,Plated,1,2,PTH
FMAT,2
INCH
; #@! TA.AperFunction,Plated,PTH,ViaDrill
T1C0.0157
; #@! TA.AperFunction,Plated,PTH,ComponentDrill
T2C0.0236
; #@! TA.AperFunction,Plated,PTH,ComponentDrill
T3C0.0295
; #@! TA.AperFunction,Plated,PTH,ComponentDrill
T4C0.0315
; #@! TA.AperFunction,Plated,PTH,ComponentDrill
T5C0.0354
; #@! TA.AperFunction,Plated,PTH,ComponentDrill
T6C0.0394
; #@! TA.AperFunction,Plated,PTH,ComponentDrill
T7C0.0398
; #@! TA.AperFunction,Plated,PTH,ComponentDrill
T8C0.0433
; #@! TA.AperFunction,Plated,PTH,ComponentDrill
T9C0.0441
%
G90
G05
T1
X5.5807Y-3.6988
X5.6535Y-3.9764
X5.75Y-3.975
X5.878Y-3.9764
X5.9744Y-3.4843
X6.189Y-3.1575
X6.2087Y-3.2047
X6.2205Y-3.9744
X6.2283Y-3.252
X6.248Y-3.2992
X6.2677Y-3.3504
X6.2874Y-3.4016
X6.311Y-3.4449
X6.3364Y-3.4899
X6.6181Y-3.0059
X6.6181Y-3.5591
T3
X4.8681Y-3.7244
X4.8681Y-4.1004
X4.8681Y-4.4724
X4.9181Y-3.7244
X4.9181Y-4.1004
X4.9181Y-4.4724
X4.9681Y-3.7244
X4.9681Y-4.1004
X4.9681Y-4.4724
T4
X4.475Y-4.8
X4.475Y-5.0
X4.475Y-5.2
X4.775Y-4.8
X4.775Y-5.0
X4.775Y-5.2
X4.9766Y-2.75
X4.9781Y-3.15
X5.1398Y-4.5
X5.1398Y-4.8
X5.1417Y-3.637
X5.1417Y-3.937
X5.1417Y-4.0669
X5.1417Y-4.3669
X5.1734Y-2.75
X5.175Y-3.15
X5.2835Y-3.637
X5.2835Y-3.937
X5.2835Y-4.0669
X5.2835Y-4.3669
X5.2835Y-4.5
X5.2835Y-4.8
X5.3976Y-5.2244
X5.3976Y-5.4213
X5.4248Y-3.05
X5.425Y-3.8531
X5.425Y-4.05
X5.4252Y-4.3031
X5.4252Y-4.5
X5.4252Y-4.8
X5.6Y-3.8
X5.6Y-4.1
X5.65Y-5.025
X5.65Y-5.325
X5.6748Y-4.5733
X5.6748Y-4.8733
X5.7Y-3.8
X5.7Y-4.1
X5.7248Y-3.05
X5.7252Y-4.3031
X5.7748Y-4.5733
X5.7748Y-4.8733
X5.8Y-3.8
X5.8Y-4.1
X5.825Y-5.025
X5.825Y-5.325
X5.8996Y-3.1102
X5.8996Y-3.3071
X5.9Y-3.8
X5.9Y-4.1
X6.0Y-3.8
X6.0Y-4.1
X6.0Y-5.025
X6.0Y-5.325
X6.0748Y-4.5733
X6.0748Y-4.8733
X6.1Y-3.8
X6.1Y-4.1
X6.1748Y-4.5733
X6.1748Y-4.8733
X6.175Y-5.025
X6.175Y-5.325
X6.2Y-3.8
X6.2Y-4.1
X6.4002Y-3.852
X6.4002Y-4.0488
X6.425Y-4.575
X6.425Y-4.875
X6.5752Y-3.8004
X6.5752Y-4.1004
X6.625Y-4.575
X6.625Y-4.875
X6.7752Y-3.8004
X6.7752Y-4.1004
X6.7756Y-3.3642
X6.7756Y-3.561
T5
X4.5748Y-4.1
X4.5748Y-4.475
X4.575Y-3.725
X4.6748Y-4.1
X4.6748Y-4.475
X4.675Y-3.725
X5.5248Y-2.75
X5.6248Y-2.75
T6
X5.5Y-2.4567
X5.6Y-2.4567
X5.7Y-2.4567
X5.8Y-2.4567
X5.9Y-2.4567
X6.0Y-2.4567
X6.1Y-2.4567
X6.2Y-2.4567
X6.3Y-2.4567
X6.4Y-2.4567
X6.5Y-2.4567
T7
X4.9746Y-2.9264
X5.1754Y-2.9736
T8
X4.947Y-5.2364
X4.947Y-5.4136
X5.203Y-5.2364
X5.203Y-5.4136
T9
X4.4071Y-2.925
X4.4071Y-3.065
T2
G00X4.2709Y-2.825
M15
G01X4.2433Y-2.825
M16
G05
G00X4.2709Y-3.165
M15
G01X4.2433Y-3.165
M16
G05
M30
