G04 #@! TF.GenerationSoftware,KiCad,Pcbnew,8.0.8*
G04 #@! TF.CreationDate,2025-02-11T23:26:09+09:00*
G04 #@! TF.ProjectId,1bit-cpu_asic,31626974-2d63-4707-955f-617369632e6b,rev?*
G04 #@! TF.SameCoordinates,Original*
G04 #@! TF.FileFunction,Legend,Top*
G04 #@! TF.FilePolarity,Positive*
%FSLAX46Y46*%
G04 Gerber Fmt 4.6, Leading zero omitted, Abs format (unit mm)*
G04 Created by KiCad (PCBNEW 8.0.8) date 2025-02-11 23:26:09*
%MOMM*%
%LPD*%
G01*
G04 APERTURE LIST*
%ADD10C,0.150000*%
%ADD11C,0.300000*%
%ADD12C,0.400000*%
%ADD13C,0.120000*%
%ADD14C,0.000000*%
G04 APERTURE END LIST*
D10*
X140862255Y-123329819D02*
X140957493Y-123329819D01*
X140957493Y-123329819D02*
X141052731Y-123377438D01*
X141052731Y-123377438D02*
X141100350Y-123425057D01*
X141100350Y-123425057D02*
X141147969Y-123520295D01*
X141147969Y-123520295D02*
X141195588Y-123710771D01*
X141195588Y-123710771D02*
X141195588Y-123948866D01*
X141195588Y-123948866D02*
X141147969Y-124139342D01*
X141147969Y-124139342D02*
X141100350Y-124234580D01*
X141100350Y-124234580D02*
X141052731Y-124282200D01*
X141052731Y-124282200D02*
X140957493Y-124329819D01*
X140957493Y-124329819D02*
X140862255Y-124329819D01*
X140862255Y-124329819D02*
X140767017Y-124282200D01*
X140767017Y-124282200D02*
X140719398Y-124234580D01*
X140719398Y-124234580D02*
X140671779Y-124139342D01*
X140671779Y-124139342D02*
X140624160Y-123948866D01*
X140624160Y-123948866D02*
X140624160Y-123710771D01*
X140624160Y-123710771D02*
X140671779Y-123520295D01*
X140671779Y-123520295D02*
X140719398Y-123425057D01*
X140719398Y-123425057D02*
X140767017Y-123377438D01*
X140767017Y-123377438D02*
X140862255Y-123329819D01*
X156451541Y-113169819D02*
X157070588Y-113169819D01*
X157070588Y-113169819D02*
X156737255Y-113550771D01*
X156737255Y-113550771D02*
X156880112Y-113550771D01*
X156880112Y-113550771D02*
X156975350Y-113598390D01*
X156975350Y-113598390D02*
X157022969Y-113646009D01*
X157022969Y-113646009D02*
X157070588Y-113741247D01*
X157070588Y-113741247D02*
X157070588Y-113979342D01*
X157070588Y-113979342D02*
X157022969Y-114074580D01*
X157022969Y-114074580D02*
X156975350Y-114122200D01*
X156975350Y-114122200D02*
X156880112Y-114169819D01*
X156880112Y-114169819D02*
X156594398Y-114169819D01*
X156594398Y-114169819D02*
X156499160Y-114122200D01*
X156499160Y-114122200D02*
X156451541Y-114074580D01*
D11*
X108726653Y-113957971D02*
X108655225Y-114029400D01*
X108655225Y-114029400D02*
X108440939Y-114100828D01*
X108440939Y-114100828D02*
X108298082Y-114100828D01*
X108298082Y-114100828D02*
X108083796Y-114029400D01*
X108083796Y-114029400D02*
X107940939Y-113886542D01*
X107940939Y-113886542D02*
X107869510Y-113743685D01*
X107869510Y-113743685D02*
X107798082Y-113457971D01*
X107798082Y-113457971D02*
X107798082Y-113243685D01*
X107798082Y-113243685D02*
X107869510Y-112957971D01*
X107869510Y-112957971D02*
X107940939Y-112815114D01*
X107940939Y-112815114D02*
X108083796Y-112672257D01*
X108083796Y-112672257D02*
X108298082Y-112600828D01*
X108298082Y-112600828D02*
X108440939Y-112600828D01*
X108440939Y-112600828D02*
X108655225Y-112672257D01*
X108655225Y-112672257D02*
X108726653Y-112743685D01*
X109583796Y-114100828D02*
X109440939Y-114029400D01*
X109440939Y-114029400D02*
X109369510Y-113886542D01*
X109369510Y-113886542D02*
X109369510Y-112600828D01*
X110369510Y-114100828D02*
X110226653Y-114029400D01*
X110226653Y-114029400D02*
X110155224Y-113957971D01*
X110155224Y-113957971D02*
X110083796Y-113815114D01*
X110083796Y-113815114D02*
X110083796Y-113386542D01*
X110083796Y-113386542D02*
X110155224Y-113243685D01*
X110155224Y-113243685D02*
X110226653Y-113172257D01*
X110226653Y-113172257D02*
X110369510Y-113100828D01*
X110369510Y-113100828D02*
X110583796Y-113100828D01*
X110583796Y-113100828D02*
X110726653Y-113172257D01*
X110726653Y-113172257D02*
X110798082Y-113243685D01*
X110798082Y-113243685D02*
X110869510Y-113386542D01*
X110869510Y-113386542D02*
X110869510Y-113815114D01*
X110869510Y-113815114D02*
X110798082Y-113957971D01*
X110798082Y-113957971D02*
X110726653Y-114029400D01*
X110726653Y-114029400D02*
X110583796Y-114100828D01*
X110583796Y-114100828D02*
X110369510Y-114100828D01*
X112155225Y-114029400D02*
X112012367Y-114100828D01*
X112012367Y-114100828D02*
X111726653Y-114100828D01*
X111726653Y-114100828D02*
X111583796Y-114029400D01*
X111583796Y-114029400D02*
X111512367Y-113957971D01*
X111512367Y-113957971D02*
X111440939Y-113815114D01*
X111440939Y-113815114D02*
X111440939Y-113386542D01*
X111440939Y-113386542D02*
X111512367Y-113243685D01*
X111512367Y-113243685D02*
X111583796Y-113172257D01*
X111583796Y-113172257D02*
X111726653Y-113100828D01*
X111726653Y-113100828D02*
X112012367Y-113100828D01*
X112012367Y-113100828D02*
X112155225Y-113172257D01*
X112798081Y-114100828D02*
X112798081Y-112600828D01*
X112940939Y-113529400D02*
X113369510Y-114100828D01*
X113369510Y-113100828D02*
X112798081Y-113672257D01*
X108091653Y-95050828D02*
X107591653Y-94336542D01*
X107234510Y-95050828D02*
X107234510Y-93550828D01*
X107234510Y-93550828D02*
X107805939Y-93550828D01*
X107805939Y-93550828D02*
X107948796Y-93622257D01*
X107948796Y-93622257D02*
X108020225Y-93693685D01*
X108020225Y-93693685D02*
X108091653Y-93836542D01*
X108091653Y-93836542D02*
X108091653Y-94050828D01*
X108091653Y-94050828D02*
X108020225Y-94193685D01*
X108020225Y-94193685D02*
X107948796Y-94265114D01*
X107948796Y-94265114D02*
X107805939Y-94336542D01*
X107805939Y-94336542D02*
X107234510Y-94336542D01*
X109305939Y-94979400D02*
X109163082Y-95050828D01*
X109163082Y-95050828D02*
X108877368Y-95050828D01*
X108877368Y-95050828D02*
X108734510Y-94979400D01*
X108734510Y-94979400D02*
X108663082Y-94836542D01*
X108663082Y-94836542D02*
X108663082Y-94265114D01*
X108663082Y-94265114D02*
X108734510Y-94122257D01*
X108734510Y-94122257D02*
X108877368Y-94050828D01*
X108877368Y-94050828D02*
X109163082Y-94050828D01*
X109163082Y-94050828D02*
X109305939Y-94122257D01*
X109305939Y-94122257D02*
X109377368Y-94265114D01*
X109377368Y-94265114D02*
X109377368Y-94407971D01*
X109377368Y-94407971D02*
X108663082Y-94550828D01*
X110663082Y-94050828D02*
X110663082Y-95265114D01*
X110663082Y-95265114D02*
X110591653Y-95407971D01*
X110591653Y-95407971D02*
X110520224Y-95479400D01*
X110520224Y-95479400D02*
X110377367Y-95550828D01*
X110377367Y-95550828D02*
X110163082Y-95550828D01*
X110163082Y-95550828D02*
X110020224Y-95479400D01*
X110663082Y-94979400D02*
X110520224Y-95050828D01*
X110520224Y-95050828D02*
X110234510Y-95050828D01*
X110234510Y-95050828D02*
X110091653Y-94979400D01*
X110091653Y-94979400D02*
X110020224Y-94907971D01*
X110020224Y-94907971D02*
X109948796Y-94765114D01*
X109948796Y-94765114D02*
X109948796Y-94336542D01*
X109948796Y-94336542D02*
X110020224Y-94193685D01*
X110020224Y-94193685D02*
X110091653Y-94122257D01*
X110091653Y-94122257D02*
X110234510Y-94050828D01*
X110234510Y-94050828D02*
X110520224Y-94050828D01*
X110520224Y-94050828D02*
X110663082Y-94122257D01*
X112448796Y-94622257D02*
X113163082Y-94622257D01*
X112305939Y-95050828D02*
X112805939Y-93550828D01*
X112805939Y-93550828D02*
X113305939Y-95050828D01*
X127141653Y-141405828D02*
X126641653Y-140691542D01*
X126284510Y-141405828D02*
X126284510Y-139905828D01*
X126284510Y-139905828D02*
X126855939Y-139905828D01*
X126855939Y-139905828D02*
X126998796Y-139977257D01*
X126998796Y-139977257D02*
X127070225Y-140048685D01*
X127070225Y-140048685D02*
X127141653Y-140191542D01*
X127141653Y-140191542D02*
X127141653Y-140405828D01*
X127141653Y-140405828D02*
X127070225Y-140548685D01*
X127070225Y-140548685D02*
X126998796Y-140620114D01*
X126998796Y-140620114D02*
X126855939Y-140691542D01*
X126855939Y-140691542D02*
X126284510Y-140691542D01*
X128355939Y-141334400D02*
X128213082Y-141405828D01*
X128213082Y-141405828D02*
X127927368Y-141405828D01*
X127927368Y-141405828D02*
X127784510Y-141334400D01*
X127784510Y-141334400D02*
X127713082Y-141191542D01*
X127713082Y-141191542D02*
X127713082Y-140620114D01*
X127713082Y-140620114D02*
X127784510Y-140477257D01*
X127784510Y-140477257D02*
X127927368Y-140405828D01*
X127927368Y-140405828D02*
X128213082Y-140405828D01*
X128213082Y-140405828D02*
X128355939Y-140477257D01*
X128355939Y-140477257D02*
X128427368Y-140620114D01*
X128427368Y-140620114D02*
X128427368Y-140762971D01*
X128427368Y-140762971D02*
X127713082Y-140905828D01*
X128998796Y-141334400D02*
X129141653Y-141405828D01*
X129141653Y-141405828D02*
X129427367Y-141405828D01*
X129427367Y-141405828D02*
X129570224Y-141334400D01*
X129570224Y-141334400D02*
X129641653Y-141191542D01*
X129641653Y-141191542D02*
X129641653Y-141120114D01*
X129641653Y-141120114D02*
X129570224Y-140977257D01*
X129570224Y-140977257D02*
X129427367Y-140905828D01*
X129427367Y-140905828D02*
X129213082Y-140905828D01*
X129213082Y-140905828D02*
X129070224Y-140834400D01*
X129070224Y-140834400D02*
X128998796Y-140691542D01*
X128998796Y-140691542D02*
X128998796Y-140620114D01*
X128998796Y-140620114D02*
X129070224Y-140477257D01*
X129070224Y-140477257D02*
X129213082Y-140405828D01*
X129213082Y-140405828D02*
X129427367Y-140405828D01*
X129427367Y-140405828D02*
X129570224Y-140477257D01*
X130855939Y-141334400D02*
X130713082Y-141405828D01*
X130713082Y-141405828D02*
X130427368Y-141405828D01*
X130427368Y-141405828D02*
X130284510Y-141334400D01*
X130284510Y-141334400D02*
X130213082Y-141191542D01*
X130213082Y-141191542D02*
X130213082Y-140620114D01*
X130213082Y-140620114D02*
X130284510Y-140477257D01*
X130284510Y-140477257D02*
X130427368Y-140405828D01*
X130427368Y-140405828D02*
X130713082Y-140405828D01*
X130713082Y-140405828D02*
X130855939Y-140477257D01*
X130855939Y-140477257D02*
X130927368Y-140620114D01*
X130927368Y-140620114D02*
X130927368Y-140762971D01*
X130927368Y-140762971D02*
X130213082Y-140905828D01*
X131355939Y-140405828D02*
X131927367Y-140405828D01*
X131570224Y-139905828D02*
X131570224Y-141191542D01*
X131570224Y-141191542D02*
X131641653Y-141334400D01*
X131641653Y-141334400D02*
X131784510Y-141405828D01*
X131784510Y-141405828D02*
X131927367Y-141405828D01*
D10*
X146910588Y-114169819D02*
X146339160Y-114169819D01*
X146624874Y-114169819D02*
X146624874Y-113169819D01*
X146624874Y-113169819D02*
X146529636Y-113312676D01*
X146529636Y-113312676D02*
X146434398Y-113407914D01*
X146434398Y-113407914D02*
X146339160Y-113455533D01*
D11*
X149366653Y-112195828D02*
X148866653Y-111481542D01*
X148509510Y-112195828D02*
X148509510Y-110695828D01*
X148509510Y-110695828D02*
X149080939Y-110695828D01*
X149080939Y-110695828D02*
X149223796Y-110767257D01*
X149223796Y-110767257D02*
X149295225Y-110838685D01*
X149295225Y-110838685D02*
X149366653Y-110981542D01*
X149366653Y-110981542D02*
X149366653Y-111195828D01*
X149366653Y-111195828D02*
X149295225Y-111338685D01*
X149295225Y-111338685D02*
X149223796Y-111410114D01*
X149223796Y-111410114D02*
X149080939Y-111481542D01*
X149080939Y-111481542D02*
X148509510Y-111481542D01*
X150295225Y-110695828D02*
X150580939Y-110695828D01*
X150580939Y-110695828D02*
X150723796Y-110767257D01*
X150723796Y-110767257D02*
X150866653Y-110910114D01*
X150866653Y-110910114D02*
X150938082Y-111195828D01*
X150938082Y-111195828D02*
X150938082Y-111695828D01*
X150938082Y-111695828D02*
X150866653Y-111981542D01*
X150866653Y-111981542D02*
X150723796Y-112124400D01*
X150723796Y-112124400D02*
X150580939Y-112195828D01*
X150580939Y-112195828D02*
X150295225Y-112195828D01*
X150295225Y-112195828D02*
X150152368Y-112124400D01*
X150152368Y-112124400D02*
X150009510Y-111981542D01*
X150009510Y-111981542D02*
X149938082Y-111695828D01*
X149938082Y-111695828D02*
X149938082Y-111195828D01*
X149938082Y-111195828D02*
X150009510Y-110910114D01*
X150009510Y-110910114D02*
X150152368Y-110767257D01*
X150152368Y-110767257D02*
X150295225Y-110695828D01*
X151580939Y-112195828D02*
X151580939Y-110695828D01*
X151580939Y-110695828D02*
X152080939Y-111767257D01*
X152080939Y-111767257D02*
X152580939Y-110695828D01*
X152580939Y-110695828D02*
X152580939Y-112195828D01*
D10*
X141195588Y-116709819D02*
X140624160Y-116709819D01*
X140909874Y-116709819D02*
X140909874Y-115709819D01*
X140909874Y-115709819D02*
X140814636Y-115852676D01*
X140814636Y-115852676D02*
X140719398Y-115947914D01*
X140719398Y-115947914D02*
X140624160Y-115995533D01*
D12*
X149106966Y-71444550D02*
X147964109Y-71444550D01*
X148535537Y-71444550D02*
X148535537Y-69444550D01*
X148535537Y-69444550D02*
X148345061Y-69730264D01*
X148345061Y-69730264D02*
X148154585Y-69920740D01*
X148154585Y-69920740D02*
X147964109Y-70015978D01*
X149964109Y-71444550D02*
X149964109Y-69444550D01*
X149964109Y-70206454D02*
X150154585Y-70111216D01*
X150154585Y-70111216D02*
X150535538Y-70111216D01*
X150535538Y-70111216D02*
X150726014Y-70206454D01*
X150726014Y-70206454D02*
X150821252Y-70301692D01*
X150821252Y-70301692D02*
X150916490Y-70492169D01*
X150916490Y-70492169D02*
X150916490Y-71063597D01*
X150916490Y-71063597D02*
X150821252Y-71254073D01*
X150821252Y-71254073D02*
X150726014Y-71349312D01*
X150726014Y-71349312D02*
X150535538Y-71444550D01*
X150535538Y-71444550D02*
X150154585Y-71444550D01*
X150154585Y-71444550D02*
X149964109Y-71349312D01*
X151773633Y-71444550D02*
X151773633Y-70111216D01*
X151773633Y-69444550D02*
X151678395Y-69539788D01*
X151678395Y-69539788D02*
X151773633Y-69635026D01*
X151773633Y-69635026D02*
X151868871Y-69539788D01*
X151868871Y-69539788D02*
X151773633Y-69444550D01*
X151773633Y-69444550D02*
X151773633Y-69635026D01*
X152440300Y-70111216D02*
X153202204Y-70111216D01*
X152726014Y-69444550D02*
X152726014Y-71158835D01*
X152726014Y-71158835D02*
X152821252Y-71349312D01*
X152821252Y-71349312D02*
X153011728Y-71444550D01*
X153011728Y-71444550D02*
X153202204Y-71444550D01*
X156535538Y-71254073D02*
X156440300Y-71349312D01*
X156440300Y-71349312D02*
X156154586Y-71444550D01*
X156154586Y-71444550D02*
X155964110Y-71444550D01*
X155964110Y-71444550D02*
X155678395Y-71349312D01*
X155678395Y-71349312D02*
X155487919Y-71158835D01*
X155487919Y-71158835D02*
X155392681Y-70968359D01*
X155392681Y-70968359D02*
X155297443Y-70587407D01*
X155297443Y-70587407D02*
X155297443Y-70301692D01*
X155297443Y-70301692D02*
X155392681Y-69920740D01*
X155392681Y-69920740D02*
X155487919Y-69730264D01*
X155487919Y-69730264D02*
X155678395Y-69539788D01*
X155678395Y-69539788D02*
X155964110Y-69444550D01*
X155964110Y-69444550D02*
X156154586Y-69444550D01*
X156154586Y-69444550D02*
X156440300Y-69539788D01*
X156440300Y-69539788D02*
X156535538Y-69635026D01*
X157392681Y-71444550D02*
X157392681Y-69444550D01*
X157392681Y-69444550D02*
X158154586Y-69444550D01*
X158154586Y-69444550D02*
X158345062Y-69539788D01*
X158345062Y-69539788D02*
X158440300Y-69635026D01*
X158440300Y-69635026D02*
X158535538Y-69825502D01*
X158535538Y-69825502D02*
X158535538Y-70111216D01*
X158535538Y-70111216D02*
X158440300Y-70301692D01*
X158440300Y-70301692D02*
X158345062Y-70396931D01*
X158345062Y-70396931D02*
X158154586Y-70492169D01*
X158154586Y-70492169D02*
X157392681Y-70492169D01*
X159392681Y-69444550D02*
X159392681Y-71063597D01*
X159392681Y-71063597D02*
X159487919Y-71254073D01*
X159487919Y-71254073D02*
X159583157Y-71349312D01*
X159583157Y-71349312D02*
X159773633Y-71444550D01*
X159773633Y-71444550D02*
X160154586Y-71444550D01*
X160154586Y-71444550D02*
X160345062Y-71349312D01*
X160345062Y-71349312D02*
X160440300Y-71254073D01*
X160440300Y-71254073D02*
X160535538Y-71063597D01*
X160535538Y-71063597D02*
X160535538Y-69444550D01*
X163011729Y-71444550D02*
X163011729Y-69444550D01*
X163011729Y-70206454D02*
X163202205Y-70111216D01*
X163202205Y-70111216D02*
X163583158Y-70111216D01*
X163583158Y-70111216D02*
X163773634Y-70206454D01*
X163773634Y-70206454D02*
X163868872Y-70301692D01*
X163868872Y-70301692D02*
X163964110Y-70492169D01*
X163964110Y-70492169D02*
X163964110Y-71063597D01*
X163964110Y-71063597D02*
X163868872Y-71254073D01*
X163868872Y-71254073D02*
X163773634Y-71349312D01*
X163773634Y-71349312D02*
X163583158Y-71444550D01*
X163583158Y-71444550D02*
X163202205Y-71444550D01*
X163202205Y-71444550D02*
X163011729Y-71349312D01*
X164630777Y-70111216D02*
X165106967Y-71444550D01*
X165583158Y-70111216D02*
X165106967Y-71444550D01*
X165106967Y-71444550D02*
X164916491Y-71920740D01*
X164916491Y-71920740D02*
X164821253Y-72015978D01*
X164821253Y-72015978D02*
X164630777Y-72111216D01*
X167773635Y-70873121D02*
X168726016Y-70873121D01*
X167583159Y-71444550D02*
X168249825Y-69444550D01*
X168249825Y-69444550D02*
X168916492Y-71444550D01*
X169487921Y-71349312D02*
X169773635Y-71444550D01*
X169773635Y-71444550D02*
X170249826Y-71444550D01*
X170249826Y-71444550D02*
X170440302Y-71349312D01*
X170440302Y-71349312D02*
X170535540Y-71254073D01*
X170535540Y-71254073D02*
X170630778Y-71063597D01*
X170630778Y-71063597D02*
X170630778Y-70873121D01*
X170630778Y-70873121D02*
X170535540Y-70682645D01*
X170535540Y-70682645D02*
X170440302Y-70587407D01*
X170440302Y-70587407D02*
X170249826Y-70492169D01*
X170249826Y-70492169D02*
X169868873Y-70396931D01*
X169868873Y-70396931D02*
X169678397Y-70301692D01*
X169678397Y-70301692D02*
X169583159Y-70206454D01*
X169583159Y-70206454D02*
X169487921Y-70015978D01*
X169487921Y-70015978D02*
X169487921Y-69825502D01*
X169487921Y-69825502D02*
X169583159Y-69635026D01*
X169583159Y-69635026D02*
X169678397Y-69539788D01*
X169678397Y-69539788D02*
X169868873Y-69444550D01*
X169868873Y-69444550D02*
X170345064Y-69444550D01*
X170345064Y-69444550D02*
X170630778Y-69539788D01*
X171487921Y-71444550D02*
X171487921Y-69444550D01*
X173583159Y-71254073D02*
X173487921Y-71349312D01*
X173487921Y-71349312D02*
X173202207Y-71444550D01*
X173202207Y-71444550D02*
X173011731Y-71444550D01*
X173011731Y-71444550D02*
X172726016Y-71349312D01*
X172726016Y-71349312D02*
X172535540Y-71158835D01*
X172535540Y-71158835D02*
X172440302Y-70968359D01*
X172440302Y-70968359D02*
X172345064Y-70587407D01*
X172345064Y-70587407D02*
X172345064Y-70301692D01*
X172345064Y-70301692D02*
X172440302Y-69920740D01*
X172440302Y-69920740D02*
X172535540Y-69730264D01*
X172535540Y-69730264D02*
X172726016Y-69539788D01*
X172726016Y-69539788D02*
X173011731Y-69444550D01*
X173011731Y-69444550D02*
X173202207Y-69444550D01*
X173202207Y-69444550D02*
X173487921Y-69539788D01*
X173487921Y-69539788D02*
X173583159Y-69635026D01*
X148726014Y-73616819D02*
X149011728Y-73712057D01*
X149011728Y-73712057D02*
X149106966Y-73807295D01*
X149106966Y-73807295D02*
X149202204Y-73997771D01*
X149202204Y-73997771D02*
X149202204Y-74283485D01*
X149202204Y-74283485D02*
X149106966Y-74473961D01*
X149106966Y-74473961D02*
X149011728Y-74569200D01*
X149011728Y-74569200D02*
X148821252Y-74664438D01*
X148821252Y-74664438D02*
X148059347Y-74664438D01*
X148059347Y-74664438D02*
X148059347Y-72664438D01*
X148059347Y-72664438D02*
X148726014Y-72664438D01*
X148726014Y-72664438D02*
X148916490Y-72759676D01*
X148916490Y-72759676D02*
X149011728Y-72854914D01*
X149011728Y-72854914D02*
X149106966Y-73045390D01*
X149106966Y-73045390D02*
X149106966Y-73235866D01*
X149106966Y-73235866D02*
X149011728Y-73426342D01*
X149011728Y-73426342D02*
X148916490Y-73521580D01*
X148916490Y-73521580D02*
X148726014Y-73616819D01*
X148726014Y-73616819D02*
X148059347Y-73616819D01*
X150345061Y-74664438D02*
X150154585Y-74569200D01*
X150154585Y-74569200D02*
X150059347Y-74473961D01*
X150059347Y-74473961D02*
X149964109Y-74283485D01*
X149964109Y-74283485D02*
X149964109Y-73712057D01*
X149964109Y-73712057D02*
X150059347Y-73521580D01*
X150059347Y-73521580D02*
X150154585Y-73426342D01*
X150154585Y-73426342D02*
X150345061Y-73331104D01*
X150345061Y-73331104D02*
X150630776Y-73331104D01*
X150630776Y-73331104D02*
X150821252Y-73426342D01*
X150821252Y-73426342D02*
X150916490Y-73521580D01*
X150916490Y-73521580D02*
X151011728Y-73712057D01*
X151011728Y-73712057D02*
X151011728Y-74283485D01*
X151011728Y-74283485D02*
X150916490Y-74473961D01*
X150916490Y-74473961D02*
X150821252Y-74569200D01*
X150821252Y-74569200D02*
X150630776Y-74664438D01*
X150630776Y-74664438D02*
X150345061Y-74664438D01*
X152726014Y-74664438D02*
X152726014Y-73616819D01*
X152726014Y-73616819D02*
X152630776Y-73426342D01*
X152630776Y-73426342D02*
X152440300Y-73331104D01*
X152440300Y-73331104D02*
X152059347Y-73331104D01*
X152059347Y-73331104D02*
X151868871Y-73426342D01*
X152726014Y-74569200D02*
X152535538Y-74664438D01*
X152535538Y-74664438D02*
X152059347Y-74664438D01*
X152059347Y-74664438D02*
X151868871Y-74569200D01*
X151868871Y-74569200D02*
X151773633Y-74378723D01*
X151773633Y-74378723D02*
X151773633Y-74188247D01*
X151773633Y-74188247D02*
X151868871Y-73997771D01*
X151868871Y-73997771D02*
X152059347Y-73902533D01*
X152059347Y-73902533D02*
X152535538Y-73902533D01*
X152535538Y-73902533D02*
X152726014Y-73807295D01*
X153678395Y-74664438D02*
X153678395Y-73331104D01*
X153678395Y-73712057D02*
X153773633Y-73521580D01*
X153773633Y-73521580D02*
X153868871Y-73426342D01*
X153868871Y-73426342D02*
X154059347Y-73331104D01*
X154059347Y-73331104D02*
X154249824Y-73331104D01*
X155773633Y-74664438D02*
X155773633Y-72664438D01*
X155773633Y-74569200D02*
X155583157Y-74664438D01*
X155583157Y-74664438D02*
X155202204Y-74664438D01*
X155202204Y-74664438D02*
X155011728Y-74569200D01*
X155011728Y-74569200D02*
X154916490Y-74473961D01*
X154916490Y-74473961D02*
X154821252Y-74283485D01*
X154821252Y-74283485D02*
X154821252Y-73712057D01*
X154821252Y-73712057D02*
X154916490Y-73521580D01*
X154916490Y-73521580D02*
X155011728Y-73426342D01*
X155011728Y-73426342D02*
X155202204Y-73331104D01*
X155202204Y-73331104D02*
X155583157Y-73331104D01*
X155583157Y-73331104D02*
X155773633Y-73426342D01*
X157964110Y-72664438D02*
X158630776Y-74664438D01*
X158630776Y-74664438D02*
X159297443Y-72664438D01*
X161011729Y-74664438D02*
X159868872Y-74664438D01*
X160440300Y-74664438D02*
X160440300Y-72664438D01*
X160440300Y-72664438D02*
X160249824Y-72950152D01*
X160249824Y-72950152D02*
X160059348Y-73140628D01*
X160059348Y-73140628D02*
X159868872Y-73235866D01*
X161868872Y-74473961D02*
X161964110Y-74569200D01*
X161964110Y-74569200D02*
X161868872Y-74664438D01*
X161868872Y-74664438D02*
X161773634Y-74569200D01*
X161773634Y-74569200D02*
X161868872Y-74473961D01*
X161868872Y-74473961D02*
X161868872Y-74664438D01*
X163202205Y-72664438D02*
X163392682Y-72664438D01*
X163392682Y-72664438D02*
X163583158Y-72759676D01*
X163583158Y-72759676D02*
X163678396Y-72854914D01*
X163678396Y-72854914D02*
X163773634Y-73045390D01*
X163773634Y-73045390D02*
X163868872Y-73426342D01*
X163868872Y-73426342D02*
X163868872Y-73902533D01*
X163868872Y-73902533D02*
X163773634Y-74283485D01*
X163773634Y-74283485D02*
X163678396Y-74473961D01*
X163678396Y-74473961D02*
X163583158Y-74569200D01*
X163583158Y-74569200D02*
X163392682Y-74664438D01*
X163392682Y-74664438D02*
X163202205Y-74664438D01*
X163202205Y-74664438D02*
X163011729Y-74569200D01*
X163011729Y-74569200D02*
X162916491Y-74473961D01*
X162916491Y-74473961D02*
X162821253Y-74283485D01*
X162821253Y-74283485D02*
X162726015Y-73902533D01*
X162726015Y-73902533D02*
X162726015Y-73426342D01*
X162726015Y-73426342D02*
X162821253Y-73045390D01*
X162821253Y-73045390D02*
X162916491Y-72854914D01*
X162916491Y-72854914D02*
X163011729Y-72759676D01*
X163011729Y-72759676D02*
X163202205Y-72664438D01*
X165106967Y-72664438D02*
X165297444Y-72664438D01*
X165297444Y-72664438D02*
X165487920Y-72759676D01*
X165487920Y-72759676D02*
X165583158Y-72854914D01*
X165583158Y-72854914D02*
X165678396Y-73045390D01*
X165678396Y-73045390D02*
X165773634Y-73426342D01*
X165773634Y-73426342D02*
X165773634Y-73902533D01*
X165773634Y-73902533D02*
X165678396Y-74283485D01*
X165678396Y-74283485D02*
X165583158Y-74473961D01*
X165583158Y-74473961D02*
X165487920Y-74569200D01*
X165487920Y-74569200D02*
X165297444Y-74664438D01*
X165297444Y-74664438D02*
X165106967Y-74664438D01*
X165106967Y-74664438D02*
X164916491Y-74569200D01*
X164916491Y-74569200D02*
X164821253Y-74473961D01*
X164821253Y-74473961D02*
X164726015Y-74283485D01*
X164726015Y-74283485D02*
X164630777Y-73902533D01*
X164630777Y-73902533D02*
X164630777Y-73426342D01*
X164630777Y-73426342D02*
X164726015Y-73045390D01*
X164726015Y-73045390D02*
X164821253Y-72854914D01*
X164821253Y-72854914D02*
X164916491Y-72759676D01*
X164916491Y-72759676D02*
X165106967Y-72664438D01*
D11*
X133254510Y-66300828D02*
X133254510Y-64800828D01*
X133254510Y-64800828D02*
X133825939Y-64800828D01*
X133825939Y-64800828D02*
X133968796Y-64872257D01*
X133968796Y-64872257D02*
X134040225Y-64943685D01*
X134040225Y-64943685D02*
X134111653Y-65086542D01*
X134111653Y-65086542D02*
X134111653Y-65300828D01*
X134111653Y-65300828D02*
X134040225Y-65443685D01*
X134040225Y-65443685D02*
X133968796Y-65515114D01*
X133968796Y-65515114D02*
X133825939Y-65586542D01*
X133825939Y-65586542D02*
X133254510Y-65586542D01*
X134968796Y-66300828D02*
X134825939Y-66229400D01*
X134825939Y-66229400D02*
X134754510Y-66157971D01*
X134754510Y-66157971D02*
X134683082Y-66015114D01*
X134683082Y-66015114D02*
X134683082Y-65586542D01*
X134683082Y-65586542D02*
X134754510Y-65443685D01*
X134754510Y-65443685D02*
X134825939Y-65372257D01*
X134825939Y-65372257D02*
X134968796Y-65300828D01*
X134968796Y-65300828D02*
X135183082Y-65300828D01*
X135183082Y-65300828D02*
X135325939Y-65372257D01*
X135325939Y-65372257D02*
X135397368Y-65443685D01*
X135397368Y-65443685D02*
X135468796Y-65586542D01*
X135468796Y-65586542D02*
X135468796Y-66015114D01*
X135468796Y-66015114D02*
X135397368Y-66157971D01*
X135397368Y-66157971D02*
X135325939Y-66229400D01*
X135325939Y-66229400D02*
X135183082Y-66300828D01*
X135183082Y-66300828D02*
X134968796Y-66300828D01*
X135968796Y-65300828D02*
X136254511Y-66300828D01*
X136254511Y-66300828D02*
X136540225Y-65586542D01*
X136540225Y-65586542D02*
X136825939Y-66300828D01*
X136825939Y-66300828D02*
X137111653Y-65300828D01*
X138254511Y-66229400D02*
X138111654Y-66300828D01*
X138111654Y-66300828D02*
X137825940Y-66300828D01*
X137825940Y-66300828D02*
X137683082Y-66229400D01*
X137683082Y-66229400D02*
X137611654Y-66086542D01*
X137611654Y-66086542D02*
X137611654Y-65515114D01*
X137611654Y-65515114D02*
X137683082Y-65372257D01*
X137683082Y-65372257D02*
X137825940Y-65300828D01*
X137825940Y-65300828D02*
X138111654Y-65300828D01*
X138111654Y-65300828D02*
X138254511Y-65372257D01*
X138254511Y-65372257D02*
X138325940Y-65515114D01*
X138325940Y-65515114D02*
X138325940Y-65657971D01*
X138325940Y-65657971D02*
X137611654Y-65800828D01*
X138968796Y-66300828D02*
X138968796Y-65300828D01*
X138968796Y-65586542D02*
X139040225Y-65443685D01*
X139040225Y-65443685D02*
X139111654Y-65372257D01*
X139111654Y-65372257D02*
X139254511Y-65300828D01*
X139254511Y-65300828D02*
X139397368Y-65300828D01*
D10*
X153959160Y-113265057D02*
X154006779Y-113217438D01*
X154006779Y-113217438D02*
X154102017Y-113169819D01*
X154102017Y-113169819D02*
X154340112Y-113169819D01*
X154340112Y-113169819D02*
X154435350Y-113217438D01*
X154435350Y-113217438D02*
X154482969Y-113265057D01*
X154482969Y-113265057D02*
X154530588Y-113360295D01*
X154530588Y-113360295D02*
X154530588Y-113455533D01*
X154530588Y-113455533D02*
X154482969Y-113598390D01*
X154482969Y-113598390D02*
X153911541Y-114169819D01*
X153911541Y-114169819D02*
X154530588Y-114169819D01*
X144037255Y-113169819D02*
X144132493Y-113169819D01*
X144132493Y-113169819D02*
X144227731Y-113217438D01*
X144227731Y-113217438D02*
X144275350Y-113265057D01*
X144275350Y-113265057D02*
X144322969Y-113360295D01*
X144322969Y-113360295D02*
X144370588Y-113550771D01*
X144370588Y-113550771D02*
X144370588Y-113788866D01*
X144370588Y-113788866D02*
X144322969Y-113979342D01*
X144322969Y-113979342D02*
X144275350Y-114074580D01*
X144275350Y-114074580D02*
X144227731Y-114122200D01*
X144227731Y-114122200D02*
X144132493Y-114169819D01*
X144132493Y-114169819D02*
X144037255Y-114169819D01*
X144037255Y-114169819D02*
X143942017Y-114122200D01*
X143942017Y-114122200D02*
X143894398Y-114074580D01*
X143894398Y-114074580D02*
X143846779Y-113979342D01*
X143846779Y-113979342D02*
X143799160Y-113788866D01*
X143799160Y-113788866D02*
X143799160Y-113550771D01*
X143799160Y-113550771D02*
X143846779Y-113360295D01*
X143846779Y-113360295D02*
X143894398Y-113265057D01*
X143894398Y-113265057D02*
X143942017Y-113217438D01*
X143942017Y-113217438D02*
X144037255Y-113169819D01*
D11*
X148011653Y-93957971D02*
X147940225Y-94029400D01*
X147940225Y-94029400D02*
X147725939Y-94100828D01*
X147725939Y-94100828D02*
X147583082Y-94100828D01*
X147583082Y-94100828D02*
X147368796Y-94029400D01*
X147368796Y-94029400D02*
X147225939Y-93886542D01*
X147225939Y-93886542D02*
X147154510Y-93743685D01*
X147154510Y-93743685D02*
X147083082Y-93457971D01*
X147083082Y-93457971D02*
X147083082Y-93243685D01*
X147083082Y-93243685D02*
X147154510Y-92957971D01*
X147154510Y-92957971D02*
X147225939Y-92815114D01*
X147225939Y-92815114D02*
X147368796Y-92672257D01*
X147368796Y-92672257D02*
X147583082Y-92600828D01*
X147583082Y-92600828D02*
X147725939Y-92600828D01*
X147725939Y-92600828D02*
X147940225Y-92672257D01*
X147940225Y-92672257D02*
X148011653Y-92743685D01*
X148868796Y-94100828D02*
X148725939Y-94029400D01*
X148725939Y-94029400D02*
X148654510Y-93886542D01*
X148654510Y-93886542D02*
X148654510Y-92600828D01*
X149654510Y-94100828D02*
X149511653Y-94029400D01*
X149511653Y-94029400D02*
X149440224Y-93957971D01*
X149440224Y-93957971D02*
X149368796Y-93815114D01*
X149368796Y-93815114D02*
X149368796Y-93386542D01*
X149368796Y-93386542D02*
X149440224Y-93243685D01*
X149440224Y-93243685D02*
X149511653Y-93172257D01*
X149511653Y-93172257D02*
X149654510Y-93100828D01*
X149654510Y-93100828D02*
X149868796Y-93100828D01*
X149868796Y-93100828D02*
X150011653Y-93172257D01*
X150011653Y-93172257D02*
X150083082Y-93243685D01*
X150083082Y-93243685D02*
X150154510Y-93386542D01*
X150154510Y-93386542D02*
X150154510Y-93815114D01*
X150154510Y-93815114D02*
X150083082Y-93957971D01*
X150083082Y-93957971D02*
X150011653Y-94029400D01*
X150011653Y-94029400D02*
X149868796Y-94100828D01*
X149868796Y-94100828D02*
X149654510Y-94100828D01*
X151440225Y-94029400D02*
X151297367Y-94100828D01*
X151297367Y-94100828D02*
X151011653Y-94100828D01*
X151011653Y-94100828D02*
X150868796Y-94029400D01*
X150868796Y-94029400D02*
X150797367Y-93957971D01*
X150797367Y-93957971D02*
X150725939Y-93815114D01*
X150725939Y-93815114D02*
X150725939Y-93386542D01*
X150725939Y-93386542D02*
X150797367Y-93243685D01*
X150797367Y-93243685D02*
X150868796Y-93172257D01*
X150868796Y-93172257D02*
X151011653Y-93100828D01*
X151011653Y-93100828D02*
X151297367Y-93100828D01*
X151297367Y-93100828D02*
X151440225Y-93172257D01*
X152083081Y-94100828D02*
X152083081Y-92600828D01*
X152225939Y-93529400D02*
X152654510Y-94100828D01*
X152654510Y-93100828D02*
X152083081Y-93672257D01*
X111044510Y-104575828D02*
X111044510Y-103075828D01*
X111044510Y-103075828D02*
X111615939Y-103075828D01*
X111615939Y-103075828D02*
X111758796Y-103147257D01*
X111758796Y-103147257D02*
X111830225Y-103218685D01*
X111830225Y-103218685D02*
X111901653Y-103361542D01*
X111901653Y-103361542D02*
X111901653Y-103575828D01*
X111901653Y-103575828D02*
X111830225Y-103718685D01*
X111830225Y-103718685D02*
X111758796Y-103790114D01*
X111758796Y-103790114D02*
X111615939Y-103861542D01*
X111615939Y-103861542D02*
X111044510Y-103861542D01*
X113401653Y-104432971D02*
X113330225Y-104504400D01*
X113330225Y-104504400D02*
X113115939Y-104575828D01*
X113115939Y-104575828D02*
X112973082Y-104575828D01*
X112973082Y-104575828D02*
X112758796Y-104504400D01*
X112758796Y-104504400D02*
X112615939Y-104361542D01*
X112615939Y-104361542D02*
X112544510Y-104218685D01*
X112544510Y-104218685D02*
X112473082Y-103932971D01*
X112473082Y-103932971D02*
X112473082Y-103718685D01*
X112473082Y-103718685D02*
X112544510Y-103432971D01*
X112544510Y-103432971D02*
X112615939Y-103290114D01*
X112615939Y-103290114D02*
X112758796Y-103147257D01*
X112758796Y-103147257D02*
X112973082Y-103075828D01*
X112973082Y-103075828D02*
X113115939Y-103075828D01*
X113115939Y-103075828D02*
X113330225Y-103147257D01*
X113330225Y-103147257D02*
X113401653Y-103218685D01*
D10*
X139364819Y-101091904D02*
X140174342Y-101091904D01*
X140174342Y-101091904D02*
X140269580Y-101044285D01*
X140269580Y-101044285D02*
X140317200Y-100996666D01*
X140317200Y-100996666D02*
X140364819Y-100901428D01*
X140364819Y-100901428D02*
X140364819Y-100710952D01*
X140364819Y-100710952D02*
X140317200Y-100615714D01*
X140317200Y-100615714D02*
X140269580Y-100568095D01*
X140269580Y-100568095D02*
X140174342Y-100520476D01*
X140174342Y-100520476D02*
X139364819Y-100520476D01*
X140364819Y-99520476D02*
X140364819Y-100091904D01*
X140364819Y-99806190D02*
X139364819Y-99806190D01*
X139364819Y-99806190D02*
X139507676Y-99901428D01*
X139507676Y-99901428D02*
X139602914Y-99996666D01*
X139602914Y-99996666D02*
X139650533Y-100091904D01*
X116350952Y-110159819D02*
X115874762Y-110159819D01*
X115874762Y-110159819D02*
X115874762Y-109159819D01*
X116684286Y-109636009D02*
X117017619Y-109636009D01*
X117160476Y-110159819D02*
X116684286Y-110159819D01*
X116684286Y-110159819D02*
X116684286Y-109159819D01*
X116684286Y-109159819D02*
X117160476Y-109159819D01*
X117589048Y-110159819D02*
X117589048Y-109159819D01*
X117589048Y-109159819D02*
X117827143Y-109159819D01*
X117827143Y-109159819D02*
X117970000Y-109207438D01*
X117970000Y-109207438D02*
X118065238Y-109302676D01*
X118065238Y-109302676D02*
X118112857Y-109397914D01*
X118112857Y-109397914D02*
X118160476Y-109588390D01*
X118160476Y-109588390D02*
X118160476Y-109731247D01*
X118160476Y-109731247D02*
X118112857Y-109921723D01*
X118112857Y-109921723D02*
X118065238Y-110016961D01*
X118065238Y-110016961D02*
X117970000Y-110112200D01*
X117970000Y-110112200D02*
X117827143Y-110159819D01*
X117827143Y-110159819D02*
X117589048Y-110159819D01*
X118493810Y-109159819D02*
X119112857Y-109159819D01*
X119112857Y-109159819D02*
X118779524Y-109540771D01*
X118779524Y-109540771D02*
X118922381Y-109540771D01*
X118922381Y-109540771D02*
X119017619Y-109588390D01*
X119017619Y-109588390D02*
X119065238Y-109636009D01*
X119065238Y-109636009D02*
X119112857Y-109731247D01*
X119112857Y-109731247D02*
X119112857Y-109969342D01*
X119112857Y-109969342D02*
X119065238Y-110064580D01*
X119065238Y-110064580D02*
X119017619Y-110112200D01*
X119017619Y-110112200D02*
X118922381Y-110159819D01*
X118922381Y-110159819D02*
X118636667Y-110159819D01*
X118636667Y-110159819D02*
X118541429Y-110112200D01*
X118541429Y-110112200D02*
X118493810Y-110064580D01*
X124824761Y-110590057D02*
X124729523Y-110542438D01*
X124729523Y-110542438D02*
X124634285Y-110447200D01*
X124634285Y-110447200D02*
X124491428Y-110304342D01*
X124491428Y-110304342D02*
X124396190Y-110256723D01*
X124396190Y-110256723D02*
X124300952Y-110256723D01*
X124348571Y-110494819D02*
X124253333Y-110447200D01*
X124253333Y-110447200D02*
X124158095Y-110351961D01*
X124158095Y-110351961D02*
X124110476Y-110161485D01*
X124110476Y-110161485D02*
X124110476Y-109828152D01*
X124110476Y-109828152D02*
X124158095Y-109637676D01*
X124158095Y-109637676D02*
X124253333Y-109542438D01*
X124253333Y-109542438D02*
X124348571Y-109494819D01*
X124348571Y-109494819D02*
X124539047Y-109494819D01*
X124539047Y-109494819D02*
X124634285Y-109542438D01*
X124634285Y-109542438D02*
X124729523Y-109637676D01*
X124729523Y-109637676D02*
X124777142Y-109828152D01*
X124777142Y-109828152D02*
X124777142Y-110161485D01*
X124777142Y-110161485D02*
X124729523Y-110351961D01*
X124729523Y-110351961D02*
X124634285Y-110447200D01*
X124634285Y-110447200D02*
X124539047Y-110494819D01*
X124539047Y-110494819D02*
X124348571Y-110494819D01*
X125110476Y-109494819D02*
X125729523Y-109494819D01*
X125729523Y-109494819D02*
X125396190Y-109875771D01*
X125396190Y-109875771D02*
X125539047Y-109875771D01*
X125539047Y-109875771D02*
X125634285Y-109923390D01*
X125634285Y-109923390D02*
X125681904Y-109971009D01*
X125681904Y-109971009D02*
X125729523Y-110066247D01*
X125729523Y-110066247D02*
X125729523Y-110304342D01*
X125729523Y-110304342D02*
X125681904Y-110399580D01*
X125681904Y-110399580D02*
X125634285Y-110447200D01*
X125634285Y-110447200D02*
X125539047Y-110494819D01*
X125539047Y-110494819D02*
X125253333Y-110494819D01*
X125253333Y-110494819D02*
X125158095Y-110447200D01*
X125158095Y-110447200D02*
X125110476Y-110399580D01*
X165094819Y-100506666D02*
X164618628Y-100839999D01*
X165094819Y-101078094D02*
X164094819Y-101078094D01*
X164094819Y-101078094D02*
X164094819Y-100697142D01*
X164094819Y-100697142D02*
X164142438Y-100601904D01*
X164142438Y-100601904D02*
X164190057Y-100554285D01*
X164190057Y-100554285D02*
X164285295Y-100506666D01*
X164285295Y-100506666D02*
X164428152Y-100506666D01*
X164428152Y-100506666D02*
X164523390Y-100554285D01*
X164523390Y-100554285D02*
X164571009Y-100601904D01*
X164571009Y-100601904D02*
X164618628Y-100697142D01*
X164618628Y-100697142D02*
X164618628Y-101078094D01*
X164428152Y-99649523D02*
X165094819Y-99649523D01*
X164047200Y-99887618D02*
X164761485Y-100125713D01*
X164761485Y-100125713D02*
X164761485Y-99506666D01*
X128778333Y-78169580D02*
X128730714Y-78217200D01*
X128730714Y-78217200D02*
X128587857Y-78264819D01*
X128587857Y-78264819D02*
X128492619Y-78264819D01*
X128492619Y-78264819D02*
X128349762Y-78217200D01*
X128349762Y-78217200D02*
X128254524Y-78121961D01*
X128254524Y-78121961D02*
X128206905Y-78026723D01*
X128206905Y-78026723D02*
X128159286Y-77836247D01*
X128159286Y-77836247D02*
X128159286Y-77693390D01*
X128159286Y-77693390D02*
X128206905Y-77502914D01*
X128206905Y-77502914D02*
X128254524Y-77407676D01*
X128254524Y-77407676D02*
X128349762Y-77312438D01*
X128349762Y-77312438D02*
X128492619Y-77264819D01*
X128492619Y-77264819D02*
X128587857Y-77264819D01*
X128587857Y-77264819D02*
X128730714Y-77312438D01*
X128730714Y-77312438D02*
X128778333Y-77360057D01*
X129111667Y-77264819D02*
X129778333Y-77264819D01*
X129778333Y-77264819D02*
X129349762Y-78264819D01*
X134604819Y-125342857D02*
X134128628Y-125676190D01*
X134604819Y-125914285D02*
X133604819Y-125914285D01*
X133604819Y-125914285D02*
X133604819Y-125533333D01*
X133604819Y-125533333D02*
X133652438Y-125438095D01*
X133652438Y-125438095D02*
X133700057Y-125390476D01*
X133700057Y-125390476D02*
X133795295Y-125342857D01*
X133795295Y-125342857D02*
X133938152Y-125342857D01*
X133938152Y-125342857D02*
X134033390Y-125390476D01*
X134033390Y-125390476D02*
X134081009Y-125438095D01*
X134081009Y-125438095D02*
X134128628Y-125533333D01*
X134128628Y-125533333D02*
X134128628Y-125914285D01*
X134604819Y-124390476D02*
X134604819Y-124961904D01*
X134604819Y-124676190D02*
X133604819Y-124676190D01*
X133604819Y-124676190D02*
X133747676Y-124771428D01*
X133747676Y-124771428D02*
X133842914Y-124866666D01*
X133842914Y-124866666D02*
X133890533Y-124961904D01*
X133604819Y-123485714D02*
X133604819Y-123961904D01*
X133604819Y-123961904D02*
X134081009Y-124009523D01*
X134081009Y-124009523D02*
X134033390Y-123961904D01*
X134033390Y-123961904D02*
X133985771Y-123866666D01*
X133985771Y-123866666D02*
X133985771Y-123628571D01*
X133985771Y-123628571D02*
X134033390Y-123533333D01*
X134033390Y-123533333D02*
X134081009Y-123485714D01*
X134081009Y-123485714D02*
X134176247Y-123438095D01*
X134176247Y-123438095D02*
X134414342Y-123438095D01*
X134414342Y-123438095D02*
X134509580Y-123485714D01*
X134509580Y-123485714D02*
X134557200Y-123533333D01*
X134557200Y-123533333D02*
X134604819Y-123628571D01*
X134604819Y-123628571D02*
X134604819Y-123866666D01*
X134604819Y-123866666D02*
X134557200Y-123961904D01*
X134557200Y-123961904D02*
X134509580Y-124009523D01*
X124824761Y-91590057D02*
X124729523Y-91542438D01*
X124729523Y-91542438D02*
X124634285Y-91447200D01*
X124634285Y-91447200D02*
X124491428Y-91304342D01*
X124491428Y-91304342D02*
X124396190Y-91256723D01*
X124396190Y-91256723D02*
X124300952Y-91256723D01*
X124348571Y-91494819D02*
X124253333Y-91447200D01*
X124253333Y-91447200D02*
X124158095Y-91351961D01*
X124158095Y-91351961D02*
X124110476Y-91161485D01*
X124110476Y-91161485D02*
X124110476Y-90828152D01*
X124110476Y-90828152D02*
X124158095Y-90637676D01*
X124158095Y-90637676D02*
X124253333Y-90542438D01*
X124253333Y-90542438D02*
X124348571Y-90494819D01*
X124348571Y-90494819D02*
X124539047Y-90494819D01*
X124539047Y-90494819D02*
X124634285Y-90542438D01*
X124634285Y-90542438D02*
X124729523Y-90637676D01*
X124729523Y-90637676D02*
X124777142Y-90828152D01*
X124777142Y-90828152D02*
X124777142Y-91161485D01*
X124777142Y-91161485D02*
X124729523Y-91351961D01*
X124729523Y-91351961D02*
X124634285Y-91447200D01*
X124634285Y-91447200D02*
X124539047Y-91494819D01*
X124539047Y-91494819D02*
X124348571Y-91494819D01*
X125729523Y-91494819D02*
X125158095Y-91494819D01*
X125443809Y-91494819D02*
X125443809Y-90494819D01*
X125443809Y-90494819D02*
X125348571Y-90637676D01*
X125348571Y-90637676D02*
X125253333Y-90732914D01*
X125253333Y-90732914D02*
X125158095Y-90780533D01*
X151762319Y-84511904D02*
X152571842Y-84511904D01*
X152571842Y-84511904D02*
X152667080Y-84464285D01*
X152667080Y-84464285D02*
X152714700Y-84416666D01*
X152714700Y-84416666D02*
X152762319Y-84321428D01*
X152762319Y-84321428D02*
X152762319Y-84130952D01*
X152762319Y-84130952D02*
X152714700Y-84035714D01*
X152714700Y-84035714D02*
X152667080Y-83988095D01*
X152667080Y-83988095D02*
X152571842Y-83940476D01*
X152571842Y-83940476D02*
X151762319Y-83940476D01*
X152095652Y-83035714D02*
X152762319Y-83035714D01*
X151714700Y-83273809D02*
X152428985Y-83511904D01*
X152428985Y-83511904D02*
X152428985Y-82892857D01*
X150734819Y-132183094D02*
X149734819Y-132183094D01*
X149734819Y-132183094D02*
X149734819Y-131944999D01*
X149734819Y-131944999D02*
X149782438Y-131802142D01*
X149782438Y-131802142D02*
X149877676Y-131706904D01*
X149877676Y-131706904D02*
X149972914Y-131659285D01*
X149972914Y-131659285D02*
X150163390Y-131611666D01*
X150163390Y-131611666D02*
X150306247Y-131611666D01*
X150306247Y-131611666D02*
X150496723Y-131659285D01*
X150496723Y-131659285D02*
X150591961Y-131706904D01*
X150591961Y-131706904D02*
X150687200Y-131802142D01*
X150687200Y-131802142D02*
X150734819Y-131944999D01*
X150734819Y-131944999D02*
X150734819Y-132183094D01*
X149734819Y-131278332D02*
X149734819Y-130659285D01*
X149734819Y-130659285D02*
X150115771Y-130992618D01*
X150115771Y-130992618D02*
X150115771Y-130849761D01*
X150115771Y-130849761D02*
X150163390Y-130754523D01*
X150163390Y-130754523D02*
X150211009Y-130706904D01*
X150211009Y-130706904D02*
X150306247Y-130659285D01*
X150306247Y-130659285D02*
X150544342Y-130659285D01*
X150544342Y-130659285D02*
X150639580Y-130706904D01*
X150639580Y-130706904D02*
X150687200Y-130754523D01*
X150687200Y-130754523D02*
X150734819Y-130849761D01*
X150734819Y-130849761D02*
X150734819Y-131135475D01*
X150734819Y-131135475D02*
X150687200Y-131230713D01*
X150687200Y-131230713D02*
X150639580Y-131278332D01*
X151054819Y-135516904D02*
X150054819Y-135516904D01*
X151054819Y-134945476D02*
X150483390Y-135374047D01*
X150054819Y-134945476D02*
X150626247Y-135516904D01*
X140480952Y-66344819D02*
X140004762Y-66344819D01*
X140004762Y-66344819D02*
X140004762Y-65344819D01*
X140814286Y-65821009D02*
X141147619Y-65821009D01*
X141290476Y-66344819D02*
X140814286Y-66344819D01*
X140814286Y-66344819D02*
X140814286Y-65344819D01*
X140814286Y-65344819D02*
X141290476Y-65344819D01*
X141719048Y-66344819D02*
X141719048Y-65344819D01*
X141719048Y-65344819D02*
X141957143Y-65344819D01*
X141957143Y-65344819D02*
X142100000Y-65392438D01*
X142100000Y-65392438D02*
X142195238Y-65487676D01*
X142195238Y-65487676D02*
X142242857Y-65582914D01*
X142242857Y-65582914D02*
X142290476Y-65773390D01*
X142290476Y-65773390D02*
X142290476Y-65916247D01*
X142290476Y-65916247D02*
X142242857Y-66106723D01*
X142242857Y-66106723D02*
X142195238Y-66201961D01*
X142195238Y-66201961D02*
X142100000Y-66297200D01*
X142100000Y-66297200D02*
X141957143Y-66344819D01*
X141957143Y-66344819D02*
X141719048Y-66344819D01*
X143147619Y-65678152D02*
X143147619Y-66344819D01*
X142909524Y-65297200D02*
X142671429Y-66011485D01*
X142671429Y-66011485D02*
X143290476Y-66011485D01*
X170459580Y-88016666D02*
X170507200Y-88064285D01*
X170507200Y-88064285D02*
X170554819Y-88207142D01*
X170554819Y-88207142D02*
X170554819Y-88302380D01*
X170554819Y-88302380D02*
X170507200Y-88445237D01*
X170507200Y-88445237D02*
X170411961Y-88540475D01*
X170411961Y-88540475D02*
X170316723Y-88588094D01*
X170316723Y-88588094D02*
X170126247Y-88635713D01*
X170126247Y-88635713D02*
X169983390Y-88635713D01*
X169983390Y-88635713D02*
X169792914Y-88588094D01*
X169792914Y-88588094D02*
X169697676Y-88540475D01*
X169697676Y-88540475D02*
X169602438Y-88445237D01*
X169602438Y-88445237D02*
X169554819Y-88302380D01*
X169554819Y-88302380D02*
X169554819Y-88207142D01*
X169554819Y-88207142D02*
X169602438Y-88064285D01*
X169602438Y-88064285D02*
X169650057Y-88016666D01*
X169554819Y-87111904D02*
X169554819Y-87588094D01*
X169554819Y-87588094D02*
X170031009Y-87635713D01*
X170031009Y-87635713D02*
X169983390Y-87588094D01*
X169983390Y-87588094D02*
X169935771Y-87492856D01*
X169935771Y-87492856D02*
X169935771Y-87254761D01*
X169935771Y-87254761D02*
X169983390Y-87159523D01*
X169983390Y-87159523D02*
X170031009Y-87111904D01*
X170031009Y-87111904D02*
X170126247Y-87064285D01*
X170126247Y-87064285D02*
X170364342Y-87064285D01*
X170364342Y-87064285D02*
X170459580Y-87111904D01*
X170459580Y-87111904D02*
X170507200Y-87159523D01*
X170507200Y-87159523D02*
X170554819Y-87254761D01*
X170554819Y-87254761D02*
X170554819Y-87492856D01*
X170554819Y-87492856D02*
X170507200Y-87588094D01*
X170507200Y-87588094D02*
X170459580Y-87635713D01*
X170174819Y-100506666D02*
X169698628Y-100839999D01*
X170174819Y-101078094D02*
X169174819Y-101078094D01*
X169174819Y-101078094D02*
X169174819Y-100697142D01*
X169174819Y-100697142D02*
X169222438Y-100601904D01*
X169222438Y-100601904D02*
X169270057Y-100554285D01*
X169270057Y-100554285D02*
X169365295Y-100506666D01*
X169365295Y-100506666D02*
X169508152Y-100506666D01*
X169508152Y-100506666D02*
X169603390Y-100554285D01*
X169603390Y-100554285D02*
X169651009Y-100601904D01*
X169651009Y-100601904D02*
X169698628Y-100697142D01*
X169698628Y-100697142D02*
X169698628Y-101078094D01*
X169174819Y-100173332D02*
X169174819Y-99554285D01*
X169174819Y-99554285D02*
X169555771Y-99887618D01*
X169555771Y-99887618D02*
X169555771Y-99744761D01*
X169555771Y-99744761D02*
X169603390Y-99649523D01*
X169603390Y-99649523D02*
X169651009Y-99601904D01*
X169651009Y-99601904D02*
X169746247Y-99554285D01*
X169746247Y-99554285D02*
X169984342Y-99554285D01*
X169984342Y-99554285D02*
X170079580Y-99601904D01*
X170079580Y-99601904D02*
X170127200Y-99649523D01*
X170127200Y-99649523D02*
X170174819Y-99744761D01*
X170174819Y-99744761D02*
X170174819Y-100030475D01*
X170174819Y-100030475D02*
X170127200Y-100125713D01*
X170127200Y-100125713D02*
X170079580Y-100173332D01*
X155179819Y-132183094D02*
X154179819Y-132183094D01*
X154179819Y-132183094D02*
X154179819Y-131944999D01*
X154179819Y-131944999D02*
X154227438Y-131802142D01*
X154227438Y-131802142D02*
X154322676Y-131706904D01*
X154322676Y-131706904D02*
X154417914Y-131659285D01*
X154417914Y-131659285D02*
X154608390Y-131611666D01*
X154608390Y-131611666D02*
X154751247Y-131611666D01*
X154751247Y-131611666D02*
X154941723Y-131659285D01*
X154941723Y-131659285D02*
X155036961Y-131706904D01*
X155036961Y-131706904D02*
X155132200Y-131802142D01*
X155132200Y-131802142D02*
X155179819Y-131944999D01*
X155179819Y-131944999D02*
X155179819Y-132183094D01*
X154513152Y-130754523D02*
X155179819Y-130754523D01*
X154132200Y-130992618D02*
X154846485Y-131230713D01*
X154846485Y-131230713D02*
X154846485Y-130611666D01*
X155499819Y-135516904D02*
X154499819Y-135516904D01*
X155499819Y-134945476D02*
X154928390Y-135374047D01*
X154499819Y-134945476D02*
X155071247Y-135516904D01*
X116355952Y-91109819D02*
X115879762Y-91109819D01*
X115879762Y-91109819D02*
X115879762Y-90109819D01*
X116689286Y-90586009D02*
X117022619Y-90586009D01*
X117165476Y-91109819D02*
X116689286Y-91109819D01*
X116689286Y-91109819D02*
X116689286Y-90109819D01*
X116689286Y-90109819D02*
X117165476Y-90109819D01*
X117594048Y-91109819D02*
X117594048Y-90109819D01*
X117594048Y-90109819D02*
X117832143Y-90109819D01*
X117832143Y-90109819D02*
X117975000Y-90157438D01*
X117975000Y-90157438D02*
X118070238Y-90252676D01*
X118070238Y-90252676D02*
X118117857Y-90347914D01*
X118117857Y-90347914D02*
X118165476Y-90538390D01*
X118165476Y-90538390D02*
X118165476Y-90681247D01*
X118165476Y-90681247D02*
X118117857Y-90871723D01*
X118117857Y-90871723D02*
X118070238Y-90966961D01*
X118070238Y-90966961D02*
X117975000Y-91062200D01*
X117975000Y-91062200D02*
X117832143Y-91109819D01*
X117832143Y-91109819D02*
X117594048Y-91109819D01*
X119117857Y-91109819D02*
X118546429Y-91109819D01*
X118832143Y-91109819D02*
X118832143Y-90109819D01*
X118832143Y-90109819D02*
X118736905Y-90252676D01*
X118736905Y-90252676D02*
X118641667Y-90347914D01*
X118641667Y-90347914D02*
X118546429Y-90395533D01*
X161279819Y-120181666D02*
X160803628Y-120514999D01*
X161279819Y-120753094D02*
X160279819Y-120753094D01*
X160279819Y-120753094D02*
X160279819Y-120372142D01*
X160279819Y-120372142D02*
X160327438Y-120276904D01*
X160327438Y-120276904D02*
X160375057Y-120229285D01*
X160375057Y-120229285D02*
X160470295Y-120181666D01*
X160470295Y-120181666D02*
X160613152Y-120181666D01*
X160613152Y-120181666D02*
X160708390Y-120229285D01*
X160708390Y-120229285D02*
X160756009Y-120276904D01*
X160756009Y-120276904D02*
X160803628Y-120372142D01*
X160803628Y-120372142D02*
X160803628Y-120753094D01*
X161279819Y-119705475D02*
X161279819Y-119514999D01*
X161279819Y-119514999D02*
X161232200Y-119419761D01*
X161232200Y-119419761D02*
X161184580Y-119372142D01*
X161184580Y-119372142D02*
X161041723Y-119276904D01*
X161041723Y-119276904D02*
X160851247Y-119229285D01*
X160851247Y-119229285D02*
X160470295Y-119229285D01*
X160470295Y-119229285D02*
X160375057Y-119276904D01*
X160375057Y-119276904D02*
X160327438Y-119324523D01*
X160327438Y-119324523D02*
X160279819Y-119419761D01*
X160279819Y-119419761D02*
X160279819Y-119610237D01*
X160279819Y-119610237D02*
X160327438Y-119705475D01*
X160327438Y-119705475D02*
X160375057Y-119753094D01*
X160375057Y-119753094D02*
X160470295Y-119800713D01*
X160470295Y-119800713D02*
X160708390Y-119800713D01*
X160708390Y-119800713D02*
X160803628Y-119753094D01*
X160803628Y-119753094D02*
X160851247Y-119705475D01*
X160851247Y-119705475D02*
X160898866Y-119610237D01*
X160898866Y-119610237D02*
X160898866Y-119419761D01*
X160898866Y-119419761D02*
X160851247Y-119324523D01*
X160851247Y-119324523D02*
X160803628Y-119276904D01*
X160803628Y-119276904D02*
X160708390Y-119229285D01*
X117308333Y-130164819D02*
X116975000Y-129688628D01*
X116736905Y-130164819D02*
X116736905Y-129164819D01*
X116736905Y-129164819D02*
X117117857Y-129164819D01*
X117117857Y-129164819D02*
X117213095Y-129212438D01*
X117213095Y-129212438D02*
X117260714Y-129260057D01*
X117260714Y-129260057D02*
X117308333Y-129355295D01*
X117308333Y-129355295D02*
X117308333Y-129498152D01*
X117308333Y-129498152D02*
X117260714Y-129593390D01*
X117260714Y-129593390D02*
X117213095Y-129641009D01*
X117213095Y-129641009D02*
X117117857Y-129688628D01*
X117117857Y-129688628D02*
X116736905Y-129688628D01*
X117879762Y-129593390D02*
X117784524Y-129545771D01*
X117784524Y-129545771D02*
X117736905Y-129498152D01*
X117736905Y-129498152D02*
X117689286Y-129402914D01*
X117689286Y-129402914D02*
X117689286Y-129355295D01*
X117689286Y-129355295D02*
X117736905Y-129260057D01*
X117736905Y-129260057D02*
X117784524Y-129212438D01*
X117784524Y-129212438D02*
X117879762Y-129164819D01*
X117879762Y-129164819D02*
X118070238Y-129164819D01*
X118070238Y-129164819D02*
X118165476Y-129212438D01*
X118165476Y-129212438D02*
X118213095Y-129260057D01*
X118213095Y-129260057D02*
X118260714Y-129355295D01*
X118260714Y-129355295D02*
X118260714Y-129402914D01*
X118260714Y-129402914D02*
X118213095Y-129498152D01*
X118213095Y-129498152D02*
X118165476Y-129545771D01*
X118165476Y-129545771D02*
X118070238Y-129593390D01*
X118070238Y-129593390D02*
X117879762Y-129593390D01*
X117879762Y-129593390D02*
X117784524Y-129641009D01*
X117784524Y-129641009D02*
X117736905Y-129688628D01*
X117736905Y-129688628D02*
X117689286Y-129783866D01*
X117689286Y-129783866D02*
X117689286Y-129974342D01*
X117689286Y-129974342D02*
X117736905Y-130069580D01*
X117736905Y-130069580D02*
X117784524Y-130117200D01*
X117784524Y-130117200D02*
X117879762Y-130164819D01*
X117879762Y-130164819D02*
X118070238Y-130164819D01*
X118070238Y-130164819D02*
X118165476Y-130117200D01*
X118165476Y-130117200D02*
X118213095Y-130069580D01*
X118213095Y-130069580D02*
X118260714Y-129974342D01*
X118260714Y-129974342D02*
X118260714Y-129783866D01*
X118260714Y-129783866D02*
X118213095Y-129688628D01*
X118213095Y-129688628D02*
X118165476Y-129641009D01*
X118165476Y-129641009D02*
X118070238Y-129593390D01*
X141127200Y-121305832D02*
X141174819Y-121162975D01*
X141174819Y-121162975D02*
X141174819Y-120924880D01*
X141174819Y-120924880D02*
X141127200Y-120829642D01*
X141127200Y-120829642D02*
X141079580Y-120782023D01*
X141079580Y-120782023D02*
X140984342Y-120734404D01*
X140984342Y-120734404D02*
X140889104Y-120734404D01*
X140889104Y-120734404D02*
X140793866Y-120782023D01*
X140793866Y-120782023D02*
X140746247Y-120829642D01*
X140746247Y-120829642D02*
X140698628Y-120924880D01*
X140698628Y-120924880D02*
X140651009Y-121115356D01*
X140651009Y-121115356D02*
X140603390Y-121210594D01*
X140603390Y-121210594D02*
X140555771Y-121258213D01*
X140555771Y-121258213D02*
X140460533Y-121305832D01*
X140460533Y-121305832D02*
X140365295Y-121305832D01*
X140365295Y-121305832D02*
X140270057Y-121258213D01*
X140270057Y-121258213D02*
X140222438Y-121210594D01*
X140222438Y-121210594D02*
X140174819Y-121115356D01*
X140174819Y-121115356D02*
X140174819Y-120877261D01*
X140174819Y-120877261D02*
X140222438Y-120734404D01*
X140174819Y-120401070D02*
X141174819Y-120162975D01*
X141174819Y-120162975D02*
X140460533Y-119972499D01*
X140460533Y-119972499D02*
X141174819Y-119782023D01*
X141174819Y-119782023D02*
X140174819Y-119543928D01*
X141174819Y-118639166D02*
X141174819Y-119210594D01*
X141174819Y-118924880D02*
X140174819Y-118924880D01*
X140174819Y-118924880D02*
X140317676Y-119020118D01*
X140317676Y-119020118D02*
X140412914Y-119115356D01*
X140412914Y-119115356D02*
X140460533Y-119210594D01*
X151287200Y-121305832D02*
X151334819Y-121162975D01*
X151334819Y-121162975D02*
X151334819Y-120924880D01*
X151334819Y-120924880D02*
X151287200Y-120829642D01*
X151287200Y-120829642D02*
X151239580Y-120782023D01*
X151239580Y-120782023D02*
X151144342Y-120734404D01*
X151144342Y-120734404D02*
X151049104Y-120734404D01*
X151049104Y-120734404D02*
X150953866Y-120782023D01*
X150953866Y-120782023D02*
X150906247Y-120829642D01*
X150906247Y-120829642D02*
X150858628Y-120924880D01*
X150858628Y-120924880D02*
X150811009Y-121115356D01*
X150811009Y-121115356D02*
X150763390Y-121210594D01*
X150763390Y-121210594D02*
X150715771Y-121258213D01*
X150715771Y-121258213D02*
X150620533Y-121305832D01*
X150620533Y-121305832D02*
X150525295Y-121305832D01*
X150525295Y-121305832D02*
X150430057Y-121258213D01*
X150430057Y-121258213D02*
X150382438Y-121210594D01*
X150382438Y-121210594D02*
X150334819Y-121115356D01*
X150334819Y-121115356D02*
X150334819Y-120877261D01*
X150334819Y-120877261D02*
X150382438Y-120734404D01*
X150334819Y-120401070D02*
X151334819Y-120162975D01*
X151334819Y-120162975D02*
X150620533Y-119972499D01*
X150620533Y-119972499D02*
X151334819Y-119782023D01*
X151334819Y-119782023D02*
X150334819Y-119543928D01*
X150430057Y-119210594D02*
X150382438Y-119162975D01*
X150382438Y-119162975D02*
X150334819Y-119067737D01*
X150334819Y-119067737D02*
X150334819Y-118829642D01*
X150334819Y-118829642D02*
X150382438Y-118734404D01*
X150382438Y-118734404D02*
X150430057Y-118686785D01*
X150430057Y-118686785D02*
X150525295Y-118639166D01*
X150525295Y-118639166D02*
X150620533Y-118639166D01*
X150620533Y-118639166D02*
X150763390Y-118686785D01*
X150763390Y-118686785D02*
X151334819Y-119258213D01*
X151334819Y-119258213D02*
X151334819Y-118639166D01*
X146289819Y-132183094D02*
X145289819Y-132183094D01*
X145289819Y-132183094D02*
X145289819Y-131944999D01*
X145289819Y-131944999D02*
X145337438Y-131802142D01*
X145337438Y-131802142D02*
X145432676Y-131706904D01*
X145432676Y-131706904D02*
X145527914Y-131659285D01*
X145527914Y-131659285D02*
X145718390Y-131611666D01*
X145718390Y-131611666D02*
X145861247Y-131611666D01*
X145861247Y-131611666D02*
X146051723Y-131659285D01*
X146051723Y-131659285D02*
X146146961Y-131706904D01*
X146146961Y-131706904D02*
X146242200Y-131802142D01*
X146242200Y-131802142D02*
X146289819Y-131944999D01*
X146289819Y-131944999D02*
X146289819Y-132183094D01*
X145385057Y-131230713D02*
X145337438Y-131183094D01*
X145337438Y-131183094D02*
X145289819Y-131087856D01*
X145289819Y-131087856D02*
X145289819Y-130849761D01*
X145289819Y-130849761D02*
X145337438Y-130754523D01*
X145337438Y-130754523D02*
X145385057Y-130706904D01*
X145385057Y-130706904D02*
X145480295Y-130659285D01*
X145480295Y-130659285D02*
X145575533Y-130659285D01*
X145575533Y-130659285D02*
X145718390Y-130706904D01*
X145718390Y-130706904D02*
X146289819Y-131278332D01*
X146289819Y-131278332D02*
X146289819Y-130659285D01*
X146609819Y-135516904D02*
X145609819Y-135516904D01*
X146609819Y-134945476D02*
X146038390Y-135374047D01*
X145609819Y-134945476D02*
X146181247Y-135516904D01*
X138299819Y-125366666D02*
X137823628Y-125699999D01*
X138299819Y-125938094D02*
X137299819Y-125938094D01*
X137299819Y-125938094D02*
X137299819Y-125557142D01*
X137299819Y-125557142D02*
X137347438Y-125461904D01*
X137347438Y-125461904D02*
X137395057Y-125414285D01*
X137395057Y-125414285D02*
X137490295Y-125366666D01*
X137490295Y-125366666D02*
X137633152Y-125366666D01*
X137633152Y-125366666D02*
X137728390Y-125414285D01*
X137728390Y-125414285D02*
X137776009Y-125461904D01*
X137776009Y-125461904D02*
X137823628Y-125557142D01*
X137823628Y-125557142D02*
X137823628Y-125938094D01*
X138299819Y-124414285D02*
X138299819Y-124985713D01*
X138299819Y-124699999D02*
X137299819Y-124699999D01*
X137299819Y-124699999D02*
X137442676Y-124795237D01*
X137442676Y-124795237D02*
X137537914Y-124890475D01*
X137537914Y-124890475D02*
X137585533Y-124985713D01*
X116350952Y-100634819D02*
X115874762Y-100634819D01*
X115874762Y-100634819D02*
X115874762Y-99634819D01*
X116684286Y-100111009D02*
X117017619Y-100111009D01*
X117160476Y-100634819D02*
X116684286Y-100634819D01*
X116684286Y-100634819D02*
X116684286Y-99634819D01*
X116684286Y-99634819D02*
X117160476Y-99634819D01*
X117589048Y-100634819D02*
X117589048Y-99634819D01*
X117589048Y-99634819D02*
X117827143Y-99634819D01*
X117827143Y-99634819D02*
X117970000Y-99682438D01*
X117970000Y-99682438D02*
X118065238Y-99777676D01*
X118065238Y-99777676D02*
X118112857Y-99872914D01*
X118112857Y-99872914D02*
X118160476Y-100063390D01*
X118160476Y-100063390D02*
X118160476Y-100206247D01*
X118160476Y-100206247D02*
X118112857Y-100396723D01*
X118112857Y-100396723D02*
X118065238Y-100491961D01*
X118065238Y-100491961D02*
X117970000Y-100587200D01*
X117970000Y-100587200D02*
X117827143Y-100634819D01*
X117827143Y-100634819D02*
X117589048Y-100634819D01*
X118541429Y-99730057D02*
X118589048Y-99682438D01*
X118589048Y-99682438D02*
X118684286Y-99634819D01*
X118684286Y-99634819D02*
X118922381Y-99634819D01*
X118922381Y-99634819D02*
X119017619Y-99682438D01*
X119017619Y-99682438D02*
X119065238Y-99730057D01*
X119065238Y-99730057D02*
X119112857Y-99825295D01*
X119112857Y-99825295D02*
X119112857Y-99920533D01*
X119112857Y-99920533D02*
X119065238Y-100063390D01*
X119065238Y-100063390D02*
X118493810Y-100634819D01*
X118493810Y-100634819D02*
X119112857Y-100634819D01*
X138359580Y-105316666D02*
X138407200Y-105364285D01*
X138407200Y-105364285D02*
X138454819Y-105507142D01*
X138454819Y-105507142D02*
X138454819Y-105602380D01*
X138454819Y-105602380D02*
X138407200Y-105745237D01*
X138407200Y-105745237D02*
X138311961Y-105840475D01*
X138311961Y-105840475D02*
X138216723Y-105888094D01*
X138216723Y-105888094D02*
X138026247Y-105935713D01*
X138026247Y-105935713D02*
X137883390Y-105935713D01*
X137883390Y-105935713D02*
X137692914Y-105888094D01*
X137692914Y-105888094D02*
X137597676Y-105840475D01*
X137597676Y-105840475D02*
X137502438Y-105745237D01*
X137502438Y-105745237D02*
X137454819Y-105602380D01*
X137454819Y-105602380D02*
X137454819Y-105507142D01*
X137454819Y-105507142D02*
X137502438Y-105364285D01*
X137502438Y-105364285D02*
X137550057Y-105316666D01*
X137788152Y-104459523D02*
X138454819Y-104459523D01*
X137407200Y-104697618D02*
X138121485Y-104935713D01*
X138121485Y-104935713D02*
X138121485Y-104316666D01*
X141443333Y-107384819D02*
X141110000Y-106908628D01*
X140871905Y-107384819D02*
X140871905Y-106384819D01*
X140871905Y-106384819D02*
X141252857Y-106384819D01*
X141252857Y-106384819D02*
X141348095Y-106432438D01*
X141348095Y-106432438D02*
X141395714Y-106480057D01*
X141395714Y-106480057D02*
X141443333Y-106575295D01*
X141443333Y-106575295D02*
X141443333Y-106718152D01*
X141443333Y-106718152D02*
X141395714Y-106813390D01*
X141395714Y-106813390D02*
X141348095Y-106861009D01*
X141348095Y-106861009D02*
X141252857Y-106908628D01*
X141252857Y-106908628D02*
X140871905Y-106908628D01*
X142348095Y-106384819D02*
X141871905Y-106384819D01*
X141871905Y-106384819D02*
X141824286Y-106861009D01*
X141824286Y-106861009D02*
X141871905Y-106813390D01*
X141871905Y-106813390D02*
X141967143Y-106765771D01*
X141967143Y-106765771D02*
X142205238Y-106765771D01*
X142205238Y-106765771D02*
X142300476Y-106813390D01*
X142300476Y-106813390D02*
X142348095Y-106861009D01*
X142348095Y-106861009D02*
X142395714Y-106956247D01*
X142395714Y-106956247D02*
X142395714Y-107194342D01*
X142395714Y-107194342D02*
X142348095Y-107289580D01*
X142348095Y-107289580D02*
X142300476Y-107337200D01*
X142300476Y-107337200D02*
X142205238Y-107384819D01*
X142205238Y-107384819D02*
X141967143Y-107384819D01*
X141967143Y-107384819D02*
X141871905Y-107337200D01*
X141871905Y-107337200D02*
X141824286Y-107289580D01*
X117308333Y-125084819D02*
X116975000Y-124608628D01*
X116736905Y-125084819D02*
X116736905Y-124084819D01*
X116736905Y-124084819D02*
X117117857Y-124084819D01*
X117117857Y-124084819D02*
X117213095Y-124132438D01*
X117213095Y-124132438D02*
X117260714Y-124180057D01*
X117260714Y-124180057D02*
X117308333Y-124275295D01*
X117308333Y-124275295D02*
X117308333Y-124418152D01*
X117308333Y-124418152D02*
X117260714Y-124513390D01*
X117260714Y-124513390D02*
X117213095Y-124561009D01*
X117213095Y-124561009D02*
X117117857Y-124608628D01*
X117117857Y-124608628D02*
X116736905Y-124608628D01*
X117641667Y-124084819D02*
X118308333Y-124084819D01*
X118308333Y-124084819D02*
X117879762Y-125084819D01*
X127571667Y-131412200D02*
X127714524Y-131459819D01*
X127714524Y-131459819D02*
X127952619Y-131459819D01*
X127952619Y-131459819D02*
X128047857Y-131412200D01*
X128047857Y-131412200D02*
X128095476Y-131364580D01*
X128095476Y-131364580D02*
X128143095Y-131269342D01*
X128143095Y-131269342D02*
X128143095Y-131174104D01*
X128143095Y-131174104D02*
X128095476Y-131078866D01*
X128095476Y-131078866D02*
X128047857Y-131031247D01*
X128047857Y-131031247D02*
X127952619Y-130983628D01*
X127952619Y-130983628D02*
X127762143Y-130936009D01*
X127762143Y-130936009D02*
X127666905Y-130888390D01*
X127666905Y-130888390D02*
X127619286Y-130840771D01*
X127619286Y-130840771D02*
X127571667Y-130745533D01*
X127571667Y-130745533D02*
X127571667Y-130650295D01*
X127571667Y-130650295D02*
X127619286Y-130555057D01*
X127619286Y-130555057D02*
X127666905Y-130507438D01*
X127666905Y-130507438D02*
X127762143Y-130459819D01*
X127762143Y-130459819D02*
X128000238Y-130459819D01*
X128000238Y-130459819D02*
X128143095Y-130507438D01*
X128476429Y-130459819D02*
X128714524Y-131459819D01*
X128714524Y-131459819D02*
X128905000Y-130745533D01*
X128905000Y-130745533D02*
X129095476Y-131459819D01*
X129095476Y-131459819D02*
X129333572Y-130459819D01*
X129619286Y-130459819D02*
X130238333Y-130459819D01*
X130238333Y-130459819D02*
X129905000Y-130840771D01*
X129905000Y-130840771D02*
X130047857Y-130840771D01*
X130047857Y-130840771D02*
X130143095Y-130888390D01*
X130143095Y-130888390D02*
X130190714Y-130936009D01*
X130190714Y-130936009D02*
X130238333Y-131031247D01*
X130238333Y-131031247D02*
X130238333Y-131269342D01*
X130238333Y-131269342D02*
X130190714Y-131364580D01*
X130190714Y-131364580D02*
X130143095Y-131412200D01*
X130143095Y-131412200D02*
X130047857Y-131459819D01*
X130047857Y-131459819D02*
X129762143Y-131459819D01*
X129762143Y-131459819D02*
X129666905Y-131412200D01*
X129666905Y-131412200D02*
X129619286Y-131364580D01*
X114898180Y-75739666D02*
X114183895Y-75739666D01*
X114183895Y-75739666D02*
X114041038Y-75692047D01*
X114041038Y-75692047D02*
X113945800Y-75596809D01*
X113945800Y-75596809D02*
X113898180Y-75453952D01*
X113898180Y-75453952D02*
X113898180Y-75358714D01*
X113898180Y-76739666D02*
X113898180Y-76168238D01*
X113898180Y-76453952D02*
X114898180Y-76453952D01*
X114898180Y-76453952D02*
X114755323Y-76358714D01*
X114755323Y-76358714D02*
X114660085Y-76263476D01*
X114660085Y-76263476D02*
X114612466Y-76168238D01*
X124824761Y-101140057D02*
X124729523Y-101092438D01*
X124729523Y-101092438D02*
X124634285Y-100997200D01*
X124634285Y-100997200D02*
X124491428Y-100854342D01*
X124491428Y-100854342D02*
X124396190Y-100806723D01*
X124396190Y-100806723D02*
X124300952Y-100806723D01*
X124348571Y-101044819D02*
X124253333Y-100997200D01*
X124253333Y-100997200D02*
X124158095Y-100901961D01*
X124158095Y-100901961D02*
X124110476Y-100711485D01*
X124110476Y-100711485D02*
X124110476Y-100378152D01*
X124110476Y-100378152D02*
X124158095Y-100187676D01*
X124158095Y-100187676D02*
X124253333Y-100092438D01*
X124253333Y-100092438D02*
X124348571Y-100044819D01*
X124348571Y-100044819D02*
X124539047Y-100044819D01*
X124539047Y-100044819D02*
X124634285Y-100092438D01*
X124634285Y-100092438D02*
X124729523Y-100187676D01*
X124729523Y-100187676D02*
X124777142Y-100378152D01*
X124777142Y-100378152D02*
X124777142Y-100711485D01*
X124777142Y-100711485D02*
X124729523Y-100901961D01*
X124729523Y-100901961D02*
X124634285Y-100997200D01*
X124634285Y-100997200D02*
X124539047Y-101044819D01*
X124539047Y-101044819D02*
X124348571Y-101044819D01*
X125158095Y-100140057D02*
X125205714Y-100092438D01*
X125205714Y-100092438D02*
X125300952Y-100044819D01*
X125300952Y-100044819D02*
X125539047Y-100044819D01*
X125539047Y-100044819D02*
X125634285Y-100092438D01*
X125634285Y-100092438D02*
X125681904Y-100140057D01*
X125681904Y-100140057D02*
X125729523Y-100235295D01*
X125729523Y-100235295D02*
X125729523Y-100330533D01*
X125729523Y-100330533D02*
X125681904Y-100473390D01*
X125681904Y-100473390D02*
X125110476Y-101044819D01*
X125110476Y-101044819D02*
X125729523Y-101044819D01*
X131004819Y-125342857D02*
X130528628Y-125676190D01*
X131004819Y-125914285D02*
X130004819Y-125914285D01*
X130004819Y-125914285D02*
X130004819Y-125533333D01*
X130004819Y-125533333D02*
X130052438Y-125438095D01*
X130052438Y-125438095D02*
X130100057Y-125390476D01*
X130100057Y-125390476D02*
X130195295Y-125342857D01*
X130195295Y-125342857D02*
X130338152Y-125342857D01*
X130338152Y-125342857D02*
X130433390Y-125390476D01*
X130433390Y-125390476D02*
X130481009Y-125438095D01*
X130481009Y-125438095D02*
X130528628Y-125533333D01*
X130528628Y-125533333D02*
X130528628Y-125914285D01*
X131004819Y-124390476D02*
X131004819Y-124961904D01*
X131004819Y-124676190D02*
X130004819Y-124676190D01*
X130004819Y-124676190D02*
X130147676Y-124771428D01*
X130147676Y-124771428D02*
X130242914Y-124866666D01*
X130242914Y-124866666D02*
X130290533Y-124961904D01*
X130004819Y-123533333D02*
X130004819Y-123723809D01*
X130004819Y-123723809D02*
X130052438Y-123819047D01*
X130052438Y-123819047D02*
X130100057Y-123866666D01*
X130100057Y-123866666D02*
X130242914Y-123961904D01*
X130242914Y-123961904D02*
X130433390Y-124009523D01*
X130433390Y-124009523D02*
X130814342Y-124009523D01*
X130814342Y-124009523D02*
X130909580Y-123961904D01*
X130909580Y-123961904D02*
X130957200Y-123914285D01*
X130957200Y-123914285D02*
X131004819Y-123819047D01*
X131004819Y-123819047D02*
X131004819Y-123628571D01*
X131004819Y-123628571D02*
X130957200Y-123533333D01*
X130957200Y-123533333D02*
X130909580Y-123485714D01*
X130909580Y-123485714D02*
X130814342Y-123438095D01*
X130814342Y-123438095D02*
X130576247Y-123438095D01*
X130576247Y-123438095D02*
X130481009Y-123485714D01*
X130481009Y-123485714D02*
X130433390Y-123533333D01*
X130433390Y-123533333D02*
X130385771Y-123628571D01*
X130385771Y-123628571D02*
X130385771Y-123819047D01*
X130385771Y-123819047D02*
X130433390Y-123914285D01*
X130433390Y-123914285D02*
X130481009Y-123961904D01*
X130481009Y-123961904D02*
X130576247Y-124009523D01*
X131154819Y-90142857D02*
X130678628Y-90476190D01*
X131154819Y-90714285D02*
X130154819Y-90714285D01*
X130154819Y-90714285D02*
X130154819Y-90333333D01*
X130154819Y-90333333D02*
X130202438Y-90238095D01*
X130202438Y-90238095D02*
X130250057Y-90190476D01*
X130250057Y-90190476D02*
X130345295Y-90142857D01*
X130345295Y-90142857D02*
X130488152Y-90142857D01*
X130488152Y-90142857D02*
X130583390Y-90190476D01*
X130583390Y-90190476D02*
X130631009Y-90238095D01*
X130631009Y-90238095D02*
X130678628Y-90333333D01*
X130678628Y-90333333D02*
X130678628Y-90714285D01*
X131154819Y-89190476D02*
X131154819Y-89761904D01*
X131154819Y-89476190D02*
X130154819Y-89476190D01*
X130154819Y-89476190D02*
X130297676Y-89571428D01*
X130297676Y-89571428D02*
X130392914Y-89666666D01*
X130392914Y-89666666D02*
X130440533Y-89761904D01*
X130250057Y-88809523D02*
X130202438Y-88761904D01*
X130202438Y-88761904D02*
X130154819Y-88666666D01*
X130154819Y-88666666D02*
X130154819Y-88428571D01*
X130154819Y-88428571D02*
X130202438Y-88333333D01*
X130202438Y-88333333D02*
X130250057Y-88285714D01*
X130250057Y-88285714D02*
X130345295Y-88238095D01*
X130345295Y-88238095D02*
X130440533Y-88238095D01*
X130440533Y-88238095D02*
X130583390Y-88285714D01*
X130583390Y-88285714D02*
X131154819Y-88857142D01*
X131154819Y-88857142D02*
X131154819Y-88238095D01*
X160724580Y-100506666D02*
X160772200Y-100554285D01*
X160772200Y-100554285D02*
X160819819Y-100697142D01*
X160819819Y-100697142D02*
X160819819Y-100792380D01*
X160819819Y-100792380D02*
X160772200Y-100935237D01*
X160772200Y-100935237D02*
X160676961Y-101030475D01*
X160676961Y-101030475D02*
X160581723Y-101078094D01*
X160581723Y-101078094D02*
X160391247Y-101125713D01*
X160391247Y-101125713D02*
X160248390Y-101125713D01*
X160248390Y-101125713D02*
X160057914Y-101078094D01*
X160057914Y-101078094D02*
X159962676Y-101030475D01*
X159962676Y-101030475D02*
X159867438Y-100935237D01*
X159867438Y-100935237D02*
X159819819Y-100792380D01*
X159819819Y-100792380D02*
X159819819Y-100697142D01*
X159819819Y-100697142D02*
X159867438Y-100554285D01*
X159867438Y-100554285D02*
X159915057Y-100506666D01*
X159915057Y-100125713D02*
X159867438Y-100078094D01*
X159867438Y-100078094D02*
X159819819Y-99982856D01*
X159819819Y-99982856D02*
X159819819Y-99744761D01*
X159819819Y-99744761D02*
X159867438Y-99649523D01*
X159867438Y-99649523D02*
X159915057Y-99601904D01*
X159915057Y-99601904D02*
X160010295Y-99554285D01*
X160010295Y-99554285D02*
X160105533Y-99554285D01*
X160105533Y-99554285D02*
X160248390Y-99601904D01*
X160248390Y-99601904D02*
X160819819Y-100173332D01*
X160819819Y-100173332D02*
X160819819Y-99554285D01*
X128804819Y-107842857D02*
X128328628Y-108176190D01*
X128804819Y-108414285D02*
X127804819Y-108414285D01*
X127804819Y-108414285D02*
X127804819Y-108033333D01*
X127804819Y-108033333D02*
X127852438Y-107938095D01*
X127852438Y-107938095D02*
X127900057Y-107890476D01*
X127900057Y-107890476D02*
X127995295Y-107842857D01*
X127995295Y-107842857D02*
X128138152Y-107842857D01*
X128138152Y-107842857D02*
X128233390Y-107890476D01*
X128233390Y-107890476D02*
X128281009Y-107938095D01*
X128281009Y-107938095D02*
X128328628Y-108033333D01*
X128328628Y-108033333D02*
X128328628Y-108414285D01*
X128804819Y-106890476D02*
X128804819Y-107461904D01*
X128804819Y-107176190D02*
X127804819Y-107176190D01*
X127804819Y-107176190D02*
X127947676Y-107271428D01*
X127947676Y-107271428D02*
X128042914Y-107366666D01*
X128042914Y-107366666D02*
X128090533Y-107461904D01*
X128138152Y-106033333D02*
X128804819Y-106033333D01*
X127757200Y-106271428D02*
X128471485Y-106509523D01*
X128471485Y-106509523D02*
X128471485Y-105890476D01*
X135559580Y-135266666D02*
X135607200Y-135314285D01*
X135607200Y-135314285D02*
X135654819Y-135457142D01*
X135654819Y-135457142D02*
X135654819Y-135552380D01*
X135654819Y-135552380D02*
X135607200Y-135695237D01*
X135607200Y-135695237D02*
X135511961Y-135790475D01*
X135511961Y-135790475D02*
X135416723Y-135838094D01*
X135416723Y-135838094D02*
X135226247Y-135885713D01*
X135226247Y-135885713D02*
X135083390Y-135885713D01*
X135083390Y-135885713D02*
X134892914Y-135838094D01*
X134892914Y-135838094D02*
X134797676Y-135790475D01*
X134797676Y-135790475D02*
X134702438Y-135695237D01*
X134702438Y-135695237D02*
X134654819Y-135552380D01*
X134654819Y-135552380D02*
X134654819Y-135457142D01*
X134654819Y-135457142D02*
X134702438Y-135314285D01*
X134702438Y-135314285D02*
X134750057Y-135266666D01*
X135654819Y-134314285D02*
X135654819Y-134885713D01*
X135654819Y-134599999D02*
X134654819Y-134599999D01*
X134654819Y-134599999D02*
X134797676Y-134695237D01*
X134797676Y-134695237D02*
X134892914Y-134790475D01*
X134892914Y-134790475D02*
X134940533Y-134885713D01*
X128571666Y-72361009D02*
X128238333Y-72361009D01*
X128238333Y-72884819D02*
X128238333Y-71884819D01*
X128238333Y-71884819D02*
X128714523Y-71884819D01*
X129619285Y-72884819D02*
X129047857Y-72884819D01*
X129333571Y-72884819D02*
X129333571Y-71884819D01*
X129333571Y-71884819D02*
X129238333Y-72027676D01*
X129238333Y-72027676D02*
X129143095Y-72122914D01*
X129143095Y-72122914D02*
X129047857Y-72170533D01*
X128738333Y-68009580D02*
X128690714Y-68057200D01*
X128690714Y-68057200D02*
X128547857Y-68104819D01*
X128547857Y-68104819D02*
X128452619Y-68104819D01*
X128452619Y-68104819D02*
X128309762Y-68057200D01*
X128309762Y-68057200D02*
X128214524Y-67961961D01*
X128214524Y-67961961D02*
X128166905Y-67866723D01*
X128166905Y-67866723D02*
X128119286Y-67676247D01*
X128119286Y-67676247D02*
X128119286Y-67533390D01*
X128119286Y-67533390D02*
X128166905Y-67342914D01*
X128166905Y-67342914D02*
X128214524Y-67247676D01*
X128214524Y-67247676D02*
X128309762Y-67152438D01*
X128309762Y-67152438D02*
X128452619Y-67104819D01*
X128452619Y-67104819D02*
X128547857Y-67104819D01*
X128547857Y-67104819D02*
X128690714Y-67152438D01*
X128690714Y-67152438D02*
X128738333Y-67200057D01*
X129071667Y-67104819D02*
X129690714Y-67104819D01*
X129690714Y-67104819D02*
X129357381Y-67485771D01*
X129357381Y-67485771D02*
X129500238Y-67485771D01*
X129500238Y-67485771D02*
X129595476Y-67533390D01*
X129595476Y-67533390D02*
X129643095Y-67581009D01*
X129643095Y-67581009D02*
X129690714Y-67676247D01*
X129690714Y-67676247D02*
X129690714Y-67914342D01*
X129690714Y-67914342D02*
X129643095Y-68009580D01*
X129643095Y-68009580D02*
X129595476Y-68057200D01*
X129595476Y-68057200D02*
X129500238Y-68104819D01*
X129500238Y-68104819D02*
X129214524Y-68104819D01*
X129214524Y-68104819D02*
X129119286Y-68057200D01*
X129119286Y-68057200D02*
X129071667Y-68009580D01*
X148009580Y-81666666D02*
X148057200Y-81714285D01*
X148057200Y-81714285D02*
X148104819Y-81857142D01*
X148104819Y-81857142D02*
X148104819Y-81952380D01*
X148104819Y-81952380D02*
X148057200Y-82095237D01*
X148057200Y-82095237D02*
X147961961Y-82190475D01*
X147961961Y-82190475D02*
X147866723Y-82238094D01*
X147866723Y-82238094D02*
X147676247Y-82285713D01*
X147676247Y-82285713D02*
X147533390Y-82285713D01*
X147533390Y-82285713D02*
X147342914Y-82238094D01*
X147342914Y-82238094D02*
X147247676Y-82190475D01*
X147247676Y-82190475D02*
X147152438Y-82095237D01*
X147152438Y-82095237D02*
X147104819Y-81952380D01*
X147104819Y-81952380D02*
X147104819Y-81857142D01*
X147104819Y-81857142D02*
X147152438Y-81714285D01*
X147152438Y-81714285D02*
X147200057Y-81666666D01*
X147104819Y-80809523D02*
X147104819Y-80999999D01*
X147104819Y-80999999D02*
X147152438Y-81095237D01*
X147152438Y-81095237D02*
X147200057Y-81142856D01*
X147200057Y-81142856D02*
X147342914Y-81238094D01*
X147342914Y-81238094D02*
X147533390Y-81285713D01*
X147533390Y-81285713D02*
X147914342Y-81285713D01*
X147914342Y-81285713D02*
X148009580Y-81238094D01*
X148009580Y-81238094D02*
X148057200Y-81190475D01*
X148057200Y-81190475D02*
X148104819Y-81095237D01*
X148104819Y-81095237D02*
X148104819Y-80904761D01*
X148104819Y-80904761D02*
X148057200Y-80809523D01*
X148057200Y-80809523D02*
X148009580Y-80761904D01*
X148009580Y-80761904D02*
X147914342Y-80714285D01*
X147914342Y-80714285D02*
X147676247Y-80714285D01*
X147676247Y-80714285D02*
X147581009Y-80761904D01*
X147581009Y-80761904D02*
X147533390Y-80809523D01*
X147533390Y-80809523D02*
X147485771Y-80904761D01*
X147485771Y-80904761D02*
X147485771Y-81095237D01*
X147485771Y-81095237D02*
X147533390Y-81190475D01*
X147533390Y-81190475D02*
X147581009Y-81238094D01*
X147581009Y-81238094D02*
X147676247Y-81285713D01*
X141844819Y-132183094D02*
X140844819Y-132183094D01*
X140844819Y-132183094D02*
X140844819Y-131944999D01*
X140844819Y-131944999D02*
X140892438Y-131802142D01*
X140892438Y-131802142D02*
X140987676Y-131706904D01*
X140987676Y-131706904D02*
X141082914Y-131659285D01*
X141082914Y-131659285D02*
X141273390Y-131611666D01*
X141273390Y-131611666D02*
X141416247Y-131611666D01*
X141416247Y-131611666D02*
X141606723Y-131659285D01*
X141606723Y-131659285D02*
X141701961Y-131706904D01*
X141701961Y-131706904D02*
X141797200Y-131802142D01*
X141797200Y-131802142D02*
X141844819Y-131944999D01*
X141844819Y-131944999D02*
X141844819Y-132183094D01*
X141844819Y-130659285D02*
X141844819Y-131230713D01*
X141844819Y-130944999D02*
X140844819Y-130944999D01*
X140844819Y-130944999D02*
X140987676Y-131040237D01*
X140987676Y-131040237D02*
X141082914Y-131135475D01*
X141082914Y-131135475D02*
X141130533Y-131230713D01*
X142164819Y-135516904D02*
X141164819Y-135516904D01*
X142164819Y-134945476D02*
X141593390Y-135374047D01*
X141164819Y-134945476D02*
X141736247Y-135516904D01*
X136824819Y-62733333D02*
X137539104Y-62733333D01*
X137539104Y-62733333D02*
X137681961Y-62780952D01*
X137681961Y-62780952D02*
X137777200Y-62876190D01*
X137777200Y-62876190D02*
X137824819Y-63019047D01*
X137824819Y-63019047D02*
X137824819Y-63114285D01*
X136920057Y-62304761D02*
X136872438Y-62257142D01*
X136872438Y-62257142D02*
X136824819Y-62161904D01*
X136824819Y-62161904D02*
X136824819Y-61923809D01*
X136824819Y-61923809D02*
X136872438Y-61828571D01*
X136872438Y-61828571D02*
X136920057Y-61780952D01*
X136920057Y-61780952D02*
X137015295Y-61733333D01*
X137015295Y-61733333D02*
X137110533Y-61733333D01*
X137110533Y-61733333D02*
X137253390Y-61780952D01*
X137253390Y-61780952D02*
X137824819Y-62352380D01*
X137824819Y-62352380D02*
X137824819Y-61733333D01*
X166359819Y-120657857D02*
X165883628Y-120991190D01*
X166359819Y-121229285D02*
X165359819Y-121229285D01*
X165359819Y-121229285D02*
X165359819Y-120848333D01*
X165359819Y-120848333D02*
X165407438Y-120753095D01*
X165407438Y-120753095D02*
X165455057Y-120705476D01*
X165455057Y-120705476D02*
X165550295Y-120657857D01*
X165550295Y-120657857D02*
X165693152Y-120657857D01*
X165693152Y-120657857D02*
X165788390Y-120705476D01*
X165788390Y-120705476D02*
X165836009Y-120753095D01*
X165836009Y-120753095D02*
X165883628Y-120848333D01*
X165883628Y-120848333D02*
X165883628Y-121229285D01*
X166359819Y-119705476D02*
X166359819Y-120276904D01*
X166359819Y-119991190D02*
X165359819Y-119991190D01*
X165359819Y-119991190D02*
X165502676Y-120086428D01*
X165502676Y-120086428D02*
X165597914Y-120181666D01*
X165597914Y-120181666D02*
X165645533Y-120276904D01*
X165359819Y-119086428D02*
X165359819Y-118991190D01*
X165359819Y-118991190D02*
X165407438Y-118895952D01*
X165407438Y-118895952D02*
X165455057Y-118848333D01*
X165455057Y-118848333D02*
X165550295Y-118800714D01*
X165550295Y-118800714D02*
X165740771Y-118753095D01*
X165740771Y-118753095D02*
X165978866Y-118753095D01*
X165978866Y-118753095D02*
X166169342Y-118800714D01*
X166169342Y-118800714D02*
X166264580Y-118848333D01*
X166264580Y-118848333D02*
X166312200Y-118895952D01*
X166312200Y-118895952D02*
X166359819Y-118991190D01*
X166359819Y-118991190D02*
X166359819Y-119086428D01*
X166359819Y-119086428D02*
X166312200Y-119181666D01*
X166312200Y-119181666D02*
X166264580Y-119229285D01*
X166264580Y-119229285D02*
X166169342Y-119276904D01*
X166169342Y-119276904D02*
X165978866Y-119324523D01*
X165978866Y-119324523D02*
X165740771Y-119324523D01*
X165740771Y-119324523D02*
X165550295Y-119276904D01*
X165550295Y-119276904D02*
X165455057Y-119229285D01*
X165455057Y-119229285D02*
X165407438Y-119181666D01*
X165407438Y-119181666D02*
X165359819Y-119086428D01*
X141433333Y-75554819D02*
X141100000Y-75078628D01*
X140861905Y-75554819D02*
X140861905Y-74554819D01*
X140861905Y-74554819D02*
X141242857Y-74554819D01*
X141242857Y-74554819D02*
X141338095Y-74602438D01*
X141338095Y-74602438D02*
X141385714Y-74650057D01*
X141385714Y-74650057D02*
X141433333Y-74745295D01*
X141433333Y-74745295D02*
X141433333Y-74888152D01*
X141433333Y-74888152D02*
X141385714Y-74983390D01*
X141385714Y-74983390D02*
X141338095Y-75031009D01*
X141338095Y-75031009D02*
X141242857Y-75078628D01*
X141242857Y-75078628D02*
X140861905Y-75078628D01*
X141814286Y-74650057D02*
X141861905Y-74602438D01*
X141861905Y-74602438D02*
X141957143Y-74554819D01*
X141957143Y-74554819D02*
X142195238Y-74554819D01*
X142195238Y-74554819D02*
X142290476Y-74602438D01*
X142290476Y-74602438D02*
X142338095Y-74650057D01*
X142338095Y-74650057D02*
X142385714Y-74745295D01*
X142385714Y-74745295D02*
X142385714Y-74840533D01*
X142385714Y-74840533D02*
X142338095Y-74983390D01*
X142338095Y-74983390D02*
X141766667Y-75554819D01*
X141766667Y-75554819D02*
X142385714Y-75554819D01*
X134654819Y-90142857D02*
X134178628Y-90476190D01*
X134654819Y-90714285D02*
X133654819Y-90714285D01*
X133654819Y-90714285D02*
X133654819Y-90333333D01*
X133654819Y-90333333D02*
X133702438Y-90238095D01*
X133702438Y-90238095D02*
X133750057Y-90190476D01*
X133750057Y-90190476D02*
X133845295Y-90142857D01*
X133845295Y-90142857D02*
X133988152Y-90142857D01*
X133988152Y-90142857D02*
X134083390Y-90190476D01*
X134083390Y-90190476D02*
X134131009Y-90238095D01*
X134131009Y-90238095D02*
X134178628Y-90333333D01*
X134178628Y-90333333D02*
X134178628Y-90714285D01*
X134654819Y-89190476D02*
X134654819Y-89761904D01*
X134654819Y-89476190D02*
X133654819Y-89476190D01*
X133654819Y-89476190D02*
X133797676Y-89571428D01*
X133797676Y-89571428D02*
X133892914Y-89666666D01*
X133892914Y-89666666D02*
X133940533Y-89761904D01*
X134654819Y-88238095D02*
X134654819Y-88809523D01*
X134654819Y-88523809D02*
X133654819Y-88523809D01*
X133654819Y-88523809D02*
X133797676Y-88619047D01*
X133797676Y-88619047D02*
X133892914Y-88714285D01*
X133892914Y-88714285D02*
X133940533Y-88809523D01*
X117308333Y-120004819D02*
X116975000Y-119528628D01*
X116736905Y-120004819D02*
X116736905Y-119004819D01*
X116736905Y-119004819D02*
X117117857Y-119004819D01*
X117117857Y-119004819D02*
X117213095Y-119052438D01*
X117213095Y-119052438D02*
X117260714Y-119100057D01*
X117260714Y-119100057D02*
X117308333Y-119195295D01*
X117308333Y-119195295D02*
X117308333Y-119338152D01*
X117308333Y-119338152D02*
X117260714Y-119433390D01*
X117260714Y-119433390D02*
X117213095Y-119481009D01*
X117213095Y-119481009D02*
X117117857Y-119528628D01*
X117117857Y-119528628D02*
X116736905Y-119528628D01*
X118165476Y-119004819D02*
X117975000Y-119004819D01*
X117975000Y-119004819D02*
X117879762Y-119052438D01*
X117879762Y-119052438D02*
X117832143Y-119100057D01*
X117832143Y-119100057D02*
X117736905Y-119242914D01*
X117736905Y-119242914D02*
X117689286Y-119433390D01*
X117689286Y-119433390D02*
X117689286Y-119814342D01*
X117689286Y-119814342D02*
X117736905Y-119909580D01*
X117736905Y-119909580D02*
X117784524Y-119957200D01*
X117784524Y-119957200D02*
X117879762Y-120004819D01*
X117879762Y-120004819D02*
X118070238Y-120004819D01*
X118070238Y-120004819D02*
X118165476Y-119957200D01*
X118165476Y-119957200D02*
X118213095Y-119909580D01*
X118213095Y-119909580D02*
X118260714Y-119814342D01*
X118260714Y-119814342D02*
X118260714Y-119576247D01*
X118260714Y-119576247D02*
X118213095Y-119481009D01*
X118213095Y-119481009D02*
X118165476Y-119433390D01*
X118165476Y-119433390D02*
X118070238Y-119385771D01*
X118070238Y-119385771D02*
X117879762Y-119385771D01*
X117879762Y-119385771D02*
X117784524Y-119433390D01*
X117784524Y-119433390D02*
X117736905Y-119481009D01*
X117736905Y-119481009D02*
X117689286Y-119576247D01*
X137004819Y-106842857D02*
X136528628Y-107176190D01*
X137004819Y-107414285D02*
X136004819Y-107414285D01*
X136004819Y-107414285D02*
X136004819Y-107033333D01*
X136004819Y-107033333D02*
X136052438Y-106938095D01*
X136052438Y-106938095D02*
X136100057Y-106890476D01*
X136100057Y-106890476D02*
X136195295Y-106842857D01*
X136195295Y-106842857D02*
X136338152Y-106842857D01*
X136338152Y-106842857D02*
X136433390Y-106890476D01*
X136433390Y-106890476D02*
X136481009Y-106938095D01*
X136481009Y-106938095D02*
X136528628Y-107033333D01*
X136528628Y-107033333D02*
X136528628Y-107414285D01*
X137004819Y-105890476D02*
X137004819Y-106461904D01*
X137004819Y-106176190D02*
X136004819Y-106176190D01*
X136004819Y-106176190D02*
X136147676Y-106271428D01*
X136147676Y-106271428D02*
X136242914Y-106366666D01*
X136242914Y-106366666D02*
X136290533Y-106461904D01*
X136004819Y-105557142D02*
X136004819Y-104938095D01*
X136004819Y-104938095D02*
X136385771Y-105271428D01*
X136385771Y-105271428D02*
X136385771Y-105128571D01*
X136385771Y-105128571D02*
X136433390Y-105033333D01*
X136433390Y-105033333D02*
X136481009Y-104985714D01*
X136481009Y-104985714D02*
X136576247Y-104938095D01*
X136576247Y-104938095D02*
X136814342Y-104938095D01*
X136814342Y-104938095D02*
X136909580Y-104985714D01*
X136909580Y-104985714D02*
X136957200Y-105033333D01*
X136957200Y-105033333D02*
X137004819Y-105128571D01*
X137004819Y-105128571D02*
X137004819Y-105414285D01*
X137004819Y-105414285D02*
X136957200Y-105509523D01*
X136957200Y-105509523D02*
X136909580Y-105557142D01*
D13*
G04 #@! TO.C,U1*
X140850000Y-95190000D02*
X140850000Y-105470000D01*
X140850000Y-105470000D02*
X158870000Y-105470000D01*
X140910000Y-97680000D02*
X140910000Y-99330000D01*
X140910000Y-101330000D02*
X140910000Y-102980000D01*
X140910000Y-102980000D02*
X158810000Y-102980000D01*
X158810000Y-97680000D02*
X140910000Y-97680000D01*
X158810000Y-102980000D02*
X158810000Y-97680000D01*
X158870000Y-95190000D02*
X140850000Y-95190000D01*
X158870000Y-105470000D02*
X158870000Y-95190000D01*
X140910000Y-99330000D02*
G75*
G02*
X140910000Y-101330000I0J-1000000D01*
G01*
D14*
G04 #@! TO.C,G\u002A\u002A\u002A*
G36*
X138536281Y-83227045D02*
G01*
X138792818Y-83483582D01*
X138536281Y-83740119D01*
X138279745Y-83996656D01*
X138279745Y-83483582D01*
X138279745Y-82970509D01*
X138536281Y-83227045D01*
G37*
G36*
X145861834Y-83470755D02*
G01*
X145860249Y-83688485D01*
X145855996Y-83858290D01*
X145849828Y-83956312D01*
X145846031Y-83971002D01*
X145803054Y-83935538D01*
X145706535Y-83843009D01*
X145590277Y-83726510D01*
X145350326Y-83482017D01*
X145606080Y-83226263D01*
X145861834Y-82970509D01*
X145861834Y-83470755D01*
G37*
G36*
X142287421Y-86976759D02*
G01*
X142406392Y-87100072D01*
X142485077Y-87195315D01*
X142504052Y-87231461D01*
X142454178Y-87251507D01*
X142321641Y-87266602D01*
X142132066Y-87274194D01*
X142070789Y-87274627D01*
X141869587Y-87269658D01*
X141718075Y-87256453D01*
X141641878Y-87237566D01*
X141637527Y-87231461D01*
X141673362Y-87172762D01*
X141765746Y-87066872D01*
X141854158Y-86976759D01*
X142070789Y-86765225D01*
X142287421Y-86976759D01*
G37*
G36*
X142624437Y-85852176D02*
G01*
X143177738Y-86405477D01*
X142991981Y-86597129D01*
X142806224Y-86788782D01*
X142438287Y-86423664D01*
X142070351Y-86058546D01*
X141541563Y-86585350D01*
X141343126Y-86777225D01*
X141166506Y-86937232D01*
X141028027Y-87051359D01*
X140944015Y-87105592D01*
X140932507Y-87108137D01*
X140833901Y-87084518D01*
X140688761Y-87030835D01*
X140648143Y-87013361D01*
X140444048Y-86922602D01*
X141257592Y-86110739D01*
X142071137Y-85298876D01*
X142624437Y-85852176D01*
G37*
G36*
X144993486Y-81032481D02*
G01*
X145077387Y-81134100D01*
X145122111Y-81194852D01*
X145266211Y-81397379D01*
X144224138Y-82440481D01*
X143182066Y-83483582D01*
X144225940Y-84528487D01*
X145269814Y-85573392D01*
X145091943Y-85776679D01*
X144914073Y-85979966D01*
X143668886Y-84731774D01*
X142423698Y-83483582D01*
X143668444Y-82237953D01*
X143969811Y-81937334D01*
X144246851Y-81662824D01*
X144490303Y-81423456D01*
X144690905Y-81228264D01*
X144839394Y-81086282D01*
X144926507Y-81006543D01*
X144945600Y-80992324D01*
X144993486Y-81032481D01*
G37*
G36*
X139443687Y-82669786D02*
G01*
X140255604Y-83484038D01*
X139438154Y-84301489D01*
X138620703Y-85118939D01*
X138531460Y-84895900D01*
X138476586Y-84744788D01*
X138445130Y-84631112D01*
X138442218Y-84607229D01*
X138478629Y-84546771D01*
X138578481Y-84426530D01*
X138727703Y-84262382D01*
X138912226Y-84070203D01*
X138969240Y-84012590D01*
X139496263Y-83483582D01*
X138969240Y-82954575D01*
X138777093Y-82756045D01*
X138616519Y-82579348D01*
X138501609Y-82440820D01*
X138446455Y-82356795D01*
X138443638Y-82345300D01*
X138466005Y-82247164D01*
X138519877Y-82102472D01*
X138538414Y-82060283D01*
X138631770Y-81855533D01*
X139443687Y-82669786D01*
G37*
G36*
X142151912Y-80125915D02*
G01*
X141721077Y-80559292D01*
X141895727Y-80733942D01*
X142070377Y-80908592D01*
X142438301Y-80543488D01*
X142806224Y-80178383D01*
X142991645Y-80369689D01*
X143177066Y-80560995D01*
X142638483Y-81101606D01*
X142443002Y-81295863D01*
X142274952Y-81459157D01*
X142148834Y-81577682D01*
X142079147Y-81637630D01*
X142070789Y-81642218D01*
X142024175Y-81605920D01*
X141916065Y-81506225D01*
X141760946Y-81356928D01*
X141573304Y-81171827D01*
X141502260Y-81100768D01*
X140962842Y-80559318D01*
X141393690Y-80125928D01*
X141824538Y-79692538D01*
X142203643Y-79692538D01*
X142582747Y-79692538D01*
X142151912Y-80125915D01*
G37*
G36*
X145603164Y-82060283D02*
G01*
X145662878Y-82208986D01*
X145695804Y-82325317D01*
X145697941Y-82345300D01*
X145661950Y-82411226D01*
X145562277Y-82536207D01*
X145413012Y-82703908D01*
X145228248Y-82897995D01*
X145172339Y-82954575D01*
X144645316Y-83483582D01*
X145172339Y-84012590D01*
X145364256Y-84211066D01*
X145524308Y-84387726D01*
X145638487Y-84526248D01*
X145692781Y-84610312D01*
X145695344Y-84621865D01*
X145671725Y-84720471D01*
X145618042Y-84865610D01*
X145600568Y-84906228D01*
X145509809Y-85110324D01*
X144698119Y-84296953D01*
X143886429Y-83483582D01*
X144698119Y-82669558D01*
X145509809Y-81855533D01*
X145603164Y-82060283D01*
G37*
G36*
X142293093Y-89661396D02*
G01*
X142426505Y-89675279D01*
X142490259Y-89702824D01*
X142504052Y-89738806D01*
X142462947Y-89798890D01*
X142331763Y-89819896D01*
X142314499Y-89820043D01*
X142124947Y-89820043D01*
X142124947Y-90199147D01*
X142117791Y-90393619D01*
X142098612Y-90527997D01*
X142070842Y-90578252D01*
X142070789Y-90578252D01*
X142043008Y-90528160D01*
X142023811Y-90393905D01*
X142016632Y-90199515D01*
X142016632Y-90199147D01*
X142016632Y-89820043D01*
X141827079Y-89820043D01*
X141686883Y-89802427D01*
X141637870Y-89746205D01*
X141637527Y-89738806D01*
X141657934Y-89697124D01*
X141731976Y-89672110D01*
X141878886Y-89660156D01*
X142070789Y-89657570D01*
X142293093Y-89661396D01*
G37*
G36*
X144169379Y-88036304D02*
G01*
X144310237Y-88048929D01*
X144380676Y-88074041D01*
X144399574Y-88114073D01*
X144358470Y-88174157D01*
X144227285Y-88195163D01*
X144210022Y-88195309D01*
X144020470Y-88195309D01*
X144020470Y-88574414D01*
X144015692Y-88780388D01*
X143998514Y-88898273D01*
X143964666Y-88947991D01*
X143939233Y-88953518D01*
X143895096Y-88931223D01*
X143869835Y-88851058D01*
X143859181Y-88693100D01*
X143857996Y-88574414D01*
X143857996Y-88195309D01*
X143668444Y-88195309D01*
X143528248Y-88177693D01*
X143479234Y-88121471D01*
X143478892Y-88114073D01*
X143498545Y-88073459D01*
X143570086Y-88048601D01*
X143712385Y-88036171D01*
X143939233Y-88032836D01*
X144169379Y-88036304D01*
G37*
G36*
X139240689Y-81029239D02*
G01*
X139352477Y-81133959D01*
X139522082Y-81297452D01*
X139740242Y-81510684D01*
X139997694Y-81764621D01*
X140285176Y-82050231D01*
X140473135Y-82237953D01*
X141717881Y-83483582D01*
X140473135Y-84729211D01*
X140171994Y-85029709D01*
X139895430Y-85304039D01*
X139652661Y-85543185D01*
X139452905Y-85738133D01*
X139305383Y-85879866D01*
X139219312Y-85959368D01*
X139200868Y-85973453D01*
X139155644Y-85932736D01*
X139072781Y-85831263D01*
X139027507Y-85770362D01*
X138881666Y-85568657D01*
X139920590Y-84526120D01*
X140959513Y-83483582D01*
X139917440Y-82440481D01*
X138875368Y-81397379D01*
X139019468Y-81194852D01*
X139111766Y-81074162D01*
X139179594Y-81001689D01*
X139195979Y-80992324D01*
X139240689Y-81029239D01*
G37*
G36*
X142991472Y-89955437D02*
G01*
X143316418Y-90276993D01*
X143316418Y-89967281D01*
X143324999Y-89800479D01*
X143347213Y-89688048D01*
X143370576Y-89657570D01*
X143396951Y-89708481D01*
X143415628Y-89848506D01*
X143424365Y-90058580D01*
X143424734Y-90117911D01*
X143419772Y-90325935D01*
X143406532Y-90485034D01*
X143387480Y-90570347D01*
X143379054Y-90578252D01*
X143323232Y-90539793D01*
X143221999Y-90439272D01*
X143105041Y-90307463D01*
X142980756Y-90168664D01*
X142879462Y-90071000D01*
X142825775Y-90036674D01*
X142796718Y-90085387D01*
X142778277Y-90209938D01*
X142774841Y-90307463D01*
X142765099Y-90461933D01*
X142740191Y-90559978D01*
X142720683Y-90578252D01*
X142694496Y-90527244D01*
X142675892Y-90386542D01*
X142666990Y-90174631D01*
X142666525Y-90106067D01*
X142666525Y-89633881D01*
X142991472Y-89955437D01*
G37*
G36*
X143318981Y-85081678D02*
G01*
X144567174Y-86326866D01*
X144361519Y-86507428D01*
X144242066Y-86595418D01*
X144065317Y-86705815D01*
X143857033Y-86824817D01*
X143642974Y-86938621D01*
X143448902Y-87033428D01*
X143300577Y-87095435D01*
X143232791Y-87112154D01*
X143246497Y-87077043D01*
X143323432Y-86982790D01*
X143449417Y-86846016D01*
X143533728Y-86759444D01*
X143883302Y-86406734D01*
X142977205Y-85500637D01*
X142071108Y-84594540D01*
X141028412Y-85633623D01*
X139985715Y-86672706D01*
X139784010Y-86526865D01*
X139663673Y-86434612D01*
X139590769Y-86368623D01*
X139580918Y-86353503D01*
X139617478Y-86309995D01*
X139721837Y-86199342D01*
X139884980Y-86030760D01*
X140097890Y-85813471D01*
X140351553Y-85556692D01*
X140636952Y-85269643D01*
X140825160Y-85081237D01*
X142070789Y-83836491D01*
X143318981Y-85081678D01*
G37*
G36*
X141935746Y-88113084D02*
G01*
X141982249Y-88145082D01*
X142096954Y-88297648D01*
X142131811Y-88489146D01*
X142086319Y-88684775D01*
X141992014Y-88820586D01*
X141814423Y-88928261D01*
X141595871Y-88963437D01*
X141375443Y-88926589D01*
X141192220Y-88818193D01*
X141184571Y-88810739D01*
X141075584Y-88641227D01*
X141046823Y-88473569D01*
X141202042Y-88473569D01*
X141248454Y-88627919D01*
X141346963Y-88732956D01*
X141484201Y-88821549D01*
X141608518Y-88838463D01*
X141770062Y-88792132D01*
X141899377Y-88702850D01*
X141970822Y-88604799D01*
X141991506Y-88451644D01*
X141927854Y-88314702D01*
X141803838Y-88211302D01*
X141643430Y-88158772D01*
X141470604Y-88174440D01*
X141410533Y-88199812D01*
X141256806Y-88324679D01*
X141202042Y-88473569D01*
X141046823Y-88473569D01*
X141042694Y-88449500D01*
X141090981Y-88274744D01*
X141111211Y-88244774D01*
X141276807Y-88110382D01*
X141494568Y-88040759D01*
X141726784Y-88040221D01*
X141935746Y-88113084D01*
G37*
G36*
X145387949Y-88052490D02*
G01*
X145412807Y-88124030D01*
X145425237Y-88266329D01*
X145428572Y-88493177D01*
X145425104Y-88723323D01*
X145412479Y-88864181D01*
X145387367Y-88934621D01*
X145347335Y-88953518D01*
X145290849Y-88917747D01*
X145267573Y-88799167D01*
X145266099Y-88736887D01*
X145266099Y-88520256D01*
X144968231Y-88520256D01*
X144670363Y-88520256D01*
X144670363Y-88736887D01*
X144656949Y-88887517D01*
X144612481Y-88949587D01*
X144589126Y-88953518D01*
X144548512Y-88933865D01*
X144523655Y-88862324D01*
X144511224Y-88720026D01*
X144507890Y-88493177D01*
X144511358Y-88263031D01*
X144523983Y-88122173D01*
X144549094Y-88051734D01*
X144589126Y-88032836D01*
X144649210Y-88073940D01*
X144670216Y-88205125D01*
X144670363Y-88222388D01*
X144670363Y-88411941D01*
X144968231Y-88411941D01*
X145266099Y-88411941D01*
X145266099Y-88222388D01*
X145283715Y-88082192D01*
X145339937Y-88033179D01*
X145347335Y-88032836D01*
X145387949Y-88052490D01*
G37*
G36*
X138436132Y-89691785D02*
G01*
X138424423Y-89760752D01*
X138390582Y-89791406D01*
X138326325Y-89854286D01*
X138237716Y-89965666D01*
X138226813Y-89980794D01*
X138114680Y-90138270D01*
X138278449Y-90324792D01*
X138393031Y-90463131D01*
X138435343Y-90541063D01*
X138410597Y-90573870D01*
X138364907Y-90578252D01*
X138284667Y-90538613D01*
X138180950Y-90440047D01*
X138152893Y-90406135D01*
X138018192Y-90234018D01*
X137873365Y-90406135D01*
X137766470Y-90509461D01*
X137663715Y-90573075D01*
X137592364Y-90583519D01*
X137575693Y-90553057D01*
X137608268Y-90501166D01*
X137691002Y-90397875D01*
X137745580Y-90334372D01*
X137915467Y-90140882D01*
X137745580Y-89929480D01*
X137632560Y-89783243D01*
X137585211Y-89700826D01*
X137597593Y-89664782D01*
X137653005Y-89657570D01*
X137733040Y-89696963D01*
X137838318Y-89795263D01*
X137870749Y-89833582D01*
X138011182Y-90009595D01*
X138159003Y-89833094D01*
X138265637Y-89723501D01*
X138354340Y-89661972D01*
X138374521Y-89657081D01*
X138436132Y-89691785D01*
G37*
G36*
X139024414Y-89387579D02*
G01*
X139307078Y-89401726D01*
X139499015Y-89447767D01*
X139615048Y-89533279D01*
X139670000Y-89665842D01*
X139677270Y-89721366D01*
X139660086Y-89892931D01*
X139568604Y-90007594D01*
X139393780Y-90071506D01*
X139134219Y-90090832D01*
X138821322Y-90090832D01*
X138821322Y-90334542D01*
X138810691Y-90495174D01*
X138774541Y-90568342D01*
X138740086Y-90578252D01*
X138703723Y-90561235D01*
X138679780Y-90498740D01*
X138665917Y-90373600D01*
X138659791Y-90168646D01*
X138658849Y-89982516D01*
X138658849Y-89933527D01*
X138821322Y-89933527D01*
X139159809Y-89917403D01*
X139344265Y-89906457D01*
X139445490Y-89887165D01*
X139488457Y-89846348D01*
X139498145Y-89770828D01*
X139498295Y-89738806D01*
X139493796Y-89650053D01*
X139463648Y-89600029D01*
X139382877Y-89575557D01*
X139226506Y-89563458D01*
X139159809Y-89560209D01*
X138821322Y-89544085D01*
X138821322Y-89738806D01*
X138821322Y-89933527D01*
X138658849Y-89933527D01*
X138658849Y-89738806D01*
X138658849Y-89386781D01*
X139024414Y-89387579D01*
G37*
G36*
X144261799Y-89661825D02*
G01*
X144387562Y-89677203D01*
X144444425Y-89707621D01*
X144453732Y-89738806D01*
X144430421Y-89784153D01*
X144347043Y-89809474D01*
X144183428Y-89819369D01*
X144097735Y-89820043D01*
X143906169Y-89823568D01*
X143800932Y-89838230D01*
X143760155Y-89870163D01*
X143759716Y-89914819D01*
X143808295Y-89982898D01*
X143934818Y-90018992D01*
X144007397Y-90026249D01*
X144171623Y-90051607D01*
X144230035Y-90088741D01*
X144182673Y-90126467D01*
X144029578Y-90153603D01*
X144006930Y-90155415D01*
X143861311Y-90173310D01*
X143794492Y-90211794D01*
X143776962Y-90290362D01*
X143776760Y-90307463D01*
X143783353Y-90379523D01*
X143819120Y-90421637D01*
X143908037Y-90443738D01*
X144074081Y-90455756D01*
X144142325Y-90458871D01*
X144362343Y-90476919D01*
X144478228Y-90503293D01*
X144493244Y-90532240D01*
X144410652Y-90558003D01*
X144233716Y-90574830D01*
X144074627Y-90578252D01*
X143641365Y-90578252D01*
X143641365Y-90117911D01*
X143641365Y-89657570D01*
X144047548Y-89657570D01*
X144261799Y-89661825D01*
G37*
G36*
X140061315Y-89701873D02*
G01*
X140131936Y-89817331D01*
X140222157Y-89977767D01*
X140318019Y-90157004D01*
X140405560Y-90328862D01*
X140470818Y-90467165D01*
X140499831Y-90545736D01*
X140500214Y-90549971D01*
X140467386Y-90585619D01*
X140396590Y-90565235D01*
X140329357Y-90506356D01*
X140310661Y-90469936D01*
X140265305Y-90399531D01*
X140168072Y-90367642D01*
X140036682Y-90361621D01*
X139862805Y-90376733D01*
X139760991Y-90429824D01*
X139729436Y-90469936D01*
X139650386Y-90554981D01*
X139593978Y-90578252D01*
X139583515Y-90533343D01*
X139623819Y-90406024D01*
X139711015Y-90207409D01*
X139733629Y-90160834D01*
X139910465Y-90160834D01*
X139934592Y-90232738D01*
X140039873Y-90253305D01*
X140140943Y-90239419D01*
X140173348Y-90212687D01*
X140148017Y-90139458D01*
X140098881Y-90041125D01*
X140043939Y-89951441D01*
X140007884Y-89952268D01*
X139965406Y-90024025D01*
X139910465Y-90160834D01*
X139733629Y-90160834D01*
X139754469Y-90117911D01*
X139857073Y-89919265D01*
X139945206Y-89763693D01*
X140006362Y-89672532D01*
X140024259Y-89657570D01*
X140061315Y-89701873D01*
G37*
G36*
X146286206Y-89677111D02*
G01*
X146412951Y-89725110D01*
X146496251Y-89785631D01*
X146506335Y-89842738D01*
X146501732Y-89848091D01*
X146430855Y-89857153D01*
X146304393Y-89831628D01*
X146279912Y-89823968D01*
X146103341Y-89790219D01*
X145974526Y-89812764D01*
X145917015Y-89886601D01*
X145915992Y-89901280D01*
X145965607Y-89981742D01*
X146102657Y-90028285D01*
X146221850Y-90036674D01*
X146417702Y-90071728D01*
X146534516Y-90172887D01*
X146565885Y-90302737D01*
X146520518Y-90463544D01*
X146393885Y-90566317D01*
X146200189Y-90604189D01*
X145992501Y-90580006D01*
X145806554Y-90522959D01*
X145724480Y-90462438D01*
X145738679Y-90408955D01*
X145823742Y-90390631D01*
X145960985Y-90420699D01*
X146142671Y-90456562D01*
X146293808Y-90437725D01*
X146386879Y-90370933D01*
X146403412Y-90312225D01*
X146361099Y-90210102D01*
X146229954Y-90156013D01*
X146078465Y-90144990D01*
X145890646Y-90126824D01*
X145788408Y-90064274D01*
X145753949Y-89945255D01*
X145753519Y-89924470D01*
X145795270Y-89775540D01*
X145922800Y-89687353D01*
X146139525Y-89657585D01*
X146145790Y-89657570D01*
X146286206Y-89677111D01*
G37*
G36*
X139568505Y-87812539D02*
G01*
X139714069Y-87880308D01*
X139790856Y-87973240D01*
X139796163Y-88007148D01*
X139762654Y-88077488D01*
X139675812Y-88069545D01*
X139569557Y-87996731D01*
X139409097Y-87914622D01*
X139231712Y-87917479D01*
X139065316Y-87991668D01*
X138937825Y-88123556D01*
X138877152Y-88299510D01*
X138875480Y-88335715D01*
X138893215Y-88535454D01*
X138958813Y-88666187D01*
X139090863Y-88763195D01*
X139104507Y-88770376D01*
X139310796Y-88825164D01*
X139503834Y-88779541D01*
X139602823Y-88705859D01*
X139682847Y-88588111D01*
X139664692Y-88504248D01*
X139552443Y-88466910D01*
X139525374Y-88466098D01*
X139396385Y-88441878D01*
X139362900Y-88384862D01*
X139394795Y-88331317D01*
X139503243Y-88306928D01*
X139606610Y-88303625D01*
X139756355Y-88307618D01*
X139827263Y-88335082D01*
X139848815Y-88409243D01*
X139850320Y-88495639D01*
X139805636Y-88709987D01*
X139676636Y-88860418D01*
X139470899Y-88940354D01*
X139324744Y-88951871D01*
X139149272Y-88939695D01*
X139008225Y-88910871D01*
X138970255Y-88895022D01*
X138824539Y-88754003D01*
X138742271Y-88557947D01*
X138722359Y-88336671D01*
X138763713Y-88119993D01*
X138865240Y-87937729D01*
X139009361Y-87826749D01*
X139187130Y-87779105D01*
X139383185Y-87776587D01*
X139568505Y-87812539D01*
G37*
G36*
X143396825Y-88037694D02*
G01*
X143416412Y-88064879D01*
X143409559Y-88133310D01*
X143373680Y-88261907D01*
X143306186Y-88469587D01*
X143284892Y-88533611D01*
X143212711Y-88727654D01*
X143143803Y-88874198D01*
X143090167Y-88948812D01*
X143078689Y-88953518D01*
X143029531Y-88905916D01*
X142965527Y-88781390D01*
X142903335Y-88615032D01*
X142794343Y-88276546D01*
X142686431Y-88598108D01*
X142621191Y-88769292D01*
X142559290Y-88893300D01*
X142519562Y-88939322D01*
X142477196Y-88900735D01*
X142414667Y-88780864D01*
X142342957Y-88602166D01*
X142314264Y-88519549D01*
X142251214Y-88317555D01*
X142209054Y-88157149D01*
X142194144Y-88063743D01*
X142196989Y-88051057D01*
X142260549Y-88043945D01*
X142328231Y-88139564D01*
X142395736Y-88330704D01*
X142443891Y-88481036D01*
X142487245Y-88580974D01*
X142502360Y-88600447D01*
X142537192Y-88566453D01*
X142588785Y-88454523D01*
X142633093Y-88328263D01*
X142694567Y-88168185D01*
X142756861Y-88060901D01*
X142794797Y-88032836D01*
X142846784Y-88080300D01*
X142910393Y-88203097D01*
X142957270Y-88330704D01*
X143011166Y-88490886D01*
X143054063Y-88599015D01*
X143072708Y-88628572D01*
X143099126Y-88581518D01*
X143145352Y-88459684D01*
X143188147Y-88330704D01*
X143250226Y-88169849D01*
X143313744Y-88061695D01*
X143353388Y-88032836D01*
X143396825Y-88037694D01*
G37*
G36*
X145267542Y-89680946D02*
G01*
X145457686Y-89744789D01*
X145571233Y-89839666D01*
X145598650Y-89956144D01*
X145530401Y-90084792D01*
X145485763Y-90127880D01*
X145417859Y-90194188D01*
X145413438Y-90252359D01*
X145472501Y-90347222D01*
X145485763Y-90365881D01*
X145568488Y-90493221D01*
X145583086Y-90557516D01*
X145532109Y-90577801D01*
X145514226Y-90578252D01*
X145439601Y-90535731D01*
X145347386Y-90429655D01*
X145320256Y-90388700D01*
X145223672Y-90260975D01*
X145119551Y-90207397D01*
X145017971Y-90199147D01*
X144893857Y-90207827D01*
X144842954Y-90255987D01*
X144832853Y-90376810D01*
X144832836Y-90388700D01*
X144815220Y-90528896D01*
X144758998Y-90577909D01*
X144751600Y-90578252D01*
X144710986Y-90558598D01*
X144686128Y-90487058D01*
X144673698Y-90344759D01*
X144670363Y-90117911D01*
X144670363Y-89928358D01*
X144832836Y-89928358D01*
X144843358Y-89994312D01*
X144892653Y-90025501D01*
X145007315Y-90031058D01*
X145117165Y-90025965D01*
X145295794Y-90006263D01*
X145384082Y-89969609D01*
X145401493Y-89928358D01*
X145368531Y-89875424D01*
X145258034Y-89843837D01*
X145117165Y-89830752D01*
X144951125Y-89825410D01*
X144866237Y-89840284D01*
X144835909Y-89884501D01*
X144832836Y-89928358D01*
X144670363Y-89928358D01*
X144670363Y-89657570D01*
X145010338Y-89657570D01*
X145267542Y-89680946D01*
G37*
G36*
X140569604Y-88041144D02*
G01*
X140738705Y-88062781D01*
X140828721Y-88088899D01*
X140913225Y-88187418D01*
X140926904Y-88327123D01*
X140868228Y-88465954D01*
X140843462Y-88494218D01*
X140786522Y-88565024D01*
X140789746Y-88635306D01*
X140843462Y-88736613D01*
X140914790Y-88868830D01*
X140925914Y-88933766D01*
X140879029Y-88952678D01*
X140865779Y-88952848D01*
X140796278Y-88910562D01*
X140704941Y-88805734D01*
X140675729Y-88763296D01*
X140575495Y-88636213D01*
X140468783Y-88582752D01*
X140364321Y-88574414D01*
X140237608Y-88582830D01*
X140185641Y-88630225D01*
X140175290Y-88749817D01*
X140175267Y-88763966D01*
X140157651Y-88904162D01*
X140101429Y-88953176D01*
X140094030Y-88953518D01*
X140053416Y-88933865D01*
X140028559Y-88862324D01*
X140016129Y-88720026D01*
X140012794Y-88493177D01*
X140012794Y-88306455D01*
X140175267Y-88306455D01*
X140186414Y-88370831D01*
X140237520Y-88401102D01*
X140355085Y-88406115D01*
X140459088Y-88401231D01*
X140636374Y-88382156D01*
X140729496Y-88345312D01*
X140760927Y-88290086D01*
X140756363Y-88235516D01*
X140700673Y-88206788D01*
X140570809Y-88196204D01*
X140477106Y-88195309D01*
X140303858Y-88199732D01*
X140213085Y-88219306D01*
X140179094Y-88263492D01*
X140175267Y-88306455D01*
X140012794Y-88306455D01*
X140012794Y-88032836D01*
X140368380Y-88032836D01*
X140569604Y-88041144D01*
G37*
G36*
X141017423Y-89666379D02*
G01*
X141258895Y-89686822D01*
X141411383Y-89726088D01*
X141493949Y-89795366D01*
X141525654Y-89905843D01*
X141528382Y-89966286D01*
X141490657Y-90084355D01*
X141436914Y-90137102D01*
X141378384Y-90184641D01*
X141381315Y-90253471D01*
X141421637Y-90342885D01*
X141481553Y-90463083D01*
X141518263Y-90537256D01*
X141518447Y-90537633D01*
X141495125Y-90573904D01*
X141466027Y-90577581D01*
X141393601Y-90535206D01*
X141300582Y-90430182D01*
X141271464Y-90388029D01*
X141171230Y-90260946D01*
X141064518Y-90207486D01*
X140960057Y-90199147D01*
X140833343Y-90207563D01*
X140781377Y-90254958D01*
X140771025Y-90374550D01*
X140771003Y-90388700D01*
X140753387Y-90528896D01*
X140697165Y-90577909D01*
X140689766Y-90578252D01*
X140649373Y-90558750D01*
X140624553Y-90487716D01*
X140612029Y-90346359D01*
X140608530Y-90115888D01*
X140608529Y-90111991D01*
X140608529Y-89925528D01*
X140771003Y-89925528D01*
X140783012Y-89989323D01*
X140836169Y-90022748D01*
X140956165Y-90035265D01*
X141072842Y-90036674D01*
X141245740Y-90031984D01*
X141333583Y-90012782D01*
X141359416Y-89971374D01*
X141356663Y-89941898D01*
X141318719Y-89881719D01*
X141217895Y-89847147D01*
X141054824Y-89830752D01*
X140888792Y-89825541D01*
X140803966Y-89840662D01*
X140773849Y-89884964D01*
X140771003Y-89925528D01*
X140608529Y-89925528D01*
X140608529Y-89645731D01*
X141017423Y-89666379D01*
G37*
G36*
X140889146Y-79890009D02*
G01*
X140816069Y-79983980D01*
X140692560Y-80120385D01*
X140607851Y-80207721D01*
X140258276Y-80560431D01*
X141164533Y-81466687D01*
X142070789Y-82372944D01*
X142977046Y-81466687D01*
X143883302Y-80560431D01*
X143532163Y-80202022D01*
X143372070Y-80034295D01*
X143285273Y-79930824D01*
X143265524Y-79882344D01*
X143306575Y-79879595D01*
X143316418Y-79882218D01*
X143475288Y-79941046D01*
X143675608Y-80034493D01*
X143895980Y-80150068D01*
X144115005Y-80275280D01*
X144311286Y-80397639D01*
X144463422Y-80504655D01*
X144550015Y-80583835D01*
X144562047Y-80609303D01*
X144525321Y-80653842D01*
X144422530Y-80763314D01*
X144264756Y-80926625D01*
X144063081Y-81132677D01*
X143828585Y-81370378D01*
X143572351Y-81628631D01*
X143305460Y-81896341D01*
X143038994Y-82162414D01*
X142784034Y-82415753D01*
X142551662Y-82645265D01*
X142352960Y-82839854D01*
X142199008Y-82988424D01*
X142100890Y-83079882D01*
X142069916Y-83104478D01*
X142026482Y-83067588D01*
X141915942Y-82962968D01*
X141747563Y-82799694D01*
X141530613Y-82586840D01*
X141274360Y-82333483D01*
X140988074Y-82048697D01*
X140811179Y-81871956D01*
X140512367Y-81571853D01*
X140239704Y-81295936D01*
X140002271Y-81053558D01*
X139809146Y-80854070D01*
X139669411Y-80706825D01*
X139592145Y-80621175D01*
X139579531Y-80603407D01*
X139624832Y-80544980D01*
X139746373Y-80452185D01*
X139922613Y-80337248D01*
X140132011Y-80212394D01*
X140353024Y-80089849D01*
X140564113Y-79981840D01*
X140743735Y-79900591D01*
X140870349Y-79858329D01*
X140898178Y-79855011D01*
X140889146Y-79890009D01*
G37*
D13*
G04 #@! TO.C,LED3*
X114910000Y-112120000D02*
X114910000Y-115210000D01*
X114910000Y-112120170D02*
G75*
G02*
X120460000Y-113664952I2560000J-1544830D01*
G01*
X120460000Y-113665048D02*
G75*
G02*
X114910000Y-115209830I-2990000J48D01*
G01*
X119970000Y-113665000D02*
G75*
G02*
X114970000Y-113665000I-2500000J0D01*
G01*
X114970000Y-113665000D02*
G75*
G02*
X119970000Y-113665000I2500000J0D01*
G01*
G04 #@! TO.C,Q3*
X123120000Y-115450000D02*
X126720000Y-115450000D01*
X123081522Y-115438478D02*
G75*
G02*
X124920000Y-110999999I1838478J1838478D01*
G01*
X124920000Y-111000000D02*
G75*
G02*
X126758478Y-115438478I0J-2600000D01*
G01*
G04 #@! TO.C,R4*
X165640000Y-97070000D02*
X165970000Y-97070000D01*
X165640000Y-103610000D02*
X165640000Y-97070000D01*
X165970000Y-103610000D02*
X165640000Y-103610000D01*
X168050000Y-103610000D02*
X168380000Y-103610000D01*
X168380000Y-97070000D02*
X168050000Y-97070000D01*
X168380000Y-103610000D02*
X168380000Y-97070000D01*
G04 #@! TO.C,C7*
X126675000Y-78940000D02*
X126675000Y-78955000D01*
X126675000Y-78940000D02*
X131215000Y-78940000D01*
X126675000Y-81065000D02*
X126675000Y-81080000D01*
X126675000Y-81080000D02*
X131215000Y-81080000D01*
X131215000Y-78940000D02*
X131215000Y-78955000D01*
X131215000Y-81065000D02*
X131215000Y-81080000D01*
G04 #@! TO.C,R15*
X132830000Y-114840000D02*
X132830000Y-121380000D01*
X132830000Y-121380000D02*
X133160000Y-121380000D01*
X133160000Y-114840000D02*
X132830000Y-114840000D01*
X135240000Y-114840000D02*
X135570000Y-114840000D01*
X135570000Y-114840000D02*
X135570000Y-121380000D01*
X135570000Y-121380000D02*
X135240000Y-121380000D01*
G04 #@! TO.C,Q1*
X123120000Y-96450000D02*
X126720000Y-96450000D01*
X123081522Y-96438478D02*
G75*
G02*
X124920000Y-91999999I1838478J1838478D01*
G01*
X124920000Y-92000000D02*
G75*
G02*
X126758478Y-96438478I0J-2600000D01*
G01*
G04 #@! TO.C,U4*
X154577500Y-77640000D02*
X155552500Y-77640000D01*
X154577500Y-78615000D02*
X154577500Y-77640000D01*
X154577500Y-88885000D02*
X154577500Y-89860000D01*
X154577500Y-89860000D02*
X155552500Y-89860000D01*
X166797500Y-77640000D02*
X165822500Y-77640000D01*
X166797500Y-78615000D02*
X166797500Y-77640000D01*
X166797500Y-88885000D02*
X166797500Y-89860000D01*
X166797500Y-89860000D02*
X165822500Y-89860000D01*
X155552500Y-90462500D02*
X155082500Y-90802500D01*
X155082500Y-90122500D01*
X155552500Y-90462500D01*
G36*
X155552500Y-90462500D02*
G01*
X155082500Y-90802500D01*
X155082500Y-90122500D01*
X155552500Y-90462500D01*
G37*
G04 #@! TO.C,D3*
X151280000Y-129325000D02*
X151280000Y-133565000D01*
X151280000Y-132725000D02*
X153520000Y-132725000D01*
X151280000Y-132845000D02*
X153520000Y-132845000D01*
X151280000Y-132965000D02*
X153520000Y-132965000D01*
X151280000Y-133565000D02*
X153520000Y-133565000D01*
X152400000Y-128675000D02*
X152400000Y-129325000D01*
X152400000Y-134215000D02*
X152400000Y-133565000D01*
X153520000Y-129325000D02*
X151280000Y-129325000D01*
X153520000Y-133565000D02*
X153520000Y-129325000D01*
G04 #@! TO.C,LED4*
X139040000Y-68305000D02*
X139040000Y-71395000D01*
X139040000Y-68305170D02*
G75*
G02*
X144590000Y-69849952I2560000J-1544830D01*
G01*
X144590000Y-69850048D02*
G75*
G02*
X139040000Y-71394830I-2990000J48D01*
G01*
X144100000Y-69850000D02*
G75*
G02*
X139100000Y-69850000I-2500000J0D01*
G01*
X139100000Y-69850000D02*
G75*
G02*
X144100000Y-69850000I2500000J0D01*
G01*
G04 #@! TO.C,C5*
X171030000Y-85680000D02*
X171030000Y-90220000D01*
X171045000Y-85680000D02*
X171030000Y-85680000D01*
X171045000Y-90220000D02*
X171030000Y-90220000D01*
X173170000Y-85680000D02*
X173155000Y-85680000D01*
X173170000Y-85680000D02*
X173170000Y-90220000D01*
X173170000Y-90220000D02*
X173155000Y-90220000D01*
G04 #@! TO.C,R3*
X170720000Y-97070000D02*
X171050000Y-97070000D01*
X170720000Y-103610000D02*
X170720000Y-97070000D01*
X171050000Y-103610000D02*
X170720000Y-103610000D01*
X173130000Y-103610000D02*
X173460000Y-103610000D01*
X173460000Y-97070000D02*
X173130000Y-97070000D01*
X173460000Y-103610000D02*
X173460000Y-97070000D01*
G04 #@! TO.C,D4*
X155725000Y-129325000D02*
X155725000Y-133565000D01*
X155725000Y-132725000D02*
X157965000Y-132725000D01*
X155725000Y-132845000D02*
X157965000Y-132845000D01*
X155725000Y-132965000D02*
X157965000Y-132965000D01*
X155725000Y-133565000D02*
X157965000Y-133565000D01*
X156845000Y-128675000D02*
X156845000Y-129325000D01*
X156845000Y-134215000D02*
X156845000Y-133565000D01*
X157965000Y-129325000D02*
X155725000Y-129325000D01*
X157965000Y-133565000D02*
X157965000Y-129325000D01*
G04 #@! TO.C,LED1*
X114915000Y-93070000D02*
X114915000Y-96160000D01*
X114915000Y-93070170D02*
G75*
G02*
X120465000Y-94614952I2560000J-1544830D01*
G01*
X120465000Y-94615048D02*
G75*
G02*
X114915000Y-96159830I-2990000J48D01*
G01*
X119975000Y-94615000D02*
G75*
G02*
X114975000Y-94615000I-2500000J0D01*
G01*
X114975000Y-94615000D02*
G75*
G02*
X119975000Y-94615000I2500000J0D01*
G01*
G04 #@! TO.C,R9*
X161825000Y-116745000D02*
X162155000Y-116745000D01*
X161825000Y-123285000D02*
X161825000Y-116745000D01*
X162155000Y-123285000D02*
X161825000Y-123285000D01*
X164235000Y-123285000D02*
X164565000Y-123285000D01*
X164565000Y-116745000D02*
X164235000Y-116745000D01*
X164565000Y-123285000D02*
X164565000Y-116745000D01*
G04 #@! TO.C,R8*
X114205000Y-130710000D02*
X120745000Y-130710000D01*
X114205000Y-131040000D02*
X114205000Y-130710000D01*
X114205000Y-133120000D02*
X114205000Y-133450000D01*
X114205000Y-133450000D02*
X120745000Y-133450000D01*
X120745000Y-130710000D02*
X120745000Y-131040000D01*
X120745000Y-133450000D02*
X120745000Y-133120000D01*
G04 #@! TO.C,SW1*
X141480000Y-125162500D02*
X141480000Y-123778500D01*
X141480000Y-125162500D02*
X142863000Y-125162500D01*
X141720000Y-115022500D02*
X149100000Y-115022500D01*
X141720000Y-124922500D02*
X141720000Y-115022500D01*
X141720000Y-124922500D02*
X149100000Y-124922500D01*
X143505000Y-117942500D02*
X143505000Y-122002500D01*
X143505000Y-120649167D02*
X144775000Y-120649167D01*
X143505000Y-122002500D02*
X144775000Y-122002500D01*
X143625000Y-122002500D02*
X143625000Y-120649167D01*
X143745000Y-122002500D02*
X143745000Y-120649167D01*
X143865000Y-122002500D02*
X143865000Y-120649167D01*
X143985000Y-122002500D02*
X143985000Y-120649167D01*
X144105000Y-122002500D02*
X144105000Y-120649167D01*
X144225000Y-122002500D02*
X144225000Y-120649167D01*
X144345000Y-122002500D02*
X144345000Y-120649167D01*
X144465000Y-122002500D02*
X144465000Y-120649167D01*
X144585000Y-122002500D02*
X144585000Y-120649167D01*
X144705000Y-122002500D02*
X144705000Y-120649167D01*
X144775000Y-117942500D02*
X143505000Y-117942500D01*
X144775000Y-122002500D02*
X144775000Y-117942500D01*
X146045000Y-117942500D02*
X146045000Y-122002500D01*
X146045000Y-120649167D02*
X147315000Y-120649167D01*
X146045000Y-122002500D02*
X147315000Y-122002500D01*
X146165000Y-122002500D02*
X146165000Y-120649167D01*
X146285000Y-122002500D02*
X146285000Y-120649167D01*
X146405000Y-122002500D02*
X146405000Y-120649167D01*
X146525000Y-122002500D02*
X146525000Y-120649167D01*
X146645000Y-122002500D02*
X146645000Y-120649167D01*
X146765000Y-122002500D02*
X146765000Y-120649167D01*
X146885000Y-122002500D02*
X146885000Y-120649167D01*
X147005000Y-122002500D02*
X147005000Y-120649167D01*
X147125000Y-122002500D02*
X147125000Y-120649167D01*
X147245000Y-122002500D02*
X147245000Y-120649167D01*
X147315000Y-117942500D02*
X146045000Y-117942500D01*
X147315000Y-122002500D02*
X147315000Y-117942500D01*
X149100000Y-124922500D02*
X149100000Y-115022500D01*
G04 #@! TO.C,SW2*
X151640000Y-125162500D02*
X151640000Y-123778500D01*
X151640000Y-125162500D02*
X153023000Y-125162500D01*
X151880000Y-115022500D02*
X159260000Y-115022500D01*
X151880000Y-124922500D02*
X151880000Y-115022500D01*
X151880000Y-124922500D02*
X159260000Y-124922500D01*
X153665000Y-117942500D02*
X153665000Y-122002500D01*
X153665000Y-120649167D02*
X154935000Y-120649167D01*
X153665000Y-122002500D02*
X154935000Y-122002500D01*
X153785000Y-122002500D02*
X153785000Y-120649167D01*
X153905000Y-122002500D02*
X153905000Y-120649167D01*
X154025000Y-122002500D02*
X154025000Y-120649167D01*
X154145000Y-122002500D02*
X154145000Y-120649167D01*
X154265000Y-122002500D02*
X154265000Y-120649167D01*
X154385000Y-122002500D02*
X154385000Y-120649167D01*
X154505000Y-122002500D02*
X154505000Y-120649167D01*
X154625000Y-122002500D02*
X154625000Y-120649167D01*
X154745000Y-122002500D02*
X154745000Y-120649167D01*
X154865000Y-122002500D02*
X154865000Y-120649167D01*
X154935000Y-117942500D02*
X153665000Y-117942500D01*
X154935000Y-122002500D02*
X154935000Y-117942500D01*
X156205000Y-117942500D02*
X156205000Y-122002500D01*
X156205000Y-120649167D02*
X157475000Y-120649167D01*
X156205000Y-122002500D02*
X157475000Y-122002500D01*
X156325000Y-122002500D02*
X156325000Y-120649167D01*
X156445000Y-122002500D02*
X156445000Y-120649167D01*
X156565000Y-122002500D02*
X156565000Y-120649167D01*
X156685000Y-122002500D02*
X156685000Y-120649167D01*
X156805000Y-122002500D02*
X156805000Y-120649167D01*
X156925000Y-122002500D02*
X156925000Y-120649167D01*
X157045000Y-122002500D02*
X157045000Y-120649167D01*
X157165000Y-122002500D02*
X157165000Y-120649167D01*
X157285000Y-122002500D02*
X157285000Y-120649167D01*
X157405000Y-122002500D02*
X157405000Y-120649167D01*
X157475000Y-117942500D02*
X156205000Y-117942500D01*
X157475000Y-122002500D02*
X157475000Y-117942500D01*
X159260000Y-124922500D02*
X159260000Y-115022500D01*
G04 #@! TO.C,D2*
X146835000Y-129325000D02*
X146835000Y-133565000D01*
X146835000Y-132725000D02*
X149075000Y-132725000D01*
X146835000Y-132845000D02*
X149075000Y-132845000D01*
X146835000Y-132965000D02*
X149075000Y-132965000D01*
X146835000Y-133565000D02*
X149075000Y-133565000D01*
X147955000Y-128675000D02*
X147955000Y-129325000D01*
X147955000Y-134215000D02*
X147955000Y-133565000D01*
X149075000Y-129325000D02*
X146835000Y-129325000D01*
X149075000Y-133565000D02*
X149075000Y-129325000D01*
G04 #@! TO.C,R1*
X136430000Y-114840000D02*
X136430000Y-121380000D01*
X136430000Y-121380000D02*
X136760000Y-121380000D01*
X136760000Y-114840000D02*
X136430000Y-114840000D01*
X138840000Y-114840000D02*
X139170000Y-114840000D01*
X139170000Y-114840000D02*
X139170000Y-121380000D01*
X139170000Y-121380000D02*
X138840000Y-121380000D01*
G04 #@! TO.C,LED2*
X114910000Y-102595000D02*
X114910000Y-105685000D01*
X114910000Y-102595170D02*
G75*
G02*
X120460000Y-104139952I2560000J-1544830D01*
G01*
X120460000Y-104140048D02*
G75*
G02*
X114910000Y-105684830I-2990000J48D01*
G01*
X119970000Y-104140000D02*
G75*
G02*
X114970000Y-104140000I-2500000J0D01*
G01*
X114970000Y-104140000D02*
G75*
G02*
X119970000Y-104140000I2500000J0D01*
G01*
G04 #@! TO.C,C4*
X136725000Y-98100000D02*
X136740000Y-98100000D01*
X136725000Y-102640000D02*
X136725000Y-98100000D01*
X136725000Y-102640000D02*
X136740000Y-102640000D01*
X138850000Y-98100000D02*
X138865000Y-98100000D01*
X138850000Y-102640000D02*
X138865000Y-102640000D01*
X138865000Y-102640000D02*
X138865000Y-98100000D01*
G04 #@! TO.C,R5*
X138340000Y-107930000D02*
X144880000Y-107930000D01*
X138340000Y-108260000D02*
X138340000Y-107930000D01*
X138340000Y-110340000D02*
X138340000Y-110670000D01*
X138340000Y-110670000D02*
X144880000Y-110670000D01*
X144880000Y-107930000D02*
X144880000Y-108260000D01*
X144880000Y-110670000D02*
X144880000Y-110340000D01*
G04 #@! TO.C,R7*
X114205000Y-125630000D02*
X120745000Y-125630000D01*
X114205000Y-125960000D02*
X114205000Y-125630000D01*
X114205000Y-128040000D02*
X114205000Y-128370000D01*
X114205000Y-128370000D02*
X120745000Y-128370000D01*
X120745000Y-125630000D02*
X120745000Y-125960000D01*
X120745000Y-128370000D02*
X120745000Y-128040000D01*
G04 #@! TO.C,SW3*
X125405000Y-134505000D02*
X125405000Y-136005000D01*
X126655000Y-138505000D02*
X131155000Y-138505000D01*
X131155000Y-132005000D02*
X126655000Y-132005000D01*
X132405000Y-136005000D02*
X132405000Y-134505000D01*
G04 #@! TO.C,J1*
X105590000Y-71374000D02*
X106860000Y-71374000D01*
X105590000Y-80772000D02*
X105590000Y-71374000D01*
X106860000Y-80772000D02*
X105590000Y-80772000D01*
X109400000Y-80772000D02*
X113464000Y-80772000D01*
X113464000Y-71374000D02*
X109400000Y-71374000D01*
X113464000Y-80772000D02*
X113464000Y-71374000D01*
G04 #@! TO.C,Q2*
X123120000Y-106000000D02*
X126720000Y-106000000D01*
X123081522Y-105988478D02*
G75*
G02*
X124920000Y-101549999I1838478J1838478D01*
G01*
X124920000Y-101550000D02*
G75*
G02*
X126758478Y-105988478I0J-2600000D01*
G01*
G04 #@! TO.C,R16*
X129180000Y-114840000D02*
X129510000Y-114840000D01*
X129180000Y-121380000D02*
X129180000Y-114840000D01*
X129510000Y-121380000D02*
X129180000Y-121380000D01*
X131590000Y-121380000D02*
X131920000Y-121380000D01*
X131920000Y-114840000D02*
X131590000Y-114840000D01*
X131920000Y-121380000D02*
X131920000Y-114840000D01*
G04 #@! TO.C,R12*
X129230000Y-92920000D02*
X129560000Y-92920000D01*
X129230000Y-99460000D02*
X129230000Y-92920000D01*
X129560000Y-99460000D02*
X129230000Y-99460000D01*
X131640000Y-99460000D02*
X131970000Y-99460000D01*
X131970000Y-92920000D02*
X131640000Y-92920000D01*
X131970000Y-99460000D02*
X131970000Y-92920000D01*
G04 #@! TO.C,C2*
X161495000Y-98070000D02*
X161510000Y-98070000D01*
X161495000Y-102610000D02*
X161495000Y-98070000D01*
X161495000Y-102610000D02*
X161510000Y-102610000D01*
X163620000Y-98070000D02*
X163635000Y-98070000D01*
X163620000Y-102610000D02*
X163635000Y-102610000D01*
X163635000Y-102610000D02*
X163635000Y-98070000D01*
G04 #@! TO.C,R14*
X129230000Y-103840000D02*
X129560000Y-103840000D01*
X129230000Y-110380000D02*
X129230000Y-103840000D01*
X129560000Y-110380000D02*
X129230000Y-110380000D01*
X131640000Y-110380000D02*
X131970000Y-110380000D01*
X131970000Y-103840000D02*
X131640000Y-103840000D01*
X131970000Y-110380000D02*
X131970000Y-103840000D01*
G04 #@! TO.C,C1*
X136030000Y-132930000D02*
X136045000Y-132930000D01*
X136030000Y-137470000D02*
X136030000Y-132930000D01*
X136030000Y-137470000D02*
X136045000Y-137470000D01*
X138155000Y-132930000D02*
X138170000Y-132930000D01*
X138155000Y-137470000D02*
X138170000Y-137470000D01*
X138170000Y-137470000D02*
X138170000Y-132930000D01*
G04 #@! TO.C,F1*
X125255000Y-73330000D02*
X125255000Y-73580000D01*
X125255000Y-73330000D02*
X125476000Y-73330000D01*
X125255000Y-75080000D02*
X125255000Y-76530000D01*
X125255000Y-76530000D02*
X130577000Y-76530000D01*
X127234000Y-73330000D02*
X132555000Y-73330000D01*
X132334000Y-76530000D02*
X132555000Y-76530000D01*
X132555000Y-73330000D02*
X132555000Y-74781000D01*
X132555000Y-76280000D02*
X132555000Y-76530000D01*
G04 #@! TO.C,C3*
X126635000Y-68780000D02*
X126635000Y-68795000D01*
X126635000Y-68780000D02*
X131175000Y-68780000D01*
X126635000Y-70905000D02*
X126635000Y-70920000D01*
X126635000Y-70920000D02*
X131175000Y-70920000D01*
X131175000Y-68780000D02*
X131175000Y-68795000D01*
X131175000Y-70905000D02*
X131175000Y-70920000D01*
G04 #@! TO.C,C6*
X148780000Y-79230000D02*
X148795000Y-79230000D01*
X148780000Y-83770000D02*
X148780000Y-79230000D01*
X148780000Y-83770000D02*
X148795000Y-83770000D01*
X150905000Y-79230000D02*
X150920000Y-79230000D01*
X150905000Y-83770000D02*
X150920000Y-83770000D01*
X150920000Y-83770000D02*
X150920000Y-79230000D01*
G04 #@! TO.C,D1*
X142390000Y-129325000D02*
X142390000Y-133565000D01*
X142390000Y-132725000D02*
X144630000Y-132725000D01*
X142390000Y-132845000D02*
X144630000Y-132845000D01*
X142390000Y-132965000D02*
X144630000Y-132965000D01*
X142390000Y-133565000D02*
X144630000Y-133565000D01*
X143510000Y-128675000D02*
X143510000Y-129325000D01*
X143510000Y-134215000D02*
X143510000Y-133565000D01*
X144630000Y-129325000D02*
X142390000Y-129325000D01*
X144630000Y-133565000D02*
X144630000Y-129325000D01*
G04 #@! TO.C,J2*
X138370000Y-63730000D02*
X138370000Y-62400000D01*
X139700000Y-63730000D02*
X138370000Y-63730000D01*
X140970000Y-61070000D02*
X166430000Y-61070000D01*
X140970000Y-63730000D02*
X140970000Y-61070000D01*
X140970000Y-63730000D02*
X166430000Y-63730000D01*
X166430000Y-63730000D02*
X166430000Y-61070000D01*
G04 #@! TO.C,R10*
X166905000Y-116745000D02*
X167235000Y-116745000D01*
X166905000Y-123285000D02*
X166905000Y-116745000D01*
X167235000Y-123285000D02*
X166905000Y-123285000D01*
X169315000Y-123285000D02*
X169645000Y-123285000D01*
X169645000Y-116745000D02*
X169315000Y-116745000D01*
X169645000Y-123285000D02*
X169645000Y-116745000D01*
G04 #@! TO.C,R2*
X138330000Y-76100000D02*
X144870000Y-76100000D01*
X138330000Y-76430000D02*
X138330000Y-76100000D01*
X138330000Y-78510000D02*
X138330000Y-78840000D01*
X138330000Y-78840000D02*
X144870000Y-78840000D01*
X144870000Y-76100000D02*
X144870000Y-76430000D01*
X144870000Y-78840000D02*
X144870000Y-78510000D01*
G04 #@! TO.C,R11*
X132830000Y-92920000D02*
X132830000Y-99460000D01*
X132830000Y-99460000D02*
X133160000Y-99460000D01*
X133160000Y-92920000D02*
X132830000Y-92920000D01*
X135240000Y-92920000D02*
X135570000Y-92920000D01*
X135570000Y-92920000D02*
X135570000Y-99460000D01*
X135570000Y-99460000D02*
X135240000Y-99460000D01*
G04 #@! TO.C,R6*
X114205000Y-120550000D02*
X120745000Y-120550000D01*
X114205000Y-120880000D02*
X114205000Y-120550000D01*
X114205000Y-122960000D02*
X114205000Y-123290000D01*
X114205000Y-123290000D02*
X120745000Y-123290000D01*
X120745000Y-120550000D02*
X120745000Y-120880000D01*
X120745000Y-123290000D02*
X120745000Y-122960000D01*
G04 #@! TO.C,R13*
X132830000Y-103840000D02*
X132830000Y-110380000D01*
X132830000Y-110380000D02*
X133160000Y-110380000D01*
X133160000Y-103840000D02*
X132830000Y-103840000D01*
X135240000Y-103840000D02*
X135570000Y-103840000D01*
X135570000Y-103840000D02*
X135570000Y-110380000D01*
X135570000Y-110380000D02*
X135240000Y-110380000D01*
G04 #@! TD*
M02*
