%TF.GenerationSoftware,KiCad,Pcbnew,8.0.8*%
%TF.CreationDate,2025-02-11T23:26:13+09:00*%
%TF.ProjectId,1bit-cpu_asic,31626974-2d63-4707-955f-617369632e6b,rev?*%
%TF.SameCoordinates,Original*%
%TF.FileFunction,Drillmap*%
%TF.FilePolarity,Positive*%
%FSLAX45Y45*%
G04 Gerber Fmt 4.5, Leading zero omitted, Abs format (unit mm)*
G04 Created by KiCad (PCBNEW 8.0.8) date 2025-02-11 23:26:13*
%MOMM*%
%LPD*%
G01*
G04 APERTURE LIST*
%ADD10C,0.100000*%
%ADD11C,0.200000*%
%ADD12C,0.320000*%
G04 APERTURE END LIST*
D10*
X10544000Y-6124000D02*
G75*
G02*
X10844000Y-5824000I300000J0D01*
G01*
X10544000Y-14024000D02*
X10544000Y-6124000D01*
X17244000Y-14324000D02*
X10844000Y-14324000D01*
X17244000Y-5824000D02*
G75*
G02*
X17544000Y-6124000I0J-300000D01*
G01*
X17544000Y-14024000D02*
G75*
G02*
X17244000Y-14324000I-300000J0D01*
G01*
X10844000Y-14324000D02*
G75*
G02*
X10544000Y-14024000I0J300000D01*
G01*
X17544000Y-6124000D02*
X17544000Y-14024000D01*
X10844000Y-5824000D02*
X17244000Y-5824000D01*
D11*
D12*
X10784000Y-6064000D02*
X11104000Y-6384000D01*
X11104000Y-6064000D02*
X10784000Y-6384000D01*
X10784000Y-13764000D02*
X11104000Y-14084000D01*
X11104000Y-13764000D02*
X10784000Y-14084000D01*
X16984000Y-6064000D02*
X17304000Y-6384000D01*
X17304000Y-6064000D02*
X16984000Y-6384000D01*
X16984000Y-13764000D02*
X17304000Y-14084000D01*
X17304000Y-13764000D02*
X16984000Y-14084000D01*
D11*
X10799777Y-14640484D02*
X10799777Y-14440484D01*
X10799777Y-14440484D02*
X10847396Y-14440484D01*
X10847396Y-14440484D02*
X10875967Y-14450008D01*
X10875967Y-14450008D02*
X10895015Y-14469055D01*
X10895015Y-14469055D02*
X10904539Y-14488103D01*
X10904539Y-14488103D02*
X10914063Y-14526198D01*
X10914063Y-14526198D02*
X10914063Y-14554769D01*
X10914063Y-14554769D02*
X10904539Y-14592865D01*
X10904539Y-14592865D02*
X10895015Y-14611912D01*
X10895015Y-14611912D02*
X10875967Y-14630960D01*
X10875967Y-14630960D02*
X10847396Y-14640484D01*
X10847396Y-14640484D02*
X10799777Y-14640484D01*
X10999777Y-14640484D02*
X10999777Y-14507150D01*
X10999777Y-14545246D02*
X11009301Y-14526198D01*
X11009301Y-14526198D02*
X11018824Y-14516674D01*
X11018824Y-14516674D02*
X11037872Y-14507150D01*
X11037872Y-14507150D02*
X11056920Y-14507150D01*
X11123586Y-14640484D02*
X11123586Y-14507150D01*
X11123586Y-14440484D02*
X11114063Y-14450008D01*
X11114063Y-14450008D02*
X11123586Y-14459531D01*
X11123586Y-14459531D02*
X11133110Y-14450008D01*
X11133110Y-14450008D02*
X11123586Y-14440484D01*
X11123586Y-14440484D02*
X11123586Y-14459531D01*
X11247396Y-14640484D02*
X11228348Y-14630960D01*
X11228348Y-14630960D02*
X11218824Y-14611912D01*
X11218824Y-14611912D02*
X11218824Y-14440484D01*
X11352158Y-14640484D02*
X11333110Y-14630960D01*
X11333110Y-14630960D02*
X11323586Y-14611912D01*
X11323586Y-14611912D02*
X11323586Y-14440484D01*
X11580729Y-14640484D02*
X11580729Y-14440484D01*
X11580729Y-14440484D02*
X11647396Y-14583341D01*
X11647396Y-14583341D02*
X11714062Y-14440484D01*
X11714062Y-14440484D02*
X11714062Y-14640484D01*
X11895015Y-14640484D02*
X11895015Y-14535722D01*
X11895015Y-14535722D02*
X11885491Y-14516674D01*
X11885491Y-14516674D02*
X11866443Y-14507150D01*
X11866443Y-14507150D02*
X11828348Y-14507150D01*
X11828348Y-14507150D02*
X11809301Y-14516674D01*
X11895015Y-14630960D02*
X11875967Y-14640484D01*
X11875967Y-14640484D02*
X11828348Y-14640484D01*
X11828348Y-14640484D02*
X11809301Y-14630960D01*
X11809301Y-14630960D02*
X11799777Y-14611912D01*
X11799777Y-14611912D02*
X11799777Y-14592865D01*
X11799777Y-14592865D02*
X11809301Y-14573817D01*
X11809301Y-14573817D02*
X11828348Y-14564293D01*
X11828348Y-14564293D02*
X11875967Y-14564293D01*
X11875967Y-14564293D02*
X11895015Y-14554769D01*
X11990253Y-14507150D02*
X11990253Y-14707150D01*
X11990253Y-14516674D02*
X12009301Y-14507150D01*
X12009301Y-14507150D02*
X12047396Y-14507150D01*
X12047396Y-14507150D02*
X12066443Y-14516674D01*
X12066443Y-14516674D02*
X12075967Y-14526198D01*
X12075967Y-14526198D02*
X12085491Y-14545246D01*
X12085491Y-14545246D02*
X12085491Y-14602388D01*
X12085491Y-14602388D02*
X12075967Y-14621436D01*
X12075967Y-14621436D02*
X12066443Y-14630960D01*
X12066443Y-14630960D02*
X12047396Y-14640484D01*
X12047396Y-14640484D02*
X12009301Y-14640484D01*
X12009301Y-14640484D02*
X11990253Y-14630960D01*
X12171205Y-14621436D02*
X12180729Y-14630960D01*
X12180729Y-14630960D02*
X12171205Y-14640484D01*
X12171205Y-14640484D02*
X12161682Y-14630960D01*
X12161682Y-14630960D02*
X12171205Y-14621436D01*
X12171205Y-14621436D02*
X12171205Y-14640484D01*
X12171205Y-14516674D02*
X12180729Y-14526198D01*
X12180729Y-14526198D02*
X12171205Y-14535722D01*
X12171205Y-14535722D02*
X12161682Y-14526198D01*
X12161682Y-14526198D02*
X12171205Y-14516674D01*
X12171205Y-14516674D02*
X12171205Y-14535722D01*
X10339000Y-14869000D02*
X10539000Y-15069000D01*
X10539000Y-14869000D02*
X10339000Y-15069000D01*
X10780729Y-14860484D02*
X10904539Y-14860484D01*
X10904539Y-14860484D02*
X10837872Y-14936674D01*
X10837872Y-14936674D02*
X10866444Y-14936674D01*
X10866444Y-14936674D02*
X10885491Y-14946198D01*
X10885491Y-14946198D02*
X10895015Y-14955722D01*
X10895015Y-14955722D02*
X10904539Y-14974769D01*
X10904539Y-14974769D02*
X10904539Y-15022388D01*
X10904539Y-15022388D02*
X10895015Y-15041436D01*
X10895015Y-15041436D02*
X10885491Y-15050960D01*
X10885491Y-15050960D02*
X10866444Y-15060484D01*
X10866444Y-15060484D02*
X10809301Y-15060484D01*
X10809301Y-15060484D02*
X10790253Y-15050960D01*
X10790253Y-15050960D02*
X10780729Y-15041436D01*
X10990253Y-15041436D02*
X10999777Y-15050960D01*
X10999777Y-15050960D02*
X10990253Y-15060484D01*
X10990253Y-15060484D02*
X10980729Y-15050960D01*
X10980729Y-15050960D02*
X10990253Y-15041436D01*
X10990253Y-15041436D02*
X10990253Y-15060484D01*
X11075967Y-14879531D02*
X11085491Y-14870008D01*
X11085491Y-14870008D02*
X11104539Y-14860484D01*
X11104539Y-14860484D02*
X11152158Y-14860484D01*
X11152158Y-14860484D02*
X11171205Y-14870008D01*
X11171205Y-14870008D02*
X11180729Y-14879531D01*
X11180729Y-14879531D02*
X11190253Y-14898579D01*
X11190253Y-14898579D02*
X11190253Y-14917627D01*
X11190253Y-14917627D02*
X11180729Y-14946198D01*
X11180729Y-14946198D02*
X11066444Y-15060484D01*
X11066444Y-15060484D02*
X11190253Y-15060484D01*
X11314062Y-14860484D02*
X11333110Y-14860484D01*
X11333110Y-14860484D02*
X11352158Y-14870008D01*
X11352158Y-14870008D02*
X11361682Y-14879531D01*
X11361682Y-14879531D02*
X11371205Y-14898579D01*
X11371205Y-14898579D02*
X11380729Y-14936674D01*
X11380729Y-14936674D02*
X11380729Y-14984293D01*
X11380729Y-14984293D02*
X11371205Y-15022388D01*
X11371205Y-15022388D02*
X11361682Y-15041436D01*
X11361682Y-15041436D02*
X11352158Y-15050960D01*
X11352158Y-15050960D02*
X11333110Y-15060484D01*
X11333110Y-15060484D02*
X11314062Y-15060484D01*
X11314062Y-15060484D02*
X11295015Y-15050960D01*
X11295015Y-15050960D02*
X11285491Y-15041436D01*
X11285491Y-15041436D02*
X11275967Y-15022388D01*
X11275967Y-15022388D02*
X11266443Y-14984293D01*
X11266443Y-14984293D02*
X11266443Y-14936674D01*
X11266443Y-14936674D02*
X11275967Y-14898579D01*
X11275967Y-14898579D02*
X11285491Y-14879531D01*
X11285491Y-14879531D02*
X11295015Y-14870008D01*
X11295015Y-14870008D02*
X11314062Y-14860484D01*
X11504539Y-14860484D02*
X11523586Y-14860484D01*
X11523586Y-14860484D02*
X11542634Y-14870008D01*
X11542634Y-14870008D02*
X11552158Y-14879531D01*
X11552158Y-14879531D02*
X11561682Y-14898579D01*
X11561682Y-14898579D02*
X11571205Y-14936674D01*
X11571205Y-14936674D02*
X11571205Y-14984293D01*
X11571205Y-14984293D02*
X11561682Y-15022388D01*
X11561682Y-15022388D02*
X11552158Y-15041436D01*
X11552158Y-15041436D02*
X11542634Y-15050960D01*
X11542634Y-15050960D02*
X11523586Y-15060484D01*
X11523586Y-15060484D02*
X11504539Y-15060484D01*
X11504539Y-15060484D02*
X11485491Y-15050960D01*
X11485491Y-15050960D02*
X11475967Y-15041436D01*
X11475967Y-15041436D02*
X11466443Y-15022388D01*
X11466443Y-15022388D02*
X11456920Y-14984293D01*
X11456920Y-14984293D02*
X11456920Y-14936674D01*
X11456920Y-14936674D02*
X11466443Y-14898579D01*
X11466443Y-14898579D02*
X11475967Y-14879531D01*
X11475967Y-14879531D02*
X11485491Y-14870008D01*
X11485491Y-14870008D02*
X11504539Y-14860484D01*
X11656920Y-15060484D02*
X11656920Y-14927150D01*
X11656920Y-14946198D02*
X11666443Y-14936674D01*
X11666443Y-14936674D02*
X11685491Y-14927150D01*
X11685491Y-14927150D02*
X11714063Y-14927150D01*
X11714063Y-14927150D02*
X11733110Y-14936674D01*
X11733110Y-14936674D02*
X11742634Y-14955722D01*
X11742634Y-14955722D02*
X11742634Y-15060484D01*
X11742634Y-14955722D02*
X11752158Y-14936674D01*
X11752158Y-14936674D02*
X11771205Y-14927150D01*
X11771205Y-14927150D02*
X11799777Y-14927150D01*
X11799777Y-14927150D02*
X11818824Y-14936674D01*
X11818824Y-14936674D02*
X11828348Y-14955722D01*
X11828348Y-14955722D02*
X11828348Y-15060484D01*
X11923586Y-15060484D02*
X11923586Y-14927150D01*
X11923586Y-14946198D02*
X11933110Y-14936674D01*
X11933110Y-14936674D02*
X11952158Y-14927150D01*
X11952158Y-14927150D02*
X11980729Y-14927150D01*
X11980729Y-14927150D02*
X11999777Y-14936674D01*
X11999777Y-14936674D02*
X12009301Y-14955722D01*
X12009301Y-14955722D02*
X12009301Y-15060484D01*
X12009301Y-14955722D02*
X12018824Y-14936674D01*
X12018824Y-14936674D02*
X12037872Y-14927150D01*
X12037872Y-14927150D02*
X12066443Y-14927150D01*
X12066443Y-14927150D02*
X12085491Y-14936674D01*
X12085491Y-14936674D02*
X12095015Y-14955722D01*
X12095015Y-14955722D02*
X12095015Y-15060484D01*
X12485491Y-14850960D02*
X12314063Y-15108103D01*
X12742634Y-14860484D02*
X12761682Y-14860484D01*
X12761682Y-14860484D02*
X12780729Y-14870008D01*
X12780729Y-14870008D02*
X12790253Y-14879531D01*
X12790253Y-14879531D02*
X12799777Y-14898579D01*
X12799777Y-14898579D02*
X12809301Y-14936674D01*
X12809301Y-14936674D02*
X12809301Y-14984293D01*
X12809301Y-14984293D02*
X12799777Y-15022388D01*
X12799777Y-15022388D02*
X12790253Y-15041436D01*
X12790253Y-15041436D02*
X12780729Y-15050960D01*
X12780729Y-15050960D02*
X12761682Y-15060484D01*
X12761682Y-15060484D02*
X12742634Y-15060484D01*
X12742634Y-15060484D02*
X12723586Y-15050960D01*
X12723586Y-15050960D02*
X12714063Y-15041436D01*
X12714063Y-15041436D02*
X12704539Y-15022388D01*
X12704539Y-15022388D02*
X12695015Y-14984293D01*
X12695015Y-14984293D02*
X12695015Y-14936674D01*
X12695015Y-14936674D02*
X12704539Y-14898579D01*
X12704539Y-14898579D02*
X12714063Y-14879531D01*
X12714063Y-14879531D02*
X12723586Y-14870008D01*
X12723586Y-14870008D02*
X12742634Y-14860484D01*
X12895015Y-15041436D02*
X12904539Y-15050960D01*
X12904539Y-15050960D02*
X12895015Y-15060484D01*
X12895015Y-15060484D02*
X12885491Y-15050960D01*
X12885491Y-15050960D02*
X12895015Y-15041436D01*
X12895015Y-15041436D02*
X12895015Y-15060484D01*
X13095015Y-15060484D02*
X12980729Y-15060484D01*
X13037872Y-15060484D02*
X13037872Y-14860484D01*
X13037872Y-14860484D02*
X13018825Y-14889055D01*
X13018825Y-14889055D02*
X12999777Y-14908103D01*
X12999777Y-14908103D02*
X12980729Y-14917627D01*
X13171206Y-14879531D02*
X13180729Y-14870008D01*
X13180729Y-14870008D02*
X13199777Y-14860484D01*
X13199777Y-14860484D02*
X13247396Y-14860484D01*
X13247396Y-14860484D02*
X13266444Y-14870008D01*
X13266444Y-14870008D02*
X13275967Y-14879531D01*
X13275967Y-14879531D02*
X13285491Y-14898579D01*
X13285491Y-14898579D02*
X13285491Y-14917627D01*
X13285491Y-14917627D02*
X13275967Y-14946198D01*
X13275967Y-14946198D02*
X13161682Y-15060484D01*
X13161682Y-15060484D02*
X13285491Y-15060484D01*
X13456920Y-14860484D02*
X13418825Y-14860484D01*
X13418825Y-14860484D02*
X13399777Y-14870008D01*
X13399777Y-14870008D02*
X13390253Y-14879531D01*
X13390253Y-14879531D02*
X13371206Y-14908103D01*
X13371206Y-14908103D02*
X13361682Y-14946198D01*
X13361682Y-14946198D02*
X13361682Y-15022388D01*
X13361682Y-15022388D02*
X13371206Y-15041436D01*
X13371206Y-15041436D02*
X13380729Y-15050960D01*
X13380729Y-15050960D02*
X13399777Y-15060484D01*
X13399777Y-15060484D02*
X13437872Y-15060484D01*
X13437872Y-15060484D02*
X13456920Y-15050960D01*
X13456920Y-15050960D02*
X13466444Y-15041436D01*
X13466444Y-15041436D02*
X13475967Y-15022388D01*
X13475967Y-15022388D02*
X13475967Y-14974769D01*
X13475967Y-14974769D02*
X13466444Y-14955722D01*
X13466444Y-14955722D02*
X13456920Y-14946198D01*
X13456920Y-14946198D02*
X13437872Y-14936674D01*
X13437872Y-14936674D02*
X13399777Y-14936674D01*
X13399777Y-14936674D02*
X13380729Y-14946198D01*
X13380729Y-14946198D02*
X13371206Y-14955722D01*
X13371206Y-14955722D02*
X13361682Y-14974769D01*
X13599777Y-14860484D02*
X13618825Y-14860484D01*
X13618825Y-14860484D02*
X13637872Y-14870008D01*
X13637872Y-14870008D02*
X13647396Y-14879531D01*
X13647396Y-14879531D02*
X13656920Y-14898579D01*
X13656920Y-14898579D02*
X13666444Y-14936674D01*
X13666444Y-14936674D02*
X13666444Y-14984293D01*
X13666444Y-14984293D02*
X13656920Y-15022388D01*
X13656920Y-15022388D02*
X13647396Y-15041436D01*
X13647396Y-15041436D02*
X13637872Y-15050960D01*
X13637872Y-15050960D02*
X13618825Y-15060484D01*
X13618825Y-15060484D02*
X13599777Y-15060484D01*
X13599777Y-15060484D02*
X13580729Y-15050960D01*
X13580729Y-15050960D02*
X13571206Y-15041436D01*
X13571206Y-15041436D02*
X13561682Y-15022388D01*
X13561682Y-15022388D02*
X13552158Y-14984293D01*
X13552158Y-14984293D02*
X13552158Y-14936674D01*
X13552158Y-14936674D02*
X13561682Y-14898579D01*
X13561682Y-14898579D02*
X13571206Y-14879531D01*
X13571206Y-14879531D02*
X13580729Y-14870008D01*
X13580729Y-14870008D02*
X13599777Y-14860484D01*
X13742634Y-14860484D02*
X13742634Y-14898579D01*
X13818825Y-14860484D02*
X13818825Y-14898579D01*
X14114063Y-15136674D02*
X14104539Y-15127150D01*
X14104539Y-15127150D02*
X14085491Y-15098579D01*
X14085491Y-15098579D02*
X14075968Y-15079531D01*
X14075968Y-15079531D02*
X14066444Y-15050960D01*
X14066444Y-15050960D02*
X14056920Y-15003341D01*
X14056920Y-15003341D02*
X14056920Y-14965246D01*
X14056920Y-14965246D02*
X14066444Y-14917627D01*
X14066444Y-14917627D02*
X14075968Y-14889055D01*
X14075968Y-14889055D02*
X14085491Y-14870008D01*
X14085491Y-14870008D02*
X14104539Y-14841436D01*
X14104539Y-14841436D02*
X14114063Y-14831912D01*
X14275968Y-14927150D02*
X14275968Y-15060484D01*
X14228348Y-14850960D02*
X14180729Y-14993817D01*
X14180729Y-14993817D02*
X14304539Y-14993817D01*
X14533110Y-15060484D02*
X14533110Y-14860484D01*
X14618825Y-15060484D02*
X14618825Y-14955722D01*
X14618825Y-14955722D02*
X14609301Y-14936674D01*
X14609301Y-14936674D02*
X14590253Y-14927150D01*
X14590253Y-14927150D02*
X14561682Y-14927150D01*
X14561682Y-14927150D02*
X14542634Y-14936674D01*
X14542634Y-14936674D02*
X14533110Y-14946198D01*
X14742634Y-15060484D02*
X14723587Y-15050960D01*
X14723587Y-15050960D02*
X14714063Y-15041436D01*
X14714063Y-15041436D02*
X14704539Y-15022388D01*
X14704539Y-15022388D02*
X14704539Y-14965246D01*
X14704539Y-14965246D02*
X14714063Y-14946198D01*
X14714063Y-14946198D02*
X14723587Y-14936674D01*
X14723587Y-14936674D02*
X14742634Y-14927150D01*
X14742634Y-14927150D02*
X14771206Y-14927150D01*
X14771206Y-14927150D02*
X14790253Y-14936674D01*
X14790253Y-14936674D02*
X14799777Y-14946198D01*
X14799777Y-14946198D02*
X14809301Y-14965246D01*
X14809301Y-14965246D02*
X14809301Y-15022388D01*
X14809301Y-15022388D02*
X14799777Y-15041436D01*
X14799777Y-15041436D02*
X14790253Y-15050960D01*
X14790253Y-15050960D02*
X14771206Y-15060484D01*
X14771206Y-15060484D02*
X14742634Y-15060484D01*
X14923587Y-15060484D02*
X14904539Y-15050960D01*
X14904539Y-15050960D02*
X14895015Y-15031912D01*
X14895015Y-15031912D02*
X14895015Y-14860484D01*
X15075968Y-15050960D02*
X15056920Y-15060484D01*
X15056920Y-15060484D02*
X15018825Y-15060484D01*
X15018825Y-15060484D02*
X14999777Y-15050960D01*
X14999777Y-15050960D02*
X14990253Y-15031912D01*
X14990253Y-15031912D02*
X14990253Y-14955722D01*
X14990253Y-14955722D02*
X14999777Y-14936674D01*
X14999777Y-14936674D02*
X15018825Y-14927150D01*
X15018825Y-14927150D02*
X15056920Y-14927150D01*
X15056920Y-14927150D02*
X15075968Y-14936674D01*
X15075968Y-14936674D02*
X15085491Y-14955722D01*
X15085491Y-14955722D02*
X15085491Y-14974769D01*
X15085491Y-14974769D02*
X14990253Y-14993817D01*
X15161682Y-15050960D02*
X15180730Y-15060484D01*
X15180730Y-15060484D02*
X15218825Y-15060484D01*
X15218825Y-15060484D02*
X15237872Y-15050960D01*
X15237872Y-15050960D02*
X15247396Y-15031912D01*
X15247396Y-15031912D02*
X15247396Y-15022388D01*
X15247396Y-15022388D02*
X15237872Y-15003341D01*
X15237872Y-15003341D02*
X15218825Y-14993817D01*
X15218825Y-14993817D02*
X15190253Y-14993817D01*
X15190253Y-14993817D02*
X15171206Y-14984293D01*
X15171206Y-14984293D02*
X15161682Y-14965246D01*
X15161682Y-14965246D02*
X15161682Y-14955722D01*
X15161682Y-14955722D02*
X15171206Y-14936674D01*
X15171206Y-14936674D02*
X15190253Y-14927150D01*
X15190253Y-14927150D02*
X15218825Y-14927150D01*
X15218825Y-14927150D02*
X15237872Y-14936674D01*
X15314063Y-15136674D02*
X15323587Y-15127150D01*
X15323587Y-15127150D02*
X15342634Y-15098579D01*
X15342634Y-15098579D02*
X15352158Y-15079531D01*
X15352158Y-15079531D02*
X15361682Y-15050960D01*
X15361682Y-15050960D02*
X15371206Y-15003341D01*
X15371206Y-15003341D02*
X15371206Y-14965246D01*
X15371206Y-14965246D02*
X15361682Y-14917627D01*
X15361682Y-14917627D02*
X15352158Y-14889055D01*
X15352158Y-14889055D02*
X15342634Y-14870008D01*
X15342634Y-14870008D02*
X15323587Y-14841436D01*
X15323587Y-14841436D02*
X15314063Y-14831912D01*
X15675968Y-15136674D02*
X15666444Y-15127150D01*
X15666444Y-15127150D02*
X15647396Y-15098579D01*
X15647396Y-15098579D02*
X15637872Y-15079531D01*
X15637872Y-15079531D02*
X15628349Y-15050960D01*
X15628349Y-15050960D02*
X15618825Y-15003341D01*
X15618825Y-15003341D02*
X15618825Y-14965246D01*
X15618825Y-14965246D02*
X15628349Y-14917627D01*
X15628349Y-14917627D02*
X15637872Y-14889055D01*
X15637872Y-14889055D02*
X15647396Y-14870008D01*
X15647396Y-14870008D02*
X15666444Y-14841436D01*
X15666444Y-14841436D02*
X15675968Y-14831912D01*
X15752158Y-14927150D02*
X15752158Y-15060484D01*
X15752158Y-14946198D02*
X15761682Y-14936674D01*
X15761682Y-14936674D02*
X15780730Y-14927150D01*
X15780730Y-14927150D02*
X15809301Y-14927150D01*
X15809301Y-14927150D02*
X15828349Y-14936674D01*
X15828349Y-14936674D02*
X15837872Y-14955722D01*
X15837872Y-14955722D02*
X15837872Y-15060484D01*
X15961682Y-15060484D02*
X15942634Y-15050960D01*
X15942634Y-15050960D02*
X15933111Y-15041436D01*
X15933111Y-15041436D02*
X15923587Y-15022388D01*
X15923587Y-15022388D02*
X15923587Y-14965246D01*
X15923587Y-14965246D02*
X15933111Y-14946198D01*
X15933111Y-14946198D02*
X15942634Y-14936674D01*
X15942634Y-14936674D02*
X15961682Y-14927150D01*
X15961682Y-14927150D02*
X15990253Y-14927150D01*
X15990253Y-14927150D02*
X16009301Y-14936674D01*
X16009301Y-14936674D02*
X16018825Y-14946198D01*
X16018825Y-14946198D02*
X16028349Y-14965246D01*
X16028349Y-14965246D02*
X16028349Y-15022388D01*
X16028349Y-15022388D02*
X16018825Y-15041436D01*
X16018825Y-15041436D02*
X16009301Y-15050960D01*
X16009301Y-15050960D02*
X15990253Y-15060484D01*
X15990253Y-15060484D02*
X15961682Y-15060484D01*
X16085492Y-14927150D02*
X16161682Y-14927150D01*
X16114063Y-14860484D02*
X16114063Y-15031912D01*
X16114063Y-15031912D02*
X16123587Y-15050960D01*
X16123587Y-15050960D02*
X16142634Y-15060484D01*
X16142634Y-15060484D02*
X16161682Y-15060484D01*
X16380730Y-14927150D02*
X16380730Y-15127150D01*
X16380730Y-14936674D02*
X16399777Y-14927150D01*
X16399777Y-14927150D02*
X16437873Y-14927150D01*
X16437873Y-14927150D02*
X16456920Y-14936674D01*
X16456920Y-14936674D02*
X16466444Y-14946198D01*
X16466444Y-14946198D02*
X16475968Y-14965246D01*
X16475968Y-14965246D02*
X16475968Y-15022388D01*
X16475968Y-15022388D02*
X16466444Y-15041436D01*
X16466444Y-15041436D02*
X16456920Y-15050960D01*
X16456920Y-15050960D02*
X16437873Y-15060484D01*
X16437873Y-15060484D02*
X16399777Y-15060484D01*
X16399777Y-15060484D02*
X16380730Y-15050960D01*
X16590253Y-15060484D02*
X16571206Y-15050960D01*
X16571206Y-15050960D02*
X16561682Y-15031912D01*
X16561682Y-15031912D02*
X16561682Y-14860484D01*
X16752158Y-15060484D02*
X16752158Y-14955722D01*
X16752158Y-14955722D02*
X16742634Y-14936674D01*
X16742634Y-14936674D02*
X16723587Y-14927150D01*
X16723587Y-14927150D02*
X16685492Y-14927150D01*
X16685492Y-14927150D02*
X16666444Y-14936674D01*
X16752158Y-15050960D02*
X16733111Y-15060484D01*
X16733111Y-15060484D02*
X16685492Y-15060484D01*
X16685492Y-15060484D02*
X16666444Y-15050960D01*
X16666444Y-15050960D02*
X16656920Y-15031912D01*
X16656920Y-15031912D02*
X16656920Y-15012865D01*
X16656920Y-15012865D02*
X16666444Y-14993817D01*
X16666444Y-14993817D02*
X16685492Y-14984293D01*
X16685492Y-14984293D02*
X16733111Y-14984293D01*
X16733111Y-14984293D02*
X16752158Y-14974769D01*
X16818825Y-14927150D02*
X16895015Y-14927150D01*
X16847396Y-14860484D02*
X16847396Y-15031912D01*
X16847396Y-15031912D02*
X16856920Y-15050960D01*
X16856920Y-15050960D02*
X16875968Y-15060484D01*
X16875968Y-15060484D02*
X16895015Y-15060484D01*
X17037873Y-15050960D02*
X17018825Y-15060484D01*
X17018825Y-15060484D02*
X16980730Y-15060484D01*
X16980730Y-15060484D02*
X16961682Y-15050960D01*
X16961682Y-15050960D02*
X16952158Y-15031912D01*
X16952158Y-15031912D02*
X16952158Y-14955722D01*
X16952158Y-14955722D02*
X16961682Y-14936674D01*
X16961682Y-14936674D02*
X16980730Y-14927150D01*
X16980730Y-14927150D02*
X17018825Y-14927150D01*
X17018825Y-14927150D02*
X17037873Y-14936674D01*
X17037873Y-14936674D02*
X17047396Y-14955722D01*
X17047396Y-14955722D02*
X17047396Y-14974769D01*
X17047396Y-14974769D02*
X16952158Y-14993817D01*
X17218825Y-15060484D02*
X17218825Y-14860484D01*
X17218825Y-15050960D02*
X17199777Y-15060484D01*
X17199777Y-15060484D02*
X17161682Y-15060484D01*
X17161682Y-15060484D02*
X17142635Y-15050960D01*
X17142635Y-15050960D02*
X17133111Y-15041436D01*
X17133111Y-15041436D02*
X17123587Y-15022388D01*
X17123587Y-15022388D02*
X17123587Y-14965246D01*
X17123587Y-14965246D02*
X17133111Y-14946198D01*
X17133111Y-14946198D02*
X17142635Y-14936674D01*
X17142635Y-14936674D02*
X17161682Y-14927150D01*
X17161682Y-14927150D02*
X17199777Y-14927150D01*
X17199777Y-14927150D02*
X17218825Y-14936674D01*
X17295016Y-15136674D02*
X17304539Y-15127150D01*
X17304539Y-15127150D02*
X17323587Y-15098579D01*
X17323587Y-15098579D02*
X17333111Y-15079531D01*
X17333111Y-15079531D02*
X17342635Y-15050960D01*
X17342635Y-15050960D02*
X17352158Y-15003341D01*
X17352158Y-15003341D02*
X17352158Y-14965246D01*
X17352158Y-14965246D02*
X17342635Y-14917627D01*
X17342635Y-14917627D02*
X17333111Y-14889055D01*
X17333111Y-14889055D02*
X17323587Y-14870008D01*
X17323587Y-14870008D02*
X17304539Y-14841436D01*
X17304539Y-14841436D02*
X17295016Y-14831912D01*
M02*
