G04 #@! TF.GenerationSoftware,KiCad,Pcbnew,8.0.8*
G04 #@! TF.CreationDate,2025-01-27T20:55:36+09:00*
G04 #@! TF.ProjectId,1bit-cpu_asic,31626974-2d63-4707-955f-617369632e6b,rev?*
G04 #@! TF.SameCoordinates,Original*
G04 #@! TF.FileFunction,Paste,Top*
G04 #@! TF.FilePolarity,Positive*
%FSLAX46Y46*%
G04 Gerber Fmt 4.6, Leading zero omitted, Abs format (unit mm)*
G04 Created by KiCad (PCBNEW 8.0.8) date 2025-01-27 20:55:36*
%MOMM*%
%LPD*%
G01*
G04 APERTURE LIST*
G04 Aperture macros list*
%AMRoundRect*
0 Rectangle with rounded corners*
0 $1 Rounding radius*
0 $2 $3 $4 $5 $6 $7 $8 $9 X,Y pos of 4 corners*
0 Add a 4 corners polygon primitive as box body*
4,1,4,$2,$3,$4,$5,$6,$7,$8,$9,$2,$3,0*
0 Add four circle primitives for the rounded corners*
1,1,$1+$1,$2,$3*
1,1,$1+$1,$4,$5*
1,1,$1+$1,$6,$7*
1,1,$1+$1,$8,$9*
0 Add four rect primitives between the rounded corners*
20,1,$1+$1,$2,$3,$4,$5,0*
20,1,$1+$1,$4,$5,$6,$7,0*
20,1,$1+$1,$6,$7,$8,$9,0*
20,1,$1+$1,$8,$9,$2,$3,0*%
G04 Aperture macros list end*
%ADD10RoundRect,0.062500X0.062500X-0.675000X0.062500X0.675000X-0.062500X0.675000X-0.062500X-0.675000X0*%
%ADD11RoundRect,0.062500X0.675000X-0.062500X0.675000X0.062500X-0.675000X0.062500X-0.675000X-0.062500X0*%
G04 APERTURE END LIST*
D10*
G04 #@! TO.C,U4*
X155937500Y-90437500D03*
X156437500Y-90437500D03*
X156937500Y-90437500D03*
X157437500Y-90437500D03*
X157937500Y-90437500D03*
X158437500Y-90437500D03*
X158937500Y-90437500D03*
X159437500Y-90437500D03*
X159937500Y-90437500D03*
X160437500Y-90437500D03*
X160937500Y-90437500D03*
X161437500Y-90437500D03*
X161937500Y-90437500D03*
X162437500Y-90437500D03*
X162937500Y-90437500D03*
X163437500Y-90437500D03*
X163937500Y-90437500D03*
X164437500Y-90437500D03*
X164937500Y-90437500D03*
X165437500Y-90437500D03*
D11*
X167375000Y-88500000D03*
X167375000Y-88000000D03*
X167375000Y-87500000D03*
X167375000Y-87000000D03*
X167375000Y-86500000D03*
X167375000Y-86000000D03*
X167375000Y-85500000D03*
X167375000Y-85000000D03*
X167375000Y-84500000D03*
X167375000Y-84000000D03*
X167375000Y-83500000D03*
X167375000Y-83000000D03*
X167375000Y-82500000D03*
X167375000Y-82000000D03*
X167375000Y-81500000D03*
X167375000Y-81000000D03*
X167375000Y-80500000D03*
X167375000Y-80000000D03*
X167375000Y-79500000D03*
X167375000Y-79000000D03*
D10*
X165437500Y-77062500D03*
X164937500Y-77062500D03*
X164437500Y-77062500D03*
X163937500Y-77062500D03*
X163437500Y-77062500D03*
X162937500Y-77062500D03*
X162437500Y-77062500D03*
X161937500Y-77062500D03*
X161437500Y-77062500D03*
X160937500Y-77062500D03*
X160437500Y-77062500D03*
X159937500Y-77062500D03*
X159437500Y-77062500D03*
X158937500Y-77062500D03*
X158437500Y-77062500D03*
X157937500Y-77062500D03*
X157437500Y-77062500D03*
X156937500Y-77062500D03*
X156437500Y-77062500D03*
X155937500Y-77062500D03*
D11*
X154000000Y-79000000D03*
X154000000Y-79500000D03*
X154000000Y-80000000D03*
X154000000Y-80500000D03*
X154000000Y-81000000D03*
X154000000Y-81500000D03*
X154000000Y-82000000D03*
X154000000Y-82500000D03*
X154000000Y-83000000D03*
X154000000Y-83500000D03*
X154000000Y-84000000D03*
X154000000Y-84500000D03*
X154000000Y-85000000D03*
X154000000Y-85500000D03*
X154000000Y-86000000D03*
X154000000Y-86500000D03*
X154000000Y-87000000D03*
X154000000Y-87500000D03*
X154000000Y-88000000D03*
X154000000Y-88500000D03*
G04 #@! TD*
M02*
