%TF.GenerationSoftware,KiCad,Pcbnew,8.0.8*%
%TF.CreationDate,2025-02-26T07:42:44+09:00*%
%TF.ProjectId,1bit-cpu_HAT,31626974-2d63-4707-955f-4841542e6b69,rev?*%
%TF.SameCoordinates,Original*%
%TF.FileFunction,Drillmap*%
%TF.FilePolarity,Positive*%
%FSLAX45Y45*%
G04 Gerber Fmt 4.5, Leading zero omitted, Abs format (unit mm)*
G04 Created by KiCad (PCBNEW 8.0.8) date 2025-02-26 07:42:44*
%MOMM*%
%LPD*%
G01*
G04 APERTURE LIST*
%ADD10C,0.150000*%
%ADD11C,0.200000*%
%ADD12C,0.270000*%
G04 APERTURE END LIST*
D10*
X12290000Y-9278000D02*
G75*
G02*
X12590000Y-8978000I300000J0D01*
G01*
X18790000Y-9278000D02*
X18790000Y-11678000D01*
X12590000Y-11978000D02*
G75*
G02*
X12290000Y-11678000I0J300000D01*
G01*
X18440000Y-11978000D02*
X18490000Y-11978000D01*
X18490000Y-8978000D02*
G75*
G02*
X18790000Y-9278000I0J-300000D01*
G01*
X12590000Y-8978000D02*
X18490000Y-8978000D01*
X12290000Y-11678000D02*
X12290000Y-9278000D01*
X18790000Y-11678000D02*
G75*
G02*
X18490000Y-11978000I-300000J0D01*
G01*
X12640000Y-11978000D02*
X12590000Y-11978000D01*
X12640000Y-11978000D02*
X18440000Y-11978000D01*
D11*
D12*
X12505000Y-9185000D02*
X12775000Y-9455000D01*
X12775000Y-9185000D02*
X12505000Y-9455000D01*
X12505000Y-11485000D02*
X12775000Y-11755000D01*
X12775000Y-11485000D02*
X12505000Y-11755000D01*
X18305000Y-9185000D02*
X18575000Y-9455000D01*
X18575000Y-9185000D02*
X18305000Y-9455000D01*
X18305000Y-11485000D02*
X18575000Y-11755000D01*
X18575000Y-11485000D02*
X18305000Y-11755000D01*
D11*
X12543277Y-12296984D02*
X12543277Y-12096984D01*
X12543277Y-12096984D02*
X12590896Y-12096984D01*
X12590896Y-12096984D02*
X12619467Y-12106508D01*
X12619467Y-12106508D02*
X12638515Y-12125555D01*
X12638515Y-12125555D02*
X12648039Y-12144603D01*
X12648039Y-12144603D02*
X12657562Y-12182698D01*
X12657562Y-12182698D02*
X12657562Y-12211269D01*
X12657562Y-12211269D02*
X12648039Y-12249365D01*
X12648039Y-12249365D02*
X12638515Y-12268412D01*
X12638515Y-12268412D02*
X12619467Y-12287460D01*
X12619467Y-12287460D02*
X12590896Y-12296984D01*
X12590896Y-12296984D02*
X12543277Y-12296984D01*
X12743277Y-12296984D02*
X12743277Y-12163650D01*
X12743277Y-12201746D02*
X12752801Y-12182698D01*
X12752801Y-12182698D02*
X12762324Y-12173174D01*
X12762324Y-12173174D02*
X12781372Y-12163650D01*
X12781372Y-12163650D02*
X12800420Y-12163650D01*
X12867086Y-12296984D02*
X12867086Y-12163650D01*
X12867086Y-12096984D02*
X12857562Y-12106508D01*
X12857562Y-12106508D02*
X12867086Y-12116031D01*
X12867086Y-12116031D02*
X12876610Y-12106508D01*
X12876610Y-12106508D02*
X12867086Y-12096984D01*
X12867086Y-12096984D02*
X12867086Y-12116031D01*
X12990896Y-12296984D02*
X12971848Y-12287460D01*
X12971848Y-12287460D02*
X12962324Y-12268412D01*
X12962324Y-12268412D02*
X12962324Y-12096984D01*
X13095658Y-12296984D02*
X13076610Y-12287460D01*
X13076610Y-12287460D02*
X13067086Y-12268412D01*
X13067086Y-12268412D02*
X13067086Y-12096984D01*
X13324229Y-12296984D02*
X13324229Y-12096984D01*
X13324229Y-12096984D02*
X13390896Y-12239841D01*
X13390896Y-12239841D02*
X13457562Y-12096984D01*
X13457562Y-12096984D02*
X13457562Y-12296984D01*
X13638515Y-12296984D02*
X13638515Y-12192222D01*
X13638515Y-12192222D02*
X13628991Y-12173174D01*
X13628991Y-12173174D02*
X13609943Y-12163650D01*
X13609943Y-12163650D02*
X13571848Y-12163650D01*
X13571848Y-12163650D02*
X13552801Y-12173174D01*
X13638515Y-12287460D02*
X13619467Y-12296984D01*
X13619467Y-12296984D02*
X13571848Y-12296984D01*
X13571848Y-12296984D02*
X13552801Y-12287460D01*
X13552801Y-12287460D02*
X13543277Y-12268412D01*
X13543277Y-12268412D02*
X13543277Y-12249365D01*
X13543277Y-12249365D02*
X13552801Y-12230317D01*
X13552801Y-12230317D02*
X13571848Y-12220793D01*
X13571848Y-12220793D02*
X13619467Y-12220793D01*
X13619467Y-12220793D02*
X13638515Y-12211269D01*
X13733753Y-12163650D02*
X13733753Y-12363650D01*
X13733753Y-12173174D02*
X13752801Y-12163650D01*
X13752801Y-12163650D02*
X13790896Y-12163650D01*
X13790896Y-12163650D02*
X13809943Y-12173174D01*
X13809943Y-12173174D02*
X13819467Y-12182698D01*
X13819467Y-12182698D02*
X13828991Y-12201746D01*
X13828991Y-12201746D02*
X13828991Y-12258888D01*
X13828991Y-12258888D02*
X13819467Y-12277936D01*
X13819467Y-12277936D02*
X13809943Y-12287460D01*
X13809943Y-12287460D02*
X13790896Y-12296984D01*
X13790896Y-12296984D02*
X13752801Y-12296984D01*
X13752801Y-12296984D02*
X13733753Y-12287460D01*
X13914705Y-12277936D02*
X13924229Y-12287460D01*
X13924229Y-12287460D02*
X13914705Y-12296984D01*
X13914705Y-12296984D02*
X13905182Y-12287460D01*
X13905182Y-12287460D02*
X13914705Y-12277936D01*
X13914705Y-12277936D02*
X13914705Y-12296984D01*
X13914705Y-12173174D02*
X13924229Y-12182698D01*
X13924229Y-12182698D02*
X13914705Y-12192222D01*
X13914705Y-12192222D02*
X13905182Y-12182698D01*
X13905182Y-12182698D02*
X13914705Y-12173174D01*
X13914705Y-12173174D02*
X13914705Y-12192222D01*
X12082500Y-12525500D02*
X12282500Y-12725500D01*
X12282500Y-12525500D02*
X12082500Y-12725500D01*
X12533753Y-12536031D02*
X12543277Y-12526508D01*
X12543277Y-12526508D02*
X12562324Y-12516984D01*
X12562324Y-12516984D02*
X12609943Y-12516984D01*
X12609943Y-12516984D02*
X12628991Y-12526508D01*
X12628991Y-12526508D02*
X12638515Y-12536031D01*
X12638515Y-12536031D02*
X12648039Y-12555079D01*
X12648039Y-12555079D02*
X12648039Y-12574127D01*
X12648039Y-12574127D02*
X12638515Y-12602698D01*
X12638515Y-12602698D02*
X12524229Y-12716984D01*
X12524229Y-12716984D02*
X12648039Y-12716984D01*
X12733753Y-12697936D02*
X12743277Y-12707460D01*
X12743277Y-12707460D02*
X12733753Y-12716984D01*
X12733753Y-12716984D02*
X12724229Y-12707460D01*
X12724229Y-12707460D02*
X12733753Y-12697936D01*
X12733753Y-12697936D02*
X12733753Y-12716984D01*
X12809943Y-12516984D02*
X12943277Y-12516984D01*
X12943277Y-12516984D02*
X12857562Y-12716984D01*
X13057562Y-12516984D02*
X13076610Y-12516984D01*
X13076610Y-12516984D02*
X13095658Y-12526508D01*
X13095658Y-12526508D02*
X13105182Y-12536031D01*
X13105182Y-12536031D02*
X13114705Y-12555079D01*
X13114705Y-12555079D02*
X13124229Y-12593174D01*
X13124229Y-12593174D02*
X13124229Y-12640793D01*
X13124229Y-12640793D02*
X13114705Y-12678888D01*
X13114705Y-12678888D02*
X13105182Y-12697936D01*
X13105182Y-12697936D02*
X13095658Y-12707460D01*
X13095658Y-12707460D02*
X13076610Y-12716984D01*
X13076610Y-12716984D02*
X13057562Y-12716984D01*
X13057562Y-12716984D02*
X13038515Y-12707460D01*
X13038515Y-12707460D02*
X13028991Y-12697936D01*
X13028991Y-12697936D02*
X13019467Y-12678888D01*
X13019467Y-12678888D02*
X13009943Y-12640793D01*
X13009943Y-12640793D02*
X13009943Y-12593174D01*
X13009943Y-12593174D02*
X13019467Y-12555079D01*
X13019467Y-12555079D02*
X13028991Y-12536031D01*
X13028991Y-12536031D02*
X13038515Y-12526508D01*
X13038515Y-12526508D02*
X13057562Y-12516984D01*
X13248039Y-12516984D02*
X13267086Y-12516984D01*
X13267086Y-12516984D02*
X13286134Y-12526508D01*
X13286134Y-12526508D02*
X13295658Y-12536031D01*
X13295658Y-12536031D02*
X13305182Y-12555079D01*
X13305182Y-12555079D02*
X13314705Y-12593174D01*
X13314705Y-12593174D02*
X13314705Y-12640793D01*
X13314705Y-12640793D02*
X13305182Y-12678888D01*
X13305182Y-12678888D02*
X13295658Y-12697936D01*
X13295658Y-12697936D02*
X13286134Y-12707460D01*
X13286134Y-12707460D02*
X13267086Y-12716984D01*
X13267086Y-12716984D02*
X13248039Y-12716984D01*
X13248039Y-12716984D02*
X13228991Y-12707460D01*
X13228991Y-12707460D02*
X13219467Y-12697936D01*
X13219467Y-12697936D02*
X13209943Y-12678888D01*
X13209943Y-12678888D02*
X13200420Y-12640793D01*
X13200420Y-12640793D02*
X13200420Y-12593174D01*
X13200420Y-12593174D02*
X13209943Y-12555079D01*
X13209943Y-12555079D02*
X13219467Y-12536031D01*
X13219467Y-12536031D02*
X13228991Y-12526508D01*
X13228991Y-12526508D02*
X13248039Y-12516984D01*
X13400420Y-12716984D02*
X13400420Y-12583650D01*
X13400420Y-12602698D02*
X13409943Y-12593174D01*
X13409943Y-12593174D02*
X13428991Y-12583650D01*
X13428991Y-12583650D02*
X13457563Y-12583650D01*
X13457563Y-12583650D02*
X13476610Y-12593174D01*
X13476610Y-12593174D02*
X13486134Y-12612222D01*
X13486134Y-12612222D02*
X13486134Y-12716984D01*
X13486134Y-12612222D02*
X13495658Y-12593174D01*
X13495658Y-12593174D02*
X13514705Y-12583650D01*
X13514705Y-12583650D02*
X13543277Y-12583650D01*
X13543277Y-12583650D02*
X13562324Y-12593174D01*
X13562324Y-12593174D02*
X13571848Y-12612222D01*
X13571848Y-12612222D02*
X13571848Y-12716984D01*
X13667086Y-12716984D02*
X13667086Y-12583650D01*
X13667086Y-12602698D02*
X13676610Y-12593174D01*
X13676610Y-12593174D02*
X13695658Y-12583650D01*
X13695658Y-12583650D02*
X13724229Y-12583650D01*
X13724229Y-12583650D02*
X13743277Y-12593174D01*
X13743277Y-12593174D02*
X13752801Y-12612222D01*
X13752801Y-12612222D02*
X13752801Y-12716984D01*
X13752801Y-12612222D02*
X13762324Y-12593174D01*
X13762324Y-12593174D02*
X13781372Y-12583650D01*
X13781372Y-12583650D02*
X13809943Y-12583650D01*
X13809943Y-12583650D02*
X13828991Y-12593174D01*
X13828991Y-12593174D02*
X13838515Y-12612222D01*
X13838515Y-12612222D02*
X13838515Y-12716984D01*
X14228991Y-12507460D02*
X14057563Y-12764603D01*
X14486134Y-12516984D02*
X14505182Y-12516984D01*
X14505182Y-12516984D02*
X14524229Y-12526508D01*
X14524229Y-12526508D02*
X14533753Y-12536031D01*
X14533753Y-12536031D02*
X14543277Y-12555079D01*
X14543277Y-12555079D02*
X14552801Y-12593174D01*
X14552801Y-12593174D02*
X14552801Y-12640793D01*
X14552801Y-12640793D02*
X14543277Y-12678888D01*
X14543277Y-12678888D02*
X14533753Y-12697936D01*
X14533753Y-12697936D02*
X14524229Y-12707460D01*
X14524229Y-12707460D02*
X14505182Y-12716984D01*
X14505182Y-12716984D02*
X14486134Y-12716984D01*
X14486134Y-12716984D02*
X14467086Y-12707460D01*
X14467086Y-12707460D02*
X14457563Y-12697936D01*
X14457563Y-12697936D02*
X14448039Y-12678888D01*
X14448039Y-12678888D02*
X14438515Y-12640793D01*
X14438515Y-12640793D02*
X14438515Y-12593174D01*
X14438515Y-12593174D02*
X14448039Y-12555079D01*
X14448039Y-12555079D02*
X14457563Y-12536031D01*
X14457563Y-12536031D02*
X14467086Y-12526508D01*
X14467086Y-12526508D02*
X14486134Y-12516984D01*
X14638515Y-12697936D02*
X14648039Y-12707460D01*
X14648039Y-12707460D02*
X14638515Y-12716984D01*
X14638515Y-12716984D02*
X14628991Y-12707460D01*
X14628991Y-12707460D02*
X14638515Y-12697936D01*
X14638515Y-12697936D02*
X14638515Y-12716984D01*
X14838515Y-12716984D02*
X14724229Y-12716984D01*
X14781372Y-12716984D02*
X14781372Y-12516984D01*
X14781372Y-12516984D02*
X14762325Y-12545555D01*
X14762325Y-12545555D02*
X14743277Y-12564603D01*
X14743277Y-12564603D02*
X14724229Y-12574127D01*
X14962325Y-12516984D02*
X14981372Y-12516984D01*
X14981372Y-12516984D02*
X15000420Y-12526508D01*
X15000420Y-12526508D02*
X15009944Y-12536031D01*
X15009944Y-12536031D02*
X15019467Y-12555079D01*
X15019467Y-12555079D02*
X15028991Y-12593174D01*
X15028991Y-12593174D02*
X15028991Y-12640793D01*
X15028991Y-12640793D02*
X15019467Y-12678888D01*
X15019467Y-12678888D02*
X15009944Y-12697936D01*
X15009944Y-12697936D02*
X15000420Y-12707460D01*
X15000420Y-12707460D02*
X14981372Y-12716984D01*
X14981372Y-12716984D02*
X14962325Y-12716984D01*
X14962325Y-12716984D02*
X14943277Y-12707460D01*
X14943277Y-12707460D02*
X14933753Y-12697936D01*
X14933753Y-12697936D02*
X14924229Y-12678888D01*
X14924229Y-12678888D02*
X14914706Y-12640793D01*
X14914706Y-12640793D02*
X14914706Y-12593174D01*
X14914706Y-12593174D02*
X14924229Y-12555079D01*
X14924229Y-12555079D02*
X14933753Y-12536031D01*
X14933753Y-12536031D02*
X14943277Y-12526508D01*
X14943277Y-12526508D02*
X14962325Y-12516984D01*
X15200420Y-12516984D02*
X15162325Y-12516984D01*
X15162325Y-12516984D02*
X15143277Y-12526508D01*
X15143277Y-12526508D02*
X15133753Y-12536031D01*
X15133753Y-12536031D02*
X15114706Y-12564603D01*
X15114706Y-12564603D02*
X15105182Y-12602698D01*
X15105182Y-12602698D02*
X15105182Y-12678888D01*
X15105182Y-12678888D02*
X15114706Y-12697936D01*
X15114706Y-12697936D02*
X15124229Y-12707460D01*
X15124229Y-12707460D02*
X15143277Y-12716984D01*
X15143277Y-12716984D02*
X15181372Y-12716984D01*
X15181372Y-12716984D02*
X15200420Y-12707460D01*
X15200420Y-12707460D02*
X15209944Y-12697936D01*
X15209944Y-12697936D02*
X15219467Y-12678888D01*
X15219467Y-12678888D02*
X15219467Y-12631269D01*
X15219467Y-12631269D02*
X15209944Y-12612222D01*
X15209944Y-12612222D02*
X15200420Y-12602698D01*
X15200420Y-12602698D02*
X15181372Y-12593174D01*
X15181372Y-12593174D02*
X15143277Y-12593174D01*
X15143277Y-12593174D02*
X15124229Y-12602698D01*
X15124229Y-12602698D02*
X15114706Y-12612222D01*
X15114706Y-12612222D02*
X15105182Y-12631269D01*
X15286134Y-12516984D02*
X15409944Y-12516984D01*
X15409944Y-12516984D02*
X15343277Y-12593174D01*
X15343277Y-12593174D02*
X15371848Y-12593174D01*
X15371848Y-12593174D02*
X15390896Y-12602698D01*
X15390896Y-12602698D02*
X15400420Y-12612222D01*
X15400420Y-12612222D02*
X15409944Y-12631269D01*
X15409944Y-12631269D02*
X15409944Y-12678888D01*
X15409944Y-12678888D02*
X15400420Y-12697936D01*
X15400420Y-12697936D02*
X15390896Y-12707460D01*
X15390896Y-12707460D02*
X15371848Y-12716984D01*
X15371848Y-12716984D02*
X15314706Y-12716984D01*
X15314706Y-12716984D02*
X15295658Y-12707460D01*
X15295658Y-12707460D02*
X15286134Y-12697936D01*
X15486134Y-12516984D02*
X15486134Y-12555079D01*
X15562325Y-12516984D02*
X15562325Y-12555079D01*
X15857563Y-12793174D02*
X15848039Y-12783650D01*
X15848039Y-12783650D02*
X15828991Y-12755079D01*
X15828991Y-12755079D02*
X15819468Y-12736031D01*
X15819468Y-12736031D02*
X15809944Y-12707460D01*
X15809944Y-12707460D02*
X15800420Y-12659841D01*
X15800420Y-12659841D02*
X15800420Y-12621746D01*
X15800420Y-12621746D02*
X15809944Y-12574127D01*
X15809944Y-12574127D02*
X15819468Y-12545555D01*
X15819468Y-12545555D02*
X15828991Y-12526508D01*
X15828991Y-12526508D02*
X15848039Y-12497936D01*
X15848039Y-12497936D02*
X15857563Y-12488412D01*
X16019468Y-12583650D02*
X16019468Y-12716984D01*
X15971848Y-12507460D02*
X15924229Y-12650317D01*
X15924229Y-12650317D02*
X16048039Y-12650317D01*
X16276610Y-12716984D02*
X16276610Y-12516984D01*
X16362325Y-12716984D02*
X16362325Y-12612222D01*
X16362325Y-12612222D02*
X16352801Y-12593174D01*
X16352801Y-12593174D02*
X16333753Y-12583650D01*
X16333753Y-12583650D02*
X16305182Y-12583650D01*
X16305182Y-12583650D02*
X16286134Y-12593174D01*
X16286134Y-12593174D02*
X16276610Y-12602698D01*
X16486134Y-12716984D02*
X16467087Y-12707460D01*
X16467087Y-12707460D02*
X16457563Y-12697936D01*
X16457563Y-12697936D02*
X16448039Y-12678888D01*
X16448039Y-12678888D02*
X16448039Y-12621746D01*
X16448039Y-12621746D02*
X16457563Y-12602698D01*
X16457563Y-12602698D02*
X16467087Y-12593174D01*
X16467087Y-12593174D02*
X16486134Y-12583650D01*
X16486134Y-12583650D02*
X16514706Y-12583650D01*
X16514706Y-12583650D02*
X16533753Y-12593174D01*
X16533753Y-12593174D02*
X16543277Y-12602698D01*
X16543277Y-12602698D02*
X16552801Y-12621746D01*
X16552801Y-12621746D02*
X16552801Y-12678888D01*
X16552801Y-12678888D02*
X16543277Y-12697936D01*
X16543277Y-12697936D02*
X16533753Y-12707460D01*
X16533753Y-12707460D02*
X16514706Y-12716984D01*
X16514706Y-12716984D02*
X16486134Y-12716984D01*
X16667087Y-12716984D02*
X16648039Y-12707460D01*
X16648039Y-12707460D02*
X16638515Y-12688412D01*
X16638515Y-12688412D02*
X16638515Y-12516984D01*
X16819468Y-12707460D02*
X16800420Y-12716984D01*
X16800420Y-12716984D02*
X16762325Y-12716984D01*
X16762325Y-12716984D02*
X16743277Y-12707460D01*
X16743277Y-12707460D02*
X16733753Y-12688412D01*
X16733753Y-12688412D02*
X16733753Y-12612222D01*
X16733753Y-12612222D02*
X16743277Y-12593174D01*
X16743277Y-12593174D02*
X16762325Y-12583650D01*
X16762325Y-12583650D02*
X16800420Y-12583650D01*
X16800420Y-12583650D02*
X16819468Y-12593174D01*
X16819468Y-12593174D02*
X16828992Y-12612222D01*
X16828992Y-12612222D02*
X16828992Y-12631269D01*
X16828992Y-12631269D02*
X16733753Y-12650317D01*
X16905182Y-12707460D02*
X16924230Y-12716984D01*
X16924230Y-12716984D02*
X16962325Y-12716984D01*
X16962325Y-12716984D02*
X16981373Y-12707460D01*
X16981373Y-12707460D02*
X16990896Y-12688412D01*
X16990896Y-12688412D02*
X16990896Y-12678888D01*
X16990896Y-12678888D02*
X16981373Y-12659841D01*
X16981373Y-12659841D02*
X16962325Y-12650317D01*
X16962325Y-12650317D02*
X16933753Y-12650317D01*
X16933753Y-12650317D02*
X16914706Y-12640793D01*
X16914706Y-12640793D02*
X16905182Y-12621746D01*
X16905182Y-12621746D02*
X16905182Y-12612222D01*
X16905182Y-12612222D02*
X16914706Y-12593174D01*
X16914706Y-12593174D02*
X16933753Y-12583650D01*
X16933753Y-12583650D02*
X16962325Y-12583650D01*
X16962325Y-12583650D02*
X16981373Y-12593174D01*
X17057563Y-12793174D02*
X17067087Y-12783650D01*
X17067087Y-12783650D02*
X17086134Y-12755079D01*
X17086134Y-12755079D02*
X17095658Y-12736031D01*
X17095658Y-12736031D02*
X17105182Y-12707460D01*
X17105182Y-12707460D02*
X17114706Y-12659841D01*
X17114706Y-12659841D02*
X17114706Y-12621746D01*
X17114706Y-12621746D02*
X17105182Y-12574127D01*
X17105182Y-12574127D02*
X17095658Y-12545555D01*
X17095658Y-12545555D02*
X17086134Y-12526508D01*
X17086134Y-12526508D02*
X17067087Y-12497936D01*
X17067087Y-12497936D02*
X17057563Y-12488412D01*
X17419468Y-12793174D02*
X17409944Y-12783650D01*
X17409944Y-12783650D02*
X17390896Y-12755079D01*
X17390896Y-12755079D02*
X17381373Y-12736031D01*
X17381373Y-12736031D02*
X17371849Y-12707460D01*
X17371849Y-12707460D02*
X17362325Y-12659841D01*
X17362325Y-12659841D02*
X17362325Y-12621746D01*
X17362325Y-12621746D02*
X17371849Y-12574127D01*
X17371849Y-12574127D02*
X17381373Y-12545555D01*
X17381373Y-12545555D02*
X17390896Y-12526508D01*
X17390896Y-12526508D02*
X17409944Y-12497936D01*
X17409944Y-12497936D02*
X17419468Y-12488412D01*
X17495658Y-12583650D02*
X17495658Y-12716984D01*
X17495658Y-12602698D02*
X17505182Y-12593174D01*
X17505182Y-12593174D02*
X17524230Y-12583650D01*
X17524230Y-12583650D02*
X17552801Y-12583650D01*
X17552801Y-12583650D02*
X17571849Y-12593174D01*
X17571849Y-12593174D02*
X17581373Y-12612222D01*
X17581373Y-12612222D02*
X17581373Y-12716984D01*
X17705182Y-12716984D02*
X17686134Y-12707460D01*
X17686134Y-12707460D02*
X17676611Y-12697936D01*
X17676611Y-12697936D02*
X17667087Y-12678888D01*
X17667087Y-12678888D02*
X17667087Y-12621746D01*
X17667087Y-12621746D02*
X17676611Y-12602698D01*
X17676611Y-12602698D02*
X17686134Y-12593174D01*
X17686134Y-12593174D02*
X17705182Y-12583650D01*
X17705182Y-12583650D02*
X17733754Y-12583650D01*
X17733754Y-12583650D02*
X17752801Y-12593174D01*
X17752801Y-12593174D02*
X17762325Y-12602698D01*
X17762325Y-12602698D02*
X17771849Y-12621746D01*
X17771849Y-12621746D02*
X17771849Y-12678888D01*
X17771849Y-12678888D02*
X17762325Y-12697936D01*
X17762325Y-12697936D02*
X17752801Y-12707460D01*
X17752801Y-12707460D02*
X17733754Y-12716984D01*
X17733754Y-12716984D02*
X17705182Y-12716984D01*
X17828992Y-12583650D02*
X17905182Y-12583650D01*
X17857563Y-12516984D02*
X17857563Y-12688412D01*
X17857563Y-12688412D02*
X17867087Y-12707460D01*
X17867087Y-12707460D02*
X17886134Y-12716984D01*
X17886134Y-12716984D02*
X17905182Y-12716984D01*
X18124230Y-12583650D02*
X18124230Y-12783650D01*
X18124230Y-12593174D02*
X18143277Y-12583650D01*
X18143277Y-12583650D02*
X18181373Y-12583650D01*
X18181373Y-12583650D02*
X18200420Y-12593174D01*
X18200420Y-12593174D02*
X18209944Y-12602698D01*
X18209944Y-12602698D02*
X18219468Y-12621746D01*
X18219468Y-12621746D02*
X18219468Y-12678888D01*
X18219468Y-12678888D02*
X18209944Y-12697936D01*
X18209944Y-12697936D02*
X18200420Y-12707460D01*
X18200420Y-12707460D02*
X18181373Y-12716984D01*
X18181373Y-12716984D02*
X18143277Y-12716984D01*
X18143277Y-12716984D02*
X18124230Y-12707460D01*
X18333754Y-12716984D02*
X18314706Y-12707460D01*
X18314706Y-12707460D02*
X18305182Y-12688412D01*
X18305182Y-12688412D02*
X18305182Y-12516984D01*
X18495658Y-12716984D02*
X18495658Y-12612222D01*
X18495658Y-12612222D02*
X18486135Y-12593174D01*
X18486135Y-12593174D02*
X18467087Y-12583650D01*
X18467087Y-12583650D02*
X18428992Y-12583650D01*
X18428992Y-12583650D02*
X18409944Y-12593174D01*
X18495658Y-12707460D02*
X18476611Y-12716984D01*
X18476611Y-12716984D02*
X18428992Y-12716984D01*
X18428992Y-12716984D02*
X18409944Y-12707460D01*
X18409944Y-12707460D02*
X18400420Y-12688412D01*
X18400420Y-12688412D02*
X18400420Y-12669365D01*
X18400420Y-12669365D02*
X18409944Y-12650317D01*
X18409944Y-12650317D02*
X18428992Y-12640793D01*
X18428992Y-12640793D02*
X18476611Y-12640793D01*
X18476611Y-12640793D02*
X18495658Y-12631269D01*
X18562325Y-12583650D02*
X18638515Y-12583650D01*
X18590896Y-12516984D02*
X18590896Y-12688412D01*
X18590896Y-12688412D02*
X18600420Y-12707460D01*
X18600420Y-12707460D02*
X18619468Y-12716984D01*
X18619468Y-12716984D02*
X18638515Y-12716984D01*
X18781373Y-12707460D02*
X18762325Y-12716984D01*
X18762325Y-12716984D02*
X18724230Y-12716984D01*
X18724230Y-12716984D02*
X18705182Y-12707460D01*
X18705182Y-12707460D02*
X18695658Y-12688412D01*
X18695658Y-12688412D02*
X18695658Y-12612222D01*
X18695658Y-12612222D02*
X18705182Y-12593174D01*
X18705182Y-12593174D02*
X18724230Y-12583650D01*
X18724230Y-12583650D02*
X18762325Y-12583650D01*
X18762325Y-12583650D02*
X18781373Y-12593174D01*
X18781373Y-12593174D02*
X18790896Y-12612222D01*
X18790896Y-12612222D02*
X18790896Y-12631269D01*
X18790896Y-12631269D02*
X18695658Y-12650317D01*
X18962325Y-12716984D02*
X18962325Y-12516984D01*
X18962325Y-12707460D02*
X18943277Y-12716984D01*
X18943277Y-12716984D02*
X18905182Y-12716984D01*
X18905182Y-12716984D02*
X18886135Y-12707460D01*
X18886135Y-12707460D02*
X18876611Y-12697936D01*
X18876611Y-12697936D02*
X18867087Y-12678888D01*
X18867087Y-12678888D02*
X18867087Y-12621746D01*
X18867087Y-12621746D02*
X18876611Y-12602698D01*
X18876611Y-12602698D02*
X18886135Y-12593174D01*
X18886135Y-12593174D02*
X18905182Y-12583650D01*
X18905182Y-12583650D02*
X18943277Y-12583650D01*
X18943277Y-12583650D02*
X18962325Y-12593174D01*
X19038516Y-12793174D02*
X19048039Y-12783650D01*
X19048039Y-12783650D02*
X19067087Y-12755079D01*
X19067087Y-12755079D02*
X19076611Y-12736031D01*
X19076611Y-12736031D02*
X19086135Y-12707460D01*
X19086135Y-12707460D02*
X19095658Y-12659841D01*
X19095658Y-12659841D02*
X19095658Y-12621746D01*
X19095658Y-12621746D02*
X19086135Y-12574127D01*
X19086135Y-12574127D02*
X19076611Y-12545555D01*
X19076611Y-12545555D02*
X19067087Y-12526508D01*
X19067087Y-12526508D02*
X19048039Y-12497936D01*
X19048039Y-12497936D02*
X19038516Y-12488412D01*
M02*
