G04 #@! TF.GenerationSoftware,KiCad,Pcbnew,8.0.8*
G04 #@! TF.CreationDate,2025-02-26T07:42:39+09:00*
G04 #@! TF.ProjectId,1bit-cpu_HAT,31626974-2d63-4707-955f-4841542e6b69,rev?*
G04 #@! TF.SameCoordinates,Original*
G04 #@! TF.FileFunction,Copper,L1,Top*
G04 #@! TF.FilePolarity,Positive*
%FSLAX46Y46*%
G04 Gerber Fmt 4.6, Leading zero omitted, Abs format (unit mm)*
G04 Created by KiCad (PCBNEW 8.0.8) date 2025-02-26 07:42:39*
%MOMM*%
%LPD*%
G01*
G04 APERTURE LIST*
G04 Aperture macros list*
%AMRoundRect*
0 Rectangle with rounded corners*
0 $1 Rounding radius*
0 $2 $3 $4 $5 $6 $7 $8 $9 X,Y pos of 4 corners*
0 Add a 4 corners polygon primitive as box body*
4,1,4,$2,$3,$4,$5,$6,$7,$8,$9,$2,$3,0*
0 Add four circle primitives for the rounded corners*
1,1,$1+$1,$2,$3*
1,1,$1+$1,$4,$5*
1,1,$1+$1,$6,$7*
1,1,$1+$1,$8,$9*
0 Add four rect primitives between the rounded corners*
20,1,$1+$1,$2,$3,$4,$5,0*
20,1,$1+$1,$4,$5,$6,$7,0*
20,1,$1+$1,$6,$7,$8,$9,0*
20,1,$1+$1,$8,$9,$2,$3,0*%
G04 Aperture macros list end*
G04 #@! TA.AperFunction,ComponentPad*
%ADD10R,1.600000X1.600000*%
G04 #@! TD*
G04 #@! TA.AperFunction,ComponentPad*
%ADD11O,1.600000X1.600000*%
G04 #@! TD*
G04 #@! TA.AperFunction,ComponentPad*
%ADD12R,1.800000X1.800000*%
G04 #@! TD*
G04 #@! TA.AperFunction,ComponentPad*
%ADD13C,1.800000*%
G04 #@! TD*
G04 #@! TA.AperFunction,ComponentPad*
%ADD14R,1.500000X1.050000*%
G04 #@! TD*
G04 #@! TA.AperFunction,ComponentPad*
%ADD15O,1.500000X1.050000*%
G04 #@! TD*
G04 #@! TA.AperFunction,ComponentPad*
%ADD16C,1.600000*%
G04 #@! TD*
G04 #@! TA.AperFunction,ComponentPad*
%ADD17R,1.700000X1.700000*%
G04 #@! TD*
G04 #@! TA.AperFunction,ComponentPad*
%ADD18O,1.700000X1.700000*%
G04 #@! TD*
G04 #@! TA.AperFunction,ComponentPad*
%ADD19C,1.269000*%
G04 #@! TD*
G04 #@! TA.AperFunction,ComponentPad*
%ADD20C,2.000000*%
G04 #@! TD*
G04 #@! TA.AperFunction,SMDPad,CuDef*
%ADD21RoundRect,0.062500X0.675000X0.062500X-0.675000X0.062500X-0.675000X-0.062500X0.675000X-0.062500X0*%
G04 #@! TD*
G04 #@! TA.AperFunction,SMDPad,CuDef*
%ADD22RoundRect,0.062500X0.062500X0.675000X-0.062500X0.675000X-0.062500X-0.675000X0.062500X-0.675000X0*%
G04 #@! TD*
G04 #@! TA.AperFunction,ViaPad*
%ADD23C,0.800000*%
G04 #@! TD*
G04 #@! TA.AperFunction,Conductor*
%ADD24C,0.250000*%
G04 #@! TD*
G04 APERTURE END LIST*
D10*
G04 #@! TO.P,D1,1,K*
G04 #@! TO.N,Net-(D1-K)*
X143750000Y-111560000D03*
D11*
G04 #@! TO.P,D1,2,A*
G04 #@! TO.N,/GPIO22_GEN3*
X143750000Y-103940000D03*
G04 #@! TD*
D12*
G04 #@! TO.P,LED3,1,K*
G04 #@! TO.N,Net-(LED3-K)*
X167100000Y-115700000D03*
D13*
G04 #@! TO.P,LED3,2,A*
G04 #@! TO.N,Net-(LED3-A)*
X167100000Y-113160000D03*
G04 #@! TD*
D14*
G04 #@! TO.P,Q3,1,E*
G04 #@! TO.N,GND*
X167035000Y-108250000D03*
D15*
G04 #@! TO.P,Q3,2,C*
G04 #@! TO.N,Net-(LED3-K)*
X167035000Y-106980000D03*
G04 #@! TO.P,Q3,3,B*
G04 #@! TO.N,Net-(Q3-B)*
X167035000Y-105710000D03*
G04 #@! TD*
D16*
G04 #@! TO.P,R15,1*
G04 #@! TO.N,Net-(U1-CLK_GXP)*
X163385000Y-97690000D03*
D11*
G04 #@! TO.P,R15,2*
G04 #@! TO.N,Net-(Q3-B)*
X171005000Y-97690000D03*
G04 #@! TD*
D14*
G04 #@! TO.P,Q1,1,E*
G04 #@! TO.N,GND*
X151235000Y-108340000D03*
D15*
G04 #@! TO.P,Q1,2,C*
G04 #@! TO.N,Net-(LED1-K)*
X151235000Y-107070000D03*
G04 #@! TO.P,Q1,3,B*
G04 #@! TO.N,Net-(Q1-B)*
X151235000Y-105800000D03*
G04 #@! TD*
D12*
G04 #@! TO.P,LED1,1,K*
G04 #@! TO.N,Net-(LED1-K)*
X151250000Y-115785000D03*
D13*
G04 #@! TO.P,LED1,2,A*
G04 #@! TO.N,Net-(LED1-A)*
X151250000Y-113245000D03*
G04 #@! TD*
D16*
G04 #@! TO.P,R8,1*
G04 #@! TO.N,Net-(LED3-A)*
X179245000Y-118125000D03*
D11*
G04 #@! TO.P,R8,2*
G04 #@! TO.N,+5V*
X179245000Y-110505000D03*
G04 #@! TD*
D17*
G04 #@! TO.P,J2,1,Pin_1*
G04 #@! TO.N,GND*
X185200000Y-102560000D03*
D18*
G04 #@! TO.P,J2,2,Pin_2*
G04 #@! TO.N,/GPIO14_TXD0*
X185200000Y-105100000D03*
G04 #@! TO.P,J2,3,Pin_3*
G04 #@! TO.N,/GPIO15_RXD0*
X185200000Y-107640000D03*
G04 #@! TD*
D16*
G04 #@! TO.P,R1,1*
G04 #@! TO.N,Net-(D1-K)*
X174240000Y-97650000D03*
D11*
G04 #@! TO.P,R1,2*
G04 #@! TO.N,GND*
X181860000Y-97650000D03*
G04 #@! TD*
D12*
G04 #@! TO.P,LED2,1,K*
G04 #@! TO.N,Net-(LED2-K)*
X159190000Y-115710000D03*
D13*
G04 #@! TO.P,LED2,2,A*
G04 #@! TO.N,Net-(LED2-A)*
X159190000Y-113170000D03*
G04 #@! TD*
D19*
G04 #@! TO.P,VR1,1,CCW*
G04 #@! TO.N,+5V*
X142100000Y-116250000D03*
G04 #@! TO.P,VR1,2,WIPER*
G04 #@! TO.N,Net-(U1-IN_RYO)*
X139560000Y-116250000D03*
G04 #@! TO.P,VR1,3,CW*
G04 #@! TO.N,unconnected-(VR1-CW-Pad3)*
X137020000Y-116250000D03*
G04 #@! TD*
D16*
G04 #@! TO.P,R7,1*
G04 #@! TO.N,Net-(LED2-A)*
X175700000Y-118110000D03*
D11*
G04 #@! TO.P,R7,2*
G04 #@! TO.N,+5V*
X175700000Y-110490000D03*
G04 #@! TD*
D20*
G04 #@! TO.P,SW3,1,1*
G04 #@! TO.N,+5V*
X181400000Y-101300000D03*
X181400000Y-107800000D03*
G04 #@! TO.P,SW3,2,2*
G04 #@! TO.N,Net-(D1-K)*
X176900000Y-101300000D03*
X176900000Y-107800000D03*
G04 #@! TD*
D14*
G04 #@! TO.P,Q2,1,E*
G04 #@! TO.N,GND*
X159200000Y-108260000D03*
D15*
G04 #@! TO.P,Q2,2,C*
G04 #@! TO.N,Net-(LED2-K)*
X159200000Y-106990000D03*
G04 #@! TO.P,Q2,3,B*
G04 #@! TO.N,Net-(Q2-B)*
X159200000Y-105720000D03*
G04 #@! TD*
D16*
G04 #@! TO.P,R16,1*
G04 #@! TO.N,Net-(Q3-B)*
X171005000Y-101340000D03*
D11*
G04 #@! TO.P,R16,2*
G04 #@! TO.N,GND*
X163385000Y-101340000D03*
G04 #@! TD*
D16*
G04 #@! TO.P,R12,1*
G04 #@! TO.N,Net-(Q1-B)*
X151000000Y-101300000D03*
D11*
G04 #@! TO.P,R12,2*
G04 #@! TO.N,GND*
X143380000Y-101300000D03*
G04 #@! TD*
D21*
G04 #@! TO.P,U1,1,VDD*
G04 #@! TO.N,+5V*
X138737500Y-109662500D03*
G04 #@! TO.P,U1,2,VSS_GXP*
G04 #@! TO.N,GND*
X138737500Y-109162500D03*
G04 #@! TO.P,U1,3,CLK_GXP*
G04 #@! TO.N,Net-(U1-CLK_GXP)*
X138737500Y-108662500D03*
G04 #@! TO.P,U1,4,RESET_GXP*
G04 #@! TO.N,Net-(D1-K)*
X138737500Y-108162500D03*
G04 #@! TO.P,U1,5,REG0_GXP*
G04 #@! TO.N,Net-(U1-IN_B02)*
X138737500Y-107662500D03*
G04 #@! TO.P,U1,6,PC0_GXP*
G04 #@! TO.N,Net-(U1-IN_B04)*
X138737500Y-107162500D03*
G04 #@! TO.P,U1,7,PC1_GXP*
G04 #@! TO.N,Net-(U1-IN_B08)*
X138737500Y-106662500D03*
G04 #@! TO.P,U1,8,PROG1_GXP*
G04 #@! TO.N,Net-(U1-OUT_B13)*
X138737500Y-106162500D03*
G04 #@! TO.P,U1,9,PROG0_GXP*
G04 #@! TO.N,Net-(U1-PROG0_GXP)*
X138737500Y-105662500D03*
G04 #@! TO.P,U1,10,VDD_GXP*
G04 #@! TO.N,+5V*
X138737500Y-105162500D03*
G04 #@! TO.P,U1,11,VDD_B01*
X138737500Y-104662500D03*
G04 #@! TO.P,U1,12,IN_B01*
G04 #@! TO.N,/GPIO13*
X138737500Y-104162500D03*
G04 #@! TO.P,U1,13,OUT_B01*
G04 #@! TO.N,Net-(U1-CLK_GXP)*
X138737500Y-103662500D03*
G04 #@! TO.P,U1,14,VDD_B02*
G04 #@! TO.N,+3V3*
X138737500Y-103162500D03*
G04 #@! TO.P,U1,15,IN_B02*
G04 #@! TO.N,Net-(U1-IN_B02)*
X138737500Y-102662500D03*
G04 #@! TO.P,U1,16,OUT_B02*
G04 #@! TO.N,/GPIO25_GEN6*
X138737500Y-102162500D03*
G04 #@! TO.P,U1,17,IN_B03*
G04 #@! TO.N,unconnected-(U1-IN_B03-Pad17)*
X138737500Y-101662500D03*
G04 #@! TO.P,U1,18,OUT_B03*
G04 #@! TO.N,unconnected-(U1-OUT_B03-Pad18)*
X138737500Y-101162500D03*
G04 #@! TO.P,U1,19,VDD_B03*
G04 #@! TO.N,unconnected-(U1-VDD_B03-Pad19)*
X138737500Y-100662500D03*
G04 #@! TO.P,U1,20,VSS*
G04 #@! TO.N,GND*
X138737500Y-100162500D03*
D22*
G04 #@! TO.P,U1,21,VDD*
G04 #@! TO.N,+5V*
X136800000Y-98225000D03*
G04 #@! TO.P,U1,22,VSS_BA1*
G04 #@! TO.N,GND*
X136300000Y-98225000D03*
G04 #@! TO.P,U1,23,IN_B04*
G04 #@! TO.N,Net-(U1-IN_B04)*
X135800000Y-98225000D03*
G04 #@! TO.P,U1,24,OUT_B04*
G04 #@! TO.N,/GPIO23_GEN4*
X135300000Y-98225000D03*
G04 #@! TO.P,U1,25,VDD_B04*
G04 #@! TO.N,+3V3*
X134800000Y-98225000D03*
G04 #@! TO.P,U1,26,IN_B05*
G04 #@! TO.N,unconnected-(U1-IN_B05-Pad26)*
X134300000Y-98225000D03*
G04 #@! TO.P,U1,27,OUT_B05*
G04 #@! TO.N,unconnected-(U1-OUT_B05-Pad27)*
X133800000Y-98225000D03*
G04 #@! TO.P,U1,28,VDD_B05*
G04 #@! TO.N,unconnected-(U1-VDD_B05-Pad28)*
X133300000Y-98225000D03*
G04 #@! TO.P,U1,29,IN_B06*
G04 #@! TO.N,unconnected-(U1-IN_B06-Pad29)*
X132800000Y-98225000D03*
G04 #@! TO.P,U1,30,OUT_B06*
G04 #@! TO.N,unconnected-(U1-OUT_B06-Pad30)*
X132300000Y-98225000D03*
G04 #@! TO.P,U1,31,VDD_B06*
G04 #@! TO.N,unconnected-(U1-VDD_B06-Pad31)*
X131800000Y-98225000D03*
G04 #@! TO.P,U1,32,IN_B07*
G04 #@! TO.N,unconnected-(U1-IN_B07-Pad32)*
X131300000Y-98225000D03*
G04 #@! TO.P,U1,33,OUT_B07*
G04 #@! TO.N,unconnected-(U1-OUT_B07-Pad33)*
X130800000Y-98225000D03*
G04 #@! TO.P,U1,34,VDD_B07*
G04 #@! TO.N,unconnected-(U1-VDD_B07-Pad34)*
X130300000Y-98225000D03*
G04 #@! TO.P,U1,35,IN_B08*
G04 #@! TO.N,Net-(U1-IN_B08)*
X129800000Y-98225000D03*
G04 #@! TO.P,U1,36,OUT_B08*
G04 #@! TO.N,/GPIO24_GEN5*
X129300000Y-98225000D03*
G04 #@! TO.P,U1,37,VDD_B08*
G04 #@! TO.N,+3V3*
X128800000Y-98225000D03*
G04 #@! TO.P,U1,38,OUT_B09*
G04 #@! TO.N,unconnected-(U1-OUT_B09-Pad38)*
X128300000Y-98225000D03*
G04 #@! TO.P,U1,39,VDD_B09*
G04 #@! TO.N,unconnected-(U1-VDD_B09-Pad39)*
X127800000Y-98225000D03*
G04 #@! TO.P,U1,40,VSS*
G04 #@! TO.N,GND*
X127300000Y-98225000D03*
D21*
G04 #@! TO.P,U1,41,VDD*
G04 #@! TO.N,+5V*
X125362500Y-100162500D03*
G04 #@! TO.P,U1,42,VSS_BA2*
G04 #@! TO.N,GND*
X125362500Y-100662500D03*
G04 #@! TO.P,U1,43,IN_B09*
G04 #@! TO.N,unconnected-(U1-IN_B09-Pad43)*
X125362500Y-101162500D03*
G04 #@! TO.P,U1,44,OUT_B10*
G04 #@! TO.N,unconnected-(U1-OUT_B10-Pad44)*
X125362500Y-101662500D03*
G04 #@! TO.P,U1,45,VDD_B10*
G04 #@! TO.N,unconnected-(U1-VDD_B10-Pad45)*
X125362500Y-102162500D03*
G04 #@! TO.P,U1,46,IN_B10*
G04 #@! TO.N,unconnected-(U1-IN_B10-Pad46)*
X125362500Y-102662500D03*
G04 #@! TO.P,U1,47,OUT_B11*
G04 #@! TO.N,/GPIO12*
X125362500Y-103162500D03*
G04 #@! TO.P,U1,48,VDD_B11*
G04 #@! TO.N,+3V3*
X125362500Y-103662500D03*
G04 #@! TO.P,U1,49,IN_B11*
G04 #@! TO.N,Net-(U1-IN_B11)*
X125362500Y-104162500D03*
G04 #@! TO.P,U1,50,OUT_B12*
G04 #@! TO.N,unconnected-(U1-OUT_B12-Pad50)*
X125362500Y-104662500D03*
G04 #@! TO.P,U1,51,VDD_B12*
G04 #@! TO.N,unconnected-(U1-VDD_B12-Pad51)*
X125362500Y-105162500D03*
G04 #@! TO.P,U1,52,IN_B12*
G04 #@! TO.N,unconnected-(U1-IN_B12-Pad52)*
X125362500Y-105662500D03*
G04 #@! TO.P,U1,53,OUT_B13*
G04 #@! TO.N,Net-(U1-OUT_B13)*
X125362500Y-106162500D03*
G04 #@! TO.P,U1,54,VDD_B13*
G04 #@! TO.N,+5V*
X125362500Y-106662500D03*
G04 #@! TO.P,U1,55,IN_B13*
G04 #@! TO.N,/GPIO17_GEN0*
X125362500Y-107162500D03*
G04 #@! TO.P,U1,56,in_2_SC*
G04 #@! TO.N,unconnected-(U1-in_2_SC-Pad56)*
X125362500Y-107662500D03*
G04 #@! TO.P,U1,57,in_1_SC*
G04 #@! TO.N,unconnected-(U1-in_1_SC-Pad57)*
X125362500Y-108162500D03*
G04 #@! TO.P,U1,58,out_SC*
G04 #@! TO.N,unconnected-(U1-out_SC-Pad58)*
X125362500Y-108662500D03*
G04 #@! TO.P,U1,59,VSS_SC*
G04 #@! TO.N,unconnected-(U1-VSS_SC-Pad59)*
X125362500Y-109162500D03*
G04 #@! TO.P,U1,60,VSS*
G04 #@! TO.N,GND*
X125362500Y-109662500D03*
D22*
G04 #@! TO.P,U1,61,VDD*
G04 #@! TO.N,+5V*
X127300000Y-111600000D03*
G04 #@! TO.P,U1,62,VDD_SC*
G04 #@! TO.N,unconnected-(U1-VDD_SC-Pad62)*
X127800000Y-111600000D03*
G04 #@! TO.P,U1,63,IN1_SC*
G04 #@! TO.N,unconnected-(U1-IN1_SC-Pad63)*
X128300000Y-111600000D03*
G04 #@! TO.P,U1,64,IN2_SC*
G04 #@! TO.N,unconnected-(U1-IN2_SC-Pad64)*
X128800000Y-111600000D03*
G04 #@! TO.P,U1,65,OUT_SC*
G04 #@! TO.N,unconnected-(U1-OUT_SC-Pad65)*
X129300000Y-111600000D03*
G04 #@! TO.P,U1,66,VDD_RYO*
G04 #@! TO.N,+5V*
X129800000Y-111600000D03*
G04 #@! TO.P,U1,67,IN_RYO*
G04 #@! TO.N,Net-(U1-IN_RYO)*
X130300000Y-111600000D03*
G04 #@! TO.P,U1,68,OUT_RYO*
G04 #@! TO.N,Net-(U1-IN_B11)*
X130800000Y-111600000D03*
G04 #@! TO.P,U1,69,VSS_RYO*
G04 #@! TO.N,GND*
X131300000Y-111600000D03*
G04 #@! TO.P,U1,70,VDD_SIProp*
G04 #@! TO.N,+5V*
X131800000Y-111600000D03*
G04 #@! TO.P,U1,71,A_SIProp*
G04 #@! TO.N,/GPIO27_GEN2*
X132300000Y-111600000D03*
G04 #@! TO.P,U1,72,Q_SIProp*
G04 #@! TO.N,Net-(U1-PROG0_GXP)*
X132800000Y-111600000D03*
G04 #@! TO.P,U1,73,PP_3zki*
G04 #@! TO.N,unconnected-(U1-PP_3zki-Pad73)*
X133300000Y-111600000D03*
G04 #@! TO.P,U1,74,NP_3zki*
G04 #@! TO.N,unconnected-(U1-NP_3zki-Pad74)*
X133800000Y-111600000D03*
G04 #@! TO.P,U1,75,DISC_3zki*
G04 #@! TO.N,unconnected-(U1-DISC_3zki-Pad75)*
X134300000Y-111600000D03*
G04 #@! TO.P,U1,76,OUT_3zki*
G04 #@! TO.N,unconnected-(U1-OUT_3zki-Pad76)*
X134800000Y-111600000D03*
G04 #@! TO.P,U1,77,CLK_3zki*
G04 #@! TO.N,unconnected-(U1-CLK_3zki-Pad77)*
X135300000Y-111600000D03*
G04 #@! TO.P,U1,78,VDD_3zki*
G04 #@! TO.N,unconnected-(U1-VDD_3zki-Pad78)*
X135800000Y-111600000D03*
G04 #@! TO.P,U1,79,VSS_3zki*
G04 #@! TO.N,unconnected-(U1-VSS_3zki-Pad79)*
X136300000Y-111600000D03*
G04 #@! TO.P,U1,80,VSS*
G04 #@! TO.N,GND*
X136800000Y-111600000D03*
G04 #@! TD*
D16*
G04 #@! TO.P,R14,1*
G04 #@! TO.N,Net-(Q2-B)*
X161000000Y-101300000D03*
D11*
G04 #@! TO.P,R14,2*
G04 #@! TO.N,GND*
X153380000Y-101300000D03*
G04 #@! TD*
D16*
G04 #@! TO.P,C1,1*
G04 #@! TO.N,GND*
X173700000Y-103200000D03*
G04 #@! TO.P,C1,2*
G04 #@! TO.N,Net-(D1-K)*
X173700000Y-108200000D03*
G04 #@! TD*
G04 #@! TO.P,R2,1*
G04 #@! TO.N,Net-(U1-IN_RYO)*
X146500000Y-111510000D03*
D11*
G04 #@! TO.P,R2,2*
G04 #@! TO.N,GND*
X146500000Y-103890000D03*
G04 #@! TD*
D16*
G04 #@! TO.P,R11,1*
G04 #@! TO.N,Net-(U1-IN_B02)*
X143380000Y-97700000D03*
D11*
G04 #@! TO.P,R11,2*
G04 #@! TO.N,Net-(Q1-B)*
X151000000Y-97700000D03*
G04 #@! TD*
D16*
G04 #@! TO.P,R6,1*
G04 #@! TO.N,Net-(LED1-A)*
X172100000Y-118110000D03*
D11*
G04 #@! TO.P,R6,2*
G04 #@! TO.N,+5V*
X172100000Y-110490000D03*
G04 #@! TD*
D16*
G04 #@! TO.P,R13,1*
G04 #@! TO.N,Net-(U1-IN_B04)*
X153380000Y-97700000D03*
D11*
G04 #@! TO.P,R13,2*
G04 #@! TO.N,Net-(Q2-B)*
X161000000Y-97700000D03*
G04 #@! TD*
D17*
G04 #@! TO.P,J1,1,Pin_1*
G04 #@! TO.N,+3V3*
X131270000Y-94470000D03*
D18*
G04 #@! TO.P,J1,2,Pin_2*
G04 #@! TO.N,+5V*
X131270000Y-91930000D03*
G04 #@! TO.P,J1,3,Pin_3*
G04 #@! TO.N,/GPIO2_SDA1*
X133810000Y-94470000D03*
G04 #@! TO.P,J1,4,Pin_4*
G04 #@! TO.N,+5V*
X133810000Y-91930000D03*
G04 #@! TO.P,J1,5,Pin_5*
G04 #@! TO.N,/GPIO3_SCL1*
X136350000Y-94470000D03*
G04 #@! TO.P,J1,6,Pin_6*
G04 #@! TO.N,GND*
X136350000Y-91930000D03*
G04 #@! TO.P,J1,7,Pin_7*
G04 #@! TO.N,/GPIO4_GPIO_GCLK*
X138890000Y-94470000D03*
G04 #@! TO.P,J1,8,Pin_8*
G04 #@! TO.N,/GPIO14_TXD0*
X138890000Y-91930000D03*
G04 #@! TO.P,J1,9,Pin_9*
G04 #@! TO.N,GND*
X141430000Y-94470000D03*
G04 #@! TO.P,J1,10,Pin_10*
G04 #@! TO.N,/GPIO15_RXD0*
X141430000Y-91930000D03*
G04 #@! TO.P,J1,11,Pin_11*
G04 #@! TO.N,/GPIO17_GEN0*
X143970000Y-94470000D03*
G04 #@! TO.P,J1,12,Pin_12*
G04 #@! TO.N,/GPIO18_GEN1*
X143970000Y-91930000D03*
G04 #@! TO.P,J1,13,Pin_13*
G04 #@! TO.N,/GPIO27_GEN2*
X146510000Y-94470000D03*
G04 #@! TO.P,J1,14,Pin_14*
G04 #@! TO.N,GND*
X146510000Y-91930000D03*
G04 #@! TO.P,J1,15,Pin_15*
G04 #@! TO.N,/GPIO22_GEN3*
X149050000Y-94470000D03*
G04 #@! TO.P,J1,16,Pin_16*
G04 #@! TO.N,/GPIO23_GEN4*
X149050000Y-91930000D03*
G04 #@! TO.P,J1,17,Pin_17*
G04 #@! TO.N,+3V3*
X151590000Y-94470000D03*
G04 #@! TO.P,J1,18,Pin_18*
G04 #@! TO.N,/GPIO24_GEN5*
X151590000Y-91930000D03*
G04 #@! TO.P,J1,19,Pin_19*
G04 #@! TO.N,/GPIO10_SPI_MOSI*
X154130000Y-94470000D03*
G04 #@! TO.P,J1,20,Pin_20*
G04 #@! TO.N,GND*
X154130000Y-91930000D03*
G04 #@! TO.P,J1,21,Pin_21*
G04 #@! TO.N,/GPIO9_SPI_MISO*
X156670000Y-94470000D03*
G04 #@! TO.P,J1,22,Pin_22*
G04 #@! TO.N,/GPIO25_GEN6*
X156670000Y-91930000D03*
G04 #@! TO.P,J1,23,Pin_23*
G04 #@! TO.N,/GPIO11_SPI_SCLK*
X159210000Y-94470000D03*
G04 #@! TO.P,J1,24,Pin_24*
G04 #@! TO.N,/GPIO8_SPI_CE0_N*
X159210000Y-91930000D03*
G04 #@! TO.P,J1,25,Pin_25*
G04 #@! TO.N,GND*
X161750000Y-94470000D03*
G04 #@! TO.P,J1,26,Pin_26*
G04 #@! TO.N,/GPIO7_SPI_CE1_N*
X161750000Y-91930000D03*
G04 #@! TO.P,J1,27,Pin_27*
G04 #@! TO.N,/ID_SD*
X164290000Y-94470000D03*
G04 #@! TO.P,J1,28,Pin_28*
G04 #@! TO.N,/ID_SC*
X164290000Y-91930000D03*
G04 #@! TO.P,J1,29,Pin_29*
G04 #@! TO.N,/GPIO5*
X166830000Y-94470000D03*
G04 #@! TO.P,J1,30,Pin_30*
G04 #@! TO.N,GND*
X166830000Y-91930000D03*
G04 #@! TO.P,J1,31,Pin_31*
G04 #@! TO.N,/GPIO6*
X169370000Y-94470000D03*
G04 #@! TO.P,J1,32,Pin_32*
G04 #@! TO.N,/GPIO12*
X169370000Y-91930000D03*
G04 #@! TO.P,J1,33,Pin_33*
G04 #@! TO.N,/GPIO13*
X171910000Y-94470000D03*
G04 #@! TO.P,J1,34,Pin_34*
G04 #@! TO.N,GND*
X171910000Y-91930000D03*
G04 #@! TO.P,J1,35,Pin_35*
G04 #@! TO.N,/GPIO19*
X174450000Y-94470000D03*
G04 #@! TO.P,J1,36,Pin_36*
G04 #@! TO.N,/GPIO16*
X174450000Y-91930000D03*
G04 #@! TO.P,J1,37,Pin_37*
G04 #@! TO.N,/GPIO26*
X176990000Y-94470000D03*
G04 #@! TO.P,J1,38,Pin_38*
G04 #@! TO.N,/GPIO20*
X176990000Y-91930000D03*
G04 #@! TO.P,J1,39,Pin_39*
G04 #@! TO.N,GND*
X179530000Y-94470000D03*
G04 #@! TO.P,J1,40,Pin_40*
G04 #@! TO.N,/GPIO21*
X179530000Y-91930000D03*
G04 #@! TD*
D23*
G04 #@! TO.N,Net-(D1-K)*
X140500000Y-107000000D03*
G04 #@! TO.N,GND*
X127000000Y-109500000D03*
X140500000Y-108750000D03*
X126906120Y-99906120D03*
X141000000Y-99750000D03*
X138000000Y-111750000D03*
X131500000Y-116000000D03*
G04 #@! TO.N,+5V*
X125000000Y-98000000D03*
X131500000Y-99750000D03*
X125000000Y-111000000D03*
X139375000Y-97625000D03*
G04 #@! TO.N,/GPIO12*
X127250000Y-102750000D03*
G04 #@! TO.N,/GPIO27_GEN2*
X132500000Y-109500000D03*
G04 #@! TO.N,/GPIO25_GEN6*
X141000000Y-102000000D03*
G04 #@! TO.N,/GPIO23_GEN4*
X134362240Y-96250000D03*
G04 #@! TO.N,/GPIO17_GEN0*
X127500000Y-107750000D03*
G04 #@! TO.N,/GPIO13*
X142000000Y-103750000D03*
G04 #@! TO.N,Net-(U1-CLK_GXP)*
X148500000Y-98500000D03*
X140762652Y-103262652D03*
X134750000Y-110000000D03*
X137250000Y-104000000D03*
G04 #@! TO.N,Net-(U1-IN_RYO)*
X130500000Y-110000000D03*
G04 #@! TO.N,Net-(U1-IN_B02)*
X136000000Y-109250000D03*
X137250000Y-102250000D03*
G04 #@! TO.N,Net-(U1-IN_B04)*
X136000000Y-108000000D03*
X140500000Y-97500000D03*
X136000000Y-99750000D03*
G04 #@! TO.N,Net-(U1-IN_B08)*
X130750000Y-103750000D03*
X136750000Y-107000000D03*
G04 #@! TO.N,Net-(U1-PROG0_GXP)*
X136500000Y-105250000D03*
X133750000Y-109750000D03*
G04 #@! TO.N,/GPIO24_GEN5*
X130750000Y-96250000D03*
G04 #@! TD*
D24*
G04 #@! TO.N,+5V*
X140750000Y-105500000D02*
X144875000Y-105500000D01*
X144875000Y-105500000D02*
X144875000Y-113475000D01*
X144875000Y-105000000D02*
X144875000Y-105500000D01*
X140412500Y-105162500D02*
X140750000Y-105500000D01*
X138737500Y-105162500D02*
X140412500Y-105162500D01*
X140662500Y-104662500D02*
X141065000Y-105065000D01*
X141065000Y-105065000D02*
X144810000Y-105065000D01*
X138737500Y-104662500D02*
X140662500Y-104662500D01*
X144810000Y-105065000D02*
X144875000Y-105000000D01*
X144875000Y-103375000D02*
X144875000Y-105000000D01*
X142590000Y-102815000D02*
X144315000Y-102815000D01*
X141775000Y-102000000D02*
X142590000Y-102815000D01*
X144875000Y-113475000D02*
X142100000Y-116250000D01*
X141775000Y-99499695D02*
X141775000Y-102000000D01*
X144315000Y-102815000D02*
X144875000Y-103375000D01*
G04 #@! TO.N,Net-(D1-K)*
X140500000Y-107187240D02*
X140500000Y-107000000D01*
X139524740Y-108162500D02*
X140500000Y-107187240D01*
X138737500Y-108162500D02*
X139524740Y-108162500D01*
G04 #@! TO.N,GND*
X151235000Y-108340000D02*
X151010000Y-108340000D01*
X125362500Y-100662500D02*
X126149740Y-100662500D01*
X131300000Y-111600000D02*
X131300000Y-115800000D01*
X138737500Y-109162500D02*
X140087500Y-109162500D01*
X125362500Y-109662500D02*
X126837500Y-109662500D01*
X131300000Y-115800000D02*
X131500000Y-116000000D01*
X136300000Y-99012240D02*
X137450260Y-100162500D01*
X136300000Y-98225000D02*
X136300000Y-99012240D01*
X127300000Y-99512240D02*
X127300000Y-98225000D01*
X126837500Y-109662500D02*
X127000000Y-109500000D01*
X126149740Y-100662500D02*
X126906120Y-99906120D01*
X137450260Y-100162500D02*
X138737500Y-100162500D01*
X140587500Y-100162500D02*
X141000000Y-99750000D01*
X138737500Y-100162500D02*
X140587500Y-100162500D01*
X140087500Y-109162500D02*
X140500000Y-108750000D01*
X126906120Y-99906120D02*
X127300000Y-99512240D01*
X137850000Y-111600000D02*
X138000000Y-111750000D01*
X136800000Y-111600000D02*
X137850000Y-111600000D01*
X141430000Y-94470000D02*
X141675000Y-94715000D01*
G04 #@! TO.N,+5V*
X136218299Y-96000000D02*
X140025305Y-96000000D01*
X138737500Y-109662500D02*
X142750000Y-109662500D01*
X129800000Y-110812760D02*
X129800000Y-111600000D01*
X137525000Y-97500000D02*
X139250000Y-97500000D01*
X181400000Y-101300000D02*
X181400000Y-107800000D01*
X131800000Y-111600000D02*
X131800000Y-112387240D01*
X125750000Y-111750000D02*
X127150000Y-111750000D01*
X127300000Y-111600000D02*
X127300000Y-110812760D01*
X129625000Y-93575000D02*
X129625000Y-94535839D01*
X124250000Y-106987760D02*
X124250000Y-110250000D01*
X124250000Y-110250000D02*
X125000000Y-111000000D01*
X140775305Y-98250000D02*
X140000000Y-98250000D01*
X134162760Y-114750000D02*
X140850000Y-114750000D01*
X130224695Y-109250000D02*
X130775305Y-109250000D01*
X141300305Y-99025000D02*
X141775000Y-99499695D01*
X125000000Y-98000000D02*
X123750000Y-99250000D01*
X127575260Y-110537500D02*
X129250000Y-110537500D01*
X135175000Y-93295000D02*
X135175000Y-94956701D01*
X172100000Y-110490000D02*
X172010000Y-110490000D01*
X172010000Y-110490000D02*
X171182500Y-109662500D01*
X127150000Y-111750000D02*
X127300000Y-111600000D01*
X143087500Y-109662500D02*
X143250000Y-109500000D01*
X129250000Y-110224695D02*
X130224695Y-109250000D01*
X179245000Y-109955000D02*
X179245000Y-110505000D01*
X126160839Y-98000000D02*
X125000000Y-98000000D01*
X140775000Y-99025000D02*
X141300305Y-99025000D01*
X129625000Y-94535839D02*
X126160839Y-98000000D01*
X129524740Y-110537500D02*
X129800000Y-110812760D01*
X131800000Y-110274695D02*
X131800000Y-111600000D01*
X139250000Y-97500000D02*
X140775000Y-99025000D01*
X129250000Y-110537500D02*
X129524740Y-110537500D01*
X141225000Y-97800305D02*
X140775305Y-98250000D01*
X171182500Y-109662500D02*
X142750000Y-109662500D01*
X140025305Y-96000000D02*
X141225000Y-97199695D01*
X139375000Y-97625000D02*
X139250000Y-97500000D01*
X123750000Y-99750000D02*
X124162500Y-100162500D01*
X140850000Y-114750000D02*
X142100000Y-116000000D01*
X181400000Y-107800000D02*
X179245000Y-109955000D01*
X141225000Y-97199695D02*
X141225000Y-97800305D01*
X135175000Y-94956701D02*
X136218299Y-96000000D01*
X140000000Y-98250000D02*
X139375000Y-97625000D01*
X129250000Y-110537500D02*
X129250000Y-110224695D01*
X131800000Y-112387240D02*
X134162760Y-114750000D01*
X179005000Y-110505000D02*
X178990000Y-110490000D01*
X125362500Y-106662500D02*
X124575260Y-106662500D01*
X136800000Y-98225000D02*
X137525000Y-97500000D01*
X178990000Y-110490000D02*
X175700000Y-110490000D01*
X131270000Y-91930000D02*
X129625000Y-93575000D01*
X179245000Y-110505000D02*
X179005000Y-110505000D01*
X130775305Y-109250000D02*
X131800000Y-110274695D01*
X124575260Y-106662500D02*
X124250000Y-106987760D01*
X124162500Y-100162500D02*
X125362500Y-100162500D01*
X142750000Y-109662500D02*
X143087500Y-109662500D01*
X127300000Y-110812760D02*
X127575260Y-110537500D01*
X175700000Y-110490000D02*
X172100000Y-110490000D01*
X123750000Y-99250000D02*
X123750000Y-99750000D01*
X125000000Y-111000000D02*
X125750000Y-111750000D01*
X133810000Y-91930000D02*
X135175000Y-93295000D01*
G04 #@! TO.N,Net-(LED2-K)*
X159185000Y-115705000D02*
X159190000Y-115710000D01*
G04 #@! TO.N,+3V3*
X128800000Y-98225000D02*
X128800000Y-102475305D01*
X134800000Y-97437760D02*
X134800000Y-98225000D01*
X134800000Y-101050000D02*
X136912500Y-103162500D01*
X128800000Y-102475305D02*
X127612805Y-103662500D01*
X133962500Y-97162500D02*
X134524740Y-97162500D01*
X131270000Y-94470000D02*
X131270000Y-94967760D01*
X134524740Y-97162500D02*
X134800000Y-97437760D01*
X136912500Y-103162500D02*
X138737500Y-103162500D01*
X131270000Y-94470000D02*
X133962500Y-97162500D01*
X128800000Y-96700000D02*
X128800000Y-98225000D01*
X134800000Y-98225000D02*
X134800000Y-101050000D01*
X127612805Y-103662500D02*
X125362500Y-103662500D01*
X131030000Y-94470000D02*
X128800000Y-96700000D01*
X131270000Y-94470000D02*
X131030000Y-94470000D01*
G04 #@! TO.N,/GPIO12*
X127250000Y-102750000D02*
X126837500Y-103162500D01*
X126837500Y-103162500D02*
X125362500Y-103162500D01*
G04 #@! TO.N,/GPIO27_GEN2*
X132300000Y-109700000D02*
X132300000Y-111600000D01*
X132500000Y-109500000D02*
X132300000Y-109700000D01*
G04 #@! TO.N,/GPIO25_GEN6*
X141000000Y-102000000D02*
X140837500Y-102162500D01*
X140837500Y-102162500D02*
X138737500Y-102162500D01*
G04 #@! TO.N,/GPIO23_GEN4*
X134362240Y-96250000D02*
X135300000Y-97187760D01*
X134362240Y-96250000D02*
X134250000Y-96362240D01*
X134250000Y-96362240D02*
X134250000Y-96500000D01*
X135300000Y-97187760D02*
X135300000Y-98225000D01*
G04 #@! TO.N,/GPIO17_GEN0*
X125362500Y-107162500D02*
X126912500Y-107162500D01*
X126912500Y-107162500D02*
X127500000Y-107750000D01*
G04 #@! TO.N,/GPIO13*
X141587500Y-104162500D02*
X138737500Y-104162500D01*
X142000000Y-103750000D02*
X141587500Y-104162500D01*
G04 #@! TO.N,Net-(U1-CLK_GXP)*
X140362805Y-103662500D02*
X140762652Y-103262653D01*
X148500000Y-98500000D02*
X150425000Y-96575000D01*
X136612760Y-110000000D02*
X137950260Y-108662500D01*
X134750000Y-110000000D02*
X136612760Y-110000000D01*
X140762652Y-103262652D02*
X140762653Y-103262652D01*
X138737500Y-103662500D02*
X140362805Y-103662500D01*
X140762652Y-103262653D02*
X140762652Y-103262652D01*
X150425000Y-96575000D02*
X162270000Y-96575000D01*
X162270000Y-96575000D02*
X163385000Y-97690000D01*
X137587500Y-103662500D02*
X137250000Y-104000000D01*
X138737500Y-103662500D02*
X137587500Y-103662500D01*
X137950260Y-108662500D02*
X138737500Y-108662500D01*
G04 #@! TO.N,Net-(U1-IN_RYO)*
X130300000Y-110200000D02*
X130500000Y-110000000D01*
X130300000Y-111600000D02*
X130300000Y-110200000D01*
G04 #@! TO.N,Net-(U1-IN_B02)*
X138737500Y-102662500D02*
X137662500Y-102662500D01*
X137662500Y-102662500D02*
X137250000Y-102250000D01*
X137950260Y-107662500D02*
X137400260Y-108212500D01*
X138737500Y-107662500D02*
X137950260Y-107662500D01*
X137400260Y-108212500D02*
X136362760Y-109250000D01*
X136362760Y-109250000D02*
X136000000Y-109250000D01*
G04 #@! TO.N,Net-(U1-IN_B04)*
X137612805Y-107162500D02*
X136775305Y-108000000D01*
X136662760Y-96575000D02*
X138500000Y-96575000D01*
X135800000Y-98225000D02*
X135800000Y-99550000D01*
X140275305Y-97500000D02*
X140500000Y-97500000D01*
X135800000Y-98225000D02*
X135800000Y-97437760D01*
X135800000Y-99550000D02*
X136000000Y-99750000D01*
X138737500Y-107162500D02*
X137612805Y-107162500D01*
X139350305Y-96575000D02*
X140275305Y-97500000D01*
X135800000Y-97437760D02*
X136662760Y-96575000D01*
X138500000Y-96575000D02*
X139350305Y-96575000D01*
X136775305Y-108000000D02*
X136000000Y-108000000D01*
G04 #@! TO.N,Net-(U1-IN_B08)*
X129800000Y-98225000D02*
X129800000Y-97437760D01*
X136750000Y-107000000D02*
X137087500Y-106662500D01*
X129800000Y-98225000D02*
X129800000Y-100300000D01*
X129800000Y-100300000D02*
X130750000Y-101250000D01*
X137087500Y-106662500D02*
X138737500Y-106662500D01*
X130750000Y-101250000D02*
X130750000Y-103750000D01*
G04 #@! TO.N,Net-(U1-PROG0_GXP)*
X133750000Y-109862760D02*
X133750000Y-109750000D01*
X136912500Y-105662500D02*
X138737500Y-105662500D01*
X132800000Y-110812760D02*
X133750000Y-109862760D01*
X136500000Y-105250000D02*
X136912500Y-105662500D01*
X132800000Y-111600000D02*
X132800000Y-110812760D01*
G04 #@! TO.N,Net-(U1-IN_B11)*
X123750000Y-104987760D02*
X123750000Y-112500000D01*
X124250000Y-113000000D02*
X124275000Y-112975000D01*
X124275000Y-112975000D02*
X130275000Y-112975000D01*
X130275000Y-112975000D02*
X130800000Y-112450000D01*
X130800000Y-112450000D02*
X130800000Y-111600000D01*
X125362500Y-104162500D02*
X124575260Y-104162500D01*
X123750000Y-112500000D02*
X124250000Y-113000000D01*
X124575260Y-104162500D02*
X123750000Y-104987760D01*
G04 #@! TO.N,Net-(U1-OUT_B13)*
X125362500Y-106162500D02*
X138737500Y-106162500D01*
G04 #@! TO.N,/GPIO24_GEN5*
X130750000Y-96250000D02*
X130000000Y-96250000D01*
X130000000Y-96250000D02*
X129300000Y-96950000D01*
X129300000Y-96950000D02*
X129300000Y-98225000D01*
G04 #@! TD*
G04 #@! TA.AperFunction,Conductor*
G04 #@! TO.N,+5V*
G36*
X182849468Y-90300502D02*
G01*
X182895961Y-90354158D01*
X182906065Y-90424432D01*
X182876571Y-90489012D01*
X182848383Y-90513187D01*
X182602999Y-90667372D01*
X182602995Y-90667375D01*
X182330740Y-90884489D01*
X182084489Y-91130740D01*
X181867375Y-91402995D01*
X181867372Y-91402999D01*
X181682096Y-91697862D01*
X181682091Y-91697871D01*
X181531002Y-92011611D01*
X181530991Y-92011638D01*
X181415983Y-92340312D01*
X181338491Y-92679825D01*
X181299500Y-93025878D01*
X181299500Y-93374121D01*
X181338491Y-93720174D01*
X181361552Y-93821209D01*
X181415982Y-94059681D01*
X181415984Y-94059687D01*
X181415983Y-94059687D01*
X181530991Y-94388361D01*
X181531002Y-94388388D01*
X181682091Y-94702128D01*
X181682096Y-94702137D01*
X181867372Y-94997000D01*
X181867375Y-94997004D01*
X182084489Y-95269259D01*
X182330740Y-95515510D01*
X182602995Y-95732624D01*
X182603003Y-95732630D01*
X182755579Y-95828500D01*
X182887977Y-95911692D01*
X182897867Y-95917906D01*
X183211621Y-96069002D01*
X183211637Y-96069007D01*
X183211638Y-96069008D01*
X183540312Y-96184016D01*
X183540315Y-96184016D01*
X183540319Y-96184018D01*
X183879829Y-96261509D01*
X184125210Y-96289157D01*
X184225878Y-96300500D01*
X184225880Y-96300500D01*
X184574122Y-96300500D01*
X184662006Y-96290597D01*
X184920171Y-96261509D01*
X185259681Y-96184018D01*
X185588379Y-96069002D01*
X185902133Y-95917906D01*
X186196997Y-95732630D01*
X186349281Y-95611188D01*
X186469259Y-95515510D01*
X186715510Y-95269259D01*
X186932624Y-94997004D01*
X186932630Y-94996997D01*
X187117906Y-94702133D01*
X187147632Y-94640406D01*
X187159978Y-94614770D01*
X187207556Y-94562074D01*
X187276070Y-94543465D01*
X187343769Y-94564853D01*
X187389157Y-94619445D01*
X187399500Y-94669439D01*
X187399500Y-114730560D01*
X187379498Y-114798681D01*
X187325842Y-114845174D01*
X187255568Y-114855278D01*
X187190988Y-114825784D01*
X187159978Y-114785230D01*
X187133650Y-114730560D01*
X187117906Y-114697867D01*
X187113467Y-114690803D01*
X186960111Y-114446739D01*
X186932630Y-114403003D01*
X186932624Y-114402995D01*
X186715510Y-114130740D01*
X186469259Y-113884489D01*
X186197004Y-113667375D01*
X186197000Y-113667372D01*
X185902137Y-113482096D01*
X185902128Y-113482091D01*
X185588388Y-113331002D01*
X185588383Y-113331000D01*
X185588379Y-113330998D01*
X185588373Y-113330995D01*
X185588361Y-113330991D01*
X185259687Y-113215983D01*
X184920174Y-113138491D01*
X184574122Y-113099500D01*
X184574120Y-113099500D01*
X184225880Y-113099500D01*
X184225878Y-113099500D01*
X183879825Y-113138491D01*
X183540312Y-113215983D01*
X183211638Y-113330991D01*
X183211611Y-113331002D01*
X182897871Y-113482091D01*
X182897862Y-113482096D01*
X182602999Y-113667372D01*
X182602995Y-113667375D01*
X182330740Y-113884489D01*
X182084489Y-114130740D01*
X181867375Y-114402995D01*
X181867372Y-114402999D01*
X181682096Y-114697862D01*
X181682091Y-114697871D01*
X181531002Y-115011611D01*
X181530991Y-115011638D01*
X181415983Y-115340312D01*
X181338491Y-115679825D01*
X181299500Y-116025878D01*
X181299500Y-116374121D01*
X181338491Y-116720174D01*
X181363891Y-116831457D01*
X181415982Y-117059681D01*
X181415984Y-117059687D01*
X181415983Y-117059687D01*
X181530991Y-117388361D01*
X181531002Y-117388388D01*
X181682091Y-117702128D01*
X181682096Y-117702137D01*
X181867372Y-117997000D01*
X181867375Y-117997004D01*
X182084489Y-118269259D01*
X182330740Y-118515510D01*
X182602995Y-118732624D01*
X182603003Y-118732630D01*
X182769183Y-118837048D01*
X182897862Y-118917903D01*
X182897871Y-118917908D01*
X183151352Y-119039978D01*
X183204048Y-119087556D01*
X183222657Y-119156070D01*
X183201269Y-119223769D01*
X183146677Y-119269157D01*
X183096683Y-119279500D01*
X180245188Y-119279500D01*
X180177067Y-119259498D01*
X180130574Y-119205842D01*
X180120470Y-119135568D01*
X180149964Y-119070988D01*
X180156093Y-119064405D01*
X180180520Y-119039978D01*
X180251198Y-118969300D01*
X180382523Y-118781749D01*
X180479284Y-118574243D01*
X180538543Y-118353087D01*
X180558498Y-118125000D01*
X180538543Y-117896913D01*
X180479284Y-117675757D01*
X180382523Y-117468251D01*
X180251198Y-117280700D01*
X180089300Y-117118802D01*
X180088867Y-117118499D01*
X179901749Y-116987477D01*
X179694246Y-116890717D01*
X179694240Y-116890715D01*
X179583458Y-116861031D01*
X179473087Y-116831457D01*
X179245000Y-116811502D01*
X179016913Y-116831457D01*
X178795759Y-116890715D01*
X178795753Y-116890717D01*
X178588250Y-116987477D01*
X178400703Y-117118799D01*
X178400697Y-117118804D01*
X178238804Y-117280697D01*
X178238799Y-117280703D01*
X178107477Y-117468250D01*
X178010717Y-117675753D01*
X178010715Y-117675759D01*
X177951457Y-117896913D01*
X177931502Y-118125000D01*
X177951457Y-118353086D01*
X178010715Y-118574240D01*
X178010717Y-118574246D01*
X178107477Y-118781749D01*
X178238799Y-118969296D01*
X178238804Y-118969302D01*
X178333907Y-119064405D01*
X178367933Y-119126717D01*
X178362868Y-119197532D01*
X178320321Y-119254368D01*
X178253801Y-119279179D01*
X178244812Y-119279500D01*
X176685188Y-119279500D01*
X176617067Y-119259498D01*
X176570574Y-119205842D01*
X176560470Y-119135568D01*
X176589964Y-119070988D01*
X176596093Y-119064405D01*
X176620520Y-119039978D01*
X176706198Y-118954300D01*
X176837523Y-118766749D01*
X176934284Y-118559243D01*
X176993543Y-118338087D01*
X177013498Y-118110000D01*
X176993543Y-117881913D01*
X176934284Y-117660757D01*
X176837523Y-117453251D01*
X176706198Y-117265700D01*
X176544300Y-117103802D01*
X176541709Y-117101988D01*
X176356749Y-116972477D01*
X176149246Y-116875717D01*
X176149240Y-116875715D01*
X176039115Y-116846207D01*
X175928087Y-116816457D01*
X175700000Y-116796502D01*
X175471913Y-116816457D01*
X175250759Y-116875715D01*
X175250753Y-116875717D01*
X175043250Y-116972477D01*
X174855703Y-117103799D01*
X174855699Y-117103803D01*
X174693804Y-117265697D01*
X174693799Y-117265703D01*
X174562477Y-117453250D01*
X174465717Y-117660753D01*
X174465715Y-117660759D01*
X174454629Y-117702133D01*
X174406457Y-117881913D01*
X174386502Y-118110000D01*
X174406457Y-118338087D01*
X174433088Y-118437475D01*
X174465715Y-118559240D01*
X174465717Y-118559246D01*
X174562477Y-118766749D01*
X174693799Y-118954296D01*
X174693804Y-118954302D01*
X174803907Y-119064405D01*
X174837933Y-119126717D01*
X174832868Y-119197532D01*
X174790321Y-119254368D01*
X174723801Y-119279179D01*
X174714812Y-119279500D01*
X173085188Y-119279500D01*
X173017067Y-119259498D01*
X172970574Y-119205842D01*
X172960470Y-119135568D01*
X172989964Y-119070988D01*
X172996093Y-119064405D01*
X173020520Y-119039978D01*
X173106198Y-118954300D01*
X173237523Y-118766749D01*
X173334284Y-118559243D01*
X173393543Y-118338087D01*
X173413498Y-118110000D01*
X173393543Y-117881913D01*
X173334284Y-117660757D01*
X173237523Y-117453251D01*
X173106198Y-117265700D01*
X172944300Y-117103802D01*
X172941709Y-117101988D01*
X172756749Y-116972477D01*
X172549246Y-116875717D01*
X172549240Y-116875715D01*
X172439115Y-116846207D01*
X172328087Y-116816457D01*
X172100000Y-116796502D01*
X171871913Y-116816457D01*
X171650759Y-116875715D01*
X171650753Y-116875717D01*
X171443250Y-116972477D01*
X171255703Y-117103799D01*
X171255699Y-117103803D01*
X171093804Y-117265697D01*
X171093799Y-117265703D01*
X170962477Y-117453250D01*
X170865717Y-117660753D01*
X170865715Y-117660759D01*
X170854629Y-117702133D01*
X170806457Y-117881913D01*
X170786502Y-118110000D01*
X170806457Y-118338087D01*
X170833088Y-118437475D01*
X170865715Y-118559240D01*
X170865717Y-118559246D01*
X170962477Y-118766749D01*
X171093799Y-118954296D01*
X171093804Y-118954302D01*
X171203907Y-119064405D01*
X171237933Y-119126717D01*
X171232868Y-119197532D01*
X171190321Y-119254368D01*
X171123801Y-119279179D01*
X171114812Y-119279500D01*
X127703317Y-119279500D01*
X127635196Y-119259498D01*
X127588703Y-119205842D01*
X127578599Y-119135568D01*
X127608093Y-119070988D01*
X127648648Y-119039978D01*
X127664832Y-119032184D01*
X127902133Y-118917906D01*
X128196997Y-118732630D01*
X128386149Y-118581787D01*
X128469259Y-118515510D01*
X128715510Y-118269259D01*
X128932624Y-117997004D01*
X128932630Y-117996997D01*
X129117906Y-117702133D01*
X129269002Y-117388379D01*
X129368579Y-117103802D01*
X129384016Y-117059687D01*
X129384016Y-117059686D01*
X129384018Y-117059681D01*
X129461509Y-116720171D01*
X129500500Y-116374120D01*
X129500500Y-116025880D01*
X129461509Y-115679829D01*
X129384018Y-115340319D01*
X129381792Y-115333958D01*
X129269008Y-115011638D01*
X129269007Y-115011637D01*
X129269002Y-115011621D01*
X129117906Y-114697867D01*
X129113467Y-114690803D01*
X128960111Y-114446739D01*
X128932630Y-114403003D01*
X128932624Y-114402995D01*
X128715510Y-114130740D01*
X128469266Y-113884496D01*
X128469259Y-113884490D01*
X128404706Y-113833011D01*
X128363918Y-113774900D01*
X128361021Y-113703963D01*
X128396937Y-113642721D01*
X128460261Y-113610618D01*
X128483265Y-113608500D01*
X130337393Y-113608500D01*
X130337394Y-113608500D01*
X130459785Y-113584155D01*
X130492280Y-113570694D01*
X130562869Y-113563105D01*
X130626357Y-113594883D01*
X130662586Y-113655940D01*
X130666500Y-113687103D01*
X130666500Y-115605326D01*
X130660333Y-115644262D01*
X130606457Y-115810071D01*
X130586496Y-116000000D01*
X130606457Y-116189927D01*
X130632793Y-116270979D01*
X130665473Y-116371556D01*
X130665476Y-116371561D01*
X130760958Y-116536941D01*
X130760965Y-116536951D01*
X130888744Y-116678864D01*
X130937253Y-116714108D01*
X131043248Y-116791118D01*
X131217712Y-116868794D01*
X131404513Y-116908500D01*
X131595487Y-116908500D01*
X131782288Y-116868794D01*
X131956752Y-116791118D01*
X132111253Y-116678866D01*
X132124037Y-116664668D01*
X132239034Y-116536951D01*
X132239035Y-116536949D01*
X132239040Y-116536944D01*
X132334527Y-116371556D01*
X132374023Y-116250000D01*
X135872103Y-116250000D01*
X135891648Y-116460927D01*
X135949616Y-116664663D01*
X135949617Y-116664665D01*
X135949618Y-116664668D01*
X136044038Y-116854290D01*
X136060218Y-116875716D01*
X136171695Y-117023335D01*
X136328238Y-117166042D01*
X136328239Y-117166043D01*
X136508328Y-117277550D01*
X136508335Y-117277553D01*
X136508338Y-117277555D01*
X136508342Y-117277556D01*
X136508343Y-117277557D01*
X136704613Y-117353593D01*
X136705863Y-117354077D01*
X136914085Y-117393000D01*
X136914087Y-117393000D01*
X137125913Y-117393000D01*
X137125915Y-117393000D01*
X137334137Y-117354077D01*
X137531662Y-117277555D01*
X137531667Y-117277551D01*
X137531671Y-117277550D01*
X137711760Y-117166043D01*
X137711759Y-117166043D01*
X137711762Y-117166042D01*
X137868306Y-117023333D01*
X137995962Y-116854290D01*
X138090382Y-116664668D01*
X138148352Y-116460926D01*
X138164537Y-116286252D01*
X138178806Y-116250320D01*
X138178473Y-116249678D01*
X138401193Y-116249678D01*
X138413656Y-116273688D01*
X138415461Y-116286242D01*
X138425337Y-116392815D01*
X138431648Y-116460927D01*
X138489616Y-116664663D01*
X138489617Y-116664665D01*
X138489618Y-116664668D01*
X138584038Y-116854290D01*
X138600218Y-116875716D01*
X138711695Y-117023335D01*
X138868238Y-117166042D01*
X138868239Y-117166043D01*
X139048328Y-117277550D01*
X139048335Y-117277553D01*
X139048338Y-117277555D01*
X139048342Y-117277556D01*
X139048343Y-117277557D01*
X139244613Y-117353593D01*
X139245863Y-117354077D01*
X139454085Y-117393000D01*
X139454087Y-117393000D01*
X139665913Y-117393000D01*
X139665915Y-117393000D01*
X139874137Y-117354077D01*
X140071662Y-117277555D01*
X140071667Y-117277551D01*
X140071671Y-117277550D01*
X140251760Y-117166043D01*
X140251759Y-117166043D01*
X140251762Y-117166042D01*
X140408306Y-117023333D01*
X140535962Y-116854290D01*
X140630382Y-116664668D01*
X140688352Y-116460926D01*
X140704788Y-116283542D01*
X140717838Y-116250680D01*
X140717131Y-116249317D01*
X140942663Y-116249317D01*
X140953907Y-116270979D01*
X140955713Y-116283545D01*
X140972141Y-116460827D01*
X140972141Y-116460831D01*
X141030083Y-116664478D01*
X141030086Y-116664486D01*
X141124464Y-116854023D01*
X141129756Y-116861031D01*
X141730000Y-116260787D01*
X141730000Y-116298711D01*
X141755215Y-116392815D01*
X141803926Y-116477186D01*
X141872814Y-116546074D01*
X141957185Y-116594785D01*
X142051289Y-116620000D01*
X142089209Y-116620000D01*
X141491933Y-117217275D01*
X141588558Y-117277103D01*
X141588562Y-117277105D01*
X141785998Y-117353593D01*
X141994134Y-117392500D01*
X142205866Y-117392500D01*
X142414001Y-117353593D01*
X142611437Y-117277105D01*
X142611441Y-117277103D01*
X142708064Y-117217276D01*
X142708065Y-117217275D01*
X142110790Y-116620000D01*
X142148711Y-116620000D01*
X142242815Y-116594785D01*
X142327186Y-116546074D01*
X142396074Y-116477186D01*
X142444785Y-116392815D01*
X142470000Y-116298711D01*
X142470000Y-116260789D01*
X143070242Y-116861031D01*
X143075533Y-116854028D01*
X143169913Y-116664486D01*
X143169916Y-116664478D01*
X143227858Y-116460831D01*
X143227858Y-116460827D01*
X143247395Y-116250004D01*
X143247395Y-116249995D01*
X143227858Y-116039172D01*
X143227858Y-116039168D01*
X143169916Y-115835521D01*
X143169913Y-115835513D01*
X143075532Y-115645970D01*
X143070243Y-115638967D01*
X143070242Y-115638966D01*
X142470000Y-116239208D01*
X142470000Y-116201289D01*
X142444785Y-116107185D01*
X142396074Y-116022814D01*
X142327186Y-115953926D01*
X142242815Y-115905215D01*
X142148711Y-115880000D01*
X142110789Y-115880000D01*
X142708064Y-115282723D01*
X142611443Y-115222897D01*
X142611433Y-115222892D01*
X142414003Y-115146407D01*
X142414005Y-115146407D01*
X142205866Y-115107500D01*
X141994134Y-115107500D01*
X141785995Y-115146407D01*
X141588568Y-115222891D01*
X141588561Y-115222894D01*
X141491933Y-115282723D01*
X142089210Y-115880000D01*
X142051289Y-115880000D01*
X141957185Y-115905215D01*
X141872814Y-115953926D01*
X141803926Y-116022814D01*
X141755215Y-116107185D01*
X141730000Y-116201289D01*
X141730000Y-116239210D01*
X141129756Y-115638966D01*
X141124466Y-115645972D01*
X141030086Y-115835513D01*
X141030083Y-115835521D01*
X140972141Y-116039168D01*
X140972141Y-116039172D01*
X140955713Y-116216454D01*
X140942663Y-116249317D01*
X140717131Y-116249317D01*
X140706595Y-116229020D01*
X140704789Y-116216464D01*
X140688352Y-116039074D01*
X140630382Y-115835332D01*
X140535962Y-115645710D01*
X140408306Y-115476667D01*
X140408304Y-115476664D01*
X140251761Y-115333957D01*
X140251760Y-115333956D01*
X140071671Y-115222449D01*
X140071656Y-115222442D01*
X139874144Y-115145925D01*
X139874141Y-115145924D01*
X139874138Y-115145923D01*
X139874137Y-115145923D01*
X139665915Y-115107000D01*
X139454085Y-115107000D01*
X139245863Y-115145923D01*
X139245858Y-115145924D01*
X139245855Y-115145925D01*
X139048343Y-115222442D01*
X139048328Y-115222449D01*
X138868239Y-115333956D01*
X138868238Y-115333957D01*
X138711695Y-115476664D01*
X138584039Y-115645708D01*
X138489616Y-115835336D01*
X138431648Y-116039072D01*
X138431648Y-116039074D01*
X138415462Y-116213746D01*
X138401193Y-116249678D01*
X138178473Y-116249678D01*
X138166344Y-116226311D01*
X138164538Y-116213754D01*
X138148352Y-116039074D01*
X138090382Y-115835332D01*
X137995962Y-115645710D01*
X137868306Y-115476667D01*
X137868304Y-115476664D01*
X137711761Y-115333957D01*
X137711760Y-115333956D01*
X137531671Y-115222449D01*
X137531656Y-115222442D01*
X137334144Y-115145925D01*
X137334141Y-115145924D01*
X137334138Y-115145923D01*
X137334137Y-115145923D01*
X137125915Y-115107000D01*
X136914085Y-115107000D01*
X136705863Y-115145923D01*
X136705858Y-115145924D01*
X136705855Y-115145925D01*
X136508343Y-115222442D01*
X136508328Y-115222449D01*
X136328239Y-115333956D01*
X136328238Y-115333957D01*
X136171695Y-115476664D01*
X136044039Y-115645708D01*
X135949616Y-115835336D01*
X135891648Y-116039072D01*
X135872103Y-116250000D01*
X132374023Y-116250000D01*
X132393542Y-116189928D01*
X132413504Y-116000000D01*
X132393542Y-115810072D01*
X132334527Y-115628444D01*
X132239040Y-115463056D01*
X132239038Y-115463054D01*
X132239034Y-115463048D01*
X132111255Y-115321135D01*
X131985439Y-115229724D01*
X131942085Y-115173501D01*
X131933500Y-115127788D01*
X131933500Y-113245000D01*
X149836673Y-113245000D01*
X149855757Y-113475311D01*
X149855950Y-113477633D01*
X149913249Y-113703903D01*
X149913252Y-113703910D01*
X150007015Y-113917668D01*
X150085683Y-114038079D01*
X150134686Y-114113083D01*
X150219842Y-114205587D01*
X150251263Y-114269251D01*
X150243276Y-114339797D01*
X150198417Y-114394826D01*
X150171175Y-114408979D01*
X150103795Y-114434111D01*
X150103792Y-114434112D01*
X149986738Y-114521738D01*
X149899112Y-114638792D01*
X149899110Y-114638797D01*
X149848011Y-114775795D01*
X149848009Y-114775803D01*
X149841500Y-114836350D01*
X149841500Y-116733649D01*
X149848009Y-116794196D01*
X149848011Y-116794204D01*
X149899110Y-116931202D01*
X149899112Y-116931207D01*
X149986738Y-117048261D01*
X150103792Y-117135887D01*
X150103794Y-117135888D01*
X150103796Y-117135889D01*
X150162875Y-117157924D01*
X150240795Y-117186988D01*
X150240803Y-117186990D01*
X150301350Y-117193499D01*
X150301355Y-117193499D01*
X150301362Y-117193500D01*
X150301368Y-117193500D01*
X152198632Y-117193500D01*
X152198638Y-117193500D01*
X152198645Y-117193499D01*
X152198649Y-117193499D01*
X152259196Y-117186990D01*
X152259199Y-117186989D01*
X152259201Y-117186989D01*
X152396204Y-117135889D01*
X152419435Y-117118499D01*
X152513261Y-117048261D01*
X152600887Y-116931207D01*
X152600887Y-116931206D01*
X152600889Y-116931204D01*
X152651989Y-116794201D01*
X152652321Y-116791118D01*
X152658499Y-116733649D01*
X152658500Y-116733632D01*
X152658500Y-114836367D01*
X152658499Y-114836350D01*
X152651990Y-114775803D01*
X152651988Y-114775795D01*
X152600889Y-114638797D01*
X152600887Y-114638792D01*
X152513261Y-114521738D01*
X152396207Y-114434112D01*
X152396204Y-114434111D01*
X152328824Y-114408979D01*
X152271989Y-114366432D01*
X152247179Y-114299911D01*
X152262271Y-114230538D01*
X152280156Y-114205588D01*
X152365314Y-114113083D01*
X152492984Y-113917669D01*
X152586749Y-113703907D01*
X152644051Y-113477626D01*
X152663327Y-113245000D01*
X152657112Y-113170000D01*
X157776673Y-113170000D01*
X157795120Y-113392626D01*
X157795950Y-113402633D01*
X157853249Y-113628903D01*
X157853252Y-113628910D01*
X157947015Y-113842668D01*
X158068152Y-114028083D01*
X158074686Y-114038083D01*
X158159842Y-114130587D01*
X158191263Y-114194251D01*
X158183276Y-114264797D01*
X158138417Y-114319826D01*
X158111175Y-114333979D01*
X158043795Y-114359111D01*
X158043792Y-114359112D01*
X157926738Y-114446738D01*
X157839112Y-114563792D01*
X157839110Y-114563797D01*
X157788011Y-114700795D01*
X157788009Y-114700803D01*
X157781500Y-114761350D01*
X157781500Y-116658649D01*
X157788009Y-116719196D01*
X157788011Y-116719204D01*
X157839110Y-116856202D01*
X157839112Y-116856207D01*
X157926738Y-116973261D01*
X158043792Y-117060887D01*
X158043794Y-117060888D01*
X158043796Y-117060889D01*
X158098469Y-117081281D01*
X158180795Y-117111988D01*
X158180803Y-117111990D01*
X158241350Y-117118499D01*
X158241355Y-117118499D01*
X158241362Y-117118500D01*
X158241368Y-117118500D01*
X160138632Y-117118500D01*
X160138638Y-117118500D01*
X160138645Y-117118499D01*
X160138649Y-117118499D01*
X160199196Y-117111990D01*
X160199199Y-117111989D01*
X160199201Y-117111989D01*
X160336204Y-117060889D01*
X160349563Y-117050889D01*
X160453261Y-116973261D01*
X160540887Y-116856207D01*
X160540887Y-116856206D01*
X160540889Y-116856204D01*
X160591989Y-116719201D01*
X160596326Y-116678866D01*
X160598499Y-116658649D01*
X160598500Y-116658632D01*
X160598500Y-114761367D01*
X160598499Y-114761350D01*
X160591990Y-114700803D01*
X160591988Y-114700795D01*
X160540889Y-114563797D01*
X160540887Y-114563792D01*
X160453261Y-114446738D01*
X160336207Y-114359112D01*
X160336204Y-114359111D01*
X160268824Y-114333979D01*
X160211989Y-114291432D01*
X160187179Y-114224911D01*
X160202271Y-114155538D01*
X160220156Y-114130588D01*
X160305314Y-114038083D01*
X160432984Y-113842669D01*
X160526749Y-113628907D01*
X160584051Y-113402626D01*
X160603327Y-113170000D01*
X160602498Y-113160000D01*
X165686673Y-113160000D01*
X165702466Y-113350595D01*
X165705950Y-113392633D01*
X165763249Y-113618903D01*
X165763252Y-113618910D01*
X165857015Y-113832668D01*
X165890871Y-113884489D01*
X165984686Y-114028083D01*
X166069842Y-114120587D01*
X166101263Y-114184251D01*
X166093276Y-114254797D01*
X166048417Y-114309826D01*
X166021175Y-114323979D01*
X165953795Y-114349111D01*
X165953792Y-114349112D01*
X165836738Y-114436738D01*
X165749112Y-114553792D01*
X165749110Y-114553797D01*
X165698011Y-114690795D01*
X165698009Y-114690803D01*
X165691500Y-114751350D01*
X165691500Y-116648649D01*
X165698009Y-116709196D01*
X165698011Y-116709204D01*
X165749110Y-116846202D01*
X165749112Y-116846207D01*
X165836738Y-116963261D01*
X165953792Y-117050887D01*
X165953794Y-117050888D01*
X165953796Y-117050889D01*
X166012875Y-117072924D01*
X166090795Y-117101988D01*
X166090803Y-117101990D01*
X166151350Y-117108499D01*
X166151355Y-117108499D01*
X166151362Y-117108500D01*
X166151368Y-117108500D01*
X168048632Y-117108500D01*
X168048638Y-117108500D01*
X168048645Y-117108499D01*
X168048649Y-117108499D01*
X168109196Y-117101990D01*
X168109199Y-117101989D01*
X168109201Y-117101989D01*
X168246204Y-117050889D01*
X168283015Y-117023333D01*
X168363261Y-116963261D01*
X168450887Y-116846207D01*
X168450887Y-116846206D01*
X168450889Y-116846204D01*
X168501989Y-116709201D01*
X168505251Y-116678866D01*
X168508499Y-116648649D01*
X168508500Y-116648632D01*
X168508500Y-114751367D01*
X168508499Y-114751350D01*
X168501990Y-114690803D01*
X168501988Y-114690795D01*
X168450889Y-114553797D01*
X168450887Y-114553792D01*
X168363261Y-114436738D01*
X168246207Y-114349112D01*
X168246204Y-114349111D01*
X168178824Y-114323979D01*
X168121989Y-114281432D01*
X168097179Y-114214911D01*
X168112271Y-114145538D01*
X168130156Y-114120588D01*
X168215314Y-114028083D01*
X168342984Y-113832669D01*
X168436749Y-113618907D01*
X168494051Y-113392626D01*
X168513327Y-113160000D01*
X168494051Y-112927374D01*
X168455152Y-112773765D01*
X168436750Y-112701096D01*
X168436747Y-112701089D01*
X168413250Y-112647522D01*
X168342984Y-112487331D01*
X168291579Y-112408649D01*
X168215314Y-112291916D01*
X168057225Y-112120186D01*
X168057221Y-112120182D01*
X167965118Y-112048496D01*
X167873017Y-111976810D01*
X167667727Y-111865713D01*
X167667724Y-111865712D01*
X167667723Y-111865711D01*
X167446955Y-111789921D01*
X167446948Y-111789919D01*
X167348411Y-111773476D01*
X167216712Y-111751500D01*
X166983288Y-111751500D01*
X166868066Y-111770727D01*
X166753051Y-111789919D01*
X166753044Y-111789921D01*
X166532276Y-111865711D01*
X166532273Y-111865713D01*
X166326985Y-111976809D01*
X166326983Y-111976810D01*
X166142778Y-112120182D01*
X166142774Y-112120186D01*
X165984685Y-112291916D01*
X165857015Y-112487331D01*
X165763252Y-112701089D01*
X165763249Y-112701096D01*
X165705950Y-112927366D01*
X165705949Y-112927372D01*
X165705949Y-112927374D01*
X165686673Y-113160000D01*
X160602498Y-113160000D01*
X160584051Y-112937374D01*
X160557190Y-112831302D01*
X160526750Y-112711096D01*
X160526747Y-112711089D01*
X160522362Y-112701093D01*
X160432984Y-112497331D01*
X160414603Y-112469196D01*
X160305314Y-112301916D01*
X160147225Y-112130186D01*
X160147221Y-112130182D01*
X160055118Y-112058496D01*
X159963017Y-111986810D01*
X159757727Y-111875713D01*
X159757724Y-111875712D01*
X159757723Y-111875711D01*
X159536955Y-111799921D01*
X159536948Y-111799919D01*
X159438411Y-111783476D01*
X159306712Y-111761500D01*
X159073288Y-111761500D01*
X158958066Y-111780727D01*
X158843051Y-111799919D01*
X158843044Y-111799921D01*
X158622276Y-111875711D01*
X158622273Y-111875713D01*
X158435462Y-111976810D01*
X158416985Y-111986809D01*
X158416983Y-111986810D01*
X158232778Y-112130182D01*
X158232774Y-112130186D01*
X158074685Y-112301916D01*
X157947015Y-112497331D01*
X157853252Y-112711089D01*
X157853249Y-112711096D01*
X157795950Y-112937366D01*
X157795949Y-112937372D01*
X157795949Y-112937374D01*
X157776673Y-113170000D01*
X152657112Y-113170000D01*
X152644051Y-113012374D01*
X152629267Y-112953993D01*
X152586750Y-112786096D01*
X152586747Y-112786089D01*
X152541195Y-112682242D01*
X152492984Y-112572331D01*
X152456309Y-112516195D01*
X152365314Y-112376916D01*
X152207225Y-112205186D01*
X152207221Y-112205182D01*
X152110861Y-112130182D01*
X152023017Y-112061810D01*
X151817727Y-111950713D01*
X151817724Y-111950712D01*
X151817723Y-111950711D01*
X151596955Y-111874921D01*
X151596948Y-111874919D01*
X151498411Y-111858476D01*
X151366712Y-111836500D01*
X151133288Y-111836500D01*
X151018066Y-111855727D01*
X150903051Y-111874919D01*
X150903044Y-111874921D01*
X150682276Y-111950711D01*
X150682273Y-111950713D01*
X150476985Y-112061809D01*
X150476983Y-112061810D01*
X150292778Y-112205182D01*
X150292774Y-112205186D01*
X150134685Y-112376916D01*
X150007015Y-112572331D01*
X149913252Y-112786089D01*
X149913249Y-112786096D01*
X149855950Y-113012366D01*
X149855949Y-113012372D01*
X149855949Y-113012374D01*
X149836673Y-113245000D01*
X131933500Y-113245000D01*
X131933500Y-112953993D01*
X131953502Y-112885872D01*
X132007158Y-112839379D01*
X132077432Y-112829275D01*
X132085300Y-112830889D01*
X132088436Y-112831301D01*
X132088439Y-112831303D01*
X132200075Y-112846000D01*
X132399924Y-112845999D01*
X132511561Y-112831303D01*
X132511569Y-112831299D01*
X132517386Y-112829742D01*
X132582610Y-112829741D01*
X132588437Y-112831302D01*
X132588439Y-112831303D01*
X132700075Y-112846000D01*
X132899924Y-112845999D01*
X133011561Y-112831303D01*
X133011569Y-112831299D01*
X133017386Y-112829742D01*
X133082610Y-112829741D01*
X133088437Y-112831302D01*
X133088439Y-112831303D01*
X133200075Y-112846000D01*
X133399924Y-112845999D01*
X133511561Y-112831303D01*
X133511569Y-112831299D01*
X133517386Y-112829742D01*
X133582610Y-112829741D01*
X133588437Y-112831302D01*
X133588439Y-112831303D01*
X133700075Y-112846000D01*
X133899924Y-112845999D01*
X134011561Y-112831303D01*
X134011569Y-112831299D01*
X134017386Y-112829742D01*
X134082610Y-112829741D01*
X134088437Y-112831302D01*
X134088439Y-112831303D01*
X134200075Y-112846000D01*
X134399924Y-112845999D01*
X134511561Y-112831303D01*
X134511569Y-112831299D01*
X134517386Y-112829742D01*
X134582610Y-112829741D01*
X134588437Y-112831302D01*
X134588439Y-112831303D01*
X134700075Y-112846000D01*
X134899924Y-112845999D01*
X135011561Y-112831303D01*
X135011569Y-112831299D01*
X135017386Y-112829742D01*
X135082610Y-112829741D01*
X135088437Y-112831302D01*
X135088439Y-112831303D01*
X135200075Y-112846000D01*
X135399924Y-112845999D01*
X135511561Y-112831303D01*
X135511569Y-112831299D01*
X135517386Y-112829742D01*
X135582610Y-112829741D01*
X135588437Y-112831302D01*
X135588439Y-112831303D01*
X135700075Y-112846000D01*
X135899924Y-112845999D01*
X136011561Y-112831303D01*
X136011569Y-112831299D01*
X136017386Y-112829742D01*
X136082610Y-112829741D01*
X136088437Y-112831302D01*
X136088439Y-112831303D01*
X136200075Y-112846000D01*
X136399924Y-112845999D01*
X136511561Y-112831303D01*
X136511569Y-112831299D01*
X136517386Y-112829742D01*
X136582610Y-112829741D01*
X136588437Y-112831302D01*
X136588439Y-112831303D01*
X136700075Y-112846000D01*
X136899924Y-112845999D01*
X137011561Y-112831303D01*
X137150464Y-112773767D01*
X137269742Y-112682242D01*
X137361267Y-112562964D01*
X137361268Y-112562960D01*
X137362446Y-112561426D01*
X137419783Y-112519558D01*
X137490654Y-112515336D01*
X137536468Y-112536192D01*
X137543248Y-112541118D01*
X137717712Y-112618794D01*
X137904513Y-112658500D01*
X138095487Y-112658500D01*
X138282288Y-112618794D01*
X138456752Y-112541118D01*
X138611253Y-112428866D01*
X138611255Y-112428864D01*
X138739034Y-112286951D01*
X138739035Y-112286949D01*
X138739040Y-112286944D01*
X138834527Y-112121556D01*
X138893542Y-111939928D01*
X138913504Y-111750000D01*
X138893542Y-111560072D01*
X138834527Y-111378444D01*
X138739040Y-111213056D01*
X138739038Y-111213054D01*
X138739034Y-111213048D01*
X138611255Y-111071135D01*
X138456752Y-110958882D01*
X138282288Y-110881206D01*
X138095487Y-110841500D01*
X137904513Y-110841500D01*
X137717709Y-110881206D01*
X137602590Y-110932460D01*
X137532223Y-110941894D01*
X137467926Y-110911787D01*
X137430113Y-110851698D01*
X137426420Y-110833799D01*
X137423297Y-110810080D01*
X137418803Y-110775939D01*
X137392049Y-110711350D01*
X142441500Y-110711350D01*
X142441500Y-112408649D01*
X142448009Y-112469196D01*
X142448011Y-112469204D01*
X142499110Y-112606202D01*
X142499112Y-112606207D01*
X142586738Y-112723261D01*
X142703792Y-112810887D01*
X142703794Y-112810888D01*
X142703796Y-112810889D01*
X142762875Y-112832924D01*
X142840795Y-112861988D01*
X142840803Y-112861990D01*
X142901350Y-112868499D01*
X142901355Y-112868499D01*
X142901362Y-112868500D01*
X142901368Y-112868500D01*
X144598632Y-112868500D01*
X144598638Y-112868500D01*
X144598645Y-112868499D01*
X144598649Y-112868499D01*
X144659196Y-112861990D01*
X144659199Y-112861989D01*
X144659201Y-112861989D01*
X144796204Y-112810889D01*
X144806019Y-112803542D01*
X144913261Y-112723261D01*
X145000887Y-112606207D01*
X145000887Y-112606206D01*
X145000889Y-112606204D01*
X145051989Y-112469201D01*
X145054641Y-112444539D01*
X145058499Y-112408649D01*
X145058500Y-112408632D01*
X145058500Y-112083217D01*
X145078502Y-112015096D01*
X145132158Y-111968603D01*
X145202432Y-111958499D01*
X145267012Y-111987993D01*
X145298694Y-112029966D01*
X145323526Y-112083217D01*
X145362477Y-112166749D01*
X145446643Y-112286951D01*
X145493802Y-112354300D01*
X145655700Y-112516198D01*
X145843251Y-112647523D01*
X146050757Y-112744284D01*
X146271913Y-112803543D01*
X146500000Y-112823498D01*
X146728087Y-112803543D01*
X146949243Y-112744284D01*
X147156749Y-112647523D01*
X147344300Y-112516198D01*
X147506198Y-112354300D01*
X147637523Y-112166749D01*
X147734284Y-111959243D01*
X147793543Y-111738087D01*
X147813498Y-111510000D01*
X147793543Y-111281913D01*
X147734284Y-111060757D01*
X147637523Y-110853251D01*
X147506198Y-110665700D01*
X147344300Y-110503802D01*
X147270803Y-110452339D01*
X147156749Y-110372477D01*
X146949246Y-110275717D01*
X146949240Y-110275715D01*
X146855771Y-110250670D01*
X146801022Y-110236000D01*
X170813917Y-110236000D01*
X171788314Y-110236000D01*
X171779920Y-110244394D01*
X171727259Y-110335606D01*
X171700000Y-110437339D01*
X171700000Y-110542661D01*
X171727259Y-110644394D01*
X171779920Y-110735606D01*
X171788314Y-110744000D01*
X170813918Y-110744000D01*
X170866186Y-110939068D01*
X170866188Y-110939073D01*
X170962912Y-111146498D01*
X171094184Y-111333974D01*
X171094189Y-111333980D01*
X171256019Y-111495810D01*
X171256025Y-111495815D01*
X171443501Y-111627087D01*
X171650926Y-111723811D01*
X171650931Y-111723813D01*
X171846000Y-111776081D01*
X171846000Y-110801686D01*
X171854394Y-110810080D01*
X171945606Y-110862741D01*
X172047339Y-110890000D01*
X172152661Y-110890000D01*
X172254394Y-110862741D01*
X172345606Y-110810080D01*
X172354000Y-110801686D01*
X172354000Y-111776081D01*
X172549068Y-111723813D01*
X172549073Y-111723811D01*
X172756498Y-111627087D01*
X172943974Y-111495815D01*
X172943980Y-111495810D01*
X173105810Y-111333980D01*
X173105815Y-111333974D01*
X173237087Y-111146498D01*
X173333811Y-110939073D01*
X173333813Y-110939068D01*
X173386082Y-110744000D01*
X172411686Y-110744000D01*
X172420080Y-110735606D01*
X172472741Y-110644394D01*
X172500000Y-110542661D01*
X172500000Y-110437339D01*
X172472741Y-110335606D01*
X172420080Y-110244394D01*
X172411686Y-110236000D01*
X173386082Y-110236000D01*
X174413917Y-110236000D01*
X175388314Y-110236000D01*
X175379920Y-110244394D01*
X175327259Y-110335606D01*
X175300000Y-110437339D01*
X175300000Y-110542661D01*
X175327259Y-110644394D01*
X175379920Y-110735606D01*
X175388314Y-110744000D01*
X174413918Y-110744000D01*
X174466186Y-110939068D01*
X174466188Y-110939073D01*
X174562912Y-111146498D01*
X174694184Y-111333974D01*
X174694189Y-111333980D01*
X174856019Y-111495810D01*
X174856025Y-111495815D01*
X175043501Y-111627087D01*
X175250926Y-111723811D01*
X175250931Y-111723813D01*
X175446000Y-111776081D01*
X175446000Y-110801686D01*
X175454394Y-110810080D01*
X175545606Y-110862741D01*
X175647339Y-110890000D01*
X175752661Y-110890000D01*
X175854394Y-110862741D01*
X175945606Y-110810080D01*
X175954000Y-110801686D01*
X175954000Y-111776081D01*
X176149068Y-111723813D01*
X176149073Y-111723811D01*
X176356498Y-111627087D01*
X176543974Y-111495815D01*
X176543980Y-111495810D01*
X176705810Y-111333980D01*
X176705815Y-111333974D01*
X176837087Y-111146498D01*
X176933811Y-110939073D01*
X176933813Y-110939068D01*
X176986082Y-110744000D01*
X176011686Y-110744000D01*
X176020080Y-110735606D01*
X176072741Y-110644394D01*
X176100000Y-110542661D01*
X176100000Y-110437339D01*
X176072741Y-110335606D01*
X176023894Y-110251000D01*
X177958917Y-110251000D01*
X178933314Y-110251000D01*
X178924920Y-110259394D01*
X178872259Y-110350606D01*
X178845000Y-110452339D01*
X178845000Y-110557661D01*
X178872259Y-110659394D01*
X178924920Y-110750606D01*
X178933314Y-110759000D01*
X177958918Y-110759000D01*
X178011186Y-110954068D01*
X178011188Y-110954073D01*
X178107912Y-111161498D01*
X178239184Y-111348974D01*
X178239189Y-111348980D01*
X178401019Y-111510810D01*
X178401025Y-111510815D01*
X178588501Y-111642087D01*
X178795926Y-111738811D01*
X178795931Y-111738813D01*
X178991000Y-111791081D01*
X178991000Y-110816686D01*
X178999394Y-110825080D01*
X179090606Y-110877741D01*
X179192339Y-110905000D01*
X179297661Y-110905000D01*
X179399394Y-110877741D01*
X179490606Y-110825080D01*
X179499000Y-110816686D01*
X179499000Y-111791081D01*
X179694068Y-111738813D01*
X179694073Y-111738811D01*
X179901498Y-111642087D01*
X180088974Y-111510815D01*
X180088980Y-111510810D01*
X180250810Y-111348980D01*
X180250815Y-111348974D01*
X180382087Y-111161498D01*
X180478811Y-110954073D01*
X180478813Y-110954068D01*
X180531082Y-110759000D01*
X179556686Y-110759000D01*
X179565080Y-110750606D01*
X179617741Y-110659394D01*
X179645000Y-110557661D01*
X179645000Y-110452339D01*
X179617741Y-110350606D01*
X179565080Y-110259394D01*
X179556686Y-110251000D01*
X180531082Y-110251000D01*
X180478813Y-110055931D01*
X180478811Y-110055926D01*
X180382087Y-109848501D01*
X180250815Y-109661025D01*
X180250810Y-109661019D01*
X180088980Y-109499189D01*
X180088974Y-109499184D01*
X179901498Y-109367912D01*
X179694073Y-109271188D01*
X179694071Y-109271187D01*
X179499000Y-109218917D01*
X179499000Y-110193314D01*
X179490606Y-110184920D01*
X179399394Y-110132259D01*
X179297661Y-110105000D01*
X179192339Y-110105000D01*
X179090606Y-110132259D01*
X178999394Y-110184920D01*
X178991000Y-110193314D01*
X178991000Y-109218917D01*
X178990999Y-109218917D01*
X178795928Y-109271187D01*
X178795926Y-109271188D01*
X178588501Y-109367912D01*
X178401025Y-109499184D01*
X178401019Y-109499189D01*
X178239189Y-109661019D01*
X178239184Y-109661025D01*
X178107912Y-109848501D01*
X178011188Y-110055926D01*
X178011186Y-110055931D01*
X177958917Y-110251000D01*
X176023894Y-110251000D01*
X176020080Y-110244394D01*
X176011686Y-110236000D01*
X176986082Y-110236000D01*
X176933813Y-110040931D01*
X176933811Y-110040926D01*
X176837087Y-109833501D01*
X176705815Y-109646025D01*
X176705810Y-109646019D01*
X176569436Y-109509645D01*
X176535410Y-109447333D01*
X176540475Y-109376518D01*
X176583022Y-109319682D01*
X176649542Y-109294871D01*
X176668409Y-109294937D01*
X176900000Y-109313165D01*
X177136711Y-109294535D01*
X177367594Y-109239105D01*
X177586963Y-109148240D01*
X177789416Y-109024176D01*
X177969969Y-108869969D01*
X178124176Y-108689416D01*
X178248240Y-108486963D01*
X178339105Y-108267594D01*
X178394535Y-108036711D01*
X178413165Y-107800000D01*
X179887337Y-107800000D01*
X179905960Y-108036632D01*
X179961371Y-108267437D01*
X180052206Y-108486733D01*
X180166897Y-108673891D01*
X180875016Y-107965771D01*
X180887482Y-108012292D01*
X180959890Y-108137708D01*
X181062292Y-108240110D01*
X181187708Y-108312518D01*
X181234226Y-108324982D01*
X180526107Y-109033101D01*
X180526107Y-109033102D01*
X180713261Y-109147791D01*
X180932562Y-109238628D01*
X181163367Y-109294039D01*
X181400000Y-109312662D01*
X181636632Y-109294039D01*
X181867437Y-109238628D01*
X182086738Y-109147791D01*
X182273891Y-109033102D01*
X182273892Y-109033101D01*
X181565773Y-108324982D01*
X181612292Y-108312518D01*
X181737708Y-108240110D01*
X181840110Y-108137708D01*
X181912518Y-108012292D01*
X181924982Y-107965773D01*
X182633101Y-108673892D01*
X182633102Y-108673891D01*
X182747791Y-108486738D01*
X182838628Y-108267437D01*
X182894039Y-108036632D01*
X182912662Y-107800000D01*
X182894039Y-107563367D01*
X182838628Y-107332562D01*
X182747791Y-107113261D01*
X182633102Y-106926107D01*
X182633101Y-106926107D01*
X181924982Y-107634226D01*
X181912518Y-107587708D01*
X181840110Y-107462292D01*
X181737708Y-107359890D01*
X181612292Y-107287482D01*
X181565772Y-107275017D01*
X182273891Y-106566897D01*
X182086733Y-106452206D01*
X181867437Y-106361371D01*
X181636632Y-106305960D01*
X181400000Y-106287337D01*
X181163367Y-106305960D01*
X180932562Y-106361371D01*
X180713262Y-106452208D01*
X180526107Y-106566896D01*
X180526107Y-106566898D01*
X181234226Y-107275017D01*
X181187708Y-107287482D01*
X181062292Y-107359890D01*
X180959890Y-107462292D01*
X180887482Y-107587708D01*
X180875017Y-107634226D01*
X180166898Y-106926107D01*
X180166896Y-106926107D01*
X180052208Y-107113262D01*
X179961371Y-107332562D01*
X179905960Y-107563367D01*
X179887337Y-107800000D01*
X178413165Y-107800000D01*
X178394535Y-107563289D01*
X178339105Y-107332406D01*
X178248240Y-107113037D01*
X178124176Y-106910584D01*
X178124173Y-106910580D01*
X177969969Y-106730030D01*
X177789419Y-106575826D01*
X177789417Y-106575825D01*
X177789416Y-106575824D01*
X177586963Y-106451760D01*
X177570955Y-106445129D01*
X177367592Y-106360894D01*
X177152268Y-106309200D01*
X177136711Y-106305465D01*
X176900000Y-106286835D01*
X176663289Y-106305465D01*
X176432407Y-106360894D01*
X176213038Y-106451759D01*
X176010582Y-106575825D01*
X176010580Y-106575826D01*
X175830030Y-106730030D01*
X175675826Y-106910580D01*
X175675825Y-106910582D01*
X175551759Y-107113038D01*
X175460894Y-107332407D01*
X175411790Y-107536944D01*
X175405465Y-107563289D01*
X175386835Y-107800000D01*
X175405465Y-108036711D01*
X175416485Y-108082612D01*
X175460894Y-108267592D01*
X175527696Y-108428866D01*
X175551760Y-108486963D01*
X175666310Y-108673891D01*
X175675825Y-108689417D01*
X175675826Y-108689419D01*
X175830027Y-108869966D01*
X175887904Y-108919397D01*
X175952074Y-108974204D01*
X175976344Y-108994932D01*
X176015153Y-109054382D01*
X176015659Y-109125377D01*
X175977703Y-109185376D01*
X175971218Y-109190705D01*
X175954000Y-109203917D01*
X175954000Y-110178314D01*
X175945606Y-110169920D01*
X175854394Y-110117259D01*
X175752661Y-110090000D01*
X175647339Y-110090000D01*
X175545606Y-110117259D01*
X175454394Y-110169920D01*
X175446000Y-110178314D01*
X175446000Y-109203917D01*
X175445999Y-109203917D01*
X175250928Y-109256187D01*
X175250926Y-109256188D01*
X175043501Y-109352912D01*
X174856025Y-109484184D01*
X174856019Y-109484189D01*
X174694189Y-109646019D01*
X174694184Y-109646025D01*
X174562912Y-109833501D01*
X174466188Y-110040926D01*
X174466186Y-110040931D01*
X174413917Y-110236000D01*
X173386082Y-110236000D01*
X173333813Y-110040931D01*
X173333811Y-110040926D01*
X173237087Y-109833501D01*
X173105815Y-109646025D01*
X173105810Y-109646019D01*
X173087712Y-109627921D01*
X173053686Y-109565609D01*
X173058751Y-109494794D01*
X173101298Y-109437958D01*
X173167818Y-109413147D01*
X173230058Y-109424632D01*
X173250757Y-109434284D01*
X173471913Y-109493543D01*
X173700000Y-109513498D01*
X173928087Y-109493543D01*
X174149243Y-109434284D01*
X174356749Y-109337523D01*
X174544300Y-109206198D01*
X174706198Y-109044300D01*
X174837523Y-108856749D01*
X174934284Y-108649243D01*
X174993543Y-108428087D01*
X175013498Y-108200000D01*
X174993543Y-107971913D01*
X174934284Y-107750757D01*
X174837523Y-107543251D01*
X174706198Y-107355700D01*
X174544300Y-107193802D01*
X174538767Y-107189928D01*
X174356749Y-107062477D01*
X174149246Y-106965717D01*
X174149240Y-106965715D01*
X174055771Y-106940670D01*
X173928087Y-106906457D01*
X173700000Y-106886502D01*
X173471913Y-106906457D01*
X173250759Y-106965715D01*
X173250753Y-106965717D01*
X173043250Y-107062477D01*
X172855703Y-107193799D01*
X172855697Y-107193804D01*
X172693804Y-107355697D01*
X172693799Y-107355703D01*
X172562477Y-107543250D01*
X172465717Y-107750753D01*
X172465715Y-107750759D01*
X172406457Y-107971913D01*
X172386502Y-108200000D01*
X172406457Y-108428086D01*
X172465715Y-108649240D01*
X172465717Y-108649246D01*
X172562477Y-108856749D01*
X172693799Y-109044296D01*
X172693804Y-109044302D01*
X172711995Y-109062493D01*
X172746021Y-109124805D01*
X172740956Y-109195620D01*
X172698409Y-109252456D01*
X172631889Y-109277267D01*
X172569651Y-109265783D01*
X172549078Y-109256190D01*
X172549071Y-109256187D01*
X172354000Y-109203917D01*
X172354000Y-110178314D01*
X172345606Y-110169920D01*
X172254394Y-110117259D01*
X172152661Y-110090000D01*
X172047339Y-110090000D01*
X171945606Y-110117259D01*
X171854394Y-110169920D01*
X171846000Y-110178314D01*
X171846000Y-109203917D01*
X171845999Y-109203917D01*
X171650928Y-109256187D01*
X171650926Y-109256188D01*
X171443501Y-109352912D01*
X171256025Y-109484184D01*
X171256019Y-109484189D01*
X171094189Y-109646019D01*
X171094184Y-109646025D01*
X170962912Y-109833501D01*
X170866188Y-110040926D01*
X170866186Y-110040931D01*
X170813917Y-110236000D01*
X146801022Y-110236000D01*
X146728087Y-110216457D01*
X146500000Y-110196502D01*
X146271913Y-110216457D01*
X146050759Y-110275715D01*
X146050753Y-110275717D01*
X145843250Y-110372477D01*
X145655703Y-110503799D01*
X145655697Y-110503804D01*
X145493804Y-110665697D01*
X145493799Y-110665703D01*
X145362477Y-110853250D01*
X145298695Y-110990032D01*
X145251778Y-111043317D01*
X145183500Y-111062778D01*
X145115541Y-111042236D01*
X145069475Y-110988213D01*
X145058500Y-110936782D01*
X145058500Y-110711367D01*
X145058499Y-110711350D01*
X145051990Y-110650803D01*
X145051988Y-110650795D01*
X145022924Y-110572875D01*
X145000889Y-110513796D01*
X145000888Y-110513794D01*
X145000887Y-110513792D01*
X144913261Y-110396738D01*
X144796207Y-110309112D01*
X144796202Y-110309110D01*
X144659204Y-110258011D01*
X144659196Y-110258009D01*
X144598649Y-110251500D01*
X144598638Y-110251500D01*
X142901362Y-110251500D01*
X142901350Y-110251500D01*
X142840803Y-110258009D01*
X142840795Y-110258011D01*
X142703797Y-110309110D01*
X142703792Y-110309112D01*
X142586738Y-110396738D01*
X142499112Y-110513792D01*
X142499110Y-110513797D01*
X142448011Y-110650795D01*
X142448009Y-110650803D01*
X142441500Y-110711350D01*
X137392049Y-110711350D01*
X137361267Y-110637036D01*
X137269742Y-110517758D01*
X137225952Y-110484157D01*
X137184086Y-110426820D01*
X137179864Y-110355949D01*
X137213560Y-110295102D01*
X137432958Y-110075704D01*
X137495268Y-110041680D01*
X137566083Y-110046745D01*
X137622014Y-110088097D01*
X137655614Y-110131885D01*
X137774791Y-110223333D01*
X137913569Y-110280815D01*
X138025103Y-110295499D01*
X138025113Y-110295500D01*
X139449887Y-110295500D01*
X139449896Y-110295499D01*
X139561430Y-110280815D01*
X139700208Y-110223333D01*
X139819385Y-110131885D01*
X139910833Y-110012708D01*
X139968377Y-109873783D01*
X140012925Y-109818501D01*
X140080288Y-109796080D01*
X140084786Y-109796000D01*
X140149893Y-109796000D01*
X140149894Y-109796000D01*
X140272285Y-109771655D01*
X140387575Y-109723900D01*
X140404549Y-109712558D01*
X140453674Y-109679735D01*
X140521426Y-109658520D01*
X140523675Y-109658500D01*
X140595487Y-109658500D01*
X140782288Y-109618794D01*
X140956752Y-109541118D01*
X141111253Y-109428866D01*
X141111255Y-109428864D01*
X141239034Y-109286951D01*
X141239035Y-109286949D01*
X141239040Y-109286944D01*
X141334527Y-109121556D01*
X141393542Y-108939928D01*
X141413504Y-108750000D01*
X141393542Y-108560072D01*
X141334527Y-108378444D01*
X141239040Y-108213056D01*
X141239038Y-108213054D01*
X141239034Y-108213048D01*
X141111255Y-108071135D01*
X141030264Y-108012292D01*
X140981598Y-107976934D01*
X140938246Y-107920714D01*
X140932171Y-107849978D01*
X140965302Y-107787186D01*
X140981594Y-107773068D01*
X141111253Y-107678866D01*
X141113508Y-107676362D01*
X141239034Y-107536951D01*
X141239035Y-107536949D01*
X141239040Y-107536944D01*
X141334527Y-107371556D01*
X141393542Y-107189928D01*
X141413504Y-107000000D01*
X141393542Y-106810072D01*
X141334527Y-106628444D01*
X141239040Y-106463056D01*
X141239038Y-106463054D01*
X141239034Y-106463048D01*
X141111255Y-106321135D01*
X140956752Y-106208882D01*
X140782288Y-106131206D01*
X140595487Y-106091500D01*
X140404513Y-106091500D01*
X140217707Y-106131206D01*
X140159147Y-106157279D01*
X140088780Y-106166713D01*
X140024484Y-106136606D01*
X139986671Y-106076516D01*
X139982978Y-106058617D01*
X139968803Y-105950942D01*
X139968803Y-105950939D01*
X139968800Y-105950933D01*
X139967241Y-105945111D01*
X139967242Y-105879887D01*
X139968800Y-105874067D01*
X139968803Y-105874061D01*
X139983500Y-105762425D01*
X139983500Y-105698206D01*
X149976500Y-105698206D01*
X149976500Y-105901793D01*
X150016217Y-106101461D01*
X150016219Y-106101466D01*
X150094124Y-106289546D01*
X150094126Y-106289550D01*
X150144539Y-106364999D01*
X150165754Y-106432752D01*
X150146971Y-106501218D01*
X150144539Y-106505001D01*
X150094126Y-106580449D01*
X150094124Y-106580453D01*
X150016219Y-106768533D01*
X150016217Y-106768538D01*
X149976500Y-106968206D01*
X149976500Y-107171793D01*
X150016217Y-107371461D01*
X150016220Y-107371470D01*
X150047755Y-107447603D01*
X150055344Y-107518192D01*
X150037083Y-107560150D01*
X150038430Y-107560886D01*
X150034110Y-107568796D01*
X149983011Y-107705795D01*
X149983009Y-107705803D01*
X149976500Y-107766350D01*
X149976500Y-108913649D01*
X149983009Y-108974196D01*
X149983011Y-108974204D01*
X150034110Y-109111202D01*
X150034112Y-109111207D01*
X150121738Y-109228261D01*
X150238792Y-109315887D01*
X150238794Y-109315888D01*
X150238796Y-109315889D01*
X150296796Y-109337522D01*
X150375795Y-109366988D01*
X150375803Y-109366990D01*
X150436350Y-109373499D01*
X150436355Y-109373499D01*
X150436362Y-109373500D01*
X150436368Y-109373500D01*
X152033632Y-109373500D01*
X152033638Y-109373500D01*
X152033645Y-109373499D01*
X152033649Y-109373499D01*
X152094196Y-109366990D01*
X152094199Y-109366989D01*
X152094201Y-109366989D01*
X152231204Y-109315889D01*
X152261114Y-109293499D01*
X152348261Y-109228261D01*
X152435887Y-109111207D01*
X152435887Y-109111206D01*
X152435889Y-109111204D01*
X152486989Y-108974201D01*
X152488188Y-108963056D01*
X152493499Y-108913649D01*
X152493500Y-108913632D01*
X152493500Y-107766367D01*
X152493499Y-107766350D01*
X152486990Y-107705803D01*
X152486988Y-107705795D01*
X152435889Y-107568797D01*
X152435889Y-107568796D01*
X152435886Y-107568793D01*
X152431568Y-107560882D01*
X152433496Y-107559829D01*
X152412974Y-107504809D01*
X152422245Y-107447600D01*
X152431686Y-107424809D01*
X152453744Y-107371556D01*
X152453779Y-107371471D01*
X152453779Y-107371469D01*
X152453783Y-107371461D01*
X152493500Y-107171791D01*
X152493500Y-106968209D01*
X152453783Y-106768539D01*
X152375876Y-106580454D01*
X152325459Y-106505001D01*
X152304245Y-106437249D01*
X152323028Y-106368782D01*
X152325454Y-106365005D01*
X152375876Y-106289546D01*
X152453783Y-106101461D01*
X152493500Y-105901791D01*
X152493500Y-105698209D01*
X152477586Y-105618206D01*
X157941500Y-105618206D01*
X157941500Y-105821793D01*
X157981217Y-106021461D01*
X157981219Y-106021466D01*
X158059124Y-106209546D01*
X158059126Y-106209550D01*
X158109539Y-106284999D01*
X158130754Y-106352752D01*
X158111971Y-106421218D01*
X158109539Y-106425001D01*
X158059126Y-106500449D01*
X158059124Y-106500453D01*
X157981219Y-106688533D01*
X157981217Y-106688538D01*
X157941500Y-106888206D01*
X157941500Y-107091793D01*
X157981217Y-107291461D01*
X157981220Y-107291470D01*
X158012755Y-107367603D01*
X158020344Y-107438192D01*
X158002083Y-107480150D01*
X158003430Y-107480886D01*
X157999110Y-107488796D01*
X157948011Y-107625795D01*
X157948009Y-107625803D01*
X157941500Y-107686350D01*
X157941500Y-108833649D01*
X157948009Y-108894196D01*
X157948011Y-108894204D01*
X157999110Y-109031202D01*
X157999112Y-109031207D01*
X158086738Y-109148261D01*
X158203792Y-109235887D01*
X158203794Y-109235888D01*
X158203796Y-109235889D01*
X158258219Y-109256188D01*
X158340795Y-109286988D01*
X158340803Y-109286990D01*
X158401350Y-109293499D01*
X158401355Y-109293499D01*
X158401362Y-109293500D01*
X158401368Y-109293500D01*
X159998632Y-109293500D01*
X159998638Y-109293500D01*
X159998645Y-109293499D01*
X159998649Y-109293499D01*
X160059196Y-109286990D01*
X160059199Y-109286989D01*
X160059201Y-109286989D01*
X160196204Y-109235889D01*
X160209563Y-109225889D01*
X160313261Y-109148261D01*
X160400887Y-109031207D01*
X160400887Y-109031206D01*
X160400889Y-109031204D01*
X160451989Y-108894201D01*
X160453684Y-108878442D01*
X160458499Y-108833649D01*
X160458500Y-108833632D01*
X160458500Y-107686367D01*
X160458499Y-107686350D01*
X160451990Y-107625803D01*
X160451988Y-107625795D01*
X160411853Y-107518192D01*
X160400889Y-107488796D01*
X160400886Y-107488793D01*
X160396568Y-107480882D01*
X160398496Y-107479829D01*
X160377974Y-107424809D01*
X160387245Y-107367600D01*
X160392176Y-107355697D01*
X160418783Y-107291461D01*
X160458500Y-107091791D01*
X160458500Y-106888209D01*
X160418783Y-106688539D01*
X160340876Y-106500454D01*
X160290459Y-106425001D01*
X160269245Y-106357249D01*
X160288028Y-106288782D01*
X160290454Y-106285005D01*
X160340876Y-106209546D01*
X160418783Y-106021461D01*
X160458500Y-105821791D01*
X160458500Y-105618209D01*
X160456510Y-105608206D01*
X165776500Y-105608206D01*
X165776500Y-105811793D01*
X165816217Y-106011461D01*
X165816219Y-106011466D01*
X165894124Y-106199546D01*
X165894126Y-106199550D01*
X165944539Y-106274999D01*
X165965754Y-106342752D01*
X165946971Y-106411218D01*
X165944539Y-106415001D01*
X165894126Y-106490449D01*
X165894124Y-106490453D01*
X165816219Y-106678533D01*
X165816217Y-106678538D01*
X165776500Y-106878206D01*
X165776500Y-107081793D01*
X165816217Y-107281461D01*
X165816220Y-107281470D01*
X165847755Y-107357603D01*
X165855344Y-107428192D01*
X165837083Y-107470150D01*
X165838430Y-107470886D01*
X165834110Y-107478796D01*
X165783011Y-107615795D01*
X165783009Y-107615803D01*
X165776500Y-107676350D01*
X165776500Y-108823649D01*
X165783009Y-108884196D01*
X165783011Y-108884204D01*
X165834110Y-109021202D01*
X165834112Y-109021207D01*
X165921738Y-109138261D01*
X166038792Y-109225887D01*
X166038794Y-109225888D01*
X166038796Y-109225889D01*
X166097875Y-109247924D01*
X166175795Y-109276988D01*
X166175803Y-109276990D01*
X166236350Y-109283499D01*
X166236355Y-109283499D01*
X166236362Y-109283500D01*
X166236368Y-109283500D01*
X167833632Y-109283500D01*
X167833638Y-109283500D01*
X167833645Y-109283499D01*
X167833649Y-109283499D01*
X167894196Y-109276990D01*
X167894199Y-109276989D01*
X167894201Y-109276989D01*
X168031204Y-109225889D01*
X168040518Y-109218917D01*
X168148261Y-109138261D01*
X168235887Y-109021207D01*
X168235887Y-109021206D01*
X168235889Y-109021204D01*
X168285444Y-108888343D01*
X168286988Y-108884204D01*
X168286990Y-108884196D01*
X168293499Y-108823649D01*
X168293500Y-108823632D01*
X168293500Y-107676367D01*
X168293499Y-107676350D01*
X168286990Y-107615803D01*
X168286988Y-107615795D01*
X168250583Y-107518192D01*
X168235889Y-107478796D01*
X168235886Y-107478793D01*
X168231568Y-107470882D01*
X168233496Y-107469829D01*
X168212974Y-107414809D01*
X168222245Y-107357600D01*
X168253779Y-107281471D01*
X168253779Y-107281469D01*
X168253783Y-107281461D01*
X168293500Y-107081791D01*
X168293500Y-106878209D01*
X168253783Y-106678539D01*
X168175876Y-106490454D01*
X168125459Y-106415001D01*
X168104245Y-106347249D01*
X168123028Y-106278782D01*
X168125454Y-106275005D01*
X168175876Y-106199546D01*
X168253783Y-106011461D01*
X168293500Y-105811791D01*
X168293500Y-105608209D01*
X168253783Y-105408539D01*
X168175876Y-105220454D01*
X168095391Y-105100000D01*
X183836844Y-105100000D01*
X183854414Y-105312036D01*
X183855437Y-105324375D01*
X183910702Y-105542612D01*
X183910703Y-105542613D01*
X183910704Y-105542616D01*
X183978952Y-105698206D01*
X184001141Y-105748793D01*
X184124275Y-105937265D01*
X184124279Y-105937270D01*
X184201784Y-106021461D01*
X184275434Y-106101466D01*
X184276762Y-106102908D01*
X184313119Y-106131206D01*
X184454424Y-106241189D01*
X184487680Y-106259186D01*
X184538071Y-106309200D01*
X184553423Y-106378516D01*
X184528862Y-106445129D01*
X184487680Y-106480813D01*
X184454426Y-106498810D01*
X184454424Y-106498811D01*
X184276762Y-106637091D01*
X184124279Y-106802729D01*
X184124275Y-106802734D01*
X184001141Y-106991206D01*
X183910703Y-107197386D01*
X183910702Y-107197387D01*
X183855437Y-107415624D01*
X183855436Y-107415630D01*
X183855436Y-107415632D01*
X183836844Y-107640000D01*
X183850102Y-107800001D01*
X183855437Y-107864375D01*
X183910702Y-108082612D01*
X183910703Y-108082613D01*
X183910704Y-108082616D01*
X183967920Y-108213056D01*
X184001141Y-108288793D01*
X184124275Y-108477265D01*
X184124279Y-108477270D01*
X184276762Y-108642908D01*
X184292302Y-108655003D01*
X184454424Y-108781189D01*
X184652426Y-108888342D01*
X184652427Y-108888342D01*
X184652428Y-108888343D01*
X184726143Y-108913649D01*
X184865365Y-108961444D01*
X185087431Y-108998500D01*
X185087435Y-108998500D01*
X185312565Y-108998500D01*
X185312569Y-108998500D01*
X185534635Y-108961444D01*
X185747574Y-108888342D01*
X185945576Y-108781189D01*
X186123240Y-108642906D01*
X186275722Y-108477268D01*
X186398860Y-108288791D01*
X186489296Y-108082616D01*
X186544564Y-107864368D01*
X186563156Y-107640000D01*
X186544564Y-107415632D01*
X186489296Y-107197384D01*
X186398860Y-106991209D01*
X186343489Y-106906457D01*
X186275724Y-106802734D01*
X186275720Y-106802729D01*
X186123237Y-106637091D01*
X186033051Y-106566896D01*
X185945576Y-106498811D01*
X185912319Y-106480813D01*
X185861929Y-106430802D01*
X185846576Y-106361485D01*
X185871136Y-106294872D01*
X185912320Y-106259186D01*
X185945576Y-106241189D01*
X186123240Y-106102906D01*
X186275722Y-105937268D01*
X186398860Y-105748791D01*
X186489296Y-105542616D01*
X186544564Y-105324368D01*
X186563156Y-105100000D01*
X186544564Y-104875632D01*
X186524624Y-104796890D01*
X186489297Y-104657387D01*
X186489296Y-104657386D01*
X186489296Y-104657384D01*
X186398860Y-104451209D01*
X186358376Y-104389243D01*
X186275724Y-104262734D01*
X186275719Y-104262729D01*
X186268806Y-104255220D01*
X186132524Y-104107179D01*
X186101103Y-104043514D01*
X186109090Y-103972968D01*
X186153948Y-103917939D01*
X186181183Y-103903789D01*
X186296204Y-103860889D01*
X186301735Y-103856749D01*
X186413261Y-103773261D01*
X186500887Y-103656207D01*
X186500887Y-103656206D01*
X186500889Y-103656204D01*
X186551989Y-103519201D01*
X186555048Y-103490753D01*
X186558499Y-103458649D01*
X186558500Y-103458632D01*
X186558500Y-101661367D01*
X186558499Y-101661350D01*
X186551990Y-101600803D01*
X186551988Y-101600795D01*
X186505254Y-101475499D01*
X186500889Y-101463796D01*
X186500888Y-101463794D01*
X186500887Y-101463792D01*
X186413261Y-101346738D01*
X186296207Y-101259112D01*
X186296202Y-101259110D01*
X186159204Y-101208011D01*
X186159196Y-101208009D01*
X186098649Y-101201500D01*
X186098638Y-101201500D01*
X184301362Y-101201500D01*
X184301350Y-101201500D01*
X184240803Y-101208009D01*
X184240795Y-101208011D01*
X184103797Y-101259110D01*
X184103792Y-101259112D01*
X183986738Y-101346738D01*
X183899112Y-101463792D01*
X183899110Y-101463797D01*
X183848011Y-101600795D01*
X183848009Y-101600803D01*
X183841500Y-101661350D01*
X183841500Y-103458649D01*
X183848009Y-103519196D01*
X183848011Y-103519204D01*
X183899110Y-103656202D01*
X183899112Y-103656207D01*
X183986738Y-103773261D01*
X184103791Y-103860886D01*
X184103792Y-103860886D01*
X184103796Y-103860889D01*
X184218810Y-103903787D01*
X184275642Y-103946332D01*
X184300453Y-104012852D01*
X184285362Y-104082226D01*
X184267475Y-104107179D01*
X184124280Y-104262729D01*
X184124275Y-104262734D01*
X184001141Y-104451206D01*
X183910703Y-104657386D01*
X183910702Y-104657387D01*
X183855437Y-104875624D01*
X183855436Y-104875630D01*
X183855436Y-104875632D01*
X183836844Y-105100000D01*
X168095391Y-105100000D01*
X168062772Y-105051182D01*
X167918818Y-104907228D01*
X167749546Y-104794124D01*
X167742289Y-104791118D01*
X167561466Y-104716219D01*
X167561461Y-104716217D01*
X167361793Y-104676500D01*
X167361791Y-104676500D01*
X166708209Y-104676500D01*
X166708206Y-104676500D01*
X166508538Y-104716217D01*
X166508533Y-104716219D01*
X166320453Y-104794124D01*
X166151186Y-104907225D01*
X166151179Y-104907230D01*
X166007230Y-105051179D01*
X166007225Y-105051186D01*
X165894124Y-105220453D01*
X165816219Y-105408533D01*
X165816217Y-105408538D01*
X165776500Y-105608206D01*
X160456510Y-105608206D01*
X160418783Y-105418539D01*
X160340876Y-105230454D01*
X160227772Y-105061182D01*
X160083818Y-104917228D01*
X159914546Y-104804124D01*
X159726466Y-104726219D01*
X159726461Y-104726217D01*
X159526793Y-104686500D01*
X159526791Y-104686500D01*
X158873209Y-104686500D01*
X158873206Y-104686500D01*
X158673538Y-104726217D01*
X158673533Y-104726219D01*
X158485453Y-104804124D01*
X158316186Y-104917225D01*
X158316179Y-104917230D01*
X158172230Y-105061179D01*
X158172225Y-105061186D01*
X158059124Y-105230453D01*
X157981219Y-105418533D01*
X157981217Y-105418538D01*
X157941500Y-105618206D01*
X152477586Y-105618206D01*
X152453783Y-105498539D01*
X152375876Y-105310454D01*
X152262772Y-105141182D01*
X152118818Y-104997228D01*
X151949546Y-104884124D01*
X151761461Y-104806217D01*
X151750939Y-104804124D01*
X151561793Y-104766500D01*
X151561791Y-104766500D01*
X150908209Y-104766500D01*
X150908206Y-104766500D01*
X150708538Y-104806217D01*
X150708533Y-104806219D01*
X150520453Y-104884124D01*
X150351186Y-104997225D01*
X150351179Y-104997230D01*
X150207230Y-105141179D01*
X150207225Y-105141186D01*
X150094124Y-105310453D01*
X150016219Y-105498533D01*
X150016217Y-105498538D01*
X149976500Y-105698206D01*
X139983500Y-105698206D01*
X139983499Y-105562576D01*
X139968803Y-105450939D01*
X139968801Y-105450935D01*
X139966980Y-105444135D01*
X139966981Y-105378914D01*
X139968315Y-105373933D01*
X139982999Y-105262396D01*
X139983000Y-105262387D01*
X139983000Y-105062613D01*
X139982999Y-105062603D01*
X139967238Y-104942881D01*
X139969550Y-104942576D01*
X139970958Y-104883626D01*
X140010756Y-104824833D01*
X140076023Y-104796890D01*
X140090972Y-104796000D01*
X141649893Y-104796000D01*
X141649894Y-104796000D01*
X141772285Y-104771655D01*
X141887575Y-104723900D01*
X141904549Y-104712558D01*
X141953674Y-104679735D01*
X142021426Y-104658520D01*
X142023675Y-104658500D01*
X142095487Y-104658500D01*
X142282288Y-104618794D01*
X142282288Y-104618793D01*
X142282292Y-104618793D01*
X142408556Y-104562576D01*
X142451440Y-104543482D01*
X142521806Y-104534048D01*
X142586103Y-104564154D01*
X142609161Y-104592353D01*
X142609321Y-104592242D01*
X142610818Y-104594380D01*
X142611809Y-104595592D01*
X142612477Y-104596749D01*
X142728485Y-104762426D01*
X142743802Y-104784300D01*
X142905700Y-104946198D01*
X143093251Y-105077523D01*
X143300757Y-105174284D01*
X143521913Y-105233543D01*
X143750000Y-105253498D01*
X143978087Y-105233543D01*
X144199243Y-105174284D01*
X144406749Y-105077523D01*
X144594300Y-104946198D01*
X144756198Y-104784300D01*
X144887523Y-104596749D01*
X144984284Y-104389243D01*
X145009992Y-104293296D01*
X145046942Y-104232677D01*
X145110802Y-104201655D01*
X145181297Y-104210083D01*
X145236044Y-104255285D01*
X145253404Y-104293298D01*
X145265712Y-104339232D01*
X145265717Y-104339246D01*
X145362477Y-104546749D01*
X145488143Y-104726219D01*
X145493802Y-104734300D01*
X145655700Y-104896198D01*
X145843251Y-105027523D01*
X146050757Y-105124284D01*
X146271913Y-105183543D01*
X146500000Y-105203498D01*
X146728087Y-105183543D01*
X146949243Y-105124284D01*
X147156749Y-105027523D01*
X147344300Y-104896198D01*
X147506198Y-104734300D01*
X147637523Y-104546749D01*
X147734284Y-104339243D01*
X147793543Y-104118087D01*
X147813498Y-103890000D01*
X147793543Y-103661913D01*
X147734284Y-103440757D01*
X147637523Y-103233251D01*
X147614240Y-103200000D01*
X172386502Y-103200000D01*
X172406457Y-103428087D01*
X172423250Y-103490758D01*
X172465715Y-103649240D01*
X172465717Y-103649246D01*
X172562477Y-103856749D01*
X172693251Y-104043514D01*
X172693802Y-104044300D01*
X172855700Y-104206198D01*
X173043251Y-104337523D01*
X173250757Y-104434284D01*
X173471913Y-104493543D01*
X173700000Y-104513498D01*
X173928087Y-104493543D01*
X174149243Y-104434284D01*
X174356749Y-104337523D01*
X174544300Y-104206198D01*
X174706198Y-104044300D01*
X174837523Y-103856749D01*
X174934284Y-103649243D01*
X174993543Y-103428087D01*
X175013498Y-103200000D01*
X174993543Y-102971913D01*
X174934284Y-102750757D01*
X174837523Y-102543251D01*
X174706198Y-102355700D01*
X174544300Y-102193802D01*
X174538767Y-102189928D01*
X174356749Y-102062477D01*
X174149246Y-101965717D01*
X174149240Y-101965715D01*
X174055771Y-101940670D01*
X173928087Y-101906457D01*
X173700000Y-101886502D01*
X173471913Y-101906457D01*
X173250759Y-101965715D01*
X173250753Y-101965717D01*
X173043250Y-102062477D01*
X172855703Y-102193799D01*
X172855697Y-102193804D01*
X172693804Y-102355697D01*
X172693799Y-102355703D01*
X172562477Y-102543250D01*
X172465717Y-102750753D01*
X172465715Y-102750759D01*
X172431115Y-102879888D01*
X172406457Y-102971913D01*
X172386502Y-103200000D01*
X147614240Y-103200000D01*
X147506198Y-103045700D01*
X147344300Y-102883802D01*
X147338710Y-102879888D01*
X147156749Y-102752477D01*
X146949246Y-102655717D01*
X146949240Y-102655715D01*
X146791684Y-102613498D01*
X146728087Y-102596457D01*
X146500000Y-102576502D01*
X146271913Y-102596457D01*
X146050759Y-102655715D01*
X146050753Y-102655717D01*
X145843250Y-102752477D01*
X145655703Y-102883799D01*
X145655697Y-102883804D01*
X145493804Y-103045697D01*
X145493799Y-103045703D01*
X145362477Y-103233250D01*
X145265717Y-103440753D01*
X145265716Y-103440756D01*
X145262988Y-103450939D01*
X145243619Y-103523226D01*
X145240008Y-103536701D01*
X145203056Y-103597323D01*
X145139195Y-103628345D01*
X145068701Y-103619916D01*
X145013954Y-103574713D01*
X144996595Y-103536702D01*
X144984284Y-103490757D01*
X144887523Y-103283251D01*
X144756198Y-103095700D01*
X144594300Y-102933802D01*
X144519185Y-102881206D01*
X144406749Y-102802477D01*
X144199246Y-102705717D01*
X144199240Y-102705715D01*
X144064808Y-102669694D01*
X144004185Y-102632742D01*
X143973164Y-102568881D01*
X143981592Y-102498387D01*
X144026795Y-102443640D01*
X144034427Y-102438863D01*
X144036742Y-102437525D01*
X144036749Y-102437523D01*
X144224300Y-102306198D01*
X144386198Y-102144300D01*
X144517523Y-101956749D01*
X144614284Y-101749243D01*
X144673543Y-101528087D01*
X144693498Y-101300000D01*
X149686502Y-101300000D01*
X149706457Y-101528087D01*
X149725939Y-101600795D01*
X149765715Y-101749240D01*
X149765717Y-101749246D01*
X149862477Y-101956749D01*
X149993795Y-102144291D01*
X149993802Y-102144300D01*
X150155700Y-102306198D01*
X150343251Y-102437523D01*
X150550757Y-102534284D01*
X150771913Y-102593543D01*
X151000000Y-102613498D01*
X151228087Y-102593543D01*
X151449243Y-102534284D01*
X151656749Y-102437523D01*
X151844300Y-102306198D01*
X152006198Y-102144300D01*
X152086787Y-102029206D01*
X152142244Y-101984879D01*
X152212863Y-101977570D01*
X152276224Y-102009601D01*
X152293211Y-102029205D01*
X152330111Y-102081903D01*
X152373795Y-102144291D01*
X152373802Y-102144300D01*
X152535700Y-102306198D01*
X152723251Y-102437523D01*
X152930757Y-102534284D01*
X153151913Y-102593543D01*
X153380000Y-102613498D01*
X153608087Y-102593543D01*
X153829243Y-102534284D01*
X154036749Y-102437523D01*
X154224300Y-102306198D01*
X154386198Y-102144300D01*
X154517523Y-101956749D01*
X154614284Y-101749243D01*
X154673543Y-101528087D01*
X154693498Y-101300000D01*
X159686502Y-101300000D01*
X159706457Y-101528087D01*
X159725939Y-101600795D01*
X159765715Y-101749240D01*
X159765717Y-101749246D01*
X159862477Y-101956749D01*
X159993795Y-102144291D01*
X159993802Y-102144300D01*
X160155700Y-102306198D01*
X160343251Y-102437523D01*
X160550757Y-102534284D01*
X160771913Y-102593543D01*
X161000000Y-102613498D01*
X161228087Y-102593543D01*
X161449243Y-102534284D01*
X161656749Y-102437523D01*
X161844300Y-102306198D01*
X162006198Y-102144300D01*
X162075283Y-102045637D01*
X162130740Y-102001308D01*
X162201359Y-101993999D01*
X162264720Y-102026029D01*
X162281709Y-102045637D01*
X162378795Y-102184291D01*
X162378799Y-102184296D01*
X162378802Y-102184300D01*
X162540700Y-102346198D01*
X162728251Y-102477523D01*
X162935757Y-102574284D01*
X163156913Y-102633543D01*
X163385000Y-102653498D01*
X163613087Y-102633543D01*
X163834243Y-102574284D01*
X164041749Y-102477523D01*
X164229300Y-102346198D01*
X164391198Y-102184300D01*
X164522523Y-101996749D01*
X164619284Y-101789243D01*
X164678543Y-101568087D01*
X164698498Y-101340000D01*
X169691502Y-101340000D01*
X169711457Y-101568087D01*
X169745294Y-101694367D01*
X169770715Y-101789240D01*
X169770717Y-101789246D01*
X169867477Y-101996749D01*
X169998795Y-102184291D01*
X169998802Y-102184300D01*
X170160700Y-102346198D01*
X170348251Y-102477523D01*
X170555757Y-102574284D01*
X170776913Y-102633543D01*
X171005000Y-102653498D01*
X171233087Y-102633543D01*
X171454243Y-102574284D01*
X171661749Y-102477523D01*
X171849300Y-102346198D01*
X172011198Y-102184300D01*
X172142523Y-101996749D01*
X172239284Y-101789243D01*
X172298543Y-101568087D01*
X172318498Y-101340000D01*
X172314998Y-101300000D01*
X175386835Y-101300000D01*
X175405465Y-101536711D01*
X175412998Y-101568087D01*
X175460894Y-101767592D01*
X175540129Y-101958882D01*
X175551760Y-101986963D01*
X175672690Y-102184302D01*
X175675825Y-102189417D01*
X175675826Y-102189419D01*
X175830030Y-102369969D01*
X176010580Y-102524173D01*
X176010584Y-102524176D01*
X176213037Y-102648240D01*
X176432406Y-102739105D01*
X176663289Y-102794535D01*
X176900000Y-102813165D01*
X177136711Y-102794535D01*
X177367594Y-102739105D01*
X177586963Y-102648240D01*
X177789416Y-102524176D01*
X177969969Y-102369969D01*
X178124176Y-102189416D01*
X178248240Y-101986963D01*
X178339105Y-101767594D01*
X178394535Y-101536711D01*
X178413165Y-101300000D01*
X179887337Y-101300000D01*
X179905960Y-101536632D01*
X179961371Y-101767437D01*
X180052206Y-101986733D01*
X180166897Y-102173891D01*
X180875016Y-101465771D01*
X180887482Y-101512292D01*
X180959890Y-101637708D01*
X181062292Y-101740110D01*
X181187708Y-101812518D01*
X181234226Y-101824982D01*
X180526107Y-102533101D01*
X180526107Y-102533102D01*
X180713261Y-102647791D01*
X180932562Y-102738628D01*
X181163367Y-102794039D01*
X181400000Y-102812662D01*
X181636632Y-102794039D01*
X181867437Y-102738628D01*
X182086738Y-102647791D01*
X182273891Y-102533102D01*
X182273892Y-102533101D01*
X181565773Y-101824982D01*
X181612292Y-101812518D01*
X181737708Y-101740110D01*
X181840110Y-101637708D01*
X181912518Y-101512292D01*
X181924982Y-101465773D01*
X182633101Y-102173892D01*
X182633102Y-102173891D01*
X182747791Y-101986738D01*
X182838628Y-101767437D01*
X182894039Y-101536632D01*
X182912662Y-101300000D01*
X182894039Y-101063367D01*
X182838628Y-100832562D01*
X182747791Y-100613261D01*
X182633102Y-100426107D01*
X182633101Y-100426107D01*
X181924982Y-101134226D01*
X181912518Y-101087708D01*
X181840110Y-100962292D01*
X181737708Y-100859890D01*
X181612292Y-100787482D01*
X181565772Y-100775017D01*
X182273891Y-100066897D01*
X182086733Y-99952206D01*
X181867437Y-99861371D01*
X181636632Y-99805960D01*
X181400000Y-99787337D01*
X181163367Y-99805960D01*
X180932562Y-99861371D01*
X180713262Y-99952208D01*
X180526107Y-100066896D01*
X180526107Y-100066898D01*
X181234226Y-100775017D01*
X181187708Y-100787482D01*
X181062292Y-100859890D01*
X180959890Y-100962292D01*
X180887482Y-101087708D01*
X180875017Y-101134226D01*
X180166898Y-100426107D01*
X180166896Y-100426107D01*
X180052208Y-100613262D01*
X179961371Y-100832562D01*
X179905960Y-101063367D01*
X179887337Y-101300000D01*
X178413165Y-101300000D01*
X178394535Y-101063289D01*
X178339105Y-100832406D01*
X178248240Y-100613037D01*
X178124176Y-100410584D01*
X178097131Y-100378918D01*
X177969969Y-100230030D01*
X177789419Y-100075826D01*
X177789417Y-100075825D01*
X177789416Y-100075824D01*
X177586963Y-99951760D01*
X177558396Y-99939927D01*
X177367592Y-99860894D01*
X177209651Y-99822976D01*
X177136711Y-99805465D01*
X176900000Y-99786835D01*
X176663289Y-99805465D01*
X176432407Y-99860894D01*
X176213038Y-99951759D01*
X176010582Y-100075825D01*
X176010580Y-100075826D01*
X175830030Y-100230030D01*
X175675826Y-100410580D01*
X175675825Y-100410582D01*
X175551759Y-100613038D01*
X175460894Y-100832407D01*
X175409976Y-101044499D01*
X175405465Y-101063289D01*
X175386835Y-101300000D01*
X172314998Y-101300000D01*
X172298543Y-101111913D01*
X172239284Y-100890757D01*
X172142523Y-100683251D01*
X172011198Y-100495700D01*
X171849300Y-100333802D01*
X171827649Y-100318642D01*
X171661749Y-100202477D01*
X171454246Y-100105717D01*
X171454240Y-100105715D01*
X171309373Y-100066898D01*
X171233087Y-100046457D01*
X171005000Y-100026502D01*
X170776913Y-100046457D01*
X170555759Y-100105715D01*
X170555753Y-100105717D01*
X170348250Y-100202477D01*
X170160703Y-100333799D01*
X170160697Y-100333804D01*
X169998804Y-100495697D01*
X169998799Y-100495703D01*
X169867477Y-100683250D01*
X169770717Y-100890753D01*
X169770715Y-100890759D01*
X169723970Y-101065215D01*
X169711457Y-101111913D01*
X169691502Y-101340000D01*
X164698498Y-101340000D01*
X164678543Y-101111913D01*
X164619284Y-100890757D01*
X164522523Y-100683251D01*
X164391198Y-100495700D01*
X164229300Y-100333802D01*
X164207649Y-100318642D01*
X164041749Y-100202477D01*
X163834246Y-100105717D01*
X163834240Y-100105715D01*
X163689373Y-100066898D01*
X163613087Y-100046457D01*
X163385000Y-100026502D01*
X163156913Y-100046457D01*
X162935759Y-100105715D01*
X162935753Y-100105717D01*
X162728250Y-100202477D01*
X162540703Y-100333799D01*
X162540697Y-100333804D01*
X162378804Y-100495697D01*
X162378799Y-100495703D01*
X162309717Y-100594362D01*
X162254259Y-100638690D01*
X162183640Y-100645999D01*
X162120280Y-100613968D01*
X162103291Y-100594362D01*
X162006200Y-100455703D01*
X162006195Y-100455697D01*
X161844302Y-100293804D01*
X161844296Y-100293799D01*
X161656749Y-100162477D01*
X161449246Y-100065717D01*
X161449240Y-100065715D01*
X161344298Y-100037596D01*
X161228087Y-100006457D01*
X161000000Y-99986502D01*
X160771913Y-100006457D01*
X160550759Y-100065715D01*
X160550753Y-100065717D01*
X160343250Y-100162477D01*
X160155703Y-100293799D01*
X160155697Y-100293804D01*
X159993804Y-100455697D01*
X159993799Y-100455703D01*
X159862477Y-100643250D01*
X159765717Y-100850753D01*
X159765715Y-100850759D01*
X159739713Y-100947800D01*
X159706457Y-101071913D01*
X159686502Y-101300000D01*
X154693498Y-101300000D01*
X154673543Y-101071913D01*
X154614284Y-100850757D01*
X154517523Y-100643251D01*
X154386198Y-100455700D01*
X154224300Y-100293802D01*
X154133224Y-100230030D01*
X154036749Y-100162477D01*
X153829246Y-100065717D01*
X153829240Y-100065715D01*
X153724298Y-100037596D01*
X153608087Y-100006457D01*
X153380000Y-99986502D01*
X153151913Y-100006457D01*
X152930759Y-100065715D01*
X152930753Y-100065717D01*
X152723250Y-100162477D01*
X152535703Y-100293799D01*
X152535697Y-100293804D01*
X152373804Y-100455697D01*
X152373799Y-100455703D01*
X152293213Y-100570792D01*
X152237756Y-100615120D01*
X152167136Y-100622429D01*
X152103776Y-100590398D01*
X152086787Y-100570792D01*
X152006200Y-100455703D01*
X152006195Y-100455697D01*
X151844302Y-100293804D01*
X151844296Y-100293799D01*
X151656749Y-100162477D01*
X151449246Y-100065717D01*
X151449240Y-100065715D01*
X151344298Y-100037596D01*
X151228087Y-100006457D01*
X151000000Y-99986502D01*
X150771913Y-100006457D01*
X150550759Y-100065715D01*
X150550753Y-100065717D01*
X150343250Y-100162477D01*
X150155703Y-100293799D01*
X150155697Y-100293804D01*
X149993804Y-100455697D01*
X149993799Y-100455703D01*
X149862477Y-100643250D01*
X149765717Y-100850753D01*
X149765715Y-100850759D01*
X149739713Y-100947800D01*
X149706457Y-101071913D01*
X149686502Y-101300000D01*
X144693498Y-101300000D01*
X144673543Y-101071913D01*
X144614284Y-100850757D01*
X144517523Y-100643251D01*
X144386198Y-100455700D01*
X144224300Y-100293802D01*
X144133224Y-100230030D01*
X144036749Y-100162477D01*
X143829246Y-100065717D01*
X143829240Y-100065715D01*
X143724298Y-100037596D01*
X143608087Y-100006457D01*
X143380000Y-99986502D01*
X143151913Y-100006457D01*
X142930759Y-100065715D01*
X142930753Y-100065717D01*
X142723250Y-100162477D01*
X142535703Y-100293799D01*
X142535697Y-100293804D01*
X142373804Y-100455697D01*
X142373799Y-100455703D01*
X142242477Y-100643250D01*
X142145717Y-100850753D01*
X142145715Y-100850759D01*
X142119713Y-100947800D01*
X142086457Y-101071913D01*
X142066502Y-101300000D01*
X142086457Y-101528087D01*
X142105939Y-101600795D01*
X142145715Y-101749240D01*
X142145717Y-101749246D01*
X142242477Y-101956749D01*
X142373795Y-102144291D01*
X142373802Y-102144300D01*
X142535700Y-102306198D01*
X142723251Y-102437523D01*
X142930757Y-102534284D01*
X143065193Y-102570306D01*
X143125814Y-102607257D01*
X143156835Y-102671117D01*
X143148407Y-102741612D01*
X143103204Y-102796359D01*
X143095590Y-102801126D01*
X143093252Y-102802476D01*
X142905703Y-102933799D01*
X142778347Y-103061155D01*
X142716035Y-103095180D01*
X142645219Y-103090114D01*
X142615191Y-103073995D01*
X142456752Y-102958882D01*
X142282288Y-102881206D01*
X142095487Y-102841500D01*
X141904513Y-102841500D01*
X141904512Y-102841500D01*
X141740061Y-102876455D01*
X141669270Y-102871053D01*
X141612637Y-102828236D01*
X141588144Y-102761598D01*
X141603565Y-102692297D01*
X141620223Y-102668902D01*
X141739040Y-102536944D01*
X141834527Y-102371556D01*
X141893542Y-102189928D01*
X141913504Y-102000000D01*
X141893542Y-101810072D01*
X141834527Y-101628444D01*
X141739040Y-101463056D01*
X141739038Y-101463054D01*
X141739034Y-101463048D01*
X141611255Y-101321135D01*
X141456752Y-101208882D01*
X141282288Y-101131206D01*
X141095487Y-101091500D01*
X140904513Y-101091500D01*
X140717711Y-101131206D01*
X140543247Y-101208882D01*
X140388744Y-101321135D01*
X140260965Y-101463048D01*
X140260958Y-101463058D01*
X140259258Y-101466004D01*
X140257828Y-101467366D01*
X140257081Y-101468396D01*
X140256892Y-101468259D01*
X140207874Y-101514995D01*
X140150141Y-101529000D01*
X140091494Y-101529000D01*
X140023373Y-101508998D01*
X139976880Y-101455342D01*
X139966776Y-101385068D01*
X139968389Y-101377202D01*
X139968803Y-101374061D01*
X139983500Y-101262425D01*
X139983499Y-101062576D01*
X139980312Y-101038370D01*
X139973630Y-100987606D01*
X139968803Y-100950939D01*
X139968802Y-100950938D01*
X139967725Y-100942751D01*
X139970074Y-100942441D01*
X139971481Y-100883621D01*
X140011282Y-100824830D01*
X140076550Y-100796889D01*
X140091494Y-100796000D01*
X140649893Y-100796000D01*
X140649894Y-100796000D01*
X140772285Y-100771655D01*
X140887575Y-100723900D01*
X140904549Y-100712558D01*
X140953674Y-100679735D01*
X141021426Y-100658520D01*
X141023675Y-100658500D01*
X141095487Y-100658500D01*
X141282288Y-100618794D01*
X141456752Y-100541118D01*
X141611253Y-100428866D01*
X141655185Y-100380075D01*
X141739034Y-100286951D01*
X141739035Y-100286949D01*
X141739040Y-100286944D01*
X141834527Y-100121556D01*
X141893542Y-99939928D01*
X141913504Y-99750000D01*
X141893542Y-99560072D01*
X141834527Y-99378444D01*
X141739040Y-99213056D01*
X141739038Y-99213054D01*
X141739034Y-99213048D01*
X141611255Y-99071135D01*
X141456752Y-98958882D01*
X141282288Y-98881206D01*
X141095487Y-98841500D01*
X140904513Y-98841500D01*
X140717711Y-98881206D01*
X140543247Y-98958882D01*
X140388744Y-99071135D01*
X140260965Y-99213048D01*
X140260958Y-99213058D01*
X140165476Y-99378438D01*
X140165473Y-99378445D01*
X140144843Y-99441937D01*
X140104769Y-99500542D01*
X140039372Y-99528179D01*
X140025010Y-99529000D01*
X137764854Y-99529000D01*
X137696733Y-99508998D01*
X137675759Y-99492095D01*
X137423451Y-99239787D01*
X137389425Y-99177475D01*
X137394490Y-99106660D01*
X137396137Y-99102473D01*
X137418316Y-99048928D01*
X137432999Y-98937396D01*
X137433000Y-98937387D01*
X137433000Y-97512613D01*
X137432999Y-97512603D01*
X137418316Y-97401071D01*
X137410714Y-97382718D01*
X137403125Y-97312128D01*
X137434905Y-97248641D01*
X137495963Y-97212414D01*
X137527123Y-97208500D01*
X138437606Y-97208500D01*
X139035710Y-97208500D01*
X139103831Y-97228502D01*
X139124806Y-97245405D01*
X139602938Y-97723538D01*
X139633674Y-97773695D01*
X139665473Y-97871556D01*
X139665473Y-97871558D01*
X139760958Y-98036941D01*
X139760965Y-98036951D01*
X139888744Y-98178864D01*
X139888747Y-98178866D01*
X140043248Y-98291118D01*
X140217712Y-98368794D01*
X140404513Y-98408500D01*
X140595487Y-98408500D01*
X140782288Y-98368794D01*
X140956752Y-98291118D01*
X141111253Y-98178866D01*
X141137926Y-98149243D01*
X141239034Y-98036951D01*
X141239035Y-98036949D01*
X141239040Y-98036944D01*
X141334527Y-97871556D01*
X141390269Y-97700000D01*
X142066502Y-97700000D01*
X142082082Y-97878086D01*
X142086457Y-97928086D01*
X142145715Y-98149240D01*
X142145717Y-98149246D01*
X142242477Y-98356749D01*
X142338791Y-98494300D01*
X142373802Y-98544300D01*
X142535700Y-98706198D01*
X142723251Y-98837523D01*
X142930757Y-98934284D01*
X143151913Y-98993543D01*
X143380000Y-99013498D01*
X143608087Y-98993543D01*
X143829243Y-98934284D01*
X144036749Y-98837523D01*
X144224300Y-98706198D01*
X144386198Y-98544300D01*
X144517523Y-98356749D01*
X144614284Y-98149243D01*
X144673543Y-97928087D01*
X144693498Y-97700000D01*
X144673543Y-97471913D01*
X144614284Y-97250757D01*
X144517523Y-97043251D01*
X144386198Y-96855700D01*
X144224300Y-96693802D01*
X144210021Y-96683804D01*
X144036749Y-96562477D01*
X143829246Y-96465717D01*
X143829240Y-96465715D01*
X143704485Y-96432287D01*
X143608087Y-96406457D01*
X143380000Y-96386502D01*
X143151913Y-96406457D01*
X142930759Y-96465715D01*
X142930753Y-96465717D01*
X142723250Y-96562477D01*
X142535703Y-96693799D01*
X142535697Y-96693804D01*
X142373804Y-96855697D01*
X142373799Y-96855703D01*
X142242477Y-97043250D01*
X142145717Y-97250753D01*
X142145715Y-97250759D01*
X142086457Y-97471913D01*
X142066502Y-97700000D01*
X141390269Y-97700000D01*
X141393542Y-97689928D01*
X141413504Y-97500000D01*
X141393542Y-97310072D01*
X141334527Y-97128444D01*
X141239040Y-96963056D01*
X141239038Y-96963054D01*
X141239034Y-96963048D01*
X141111255Y-96821135D01*
X140956752Y-96708882D01*
X140782288Y-96631206D01*
X140595487Y-96591500D01*
X140404513Y-96591500D01*
X140404511Y-96591500D01*
X140354482Y-96602133D01*
X140283691Y-96596730D01*
X140239192Y-96567982D01*
X140126925Y-96455715D01*
X139754138Y-96082929D01*
X139650380Y-96013600D01*
X139568861Y-95979833D01*
X139535093Y-95965846D01*
X139535091Y-95965845D01*
X139535090Y-95965845D01*
X139500069Y-95958878D01*
X139471943Y-95953284D01*
X139409034Y-95920375D01*
X139373903Y-95858680D01*
X139377704Y-95787785D01*
X139419230Y-95730199D01*
X139436557Y-95718891D01*
X139437567Y-95718344D01*
X139437574Y-95718342D01*
X139635576Y-95611189D01*
X139813240Y-95472906D01*
X139965722Y-95307268D01*
X140054518Y-95171354D01*
X140108520Y-95125268D01*
X140178868Y-95115692D01*
X140243225Y-95145669D01*
X140265480Y-95171353D01*
X140298607Y-95222058D01*
X140354275Y-95307265D01*
X140354279Y-95307270D01*
X140506762Y-95472908D01*
X140554855Y-95510340D01*
X140684424Y-95611189D01*
X140882426Y-95718342D01*
X140882427Y-95718342D01*
X140882428Y-95718343D01*
X140925088Y-95732988D01*
X141095365Y-95791444D01*
X141317431Y-95828500D01*
X141317435Y-95828500D01*
X141542565Y-95828500D01*
X141542569Y-95828500D01*
X141764635Y-95791444D01*
X141977574Y-95718342D01*
X142175576Y-95611189D01*
X142353240Y-95472906D01*
X142505722Y-95307268D01*
X142594518Y-95171354D01*
X142648520Y-95125268D01*
X142718868Y-95115692D01*
X142783225Y-95145669D01*
X142805480Y-95171353D01*
X142838607Y-95222058D01*
X142894275Y-95307265D01*
X142894279Y-95307270D01*
X143046762Y-95472908D01*
X143094855Y-95510340D01*
X143224424Y-95611189D01*
X143422426Y-95718342D01*
X143422427Y-95718342D01*
X143422428Y-95718343D01*
X143465088Y-95732988D01*
X143635365Y-95791444D01*
X143857431Y-95828500D01*
X143857435Y-95828500D01*
X144082565Y-95828500D01*
X144082569Y-95828500D01*
X144304635Y-95791444D01*
X144517574Y-95718342D01*
X144715576Y-95611189D01*
X144893240Y-95472906D01*
X145045722Y-95307268D01*
X145134518Y-95171354D01*
X145188520Y-95125268D01*
X145258868Y-95115692D01*
X145323225Y-95145669D01*
X145345480Y-95171353D01*
X145378607Y-95222058D01*
X145434275Y-95307265D01*
X145434279Y-95307270D01*
X145586762Y-95472908D01*
X145634855Y-95510340D01*
X145764424Y-95611189D01*
X145962426Y-95718342D01*
X145962427Y-95718342D01*
X145962428Y-95718343D01*
X146005088Y-95732988D01*
X146175365Y-95791444D01*
X146397431Y-95828500D01*
X146397435Y-95828500D01*
X146622565Y-95828500D01*
X146622569Y-95828500D01*
X146844635Y-95791444D01*
X147057574Y-95718342D01*
X147255576Y-95611189D01*
X147433240Y-95472906D01*
X147585722Y-95307268D01*
X147674518Y-95171354D01*
X147728520Y-95125268D01*
X147798868Y-95115692D01*
X147863225Y-95145669D01*
X147885480Y-95171353D01*
X147918607Y-95222058D01*
X147974275Y-95307265D01*
X147974279Y-95307270D01*
X148126762Y-95472908D01*
X148174855Y-95510340D01*
X148304424Y-95611189D01*
X148502426Y-95718342D01*
X148502427Y-95718342D01*
X148502428Y-95718343D01*
X148545088Y-95732988D01*
X148715365Y-95791444D01*
X148937431Y-95828500D01*
X148937435Y-95828500D01*
X149162565Y-95828500D01*
X149162569Y-95828500D01*
X149384635Y-95791444D01*
X149597574Y-95718342D01*
X149795576Y-95611189D01*
X149973240Y-95472906D01*
X150125722Y-95307268D01*
X150214518Y-95171354D01*
X150268520Y-95125268D01*
X150338868Y-95115692D01*
X150403225Y-95145669D01*
X150425480Y-95171353D01*
X150458607Y-95222058D01*
X150514275Y-95307265D01*
X150514279Y-95307270D01*
X150666762Y-95472908D01*
X150714855Y-95510340D01*
X150844424Y-95611189D01*
X151017192Y-95704686D01*
X151067583Y-95754699D01*
X151082935Y-95824016D01*
X151058374Y-95890629D01*
X151001699Y-95933389D01*
X150957223Y-95941500D01*
X150362603Y-95941500D01*
X150289568Y-95956028D01*
X150240215Y-95965845D01*
X150240213Y-95965845D01*
X150240212Y-95965846D01*
X150124923Y-96013601D01*
X150021171Y-96082926D01*
X150021164Y-96082931D01*
X148549501Y-97554595D01*
X148487189Y-97588621D01*
X148460406Y-97591500D01*
X148404513Y-97591500D01*
X148217711Y-97631206D01*
X148043247Y-97708882D01*
X147888744Y-97821135D01*
X147760965Y-97963048D01*
X147760958Y-97963058D01*
X147665476Y-98128438D01*
X147665473Y-98128445D01*
X147606457Y-98310072D01*
X147586496Y-98500000D01*
X147606457Y-98689927D01*
X147611744Y-98706198D01*
X147665473Y-98871556D01*
X147672820Y-98884282D01*
X147760958Y-99036941D01*
X147760965Y-99036951D01*
X147888744Y-99178864D01*
X147888747Y-99178866D01*
X148043248Y-99291118D01*
X148217712Y-99368794D01*
X148404513Y-99408500D01*
X148595487Y-99408500D01*
X148782288Y-99368794D01*
X148956752Y-99291118D01*
X149111253Y-99178866D01*
X149111255Y-99178864D01*
X149239034Y-99036951D01*
X149239035Y-99036949D01*
X149239040Y-99036944D01*
X149334527Y-98871556D01*
X149393542Y-98689928D01*
X149410907Y-98524703D01*
X149437920Y-98459048D01*
X149447113Y-98448789D01*
X149632416Y-98263486D01*
X149694726Y-98229462D01*
X149765541Y-98234527D01*
X149822377Y-98277074D01*
X149835704Y-98299334D01*
X149862477Y-98356749D01*
X149907212Y-98420637D01*
X149958791Y-98494300D01*
X149993802Y-98544300D01*
X150155700Y-98706198D01*
X150343251Y-98837523D01*
X150550757Y-98934284D01*
X150771913Y-98993543D01*
X151000000Y-99013498D01*
X151228087Y-98993543D01*
X151449243Y-98934284D01*
X151656749Y-98837523D01*
X151844300Y-98706198D01*
X152006198Y-98544300D01*
X152086787Y-98429206D01*
X152142244Y-98384879D01*
X152212863Y-98377570D01*
X152276224Y-98409601D01*
X152293211Y-98429205D01*
X152373802Y-98544300D01*
X152535700Y-98706198D01*
X152723251Y-98837523D01*
X152930757Y-98934284D01*
X153151913Y-98993543D01*
X153380000Y-99013498D01*
X153608087Y-98993543D01*
X153829243Y-98934284D01*
X154036749Y-98837523D01*
X154224300Y-98706198D01*
X154386198Y-98544300D01*
X154517523Y-98356749D01*
X154614284Y-98149243D01*
X154673543Y-97928087D01*
X154693498Y-97700000D01*
X154673543Y-97471913D01*
X154645461Y-97367110D01*
X154647151Y-97296134D01*
X154686945Y-97237339D01*
X154752210Y-97209391D01*
X154767168Y-97208500D01*
X159612832Y-97208500D01*
X159680953Y-97228502D01*
X159727446Y-97282158D01*
X159737550Y-97352432D01*
X159734539Y-97367108D01*
X159706457Y-97471913D01*
X159686502Y-97700000D01*
X159702082Y-97878086D01*
X159706457Y-97928086D01*
X159765715Y-98149240D01*
X159765717Y-98149246D01*
X159862477Y-98356749D01*
X159958791Y-98494300D01*
X159993802Y-98544300D01*
X160155700Y-98706198D01*
X160343251Y-98837523D01*
X160550757Y-98934284D01*
X160771913Y-98993543D01*
X161000000Y-99013498D01*
X161228087Y-98993543D01*
X161449243Y-98934284D01*
X161656749Y-98837523D01*
X161844300Y-98706198D01*
X162006198Y-98544300D01*
X162092788Y-98420636D01*
X162148245Y-98376309D01*
X162218864Y-98369000D01*
X162282225Y-98401031D01*
X162299214Y-98420637D01*
X162350793Y-98494300D01*
X162378802Y-98534300D01*
X162540700Y-98696198D01*
X162728251Y-98827523D01*
X162935757Y-98924284D01*
X163156913Y-98983543D01*
X163385000Y-99003498D01*
X163613087Y-98983543D01*
X163834243Y-98924284D01*
X164041749Y-98827523D01*
X164229300Y-98696198D01*
X164391198Y-98534300D01*
X164522523Y-98346749D01*
X164619284Y-98139243D01*
X164678543Y-97918087D01*
X164698498Y-97690000D01*
X169691502Y-97690000D01*
X169711457Y-97918087D01*
X169723507Y-97963058D01*
X169770715Y-98139240D01*
X169770717Y-98139246D01*
X169867477Y-98346749D01*
X169970793Y-98494300D01*
X169998802Y-98534300D01*
X170160700Y-98696198D01*
X170348251Y-98827523D01*
X170555757Y-98924284D01*
X170776913Y-98983543D01*
X171005000Y-99003498D01*
X171233087Y-98983543D01*
X171454243Y-98924284D01*
X171661749Y-98827523D01*
X171849300Y-98696198D01*
X172011198Y-98534300D01*
X172142523Y-98346749D01*
X172239284Y-98139243D01*
X172298543Y-97918087D01*
X172318498Y-97690000D01*
X172314998Y-97650000D01*
X172926502Y-97650000D01*
X172945885Y-97871554D01*
X172946457Y-97878086D01*
X173005715Y-98099240D01*
X173005717Y-98099246D01*
X173102477Y-98306749D01*
X173152066Y-98377570D01*
X173233802Y-98494300D01*
X173395700Y-98656198D01*
X173583251Y-98787523D01*
X173790757Y-98884284D01*
X174011913Y-98943543D01*
X174240000Y-98963498D01*
X174468087Y-98943543D01*
X174689243Y-98884284D01*
X174896749Y-98787523D01*
X175084300Y-98656198D01*
X175246198Y-98494300D01*
X175377523Y-98306749D01*
X175474284Y-98099243D01*
X175533543Y-97878087D01*
X175553498Y-97650000D01*
X180546502Y-97650000D01*
X180565885Y-97871554D01*
X180566457Y-97878086D01*
X180625715Y-98099240D01*
X180625717Y-98099246D01*
X180722477Y-98306749D01*
X180772066Y-98377570D01*
X180853802Y-98494300D01*
X181015700Y-98656198D01*
X181203251Y-98787523D01*
X181410757Y-98884284D01*
X181631913Y-98943543D01*
X181860000Y-98963498D01*
X182088087Y-98943543D01*
X182309243Y-98884284D01*
X182516749Y-98787523D01*
X182704300Y-98656198D01*
X182866198Y-98494300D01*
X182997523Y-98306749D01*
X183094284Y-98099243D01*
X183153543Y-97878087D01*
X183173498Y-97650000D01*
X183153543Y-97421913D01*
X183094284Y-97200757D01*
X182997523Y-96993251D01*
X182866198Y-96805700D01*
X182704300Y-96643802D01*
X182651344Y-96606722D01*
X182516749Y-96512477D01*
X182309246Y-96415717D01*
X182309240Y-96415715D01*
X182162895Y-96376502D01*
X182088087Y-96356457D01*
X181860000Y-96336502D01*
X181631913Y-96356457D01*
X181410759Y-96415715D01*
X181410753Y-96415717D01*
X181203250Y-96512477D01*
X181015703Y-96643799D01*
X181015697Y-96643804D01*
X180853804Y-96805697D01*
X180853799Y-96805703D01*
X180722477Y-96993250D01*
X180625717Y-97200753D01*
X180625715Y-97200759D01*
X180581141Y-97367111D01*
X180566457Y-97421913D01*
X180546502Y-97650000D01*
X175553498Y-97650000D01*
X175533543Y-97421913D01*
X175474284Y-97200757D01*
X175377523Y-96993251D01*
X175246198Y-96805700D01*
X175084300Y-96643802D01*
X175031344Y-96606722D01*
X174896749Y-96512477D01*
X174689246Y-96415717D01*
X174689240Y-96415715D01*
X174542895Y-96376502D01*
X174468087Y-96356457D01*
X174240000Y-96336502D01*
X174011913Y-96356457D01*
X173790759Y-96415715D01*
X173790753Y-96415717D01*
X173583250Y-96512477D01*
X173395703Y-96643799D01*
X173395697Y-96643804D01*
X173233804Y-96805697D01*
X173233799Y-96805703D01*
X173102477Y-96993250D01*
X173005717Y-97200753D01*
X173005715Y-97200759D01*
X172961141Y-97367111D01*
X172946457Y-97421913D01*
X172926502Y-97650000D01*
X172314998Y-97650000D01*
X172298543Y-97461913D01*
X172239284Y-97240757D01*
X172142523Y-97033251D01*
X172011198Y-96845700D01*
X171849300Y-96683802D01*
X171783325Y-96637606D01*
X171661749Y-96552477D01*
X171454246Y-96455717D01*
X171454240Y-96455715D01*
X171360771Y-96430670D01*
X171233087Y-96396457D01*
X171005000Y-96376502D01*
X170776913Y-96396457D01*
X170555759Y-96455715D01*
X170555753Y-96455717D01*
X170348250Y-96552477D01*
X170160703Y-96683799D01*
X170160697Y-96683804D01*
X169998804Y-96845697D01*
X169998799Y-96845703D01*
X169867477Y-97033250D01*
X169770717Y-97240753D01*
X169770715Y-97240759D01*
X169736859Y-97367111D01*
X169711457Y-97461913D01*
X169691502Y-97690000D01*
X164698498Y-97690000D01*
X164678543Y-97461913D01*
X164619284Y-97240757D01*
X164522523Y-97033251D01*
X164391198Y-96845700D01*
X164229300Y-96683802D01*
X164163325Y-96637606D01*
X164041749Y-96552477D01*
X163834246Y-96455717D01*
X163834240Y-96455715D01*
X163740771Y-96430670D01*
X163613087Y-96396457D01*
X163385000Y-96376502D01*
X163156913Y-96396457D01*
X163156910Y-96396457D01*
X163156907Y-96396458D01*
X163093456Y-96413459D01*
X163022479Y-96411769D01*
X162971751Y-96380847D01*
X162673835Y-96082931D01*
X162673833Y-96082929D01*
X162570075Y-96013600D01*
X162488556Y-95979833D01*
X162454788Y-95965846D01*
X162454786Y-95965845D01*
X162454785Y-95965845D01*
X162419831Y-95958892D01*
X162347988Y-95944601D01*
X162285079Y-95911692D01*
X162249948Y-95849997D01*
X162253749Y-95779102D01*
X162295275Y-95721517D01*
X162312590Y-95710215D01*
X162495576Y-95611189D01*
X162673240Y-95472906D01*
X162825722Y-95307268D01*
X162914518Y-95171354D01*
X162968520Y-95125268D01*
X163038868Y-95115692D01*
X163103225Y-95145669D01*
X163125480Y-95171353D01*
X163158607Y-95222058D01*
X163214275Y-95307265D01*
X163214279Y-95307270D01*
X163366762Y-95472908D01*
X163414855Y-95510340D01*
X163544424Y-95611189D01*
X163742426Y-95718342D01*
X163742427Y-95718342D01*
X163742428Y-95718343D01*
X163785088Y-95732988D01*
X163955365Y-95791444D01*
X164177431Y-95828500D01*
X164177435Y-95828500D01*
X164402565Y-95828500D01*
X164402569Y-95828500D01*
X164624635Y-95791444D01*
X164837574Y-95718342D01*
X165035576Y-95611189D01*
X165213240Y-95472906D01*
X165365722Y-95307268D01*
X165454518Y-95171354D01*
X165508520Y-95125268D01*
X165578868Y-95115692D01*
X165643225Y-95145669D01*
X165665480Y-95171353D01*
X165698607Y-95222058D01*
X165754275Y-95307265D01*
X165754279Y-95307270D01*
X165906762Y-95472908D01*
X165954855Y-95510340D01*
X166084424Y-95611189D01*
X166282426Y-95718342D01*
X166282427Y-95718342D01*
X166282428Y-95718343D01*
X166325088Y-95732988D01*
X166495365Y-95791444D01*
X166717431Y-95828500D01*
X166717435Y-95828500D01*
X166942565Y-95828500D01*
X166942569Y-95828500D01*
X167164635Y-95791444D01*
X167377574Y-95718342D01*
X167575576Y-95611189D01*
X167753240Y-95472906D01*
X167905722Y-95307268D01*
X167994518Y-95171354D01*
X168048520Y-95125268D01*
X168118868Y-95115692D01*
X168183225Y-95145669D01*
X168205480Y-95171353D01*
X168238607Y-95222058D01*
X168294275Y-95307265D01*
X168294279Y-95307270D01*
X168446762Y-95472908D01*
X168494855Y-95510340D01*
X168624424Y-95611189D01*
X168822426Y-95718342D01*
X168822427Y-95718342D01*
X168822428Y-95718343D01*
X168865088Y-95732988D01*
X169035365Y-95791444D01*
X169257431Y-95828500D01*
X169257435Y-95828500D01*
X169482565Y-95828500D01*
X169482569Y-95828500D01*
X169704635Y-95791444D01*
X169917574Y-95718342D01*
X170115576Y-95611189D01*
X170293240Y-95472906D01*
X170445722Y-95307268D01*
X170534518Y-95171354D01*
X170588520Y-95125268D01*
X170658868Y-95115692D01*
X170723225Y-95145669D01*
X170745480Y-95171353D01*
X170778607Y-95222058D01*
X170834275Y-95307265D01*
X170834279Y-95307270D01*
X170986762Y-95472908D01*
X171034855Y-95510340D01*
X171164424Y-95611189D01*
X171362426Y-95718342D01*
X171362427Y-95718342D01*
X171362428Y-95718343D01*
X171405088Y-95732988D01*
X171575365Y-95791444D01*
X171797431Y-95828500D01*
X171797435Y-95828500D01*
X172022565Y-95828500D01*
X172022569Y-95828500D01*
X172244635Y-95791444D01*
X172457574Y-95718342D01*
X172655576Y-95611189D01*
X172833240Y-95472906D01*
X172985722Y-95307268D01*
X173074518Y-95171354D01*
X173128520Y-95125268D01*
X173198868Y-95115692D01*
X173263225Y-95145669D01*
X173285480Y-95171353D01*
X173318607Y-95222058D01*
X173374275Y-95307265D01*
X173374279Y-95307270D01*
X173526762Y-95472908D01*
X173574855Y-95510340D01*
X173704424Y-95611189D01*
X173902426Y-95718342D01*
X173902427Y-95718342D01*
X173902428Y-95718343D01*
X173945088Y-95732988D01*
X174115365Y-95791444D01*
X174337431Y-95828500D01*
X174337435Y-95828500D01*
X174562565Y-95828500D01*
X174562569Y-95828500D01*
X174784635Y-95791444D01*
X174997574Y-95718342D01*
X175195576Y-95611189D01*
X175373240Y-95472906D01*
X175525722Y-95307268D01*
X175614518Y-95171354D01*
X175668520Y-95125268D01*
X175738868Y-95115692D01*
X175803225Y-95145669D01*
X175825480Y-95171353D01*
X175858607Y-95222058D01*
X175914275Y-95307265D01*
X175914279Y-95307270D01*
X176066762Y-95472908D01*
X176114855Y-95510340D01*
X176244424Y-95611189D01*
X176442426Y-95718342D01*
X176442427Y-95718342D01*
X176442428Y-95718343D01*
X176485088Y-95732988D01*
X176655365Y-95791444D01*
X176877431Y-95828500D01*
X176877435Y-95828500D01*
X177102565Y-95828500D01*
X177102569Y-95828500D01*
X177324635Y-95791444D01*
X177537574Y-95718342D01*
X177735576Y-95611189D01*
X177913240Y-95472906D01*
X178065722Y-95307268D01*
X178154518Y-95171354D01*
X178208520Y-95125268D01*
X178278868Y-95115692D01*
X178343225Y-95145669D01*
X178365480Y-95171353D01*
X178398607Y-95222058D01*
X178454275Y-95307265D01*
X178454279Y-95307270D01*
X178606762Y-95472908D01*
X178654855Y-95510340D01*
X178784424Y-95611189D01*
X178982426Y-95718342D01*
X178982427Y-95718342D01*
X178982428Y-95718343D01*
X179025088Y-95732988D01*
X179195365Y-95791444D01*
X179417431Y-95828500D01*
X179417435Y-95828500D01*
X179642565Y-95828500D01*
X179642569Y-95828500D01*
X179864635Y-95791444D01*
X180077574Y-95718342D01*
X180275576Y-95611189D01*
X180453240Y-95472906D01*
X180605722Y-95307268D01*
X180728860Y-95118791D01*
X180819296Y-94912616D01*
X180874564Y-94694368D01*
X180893156Y-94470000D01*
X180874564Y-94245632D01*
X180819296Y-94027384D01*
X180728860Y-93821209D01*
X180711500Y-93794637D01*
X180605724Y-93632734D01*
X180605720Y-93632729D01*
X180453237Y-93467091D01*
X180371382Y-93403381D01*
X180275576Y-93328811D01*
X180242319Y-93310813D01*
X180191929Y-93260802D01*
X180176576Y-93191485D01*
X180201136Y-93124872D01*
X180242320Y-93089186D01*
X180242847Y-93088901D01*
X180275576Y-93071189D01*
X180453240Y-92932906D01*
X180605722Y-92767268D01*
X180605927Y-92766955D01*
X180640453Y-92714108D01*
X180728860Y-92578791D01*
X180819296Y-92372616D01*
X180874564Y-92154368D01*
X180893156Y-91930000D01*
X180874564Y-91705632D01*
X180819338Y-91487550D01*
X180819297Y-91487387D01*
X180819296Y-91487386D01*
X180819296Y-91487384D01*
X180728860Y-91281209D01*
X180711597Y-91254786D01*
X180605724Y-91092734D01*
X180605720Y-91092729D01*
X180489570Y-90966559D01*
X180453240Y-90927094D01*
X180453239Y-90927093D01*
X180453237Y-90927091D01*
X180371382Y-90863381D01*
X180275576Y-90788811D01*
X180077574Y-90681658D01*
X180077572Y-90681657D01*
X180077571Y-90681656D01*
X179864639Y-90608557D01*
X179864630Y-90608555D01*
X179787029Y-90595606D01*
X179642569Y-90571500D01*
X179417431Y-90571500D01*
X179272971Y-90595606D01*
X179195369Y-90608555D01*
X179195360Y-90608557D01*
X178982428Y-90681656D01*
X178982426Y-90681658D01*
X178784426Y-90788810D01*
X178784424Y-90788811D01*
X178606762Y-90927091D01*
X178454279Y-91092729D01*
X178365483Y-91228643D01*
X178311479Y-91274731D01*
X178241131Y-91284306D01*
X178176774Y-91254329D01*
X178154517Y-91228643D01*
X178065926Y-91093044D01*
X178065722Y-91092732D01*
X178065721Y-91092731D01*
X178065720Y-91092729D01*
X177949570Y-90966559D01*
X177913240Y-90927094D01*
X177913239Y-90927093D01*
X177913237Y-90927091D01*
X177831382Y-90863381D01*
X177735576Y-90788811D01*
X177537574Y-90681658D01*
X177537572Y-90681657D01*
X177537571Y-90681656D01*
X177324639Y-90608557D01*
X177324630Y-90608555D01*
X177247029Y-90595606D01*
X177102569Y-90571500D01*
X176877431Y-90571500D01*
X176732971Y-90595606D01*
X176655369Y-90608555D01*
X176655360Y-90608557D01*
X176442428Y-90681656D01*
X176442426Y-90681658D01*
X176244426Y-90788810D01*
X176244424Y-90788811D01*
X176066762Y-90927091D01*
X175914279Y-91092729D01*
X175825483Y-91228643D01*
X175771479Y-91274731D01*
X175701131Y-91284306D01*
X175636774Y-91254329D01*
X175614517Y-91228643D01*
X175525926Y-91093044D01*
X175525722Y-91092732D01*
X175525721Y-91092731D01*
X175525720Y-91092729D01*
X175409570Y-90966559D01*
X175373240Y-90927094D01*
X175373239Y-90927093D01*
X175373237Y-90927091D01*
X175291382Y-90863381D01*
X175195576Y-90788811D01*
X174997574Y-90681658D01*
X174997572Y-90681657D01*
X174997571Y-90681656D01*
X174784639Y-90608557D01*
X174784630Y-90608555D01*
X174707029Y-90595606D01*
X174562569Y-90571500D01*
X174337431Y-90571500D01*
X174192971Y-90595606D01*
X174115369Y-90608555D01*
X174115360Y-90608557D01*
X173902428Y-90681656D01*
X173902426Y-90681658D01*
X173704426Y-90788810D01*
X173704424Y-90788811D01*
X173526762Y-90927091D01*
X173374279Y-91092729D01*
X173285483Y-91228643D01*
X173231479Y-91274731D01*
X173161131Y-91284306D01*
X173096774Y-91254329D01*
X173074517Y-91228643D01*
X172985926Y-91093044D01*
X172985722Y-91092732D01*
X172985721Y-91092731D01*
X172985720Y-91092729D01*
X172869570Y-90966559D01*
X172833240Y-90927094D01*
X172833239Y-90927093D01*
X172833237Y-90927091D01*
X172751382Y-90863381D01*
X172655576Y-90788811D01*
X172457574Y-90681658D01*
X172457572Y-90681657D01*
X172457571Y-90681656D01*
X172244639Y-90608557D01*
X172244630Y-90608555D01*
X172167029Y-90595606D01*
X172022569Y-90571500D01*
X171797431Y-90571500D01*
X171652971Y-90595606D01*
X171575369Y-90608555D01*
X171575360Y-90608557D01*
X171362428Y-90681656D01*
X171362426Y-90681658D01*
X171164426Y-90788810D01*
X171164424Y-90788811D01*
X170986762Y-90927091D01*
X170834279Y-91092729D01*
X170745483Y-91228643D01*
X170691479Y-91274731D01*
X170621131Y-91284306D01*
X170556774Y-91254329D01*
X170534517Y-91228643D01*
X170445926Y-91093044D01*
X170445722Y-91092732D01*
X170445721Y-91092731D01*
X170445720Y-91092729D01*
X170329570Y-90966559D01*
X170293240Y-90927094D01*
X170293239Y-90927093D01*
X170293237Y-90927091D01*
X170211382Y-90863381D01*
X170115576Y-90788811D01*
X169917574Y-90681658D01*
X169917572Y-90681657D01*
X169917571Y-90681656D01*
X169704639Y-90608557D01*
X169704630Y-90608555D01*
X169627029Y-90595606D01*
X169482569Y-90571500D01*
X169257431Y-90571500D01*
X169112971Y-90595606D01*
X169035369Y-90608555D01*
X169035360Y-90608557D01*
X168822428Y-90681656D01*
X168822426Y-90681658D01*
X168624426Y-90788810D01*
X168624424Y-90788811D01*
X168446762Y-90927091D01*
X168294279Y-91092729D01*
X168205483Y-91228643D01*
X168151479Y-91274731D01*
X168081131Y-91284306D01*
X168016774Y-91254329D01*
X167994517Y-91228643D01*
X167905926Y-91093044D01*
X167905722Y-91092732D01*
X167905721Y-91092731D01*
X167905720Y-91092729D01*
X167789570Y-90966559D01*
X167753240Y-90927094D01*
X167753239Y-90927093D01*
X167753237Y-90927091D01*
X167671382Y-90863381D01*
X167575576Y-90788811D01*
X167377574Y-90681658D01*
X167377572Y-90681657D01*
X167377571Y-90681656D01*
X167164639Y-90608557D01*
X167164630Y-90608555D01*
X167087029Y-90595606D01*
X166942569Y-90571500D01*
X166717431Y-90571500D01*
X166572971Y-90595606D01*
X166495369Y-90608555D01*
X166495360Y-90608557D01*
X166282428Y-90681656D01*
X166282426Y-90681658D01*
X166084426Y-90788810D01*
X166084424Y-90788811D01*
X165906762Y-90927091D01*
X165754279Y-91092729D01*
X165665483Y-91228643D01*
X165611479Y-91274731D01*
X165541131Y-91284306D01*
X165476774Y-91254329D01*
X165454517Y-91228643D01*
X165365926Y-91093044D01*
X165365722Y-91092732D01*
X165365721Y-91092731D01*
X165365720Y-91092729D01*
X165249570Y-90966559D01*
X165213240Y-90927094D01*
X165213239Y-90927093D01*
X165213237Y-90927091D01*
X165131382Y-90863381D01*
X165035576Y-90788811D01*
X164837574Y-90681658D01*
X164837572Y-90681657D01*
X164837571Y-90681656D01*
X164624639Y-90608557D01*
X164624630Y-90608555D01*
X164547029Y-90595606D01*
X164402569Y-90571500D01*
X164177431Y-90571500D01*
X164032971Y-90595606D01*
X163955369Y-90608555D01*
X163955360Y-90608557D01*
X163742428Y-90681656D01*
X163742426Y-90681658D01*
X163544426Y-90788810D01*
X163544424Y-90788811D01*
X163366762Y-90927091D01*
X163214279Y-91092729D01*
X163125483Y-91228643D01*
X163071479Y-91274731D01*
X163001131Y-91284306D01*
X162936774Y-91254329D01*
X162914517Y-91228643D01*
X162825926Y-91093044D01*
X162825722Y-91092732D01*
X162825721Y-91092731D01*
X162825720Y-91092729D01*
X162709570Y-90966559D01*
X162673240Y-90927094D01*
X162673239Y-90927093D01*
X162673237Y-90927091D01*
X162591382Y-90863381D01*
X162495576Y-90788811D01*
X162297574Y-90681658D01*
X162297572Y-90681657D01*
X162297571Y-90681656D01*
X162084639Y-90608557D01*
X162084630Y-90608555D01*
X162007029Y-90595606D01*
X161862569Y-90571500D01*
X161637431Y-90571500D01*
X161492971Y-90595606D01*
X161415369Y-90608555D01*
X161415360Y-90608557D01*
X161202428Y-90681656D01*
X161202426Y-90681658D01*
X161004426Y-90788810D01*
X161004424Y-90788811D01*
X160826762Y-90927091D01*
X160674279Y-91092729D01*
X160585483Y-91228643D01*
X160531479Y-91274731D01*
X160461131Y-91284306D01*
X160396774Y-91254329D01*
X160374517Y-91228643D01*
X160285926Y-91093044D01*
X160285722Y-91092732D01*
X160285721Y-91092731D01*
X160285720Y-91092729D01*
X160169570Y-90966559D01*
X160133240Y-90927094D01*
X160133239Y-90927093D01*
X160133237Y-90927091D01*
X160051382Y-90863381D01*
X159955576Y-90788811D01*
X159757574Y-90681658D01*
X159757572Y-90681657D01*
X159757571Y-90681656D01*
X159544639Y-90608557D01*
X159544630Y-90608555D01*
X159467029Y-90595606D01*
X159322569Y-90571500D01*
X159097431Y-90571500D01*
X158952971Y-90595606D01*
X158875369Y-90608555D01*
X158875360Y-90608557D01*
X158662428Y-90681656D01*
X158662426Y-90681658D01*
X158464426Y-90788810D01*
X158464424Y-90788811D01*
X158286762Y-90927091D01*
X158134279Y-91092729D01*
X158045483Y-91228643D01*
X157991479Y-91274731D01*
X157921131Y-91284306D01*
X157856774Y-91254329D01*
X157834517Y-91228643D01*
X157745926Y-91093044D01*
X157745722Y-91092732D01*
X157745721Y-91092731D01*
X157745720Y-91092729D01*
X157629570Y-90966559D01*
X157593240Y-90927094D01*
X157593239Y-90927093D01*
X157593237Y-90927091D01*
X157511382Y-90863381D01*
X157415576Y-90788811D01*
X157217574Y-90681658D01*
X157217572Y-90681657D01*
X157217571Y-90681656D01*
X157004639Y-90608557D01*
X157004630Y-90608555D01*
X156927029Y-90595606D01*
X156782569Y-90571500D01*
X156557431Y-90571500D01*
X156412971Y-90595606D01*
X156335369Y-90608555D01*
X156335360Y-90608557D01*
X156122428Y-90681656D01*
X156122426Y-90681658D01*
X155924426Y-90788810D01*
X155924424Y-90788811D01*
X155746762Y-90927091D01*
X155594279Y-91092729D01*
X155505483Y-91228643D01*
X155451479Y-91274731D01*
X155381131Y-91284306D01*
X155316774Y-91254329D01*
X155294517Y-91228643D01*
X155205926Y-91093044D01*
X155205722Y-91092732D01*
X155205721Y-91092731D01*
X155205720Y-91092729D01*
X155089570Y-90966559D01*
X155053240Y-90927094D01*
X155053239Y-90927093D01*
X155053237Y-90927091D01*
X154971382Y-90863381D01*
X154875576Y-90788811D01*
X154677574Y-90681658D01*
X154677572Y-90681657D01*
X154677571Y-90681656D01*
X154464639Y-90608557D01*
X154464630Y-90608555D01*
X154387029Y-90595606D01*
X154242569Y-90571500D01*
X154017431Y-90571500D01*
X153872971Y-90595606D01*
X153795369Y-90608555D01*
X153795360Y-90608557D01*
X153582428Y-90681656D01*
X153582426Y-90681658D01*
X153384426Y-90788810D01*
X153384424Y-90788811D01*
X153206762Y-90927091D01*
X153054279Y-91092729D01*
X152965483Y-91228643D01*
X152911479Y-91274731D01*
X152841131Y-91284306D01*
X152776774Y-91254329D01*
X152754517Y-91228643D01*
X152665926Y-91093044D01*
X152665722Y-91092732D01*
X152665721Y-91092731D01*
X152665720Y-91092729D01*
X152549570Y-90966559D01*
X152513240Y-90927094D01*
X152513239Y-90927093D01*
X152513237Y-90927091D01*
X152431382Y-90863381D01*
X152335576Y-90788811D01*
X152137574Y-90681658D01*
X152137572Y-90681657D01*
X152137571Y-90681656D01*
X151924639Y-90608557D01*
X151924630Y-90608555D01*
X151847029Y-90595606D01*
X151702569Y-90571500D01*
X151477431Y-90571500D01*
X151332971Y-90595606D01*
X151255369Y-90608555D01*
X151255360Y-90608557D01*
X151042428Y-90681656D01*
X151042426Y-90681658D01*
X150844426Y-90788810D01*
X150844424Y-90788811D01*
X150666762Y-90927091D01*
X150514279Y-91092729D01*
X150425483Y-91228643D01*
X150371479Y-91274731D01*
X150301131Y-91284306D01*
X150236774Y-91254329D01*
X150214517Y-91228643D01*
X150125926Y-91093044D01*
X150125722Y-91092732D01*
X150125721Y-91092731D01*
X150125720Y-91092729D01*
X150009570Y-90966559D01*
X149973240Y-90927094D01*
X149973239Y-90927093D01*
X149973237Y-90927091D01*
X149891382Y-90863381D01*
X149795576Y-90788811D01*
X149597574Y-90681658D01*
X149597572Y-90681657D01*
X149597571Y-90681656D01*
X149384639Y-90608557D01*
X149384630Y-90608555D01*
X149307029Y-90595606D01*
X149162569Y-90571500D01*
X148937431Y-90571500D01*
X148792971Y-90595606D01*
X148715369Y-90608555D01*
X148715360Y-90608557D01*
X148502428Y-90681656D01*
X148502426Y-90681658D01*
X148304426Y-90788810D01*
X148304424Y-90788811D01*
X148126762Y-90927091D01*
X147974279Y-91092729D01*
X147885483Y-91228643D01*
X147831479Y-91274731D01*
X147761131Y-91284306D01*
X147696774Y-91254329D01*
X147674517Y-91228643D01*
X147585926Y-91093044D01*
X147585722Y-91092732D01*
X147585721Y-91092731D01*
X147585720Y-91092729D01*
X147469570Y-90966559D01*
X147433240Y-90927094D01*
X147433239Y-90927093D01*
X147433237Y-90927091D01*
X147351382Y-90863381D01*
X147255576Y-90788811D01*
X147057574Y-90681658D01*
X147057572Y-90681657D01*
X147057571Y-90681656D01*
X146844639Y-90608557D01*
X146844630Y-90608555D01*
X146767029Y-90595606D01*
X146622569Y-90571500D01*
X146397431Y-90571500D01*
X146252971Y-90595606D01*
X146175369Y-90608555D01*
X146175360Y-90608557D01*
X145962428Y-90681656D01*
X145962426Y-90681658D01*
X145764426Y-90788810D01*
X145764424Y-90788811D01*
X145586762Y-90927091D01*
X145434279Y-91092729D01*
X145345483Y-91228643D01*
X145291479Y-91274731D01*
X145221131Y-91284306D01*
X145156774Y-91254329D01*
X145134517Y-91228643D01*
X145045926Y-91093044D01*
X145045722Y-91092732D01*
X145045721Y-91092731D01*
X145045720Y-91092729D01*
X144929570Y-90966559D01*
X144893240Y-90927094D01*
X144893239Y-90927093D01*
X144893237Y-90927091D01*
X144811382Y-90863381D01*
X144715576Y-90788811D01*
X144517574Y-90681658D01*
X144517572Y-90681657D01*
X144517571Y-90681656D01*
X144304639Y-90608557D01*
X144304630Y-90608555D01*
X144227029Y-90595606D01*
X144082569Y-90571500D01*
X143857431Y-90571500D01*
X143712971Y-90595606D01*
X143635369Y-90608555D01*
X143635360Y-90608557D01*
X143422428Y-90681656D01*
X143422426Y-90681658D01*
X143224426Y-90788810D01*
X143224424Y-90788811D01*
X143046762Y-90927091D01*
X142894279Y-91092729D01*
X142805483Y-91228643D01*
X142751479Y-91274731D01*
X142681131Y-91284306D01*
X142616774Y-91254329D01*
X142594517Y-91228643D01*
X142505926Y-91093044D01*
X142505722Y-91092732D01*
X142505721Y-91092731D01*
X142505720Y-91092729D01*
X142389570Y-90966559D01*
X142353240Y-90927094D01*
X142353239Y-90927093D01*
X142353237Y-90927091D01*
X142271382Y-90863381D01*
X142175576Y-90788811D01*
X141977574Y-90681658D01*
X141977572Y-90681657D01*
X141977571Y-90681656D01*
X141764639Y-90608557D01*
X141764630Y-90608555D01*
X141687029Y-90595606D01*
X141542569Y-90571500D01*
X141317431Y-90571500D01*
X141172971Y-90595606D01*
X141095369Y-90608555D01*
X141095360Y-90608557D01*
X140882428Y-90681656D01*
X140882426Y-90681658D01*
X140684426Y-90788810D01*
X140684424Y-90788811D01*
X140506762Y-90927091D01*
X140354279Y-91092729D01*
X140265483Y-91228643D01*
X140211479Y-91274731D01*
X140141131Y-91284306D01*
X140076774Y-91254329D01*
X140054517Y-91228643D01*
X139965926Y-91093044D01*
X139965722Y-91092732D01*
X139965721Y-91092731D01*
X139965720Y-91092729D01*
X139849570Y-90966559D01*
X139813240Y-90927094D01*
X139813239Y-90927093D01*
X139813237Y-90927091D01*
X139731382Y-90863381D01*
X139635576Y-90788811D01*
X139437574Y-90681658D01*
X139437572Y-90681657D01*
X139437571Y-90681656D01*
X139224639Y-90608557D01*
X139224630Y-90608555D01*
X139147029Y-90595606D01*
X139002569Y-90571500D01*
X138777431Y-90571500D01*
X138632971Y-90595606D01*
X138555369Y-90608555D01*
X138555360Y-90608557D01*
X138342428Y-90681656D01*
X138342426Y-90681658D01*
X138144426Y-90788810D01*
X138144424Y-90788811D01*
X137966762Y-90927091D01*
X137814279Y-91092729D01*
X137725483Y-91228643D01*
X137671479Y-91274731D01*
X137601131Y-91284306D01*
X137536774Y-91254329D01*
X137514517Y-91228643D01*
X137425926Y-91093044D01*
X137425722Y-91092732D01*
X137425721Y-91092731D01*
X137425720Y-91092729D01*
X137309570Y-90966559D01*
X137273240Y-90927094D01*
X137273239Y-90927093D01*
X137273237Y-90927091D01*
X137191382Y-90863381D01*
X137095576Y-90788811D01*
X136897574Y-90681658D01*
X136897572Y-90681657D01*
X136897571Y-90681656D01*
X136684639Y-90608557D01*
X136684630Y-90608555D01*
X136607029Y-90595606D01*
X136462569Y-90571500D01*
X136237431Y-90571500D01*
X136092971Y-90595606D01*
X136015369Y-90608555D01*
X136015360Y-90608557D01*
X135802428Y-90681656D01*
X135802426Y-90681658D01*
X135604426Y-90788810D01*
X135604424Y-90788811D01*
X135426762Y-90927091D01*
X135274279Y-91092729D01*
X135185183Y-91229101D01*
X135131179Y-91275189D01*
X135060831Y-91284764D01*
X134996474Y-91254786D01*
X134974217Y-91229100D01*
X134885327Y-91093044D01*
X134732902Y-90927465D01*
X134555301Y-90789232D01*
X134555300Y-90789231D01*
X134357371Y-90682117D01*
X134357369Y-90682116D01*
X134144512Y-90609043D01*
X134144501Y-90609040D01*
X134064000Y-90595606D01*
X134064000Y-91499297D01*
X134002993Y-91464075D01*
X133875826Y-91430000D01*
X133744174Y-91430000D01*
X133617007Y-91464075D01*
X133556000Y-91499297D01*
X133556000Y-90595607D01*
X133555999Y-90595606D01*
X133475498Y-90609040D01*
X133475487Y-90609043D01*
X133262630Y-90682116D01*
X133262628Y-90682117D01*
X133064699Y-90789231D01*
X133064698Y-90789232D01*
X132887097Y-90927465D01*
X132734674Y-91093042D01*
X132645483Y-91229559D01*
X132591479Y-91275647D01*
X132521131Y-91285222D01*
X132456774Y-91255244D01*
X132434517Y-91229559D01*
X132345325Y-91093042D01*
X132192902Y-90927465D01*
X132015301Y-90789232D01*
X132015300Y-90789231D01*
X131817371Y-90682117D01*
X131817369Y-90682116D01*
X131604512Y-90609043D01*
X131604501Y-90609040D01*
X131524000Y-90595606D01*
X131524000Y-91499297D01*
X131462993Y-91464075D01*
X131335826Y-91430000D01*
X131204174Y-91430000D01*
X131077007Y-91464075D01*
X131016000Y-91499297D01*
X131016000Y-90595607D01*
X131015999Y-90595606D01*
X130935498Y-90609040D01*
X130935487Y-90609043D01*
X130722630Y-90682116D01*
X130722628Y-90682117D01*
X130524699Y-90789231D01*
X130524698Y-90789232D01*
X130347097Y-90927465D01*
X130194674Y-91093041D01*
X130071580Y-91281451D01*
X129981179Y-91487543D01*
X129981176Y-91487550D01*
X129933455Y-91675999D01*
X129933456Y-91676000D01*
X130839297Y-91676000D01*
X130804075Y-91737007D01*
X130770000Y-91864174D01*
X130770000Y-91995826D01*
X130804075Y-92122993D01*
X130839297Y-92184000D01*
X129933455Y-92184000D01*
X129981176Y-92372449D01*
X129981179Y-92372456D01*
X130071580Y-92578548D01*
X130194674Y-92766958D01*
X130337981Y-92922632D01*
X130369401Y-92986297D01*
X130361414Y-93056843D01*
X130316555Y-93111872D01*
X130289313Y-93126024D01*
X130173795Y-93169111D01*
X130173792Y-93169112D01*
X130056738Y-93256738D01*
X129969112Y-93373792D01*
X129969110Y-93373797D01*
X129918011Y-93510795D01*
X129918009Y-93510803D01*
X129911500Y-93571350D01*
X129911500Y-94640406D01*
X129891498Y-94708527D01*
X129874595Y-94729501D01*
X128307931Y-96296164D01*
X128307926Y-96296171D01*
X128238601Y-96399923D01*
X128190846Y-96515212D01*
X128166500Y-96637603D01*
X128166500Y-96871006D01*
X128146498Y-96939127D01*
X128092842Y-96985620D01*
X128022568Y-96995724D01*
X128014702Y-96994110D01*
X127950209Y-96985620D01*
X127899925Y-96979000D01*
X127899921Y-96979000D01*
X127700076Y-96979000D01*
X127700067Y-96979001D01*
X127588437Y-96993697D01*
X127582609Y-96995259D01*
X127517389Y-96995259D01*
X127511558Y-96993696D01*
X127450209Y-96985620D01*
X127399925Y-96979000D01*
X127399921Y-96979000D01*
X127200076Y-96979000D01*
X127200067Y-96979001D01*
X127103092Y-96991768D01*
X127088439Y-96993697D01*
X126949537Y-97051232D01*
X126949534Y-97051234D01*
X126830258Y-97142758D01*
X126738734Y-97262034D01*
X126738733Y-97262036D01*
X126724609Y-97296134D01*
X126681196Y-97400940D01*
X126666500Y-97512572D01*
X126666500Y-98936503D01*
X126646498Y-99004624D01*
X126592842Y-99051117D01*
X126591749Y-99051610D01*
X126449367Y-99115002D01*
X126294864Y-99227255D01*
X126167080Y-99369174D01*
X126144376Y-99408500D01*
X126110889Y-99466500D01*
X126059508Y-99515493D01*
X126001771Y-99529500D01*
X124650103Y-99529500D01*
X124538569Y-99544184D01*
X124399791Y-99601666D01*
X124280614Y-99693114D01*
X124189166Y-99812291D01*
X124131684Y-99951069D01*
X124117000Y-100062603D01*
X124117000Y-100262396D01*
X124131684Y-100373932D01*
X124133020Y-100378918D01*
X124133022Y-100444121D01*
X124131198Y-100450929D01*
X124116500Y-100562573D01*
X124116500Y-100762423D01*
X124116501Y-100762432D01*
X124131196Y-100874057D01*
X124132759Y-100879888D01*
X124132759Y-100945108D01*
X124131197Y-100950936D01*
X124116500Y-101062573D01*
X124116500Y-101262423D01*
X124116501Y-101262432D01*
X124131196Y-101374057D01*
X124132759Y-101379888D01*
X124132759Y-101445108D01*
X124131197Y-101450936D01*
X124116500Y-101562573D01*
X124116500Y-101762423D01*
X124116501Y-101762432D01*
X124131196Y-101874057D01*
X124132759Y-101879888D01*
X124132759Y-101945108D01*
X124131197Y-101950936D01*
X124116500Y-102062573D01*
X124116500Y-102262423D01*
X124116501Y-102262432D01*
X124131196Y-102374057D01*
X124132759Y-102379888D01*
X124132759Y-102445108D01*
X124131197Y-102450936D01*
X124116500Y-102562573D01*
X124116500Y-102762423D01*
X124116501Y-102762432D01*
X124131196Y-102874057D01*
X124132759Y-102879888D01*
X124132759Y-102945108D01*
X124131197Y-102950936D01*
X124116500Y-103062573D01*
X124116500Y-103262423D01*
X124116501Y-103262432D01*
X124131196Y-103374057D01*
X124132759Y-103379888D01*
X124132759Y-103445108D01*
X124131197Y-103450936D01*
X124116500Y-103562572D01*
X124116500Y-103673164D01*
X124096498Y-103741285D01*
X124079595Y-103762259D01*
X123615595Y-104226259D01*
X123553283Y-104260285D01*
X123482468Y-104255220D01*
X123425632Y-104212673D01*
X123400821Y-104146153D01*
X123400500Y-104137164D01*
X123400500Y-94669439D01*
X123420502Y-94601318D01*
X123474158Y-94554825D01*
X123544432Y-94544721D01*
X123609012Y-94574215D01*
X123640022Y-94614770D01*
X123682091Y-94702128D01*
X123682096Y-94702137D01*
X123867372Y-94997000D01*
X123867375Y-94997004D01*
X124084489Y-95269259D01*
X124330740Y-95515510D01*
X124602995Y-95732624D01*
X124603003Y-95732630D01*
X124755579Y-95828500D01*
X124887977Y-95911692D01*
X124897867Y-95917906D01*
X125211621Y-96069002D01*
X125211637Y-96069007D01*
X125211638Y-96069008D01*
X125540312Y-96184016D01*
X125540315Y-96184016D01*
X125540319Y-96184018D01*
X125879829Y-96261509D01*
X126125210Y-96289157D01*
X126225878Y-96300500D01*
X126225880Y-96300500D01*
X126574122Y-96300500D01*
X126662006Y-96290597D01*
X126920171Y-96261509D01*
X127259681Y-96184018D01*
X127588379Y-96069002D01*
X127902133Y-95917906D01*
X128196997Y-95732630D01*
X128349281Y-95611188D01*
X128469259Y-95515510D01*
X128715510Y-95269259D01*
X128932624Y-94997004D01*
X128932630Y-94996997D01*
X129117906Y-94702133D01*
X129269002Y-94388379D01*
X129384018Y-94059681D01*
X129461509Y-93720171D01*
X129500500Y-93374120D01*
X129500500Y-93025880D01*
X129461509Y-92679829D01*
X129384018Y-92340319D01*
X129357925Y-92265750D01*
X129269008Y-92011638D01*
X129269007Y-92011637D01*
X129269002Y-92011621D01*
X129117906Y-91697867D01*
X128932630Y-91403003D01*
X128898434Y-91360122D01*
X128715510Y-91130740D01*
X128469259Y-90884489D01*
X128197004Y-90667375D01*
X128197000Y-90667372D01*
X127951617Y-90513187D01*
X127904579Y-90460008D01*
X127893759Y-90389841D01*
X127922592Y-90324963D01*
X127981924Y-90285972D01*
X128018653Y-90280500D01*
X182781347Y-90280500D01*
X182849468Y-90300502D01*
G37*
G04 #@! TD.AperFunction*
G04 #@! TA.AperFunction,Conductor*
G36*
X124535300Y-110280889D02*
G01*
X124538436Y-110281301D01*
X124538439Y-110281303D01*
X124650075Y-110296000D01*
X125289942Y-110295999D01*
X125289956Y-110296000D01*
X125300106Y-110296000D01*
X126527430Y-110296000D01*
X126578678Y-110306893D01*
X126717712Y-110368794D01*
X126717710Y-110368794D01*
X126717955Y-110368846D01*
X126718082Y-110368914D01*
X126723992Y-110370835D01*
X126723640Y-110371915D01*
X126780429Y-110402572D01*
X126814752Y-110464721D01*
X126810026Y-110535560D01*
X126791724Y-110568797D01*
X126739166Y-110637291D01*
X126681684Y-110776069D01*
X126667000Y-110887603D01*
X126667000Y-112215500D01*
X126646998Y-112283621D01*
X126593342Y-112330114D01*
X126541000Y-112341500D01*
X124539595Y-112341500D01*
X124471474Y-112321498D01*
X124450500Y-112304595D01*
X124420405Y-112274500D01*
X124386379Y-112212188D01*
X124383500Y-112185405D01*
X124383500Y-110403993D01*
X124403502Y-110335872D01*
X124457158Y-110289379D01*
X124527432Y-110279275D01*
X124535300Y-110280889D01*
G37*
G04 #@! TD.AperFunction*
G04 #@! TA.AperFunction,Conductor*
G36*
X135786121Y-106816002D02*
G01*
X135832614Y-106869658D01*
X135843309Y-106935169D01*
X135840099Y-106965716D01*
X135836496Y-107000001D01*
X135836496Y-107003924D01*
X135835853Y-107006110D01*
X135835806Y-107006567D01*
X135835722Y-107006558D01*
X135816494Y-107072045D01*
X135762838Y-107118538D01*
X135736695Y-107127170D01*
X135717714Y-107131204D01*
X135543247Y-107208882D01*
X135388744Y-107321135D01*
X135260965Y-107463048D01*
X135260958Y-107463058D01*
X135165476Y-107628438D01*
X135165473Y-107628445D01*
X135106457Y-107810072D01*
X135086496Y-108000000D01*
X135106457Y-108189927D01*
X135113973Y-108213058D01*
X135165473Y-108371556D01*
X135165476Y-108371561D01*
X135260958Y-108536942D01*
X135260959Y-108536944D01*
X135264333Y-108540691D01*
X135295050Y-108604699D01*
X135286285Y-108675152D01*
X135264333Y-108709309D01*
X135260959Y-108713055D01*
X135260958Y-108713057D01*
X135170366Y-108869969D01*
X135165473Y-108878444D01*
X135162257Y-108888342D01*
X135115104Y-109033460D01*
X135075029Y-109092065D01*
X135009632Y-109119701D01*
X134969074Y-109117769D01*
X134845487Y-109091500D01*
X134654513Y-109091500D01*
X134654511Y-109091500D01*
X134494909Y-109125424D01*
X134424119Y-109120022D01*
X134375078Y-109086488D01*
X134361253Y-109071134D01*
X134361252Y-109071133D01*
X134361250Y-109071131D01*
X134206752Y-108958882D01*
X134032288Y-108881206D01*
X133845487Y-108841500D01*
X133654513Y-108841500D01*
X133467709Y-108881206D01*
X133335499Y-108940070D01*
X133265132Y-108949504D01*
X133200835Y-108919397D01*
X133190615Y-108909274D01*
X133111253Y-108821134D01*
X132956752Y-108708882D01*
X132782288Y-108631206D01*
X132595487Y-108591500D01*
X132404513Y-108591500D01*
X132217711Y-108631206D01*
X132043247Y-108708882D01*
X131888744Y-108821135D01*
X131760965Y-108963048D01*
X131760958Y-108963058D01*
X131665476Y-109128438D01*
X131665473Y-109128445D01*
X131606457Y-109310072D01*
X131586496Y-109499999D01*
X131601619Y-109643889D01*
X131588847Y-109713727D01*
X131572074Y-109731656D01*
X131595798Y-109739615D01*
X131640214Y-109795002D01*
X131643524Y-109804006D01*
X131660333Y-109855738D01*
X131666500Y-109894675D01*
X131666500Y-110246006D01*
X131646498Y-110314127D01*
X131592842Y-110360620D01*
X131522568Y-110370724D01*
X131514701Y-110369110D01*
X131492883Y-110366238D01*
X131427955Y-110337516D01*
X131388864Y-110278250D01*
X131388019Y-110207259D01*
X131389497Y-110202376D01*
X131390328Y-110199818D01*
X131393542Y-110189928D01*
X131413504Y-110000000D01*
X131398381Y-109856112D01*
X131411153Y-109786275D01*
X131427926Y-109768345D01*
X131404202Y-109760386D01*
X131359786Y-109704999D01*
X131356476Y-109695996D01*
X131334527Y-109628444D01*
X131239040Y-109463056D01*
X131239038Y-109463054D01*
X131239034Y-109463048D01*
X131111255Y-109321135D01*
X130956752Y-109208882D01*
X130782288Y-109131206D01*
X130595487Y-109091500D01*
X130404513Y-109091500D01*
X130217711Y-109131206D01*
X130043247Y-109208882D01*
X129888744Y-109321135D01*
X129760965Y-109463048D01*
X129760958Y-109463058D01*
X129665476Y-109628438D01*
X129665473Y-109628444D01*
X129659761Y-109646025D01*
X129606457Y-109810072D01*
X129586496Y-110000000D01*
X129606457Y-110189926D01*
X129609671Y-110199818D01*
X129611695Y-110270786D01*
X129575031Y-110331582D01*
X129511317Y-110362905D01*
X129473391Y-110363671D01*
X129399925Y-110354000D01*
X129399921Y-110354000D01*
X129200076Y-110354000D01*
X129200067Y-110354001D01*
X129088437Y-110368697D01*
X129082609Y-110370259D01*
X129017389Y-110370259D01*
X129011558Y-110368696D01*
X128950209Y-110360620D01*
X128899925Y-110354000D01*
X128899921Y-110354000D01*
X128700076Y-110354000D01*
X128700067Y-110354001D01*
X128588437Y-110368697D01*
X128582609Y-110370259D01*
X128517389Y-110370259D01*
X128511558Y-110368696D01*
X128450209Y-110360620D01*
X128399925Y-110354000D01*
X128399921Y-110354000D01*
X128200076Y-110354000D01*
X128200067Y-110354001D01*
X128088437Y-110368697D01*
X128082609Y-110370259D01*
X128017389Y-110370259D01*
X128011558Y-110368696D01*
X127899926Y-110354000D01*
X127736561Y-110354000D01*
X127668440Y-110333998D01*
X127621947Y-110280342D01*
X127611843Y-110210068D01*
X127641337Y-110145488D01*
X127642851Y-110143772D01*
X127739040Y-110036944D01*
X127834527Y-109871556D01*
X127893542Y-109689928D01*
X127913504Y-109500000D01*
X127893542Y-109310072D01*
X127834527Y-109128444D01*
X127739040Y-108963056D01*
X127739038Y-108963054D01*
X127739034Y-108963048D01*
X127631838Y-108843995D01*
X127601120Y-108779988D01*
X127609885Y-108709534D01*
X127655348Y-108655003D01*
X127699276Y-108636438D01*
X127782288Y-108618794D01*
X127956752Y-108541118D01*
X128111253Y-108428866D01*
X128111255Y-108428864D01*
X128239034Y-108286951D01*
X128239035Y-108286949D01*
X128239040Y-108286944D01*
X128334527Y-108121556D01*
X128393542Y-107939928D01*
X128413504Y-107750000D01*
X128393542Y-107560072D01*
X128334527Y-107378444D01*
X128239040Y-107213056D01*
X128239038Y-107213054D01*
X128239034Y-107213048D01*
X128111255Y-107071135D01*
X128046291Y-107023936D01*
X128002937Y-106967714D01*
X127996862Y-106896977D01*
X128029994Y-106834186D01*
X128091814Y-106799274D01*
X128120352Y-106796000D01*
X135718000Y-106796000D01*
X135786121Y-106816002D01*
G37*
G04 #@! TD.AperFunction*
G04 #@! TA.AperFunction,Conductor*
G36*
X130585298Y-99455889D02*
G01*
X130588437Y-99456302D01*
X130588439Y-99456303D01*
X130700075Y-99471000D01*
X130899924Y-99470999D01*
X131011561Y-99456303D01*
X131011569Y-99456299D01*
X131017386Y-99454742D01*
X131082610Y-99454741D01*
X131088437Y-99456302D01*
X131088439Y-99456303D01*
X131200075Y-99471000D01*
X131399924Y-99470999D01*
X131511561Y-99456303D01*
X131511569Y-99456299D01*
X131517386Y-99454742D01*
X131582610Y-99454741D01*
X131588437Y-99456302D01*
X131588439Y-99456303D01*
X131700075Y-99471000D01*
X131899924Y-99470999D01*
X132011561Y-99456303D01*
X132011569Y-99456299D01*
X132017386Y-99454742D01*
X132082610Y-99454741D01*
X132088437Y-99456302D01*
X132088439Y-99456303D01*
X132200075Y-99471000D01*
X132399924Y-99470999D01*
X132511561Y-99456303D01*
X132511569Y-99456299D01*
X132517386Y-99454742D01*
X132582610Y-99454741D01*
X132588437Y-99456302D01*
X132588439Y-99456303D01*
X132700075Y-99471000D01*
X132899924Y-99470999D01*
X133011561Y-99456303D01*
X133011569Y-99456299D01*
X133017386Y-99454742D01*
X133082610Y-99454741D01*
X133088437Y-99456302D01*
X133088439Y-99456303D01*
X133200075Y-99471000D01*
X133399924Y-99470999D01*
X133511561Y-99456303D01*
X133511569Y-99456299D01*
X133517386Y-99454742D01*
X133582610Y-99454741D01*
X133588437Y-99456302D01*
X133588439Y-99456303D01*
X133700075Y-99471000D01*
X133899924Y-99470999D01*
X134011561Y-99456303D01*
X134011561Y-99456302D01*
X134019749Y-99455225D01*
X134020058Y-99457578D01*
X134078853Y-99458972D01*
X134137653Y-99498760D01*
X134165607Y-99564021D01*
X134166500Y-99578993D01*
X134166500Y-100987606D01*
X134166500Y-101112394D01*
X134190845Y-101234785D01*
X134238600Y-101350075D01*
X134307929Y-101453833D01*
X134307931Y-101453835D01*
X136377322Y-103523226D01*
X136411348Y-103585538D01*
X136408060Y-103651257D01*
X136356457Y-103810071D01*
X136336496Y-104000000D01*
X136356457Y-104189928D01*
X136362386Y-104208174D01*
X136364414Y-104279141D01*
X136327751Y-104339939D01*
X136268751Y-104370356D01*
X136217715Y-104381204D01*
X136043247Y-104458882D01*
X135888744Y-104571135D01*
X135760965Y-104713048D01*
X135760958Y-104713058D01*
X135665476Y-104878438D01*
X135665473Y-104878444D01*
X135652872Y-104917225D01*
X135606457Y-105060072D01*
X135586496Y-105250000D01*
X135601192Y-105389830D01*
X135588419Y-105459668D01*
X135539917Y-105511515D01*
X135475882Y-105529000D01*
X126716494Y-105529000D01*
X126648373Y-105508998D01*
X126601880Y-105455342D01*
X126591776Y-105385068D01*
X126593389Y-105377202D01*
X126593803Y-105374061D01*
X126608500Y-105262425D01*
X126608499Y-105062576D01*
X126608315Y-105061182D01*
X126599897Y-104997230D01*
X126593803Y-104950939D01*
X126593801Y-104950935D01*
X126592241Y-104945111D01*
X126592242Y-104879887D01*
X126593800Y-104874067D01*
X126593803Y-104874061D01*
X126608500Y-104762425D01*
X126608499Y-104562576D01*
X126593803Y-104450939D01*
X126593802Y-104450938D01*
X126592725Y-104442751D01*
X126595074Y-104442441D01*
X126596481Y-104383621D01*
X126636282Y-104324830D01*
X126701550Y-104296889D01*
X126716494Y-104296000D01*
X127675198Y-104296000D01*
X127675199Y-104296000D01*
X127797590Y-104271655D01*
X127912880Y-104223900D01*
X128016638Y-104154571D01*
X129292071Y-102879138D01*
X129361400Y-102775380D01*
X129409155Y-102660090D01*
X129433500Y-102537699D01*
X129433500Y-102412912D01*
X129433500Y-101133594D01*
X129453502Y-101065473D01*
X129507158Y-101018980D01*
X129577432Y-101008876D01*
X129642012Y-101038370D01*
X129648595Y-101044499D01*
X130079595Y-101475499D01*
X130113621Y-101537811D01*
X130116500Y-101564594D01*
X130116500Y-103047474D01*
X130096498Y-103115595D01*
X130084137Y-103131784D01*
X130010957Y-103213059D01*
X129915476Y-103378438D01*
X129915473Y-103378444D01*
X129900999Y-103422986D01*
X129856457Y-103560072D01*
X129836496Y-103750000D01*
X129856457Y-103939927D01*
X129886526Y-104032470D01*
X129915473Y-104121556D01*
X129915476Y-104121561D01*
X130010958Y-104286941D01*
X130010965Y-104286951D01*
X130138744Y-104428864D01*
X130138747Y-104428866D01*
X130293248Y-104541118D01*
X130467712Y-104618794D01*
X130654513Y-104658500D01*
X130845487Y-104658500D01*
X131032288Y-104618794D01*
X131206752Y-104541118D01*
X131361253Y-104428866D01*
X131443499Y-104337523D01*
X131489034Y-104286951D01*
X131489035Y-104286949D01*
X131489040Y-104286944D01*
X131584527Y-104121556D01*
X131643542Y-103939928D01*
X131663504Y-103750000D01*
X131643542Y-103560072D01*
X131584527Y-103378444D01*
X131489040Y-103213056D01*
X131415863Y-103131784D01*
X131385146Y-103067776D01*
X131383500Y-103047474D01*
X131383500Y-101187607D01*
X131383499Y-101187603D01*
X131359155Y-101065215D01*
X131311400Y-100949925D01*
X131242071Y-100846167D01*
X131153833Y-100757929D01*
X130470405Y-100074501D01*
X130436379Y-100012189D01*
X130433500Y-99985406D01*
X130433500Y-99578993D01*
X130453502Y-99510872D01*
X130507158Y-99464379D01*
X130577432Y-99454275D01*
X130585298Y-99455889D01*
G37*
G04 #@! TD.AperFunction*
G04 #@! TA.AperFunction,Conductor*
G36*
X135163224Y-95145669D02*
G01*
X135185482Y-95171356D01*
X135274275Y-95307265D01*
X135274279Y-95307270D01*
X135426762Y-95472908D01*
X135474855Y-95510340D01*
X135604424Y-95611189D01*
X135802426Y-95718342D01*
X135802427Y-95718342D01*
X135802428Y-95718343D01*
X135845088Y-95732988D01*
X136015365Y-95791444D01*
X136237431Y-95828500D01*
X136237435Y-95828500D01*
X136242571Y-95829357D01*
X136242307Y-95830938D01*
X136301827Y-95853889D01*
X136343744Y-95911190D01*
X136348028Y-95982058D01*
X136313317Y-96043991D01*
X136295214Y-96058682D01*
X136258929Y-96082927D01*
X136258924Y-96082931D01*
X135764095Y-96577761D01*
X135701783Y-96611787D01*
X135630968Y-96606722D01*
X135585905Y-96577761D01*
X135309362Y-96301218D01*
X135275336Y-96238906D01*
X135273147Y-96225293D01*
X135255782Y-96060072D01*
X135250557Y-96043991D01*
X135196767Y-95878444D01*
X135101280Y-95713056D01*
X135101278Y-95713054D01*
X135101274Y-95713048D01*
X134973495Y-95571135D01*
X134896933Y-95515510D01*
X134889816Y-95510339D01*
X134846463Y-95454118D01*
X134840388Y-95383382D01*
X134871178Y-95323066D01*
X134885722Y-95307268D01*
X134974519Y-95171352D01*
X135028519Y-95125268D01*
X135098867Y-95115692D01*
X135163224Y-95145669D01*
G37*
G04 #@! TD.AperFunction*
G04 #@! TA.AperFunction,Conductor*
G36*
X137703225Y-95145669D02*
G01*
X137725480Y-95171353D01*
X137758607Y-95222058D01*
X137814275Y-95307265D01*
X137814279Y-95307270D01*
X137966762Y-95472908D01*
X138014855Y-95510340D01*
X138144424Y-95611189D01*
X138317192Y-95704686D01*
X138367583Y-95754699D01*
X138382935Y-95824016D01*
X138358374Y-95890629D01*
X138301699Y-95933389D01*
X138257223Y-95941500D01*
X136982777Y-95941500D01*
X136914656Y-95921498D01*
X136868163Y-95867842D01*
X136858059Y-95797568D01*
X136887553Y-95732988D01*
X136922808Y-95704686D01*
X137095576Y-95611189D01*
X137273240Y-95472906D01*
X137425722Y-95307268D01*
X137514518Y-95171354D01*
X137568520Y-95125268D01*
X137638868Y-95115692D01*
X137703225Y-95145669D01*
G37*
G04 #@! TD.AperFunction*
G04 #@! TA.AperFunction,Conductor*
G36*
X135162925Y-92605212D02*
G01*
X135185183Y-92630898D01*
X135274279Y-92767270D01*
X135426762Y-92932908D01*
X135481331Y-92975381D01*
X135604424Y-93071189D01*
X135637153Y-93088901D01*
X135637680Y-93089186D01*
X135688071Y-93139200D01*
X135703423Y-93208516D01*
X135678862Y-93275129D01*
X135637680Y-93310813D01*
X135604426Y-93328810D01*
X135604424Y-93328811D01*
X135426762Y-93467091D01*
X135274279Y-93632729D01*
X135185483Y-93768643D01*
X135131479Y-93814731D01*
X135061131Y-93824306D01*
X134996774Y-93794329D01*
X134974517Y-93768643D01*
X134885720Y-93632729D01*
X134733237Y-93467091D01*
X134651382Y-93403381D01*
X134555576Y-93328811D01*
X134521792Y-93310528D01*
X134471402Y-93260516D01*
X134456050Y-93191199D01*
X134480610Y-93124586D01*
X134521793Y-93088901D01*
X134555300Y-93070767D01*
X134555301Y-93070767D01*
X134732902Y-92932534D01*
X134885327Y-92766955D01*
X134974217Y-92630899D01*
X135028220Y-92584810D01*
X135098568Y-92575235D01*
X135162925Y-92605212D01*
G37*
G04 #@! TD.AperFunction*
G04 #@! TA.AperFunction,Conductor*
G36*
X133344075Y-91737007D02*
G01*
X133310000Y-91864174D01*
X133310000Y-91995826D01*
X133344075Y-92122993D01*
X133379297Y-92184000D01*
X131700703Y-92184000D01*
X131735925Y-92122993D01*
X131770000Y-91995826D01*
X131770000Y-91864174D01*
X131735925Y-91737007D01*
X131700703Y-91676000D01*
X133379297Y-91676000D01*
X133344075Y-91737007D01*
G37*
G04 #@! TD.AperFunction*
G04 #@! TD*
M02*
