G04 #@! TF.GenerationSoftware,KiCad,Pcbnew,8.0.8*
G04 #@! TF.CreationDate,2025-02-26T07:42:39+09:00*
G04 #@! TF.ProjectId,1bit-cpu_HAT,31626974-2d63-4707-955f-4841542e6b69,rev?*
G04 #@! TF.SameCoordinates,Original*
G04 #@! TF.FileFunction,Paste,Top*
G04 #@! TF.FilePolarity,Positive*
%FSLAX46Y46*%
G04 Gerber Fmt 4.6, Leading zero omitted, Abs format (unit mm)*
G04 Created by KiCad (PCBNEW 8.0.8) date 2025-02-26 07:42:39*
%MOMM*%
%LPD*%
G01*
G04 APERTURE LIST*
G04 Aperture macros list*
%AMRoundRect*
0 Rectangle with rounded corners*
0 $1 Rounding radius*
0 $2 $3 $4 $5 $6 $7 $8 $9 X,Y pos of 4 corners*
0 Add a 4 corners polygon primitive as box body*
4,1,4,$2,$3,$4,$5,$6,$7,$8,$9,$2,$3,0*
0 Add four circle primitives for the rounded corners*
1,1,$1+$1,$2,$3*
1,1,$1+$1,$4,$5*
1,1,$1+$1,$6,$7*
1,1,$1+$1,$8,$9*
0 Add four rect primitives between the rounded corners*
20,1,$1+$1,$2,$3,$4,$5,0*
20,1,$1+$1,$4,$5,$6,$7,0*
20,1,$1+$1,$6,$7,$8,$9,0*
20,1,$1+$1,$8,$9,$2,$3,0*%
G04 Aperture macros list end*
%ADD10RoundRect,0.062500X0.675000X0.062500X-0.675000X0.062500X-0.675000X-0.062500X0.675000X-0.062500X0*%
%ADD11RoundRect,0.062500X0.062500X0.675000X-0.062500X0.675000X-0.062500X-0.675000X0.062500X-0.675000X0*%
G04 APERTURE END LIST*
D10*
G04 #@! TO.C,U1*
X138737500Y-109662500D03*
X138737500Y-109162500D03*
X138737500Y-108662500D03*
X138737500Y-108162500D03*
X138737500Y-107662500D03*
X138737500Y-107162500D03*
X138737500Y-106662500D03*
X138737500Y-106162500D03*
X138737500Y-105662500D03*
X138737500Y-105162500D03*
X138737500Y-104662500D03*
X138737500Y-104162500D03*
X138737500Y-103662500D03*
X138737500Y-103162500D03*
X138737500Y-102662500D03*
X138737500Y-102162500D03*
X138737500Y-101662500D03*
X138737500Y-101162500D03*
X138737500Y-100662500D03*
X138737500Y-100162500D03*
D11*
X136800000Y-98225000D03*
X136300000Y-98225000D03*
X135800000Y-98225000D03*
X135300000Y-98225000D03*
X134800000Y-98225000D03*
X134300000Y-98225000D03*
X133800000Y-98225000D03*
X133300000Y-98225000D03*
X132800000Y-98225000D03*
X132300000Y-98225000D03*
X131800000Y-98225000D03*
X131300000Y-98225000D03*
X130800000Y-98225000D03*
X130300000Y-98225000D03*
X129800000Y-98225000D03*
X129300000Y-98225000D03*
X128800000Y-98225000D03*
X128300000Y-98225000D03*
X127800000Y-98225000D03*
X127300000Y-98225000D03*
D10*
X125362500Y-100162500D03*
X125362500Y-100662500D03*
X125362500Y-101162500D03*
X125362500Y-101662500D03*
X125362500Y-102162500D03*
X125362500Y-102662500D03*
X125362500Y-103162500D03*
X125362500Y-103662500D03*
X125362500Y-104162500D03*
X125362500Y-104662500D03*
X125362500Y-105162500D03*
X125362500Y-105662500D03*
X125362500Y-106162500D03*
X125362500Y-106662500D03*
X125362500Y-107162500D03*
X125362500Y-107662500D03*
X125362500Y-108162500D03*
X125362500Y-108662500D03*
X125362500Y-109162500D03*
X125362500Y-109662500D03*
D11*
X127300000Y-111600000D03*
X127800000Y-111600000D03*
X128300000Y-111600000D03*
X128800000Y-111600000D03*
X129300000Y-111600000D03*
X129800000Y-111600000D03*
X130300000Y-111600000D03*
X130800000Y-111600000D03*
X131300000Y-111600000D03*
X131800000Y-111600000D03*
X132300000Y-111600000D03*
X132800000Y-111600000D03*
X133300000Y-111600000D03*
X133800000Y-111600000D03*
X134300000Y-111600000D03*
X134800000Y-111600000D03*
X135300000Y-111600000D03*
X135800000Y-111600000D03*
X136300000Y-111600000D03*
X136800000Y-111600000D03*
G04 #@! TD*
M02*
