%TF.GenerationSoftware,KiCad,Pcbnew,8.0.8*%
%TF.CreationDate,2025-02-26T07:42:44+09:00*%
%TF.ProjectId,1bit-cpu_HAT,31626974-2d63-4707-955f-4841542e6b69,rev?*%
%TF.SameCoordinates,Original*%
%TF.FileFunction,Drillmap*%
%TF.FilePolarity,Positive*%
%FSLAX45Y45*%
G04 Gerber Fmt 4.5, Leading zero omitted, Abs format (unit mm)*
G04 Created by KiCad (PCBNEW 8.0.8) date 2025-02-26 07:42:44*
%MOMM*%
%LPD*%
G01*
G04 APERTURE LIST*
%ADD10C,0.150000*%
%ADD11C,0.200000*%
%ADD12C,0.100000*%
%ADD13C,0.110000*%
G04 APERTURE END LIST*
D10*
X12290000Y-9278000D02*
G75*
G02*
X12590000Y-8978000I300000J0D01*
G01*
X18790000Y-9278000D02*
X18790000Y-11678000D01*
X12590000Y-11978000D02*
G75*
G02*
X12290000Y-11678000I0J300000D01*
G01*
X18440000Y-11978000D02*
X18490000Y-11978000D01*
X18490000Y-8978000D02*
G75*
G02*
X18790000Y-9278000I0J-300000D01*
G01*
X12590000Y-8978000D02*
X18490000Y-8978000D01*
X12290000Y-11678000D02*
X12290000Y-9278000D01*
X18790000Y-11678000D02*
G75*
G02*
X18490000Y-11978000I-300000J0D01*
G01*
X12640000Y-11978000D02*
X12590000Y-11978000D01*
X12640000Y-11978000D02*
X18440000Y-11978000D01*
D11*
D12*
X12480000Y-9780000D02*
X12520000Y-9820000D01*
X12520000Y-9780000D02*
X12480000Y-9820000D01*
X12480000Y-11080000D02*
X12520000Y-11120000D01*
X12520000Y-11080000D02*
X12480000Y-11120000D01*
X12670612Y-9970612D02*
X12710612Y-10010612D01*
X12710612Y-9970612D02*
X12670612Y-10010612D01*
X12680000Y-10930000D02*
X12720000Y-10970000D01*
X12720000Y-10930000D02*
X12680000Y-10970000D01*
X12705000Y-10255000D02*
X12745000Y-10295000D01*
X12745000Y-10255000D02*
X12705000Y-10295000D01*
X12730000Y-10755000D02*
X12770000Y-10795000D01*
X12770000Y-10755000D02*
X12730000Y-10795000D01*
X13030000Y-10980000D02*
X13070000Y-11020000D01*
X13070000Y-10980000D02*
X13030000Y-11020000D01*
X13055000Y-9605000D02*
X13095000Y-9645000D01*
X13095000Y-9605000D02*
X13055000Y-9645000D01*
X13055000Y-10355000D02*
X13095000Y-10395000D01*
X13095000Y-10355000D02*
X13055000Y-10395000D01*
X13130000Y-9955000D02*
X13170000Y-9995000D01*
X13170000Y-9955000D02*
X13130000Y-9995000D01*
X13130000Y-11580000D02*
X13170000Y-11620000D01*
X13170000Y-11580000D02*
X13130000Y-11620000D01*
X13230000Y-10930000D02*
X13270000Y-10970000D01*
X13270000Y-10930000D02*
X13230000Y-10970000D01*
X13355000Y-10955000D02*
X13395000Y-10995000D01*
X13395000Y-10955000D02*
X13355000Y-10995000D01*
X13416224Y-9605000D02*
X13456224Y-9645000D01*
X13456224Y-9605000D02*
X13416224Y-9645000D01*
X13455000Y-10980000D02*
X13495000Y-11020000D01*
X13495000Y-10980000D02*
X13455000Y-11020000D01*
X13580000Y-9955000D02*
X13620000Y-9995000D01*
X13620000Y-9955000D02*
X13580000Y-9995000D01*
X13580000Y-10780000D02*
X13620000Y-10820000D01*
X13620000Y-10780000D02*
X13580000Y-10820000D01*
X13580000Y-10905000D02*
X13620000Y-10945000D01*
X13620000Y-10905000D02*
X13580000Y-10945000D01*
X13630000Y-10505000D02*
X13670000Y-10545000D01*
X13670000Y-10505000D02*
X13630000Y-10545000D01*
X13655000Y-10680000D02*
X13695000Y-10720000D01*
X13695000Y-10680000D02*
X13655000Y-10720000D01*
X13705000Y-10205000D02*
X13745000Y-10245000D01*
X13745000Y-10205000D02*
X13705000Y-10245000D01*
X13705000Y-10380000D02*
X13745000Y-10420000D01*
X13745000Y-10380000D02*
X13705000Y-10420000D01*
X13780000Y-11155000D02*
X13820000Y-11195000D01*
X13820000Y-11155000D02*
X13780000Y-11195000D01*
X13917500Y-9742500D02*
X13957500Y-9782500D01*
X13957500Y-9742500D02*
X13917500Y-9782500D01*
X14030000Y-9730000D02*
X14070000Y-9770000D01*
X14070000Y-9730000D02*
X14030000Y-9770000D01*
X14030000Y-10680000D02*
X14070000Y-10720000D01*
X14070000Y-10680000D02*
X14030000Y-10720000D01*
X14030000Y-10855000D02*
X14070000Y-10895000D01*
X14070000Y-10855000D02*
X14030000Y-10895000D01*
X14056265Y-10306265D02*
X14096265Y-10346265D01*
X14096265Y-10306265D02*
X14056265Y-10346265D01*
X14080000Y-9955000D02*
X14120000Y-9995000D01*
X14120000Y-9955000D02*
X14080000Y-9995000D01*
X14080000Y-10180000D02*
X14120000Y-10220000D01*
X14120000Y-10180000D02*
X14080000Y-10220000D01*
X14180000Y-10355000D02*
X14220000Y-10395000D01*
X14220000Y-10355000D02*
X14180000Y-10395000D01*
X14830000Y-9830000D02*
X14870000Y-9870000D01*
X14870000Y-9830000D02*
X14830000Y-9870000D01*
X13739000Y-11625000D02*
G75*
G02*
X13665000Y-11625000I-37000J0D01*
G01*
X13665000Y-11625000D02*
G75*
G02*
X13739000Y-11625000I37000J0D01*
G01*
X13993000Y-11625000D02*
G75*
G02*
X13919000Y-11625000I-37000J0D01*
G01*
X13919000Y-11625000D02*
G75*
G02*
X13993000Y-11625000I37000J0D01*
G01*
X14247000Y-11625000D02*
G75*
G02*
X14173000Y-11625000I-37000J0D01*
G01*
X14173000Y-11625000D02*
G75*
G02*
X14247000Y-11625000I37000J0D01*
G01*
X15123500Y-10542500D02*
X15123500Y-10617500D01*
X15086000Y-10580000D02*
X15161000Y-10580000D01*
X15123500Y-10669500D02*
X15123500Y-10744500D01*
X15086000Y-10707000D02*
X15161000Y-10707000D01*
X15123500Y-10796500D02*
X15123500Y-10871500D01*
X15086000Y-10834000D02*
X15161000Y-10834000D01*
X15920000Y-10534500D02*
X15920000Y-10609500D01*
X15882500Y-10572000D02*
X15957500Y-10572000D01*
X15920000Y-10661500D02*
X15920000Y-10736500D01*
X15882500Y-10699000D02*
X15957500Y-10699000D01*
X15920000Y-10788500D02*
X15920000Y-10863500D01*
X15882500Y-10826000D02*
X15957500Y-10826000D01*
X16703500Y-10533500D02*
X16703500Y-10608500D01*
X16666000Y-10571000D02*
X16741000Y-10571000D01*
X16703500Y-10660500D02*
X16703500Y-10735500D01*
X16666000Y-10698000D02*
X16741000Y-10698000D01*
X16703500Y-10787500D02*
X16703500Y-10862500D01*
X16666000Y-10825000D02*
X16741000Y-10825000D01*
X14366284Y-9798285D02*
X14366284Y-9741716D01*
X14309715Y-9741716D01*
X14309715Y-9798285D01*
X14366284Y-9798285D01*
X14366284Y-10158285D02*
X14366284Y-10101716D01*
X14309715Y-10101716D01*
X14309715Y-10158285D01*
X14366284Y-10158285D01*
X14403284Y-10422285D02*
X14403284Y-10365716D01*
X14346715Y-10365716D01*
X14346715Y-10422285D01*
X14403284Y-10422285D01*
X14403284Y-11184285D02*
X14403284Y-11127716D01*
X14346715Y-11127716D01*
X14346715Y-11184285D01*
X14403284Y-11184285D01*
X14678284Y-10417285D02*
X14678284Y-10360716D01*
X14621715Y-10360716D01*
X14621715Y-10417285D01*
X14678284Y-10417285D01*
X14678284Y-11179285D02*
X14678284Y-11122716D01*
X14621715Y-11122716D01*
X14621715Y-11179285D01*
X14678284Y-11179285D01*
X15128284Y-9798285D02*
X15128284Y-9741716D01*
X15071715Y-9741716D01*
X15071715Y-9798285D01*
X15128284Y-9798285D01*
X15128284Y-10158285D02*
X15128284Y-10101716D01*
X15071715Y-10101716D01*
X15071715Y-10158285D01*
X15128284Y-10158285D01*
X15366284Y-9798285D02*
X15366284Y-9741716D01*
X15309715Y-9741716D01*
X15309715Y-9798285D01*
X15366284Y-9798285D01*
X15366284Y-10158285D02*
X15366284Y-10101716D01*
X15309715Y-10101716D01*
X15309715Y-10158285D01*
X15366284Y-10158285D01*
X16128284Y-9798285D02*
X16128284Y-9741716D01*
X16071715Y-9741716D01*
X16071715Y-9798285D01*
X16128284Y-9798285D01*
X16128284Y-10158285D02*
X16128284Y-10101716D01*
X16071715Y-10101716D01*
X16071715Y-10158285D01*
X16128284Y-10158285D01*
X16366784Y-9797285D02*
X16366784Y-9740716D01*
X16310215Y-9740716D01*
X16310215Y-9797285D01*
X16366784Y-9797285D01*
X16366784Y-10162285D02*
X16366784Y-10105716D01*
X16310215Y-10105716D01*
X16310215Y-10162285D01*
X16366784Y-10162285D01*
X17128785Y-9797285D02*
X17128785Y-9740716D01*
X17072216Y-9740716D01*
X17072216Y-9797285D01*
X17128785Y-9797285D01*
X17128785Y-10162285D02*
X17128785Y-10105716D01*
X17072216Y-10105716D01*
X17072216Y-10162285D01*
X17128785Y-10162285D01*
X17238285Y-11077285D02*
X17238285Y-11020716D01*
X17181716Y-11020716D01*
X17181716Y-11077285D01*
X17238285Y-11077285D01*
X17238285Y-11839284D02*
X17238285Y-11782715D01*
X17181716Y-11782715D01*
X17181716Y-11839284D01*
X17238285Y-11839284D01*
X17398285Y-10348285D02*
X17398285Y-10291716D01*
X17341716Y-10291716D01*
X17341716Y-10348285D01*
X17398285Y-10348285D01*
X17398285Y-10848285D02*
X17398285Y-10791716D01*
X17341716Y-10791716D01*
X17341716Y-10848285D01*
X17398285Y-10848285D01*
X17452285Y-9793285D02*
X17452285Y-9736716D01*
X17395716Y-9736716D01*
X17395716Y-9793285D01*
X17452285Y-9793285D01*
X17598285Y-11077285D02*
X17598285Y-11020716D01*
X17541716Y-11020716D01*
X17541716Y-11077285D01*
X17598285Y-11077285D01*
X17598285Y-11839284D02*
X17598285Y-11782715D01*
X17541716Y-11782715D01*
X17541716Y-11839284D01*
X17598285Y-11839284D01*
X17952785Y-11078785D02*
X17952785Y-11022216D01*
X17896216Y-11022216D01*
X17896216Y-11078785D01*
X17952785Y-11078785D01*
X17952785Y-11840784D02*
X17952785Y-11784215D01*
X17896216Y-11784215D01*
X17896216Y-11840784D01*
X17952785Y-11840784D01*
X18214285Y-9793285D02*
X18214285Y-9736716D01*
X18157716Y-9736716D01*
X18157716Y-9793285D01*
X18214285Y-9793285D01*
X15125000Y-11369500D02*
X15170000Y-11324500D01*
X15125000Y-11279500D01*
X15080000Y-11324500D01*
X15125000Y-11369500D01*
X15125000Y-11623500D02*
X15170000Y-11578500D01*
X15125000Y-11533500D01*
X15080000Y-11578500D01*
X15125000Y-11623500D01*
X15919000Y-11362000D02*
X15964000Y-11317000D01*
X15919000Y-11272000D01*
X15874000Y-11317000D01*
X15919000Y-11362000D01*
X15919000Y-11616000D02*
X15964000Y-11571000D01*
X15919000Y-11526000D01*
X15874000Y-11571000D01*
X15919000Y-11616000D01*
X16710000Y-11361000D02*
X16755000Y-11316000D01*
X16710000Y-11271000D01*
X16665000Y-11316000D01*
X16710000Y-11361000D01*
X16710000Y-11615000D02*
X16755000Y-11570000D01*
X16710000Y-11525000D01*
X16665000Y-11570000D01*
X16710000Y-11615000D01*
X13077000Y-9143000D02*
X13177000Y-9243000D01*
X13177000Y-9143000D02*
X13077000Y-9243000D01*
X13177000Y-9193000D02*
G75*
G02*
X13077000Y-9193000I-50000J0D01*
G01*
X13077000Y-9193000D02*
G75*
G02*
X13177000Y-9193000I50000J0D01*
G01*
X13077000Y-9397000D02*
X13177000Y-9497000D01*
X13177000Y-9397000D02*
X13077000Y-9497000D01*
X13177000Y-9447000D02*
G75*
G02*
X13077000Y-9447000I-50000J0D01*
G01*
X13077000Y-9447000D02*
G75*
G02*
X13177000Y-9447000I50000J0D01*
G01*
X13331000Y-9143000D02*
X13431000Y-9243000D01*
X13431000Y-9143000D02*
X13331000Y-9243000D01*
X13431000Y-9193000D02*
G75*
G02*
X13331000Y-9193000I-50000J0D01*
G01*
X13331000Y-9193000D02*
G75*
G02*
X13431000Y-9193000I50000J0D01*
G01*
X13331000Y-9397000D02*
X13431000Y-9497000D01*
X13431000Y-9397000D02*
X13331000Y-9497000D01*
X13431000Y-9447000D02*
G75*
G02*
X13331000Y-9447000I-50000J0D01*
G01*
X13331000Y-9447000D02*
G75*
G02*
X13431000Y-9447000I50000J0D01*
G01*
X13585000Y-9143000D02*
X13685000Y-9243000D01*
X13685000Y-9143000D02*
X13585000Y-9243000D01*
X13685000Y-9193000D02*
G75*
G02*
X13585000Y-9193000I-50000J0D01*
G01*
X13585000Y-9193000D02*
G75*
G02*
X13685000Y-9193000I50000J0D01*
G01*
X13585000Y-9397000D02*
X13685000Y-9497000D01*
X13685000Y-9397000D02*
X13585000Y-9497000D01*
X13685000Y-9447000D02*
G75*
G02*
X13585000Y-9447000I-50000J0D01*
G01*
X13585000Y-9447000D02*
G75*
G02*
X13685000Y-9447000I50000J0D01*
G01*
X13839000Y-9143000D02*
X13939000Y-9243000D01*
X13939000Y-9143000D02*
X13839000Y-9243000D01*
X13939000Y-9193000D02*
G75*
G02*
X13839000Y-9193000I-50000J0D01*
G01*
X13839000Y-9193000D02*
G75*
G02*
X13939000Y-9193000I50000J0D01*
G01*
X13839000Y-9397000D02*
X13939000Y-9497000D01*
X13939000Y-9397000D02*
X13839000Y-9497000D01*
X13939000Y-9447000D02*
G75*
G02*
X13839000Y-9447000I-50000J0D01*
G01*
X13839000Y-9447000D02*
G75*
G02*
X13939000Y-9447000I50000J0D01*
G01*
X14093000Y-9143000D02*
X14193000Y-9243000D01*
X14193000Y-9143000D02*
X14093000Y-9243000D01*
X14193000Y-9193000D02*
G75*
G02*
X14093000Y-9193000I-50000J0D01*
G01*
X14093000Y-9193000D02*
G75*
G02*
X14193000Y-9193000I50000J0D01*
G01*
X14093000Y-9397000D02*
X14193000Y-9497000D01*
X14193000Y-9397000D02*
X14093000Y-9497000D01*
X14193000Y-9447000D02*
G75*
G02*
X14093000Y-9447000I-50000J0D01*
G01*
X14093000Y-9447000D02*
G75*
G02*
X14193000Y-9447000I50000J0D01*
G01*
X14347000Y-9143000D02*
X14447000Y-9243000D01*
X14447000Y-9143000D02*
X14347000Y-9243000D01*
X14447000Y-9193000D02*
G75*
G02*
X14347000Y-9193000I-50000J0D01*
G01*
X14347000Y-9193000D02*
G75*
G02*
X14447000Y-9193000I50000J0D01*
G01*
X14347000Y-9397000D02*
X14447000Y-9497000D01*
X14447000Y-9397000D02*
X14347000Y-9497000D01*
X14447000Y-9447000D02*
G75*
G02*
X14347000Y-9447000I-50000J0D01*
G01*
X14347000Y-9447000D02*
G75*
G02*
X14447000Y-9447000I50000J0D01*
G01*
X14601000Y-9143000D02*
X14701000Y-9243000D01*
X14701000Y-9143000D02*
X14601000Y-9243000D01*
X14701000Y-9193000D02*
G75*
G02*
X14601000Y-9193000I-50000J0D01*
G01*
X14601000Y-9193000D02*
G75*
G02*
X14701000Y-9193000I50000J0D01*
G01*
X14601000Y-9397000D02*
X14701000Y-9497000D01*
X14701000Y-9397000D02*
X14601000Y-9497000D01*
X14701000Y-9447000D02*
G75*
G02*
X14601000Y-9447000I-50000J0D01*
G01*
X14601000Y-9447000D02*
G75*
G02*
X14701000Y-9447000I50000J0D01*
G01*
X14855000Y-9143000D02*
X14955000Y-9243000D01*
X14955000Y-9143000D02*
X14855000Y-9243000D01*
X14955000Y-9193000D02*
G75*
G02*
X14855000Y-9193000I-50000J0D01*
G01*
X14855000Y-9193000D02*
G75*
G02*
X14955000Y-9193000I50000J0D01*
G01*
X14855000Y-9397000D02*
X14955000Y-9497000D01*
X14955000Y-9397000D02*
X14855000Y-9497000D01*
X14955000Y-9447000D02*
G75*
G02*
X14855000Y-9447000I-50000J0D01*
G01*
X14855000Y-9447000D02*
G75*
G02*
X14955000Y-9447000I50000J0D01*
G01*
X15109000Y-9143000D02*
X15209000Y-9243000D01*
X15209000Y-9143000D02*
X15109000Y-9243000D01*
X15209000Y-9193000D02*
G75*
G02*
X15109000Y-9193000I-50000J0D01*
G01*
X15109000Y-9193000D02*
G75*
G02*
X15209000Y-9193000I50000J0D01*
G01*
X15109000Y-9397000D02*
X15209000Y-9497000D01*
X15209000Y-9397000D02*
X15109000Y-9497000D01*
X15209000Y-9447000D02*
G75*
G02*
X15109000Y-9447000I-50000J0D01*
G01*
X15109000Y-9447000D02*
G75*
G02*
X15209000Y-9447000I50000J0D01*
G01*
X15363000Y-9143000D02*
X15463000Y-9243000D01*
X15463000Y-9143000D02*
X15363000Y-9243000D01*
X15463000Y-9193000D02*
G75*
G02*
X15363000Y-9193000I-50000J0D01*
G01*
X15363000Y-9193000D02*
G75*
G02*
X15463000Y-9193000I50000J0D01*
G01*
X15363000Y-9397000D02*
X15463000Y-9497000D01*
X15463000Y-9397000D02*
X15363000Y-9497000D01*
X15463000Y-9447000D02*
G75*
G02*
X15363000Y-9447000I-50000J0D01*
G01*
X15363000Y-9447000D02*
G75*
G02*
X15463000Y-9447000I50000J0D01*
G01*
X15617000Y-9143000D02*
X15717000Y-9243000D01*
X15717000Y-9143000D02*
X15617000Y-9243000D01*
X15717000Y-9193000D02*
G75*
G02*
X15617000Y-9193000I-50000J0D01*
G01*
X15617000Y-9193000D02*
G75*
G02*
X15717000Y-9193000I50000J0D01*
G01*
X15617000Y-9397000D02*
X15717000Y-9497000D01*
X15717000Y-9397000D02*
X15617000Y-9497000D01*
X15717000Y-9447000D02*
G75*
G02*
X15617000Y-9447000I-50000J0D01*
G01*
X15617000Y-9447000D02*
G75*
G02*
X15717000Y-9447000I50000J0D01*
G01*
X15871000Y-9143000D02*
X15971000Y-9243000D01*
X15971000Y-9143000D02*
X15871000Y-9243000D01*
X15971000Y-9193000D02*
G75*
G02*
X15871000Y-9193000I-50000J0D01*
G01*
X15871000Y-9193000D02*
G75*
G02*
X15971000Y-9193000I50000J0D01*
G01*
X15871000Y-9397000D02*
X15971000Y-9497000D01*
X15971000Y-9397000D02*
X15871000Y-9497000D01*
X15971000Y-9447000D02*
G75*
G02*
X15871000Y-9447000I-50000J0D01*
G01*
X15871000Y-9447000D02*
G75*
G02*
X15971000Y-9447000I50000J0D01*
G01*
X16125000Y-9143000D02*
X16225000Y-9243000D01*
X16225000Y-9143000D02*
X16125000Y-9243000D01*
X16225000Y-9193000D02*
G75*
G02*
X16125000Y-9193000I-50000J0D01*
G01*
X16125000Y-9193000D02*
G75*
G02*
X16225000Y-9193000I50000J0D01*
G01*
X16125000Y-9397000D02*
X16225000Y-9497000D01*
X16225000Y-9397000D02*
X16125000Y-9497000D01*
X16225000Y-9447000D02*
G75*
G02*
X16125000Y-9447000I-50000J0D01*
G01*
X16125000Y-9447000D02*
G75*
G02*
X16225000Y-9447000I50000J0D01*
G01*
X16379000Y-9143000D02*
X16479000Y-9243000D01*
X16479000Y-9143000D02*
X16379000Y-9243000D01*
X16479000Y-9193000D02*
G75*
G02*
X16379000Y-9193000I-50000J0D01*
G01*
X16379000Y-9193000D02*
G75*
G02*
X16479000Y-9193000I50000J0D01*
G01*
X16379000Y-9397000D02*
X16479000Y-9497000D01*
X16479000Y-9397000D02*
X16379000Y-9497000D01*
X16479000Y-9447000D02*
G75*
G02*
X16379000Y-9447000I-50000J0D01*
G01*
X16379000Y-9447000D02*
G75*
G02*
X16479000Y-9447000I50000J0D01*
G01*
X16633000Y-9143000D02*
X16733000Y-9243000D01*
X16733000Y-9143000D02*
X16633000Y-9243000D01*
X16733000Y-9193000D02*
G75*
G02*
X16633000Y-9193000I-50000J0D01*
G01*
X16633000Y-9193000D02*
G75*
G02*
X16733000Y-9193000I50000J0D01*
G01*
X16633000Y-9397000D02*
X16733000Y-9497000D01*
X16733000Y-9397000D02*
X16633000Y-9497000D01*
X16733000Y-9447000D02*
G75*
G02*
X16633000Y-9447000I-50000J0D01*
G01*
X16633000Y-9447000D02*
G75*
G02*
X16733000Y-9447000I50000J0D01*
G01*
X16887000Y-9143000D02*
X16987000Y-9243000D01*
X16987000Y-9143000D02*
X16887000Y-9243000D01*
X16987000Y-9193000D02*
G75*
G02*
X16887000Y-9193000I-50000J0D01*
G01*
X16887000Y-9193000D02*
G75*
G02*
X16987000Y-9193000I50000J0D01*
G01*
X16887000Y-9397000D02*
X16987000Y-9497000D01*
X16987000Y-9397000D02*
X16887000Y-9497000D01*
X16987000Y-9447000D02*
G75*
G02*
X16887000Y-9447000I-50000J0D01*
G01*
X16887000Y-9447000D02*
G75*
G02*
X16987000Y-9447000I50000J0D01*
G01*
X17141000Y-9143000D02*
X17241000Y-9243000D01*
X17241000Y-9143000D02*
X17141000Y-9243000D01*
X17241000Y-9193000D02*
G75*
G02*
X17141000Y-9193000I-50000J0D01*
G01*
X17141000Y-9193000D02*
G75*
G02*
X17241000Y-9193000I50000J0D01*
G01*
X17141000Y-9397000D02*
X17241000Y-9497000D01*
X17241000Y-9397000D02*
X17141000Y-9497000D01*
X17241000Y-9447000D02*
G75*
G02*
X17141000Y-9447000I-50000J0D01*
G01*
X17141000Y-9447000D02*
G75*
G02*
X17241000Y-9447000I50000J0D01*
G01*
X17395000Y-9143000D02*
X17495000Y-9243000D01*
X17495000Y-9143000D02*
X17395000Y-9243000D01*
X17495000Y-9193000D02*
G75*
G02*
X17395000Y-9193000I-50000J0D01*
G01*
X17395000Y-9193000D02*
G75*
G02*
X17495000Y-9193000I50000J0D01*
G01*
X17395000Y-9397000D02*
X17495000Y-9497000D01*
X17495000Y-9397000D02*
X17395000Y-9497000D01*
X17495000Y-9447000D02*
G75*
G02*
X17395000Y-9447000I-50000J0D01*
G01*
X17395000Y-9447000D02*
G75*
G02*
X17495000Y-9447000I50000J0D01*
G01*
X17649000Y-9143000D02*
X17749000Y-9243000D01*
X17749000Y-9143000D02*
X17649000Y-9243000D01*
X17749000Y-9193000D02*
G75*
G02*
X17649000Y-9193000I-50000J0D01*
G01*
X17649000Y-9193000D02*
G75*
G02*
X17749000Y-9193000I50000J0D01*
G01*
X17649000Y-9397000D02*
X17749000Y-9497000D01*
X17749000Y-9397000D02*
X17649000Y-9497000D01*
X17749000Y-9447000D02*
G75*
G02*
X17649000Y-9447000I-50000J0D01*
G01*
X17649000Y-9447000D02*
G75*
G02*
X17749000Y-9447000I50000J0D01*
G01*
X17903000Y-9143000D02*
X18003000Y-9243000D01*
X18003000Y-9143000D02*
X17903000Y-9243000D01*
X18003000Y-9193000D02*
G75*
G02*
X17903000Y-9193000I-50000J0D01*
G01*
X17903000Y-9193000D02*
G75*
G02*
X18003000Y-9193000I50000J0D01*
G01*
X17903000Y-9397000D02*
X18003000Y-9497000D01*
X18003000Y-9397000D02*
X17903000Y-9497000D01*
X18003000Y-9447000D02*
G75*
G02*
X17903000Y-9447000I-50000J0D01*
G01*
X17903000Y-9447000D02*
G75*
G02*
X18003000Y-9447000I50000J0D01*
G01*
X18470000Y-10206000D02*
X18570000Y-10306000D01*
X18570000Y-10206000D02*
X18470000Y-10306000D01*
X18570000Y-10256000D02*
G75*
G02*
X18470000Y-10256000I-50000J0D01*
G01*
X18470000Y-10256000D02*
G75*
G02*
X18570000Y-10256000I50000J0D01*
G01*
X18470000Y-10460000D02*
X18570000Y-10560000D01*
X18570000Y-10460000D02*
X18470000Y-10560000D01*
X18570000Y-10510000D02*
G75*
G02*
X18470000Y-10510000I-50000J0D01*
G01*
X18470000Y-10510000D02*
G75*
G02*
X18570000Y-10510000I50000J0D01*
G01*
X18470000Y-10714000D02*
X18570000Y-10814000D01*
X18570000Y-10714000D02*
X18470000Y-10814000D01*
X18570000Y-10764000D02*
G75*
G02*
X18470000Y-10764000I-50000J0D01*
G01*
X18470000Y-10764000D02*
G75*
G02*
X18570000Y-10764000I50000J0D01*
G01*
D13*
X17635000Y-10075000D02*
X17745000Y-10185000D01*
X17745000Y-10075000D02*
X17635000Y-10185000D01*
X17690000Y-10075000D02*
X17690000Y-10185000D01*
X17635000Y-10130000D02*
X17745000Y-10130000D01*
X17635000Y-10725000D02*
X17745000Y-10835000D01*
X17745000Y-10725000D02*
X17635000Y-10835000D01*
X17690000Y-10725000D02*
X17690000Y-10835000D01*
X17635000Y-10780000D02*
X17745000Y-10780000D01*
X18085000Y-10075000D02*
X18195000Y-10185000D01*
X18195000Y-10075000D02*
X18085000Y-10185000D01*
X18140000Y-10075000D02*
X18140000Y-10185000D01*
X18085000Y-10130000D02*
X18195000Y-10130000D01*
X18085000Y-10725000D02*
X18195000Y-10835000D01*
X18195000Y-10725000D02*
X18085000Y-10835000D01*
X18140000Y-10725000D02*
X18140000Y-10835000D01*
X18085000Y-10780000D02*
X18195000Y-10780000D01*
D11*
X12543277Y-12296984D02*
X12543277Y-12096984D01*
X12543277Y-12096984D02*
X12590896Y-12096984D01*
X12590896Y-12096984D02*
X12619467Y-12106508D01*
X12619467Y-12106508D02*
X12638515Y-12125555D01*
X12638515Y-12125555D02*
X12648039Y-12144603D01*
X12648039Y-12144603D02*
X12657562Y-12182698D01*
X12657562Y-12182698D02*
X12657562Y-12211269D01*
X12657562Y-12211269D02*
X12648039Y-12249365D01*
X12648039Y-12249365D02*
X12638515Y-12268412D01*
X12638515Y-12268412D02*
X12619467Y-12287460D01*
X12619467Y-12287460D02*
X12590896Y-12296984D01*
X12590896Y-12296984D02*
X12543277Y-12296984D01*
X12743277Y-12296984D02*
X12743277Y-12163650D01*
X12743277Y-12201746D02*
X12752801Y-12182698D01*
X12752801Y-12182698D02*
X12762324Y-12173174D01*
X12762324Y-12173174D02*
X12781372Y-12163650D01*
X12781372Y-12163650D02*
X12800420Y-12163650D01*
X12867086Y-12296984D02*
X12867086Y-12163650D01*
X12867086Y-12096984D02*
X12857562Y-12106508D01*
X12857562Y-12106508D02*
X12867086Y-12116031D01*
X12867086Y-12116031D02*
X12876610Y-12106508D01*
X12876610Y-12106508D02*
X12867086Y-12096984D01*
X12867086Y-12096984D02*
X12867086Y-12116031D01*
X12990896Y-12296984D02*
X12971848Y-12287460D01*
X12971848Y-12287460D02*
X12962324Y-12268412D01*
X12962324Y-12268412D02*
X12962324Y-12096984D01*
X13095658Y-12296984D02*
X13076610Y-12287460D01*
X13076610Y-12287460D02*
X13067086Y-12268412D01*
X13067086Y-12268412D02*
X13067086Y-12096984D01*
X13324229Y-12296984D02*
X13324229Y-12096984D01*
X13324229Y-12096984D02*
X13390896Y-12239841D01*
X13390896Y-12239841D02*
X13457562Y-12096984D01*
X13457562Y-12096984D02*
X13457562Y-12296984D01*
X13638515Y-12296984D02*
X13638515Y-12192222D01*
X13638515Y-12192222D02*
X13628991Y-12173174D01*
X13628991Y-12173174D02*
X13609943Y-12163650D01*
X13609943Y-12163650D02*
X13571848Y-12163650D01*
X13571848Y-12163650D02*
X13552801Y-12173174D01*
X13638515Y-12287460D02*
X13619467Y-12296984D01*
X13619467Y-12296984D02*
X13571848Y-12296984D01*
X13571848Y-12296984D02*
X13552801Y-12287460D01*
X13552801Y-12287460D02*
X13543277Y-12268412D01*
X13543277Y-12268412D02*
X13543277Y-12249365D01*
X13543277Y-12249365D02*
X13552801Y-12230317D01*
X13552801Y-12230317D02*
X13571848Y-12220793D01*
X13571848Y-12220793D02*
X13619467Y-12220793D01*
X13619467Y-12220793D02*
X13638515Y-12211269D01*
X13733753Y-12163650D02*
X13733753Y-12363650D01*
X13733753Y-12173174D02*
X13752801Y-12163650D01*
X13752801Y-12163650D02*
X13790896Y-12163650D01*
X13790896Y-12163650D02*
X13809943Y-12173174D01*
X13809943Y-12173174D02*
X13819467Y-12182698D01*
X13819467Y-12182698D02*
X13828991Y-12201746D01*
X13828991Y-12201746D02*
X13828991Y-12258888D01*
X13828991Y-12258888D02*
X13819467Y-12277936D01*
X13819467Y-12277936D02*
X13809943Y-12287460D01*
X13809943Y-12287460D02*
X13790896Y-12296984D01*
X13790896Y-12296984D02*
X13752801Y-12296984D01*
X13752801Y-12296984D02*
X13733753Y-12287460D01*
X13914705Y-12277936D02*
X13924229Y-12287460D01*
X13924229Y-12287460D02*
X13914705Y-12296984D01*
X13914705Y-12296984D02*
X13905182Y-12287460D01*
X13905182Y-12287460D02*
X13914705Y-12277936D01*
X13914705Y-12277936D02*
X13914705Y-12296984D01*
X13914705Y-12173174D02*
X13924229Y-12182698D01*
X13924229Y-12182698D02*
X13914705Y-12192222D01*
X13914705Y-12192222D02*
X13905182Y-12182698D01*
X13905182Y-12182698D02*
X13914705Y-12173174D01*
X13914705Y-12173174D02*
X13914705Y-12192222D01*
D12*
X12242500Y-12605500D02*
X12282500Y-12645500D01*
X12282500Y-12605500D02*
X12242500Y-12645500D01*
D11*
X12581372Y-12516984D02*
X12600420Y-12516984D01*
X12600420Y-12516984D02*
X12619467Y-12526508D01*
X12619467Y-12526508D02*
X12628991Y-12536031D01*
X12628991Y-12536031D02*
X12638515Y-12555079D01*
X12638515Y-12555079D02*
X12648039Y-12593174D01*
X12648039Y-12593174D02*
X12648039Y-12640793D01*
X12648039Y-12640793D02*
X12638515Y-12678888D01*
X12638515Y-12678888D02*
X12628991Y-12697936D01*
X12628991Y-12697936D02*
X12619467Y-12707460D01*
X12619467Y-12707460D02*
X12600420Y-12716984D01*
X12600420Y-12716984D02*
X12581372Y-12716984D01*
X12581372Y-12716984D02*
X12562324Y-12707460D01*
X12562324Y-12707460D02*
X12552801Y-12697936D01*
X12552801Y-12697936D02*
X12543277Y-12678888D01*
X12543277Y-12678888D02*
X12533753Y-12640793D01*
X12533753Y-12640793D02*
X12533753Y-12593174D01*
X12533753Y-12593174D02*
X12543277Y-12555079D01*
X12543277Y-12555079D02*
X12552801Y-12536031D01*
X12552801Y-12536031D02*
X12562324Y-12526508D01*
X12562324Y-12526508D02*
X12581372Y-12516984D01*
X12733753Y-12697936D02*
X12743277Y-12707460D01*
X12743277Y-12707460D02*
X12733753Y-12716984D01*
X12733753Y-12716984D02*
X12724229Y-12707460D01*
X12724229Y-12707460D02*
X12733753Y-12697936D01*
X12733753Y-12697936D02*
X12733753Y-12716984D01*
X12914705Y-12583650D02*
X12914705Y-12716984D01*
X12867086Y-12507460D02*
X12819467Y-12650317D01*
X12819467Y-12650317D02*
X12943277Y-12650317D01*
X13057562Y-12516984D02*
X13076610Y-12516984D01*
X13076610Y-12516984D02*
X13095658Y-12526508D01*
X13095658Y-12526508D02*
X13105182Y-12536031D01*
X13105182Y-12536031D02*
X13114705Y-12555079D01*
X13114705Y-12555079D02*
X13124229Y-12593174D01*
X13124229Y-12593174D02*
X13124229Y-12640793D01*
X13124229Y-12640793D02*
X13114705Y-12678888D01*
X13114705Y-12678888D02*
X13105182Y-12697936D01*
X13105182Y-12697936D02*
X13095658Y-12707460D01*
X13095658Y-12707460D02*
X13076610Y-12716984D01*
X13076610Y-12716984D02*
X13057562Y-12716984D01*
X13057562Y-12716984D02*
X13038515Y-12707460D01*
X13038515Y-12707460D02*
X13028991Y-12697936D01*
X13028991Y-12697936D02*
X13019467Y-12678888D01*
X13019467Y-12678888D02*
X13009943Y-12640793D01*
X13009943Y-12640793D02*
X13009943Y-12593174D01*
X13009943Y-12593174D02*
X13019467Y-12555079D01*
X13019467Y-12555079D02*
X13028991Y-12536031D01*
X13028991Y-12536031D02*
X13038515Y-12526508D01*
X13038515Y-12526508D02*
X13057562Y-12516984D01*
X13248039Y-12516984D02*
X13267086Y-12516984D01*
X13267086Y-12516984D02*
X13286134Y-12526508D01*
X13286134Y-12526508D02*
X13295658Y-12536031D01*
X13295658Y-12536031D02*
X13305182Y-12555079D01*
X13305182Y-12555079D02*
X13314705Y-12593174D01*
X13314705Y-12593174D02*
X13314705Y-12640793D01*
X13314705Y-12640793D02*
X13305182Y-12678888D01*
X13305182Y-12678888D02*
X13295658Y-12697936D01*
X13295658Y-12697936D02*
X13286134Y-12707460D01*
X13286134Y-12707460D02*
X13267086Y-12716984D01*
X13267086Y-12716984D02*
X13248039Y-12716984D01*
X13248039Y-12716984D02*
X13228991Y-12707460D01*
X13228991Y-12707460D02*
X13219467Y-12697936D01*
X13219467Y-12697936D02*
X13209943Y-12678888D01*
X13209943Y-12678888D02*
X13200420Y-12640793D01*
X13200420Y-12640793D02*
X13200420Y-12593174D01*
X13200420Y-12593174D02*
X13209943Y-12555079D01*
X13209943Y-12555079D02*
X13219467Y-12536031D01*
X13219467Y-12536031D02*
X13228991Y-12526508D01*
X13228991Y-12526508D02*
X13248039Y-12516984D01*
X13400420Y-12716984D02*
X13400420Y-12583650D01*
X13400420Y-12602698D02*
X13409943Y-12593174D01*
X13409943Y-12593174D02*
X13428991Y-12583650D01*
X13428991Y-12583650D02*
X13457563Y-12583650D01*
X13457563Y-12583650D02*
X13476610Y-12593174D01*
X13476610Y-12593174D02*
X13486134Y-12612222D01*
X13486134Y-12612222D02*
X13486134Y-12716984D01*
X13486134Y-12612222D02*
X13495658Y-12593174D01*
X13495658Y-12593174D02*
X13514705Y-12583650D01*
X13514705Y-12583650D02*
X13543277Y-12583650D01*
X13543277Y-12583650D02*
X13562324Y-12593174D01*
X13562324Y-12593174D02*
X13571848Y-12612222D01*
X13571848Y-12612222D02*
X13571848Y-12716984D01*
X13667086Y-12716984D02*
X13667086Y-12583650D01*
X13667086Y-12602698D02*
X13676610Y-12593174D01*
X13676610Y-12593174D02*
X13695658Y-12583650D01*
X13695658Y-12583650D02*
X13724229Y-12583650D01*
X13724229Y-12583650D02*
X13743277Y-12593174D01*
X13743277Y-12593174D02*
X13752801Y-12612222D01*
X13752801Y-12612222D02*
X13752801Y-12716984D01*
X13752801Y-12612222D02*
X13762324Y-12593174D01*
X13762324Y-12593174D02*
X13781372Y-12583650D01*
X13781372Y-12583650D02*
X13809943Y-12583650D01*
X13809943Y-12583650D02*
X13828991Y-12593174D01*
X13828991Y-12593174D02*
X13838515Y-12612222D01*
X13838515Y-12612222D02*
X13838515Y-12716984D01*
X14228991Y-12507460D02*
X14057563Y-12764603D01*
X14486134Y-12516984D02*
X14505182Y-12516984D01*
X14505182Y-12516984D02*
X14524229Y-12526508D01*
X14524229Y-12526508D02*
X14533753Y-12536031D01*
X14533753Y-12536031D02*
X14543277Y-12555079D01*
X14543277Y-12555079D02*
X14552801Y-12593174D01*
X14552801Y-12593174D02*
X14552801Y-12640793D01*
X14552801Y-12640793D02*
X14543277Y-12678888D01*
X14543277Y-12678888D02*
X14533753Y-12697936D01*
X14533753Y-12697936D02*
X14524229Y-12707460D01*
X14524229Y-12707460D02*
X14505182Y-12716984D01*
X14505182Y-12716984D02*
X14486134Y-12716984D01*
X14486134Y-12716984D02*
X14467086Y-12707460D01*
X14467086Y-12707460D02*
X14457563Y-12697936D01*
X14457563Y-12697936D02*
X14448039Y-12678888D01*
X14448039Y-12678888D02*
X14438515Y-12640793D01*
X14438515Y-12640793D02*
X14438515Y-12593174D01*
X14438515Y-12593174D02*
X14448039Y-12555079D01*
X14448039Y-12555079D02*
X14457563Y-12536031D01*
X14457563Y-12536031D02*
X14467086Y-12526508D01*
X14467086Y-12526508D02*
X14486134Y-12516984D01*
X14638515Y-12697936D02*
X14648039Y-12707460D01*
X14648039Y-12707460D02*
X14638515Y-12716984D01*
X14638515Y-12716984D02*
X14628991Y-12707460D01*
X14628991Y-12707460D02*
X14638515Y-12697936D01*
X14638515Y-12697936D02*
X14638515Y-12716984D01*
X14771848Y-12516984D02*
X14790896Y-12516984D01*
X14790896Y-12516984D02*
X14809944Y-12526508D01*
X14809944Y-12526508D02*
X14819467Y-12536031D01*
X14819467Y-12536031D02*
X14828991Y-12555079D01*
X14828991Y-12555079D02*
X14838515Y-12593174D01*
X14838515Y-12593174D02*
X14838515Y-12640793D01*
X14838515Y-12640793D02*
X14828991Y-12678888D01*
X14828991Y-12678888D02*
X14819467Y-12697936D01*
X14819467Y-12697936D02*
X14809944Y-12707460D01*
X14809944Y-12707460D02*
X14790896Y-12716984D01*
X14790896Y-12716984D02*
X14771848Y-12716984D01*
X14771848Y-12716984D02*
X14752801Y-12707460D01*
X14752801Y-12707460D02*
X14743277Y-12697936D01*
X14743277Y-12697936D02*
X14733753Y-12678888D01*
X14733753Y-12678888D02*
X14724229Y-12640793D01*
X14724229Y-12640793D02*
X14724229Y-12593174D01*
X14724229Y-12593174D02*
X14733753Y-12555079D01*
X14733753Y-12555079D02*
X14743277Y-12536031D01*
X14743277Y-12536031D02*
X14752801Y-12526508D01*
X14752801Y-12526508D02*
X14771848Y-12516984D01*
X15028991Y-12716984D02*
X14914706Y-12716984D01*
X14971848Y-12716984D02*
X14971848Y-12516984D01*
X14971848Y-12516984D02*
X14952801Y-12545555D01*
X14952801Y-12545555D02*
X14933753Y-12564603D01*
X14933753Y-12564603D02*
X14914706Y-12574127D01*
X15209944Y-12516984D02*
X15114706Y-12516984D01*
X15114706Y-12516984D02*
X15105182Y-12612222D01*
X15105182Y-12612222D02*
X15114706Y-12602698D01*
X15114706Y-12602698D02*
X15133753Y-12593174D01*
X15133753Y-12593174D02*
X15181372Y-12593174D01*
X15181372Y-12593174D02*
X15200420Y-12602698D01*
X15200420Y-12602698D02*
X15209944Y-12612222D01*
X15209944Y-12612222D02*
X15219467Y-12631269D01*
X15219467Y-12631269D02*
X15219467Y-12678888D01*
X15219467Y-12678888D02*
X15209944Y-12697936D01*
X15209944Y-12697936D02*
X15200420Y-12707460D01*
X15200420Y-12707460D02*
X15181372Y-12716984D01*
X15181372Y-12716984D02*
X15133753Y-12716984D01*
X15133753Y-12716984D02*
X15114706Y-12707460D01*
X15114706Y-12707460D02*
X15105182Y-12697936D01*
X15286134Y-12516984D02*
X15419467Y-12516984D01*
X15419467Y-12516984D02*
X15333753Y-12716984D01*
X15486134Y-12516984D02*
X15486134Y-12555079D01*
X15562325Y-12516984D02*
X15562325Y-12555079D01*
X15857563Y-12793174D02*
X15848039Y-12783650D01*
X15848039Y-12783650D02*
X15828991Y-12755079D01*
X15828991Y-12755079D02*
X15819468Y-12736031D01*
X15819468Y-12736031D02*
X15809944Y-12707460D01*
X15809944Y-12707460D02*
X15800420Y-12659841D01*
X15800420Y-12659841D02*
X15800420Y-12621746D01*
X15800420Y-12621746D02*
X15809944Y-12574127D01*
X15809944Y-12574127D02*
X15819468Y-12545555D01*
X15819468Y-12545555D02*
X15828991Y-12526508D01*
X15828991Y-12526508D02*
X15848039Y-12497936D01*
X15848039Y-12497936D02*
X15857563Y-12488412D01*
X15914706Y-12516984D02*
X16038515Y-12516984D01*
X16038515Y-12516984D02*
X15971848Y-12593174D01*
X15971848Y-12593174D02*
X16000420Y-12593174D01*
X16000420Y-12593174D02*
X16019468Y-12602698D01*
X16019468Y-12602698D02*
X16028991Y-12612222D01*
X16028991Y-12612222D02*
X16038515Y-12631269D01*
X16038515Y-12631269D02*
X16038515Y-12678888D01*
X16038515Y-12678888D02*
X16028991Y-12697936D01*
X16028991Y-12697936D02*
X16019468Y-12707460D01*
X16019468Y-12707460D02*
X16000420Y-12716984D01*
X16000420Y-12716984D02*
X15943277Y-12716984D01*
X15943277Y-12716984D02*
X15924229Y-12707460D01*
X15924229Y-12707460D02*
X15914706Y-12697936D01*
X16114706Y-12536031D02*
X16124229Y-12526508D01*
X16124229Y-12526508D02*
X16143277Y-12516984D01*
X16143277Y-12516984D02*
X16190896Y-12516984D01*
X16190896Y-12516984D02*
X16209944Y-12526508D01*
X16209944Y-12526508D02*
X16219468Y-12536031D01*
X16219468Y-12536031D02*
X16228991Y-12555079D01*
X16228991Y-12555079D02*
X16228991Y-12574127D01*
X16228991Y-12574127D02*
X16219468Y-12602698D01*
X16219468Y-12602698D02*
X16105182Y-12716984D01*
X16105182Y-12716984D02*
X16228991Y-12716984D01*
X16467087Y-12716984D02*
X16467087Y-12516984D01*
X16552801Y-12716984D02*
X16552801Y-12612222D01*
X16552801Y-12612222D02*
X16543277Y-12593174D01*
X16543277Y-12593174D02*
X16524230Y-12583650D01*
X16524230Y-12583650D02*
X16495658Y-12583650D01*
X16495658Y-12583650D02*
X16476610Y-12593174D01*
X16476610Y-12593174D02*
X16467087Y-12602698D01*
X16676610Y-12716984D02*
X16657563Y-12707460D01*
X16657563Y-12707460D02*
X16648039Y-12697936D01*
X16648039Y-12697936D02*
X16638515Y-12678888D01*
X16638515Y-12678888D02*
X16638515Y-12621746D01*
X16638515Y-12621746D02*
X16648039Y-12602698D01*
X16648039Y-12602698D02*
X16657563Y-12593174D01*
X16657563Y-12593174D02*
X16676610Y-12583650D01*
X16676610Y-12583650D02*
X16705182Y-12583650D01*
X16705182Y-12583650D02*
X16724230Y-12593174D01*
X16724230Y-12593174D02*
X16733753Y-12602698D01*
X16733753Y-12602698D02*
X16743277Y-12621746D01*
X16743277Y-12621746D02*
X16743277Y-12678888D01*
X16743277Y-12678888D02*
X16733753Y-12697936D01*
X16733753Y-12697936D02*
X16724230Y-12707460D01*
X16724230Y-12707460D02*
X16705182Y-12716984D01*
X16705182Y-12716984D02*
X16676610Y-12716984D01*
X16857563Y-12716984D02*
X16838515Y-12707460D01*
X16838515Y-12707460D02*
X16828992Y-12688412D01*
X16828992Y-12688412D02*
X16828992Y-12516984D01*
X17009944Y-12707460D02*
X16990896Y-12716984D01*
X16990896Y-12716984D02*
X16952801Y-12716984D01*
X16952801Y-12716984D02*
X16933753Y-12707460D01*
X16933753Y-12707460D02*
X16924230Y-12688412D01*
X16924230Y-12688412D02*
X16924230Y-12612222D01*
X16924230Y-12612222D02*
X16933753Y-12593174D01*
X16933753Y-12593174D02*
X16952801Y-12583650D01*
X16952801Y-12583650D02*
X16990896Y-12583650D01*
X16990896Y-12583650D02*
X17009944Y-12593174D01*
X17009944Y-12593174D02*
X17019468Y-12612222D01*
X17019468Y-12612222D02*
X17019468Y-12631269D01*
X17019468Y-12631269D02*
X16924230Y-12650317D01*
X17095658Y-12707460D02*
X17114706Y-12716984D01*
X17114706Y-12716984D02*
X17152801Y-12716984D01*
X17152801Y-12716984D02*
X17171849Y-12707460D01*
X17171849Y-12707460D02*
X17181373Y-12688412D01*
X17181373Y-12688412D02*
X17181373Y-12678888D01*
X17181373Y-12678888D02*
X17171849Y-12659841D01*
X17171849Y-12659841D02*
X17152801Y-12650317D01*
X17152801Y-12650317D02*
X17124230Y-12650317D01*
X17124230Y-12650317D02*
X17105182Y-12640793D01*
X17105182Y-12640793D02*
X17095658Y-12621746D01*
X17095658Y-12621746D02*
X17095658Y-12612222D01*
X17095658Y-12612222D02*
X17105182Y-12593174D01*
X17105182Y-12593174D02*
X17124230Y-12583650D01*
X17124230Y-12583650D02*
X17152801Y-12583650D01*
X17152801Y-12583650D02*
X17171849Y-12593174D01*
X17248039Y-12793174D02*
X17257563Y-12783650D01*
X17257563Y-12783650D02*
X17276611Y-12755079D01*
X17276611Y-12755079D02*
X17286134Y-12736031D01*
X17286134Y-12736031D02*
X17295658Y-12707460D01*
X17295658Y-12707460D02*
X17305182Y-12659841D01*
X17305182Y-12659841D02*
X17305182Y-12621746D01*
X17305182Y-12621746D02*
X17295658Y-12574127D01*
X17295658Y-12574127D02*
X17286134Y-12545555D01*
X17286134Y-12545555D02*
X17276611Y-12526508D01*
X17276611Y-12526508D02*
X17257563Y-12497936D01*
X17257563Y-12497936D02*
X17248039Y-12488412D01*
D12*
X12282500Y-12889500D02*
G75*
G02*
X12208500Y-12889500I-37000J0D01*
G01*
X12208500Y-12889500D02*
G75*
G02*
X12282500Y-12889500I37000J0D01*
G01*
D11*
X12581372Y-12780984D02*
X12600420Y-12780984D01*
X12600420Y-12780984D02*
X12619467Y-12790508D01*
X12619467Y-12790508D02*
X12628991Y-12800031D01*
X12628991Y-12800031D02*
X12638515Y-12819079D01*
X12638515Y-12819079D02*
X12648039Y-12857174D01*
X12648039Y-12857174D02*
X12648039Y-12904793D01*
X12648039Y-12904793D02*
X12638515Y-12942888D01*
X12638515Y-12942888D02*
X12628991Y-12961936D01*
X12628991Y-12961936D02*
X12619467Y-12971460D01*
X12619467Y-12971460D02*
X12600420Y-12980984D01*
X12600420Y-12980984D02*
X12581372Y-12980984D01*
X12581372Y-12980984D02*
X12562324Y-12971460D01*
X12562324Y-12971460D02*
X12552801Y-12961936D01*
X12552801Y-12961936D02*
X12543277Y-12942888D01*
X12543277Y-12942888D02*
X12533753Y-12904793D01*
X12533753Y-12904793D02*
X12533753Y-12857174D01*
X12533753Y-12857174D02*
X12543277Y-12819079D01*
X12543277Y-12819079D02*
X12552801Y-12800031D01*
X12552801Y-12800031D02*
X12562324Y-12790508D01*
X12562324Y-12790508D02*
X12581372Y-12780984D01*
X12733753Y-12961936D02*
X12743277Y-12971460D01*
X12743277Y-12971460D02*
X12733753Y-12980984D01*
X12733753Y-12980984D02*
X12724229Y-12971460D01*
X12724229Y-12971460D02*
X12733753Y-12961936D01*
X12733753Y-12961936D02*
X12733753Y-12980984D01*
X12809943Y-12780984D02*
X12943277Y-12780984D01*
X12943277Y-12780984D02*
X12857562Y-12980984D01*
X13105182Y-12847650D02*
X13105182Y-12980984D01*
X13057562Y-12771460D02*
X13009943Y-12914317D01*
X13009943Y-12914317D02*
X13133753Y-12914317D01*
X13248039Y-12780984D02*
X13267086Y-12780984D01*
X13267086Y-12780984D02*
X13286134Y-12790508D01*
X13286134Y-12790508D02*
X13295658Y-12800031D01*
X13295658Y-12800031D02*
X13305182Y-12819079D01*
X13305182Y-12819079D02*
X13314705Y-12857174D01*
X13314705Y-12857174D02*
X13314705Y-12904793D01*
X13314705Y-12904793D02*
X13305182Y-12942888D01*
X13305182Y-12942888D02*
X13295658Y-12961936D01*
X13295658Y-12961936D02*
X13286134Y-12971460D01*
X13286134Y-12971460D02*
X13267086Y-12980984D01*
X13267086Y-12980984D02*
X13248039Y-12980984D01*
X13248039Y-12980984D02*
X13228991Y-12971460D01*
X13228991Y-12971460D02*
X13219467Y-12961936D01*
X13219467Y-12961936D02*
X13209943Y-12942888D01*
X13209943Y-12942888D02*
X13200420Y-12904793D01*
X13200420Y-12904793D02*
X13200420Y-12857174D01*
X13200420Y-12857174D02*
X13209943Y-12819079D01*
X13209943Y-12819079D02*
X13219467Y-12800031D01*
X13219467Y-12800031D02*
X13228991Y-12790508D01*
X13228991Y-12790508D02*
X13248039Y-12780984D01*
X13400420Y-12980984D02*
X13400420Y-12847650D01*
X13400420Y-12866698D02*
X13409943Y-12857174D01*
X13409943Y-12857174D02*
X13428991Y-12847650D01*
X13428991Y-12847650D02*
X13457563Y-12847650D01*
X13457563Y-12847650D02*
X13476610Y-12857174D01*
X13476610Y-12857174D02*
X13486134Y-12876222D01*
X13486134Y-12876222D02*
X13486134Y-12980984D01*
X13486134Y-12876222D02*
X13495658Y-12857174D01*
X13495658Y-12857174D02*
X13514705Y-12847650D01*
X13514705Y-12847650D02*
X13543277Y-12847650D01*
X13543277Y-12847650D02*
X13562324Y-12857174D01*
X13562324Y-12857174D02*
X13571848Y-12876222D01*
X13571848Y-12876222D02*
X13571848Y-12980984D01*
X13667086Y-12980984D02*
X13667086Y-12847650D01*
X13667086Y-12866698D02*
X13676610Y-12857174D01*
X13676610Y-12857174D02*
X13695658Y-12847650D01*
X13695658Y-12847650D02*
X13724229Y-12847650D01*
X13724229Y-12847650D02*
X13743277Y-12857174D01*
X13743277Y-12857174D02*
X13752801Y-12876222D01*
X13752801Y-12876222D02*
X13752801Y-12980984D01*
X13752801Y-12876222D02*
X13762324Y-12857174D01*
X13762324Y-12857174D02*
X13781372Y-12847650D01*
X13781372Y-12847650D02*
X13809943Y-12847650D01*
X13809943Y-12847650D02*
X13828991Y-12857174D01*
X13828991Y-12857174D02*
X13838515Y-12876222D01*
X13838515Y-12876222D02*
X13838515Y-12980984D01*
X14228991Y-12771460D02*
X14057563Y-13028603D01*
X14486134Y-12780984D02*
X14505182Y-12780984D01*
X14505182Y-12780984D02*
X14524229Y-12790508D01*
X14524229Y-12790508D02*
X14533753Y-12800031D01*
X14533753Y-12800031D02*
X14543277Y-12819079D01*
X14543277Y-12819079D02*
X14552801Y-12857174D01*
X14552801Y-12857174D02*
X14552801Y-12904793D01*
X14552801Y-12904793D02*
X14543277Y-12942888D01*
X14543277Y-12942888D02*
X14533753Y-12961936D01*
X14533753Y-12961936D02*
X14524229Y-12971460D01*
X14524229Y-12971460D02*
X14505182Y-12980984D01*
X14505182Y-12980984D02*
X14486134Y-12980984D01*
X14486134Y-12980984D02*
X14467086Y-12971460D01*
X14467086Y-12971460D02*
X14457563Y-12961936D01*
X14457563Y-12961936D02*
X14448039Y-12942888D01*
X14448039Y-12942888D02*
X14438515Y-12904793D01*
X14438515Y-12904793D02*
X14438515Y-12857174D01*
X14438515Y-12857174D02*
X14448039Y-12819079D01*
X14448039Y-12819079D02*
X14457563Y-12800031D01*
X14457563Y-12800031D02*
X14467086Y-12790508D01*
X14467086Y-12790508D02*
X14486134Y-12780984D01*
X14638515Y-12961936D02*
X14648039Y-12971460D01*
X14648039Y-12971460D02*
X14638515Y-12980984D01*
X14638515Y-12980984D02*
X14628991Y-12971460D01*
X14628991Y-12971460D02*
X14638515Y-12961936D01*
X14638515Y-12961936D02*
X14638515Y-12980984D01*
X14771848Y-12780984D02*
X14790896Y-12780984D01*
X14790896Y-12780984D02*
X14809944Y-12790508D01*
X14809944Y-12790508D02*
X14819467Y-12800031D01*
X14819467Y-12800031D02*
X14828991Y-12819079D01*
X14828991Y-12819079D02*
X14838515Y-12857174D01*
X14838515Y-12857174D02*
X14838515Y-12904793D01*
X14838515Y-12904793D02*
X14828991Y-12942888D01*
X14828991Y-12942888D02*
X14819467Y-12961936D01*
X14819467Y-12961936D02*
X14809944Y-12971460D01*
X14809944Y-12971460D02*
X14790896Y-12980984D01*
X14790896Y-12980984D02*
X14771848Y-12980984D01*
X14771848Y-12980984D02*
X14752801Y-12971460D01*
X14752801Y-12971460D02*
X14743277Y-12961936D01*
X14743277Y-12961936D02*
X14733753Y-12942888D01*
X14733753Y-12942888D02*
X14724229Y-12904793D01*
X14724229Y-12904793D02*
X14724229Y-12857174D01*
X14724229Y-12857174D02*
X14733753Y-12819079D01*
X14733753Y-12819079D02*
X14743277Y-12800031D01*
X14743277Y-12800031D02*
X14752801Y-12790508D01*
X14752801Y-12790508D02*
X14771848Y-12780984D01*
X14914706Y-12800031D02*
X14924229Y-12790508D01*
X14924229Y-12790508D02*
X14943277Y-12780984D01*
X14943277Y-12780984D02*
X14990896Y-12780984D01*
X14990896Y-12780984D02*
X15009944Y-12790508D01*
X15009944Y-12790508D02*
X15019467Y-12800031D01*
X15019467Y-12800031D02*
X15028991Y-12819079D01*
X15028991Y-12819079D02*
X15028991Y-12838127D01*
X15028991Y-12838127D02*
X15019467Y-12866698D01*
X15019467Y-12866698D02*
X14905182Y-12980984D01*
X14905182Y-12980984D02*
X15028991Y-12980984D01*
X15124229Y-12980984D02*
X15162325Y-12980984D01*
X15162325Y-12980984D02*
X15181372Y-12971460D01*
X15181372Y-12971460D02*
X15190896Y-12961936D01*
X15190896Y-12961936D02*
X15209944Y-12933365D01*
X15209944Y-12933365D02*
X15219467Y-12895269D01*
X15219467Y-12895269D02*
X15219467Y-12819079D01*
X15219467Y-12819079D02*
X15209944Y-12800031D01*
X15209944Y-12800031D02*
X15200420Y-12790508D01*
X15200420Y-12790508D02*
X15181372Y-12780984D01*
X15181372Y-12780984D02*
X15143277Y-12780984D01*
X15143277Y-12780984D02*
X15124229Y-12790508D01*
X15124229Y-12790508D02*
X15114706Y-12800031D01*
X15114706Y-12800031D02*
X15105182Y-12819079D01*
X15105182Y-12819079D02*
X15105182Y-12866698D01*
X15105182Y-12866698D02*
X15114706Y-12885746D01*
X15114706Y-12885746D02*
X15124229Y-12895269D01*
X15124229Y-12895269D02*
X15143277Y-12904793D01*
X15143277Y-12904793D02*
X15181372Y-12904793D01*
X15181372Y-12904793D02*
X15200420Y-12895269D01*
X15200420Y-12895269D02*
X15209944Y-12885746D01*
X15209944Y-12885746D02*
X15219467Y-12866698D01*
X15409944Y-12980984D02*
X15295658Y-12980984D01*
X15352801Y-12980984D02*
X15352801Y-12780984D01*
X15352801Y-12780984D02*
X15333753Y-12809555D01*
X15333753Y-12809555D02*
X15314706Y-12828603D01*
X15314706Y-12828603D02*
X15295658Y-12838127D01*
X15486134Y-12780984D02*
X15486134Y-12819079D01*
X15562325Y-12780984D02*
X15562325Y-12819079D01*
X15857563Y-13057174D02*
X15848039Y-13047650D01*
X15848039Y-13047650D02*
X15828991Y-13019079D01*
X15828991Y-13019079D02*
X15819468Y-13000031D01*
X15819468Y-13000031D02*
X15809944Y-12971460D01*
X15809944Y-12971460D02*
X15800420Y-12923841D01*
X15800420Y-12923841D02*
X15800420Y-12885746D01*
X15800420Y-12885746D02*
X15809944Y-12838127D01*
X15809944Y-12838127D02*
X15819468Y-12809555D01*
X15819468Y-12809555D02*
X15828991Y-12790508D01*
X15828991Y-12790508D02*
X15848039Y-12761936D01*
X15848039Y-12761936D02*
X15857563Y-12752412D01*
X15914706Y-12780984D02*
X16038515Y-12780984D01*
X16038515Y-12780984D02*
X15971848Y-12857174D01*
X15971848Y-12857174D02*
X16000420Y-12857174D01*
X16000420Y-12857174D02*
X16019468Y-12866698D01*
X16019468Y-12866698D02*
X16028991Y-12876222D01*
X16028991Y-12876222D02*
X16038515Y-12895269D01*
X16038515Y-12895269D02*
X16038515Y-12942888D01*
X16038515Y-12942888D02*
X16028991Y-12961936D01*
X16028991Y-12961936D02*
X16019468Y-12971460D01*
X16019468Y-12971460D02*
X16000420Y-12980984D01*
X16000420Y-12980984D02*
X15943277Y-12980984D01*
X15943277Y-12980984D02*
X15924229Y-12971460D01*
X15924229Y-12971460D02*
X15914706Y-12961936D01*
X16276610Y-12980984D02*
X16276610Y-12780984D01*
X16362325Y-12980984D02*
X16362325Y-12876222D01*
X16362325Y-12876222D02*
X16352801Y-12857174D01*
X16352801Y-12857174D02*
X16333753Y-12847650D01*
X16333753Y-12847650D02*
X16305182Y-12847650D01*
X16305182Y-12847650D02*
X16286134Y-12857174D01*
X16286134Y-12857174D02*
X16276610Y-12866698D01*
X16486134Y-12980984D02*
X16467087Y-12971460D01*
X16467087Y-12971460D02*
X16457563Y-12961936D01*
X16457563Y-12961936D02*
X16448039Y-12942888D01*
X16448039Y-12942888D02*
X16448039Y-12885746D01*
X16448039Y-12885746D02*
X16457563Y-12866698D01*
X16457563Y-12866698D02*
X16467087Y-12857174D01*
X16467087Y-12857174D02*
X16486134Y-12847650D01*
X16486134Y-12847650D02*
X16514706Y-12847650D01*
X16514706Y-12847650D02*
X16533753Y-12857174D01*
X16533753Y-12857174D02*
X16543277Y-12866698D01*
X16543277Y-12866698D02*
X16552801Y-12885746D01*
X16552801Y-12885746D02*
X16552801Y-12942888D01*
X16552801Y-12942888D02*
X16543277Y-12961936D01*
X16543277Y-12961936D02*
X16533753Y-12971460D01*
X16533753Y-12971460D02*
X16514706Y-12980984D01*
X16514706Y-12980984D02*
X16486134Y-12980984D01*
X16667087Y-12980984D02*
X16648039Y-12971460D01*
X16648039Y-12971460D02*
X16638515Y-12952412D01*
X16638515Y-12952412D02*
X16638515Y-12780984D01*
X16819468Y-12971460D02*
X16800420Y-12980984D01*
X16800420Y-12980984D02*
X16762325Y-12980984D01*
X16762325Y-12980984D02*
X16743277Y-12971460D01*
X16743277Y-12971460D02*
X16733753Y-12952412D01*
X16733753Y-12952412D02*
X16733753Y-12876222D01*
X16733753Y-12876222D02*
X16743277Y-12857174D01*
X16743277Y-12857174D02*
X16762325Y-12847650D01*
X16762325Y-12847650D02*
X16800420Y-12847650D01*
X16800420Y-12847650D02*
X16819468Y-12857174D01*
X16819468Y-12857174D02*
X16828992Y-12876222D01*
X16828992Y-12876222D02*
X16828992Y-12895269D01*
X16828992Y-12895269D02*
X16733753Y-12914317D01*
X16905182Y-12971460D02*
X16924230Y-12980984D01*
X16924230Y-12980984D02*
X16962325Y-12980984D01*
X16962325Y-12980984D02*
X16981373Y-12971460D01*
X16981373Y-12971460D02*
X16990896Y-12952412D01*
X16990896Y-12952412D02*
X16990896Y-12942888D01*
X16990896Y-12942888D02*
X16981373Y-12923841D01*
X16981373Y-12923841D02*
X16962325Y-12914317D01*
X16962325Y-12914317D02*
X16933753Y-12914317D01*
X16933753Y-12914317D02*
X16914706Y-12904793D01*
X16914706Y-12904793D02*
X16905182Y-12885746D01*
X16905182Y-12885746D02*
X16905182Y-12876222D01*
X16905182Y-12876222D02*
X16914706Y-12857174D01*
X16914706Y-12857174D02*
X16933753Y-12847650D01*
X16933753Y-12847650D02*
X16962325Y-12847650D01*
X16962325Y-12847650D02*
X16981373Y-12857174D01*
X17057563Y-13057174D02*
X17067087Y-13047650D01*
X17067087Y-13047650D02*
X17086134Y-13019079D01*
X17086134Y-13019079D02*
X17095658Y-13000031D01*
X17095658Y-13000031D02*
X17105182Y-12971460D01*
X17105182Y-12971460D02*
X17114706Y-12923841D01*
X17114706Y-12923841D02*
X17114706Y-12885746D01*
X17114706Y-12885746D02*
X17105182Y-12838127D01*
X17105182Y-12838127D02*
X17095658Y-12809555D01*
X17095658Y-12809555D02*
X17086134Y-12790508D01*
X17086134Y-12790508D02*
X17067087Y-12761936D01*
X17067087Y-12761936D02*
X17057563Y-12752412D01*
D12*
X12245000Y-13116000D02*
X12245000Y-13191000D01*
X12207500Y-13153500D02*
X12282500Y-13153500D01*
D11*
X12581372Y-13044984D02*
X12600420Y-13044984D01*
X12600420Y-13044984D02*
X12619467Y-13054508D01*
X12619467Y-13054508D02*
X12628991Y-13064031D01*
X12628991Y-13064031D02*
X12638515Y-13083079D01*
X12638515Y-13083079D02*
X12648039Y-13121174D01*
X12648039Y-13121174D02*
X12648039Y-13168793D01*
X12648039Y-13168793D02*
X12638515Y-13206888D01*
X12638515Y-13206888D02*
X12628991Y-13225936D01*
X12628991Y-13225936D02*
X12619467Y-13235460D01*
X12619467Y-13235460D02*
X12600420Y-13244984D01*
X12600420Y-13244984D02*
X12581372Y-13244984D01*
X12581372Y-13244984D02*
X12562324Y-13235460D01*
X12562324Y-13235460D02*
X12552801Y-13225936D01*
X12552801Y-13225936D02*
X12543277Y-13206888D01*
X12543277Y-13206888D02*
X12533753Y-13168793D01*
X12533753Y-13168793D02*
X12533753Y-13121174D01*
X12533753Y-13121174D02*
X12543277Y-13083079D01*
X12543277Y-13083079D02*
X12552801Y-13064031D01*
X12552801Y-13064031D02*
X12562324Y-13054508D01*
X12562324Y-13054508D02*
X12581372Y-13044984D01*
X12733753Y-13225936D02*
X12743277Y-13235460D01*
X12743277Y-13235460D02*
X12733753Y-13244984D01*
X12733753Y-13244984D02*
X12724229Y-13235460D01*
X12724229Y-13235460D02*
X12733753Y-13225936D01*
X12733753Y-13225936D02*
X12733753Y-13244984D01*
X12809943Y-13044984D02*
X12943277Y-13044984D01*
X12943277Y-13044984D02*
X12857562Y-13244984D01*
X13114705Y-13044984D02*
X13019467Y-13044984D01*
X13019467Y-13044984D02*
X13009943Y-13140222D01*
X13009943Y-13140222D02*
X13019467Y-13130698D01*
X13019467Y-13130698D02*
X13038515Y-13121174D01*
X13038515Y-13121174D02*
X13086134Y-13121174D01*
X13086134Y-13121174D02*
X13105182Y-13130698D01*
X13105182Y-13130698D02*
X13114705Y-13140222D01*
X13114705Y-13140222D02*
X13124229Y-13159269D01*
X13124229Y-13159269D02*
X13124229Y-13206888D01*
X13124229Y-13206888D02*
X13114705Y-13225936D01*
X13114705Y-13225936D02*
X13105182Y-13235460D01*
X13105182Y-13235460D02*
X13086134Y-13244984D01*
X13086134Y-13244984D02*
X13038515Y-13244984D01*
X13038515Y-13244984D02*
X13019467Y-13235460D01*
X13019467Y-13235460D02*
X13009943Y-13225936D01*
X13248039Y-13044984D02*
X13267086Y-13044984D01*
X13267086Y-13044984D02*
X13286134Y-13054508D01*
X13286134Y-13054508D02*
X13295658Y-13064031D01*
X13295658Y-13064031D02*
X13305182Y-13083079D01*
X13305182Y-13083079D02*
X13314705Y-13121174D01*
X13314705Y-13121174D02*
X13314705Y-13168793D01*
X13314705Y-13168793D02*
X13305182Y-13206888D01*
X13305182Y-13206888D02*
X13295658Y-13225936D01*
X13295658Y-13225936D02*
X13286134Y-13235460D01*
X13286134Y-13235460D02*
X13267086Y-13244984D01*
X13267086Y-13244984D02*
X13248039Y-13244984D01*
X13248039Y-13244984D02*
X13228991Y-13235460D01*
X13228991Y-13235460D02*
X13219467Y-13225936D01*
X13219467Y-13225936D02*
X13209943Y-13206888D01*
X13209943Y-13206888D02*
X13200420Y-13168793D01*
X13200420Y-13168793D02*
X13200420Y-13121174D01*
X13200420Y-13121174D02*
X13209943Y-13083079D01*
X13209943Y-13083079D02*
X13219467Y-13064031D01*
X13219467Y-13064031D02*
X13228991Y-13054508D01*
X13228991Y-13054508D02*
X13248039Y-13044984D01*
X13400420Y-13244984D02*
X13400420Y-13111650D01*
X13400420Y-13130698D02*
X13409943Y-13121174D01*
X13409943Y-13121174D02*
X13428991Y-13111650D01*
X13428991Y-13111650D02*
X13457563Y-13111650D01*
X13457563Y-13111650D02*
X13476610Y-13121174D01*
X13476610Y-13121174D02*
X13486134Y-13140222D01*
X13486134Y-13140222D02*
X13486134Y-13244984D01*
X13486134Y-13140222D02*
X13495658Y-13121174D01*
X13495658Y-13121174D02*
X13514705Y-13111650D01*
X13514705Y-13111650D02*
X13543277Y-13111650D01*
X13543277Y-13111650D02*
X13562324Y-13121174D01*
X13562324Y-13121174D02*
X13571848Y-13140222D01*
X13571848Y-13140222D02*
X13571848Y-13244984D01*
X13667086Y-13244984D02*
X13667086Y-13111650D01*
X13667086Y-13130698D02*
X13676610Y-13121174D01*
X13676610Y-13121174D02*
X13695658Y-13111650D01*
X13695658Y-13111650D02*
X13724229Y-13111650D01*
X13724229Y-13111650D02*
X13743277Y-13121174D01*
X13743277Y-13121174D02*
X13752801Y-13140222D01*
X13752801Y-13140222D02*
X13752801Y-13244984D01*
X13752801Y-13140222D02*
X13762324Y-13121174D01*
X13762324Y-13121174D02*
X13781372Y-13111650D01*
X13781372Y-13111650D02*
X13809943Y-13111650D01*
X13809943Y-13111650D02*
X13828991Y-13121174D01*
X13828991Y-13121174D02*
X13838515Y-13140222D01*
X13838515Y-13140222D02*
X13838515Y-13244984D01*
X14228991Y-13035460D02*
X14057563Y-13292603D01*
X14486134Y-13044984D02*
X14505182Y-13044984D01*
X14505182Y-13044984D02*
X14524229Y-13054508D01*
X14524229Y-13054508D02*
X14533753Y-13064031D01*
X14533753Y-13064031D02*
X14543277Y-13083079D01*
X14543277Y-13083079D02*
X14552801Y-13121174D01*
X14552801Y-13121174D02*
X14552801Y-13168793D01*
X14552801Y-13168793D02*
X14543277Y-13206888D01*
X14543277Y-13206888D02*
X14533753Y-13225936D01*
X14533753Y-13225936D02*
X14524229Y-13235460D01*
X14524229Y-13235460D02*
X14505182Y-13244984D01*
X14505182Y-13244984D02*
X14486134Y-13244984D01*
X14486134Y-13244984D02*
X14467086Y-13235460D01*
X14467086Y-13235460D02*
X14457563Y-13225936D01*
X14457563Y-13225936D02*
X14448039Y-13206888D01*
X14448039Y-13206888D02*
X14438515Y-13168793D01*
X14438515Y-13168793D02*
X14438515Y-13121174D01*
X14438515Y-13121174D02*
X14448039Y-13083079D01*
X14448039Y-13083079D02*
X14457563Y-13064031D01*
X14457563Y-13064031D02*
X14467086Y-13054508D01*
X14467086Y-13054508D02*
X14486134Y-13044984D01*
X14638515Y-13225936D02*
X14648039Y-13235460D01*
X14648039Y-13235460D02*
X14638515Y-13244984D01*
X14638515Y-13244984D02*
X14628991Y-13235460D01*
X14628991Y-13235460D02*
X14638515Y-13225936D01*
X14638515Y-13225936D02*
X14638515Y-13244984D01*
X14771848Y-13044984D02*
X14790896Y-13044984D01*
X14790896Y-13044984D02*
X14809944Y-13054508D01*
X14809944Y-13054508D02*
X14819467Y-13064031D01*
X14819467Y-13064031D02*
X14828991Y-13083079D01*
X14828991Y-13083079D02*
X14838515Y-13121174D01*
X14838515Y-13121174D02*
X14838515Y-13168793D01*
X14838515Y-13168793D02*
X14828991Y-13206888D01*
X14828991Y-13206888D02*
X14819467Y-13225936D01*
X14819467Y-13225936D02*
X14809944Y-13235460D01*
X14809944Y-13235460D02*
X14790896Y-13244984D01*
X14790896Y-13244984D02*
X14771848Y-13244984D01*
X14771848Y-13244984D02*
X14752801Y-13235460D01*
X14752801Y-13235460D02*
X14743277Y-13225936D01*
X14743277Y-13225936D02*
X14733753Y-13206888D01*
X14733753Y-13206888D02*
X14724229Y-13168793D01*
X14724229Y-13168793D02*
X14724229Y-13121174D01*
X14724229Y-13121174D02*
X14733753Y-13083079D01*
X14733753Y-13083079D02*
X14743277Y-13064031D01*
X14743277Y-13064031D02*
X14752801Y-13054508D01*
X14752801Y-13054508D02*
X14771848Y-13044984D01*
X14914706Y-13064031D02*
X14924229Y-13054508D01*
X14924229Y-13054508D02*
X14943277Y-13044984D01*
X14943277Y-13044984D02*
X14990896Y-13044984D01*
X14990896Y-13044984D02*
X15009944Y-13054508D01*
X15009944Y-13054508D02*
X15019467Y-13064031D01*
X15019467Y-13064031D02*
X15028991Y-13083079D01*
X15028991Y-13083079D02*
X15028991Y-13102127D01*
X15028991Y-13102127D02*
X15019467Y-13130698D01*
X15019467Y-13130698D02*
X14905182Y-13244984D01*
X14905182Y-13244984D02*
X15028991Y-13244984D01*
X15124229Y-13244984D02*
X15162325Y-13244984D01*
X15162325Y-13244984D02*
X15181372Y-13235460D01*
X15181372Y-13235460D02*
X15190896Y-13225936D01*
X15190896Y-13225936D02*
X15209944Y-13197365D01*
X15209944Y-13197365D02*
X15219467Y-13159269D01*
X15219467Y-13159269D02*
X15219467Y-13083079D01*
X15219467Y-13083079D02*
X15209944Y-13064031D01*
X15209944Y-13064031D02*
X15200420Y-13054508D01*
X15200420Y-13054508D02*
X15181372Y-13044984D01*
X15181372Y-13044984D02*
X15143277Y-13044984D01*
X15143277Y-13044984D02*
X15124229Y-13054508D01*
X15124229Y-13054508D02*
X15114706Y-13064031D01*
X15114706Y-13064031D02*
X15105182Y-13083079D01*
X15105182Y-13083079D02*
X15105182Y-13130698D01*
X15105182Y-13130698D02*
X15114706Y-13149746D01*
X15114706Y-13149746D02*
X15124229Y-13159269D01*
X15124229Y-13159269D02*
X15143277Y-13168793D01*
X15143277Y-13168793D02*
X15181372Y-13168793D01*
X15181372Y-13168793D02*
X15200420Y-13159269D01*
X15200420Y-13159269D02*
X15209944Y-13149746D01*
X15209944Y-13149746D02*
X15219467Y-13130698D01*
X15400420Y-13044984D02*
X15305182Y-13044984D01*
X15305182Y-13044984D02*
X15295658Y-13140222D01*
X15295658Y-13140222D02*
X15305182Y-13130698D01*
X15305182Y-13130698D02*
X15324229Y-13121174D01*
X15324229Y-13121174D02*
X15371848Y-13121174D01*
X15371848Y-13121174D02*
X15390896Y-13130698D01*
X15390896Y-13130698D02*
X15400420Y-13140222D01*
X15400420Y-13140222D02*
X15409944Y-13159269D01*
X15409944Y-13159269D02*
X15409944Y-13206888D01*
X15409944Y-13206888D02*
X15400420Y-13225936D01*
X15400420Y-13225936D02*
X15390896Y-13235460D01*
X15390896Y-13235460D02*
X15371848Y-13244984D01*
X15371848Y-13244984D02*
X15324229Y-13244984D01*
X15324229Y-13244984D02*
X15305182Y-13235460D01*
X15305182Y-13235460D02*
X15295658Y-13225936D01*
X15486134Y-13044984D02*
X15486134Y-13083079D01*
X15562325Y-13044984D02*
X15562325Y-13083079D01*
X15857563Y-13321174D02*
X15848039Y-13311650D01*
X15848039Y-13311650D02*
X15828991Y-13283079D01*
X15828991Y-13283079D02*
X15819468Y-13264031D01*
X15819468Y-13264031D02*
X15809944Y-13235460D01*
X15809944Y-13235460D02*
X15800420Y-13187841D01*
X15800420Y-13187841D02*
X15800420Y-13149746D01*
X15800420Y-13149746D02*
X15809944Y-13102127D01*
X15809944Y-13102127D02*
X15819468Y-13073555D01*
X15819468Y-13073555D02*
X15828991Y-13054508D01*
X15828991Y-13054508D02*
X15848039Y-13025936D01*
X15848039Y-13025936D02*
X15857563Y-13016412D01*
X15943277Y-13244984D02*
X15981372Y-13244984D01*
X15981372Y-13244984D02*
X16000420Y-13235460D01*
X16000420Y-13235460D02*
X16009944Y-13225936D01*
X16009944Y-13225936D02*
X16028991Y-13197365D01*
X16028991Y-13197365D02*
X16038515Y-13159269D01*
X16038515Y-13159269D02*
X16038515Y-13083079D01*
X16038515Y-13083079D02*
X16028991Y-13064031D01*
X16028991Y-13064031D02*
X16019468Y-13054508D01*
X16019468Y-13054508D02*
X16000420Y-13044984D01*
X16000420Y-13044984D02*
X15962325Y-13044984D01*
X15962325Y-13044984D02*
X15943277Y-13054508D01*
X15943277Y-13054508D02*
X15933753Y-13064031D01*
X15933753Y-13064031D02*
X15924229Y-13083079D01*
X15924229Y-13083079D02*
X15924229Y-13130698D01*
X15924229Y-13130698D02*
X15933753Y-13149746D01*
X15933753Y-13149746D02*
X15943277Y-13159269D01*
X15943277Y-13159269D02*
X15962325Y-13168793D01*
X15962325Y-13168793D02*
X16000420Y-13168793D01*
X16000420Y-13168793D02*
X16019468Y-13159269D01*
X16019468Y-13159269D02*
X16028991Y-13149746D01*
X16028991Y-13149746D02*
X16038515Y-13130698D01*
X16276610Y-13244984D02*
X16276610Y-13044984D01*
X16362325Y-13244984D02*
X16362325Y-13140222D01*
X16362325Y-13140222D02*
X16352801Y-13121174D01*
X16352801Y-13121174D02*
X16333753Y-13111650D01*
X16333753Y-13111650D02*
X16305182Y-13111650D01*
X16305182Y-13111650D02*
X16286134Y-13121174D01*
X16286134Y-13121174D02*
X16276610Y-13130698D01*
X16486134Y-13244984D02*
X16467087Y-13235460D01*
X16467087Y-13235460D02*
X16457563Y-13225936D01*
X16457563Y-13225936D02*
X16448039Y-13206888D01*
X16448039Y-13206888D02*
X16448039Y-13149746D01*
X16448039Y-13149746D02*
X16457563Y-13130698D01*
X16457563Y-13130698D02*
X16467087Y-13121174D01*
X16467087Y-13121174D02*
X16486134Y-13111650D01*
X16486134Y-13111650D02*
X16514706Y-13111650D01*
X16514706Y-13111650D02*
X16533753Y-13121174D01*
X16533753Y-13121174D02*
X16543277Y-13130698D01*
X16543277Y-13130698D02*
X16552801Y-13149746D01*
X16552801Y-13149746D02*
X16552801Y-13206888D01*
X16552801Y-13206888D02*
X16543277Y-13225936D01*
X16543277Y-13225936D02*
X16533753Y-13235460D01*
X16533753Y-13235460D02*
X16514706Y-13244984D01*
X16514706Y-13244984D02*
X16486134Y-13244984D01*
X16667087Y-13244984D02*
X16648039Y-13235460D01*
X16648039Y-13235460D02*
X16638515Y-13216412D01*
X16638515Y-13216412D02*
X16638515Y-13044984D01*
X16819468Y-13235460D02*
X16800420Y-13244984D01*
X16800420Y-13244984D02*
X16762325Y-13244984D01*
X16762325Y-13244984D02*
X16743277Y-13235460D01*
X16743277Y-13235460D02*
X16733753Y-13216412D01*
X16733753Y-13216412D02*
X16733753Y-13140222D01*
X16733753Y-13140222D02*
X16743277Y-13121174D01*
X16743277Y-13121174D02*
X16762325Y-13111650D01*
X16762325Y-13111650D02*
X16800420Y-13111650D01*
X16800420Y-13111650D02*
X16819468Y-13121174D01*
X16819468Y-13121174D02*
X16828992Y-13140222D01*
X16828992Y-13140222D02*
X16828992Y-13159269D01*
X16828992Y-13159269D02*
X16733753Y-13178317D01*
X16905182Y-13235460D02*
X16924230Y-13244984D01*
X16924230Y-13244984D02*
X16962325Y-13244984D01*
X16962325Y-13244984D02*
X16981373Y-13235460D01*
X16981373Y-13235460D02*
X16990896Y-13216412D01*
X16990896Y-13216412D02*
X16990896Y-13206888D01*
X16990896Y-13206888D02*
X16981373Y-13187841D01*
X16981373Y-13187841D02*
X16962325Y-13178317D01*
X16962325Y-13178317D02*
X16933753Y-13178317D01*
X16933753Y-13178317D02*
X16914706Y-13168793D01*
X16914706Y-13168793D02*
X16905182Y-13149746D01*
X16905182Y-13149746D02*
X16905182Y-13140222D01*
X16905182Y-13140222D02*
X16914706Y-13121174D01*
X16914706Y-13121174D02*
X16933753Y-13111650D01*
X16933753Y-13111650D02*
X16962325Y-13111650D01*
X16962325Y-13111650D02*
X16981373Y-13121174D01*
X17057563Y-13321174D02*
X17067087Y-13311650D01*
X17067087Y-13311650D02*
X17086134Y-13283079D01*
X17086134Y-13283079D02*
X17095658Y-13264031D01*
X17095658Y-13264031D02*
X17105182Y-13235460D01*
X17105182Y-13235460D02*
X17114706Y-13187841D01*
X17114706Y-13187841D02*
X17114706Y-13149746D01*
X17114706Y-13149746D02*
X17105182Y-13102127D01*
X17105182Y-13102127D02*
X17095658Y-13073555D01*
X17095658Y-13073555D02*
X17086134Y-13054508D01*
X17086134Y-13054508D02*
X17067087Y-13025936D01*
X17067087Y-13025936D02*
X17057563Y-13016412D01*
D12*
X12270784Y-13445784D02*
X12270784Y-13389215D01*
X12214215Y-13389215D01*
X12214215Y-13445784D01*
X12270784Y-13445784D01*
D11*
X12581372Y-13308984D02*
X12600420Y-13308984D01*
X12600420Y-13308984D02*
X12619467Y-13318508D01*
X12619467Y-13318508D02*
X12628991Y-13328031D01*
X12628991Y-13328031D02*
X12638515Y-13347079D01*
X12638515Y-13347079D02*
X12648039Y-13385174D01*
X12648039Y-13385174D02*
X12648039Y-13432793D01*
X12648039Y-13432793D02*
X12638515Y-13470888D01*
X12638515Y-13470888D02*
X12628991Y-13489936D01*
X12628991Y-13489936D02*
X12619467Y-13499460D01*
X12619467Y-13499460D02*
X12600420Y-13508984D01*
X12600420Y-13508984D02*
X12581372Y-13508984D01*
X12581372Y-13508984D02*
X12562324Y-13499460D01*
X12562324Y-13499460D02*
X12552801Y-13489936D01*
X12552801Y-13489936D02*
X12543277Y-13470888D01*
X12543277Y-13470888D02*
X12533753Y-13432793D01*
X12533753Y-13432793D02*
X12533753Y-13385174D01*
X12533753Y-13385174D02*
X12543277Y-13347079D01*
X12543277Y-13347079D02*
X12552801Y-13328031D01*
X12552801Y-13328031D02*
X12562324Y-13318508D01*
X12562324Y-13318508D02*
X12581372Y-13308984D01*
X12733753Y-13489936D02*
X12743277Y-13499460D01*
X12743277Y-13499460D02*
X12733753Y-13508984D01*
X12733753Y-13508984D02*
X12724229Y-13499460D01*
X12724229Y-13499460D02*
X12733753Y-13489936D01*
X12733753Y-13489936D02*
X12733753Y-13508984D01*
X12857562Y-13394698D02*
X12838515Y-13385174D01*
X12838515Y-13385174D02*
X12828991Y-13375650D01*
X12828991Y-13375650D02*
X12819467Y-13356603D01*
X12819467Y-13356603D02*
X12819467Y-13347079D01*
X12819467Y-13347079D02*
X12828991Y-13328031D01*
X12828991Y-13328031D02*
X12838515Y-13318508D01*
X12838515Y-13318508D02*
X12857562Y-13308984D01*
X12857562Y-13308984D02*
X12895658Y-13308984D01*
X12895658Y-13308984D02*
X12914705Y-13318508D01*
X12914705Y-13318508D02*
X12924229Y-13328031D01*
X12924229Y-13328031D02*
X12933753Y-13347079D01*
X12933753Y-13347079D02*
X12933753Y-13356603D01*
X12933753Y-13356603D02*
X12924229Y-13375650D01*
X12924229Y-13375650D02*
X12914705Y-13385174D01*
X12914705Y-13385174D02*
X12895658Y-13394698D01*
X12895658Y-13394698D02*
X12857562Y-13394698D01*
X12857562Y-13394698D02*
X12838515Y-13404222D01*
X12838515Y-13404222D02*
X12828991Y-13413746D01*
X12828991Y-13413746D02*
X12819467Y-13432793D01*
X12819467Y-13432793D02*
X12819467Y-13470888D01*
X12819467Y-13470888D02*
X12828991Y-13489936D01*
X12828991Y-13489936D02*
X12838515Y-13499460D01*
X12838515Y-13499460D02*
X12857562Y-13508984D01*
X12857562Y-13508984D02*
X12895658Y-13508984D01*
X12895658Y-13508984D02*
X12914705Y-13499460D01*
X12914705Y-13499460D02*
X12924229Y-13489936D01*
X12924229Y-13489936D02*
X12933753Y-13470888D01*
X12933753Y-13470888D02*
X12933753Y-13432793D01*
X12933753Y-13432793D02*
X12924229Y-13413746D01*
X12924229Y-13413746D02*
X12914705Y-13404222D01*
X12914705Y-13404222D02*
X12895658Y-13394698D01*
X13057562Y-13308984D02*
X13076610Y-13308984D01*
X13076610Y-13308984D02*
X13095658Y-13318508D01*
X13095658Y-13318508D02*
X13105182Y-13328031D01*
X13105182Y-13328031D02*
X13114705Y-13347079D01*
X13114705Y-13347079D02*
X13124229Y-13385174D01*
X13124229Y-13385174D02*
X13124229Y-13432793D01*
X13124229Y-13432793D02*
X13114705Y-13470888D01*
X13114705Y-13470888D02*
X13105182Y-13489936D01*
X13105182Y-13489936D02*
X13095658Y-13499460D01*
X13095658Y-13499460D02*
X13076610Y-13508984D01*
X13076610Y-13508984D02*
X13057562Y-13508984D01*
X13057562Y-13508984D02*
X13038515Y-13499460D01*
X13038515Y-13499460D02*
X13028991Y-13489936D01*
X13028991Y-13489936D02*
X13019467Y-13470888D01*
X13019467Y-13470888D02*
X13009943Y-13432793D01*
X13009943Y-13432793D02*
X13009943Y-13385174D01*
X13009943Y-13385174D02*
X13019467Y-13347079D01*
X13019467Y-13347079D02*
X13028991Y-13328031D01*
X13028991Y-13328031D02*
X13038515Y-13318508D01*
X13038515Y-13318508D02*
X13057562Y-13308984D01*
X13248039Y-13308984D02*
X13267086Y-13308984D01*
X13267086Y-13308984D02*
X13286134Y-13318508D01*
X13286134Y-13318508D02*
X13295658Y-13328031D01*
X13295658Y-13328031D02*
X13305182Y-13347079D01*
X13305182Y-13347079D02*
X13314705Y-13385174D01*
X13314705Y-13385174D02*
X13314705Y-13432793D01*
X13314705Y-13432793D02*
X13305182Y-13470888D01*
X13305182Y-13470888D02*
X13295658Y-13489936D01*
X13295658Y-13489936D02*
X13286134Y-13499460D01*
X13286134Y-13499460D02*
X13267086Y-13508984D01*
X13267086Y-13508984D02*
X13248039Y-13508984D01*
X13248039Y-13508984D02*
X13228991Y-13499460D01*
X13228991Y-13499460D02*
X13219467Y-13489936D01*
X13219467Y-13489936D02*
X13209943Y-13470888D01*
X13209943Y-13470888D02*
X13200420Y-13432793D01*
X13200420Y-13432793D02*
X13200420Y-13385174D01*
X13200420Y-13385174D02*
X13209943Y-13347079D01*
X13209943Y-13347079D02*
X13219467Y-13328031D01*
X13219467Y-13328031D02*
X13228991Y-13318508D01*
X13228991Y-13318508D02*
X13248039Y-13308984D01*
X13400420Y-13508984D02*
X13400420Y-13375650D01*
X13400420Y-13394698D02*
X13409943Y-13385174D01*
X13409943Y-13385174D02*
X13428991Y-13375650D01*
X13428991Y-13375650D02*
X13457563Y-13375650D01*
X13457563Y-13375650D02*
X13476610Y-13385174D01*
X13476610Y-13385174D02*
X13486134Y-13404222D01*
X13486134Y-13404222D02*
X13486134Y-13508984D01*
X13486134Y-13404222D02*
X13495658Y-13385174D01*
X13495658Y-13385174D02*
X13514705Y-13375650D01*
X13514705Y-13375650D02*
X13543277Y-13375650D01*
X13543277Y-13375650D02*
X13562324Y-13385174D01*
X13562324Y-13385174D02*
X13571848Y-13404222D01*
X13571848Y-13404222D02*
X13571848Y-13508984D01*
X13667086Y-13508984D02*
X13667086Y-13375650D01*
X13667086Y-13394698D02*
X13676610Y-13385174D01*
X13676610Y-13385174D02*
X13695658Y-13375650D01*
X13695658Y-13375650D02*
X13724229Y-13375650D01*
X13724229Y-13375650D02*
X13743277Y-13385174D01*
X13743277Y-13385174D02*
X13752801Y-13404222D01*
X13752801Y-13404222D02*
X13752801Y-13508984D01*
X13752801Y-13404222D02*
X13762324Y-13385174D01*
X13762324Y-13385174D02*
X13781372Y-13375650D01*
X13781372Y-13375650D02*
X13809943Y-13375650D01*
X13809943Y-13375650D02*
X13828991Y-13385174D01*
X13828991Y-13385174D02*
X13838515Y-13404222D01*
X13838515Y-13404222D02*
X13838515Y-13508984D01*
X14228991Y-13299460D02*
X14057563Y-13556603D01*
X14486134Y-13308984D02*
X14505182Y-13308984D01*
X14505182Y-13308984D02*
X14524229Y-13318508D01*
X14524229Y-13318508D02*
X14533753Y-13328031D01*
X14533753Y-13328031D02*
X14543277Y-13347079D01*
X14543277Y-13347079D02*
X14552801Y-13385174D01*
X14552801Y-13385174D02*
X14552801Y-13432793D01*
X14552801Y-13432793D02*
X14543277Y-13470888D01*
X14543277Y-13470888D02*
X14533753Y-13489936D01*
X14533753Y-13489936D02*
X14524229Y-13499460D01*
X14524229Y-13499460D02*
X14505182Y-13508984D01*
X14505182Y-13508984D02*
X14486134Y-13508984D01*
X14486134Y-13508984D02*
X14467086Y-13499460D01*
X14467086Y-13499460D02*
X14457563Y-13489936D01*
X14457563Y-13489936D02*
X14448039Y-13470888D01*
X14448039Y-13470888D02*
X14438515Y-13432793D01*
X14438515Y-13432793D02*
X14438515Y-13385174D01*
X14438515Y-13385174D02*
X14448039Y-13347079D01*
X14448039Y-13347079D02*
X14457563Y-13328031D01*
X14457563Y-13328031D02*
X14467086Y-13318508D01*
X14467086Y-13318508D02*
X14486134Y-13308984D01*
X14638515Y-13489936D02*
X14648039Y-13499460D01*
X14648039Y-13499460D02*
X14638515Y-13508984D01*
X14638515Y-13508984D02*
X14628991Y-13499460D01*
X14628991Y-13499460D02*
X14638515Y-13489936D01*
X14638515Y-13489936D02*
X14638515Y-13508984D01*
X14771848Y-13308984D02*
X14790896Y-13308984D01*
X14790896Y-13308984D02*
X14809944Y-13318508D01*
X14809944Y-13318508D02*
X14819467Y-13328031D01*
X14819467Y-13328031D02*
X14828991Y-13347079D01*
X14828991Y-13347079D02*
X14838515Y-13385174D01*
X14838515Y-13385174D02*
X14838515Y-13432793D01*
X14838515Y-13432793D02*
X14828991Y-13470888D01*
X14828991Y-13470888D02*
X14819467Y-13489936D01*
X14819467Y-13489936D02*
X14809944Y-13499460D01*
X14809944Y-13499460D02*
X14790896Y-13508984D01*
X14790896Y-13508984D02*
X14771848Y-13508984D01*
X14771848Y-13508984D02*
X14752801Y-13499460D01*
X14752801Y-13499460D02*
X14743277Y-13489936D01*
X14743277Y-13489936D02*
X14733753Y-13470888D01*
X14733753Y-13470888D02*
X14724229Y-13432793D01*
X14724229Y-13432793D02*
X14724229Y-13385174D01*
X14724229Y-13385174D02*
X14733753Y-13347079D01*
X14733753Y-13347079D02*
X14743277Y-13328031D01*
X14743277Y-13328031D02*
X14752801Y-13318508D01*
X14752801Y-13318508D02*
X14771848Y-13308984D01*
X14905182Y-13308984D02*
X15028991Y-13308984D01*
X15028991Y-13308984D02*
X14962325Y-13385174D01*
X14962325Y-13385174D02*
X14990896Y-13385174D01*
X14990896Y-13385174D02*
X15009944Y-13394698D01*
X15009944Y-13394698D02*
X15019467Y-13404222D01*
X15019467Y-13404222D02*
X15028991Y-13423269D01*
X15028991Y-13423269D02*
X15028991Y-13470888D01*
X15028991Y-13470888D02*
X15019467Y-13489936D01*
X15019467Y-13489936D02*
X15009944Y-13499460D01*
X15009944Y-13499460D02*
X14990896Y-13508984D01*
X14990896Y-13508984D02*
X14933753Y-13508984D01*
X14933753Y-13508984D02*
X14914706Y-13499460D01*
X14914706Y-13499460D02*
X14905182Y-13489936D01*
X15219467Y-13508984D02*
X15105182Y-13508984D01*
X15162325Y-13508984D02*
X15162325Y-13308984D01*
X15162325Y-13308984D02*
X15143277Y-13337555D01*
X15143277Y-13337555D02*
X15124229Y-13356603D01*
X15124229Y-13356603D02*
X15105182Y-13366127D01*
X15400420Y-13308984D02*
X15305182Y-13308984D01*
X15305182Y-13308984D02*
X15295658Y-13404222D01*
X15295658Y-13404222D02*
X15305182Y-13394698D01*
X15305182Y-13394698D02*
X15324229Y-13385174D01*
X15324229Y-13385174D02*
X15371848Y-13385174D01*
X15371848Y-13385174D02*
X15390896Y-13394698D01*
X15390896Y-13394698D02*
X15400420Y-13404222D01*
X15400420Y-13404222D02*
X15409944Y-13423269D01*
X15409944Y-13423269D02*
X15409944Y-13470888D01*
X15409944Y-13470888D02*
X15400420Y-13489936D01*
X15400420Y-13489936D02*
X15390896Y-13499460D01*
X15390896Y-13499460D02*
X15371848Y-13508984D01*
X15371848Y-13508984D02*
X15324229Y-13508984D01*
X15324229Y-13508984D02*
X15305182Y-13499460D01*
X15305182Y-13499460D02*
X15295658Y-13489936D01*
X15486134Y-13308984D02*
X15486134Y-13347079D01*
X15562325Y-13308984D02*
X15562325Y-13347079D01*
X15857563Y-13585174D02*
X15848039Y-13575650D01*
X15848039Y-13575650D02*
X15828991Y-13547079D01*
X15828991Y-13547079D02*
X15819468Y-13528031D01*
X15819468Y-13528031D02*
X15809944Y-13499460D01*
X15809944Y-13499460D02*
X15800420Y-13451841D01*
X15800420Y-13451841D02*
X15800420Y-13413746D01*
X15800420Y-13413746D02*
X15809944Y-13366127D01*
X15809944Y-13366127D02*
X15819468Y-13337555D01*
X15819468Y-13337555D02*
X15828991Y-13318508D01*
X15828991Y-13318508D02*
X15848039Y-13289936D01*
X15848039Y-13289936D02*
X15857563Y-13280412D01*
X15924229Y-13328031D02*
X15933753Y-13318508D01*
X15933753Y-13318508D02*
X15952801Y-13308984D01*
X15952801Y-13308984D02*
X16000420Y-13308984D01*
X16000420Y-13308984D02*
X16019468Y-13318508D01*
X16019468Y-13318508D02*
X16028991Y-13328031D01*
X16028991Y-13328031D02*
X16038515Y-13347079D01*
X16038515Y-13347079D02*
X16038515Y-13366127D01*
X16038515Y-13366127D02*
X16028991Y-13394698D01*
X16028991Y-13394698D02*
X15914706Y-13508984D01*
X15914706Y-13508984D02*
X16038515Y-13508984D01*
X16209944Y-13308984D02*
X16171848Y-13308984D01*
X16171848Y-13308984D02*
X16152801Y-13318508D01*
X16152801Y-13318508D02*
X16143277Y-13328031D01*
X16143277Y-13328031D02*
X16124229Y-13356603D01*
X16124229Y-13356603D02*
X16114706Y-13394698D01*
X16114706Y-13394698D02*
X16114706Y-13470888D01*
X16114706Y-13470888D02*
X16124229Y-13489936D01*
X16124229Y-13489936D02*
X16133753Y-13499460D01*
X16133753Y-13499460D02*
X16152801Y-13508984D01*
X16152801Y-13508984D02*
X16190896Y-13508984D01*
X16190896Y-13508984D02*
X16209944Y-13499460D01*
X16209944Y-13499460D02*
X16219468Y-13489936D01*
X16219468Y-13489936D02*
X16228991Y-13470888D01*
X16228991Y-13470888D02*
X16228991Y-13423269D01*
X16228991Y-13423269D02*
X16219468Y-13404222D01*
X16219468Y-13404222D02*
X16209944Y-13394698D01*
X16209944Y-13394698D02*
X16190896Y-13385174D01*
X16190896Y-13385174D02*
X16152801Y-13385174D01*
X16152801Y-13385174D02*
X16133753Y-13394698D01*
X16133753Y-13394698D02*
X16124229Y-13404222D01*
X16124229Y-13404222D02*
X16114706Y-13423269D01*
X16467087Y-13508984D02*
X16467087Y-13308984D01*
X16552801Y-13508984D02*
X16552801Y-13404222D01*
X16552801Y-13404222D02*
X16543277Y-13385174D01*
X16543277Y-13385174D02*
X16524230Y-13375650D01*
X16524230Y-13375650D02*
X16495658Y-13375650D01*
X16495658Y-13375650D02*
X16476610Y-13385174D01*
X16476610Y-13385174D02*
X16467087Y-13394698D01*
X16676610Y-13508984D02*
X16657563Y-13499460D01*
X16657563Y-13499460D02*
X16648039Y-13489936D01*
X16648039Y-13489936D02*
X16638515Y-13470888D01*
X16638515Y-13470888D02*
X16638515Y-13413746D01*
X16638515Y-13413746D02*
X16648039Y-13394698D01*
X16648039Y-13394698D02*
X16657563Y-13385174D01*
X16657563Y-13385174D02*
X16676610Y-13375650D01*
X16676610Y-13375650D02*
X16705182Y-13375650D01*
X16705182Y-13375650D02*
X16724230Y-13385174D01*
X16724230Y-13385174D02*
X16733753Y-13394698D01*
X16733753Y-13394698D02*
X16743277Y-13413746D01*
X16743277Y-13413746D02*
X16743277Y-13470888D01*
X16743277Y-13470888D02*
X16733753Y-13489936D01*
X16733753Y-13489936D02*
X16724230Y-13499460D01*
X16724230Y-13499460D02*
X16705182Y-13508984D01*
X16705182Y-13508984D02*
X16676610Y-13508984D01*
X16857563Y-13508984D02*
X16838515Y-13499460D01*
X16838515Y-13499460D02*
X16828992Y-13480412D01*
X16828992Y-13480412D02*
X16828992Y-13308984D01*
X17009944Y-13499460D02*
X16990896Y-13508984D01*
X16990896Y-13508984D02*
X16952801Y-13508984D01*
X16952801Y-13508984D02*
X16933753Y-13499460D01*
X16933753Y-13499460D02*
X16924230Y-13480412D01*
X16924230Y-13480412D02*
X16924230Y-13404222D01*
X16924230Y-13404222D02*
X16933753Y-13385174D01*
X16933753Y-13385174D02*
X16952801Y-13375650D01*
X16952801Y-13375650D02*
X16990896Y-13375650D01*
X16990896Y-13375650D02*
X17009944Y-13385174D01*
X17009944Y-13385174D02*
X17019468Y-13404222D01*
X17019468Y-13404222D02*
X17019468Y-13423269D01*
X17019468Y-13423269D02*
X16924230Y-13442317D01*
X17095658Y-13499460D02*
X17114706Y-13508984D01*
X17114706Y-13508984D02*
X17152801Y-13508984D01*
X17152801Y-13508984D02*
X17171849Y-13499460D01*
X17171849Y-13499460D02*
X17181373Y-13480412D01*
X17181373Y-13480412D02*
X17181373Y-13470888D01*
X17181373Y-13470888D02*
X17171849Y-13451841D01*
X17171849Y-13451841D02*
X17152801Y-13442317D01*
X17152801Y-13442317D02*
X17124230Y-13442317D01*
X17124230Y-13442317D02*
X17105182Y-13432793D01*
X17105182Y-13432793D02*
X17095658Y-13413746D01*
X17095658Y-13413746D02*
X17095658Y-13404222D01*
X17095658Y-13404222D02*
X17105182Y-13385174D01*
X17105182Y-13385174D02*
X17124230Y-13375650D01*
X17124230Y-13375650D02*
X17152801Y-13375650D01*
X17152801Y-13375650D02*
X17171849Y-13385174D01*
X17248039Y-13585174D02*
X17257563Y-13575650D01*
X17257563Y-13575650D02*
X17276611Y-13547079D01*
X17276611Y-13547079D02*
X17286134Y-13528031D01*
X17286134Y-13528031D02*
X17295658Y-13499460D01*
X17295658Y-13499460D02*
X17305182Y-13451841D01*
X17305182Y-13451841D02*
X17305182Y-13413746D01*
X17305182Y-13413746D02*
X17295658Y-13366127D01*
X17295658Y-13366127D02*
X17286134Y-13337555D01*
X17286134Y-13337555D02*
X17276611Y-13318508D01*
X17276611Y-13318508D02*
X17257563Y-13289936D01*
X17257563Y-13289936D02*
X17248039Y-13280412D01*
D12*
X12237500Y-13726500D02*
X12282500Y-13681500D01*
X12237500Y-13636500D01*
X12192500Y-13681500D01*
X12237500Y-13726500D01*
D11*
X12581372Y-13572984D02*
X12600420Y-13572984D01*
X12600420Y-13572984D02*
X12619467Y-13582508D01*
X12619467Y-13582508D02*
X12628991Y-13592031D01*
X12628991Y-13592031D02*
X12638515Y-13611079D01*
X12638515Y-13611079D02*
X12648039Y-13649174D01*
X12648039Y-13649174D02*
X12648039Y-13696793D01*
X12648039Y-13696793D02*
X12638515Y-13734888D01*
X12638515Y-13734888D02*
X12628991Y-13753936D01*
X12628991Y-13753936D02*
X12619467Y-13763460D01*
X12619467Y-13763460D02*
X12600420Y-13772984D01*
X12600420Y-13772984D02*
X12581372Y-13772984D01*
X12581372Y-13772984D02*
X12562324Y-13763460D01*
X12562324Y-13763460D02*
X12552801Y-13753936D01*
X12552801Y-13753936D02*
X12543277Y-13734888D01*
X12543277Y-13734888D02*
X12533753Y-13696793D01*
X12533753Y-13696793D02*
X12533753Y-13649174D01*
X12533753Y-13649174D02*
X12543277Y-13611079D01*
X12543277Y-13611079D02*
X12552801Y-13592031D01*
X12552801Y-13592031D02*
X12562324Y-13582508D01*
X12562324Y-13582508D02*
X12581372Y-13572984D01*
X12733753Y-13753936D02*
X12743277Y-13763460D01*
X12743277Y-13763460D02*
X12733753Y-13772984D01*
X12733753Y-13772984D02*
X12724229Y-13763460D01*
X12724229Y-13763460D02*
X12733753Y-13753936D01*
X12733753Y-13753936D02*
X12733753Y-13772984D01*
X12838515Y-13772984D02*
X12876610Y-13772984D01*
X12876610Y-13772984D02*
X12895658Y-13763460D01*
X12895658Y-13763460D02*
X12905182Y-13753936D01*
X12905182Y-13753936D02*
X12924229Y-13725365D01*
X12924229Y-13725365D02*
X12933753Y-13687269D01*
X12933753Y-13687269D02*
X12933753Y-13611079D01*
X12933753Y-13611079D02*
X12924229Y-13592031D01*
X12924229Y-13592031D02*
X12914705Y-13582508D01*
X12914705Y-13582508D02*
X12895658Y-13572984D01*
X12895658Y-13572984D02*
X12857562Y-13572984D01*
X12857562Y-13572984D02*
X12838515Y-13582508D01*
X12838515Y-13582508D02*
X12828991Y-13592031D01*
X12828991Y-13592031D02*
X12819467Y-13611079D01*
X12819467Y-13611079D02*
X12819467Y-13658698D01*
X12819467Y-13658698D02*
X12828991Y-13677746D01*
X12828991Y-13677746D02*
X12838515Y-13687269D01*
X12838515Y-13687269D02*
X12857562Y-13696793D01*
X12857562Y-13696793D02*
X12895658Y-13696793D01*
X12895658Y-13696793D02*
X12914705Y-13687269D01*
X12914705Y-13687269D02*
X12924229Y-13677746D01*
X12924229Y-13677746D02*
X12933753Y-13658698D01*
X13057562Y-13572984D02*
X13076610Y-13572984D01*
X13076610Y-13572984D02*
X13095658Y-13582508D01*
X13095658Y-13582508D02*
X13105182Y-13592031D01*
X13105182Y-13592031D02*
X13114705Y-13611079D01*
X13114705Y-13611079D02*
X13124229Y-13649174D01*
X13124229Y-13649174D02*
X13124229Y-13696793D01*
X13124229Y-13696793D02*
X13114705Y-13734888D01*
X13114705Y-13734888D02*
X13105182Y-13753936D01*
X13105182Y-13753936D02*
X13095658Y-13763460D01*
X13095658Y-13763460D02*
X13076610Y-13772984D01*
X13076610Y-13772984D02*
X13057562Y-13772984D01*
X13057562Y-13772984D02*
X13038515Y-13763460D01*
X13038515Y-13763460D02*
X13028991Y-13753936D01*
X13028991Y-13753936D02*
X13019467Y-13734888D01*
X13019467Y-13734888D02*
X13009943Y-13696793D01*
X13009943Y-13696793D02*
X13009943Y-13649174D01*
X13009943Y-13649174D02*
X13019467Y-13611079D01*
X13019467Y-13611079D02*
X13028991Y-13592031D01*
X13028991Y-13592031D02*
X13038515Y-13582508D01*
X13038515Y-13582508D02*
X13057562Y-13572984D01*
X13248039Y-13572984D02*
X13267086Y-13572984D01*
X13267086Y-13572984D02*
X13286134Y-13582508D01*
X13286134Y-13582508D02*
X13295658Y-13592031D01*
X13295658Y-13592031D02*
X13305182Y-13611079D01*
X13305182Y-13611079D02*
X13314705Y-13649174D01*
X13314705Y-13649174D02*
X13314705Y-13696793D01*
X13314705Y-13696793D02*
X13305182Y-13734888D01*
X13305182Y-13734888D02*
X13295658Y-13753936D01*
X13295658Y-13753936D02*
X13286134Y-13763460D01*
X13286134Y-13763460D02*
X13267086Y-13772984D01*
X13267086Y-13772984D02*
X13248039Y-13772984D01*
X13248039Y-13772984D02*
X13228991Y-13763460D01*
X13228991Y-13763460D02*
X13219467Y-13753936D01*
X13219467Y-13753936D02*
X13209943Y-13734888D01*
X13209943Y-13734888D02*
X13200420Y-13696793D01*
X13200420Y-13696793D02*
X13200420Y-13649174D01*
X13200420Y-13649174D02*
X13209943Y-13611079D01*
X13209943Y-13611079D02*
X13219467Y-13592031D01*
X13219467Y-13592031D02*
X13228991Y-13582508D01*
X13228991Y-13582508D02*
X13248039Y-13572984D01*
X13400420Y-13772984D02*
X13400420Y-13639650D01*
X13400420Y-13658698D02*
X13409943Y-13649174D01*
X13409943Y-13649174D02*
X13428991Y-13639650D01*
X13428991Y-13639650D02*
X13457563Y-13639650D01*
X13457563Y-13639650D02*
X13476610Y-13649174D01*
X13476610Y-13649174D02*
X13486134Y-13668222D01*
X13486134Y-13668222D02*
X13486134Y-13772984D01*
X13486134Y-13668222D02*
X13495658Y-13649174D01*
X13495658Y-13649174D02*
X13514705Y-13639650D01*
X13514705Y-13639650D02*
X13543277Y-13639650D01*
X13543277Y-13639650D02*
X13562324Y-13649174D01*
X13562324Y-13649174D02*
X13571848Y-13668222D01*
X13571848Y-13668222D02*
X13571848Y-13772984D01*
X13667086Y-13772984D02*
X13667086Y-13639650D01*
X13667086Y-13658698D02*
X13676610Y-13649174D01*
X13676610Y-13649174D02*
X13695658Y-13639650D01*
X13695658Y-13639650D02*
X13724229Y-13639650D01*
X13724229Y-13639650D02*
X13743277Y-13649174D01*
X13743277Y-13649174D02*
X13752801Y-13668222D01*
X13752801Y-13668222D02*
X13752801Y-13772984D01*
X13752801Y-13668222D02*
X13762324Y-13649174D01*
X13762324Y-13649174D02*
X13781372Y-13639650D01*
X13781372Y-13639650D02*
X13809943Y-13639650D01*
X13809943Y-13639650D02*
X13828991Y-13649174D01*
X13828991Y-13649174D02*
X13838515Y-13668222D01*
X13838515Y-13668222D02*
X13838515Y-13772984D01*
X14228991Y-13563460D02*
X14057563Y-13820603D01*
X14486134Y-13572984D02*
X14505182Y-13572984D01*
X14505182Y-13572984D02*
X14524229Y-13582508D01*
X14524229Y-13582508D02*
X14533753Y-13592031D01*
X14533753Y-13592031D02*
X14543277Y-13611079D01*
X14543277Y-13611079D02*
X14552801Y-13649174D01*
X14552801Y-13649174D02*
X14552801Y-13696793D01*
X14552801Y-13696793D02*
X14543277Y-13734888D01*
X14543277Y-13734888D02*
X14533753Y-13753936D01*
X14533753Y-13753936D02*
X14524229Y-13763460D01*
X14524229Y-13763460D02*
X14505182Y-13772984D01*
X14505182Y-13772984D02*
X14486134Y-13772984D01*
X14486134Y-13772984D02*
X14467086Y-13763460D01*
X14467086Y-13763460D02*
X14457563Y-13753936D01*
X14457563Y-13753936D02*
X14448039Y-13734888D01*
X14448039Y-13734888D02*
X14438515Y-13696793D01*
X14438515Y-13696793D02*
X14438515Y-13649174D01*
X14438515Y-13649174D02*
X14448039Y-13611079D01*
X14448039Y-13611079D02*
X14457563Y-13592031D01*
X14457563Y-13592031D02*
X14467086Y-13582508D01*
X14467086Y-13582508D02*
X14486134Y-13572984D01*
X14638515Y-13753936D02*
X14648039Y-13763460D01*
X14648039Y-13763460D02*
X14638515Y-13772984D01*
X14638515Y-13772984D02*
X14628991Y-13763460D01*
X14628991Y-13763460D02*
X14638515Y-13753936D01*
X14638515Y-13753936D02*
X14638515Y-13772984D01*
X14771848Y-13572984D02*
X14790896Y-13572984D01*
X14790896Y-13572984D02*
X14809944Y-13582508D01*
X14809944Y-13582508D02*
X14819467Y-13592031D01*
X14819467Y-13592031D02*
X14828991Y-13611079D01*
X14828991Y-13611079D02*
X14838515Y-13649174D01*
X14838515Y-13649174D02*
X14838515Y-13696793D01*
X14838515Y-13696793D02*
X14828991Y-13734888D01*
X14828991Y-13734888D02*
X14819467Y-13753936D01*
X14819467Y-13753936D02*
X14809944Y-13763460D01*
X14809944Y-13763460D02*
X14790896Y-13772984D01*
X14790896Y-13772984D02*
X14771848Y-13772984D01*
X14771848Y-13772984D02*
X14752801Y-13763460D01*
X14752801Y-13763460D02*
X14743277Y-13753936D01*
X14743277Y-13753936D02*
X14733753Y-13734888D01*
X14733753Y-13734888D02*
X14724229Y-13696793D01*
X14724229Y-13696793D02*
X14724229Y-13649174D01*
X14724229Y-13649174D02*
X14733753Y-13611079D01*
X14733753Y-13611079D02*
X14743277Y-13592031D01*
X14743277Y-13592031D02*
X14752801Y-13582508D01*
X14752801Y-13582508D02*
X14771848Y-13572984D01*
X14905182Y-13572984D02*
X15028991Y-13572984D01*
X15028991Y-13572984D02*
X14962325Y-13649174D01*
X14962325Y-13649174D02*
X14990896Y-13649174D01*
X14990896Y-13649174D02*
X15009944Y-13658698D01*
X15009944Y-13658698D02*
X15019467Y-13668222D01*
X15019467Y-13668222D02*
X15028991Y-13687269D01*
X15028991Y-13687269D02*
X15028991Y-13734888D01*
X15028991Y-13734888D02*
X15019467Y-13753936D01*
X15019467Y-13753936D02*
X15009944Y-13763460D01*
X15009944Y-13763460D02*
X14990896Y-13772984D01*
X14990896Y-13772984D02*
X14933753Y-13772984D01*
X14933753Y-13772984D02*
X14914706Y-13763460D01*
X14914706Y-13763460D02*
X14905182Y-13753936D01*
X15209944Y-13572984D02*
X15114706Y-13572984D01*
X15114706Y-13572984D02*
X15105182Y-13668222D01*
X15105182Y-13668222D02*
X15114706Y-13658698D01*
X15114706Y-13658698D02*
X15133753Y-13649174D01*
X15133753Y-13649174D02*
X15181372Y-13649174D01*
X15181372Y-13649174D02*
X15200420Y-13658698D01*
X15200420Y-13658698D02*
X15209944Y-13668222D01*
X15209944Y-13668222D02*
X15219467Y-13687269D01*
X15219467Y-13687269D02*
X15219467Y-13734888D01*
X15219467Y-13734888D02*
X15209944Y-13753936D01*
X15209944Y-13753936D02*
X15200420Y-13763460D01*
X15200420Y-13763460D02*
X15181372Y-13772984D01*
X15181372Y-13772984D02*
X15133753Y-13772984D01*
X15133753Y-13772984D02*
X15114706Y-13763460D01*
X15114706Y-13763460D02*
X15105182Y-13753936D01*
X15390896Y-13639650D02*
X15390896Y-13772984D01*
X15343277Y-13563460D02*
X15295658Y-13706317D01*
X15295658Y-13706317D02*
X15419467Y-13706317D01*
X15486134Y-13572984D02*
X15486134Y-13611079D01*
X15562325Y-13572984D02*
X15562325Y-13611079D01*
X15857563Y-13849174D02*
X15848039Y-13839650D01*
X15848039Y-13839650D02*
X15828991Y-13811079D01*
X15828991Y-13811079D02*
X15819468Y-13792031D01*
X15819468Y-13792031D02*
X15809944Y-13763460D01*
X15809944Y-13763460D02*
X15800420Y-13715841D01*
X15800420Y-13715841D02*
X15800420Y-13677746D01*
X15800420Y-13677746D02*
X15809944Y-13630127D01*
X15809944Y-13630127D02*
X15819468Y-13601555D01*
X15819468Y-13601555D02*
X15828991Y-13582508D01*
X15828991Y-13582508D02*
X15848039Y-13553936D01*
X15848039Y-13553936D02*
X15857563Y-13544412D01*
X16019468Y-13572984D02*
X15981372Y-13572984D01*
X15981372Y-13572984D02*
X15962325Y-13582508D01*
X15962325Y-13582508D02*
X15952801Y-13592031D01*
X15952801Y-13592031D02*
X15933753Y-13620603D01*
X15933753Y-13620603D02*
X15924229Y-13658698D01*
X15924229Y-13658698D02*
X15924229Y-13734888D01*
X15924229Y-13734888D02*
X15933753Y-13753936D01*
X15933753Y-13753936D02*
X15943277Y-13763460D01*
X15943277Y-13763460D02*
X15962325Y-13772984D01*
X15962325Y-13772984D02*
X16000420Y-13772984D01*
X16000420Y-13772984D02*
X16019468Y-13763460D01*
X16019468Y-13763460D02*
X16028991Y-13753936D01*
X16028991Y-13753936D02*
X16038515Y-13734888D01*
X16038515Y-13734888D02*
X16038515Y-13687269D01*
X16038515Y-13687269D02*
X16028991Y-13668222D01*
X16028991Y-13668222D02*
X16019468Y-13658698D01*
X16019468Y-13658698D02*
X16000420Y-13649174D01*
X16000420Y-13649174D02*
X15962325Y-13649174D01*
X15962325Y-13649174D02*
X15943277Y-13658698D01*
X15943277Y-13658698D02*
X15933753Y-13668222D01*
X15933753Y-13668222D02*
X15924229Y-13687269D01*
X16276610Y-13772984D02*
X16276610Y-13572984D01*
X16362325Y-13772984D02*
X16362325Y-13668222D01*
X16362325Y-13668222D02*
X16352801Y-13649174D01*
X16352801Y-13649174D02*
X16333753Y-13639650D01*
X16333753Y-13639650D02*
X16305182Y-13639650D01*
X16305182Y-13639650D02*
X16286134Y-13649174D01*
X16286134Y-13649174D02*
X16276610Y-13658698D01*
X16486134Y-13772984D02*
X16467087Y-13763460D01*
X16467087Y-13763460D02*
X16457563Y-13753936D01*
X16457563Y-13753936D02*
X16448039Y-13734888D01*
X16448039Y-13734888D02*
X16448039Y-13677746D01*
X16448039Y-13677746D02*
X16457563Y-13658698D01*
X16457563Y-13658698D02*
X16467087Y-13649174D01*
X16467087Y-13649174D02*
X16486134Y-13639650D01*
X16486134Y-13639650D02*
X16514706Y-13639650D01*
X16514706Y-13639650D02*
X16533753Y-13649174D01*
X16533753Y-13649174D02*
X16543277Y-13658698D01*
X16543277Y-13658698D02*
X16552801Y-13677746D01*
X16552801Y-13677746D02*
X16552801Y-13734888D01*
X16552801Y-13734888D02*
X16543277Y-13753936D01*
X16543277Y-13753936D02*
X16533753Y-13763460D01*
X16533753Y-13763460D02*
X16514706Y-13772984D01*
X16514706Y-13772984D02*
X16486134Y-13772984D01*
X16667087Y-13772984D02*
X16648039Y-13763460D01*
X16648039Y-13763460D02*
X16638515Y-13744412D01*
X16638515Y-13744412D02*
X16638515Y-13572984D01*
X16819468Y-13763460D02*
X16800420Y-13772984D01*
X16800420Y-13772984D02*
X16762325Y-13772984D01*
X16762325Y-13772984D02*
X16743277Y-13763460D01*
X16743277Y-13763460D02*
X16733753Y-13744412D01*
X16733753Y-13744412D02*
X16733753Y-13668222D01*
X16733753Y-13668222D02*
X16743277Y-13649174D01*
X16743277Y-13649174D02*
X16762325Y-13639650D01*
X16762325Y-13639650D02*
X16800420Y-13639650D01*
X16800420Y-13639650D02*
X16819468Y-13649174D01*
X16819468Y-13649174D02*
X16828992Y-13668222D01*
X16828992Y-13668222D02*
X16828992Y-13687269D01*
X16828992Y-13687269D02*
X16733753Y-13706317D01*
X16905182Y-13763460D02*
X16924230Y-13772984D01*
X16924230Y-13772984D02*
X16962325Y-13772984D01*
X16962325Y-13772984D02*
X16981373Y-13763460D01*
X16981373Y-13763460D02*
X16990896Y-13744412D01*
X16990896Y-13744412D02*
X16990896Y-13734888D01*
X16990896Y-13734888D02*
X16981373Y-13715841D01*
X16981373Y-13715841D02*
X16962325Y-13706317D01*
X16962325Y-13706317D02*
X16933753Y-13706317D01*
X16933753Y-13706317D02*
X16914706Y-13696793D01*
X16914706Y-13696793D02*
X16905182Y-13677746D01*
X16905182Y-13677746D02*
X16905182Y-13668222D01*
X16905182Y-13668222D02*
X16914706Y-13649174D01*
X16914706Y-13649174D02*
X16933753Y-13639650D01*
X16933753Y-13639650D02*
X16962325Y-13639650D01*
X16962325Y-13639650D02*
X16981373Y-13649174D01*
X17057563Y-13849174D02*
X17067087Y-13839650D01*
X17067087Y-13839650D02*
X17086134Y-13811079D01*
X17086134Y-13811079D02*
X17095658Y-13792031D01*
X17095658Y-13792031D02*
X17105182Y-13763460D01*
X17105182Y-13763460D02*
X17114706Y-13715841D01*
X17114706Y-13715841D02*
X17114706Y-13677746D01*
X17114706Y-13677746D02*
X17105182Y-13630127D01*
X17105182Y-13630127D02*
X17095658Y-13601555D01*
X17095658Y-13601555D02*
X17086134Y-13582508D01*
X17086134Y-13582508D02*
X17067087Y-13553936D01*
X17067087Y-13553936D02*
X17057563Y-13544412D01*
D12*
X12182500Y-13895500D02*
X12282500Y-13995500D01*
X12282500Y-13895500D02*
X12182500Y-13995500D01*
X12282500Y-13945500D02*
G75*
G02*
X12182500Y-13945500I-50000J0D01*
G01*
X12182500Y-13945500D02*
G75*
G02*
X12282500Y-13945500I50000J0D01*
G01*
D11*
X12648039Y-14036984D02*
X12533753Y-14036984D01*
X12590896Y-14036984D02*
X12590896Y-13836984D01*
X12590896Y-13836984D02*
X12571848Y-13865555D01*
X12571848Y-13865555D02*
X12552801Y-13884603D01*
X12552801Y-13884603D02*
X12533753Y-13894127D01*
X12733753Y-14017936D02*
X12743277Y-14027460D01*
X12743277Y-14027460D02*
X12733753Y-14036984D01*
X12733753Y-14036984D02*
X12724229Y-14027460D01*
X12724229Y-14027460D02*
X12733753Y-14017936D01*
X12733753Y-14017936D02*
X12733753Y-14036984D01*
X12867086Y-13836984D02*
X12886134Y-13836984D01*
X12886134Y-13836984D02*
X12905182Y-13846508D01*
X12905182Y-13846508D02*
X12914705Y-13856031D01*
X12914705Y-13856031D02*
X12924229Y-13875079D01*
X12924229Y-13875079D02*
X12933753Y-13913174D01*
X12933753Y-13913174D02*
X12933753Y-13960793D01*
X12933753Y-13960793D02*
X12924229Y-13998888D01*
X12924229Y-13998888D02*
X12914705Y-14017936D01*
X12914705Y-14017936D02*
X12905182Y-14027460D01*
X12905182Y-14027460D02*
X12886134Y-14036984D01*
X12886134Y-14036984D02*
X12867086Y-14036984D01*
X12867086Y-14036984D02*
X12848039Y-14027460D01*
X12848039Y-14027460D02*
X12838515Y-14017936D01*
X12838515Y-14017936D02*
X12828991Y-13998888D01*
X12828991Y-13998888D02*
X12819467Y-13960793D01*
X12819467Y-13960793D02*
X12819467Y-13913174D01*
X12819467Y-13913174D02*
X12828991Y-13875079D01*
X12828991Y-13875079D02*
X12838515Y-13856031D01*
X12838515Y-13856031D02*
X12848039Y-13846508D01*
X12848039Y-13846508D02*
X12867086Y-13836984D01*
X13057562Y-13836984D02*
X13076610Y-13836984D01*
X13076610Y-13836984D02*
X13095658Y-13846508D01*
X13095658Y-13846508D02*
X13105182Y-13856031D01*
X13105182Y-13856031D02*
X13114705Y-13875079D01*
X13114705Y-13875079D02*
X13124229Y-13913174D01*
X13124229Y-13913174D02*
X13124229Y-13960793D01*
X13124229Y-13960793D02*
X13114705Y-13998888D01*
X13114705Y-13998888D02*
X13105182Y-14017936D01*
X13105182Y-14017936D02*
X13095658Y-14027460D01*
X13095658Y-14027460D02*
X13076610Y-14036984D01*
X13076610Y-14036984D02*
X13057562Y-14036984D01*
X13057562Y-14036984D02*
X13038515Y-14027460D01*
X13038515Y-14027460D02*
X13028991Y-14017936D01*
X13028991Y-14017936D02*
X13019467Y-13998888D01*
X13019467Y-13998888D02*
X13009943Y-13960793D01*
X13009943Y-13960793D02*
X13009943Y-13913174D01*
X13009943Y-13913174D02*
X13019467Y-13875079D01*
X13019467Y-13875079D02*
X13028991Y-13856031D01*
X13028991Y-13856031D02*
X13038515Y-13846508D01*
X13038515Y-13846508D02*
X13057562Y-13836984D01*
X13248039Y-13836984D02*
X13267086Y-13836984D01*
X13267086Y-13836984D02*
X13286134Y-13846508D01*
X13286134Y-13846508D02*
X13295658Y-13856031D01*
X13295658Y-13856031D02*
X13305182Y-13875079D01*
X13305182Y-13875079D02*
X13314705Y-13913174D01*
X13314705Y-13913174D02*
X13314705Y-13960793D01*
X13314705Y-13960793D02*
X13305182Y-13998888D01*
X13305182Y-13998888D02*
X13295658Y-14017936D01*
X13295658Y-14017936D02*
X13286134Y-14027460D01*
X13286134Y-14027460D02*
X13267086Y-14036984D01*
X13267086Y-14036984D02*
X13248039Y-14036984D01*
X13248039Y-14036984D02*
X13228991Y-14027460D01*
X13228991Y-14027460D02*
X13219467Y-14017936D01*
X13219467Y-14017936D02*
X13209943Y-13998888D01*
X13209943Y-13998888D02*
X13200420Y-13960793D01*
X13200420Y-13960793D02*
X13200420Y-13913174D01*
X13200420Y-13913174D02*
X13209943Y-13875079D01*
X13209943Y-13875079D02*
X13219467Y-13856031D01*
X13219467Y-13856031D02*
X13228991Y-13846508D01*
X13228991Y-13846508D02*
X13248039Y-13836984D01*
X13400420Y-14036984D02*
X13400420Y-13903650D01*
X13400420Y-13922698D02*
X13409943Y-13913174D01*
X13409943Y-13913174D02*
X13428991Y-13903650D01*
X13428991Y-13903650D02*
X13457563Y-13903650D01*
X13457563Y-13903650D02*
X13476610Y-13913174D01*
X13476610Y-13913174D02*
X13486134Y-13932222D01*
X13486134Y-13932222D02*
X13486134Y-14036984D01*
X13486134Y-13932222D02*
X13495658Y-13913174D01*
X13495658Y-13913174D02*
X13514705Y-13903650D01*
X13514705Y-13903650D02*
X13543277Y-13903650D01*
X13543277Y-13903650D02*
X13562324Y-13913174D01*
X13562324Y-13913174D02*
X13571848Y-13932222D01*
X13571848Y-13932222D02*
X13571848Y-14036984D01*
X13667086Y-14036984D02*
X13667086Y-13903650D01*
X13667086Y-13922698D02*
X13676610Y-13913174D01*
X13676610Y-13913174D02*
X13695658Y-13903650D01*
X13695658Y-13903650D02*
X13724229Y-13903650D01*
X13724229Y-13903650D02*
X13743277Y-13913174D01*
X13743277Y-13913174D02*
X13752801Y-13932222D01*
X13752801Y-13932222D02*
X13752801Y-14036984D01*
X13752801Y-13932222D02*
X13762324Y-13913174D01*
X13762324Y-13913174D02*
X13781372Y-13903650D01*
X13781372Y-13903650D02*
X13809943Y-13903650D01*
X13809943Y-13903650D02*
X13828991Y-13913174D01*
X13828991Y-13913174D02*
X13838515Y-13932222D01*
X13838515Y-13932222D02*
X13838515Y-14036984D01*
X14228991Y-13827460D02*
X14057563Y-14084603D01*
X14486134Y-13836984D02*
X14505182Y-13836984D01*
X14505182Y-13836984D02*
X14524229Y-13846508D01*
X14524229Y-13846508D02*
X14533753Y-13856031D01*
X14533753Y-13856031D02*
X14543277Y-13875079D01*
X14543277Y-13875079D02*
X14552801Y-13913174D01*
X14552801Y-13913174D02*
X14552801Y-13960793D01*
X14552801Y-13960793D02*
X14543277Y-13998888D01*
X14543277Y-13998888D02*
X14533753Y-14017936D01*
X14533753Y-14017936D02*
X14524229Y-14027460D01*
X14524229Y-14027460D02*
X14505182Y-14036984D01*
X14505182Y-14036984D02*
X14486134Y-14036984D01*
X14486134Y-14036984D02*
X14467086Y-14027460D01*
X14467086Y-14027460D02*
X14457563Y-14017936D01*
X14457563Y-14017936D02*
X14448039Y-13998888D01*
X14448039Y-13998888D02*
X14438515Y-13960793D01*
X14438515Y-13960793D02*
X14438515Y-13913174D01*
X14438515Y-13913174D02*
X14448039Y-13875079D01*
X14448039Y-13875079D02*
X14457563Y-13856031D01*
X14457563Y-13856031D02*
X14467086Y-13846508D01*
X14467086Y-13846508D02*
X14486134Y-13836984D01*
X14638515Y-14017936D02*
X14648039Y-14027460D01*
X14648039Y-14027460D02*
X14638515Y-14036984D01*
X14638515Y-14036984D02*
X14628991Y-14027460D01*
X14628991Y-14027460D02*
X14638515Y-14017936D01*
X14638515Y-14017936D02*
X14638515Y-14036984D01*
X14771848Y-13836984D02*
X14790896Y-13836984D01*
X14790896Y-13836984D02*
X14809944Y-13846508D01*
X14809944Y-13846508D02*
X14819467Y-13856031D01*
X14819467Y-13856031D02*
X14828991Y-13875079D01*
X14828991Y-13875079D02*
X14838515Y-13913174D01*
X14838515Y-13913174D02*
X14838515Y-13960793D01*
X14838515Y-13960793D02*
X14828991Y-13998888D01*
X14828991Y-13998888D02*
X14819467Y-14017936D01*
X14819467Y-14017936D02*
X14809944Y-14027460D01*
X14809944Y-14027460D02*
X14790896Y-14036984D01*
X14790896Y-14036984D02*
X14771848Y-14036984D01*
X14771848Y-14036984D02*
X14752801Y-14027460D01*
X14752801Y-14027460D02*
X14743277Y-14017936D01*
X14743277Y-14017936D02*
X14733753Y-13998888D01*
X14733753Y-13998888D02*
X14724229Y-13960793D01*
X14724229Y-13960793D02*
X14724229Y-13913174D01*
X14724229Y-13913174D02*
X14733753Y-13875079D01*
X14733753Y-13875079D02*
X14743277Y-13856031D01*
X14743277Y-13856031D02*
X14752801Y-13846508D01*
X14752801Y-13846508D02*
X14771848Y-13836984D01*
X14905182Y-13836984D02*
X15028991Y-13836984D01*
X15028991Y-13836984D02*
X14962325Y-13913174D01*
X14962325Y-13913174D02*
X14990896Y-13913174D01*
X14990896Y-13913174D02*
X15009944Y-13922698D01*
X15009944Y-13922698D02*
X15019467Y-13932222D01*
X15019467Y-13932222D02*
X15028991Y-13951269D01*
X15028991Y-13951269D02*
X15028991Y-13998888D01*
X15028991Y-13998888D02*
X15019467Y-14017936D01*
X15019467Y-14017936D02*
X15009944Y-14027460D01*
X15009944Y-14027460D02*
X14990896Y-14036984D01*
X14990896Y-14036984D02*
X14933753Y-14036984D01*
X14933753Y-14036984D02*
X14914706Y-14027460D01*
X14914706Y-14027460D02*
X14905182Y-14017936D01*
X15124229Y-14036984D02*
X15162325Y-14036984D01*
X15162325Y-14036984D02*
X15181372Y-14027460D01*
X15181372Y-14027460D02*
X15190896Y-14017936D01*
X15190896Y-14017936D02*
X15209944Y-13989365D01*
X15209944Y-13989365D02*
X15219467Y-13951269D01*
X15219467Y-13951269D02*
X15219467Y-13875079D01*
X15219467Y-13875079D02*
X15209944Y-13856031D01*
X15209944Y-13856031D02*
X15200420Y-13846508D01*
X15200420Y-13846508D02*
X15181372Y-13836984D01*
X15181372Y-13836984D02*
X15143277Y-13836984D01*
X15143277Y-13836984D02*
X15124229Y-13846508D01*
X15124229Y-13846508D02*
X15114706Y-13856031D01*
X15114706Y-13856031D02*
X15105182Y-13875079D01*
X15105182Y-13875079D02*
X15105182Y-13922698D01*
X15105182Y-13922698D02*
X15114706Y-13941746D01*
X15114706Y-13941746D02*
X15124229Y-13951269D01*
X15124229Y-13951269D02*
X15143277Y-13960793D01*
X15143277Y-13960793D02*
X15181372Y-13960793D01*
X15181372Y-13960793D02*
X15200420Y-13951269D01*
X15200420Y-13951269D02*
X15209944Y-13941746D01*
X15209944Y-13941746D02*
X15219467Y-13922698D01*
X15390896Y-13903650D02*
X15390896Y-14036984D01*
X15343277Y-13827460D02*
X15295658Y-13970317D01*
X15295658Y-13970317D02*
X15419467Y-13970317D01*
X15486134Y-13836984D02*
X15486134Y-13875079D01*
X15562325Y-13836984D02*
X15562325Y-13875079D01*
X15857563Y-14113174D02*
X15848039Y-14103650D01*
X15848039Y-14103650D02*
X15828991Y-14075079D01*
X15828991Y-14075079D02*
X15819468Y-14056031D01*
X15819468Y-14056031D02*
X15809944Y-14027460D01*
X15809944Y-14027460D02*
X15800420Y-13979841D01*
X15800420Y-13979841D02*
X15800420Y-13941746D01*
X15800420Y-13941746D02*
X15809944Y-13894127D01*
X15809944Y-13894127D02*
X15819468Y-13865555D01*
X15819468Y-13865555D02*
X15828991Y-13846508D01*
X15828991Y-13846508D02*
X15848039Y-13817936D01*
X15848039Y-13817936D02*
X15857563Y-13808412D01*
X16019468Y-13903650D02*
X16019468Y-14036984D01*
X15971848Y-13827460D02*
X15924229Y-13970317D01*
X15924229Y-13970317D02*
X16048039Y-13970317D01*
X16105182Y-13836984D02*
X16228991Y-13836984D01*
X16228991Y-13836984D02*
X16162325Y-13913174D01*
X16162325Y-13913174D02*
X16190896Y-13913174D01*
X16190896Y-13913174D02*
X16209944Y-13922698D01*
X16209944Y-13922698D02*
X16219468Y-13932222D01*
X16219468Y-13932222D02*
X16228991Y-13951269D01*
X16228991Y-13951269D02*
X16228991Y-13998888D01*
X16228991Y-13998888D02*
X16219468Y-14017936D01*
X16219468Y-14017936D02*
X16209944Y-14027460D01*
X16209944Y-14027460D02*
X16190896Y-14036984D01*
X16190896Y-14036984D02*
X16133753Y-14036984D01*
X16133753Y-14036984D02*
X16114706Y-14027460D01*
X16114706Y-14027460D02*
X16105182Y-14017936D01*
X16467087Y-14036984D02*
X16467087Y-13836984D01*
X16552801Y-14036984D02*
X16552801Y-13932222D01*
X16552801Y-13932222D02*
X16543277Y-13913174D01*
X16543277Y-13913174D02*
X16524230Y-13903650D01*
X16524230Y-13903650D02*
X16495658Y-13903650D01*
X16495658Y-13903650D02*
X16476610Y-13913174D01*
X16476610Y-13913174D02*
X16467087Y-13922698D01*
X16676610Y-14036984D02*
X16657563Y-14027460D01*
X16657563Y-14027460D02*
X16648039Y-14017936D01*
X16648039Y-14017936D02*
X16638515Y-13998888D01*
X16638515Y-13998888D02*
X16638515Y-13941746D01*
X16638515Y-13941746D02*
X16648039Y-13922698D01*
X16648039Y-13922698D02*
X16657563Y-13913174D01*
X16657563Y-13913174D02*
X16676610Y-13903650D01*
X16676610Y-13903650D02*
X16705182Y-13903650D01*
X16705182Y-13903650D02*
X16724230Y-13913174D01*
X16724230Y-13913174D02*
X16733753Y-13922698D01*
X16733753Y-13922698D02*
X16743277Y-13941746D01*
X16743277Y-13941746D02*
X16743277Y-13998888D01*
X16743277Y-13998888D02*
X16733753Y-14017936D01*
X16733753Y-14017936D02*
X16724230Y-14027460D01*
X16724230Y-14027460D02*
X16705182Y-14036984D01*
X16705182Y-14036984D02*
X16676610Y-14036984D01*
X16857563Y-14036984D02*
X16838515Y-14027460D01*
X16838515Y-14027460D02*
X16828992Y-14008412D01*
X16828992Y-14008412D02*
X16828992Y-13836984D01*
X17009944Y-14027460D02*
X16990896Y-14036984D01*
X16990896Y-14036984D02*
X16952801Y-14036984D01*
X16952801Y-14036984D02*
X16933753Y-14027460D01*
X16933753Y-14027460D02*
X16924230Y-14008412D01*
X16924230Y-14008412D02*
X16924230Y-13932222D01*
X16924230Y-13932222D02*
X16933753Y-13913174D01*
X16933753Y-13913174D02*
X16952801Y-13903650D01*
X16952801Y-13903650D02*
X16990896Y-13903650D01*
X16990896Y-13903650D02*
X17009944Y-13913174D01*
X17009944Y-13913174D02*
X17019468Y-13932222D01*
X17019468Y-13932222D02*
X17019468Y-13951269D01*
X17019468Y-13951269D02*
X16924230Y-13970317D01*
X17095658Y-14027460D02*
X17114706Y-14036984D01*
X17114706Y-14036984D02*
X17152801Y-14036984D01*
X17152801Y-14036984D02*
X17171849Y-14027460D01*
X17171849Y-14027460D02*
X17181373Y-14008412D01*
X17181373Y-14008412D02*
X17181373Y-13998888D01*
X17181373Y-13998888D02*
X17171849Y-13979841D01*
X17171849Y-13979841D02*
X17152801Y-13970317D01*
X17152801Y-13970317D02*
X17124230Y-13970317D01*
X17124230Y-13970317D02*
X17105182Y-13960793D01*
X17105182Y-13960793D02*
X17095658Y-13941746D01*
X17095658Y-13941746D02*
X17095658Y-13932222D01*
X17095658Y-13932222D02*
X17105182Y-13913174D01*
X17105182Y-13913174D02*
X17124230Y-13903650D01*
X17124230Y-13903650D02*
X17152801Y-13903650D01*
X17152801Y-13903650D02*
X17171849Y-13913174D01*
X17248039Y-14113174D02*
X17257563Y-14103650D01*
X17257563Y-14103650D02*
X17276611Y-14075079D01*
X17276611Y-14075079D02*
X17286134Y-14056031D01*
X17286134Y-14056031D02*
X17295658Y-14027460D01*
X17295658Y-14027460D02*
X17305182Y-13979841D01*
X17305182Y-13979841D02*
X17305182Y-13941746D01*
X17305182Y-13941746D02*
X17295658Y-13894127D01*
X17295658Y-13894127D02*
X17286134Y-13865555D01*
X17286134Y-13865555D02*
X17276611Y-13846508D01*
X17276611Y-13846508D02*
X17257563Y-13817936D01*
X17257563Y-13817936D02*
X17248039Y-13808412D01*
D13*
X12172500Y-14154500D02*
X12282500Y-14264500D01*
X12282500Y-14154500D02*
X12172500Y-14264500D01*
X12227500Y-14154500D02*
X12227500Y-14264500D01*
X12172500Y-14209500D02*
X12282500Y-14209500D01*
D11*
X12648039Y-14300984D02*
X12533753Y-14300984D01*
X12590896Y-14300984D02*
X12590896Y-14100984D01*
X12590896Y-14100984D02*
X12571848Y-14129555D01*
X12571848Y-14129555D02*
X12552801Y-14148603D01*
X12552801Y-14148603D02*
X12533753Y-14158127D01*
X12733753Y-14281936D02*
X12743277Y-14291460D01*
X12743277Y-14291460D02*
X12733753Y-14300984D01*
X12733753Y-14300984D02*
X12724229Y-14291460D01*
X12724229Y-14291460D02*
X12733753Y-14281936D01*
X12733753Y-14281936D02*
X12733753Y-14300984D01*
X12933753Y-14300984D02*
X12819467Y-14300984D01*
X12876610Y-14300984D02*
X12876610Y-14100984D01*
X12876610Y-14100984D02*
X12857562Y-14129555D01*
X12857562Y-14129555D02*
X12838515Y-14148603D01*
X12838515Y-14148603D02*
X12819467Y-14158127D01*
X13057562Y-14100984D02*
X13076610Y-14100984D01*
X13076610Y-14100984D02*
X13095658Y-14110508D01*
X13095658Y-14110508D02*
X13105182Y-14120031D01*
X13105182Y-14120031D02*
X13114705Y-14139079D01*
X13114705Y-14139079D02*
X13124229Y-14177174D01*
X13124229Y-14177174D02*
X13124229Y-14224793D01*
X13124229Y-14224793D02*
X13114705Y-14262888D01*
X13114705Y-14262888D02*
X13105182Y-14281936D01*
X13105182Y-14281936D02*
X13095658Y-14291460D01*
X13095658Y-14291460D02*
X13076610Y-14300984D01*
X13076610Y-14300984D02*
X13057562Y-14300984D01*
X13057562Y-14300984D02*
X13038515Y-14291460D01*
X13038515Y-14291460D02*
X13028991Y-14281936D01*
X13028991Y-14281936D02*
X13019467Y-14262888D01*
X13019467Y-14262888D02*
X13009943Y-14224793D01*
X13009943Y-14224793D02*
X13009943Y-14177174D01*
X13009943Y-14177174D02*
X13019467Y-14139079D01*
X13019467Y-14139079D02*
X13028991Y-14120031D01*
X13028991Y-14120031D02*
X13038515Y-14110508D01*
X13038515Y-14110508D02*
X13057562Y-14100984D01*
X13248039Y-14100984D02*
X13267086Y-14100984D01*
X13267086Y-14100984D02*
X13286134Y-14110508D01*
X13286134Y-14110508D02*
X13295658Y-14120031D01*
X13295658Y-14120031D02*
X13305182Y-14139079D01*
X13305182Y-14139079D02*
X13314705Y-14177174D01*
X13314705Y-14177174D02*
X13314705Y-14224793D01*
X13314705Y-14224793D02*
X13305182Y-14262888D01*
X13305182Y-14262888D02*
X13295658Y-14281936D01*
X13295658Y-14281936D02*
X13286134Y-14291460D01*
X13286134Y-14291460D02*
X13267086Y-14300984D01*
X13267086Y-14300984D02*
X13248039Y-14300984D01*
X13248039Y-14300984D02*
X13228991Y-14291460D01*
X13228991Y-14291460D02*
X13219467Y-14281936D01*
X13219467Y-14281936D02*
X13209943Y-14262888D01*
X13209943Y-14262888D02*
X13200420Y-14224793D01*
X13200420Y-14224793D02*
X13200420Y-14177174D01*
X13200420Y-14177174D02*
X13209943Y-14139079D01*
X13209943Y-14139079D02*
X13219467Y-14120031D01*
X13219467Y-14120031D02*
X13228991Y-14110508D01*
X13228991Y-14110508D02*
X13248039Y-14100984D01*
X13400420Y-14300984D02*
X13400420Y-14167650D01*
X13400420Y-14186698D02*
X13409943Y-14177174D01*
X13409943Y-14177174D02*
X13428991Y-14167650D01*
X13428991Y-14167650D02*
X13457563Y-14167650D01*
X13457563Y-14167650D02*
X13476610Y-14177174D01*
X13476610Y-14177174D02*
X13486134Y-14196222D01*
X13486134Y-14196222D02*
X13486134Y-14300984D01*
X13486134Y-14196222D02*
X13495658Y-14177174D01*
X13495658Y-14177174D02*
X13514705Y-14167650D01*
X13514705Y-14167650D02*
X13543277Y-14167650D01*
X13543277Y-14167650D02*
X13562324Y-14177174D01*
X13562324Y-14177174D02*
X13571848Y-14196222D01*
X13571848Y-14196222D02*
X13571848Y-14300984D01*
X13667086Y-14300984D02*
X13667086Y-14167650D01*
X13667086Y-14186698D02*
X13676610Y-14177174D01*
X13676610Y-14177174D02*
X13695658Y-14167650D01*
X13695658Y-14167650D02*
X13724229Y-14167650D01*
X13724229Y-14167650D02*
X13743277Y-14177174D01*
X13743277Y-14177174D02*
X13752801Y-14196222D01*
X13752801Y-14196222D02*
X13752801Y-14300984D01*
X13752801Y-14196222D02*
X13762324Y-14177174D01*
X13762324Y-14177174D02*
X13781372Y-14167650D01*
X13781372Y-14167650D02*
X13809943Y-14167650D01*
X13809943Y-14167650D02*
X13828991Y-14177174D01*
X13828991Y-14177174D02*
X13838515Y-14196222D01*
X13838515Y-14196222D02*
X13838515Y-14300984D01*
X14228991Y-14091460D02*
X14057563Y-14348603D01*
X14486134Y-14100984D02*
X14505182Y-14100984D01*
X14505182Y-14100984D02*
X14524229Y-14110508D01*
X14524229Y-14110508D02*
X14533753Y-14120031D01*
X14533753Y-14120031D02*
X14543277Y-14139079D01*
X14543277Y-14139079D02*
X14552801Y-14177174D01*
X14552801Y-14177174D02*
X14552801Y-14224793D01*
X14552801Y-14224793D02*
X14543277Y-14262888D01*
X14543277Y-14262888D02*
X14533753Y-14281936D01*
X14533753Y-14281936D02*
X14524229Y-14291460D01*
X14524229Y-14291460D02*
X14505182Y-14300984D01*
X14505182Y-14300984D02*
X14486134Y-14300984D01*
X14486134Y-14300984D02*
X14467086Y-14291460D01*
X14467086Y-14291460D02*
X14457563Y-14281936D01*
X14457563Y-14281936D02*
X14448039Y-14262888D01*
X14448039Y-14262888D02*
X14438515Y-14224793D01*
X14438515Y-14224793D02*
X14438515Y-14177174D01*
X14438515Y-14177174D02*
X14448039Y-14139079D01*
X14448039Y-14139079D02*
X14457563Y-14120031D01*
X14457563Y-14120031D02*
X14467086Y-14110508D01*
X14467086Y-14110508D02*
X14486134Y-14100984D01*
X14638515Y-14281936D02*
X14648039Y-14291460D01*
X14648039Y-14291460D02*
X14638515Y-14300984D01*
X14638515Y-14300984D02*
X14628991Y-14291460D01*
X14628991Y-14291460D02*
X14638515Y-14281936D01*
X14638515Y-14281936D02*
X14638515Y-14300984D01*
X14771848Y-14100984D02*
X14790896Y-14100984D01*
X14790896Y-14100984D02*
X14809944Y-14110508D01*
X14809944Y-14110508D02*
X14819467Y-14120031D01*
X14819467Y-14120031D02*
X14828991Y-14139079D01*
X14828991Y-14139079D02*
X14838515Y-14177174D01*
X14838515Y-14177174D02*
X14838515Y-14224793D01*
X14838515Y-14224793D02*
X14828991Y-14262888D01*
X14828991Y-14262888D02*
X14819467Y-14281936D01*
X14819467Y-14281936D02*
X14809944Y-14291460D01*
X14809944Y-14291460D02*
X14790896Y-14300984D01*
X14790896Y-14300984D02*
X14771848Y-14300984D01*
X14771848Y-14300984D02*
X14752801Y-14291460D01*
X14752801Y-14291460D02*
X14743277Y-14281936D01*
X14743277Y-14281936D02*
X14733753Y-14262888D01*
X14733753Y-14262888D02*
X14724229Y-14224793D01*
X14724229Y-14224793D02*
X14724229Y-14177174D01*
X14724229Y-14177174D02*
X14733753Y-14139079D01*
X14733753Y-14139079D02*
X14743277Y-14120031D01*
X14743277Y-14120031D02*
X14752801Y-14110508D01*
X14752801Y-14110508D02*
X14771848Y-14100984D01*
X15009944Y-14167650D02*
X15009944Y-14300984D01*
X14962325Y-14091460D02*
X14914706Y-14234317D01*
X14914706Y-14234317D02*
X15038515Y-14234317D01*
X15095658Y-14100984D02*
X15219467Y-14100984D01*
X15219467Y-14100984D02*
X15152801Y-14177174D01*
X15152801Y-14177174D02*
X15181372Y-14177174D01*
X15181372Y-14177174D02*
X15200420Y-14186698D01*
X15200420Y-14186698D02*
X15209944Y-14196222D01*
X15209944Y-14196222D02*
X15219467Y-14215269D01*
X15219467Y-14215269D02*
X15219467Y-14262888D01*
X15219467Y-14262888D02*
X15209944Y-14281936D01*
X15209944Y-14281936D02*
X15200420Y-14291460D01*
X15200420Y-14291460D02*
X15181372Y-14300984D01*
X15181372Y-14300984D02*
X15124229Y-14300984D01*
X15124229Y-14300984D02*
X15105182Y-14291460D01*
X15105182Y-14291460D02*
X15095658Y-14281936D01*
X15286134Y-14100984D02*
X15409944Y-14100984D01*
X15409944Y-14100984D02*
X15343277Y-14177174D01*
X15343277Y-14177174D02*
X15371848Y-14177174D01*
X15371848Y-14177174D02*
X15390896Y-14186698D01*
X15390896Y-14186698D02*
X15400420Y-14196222D01*
X15400420Y-14196222D02*
X15409944Y-14215269D01*
X15409944Y-14215269D02*
X15409944Y-14262888D01*
X15409944Y-14262888D02*
X15400420Y-14281936D01*
X15400420Y-14281936D02*
X15390896Y-14291460D01*
X15390896Y-14291460D02*
X15371848Y-14300984D01*
X15371848Y-14300984D02*
X15314706Y-14300984D01*
X15314706Y-14300984D02*
X15295658Y-14291460D01*
X15295658Y-14291460D02*
X15286134Y-14281936D01*
X15486134Y-14100984D02*
X15486134Y-14139079D01*
X15562325Y-14100984D02*
X15562325Y-14139079D01*
X15857563Y-14377174D02*
X15848039Y-14367650D01*
X15848039Y-14367650D02*
X15828991Y-14339079D01*
X15828991Y-14339079D02*
X15819468Y-14320031D01*
X15819468Y-14320031D02*
X15809944Y-14291460D01*
X15809944Y-14291460D02*
X15800420Y-14243841D01*
X15800420Y-14243841D02*
X15800420Y-14205746D01*
X15800420Y-14205746D02*
X15809944Y-14158127D01*
X15809944Y-14158127D02*
X15819468Y-14129555D01*
X15819468Y-14129555D02*
X15828991Y-14110508D01*
X15828991Y-14110508D02*
X15848039Y-14081936D01*
X15848039Y-14081936D02*
X15857563Y-14072412D01*
X16019468Y-14167650D02*
X16019468Y-14300984D01*
X15971848Y-14091460D02*
X15924229Y-14234317D01*
X15924229Y-14234317D02*
X16048039Y-14234317D01*
X16276610Y-14300984D02*
X16276610Y-14100984D01*
X16362325Y-14300984D02*
X16362325Y-14196222D01*
X16362325Y-14196222D02*
X16352801Y-14177174D01*
X16352801Y-14177174D02*
X16333753Y-14167650D01*
X16333753Y-14167650D02*
X16305182Y-14167650D01*
X16305182Y-14167650D02*
X16286134Y-14177174D01*
X16286134Y-14177174D02*
X16276610Y-14186698D01*
X16486134Y-14300984D02*
X16467087Y-14291460D01*
X16467087Y-14291460D02*
X16457563Y-14281936D01*
X16457563Y-14281936D02*
X16448039Y-14262888D01*
X16448039Y-14262888D02*
X16448039Y-14205746D01*
X16448039Y-14205746D02*
X16457563Y-14186698D01*
X16457563Y-14186698D02*
X16467087Y-14177174D01*
X16467087Y-14177174D02*
X16486134Y-14167650D01*
X16486134Y-14167650D02*
X16514706Y-14167650D01*
X16514706Y-14167650D02*
X16533753Y-14177174D01*
X16533753Y-14177174D02*
X16543277Y-14186698D01*
X16543277Y-14186698D02*
X16552801Y-14205746D01*
X16552801Y-14205746D02*
X16552801Y-14262888D01*
X16552801Y-14262888D02*
X16543277Y-14281936D01*
X16543277Y-14281936D02*
X16533753Y-14291460D01*
X16533753Y-14291460D02*
X16514706Y-14300984D01*
X16514706Y-14300984D02*
X16486134Y-14300984D01*
X16667087Y-14300984D02*
X16648039Y-14291460D01*
X16648039Y-14291460D02*
X16638515Y-14272412D01*
X16638515Y-14272412D02*
X16638515Y-14100984D01*
X16819468Y-14291460D02*
X16800420Y-14300984D01*
X16800420Y-14300984D02*
X16762325Y-14300984D01*
X16762325Y-14300984D02*
X16743277Y-14291460D01*
X16743277Y-14291460D02*
X16733753Y-14272412D01*
X16733753Y-14272412D02*
X16733753Y-14196222D01*
X16733753Y-14196222D02*
X16743277Y-14177174D01*
X16743277Y-14177174D02*
X16762325Y-14167650D01*
X16762325Y-14167650D02*
X16800420Y-14167650D01*
X16800420Y-14167650D02*
X16819468Y-14177174D01*
X16819468Y-14177174D02*
X16828992Y-14196222D01*
X16828992Y-14196222D02*
X16828992Y-14215269D01*
X16828992Y-14215269D02*
X16733753Y-14234317D01*
X16905182Y-14291460D02*
X16924230Y-14300984D01*
X16924230Y-14300984D02*
X16962325Y-14300984D01*
X16962325Y-14300984D02*
X16981373Y-14291460D01*
X16981373Y-14291460D02*
X16990896Y-14272412D01*
X16990896Y-14272412D02*
X16990896Y-14262888D01*
X16990896Y-14262888D02*
X16981373Y-14243841D01*
X16981373Y-14243841D02*
X16962325Y-14234317D01*
X16962325Y-14234317D02*
X16933753Y-14234317D01*
X16933753Y-14234317D02*
X16914706Y-14224793D01*
X16914706Y-14224793D02*
X16905182Y-14205746D01*
X16905182Y-14205746D02*
X16905182Y-14196222D01*
X16905182Y-14196222D02*
X16914706Y-14177174D01*
X16914706Y-14177174D02*
X16933753Y-14167650D01*
X16933753Y-14167650D02*
X16962325Y-14167650D01*
X16962325Y-14167650D02*
X16981373Y-14177174D01*
X17057563Y-14377174D02*
X17067087Y-14367650D01*
X17067087Y-14367650D02*
X17086134Y-14339079D01*
X17086134Y-14339079D02*
X17095658Y-14320031D01*
X17095658Y-14320031D02*
X17105182Y-14291460D01*
X17105182Y-14291460D02*
X17114706Y-14243841D01*
X17114706Y-14243841D02*
X17114706Y-14205746D01*
X17114706Y-14205746D02*
X17105182Y-14158127D01*
X17105182Y-14158127D02*
X17095658Y-14129555D01*
X17095658Y-14129555D02*
X17086134Y-14110508D01*
X17086134Y-14110508D02*
X17067087Y-14081936D01*
X17067087Y-14081936D02*
X17057563Y-14072412D01*
M02*
