M48
; DRILL file {KiCad 8.0.8} date 2025-02-26T07:42:42+0900
; FORMAT={-:-/ absolute / inch / decimal}
; #@! TF.CreationDate,2025-02-26T07:42:42+09:00
; #@! TF.GenerationSoftware,Kicad,Pcbnew,8.0.8
; #@! TF.FileFunction,Plated,1,4,PTH
FMAT,2
INCH
; #@! TA.AperFunction,Plated,PTH,ViaDrill
T1C0.0157
; #@! TA.AperFunction,Plated,PTH,ComponentDrill
T2C0.0291
; #@! TA.AperFunction,Plated,PTH,ComponentDrill
T3C0.0295
; #@! TA.AperFunction,Plated,PTH,ComponentDrill
T4C0.0315
; #@! TA.AperFunction,Plated,PTH,ComponentDrill
T5C0.0354
; #@! TA.AperFunction,Plated,PTH,ComponentDrill
T6C0.0394
; #@! TA.AperFunction,Plated,PTH,ComponentDrill
T7C0.0433
%
G90
G05
T1
X4.9213Y-3.8583
X4.9213Y-4.3701
X4.9963Y-3.9333
X5.0Y-4.311
X5.0098Y-4.0453
X5.0197Y-4.2421
X5.1378Y-4.3307
X5.1476Y-3.7894
X5.1476Y-4.0846
X5.1772Y-3.9272
X5.1772Y-4.5669
X5.2165Y-4.311
X5.2657Y-4.3209
X5.2899Y-3.7894
X5.3051Y-4.3307
X5.3543Y-3.9272
X5.3543Y-4.252
X5.3543Y-4.3012
X5.374Y-4.1437
X5.3839Y-4.2126
X5.4035Y-4.0256
X5.4035Y-4.0945
X5.4331Y-4.3996
X5.4872Y-3.8435
X5.5315Y-3.8386
X5.5315Y-4.2126
X5.5315Y-4.2815
X5.5418Y-4.0655
X5.5512Y-3.9272
X5.5512Y-4.0157
X5.5906Y-4.0846
X5.8465Y-3.878
T2
X5.3945Y-4.5768
X5.4945Y-4.5768
X5.5945Y-4.5768
T3
X5.9541Y-4.1654
X5.9541Y-4.2154
X5.9541Y-4.2654
X6.2677Y-4.1622
X6.2677Y-4.2122
X6.2677Y-4.2622
X6.5762Y-4.1618
X6.5762Y-4.2118
X6.5762Y-4.2618
T4
X5.6449Y-3.8465
X5.6449Y-3.9882
X5.6594Y-4.0921
X5.6594Y-4.3921
X5.7677Y-4.0902
X5.7677Y-4.3902
X5.9449Y-3.8465
X5.9449Y-3.9882
X6.0386Y-3.8465
X6.0386Y-3.9882
X6.3386Y-3.8465
X6.3386Y-3.9882
X6.4325Y-3.8461
X6.4325Y-3.9898
X6.7325Y-3.8461
X6.7325Y-3.9898
X6.7756Y-4.35
X6.7756Y-4.65
X6.8386Y-4.063
X6.8386Y-4.2598
X6.8598Y-3.8445
X6.9173Y-4.35
X6.9173Y-4.65
X7.0569Y-4.3506
X7.0569Y-4.6506
X7.1598Y-3.8445
T5
X5.9547Y-4.4585
X5.9547Y-4.5585
X6.2673Y-4.4555
X6.2673Y-4.5555
X6.5787Y-4.4551
X6.5787Y-4.5551
T6
X5.1681Y-3.6193
X5.1681Y-3.7193
X5.2681Y-3.6193
X5.2681Y-3.7193
X5.3681Y-3.6193
X5.3681Y-3.7193
X5.4681Y-3.6193
X5.4681Y-3.7193
X5.5681Y-3.6193
X5.5681Y-3.7193
X5.6681Y-3.6193
X5.6681Y-3.7193
X5.7681Y-3.6193
X5.7681Y-3.7193
X5.8681Y-3.6193
X5.8681Y-3.7193
X5.9681Y-3.6193
X5.9681Y-3.7193
X6.0681Y-3.6193
X6.0681Y-3.7193
X6.1681Y-3.6193
X6.1681Y-3.7193
X6.2681Y-3.6193
X6.2681Y-3.7193
X6.3681Y-3.6193
X6.3681Y-3.7193
X6.4681Y-3.6193
X6.4681Y-3.7193
X6.5681Y-3.6193
X6.5681Y-3.7193
X6.6681Y-3.6193
X6.6681Y-3.7193
X6.7681Y-3.6193
X6.7681Y-3.7193
X6.8681Y-3.6193
X6.8681Y-3.7193
X6.9681Y-3.6193
X6.9681Y-3.7193
X7.0681Y-3.6193
X7.0681Y-3.7193
X7.2913Y-4.0378
X7.2913Y-4.1378
X7.2913Y-4.2378
T7
X6.9646Y-3.9882
X6.9646Y-4.2441
X7.1417Y-3.9882
X7.1417Y-4.2441
M30
