G04 #@! TF.GenerationSoftware,KiCad,Pcbnew,8.0.8*
G04 #@! TF.CreationDate,2025-02-26T07:42:39+09:00*
G04 #@! TF.ProjectId,1bit-cpu_HAT,31626974-2d63-4707-955f-4841542e6b69,rev?*
G04 #@! TF.SameCoordinates,Original*
G04 #@! TF.FileFunction,Legend,Top*
G04 #@! TF.FilePolarity,Positive*
%FSLAX46Y46*%
G04 Gerber Fmt 4.6, Leading zero omitted, Abs format (unit mm)*
G04 Created by KiCad (PCBNEW 8.0.8) date 2025-02-26 07:42:39*
%MOMM*%
%LPD*%
G01*
G04 APERTURE LIST*
%ADD10C,0.300000*%
%ADD11C,0.250000*%
%ADD12C,0.150000*%
%ADD13C,0.254000*%
%ADD14C,0.120000*%
%ADD15C,0.100000*%
G04 APERTURE END LIST*
D10*
X163707971Y-116198346D02*
X163779400Y-116269774D01*
X163779400Y-116269774D02*
X163850828Y-116484060D01*
X163850828Y-116484060D02*
X163850828Y-116626917D01*
X163850828Y-116626917D02*
X163779400Y-116841203D01*
X163779400Y-116841203D02*
X163636542Y-116984060D01*
X163636542Y-116984060D02*
X163493685Y-117055489D01*
X163493685Y-117055489D02*
X163207971Y-117126917D01*
X163207971Y-117126917D02*
X162993685Y-117126917D01*
X162993685Y-117126917D02*
X162707971Y-117055489D01*
X162707971Y-117055489D02*
X162565114Y-116984060D01*
X162565114Y-116984060D02*
X162422257Y-116841203D01*
X162422257Y-116841203D02*
X162350828Y-116626917D01*
X162350828Y-116626917D02*
X162350828Y-116484060D01*
X162350828Y-116484060D02*
X162422257Y-116269774D01*
X162422257Y-116269774D02*
X162493685Y-116198346D01*
X163850828Y-115341203D02*
X163779400Y-115484060D01*
X163779400Y-115484060D02*
X163636542Y-115555489D01*
X163636542Y-115555489D02*
X162350828Y-115555489D01*
X163850828Y-114555489D02*
X163779400Y-114698346D01*
X163779400Y-114698346D02*
X163707971Y-114769775D01*
X163707971Y-114769775D02*
X163565114Y-114841203D01*
X163565114Y-114841203D02*
X163136542Y-114841203D01*
X163136542Y-114841203D02*
X162993685Y-114769775D01*
X162993685Y-114769775D02*
X162922257Y-114698346D01*
X162922257Y-114698346D02*
X162850828Y-114555489D01*
X162850828Y-114555489D02*
X162850828Y-114341203D01*
X162850828Y-114341203D02*
X162922257Y-114198346D01*
X162922257Y-114198346D02*
X162993685Y-114126918D01*
X162993685Y-114126918D02*
X163136542Y-114055489D01*
X163136542Y-114055489D02*
X163565114Y-114055489D01*
X163565114Y-114055489D02*
X163707971Y-114126918D01*
X163707971Y-114126918D02*
X163779400Y-114198346D01*
X163779400Y-114198346D02*
X163850828Y-114341203D01*
X163850828Y-114341203D02*
X163850828Y-114555489D01*
X163779400Y-112769775D02*
X163850828Y-112912632D01*
X163850828Y-112912632D02*
X163850828Y-113198346D01*
X163850828Y-113198346D02*
X163779400Y-113341203D01*
X163779400Y-113341203D02*
X163707971Y-113412632D01*
X163707971Y-113412632D02*
X163565114Y-113484060D01*
X163565114Y-113484060D02*
X163136542Y-113484060D01*
X163136542Y-113484060D02*
X162993685Y-113412632D01*
X162993685Y-113412632D02*
X162922257Y-113341203D01*
X162922257Y-113341203D02*
X162850828Y-113198346D01*
X162850828Y-113198346D02*
X162850828Y-112912632D01*
X162850828Y-112912632D02*
X162922257Y-112769775D01*
X163850828Y-112126918D02*
X162350828Y-112126918D01*
X163279400Y-111984061D02*
X163850828Y-111555489D01*
X162850828Y-111555489D02*
X163422257Y-112126918D01*
X147800828Y-117588346D02*
X147086542Y-118088346D01*
X147800828Y-118445489D02*
X146300828Y-118445489D01*
X146300828Y-118445489D02*
X146300828Y-117874060D01*
X146300828Y-117874060D02*
X146372257Y-117731203D01*
X146372257Y-117731203D02*
X146443685Y-117659774D01*
X146443685Y-117659774D02*
X146586542Y-117588346D01*
X146586542Y-117588346D02*
X146800828Y-117588346D01*
X146800828Y-117588346D02*
X146943685Y-117659774D01*
X146943685Y-117659774D02*
X147015114Y-117731203D01*
X147015114Y-117731203D02*
X147086542Y-117874060D01*
X147086542Y-117874060D02*
X147086542Y-118445489D01*
X147729400Y-116374060D02*
X147800828Y-116516917D01*
X147800828Y-116516917D02*
X147800828Y-116802632D01*
X147800828Y-116802632D02*
X147729400Y-116945489D01*
X147729400Y-116945489D02*
X147586542Y-117016917D01*
X147586542Y-117016917D02*
X147015114Y-117016917D01*
X147015114Y-117016917D02*
X146872257Y-116945489D01*
X146872257Y-116945489D02*
X146800828Y-116802632D01*
X146800828Y-116802632D02*
X146800828Y-116516917D01*
X146800828Y-116516917D02*
X146872257Y-116374060D01*
X146872257Y-116374060D02*
X147015114Y-116302632D01*
X147015114Y-116302632D02*
X147157971Y-116302632D01*
X147157971Y-116302632D02*
X147300828Y-117016917D01*
X146800828Y-115016918D02*
X148015114Y-115016918D01*
X148015114Y-115016918D02*
X148157971Y-115088346D01*
X148157971Y-115088346D02*
X148229400Y-115159775D01*
X148229400Y-115159775D02*
X148300828Y-115302632D01*
X148300828Y-115302632D02*
X148300828Y-115516918D01*
X148300828Y-115516918D02*
X148229400Y-115659775D01*
X147729400Y-115016918D02*
X147800828Y-115159775D01*
X147800828Y-115159775D02*
X147800828Y-115445489D01*
X147800828Y-115445489D02*
X147729400Y-115588346D01*
X147729400Y-115588346D02*
X147657971Y-115659775D01*
X147657971Y-115659775D02*
X147515114Y-115731203D01*
X147515114Y-115731203D02*
X147086542Y-115731203D01*
X147086542Y-115731203D02*
X146943685Y-115659775D01*
X146943685Y-115659775D02*
X146872257Y-115588346D01*
X146872257Y-115588346D02*
X146800828Y-115445489D01*
X146800828Y-115445489D02*
X146800828Y-115159775D01*
X146800828Y-115159775D02*
X146872257Y-115016918D01*
X147372257Y-113231203D02*
X147372257Y-112516918D01*
X147800828Y-113374060D02*
X146300828Y-112874060D01*
X146300828Y-112874060D02*
X147800828Y-112374060D01*
X182500828Y-113088346D02*
X181786542Y-113588346D01*
X182500828Y-113945489D02*
X181000828Y-113945489D01*
X181000828Y-113945489D02*
X181000828Y-113374060D01*
X181000828Y-113374060D02*
X181072257Y-113231203D01*
X181072257Y-113231203D02*
X181143685Y-113159774D01*
X181143685Y-113159774D02*
X181286542Y-113088346D01*
X181286542Y-113088346D02*
X181500828Y-113088346D01*
X181500828Y-113088346D02*
X181643685Y-113159774D01*
X181643685Y-113159774D02*
X181715114Y-113231203D01*
X181715114Y-113231203D02*
X181786542Y-113374060D01*
X181786542Y-113374060D02*
X181786542Y-113945489D01*
X182429400Y-111874060D02*
X182500828Y-112016917D01*
X182500828Y-112016917D02*
X182500828Y-112302632D01*
X182500828Y-112302632D02*
X182429400Y-112445489D01*
X182429400Y-112445489D02*
X182286542Y-112516917D01*
X182286542Y-112516917D02*
X181715114Y-112516917D01*
X181715114Y-112516917D02*
X181572257Y-112445489D01*
X181572257Y-112445489D02*
X181500828Y-112302632D01*
X181500828Y-112302632D02*
X181500828Y-112016917D01*
X181500828Y-112016917D02*
X181572257Y-111874060D01*
X181572257Y-111874060D02*
X181715114Y-111802632D01*
X181715114Y-111802632D02*
X181857971Y-111802632D01*
X181857971Y-111802632D02*
X182000828Y-112516917D01*
X182429400Y-111231203D02*
X182500828Y-111088346D01*
X182500828Y-111088346D02*
X182500828Y-110802632D01*
X182500828Y-110802632D02*
X182429400Y-110659775D01*
X182429400Y-110659775D02*
X182286542Y-110588346D01*
X182286542Y-110588346D02*
X182215114Y-110588346D01*
X182215114Y-110588346D02*
X182072257Y-110659775D01*
X182072257Y-110659775D02*
X182000828Y-110802632D01*
X182000828Y-110802632D02*
X182000828Y-111016918D01*
X182000828Y-111016918D02*
X181929400Y-111159775D01*
X181929400Y-111159775D02*
X181786542Y-111231203D01*
X181786542Y-111231203D02*
X181715114Y-111231203D01*
X181715114Y-111231203D02*
X181572257Y-111159775D01*
X181572257Y-111159775D02*
X181500828Y-111016918D01*
X181500828Y-111016918D02*
X181500828Y-110802632D01*
X181500828Y-110802632D02*
X181572257Y-110659775D01*
X182429400Y-109374060D02*
X182500828Y-109516917D01*
X182500828Y-109516917D02*
X182500828Y-109802632D01*
X182500828Y-109802632D02*
X182429400Y-109945489D01*
X182429400Y-109945489D02*
X182286542Y-110016917D01*
X182286542Y-110016917D02*
X181715114Y-110016917D01*
X181715114Y-110016917D02*
X181572257Y-109945489D01*
X181572257Y-109945489D02*
X181500828Y-109802632D01*
X181500828Y-109802632D02*
X181500828Y-109516917D01*
X181500828Y-109516917D02*
X181572257Y-109374060D01*
X181572257Y-109374060D02*
X181715114Y-109302632D01*
X181715114Y-109302632D02*
X181857971Y-109302632D01*
X181857971Y-109302632D02*
X182000828Y-110016917D01*
X181500828Y-108874060D02*
X181500828Y-108302632D01*
X181000828Y-108659775D02*
X182286542Y-108659775D01*
X182286542Y-108659775D02*
X182429400Y-108588346D01*
X182429400Y-108588346D02*
X182500828Y-108445489D01*
X182500828Y-108445489D02*
X182500828Y-108302632D01*
D11*
X142114619Y-111823622D02*
X142114619Y-112395050D01*
X142114619Y-112109336D02*
X141114619Y-112109336D01*
X141114619Y-112109336D02*
X141257476Y-112204574D01*
X141257476Y-112204574D02*
X141352714Y-112299812D01*
X141352714Y-112299812D02*
X141400333Y-112395050D01*
X142114619Y-111395050D02*
X141114619Y-111395050D01*
X141495571Y-111395050D02*
X141447952Y-111299812D01*
X141447952Y-111299812D02*
X141447952Y-111109336D01*
X141447952Y-111109336D02*
X141495571Y-111014098D01*
X141495571Y-111014098D02*
X141543190Y-110966479D01*
X141543190Y-110966479D02*
X141638428Y-110918860D01*
X141638428Y-110918860D02*
X141924142Y-110918860D01*
X141924142Y-110918860D02*
X142019380Y-110966479D01*
X142019380Y-110966479D02*
X142067000Y-111014098D01*
X142067000Y-111014098D02*
X142114619Y-111109336D01*
X142114619Y-111109336D02*
X142114619Y-111299812D01*
X142114619Y-111299812D02*
X142067000Y-111395050D01*
X142114619Y-110490288D02*
X141447952Y-110490288D01*
X141114619Y-110490288D02*
X141162238Y-110537907D01*
X141162238Y-110537907D02*
X141209857Y-110490288D01*
X141209857Y-110490288D02*
X141162238Y-110442669D01*
X141162238Y-110442669D02*
X141114619Y-110490288D01*
X141114619Y-110490288D02*
X141209857Y-110490288D01*
X141447952Y-110156955D02*
X141447952Y-109776003D01*
X141114619Y-110014098D02*
X141971761Y-110014098D01*
X141971761Y-110014098D02*
X142067000Y-109966479D01*
X142067000Y-109966479D02*
X142114619Y-109871241D01*
X142114619Y-109871241D02*
X142114619Y-109776003D01*
X142019380Y-108871241D02*
X142067000Y-108918860D01*
X142067000Y-108918860D02*
X142114619Y-109061717D01*
X142114619Y-109061717D02*
X142114619Y-109156955D01*
X142114619Y-109156955D02*
X142067000Y-109299812D01*
X142067000Y-109299812D02*
X141971761Y-109395050D01*
X141971761Y-109395050D02*
X141876523Y-109442669D01*
X141876523Y-109442669D02*
X141686047Y-109490288D01*
X141686047Y-109490288D02*
X141543190Y-109490288D01*
X141543190Y-109490288D02*
X141352714Y-109442669D01*
X141352714Y-109442669D02*
X141257476Y-109395050D01*
X141257476Y-109395050D02*
X141162238Y-109299812D01*
X141162238Y-109299812D02*
X141114619Y-109156955D01*
X141114619Y-109156955D02*
X141114619Y-109061717D01*
X141114619Y-109061717D02*
X141162238Y-108918860D01*
X141162238Y-108918860D02*
X141209857Y-108871241D01*
X142114619Y-108442669D02*
X141114619Y-108442669D01*
X141114619Y-108442669D02*
X141114619Y-108061717D01*
X141114619Y-108061717D02*
X141162238Y-107966479D01*
X141162238Y-107966479D02*
X141209857Y-107918860D01*
X141209857Y-107918860D02*
X141305095Y-107871241D01*
X141305095Y-107871241D02*
X141447952Y-107871241D01*
X141447952Y-107871241D02*
X141543190Y-107918860D01*
X141543190Y-107918860D02*
X141590809Y-107966479D01*
X141590809Y-107966479D02*
X141638428Y-108061717D01*
X141638428Y-108061717D02*
X141638428Y-108442669D01*
X141114619Y-107442669D02*
X141924142Y-107442669D01*
X141924142Y-107442669D02*
X142019380Y-107395050D01*
X142019380Y-107395050D02*
X142067000Y-107347431D01*
X142067000Y-107347431D02*
X142114619Y-107252193D01*
X142114619Y-107252193D02*
X142114619Y-107061717D01*
X142114619Y-107061717D02*
X142067000Y-106966479D01*
X142067000Y-106966479D02*
X142019380Y-106918860D01*
X142019380Y-106918860D02*
X141924142Y-106871241D01*
X141924142Y-106871241D02*
X141114619Y-106871241D01*
X142114619Y-105633145D02*
X141114619Y-105633145D01*
X141590809Y-105633145D02*
X141590809Y-105061717D01*
X142114619Y-105061717D02*
X141114619Y-105061717D01*
X141828904Y-104633145D02*
X141828904Y-104156955D01*
X142114619Y-104728383D02*
X141114619Y-104395050D01*
X141114619Y-104395050D02*
X142114619Y-104061717D01*
X141114619Y-103871240D02*
X141114619Y-103299812D01*
X142114619Y-103585526D02*
X141114619Y-103585526D01*
D10*
X156050828Y-115555489D02*
X154550828Y-115555489D01*
X154550828Y-115555489D02*
X154550828Y-114984060D01*
X154550828Y-114984060D02*
X154622257Y-114841203D01*
X154622257Y-114841203D02*
X154693685Y-114769774D01*
X154693685Y-114769774D02*
X154836542Y-114698346D01*
X154836542Y-114698346D02*
X155050828Y-114698346D01*
X155050828Y-114698346D02*
X155193685Y-114769774D01*
X155193685Y-114769774D02*
X155265114Y-114841203D01*
X155265114Y-114841203D02*
X155336542Y-114984060D01*
X155336542Y-114984060D02*
X155336542Y-115555489D01*
X155907971Y-113198346D02*
X155979400Y-113269774D01*
X155979400Y-113269774D02*
X156050828Y-113484060D01*
X156050828Y-113484060D02*
X156050828Y-113626917D01*
X156050828Y-113626917D02*
X155979400Y-113841203D01*
X155979400Y-113841203D02*
X155836542Y-113984060D01*
X155836542Y-113984060D02*
X155693685Y-114055489D01*
X155693685Y-114055489D02*
X155407971Y-114126917D01*
X155407971Y-114126917D02*
X155193685Y-114126917D01*
X155193685Y-114126917D02*
X154907971Y-114055489D01*
X154907971Y-114055489D02*
X154765114Y-113984060D01*
X154765114Y-113984060D02*
X154622257Y-113841203D01*
X154622257Y-113841203D02*
X154550828Y-113626917D01*
X154550828Y-113626917D02*
X154550828Y-113484060D01*
X154550828Y-113484060D02*
X154622257Y-113269774D01*
X154622257Y-113269774D02*
X154693685Y-113198346D01*
D12*
X144204819Y-108178094D02*
X143204819Y-108178094D01*
X143204819Y-108178094D02*
X143204819Y-107939999D01*
X143204819Y-107939999D02*
X143252438Y-107797142D01*
X143252438Y-107797142D02*
X143347676Y-107701904D01*
X143347676Y-107701904D02*
X143442914Y-107654285D01*
X143442914Y-107654285D02*
X143633390Y-107606666D01*
X143633390Y-107606666D02*
X143776247Y-107606666D01*
X143776247Y-107606666D02*
X143966723Y-107654285D01*
X143966723Y-107654285D02*
X144061961Y-107701904D01*
X144061961Y-107701904D02*
X144157200Y-107797142D01*
X144157200Y-107797142D02*
X144204819Y-107939999D01*
X144204819Y-107939999D02*
X144204819Y-108178094D01*
X144204819Y-106654285D02*
X144204819Y-107225713D01*
X144204819Y-106939999D02*
X143204819Y-106939999D01*
X143204819Y-106939999D02*
X143347676Y-107035237D01*
X143347676Y-107035237D02*
X143442914Y-107130475D01*
X143442914Y-107130475D02*
X143490533Y-107225713D01*
X142404819Y-111821904D02*
X141404819Y-111821904D01*
X142404819Y-111250476D02*
X141833390Y-111679047D01*
X141404819Y-111250476D02*
X141976247Y-111821904D01*
X167550057Y-110595238D02*
X167502438Y-110690476D01*
X167502438Y-110690476D02*
X167407200Y-110785714D01*
X167407200Y-110785714D02*
X167264342Y-110928571D01*
X167264342Y-110928571D02*
X167216723Y-111023809D01*
X167216723Y-111023809D02*
X167216723Y-111119047D01*
X167454819Y-111071428D02*
X167407200Y-111166666D01*
X167407200Y-111166666D02*
X167311961Y-111261904D01*
X167311961Y-111261904D02*
X167121485Y-111309523D01*
X167121485Y-111309523D02*
X166788152Y-111309523D01*
X166788152Y-111309523D02*
X166597676Y-111261904D01*
X166597676Y-111261904D02*
X166502438Y-111166666D01*
X166502438Y-111166666D02*
X166454819Y-111071428D01*
X166454819Y-111071428D02*
X166454819Y-110880952D01*
X166454819Y-110880952D02*
X166502438Y-110785714D01*
X166502438Y-110785714D02*
X166597676Y-110690476D01*
X166597676Y-110690476D02*
X166788152Y-110642857D01*
X166788152Y-110642857D02*
X167121485Y-110642857D01*
X167121485Y-110642857D02*
X167311961Y-110690476D01*
X167311961Y-110690476D02*
X167407200Y-110785714D01*
X167407200Y-110785714D02*
X167454819Y-110880952D01*
X167454819Y-110880952D02*
X167454819Y-111071428D01*
X166454819Y-110309523D02*
X166454819Y-109690476D01*
X166454819Y-109690476D02*
X166835771Y-110023809D01*
X166835771Y-110023809D02*
X166835771Y-109880952D01*
X166835771Y-109880952D02*
X166883390Y-109785714D01*
X166883390Y-109785714D02*
X166931009Y-109738095D01*
X166931009Y-109738095D02*
X167026247Y-109690476D01*
X167026247Y-109690476D02*
X167264342Y-109690476D01*
X167264342Y-109690476D02*
X167359580Y-109738095D01*
X167359580Y-109738095D02*
X167407200Y-109785714D01*
X167407200Y-109785714D02*
X167454819Y-109880952D01*
X167454819Y-109880952D02*
X167454819Y-110166666D01*
X167454819Y-110166666D02*
X167407200Y-110261904D01*
X167407200Y-110261904D02*
X167359580Y-110309523D01*
X166552142Y-98144819D02*
X166218809Y-97668628D01*
X165980714Y-98144819D02*
X165980714Y-97144819D01*
X165980714Y-97144819D02*
X166361666Y-97144819D01*
X166361666Y-97144819D02*
X166456904Y-97192438D01*
X166456904Y-97192438D02*
X166504523Y-97240057D01*
X166504523Y-97240057D02*
X166552142Y-97335295D01*
X166552142Y-97335295D02*
X166552142Y-97478152D01*
X166552142Y-97478152D02*
X166504523Y-97573390D01*
X166504523Y-97573390D02*
X166456904Y-97621009D01*
X166456904Y-97621009D02*
X166361666Y-97668628D01*
X166361666Y-97668628D02*
X165980714Y-97668628D01*
X167504523Y-98144819D02*
X166933095Y-98144819D01*
X167218809Y-98144819D02*
X167218809Y-97144819D01*
X167218809Y-97144819D02*
X167123571Y-97287676D01*
X167123571Y-97287676D02*
X167028333Y-97382914D01*
X167028333Y-97382914D02*
X166933095Y-97430533D01*
X168409285Y-97144819D02*
X167933095Y-97144819D01*
X167933095Y-97144819D02*
X167885476Y-97621009D01*
X167885476Y-97621009D02*
X167933095Y-97573390D01*
X167933095Y-97573390D02*
X168028333Y-97525771D01*
X168028333Y-97525771D02*
X168266428Y-97525771D01*
X168266428Y-97525771D02*
X168361666Y-97573390D01*
X168361666Y-97573390D02*
X168409285Y-97621009D01*
X168409285Y-97621009D02*
X168456904Y-97716247D01*
X168456904Y-97716247D02*
X168456904Y-97954342D01*
X168456904Y-97954342D02*
X168409285Y-98049580D01*
X168409285Y-98049580D02*
X168361666Y-98097200D01*
X168361666Y-98097200D02*
X168266428Y-98144819D01*
X168266428Y-98144819D02*
X168028333Y-98144819D01*
X168028333Y-98144819D02*
X167933095Y-98097200D01*
X167933095Y-98097200D02*
X167885476Y-98049580D01*
X151550057Y-110595238D02*
X151502438Y-110690476D01*
X151502438Y-110690476D02*
X151407200Y-110785714D01*
X151407200Y-110785714D02*
X151264342Y-110928571D01*
X151264342Y-110928571D02*
X151216723Y-111023809D01*
X151216723Y-111023809D02*
X151216723Y-111119047D01*
X151454819Y-111071428D02*
X151407200Y-111166666D01*
X151407200Y-111166666D02*
X151311961Y-111261904D01*
X151311961Y-111261904D02*
X151121485Y-111309523D01*
X151121485Y-111309523D02*
X150788152Y-111309523D01*
X150788152Y-111309523D02*
X150597676Y-111261904D01*
X150597676Y-111261904D02*
X150502438Y-111166666D01*
X150502438Y-111166666D02*
X150454819Y-111071428D01*
X150454819Y-111071428D02*
X150454819Y-110880952D01*
X150454819Y-110880952D02*
X150502438Y-110785714D01*
X150502438Y-110785714D02*
X150597676Y-110690476D01*
X150597676Y-110690476D02*
X150788152Y-110642857D01*
X150788152Y-110642857D02*
X151121485Y-110642857D01*
X151121485Y-110642857D02*
X151311961Y-110690476D01*
X151311961Y-110690476D02*
X151407200Y-110785714D01*
X151407200Y-110785714D02*
X151454819Y-110880952D01*
X151454819Y-110880952D02*
X151454819Y-111071428D01*
X151454819Y-109690476D02*
X151454819Y-110261904D01*
X151454819Y-109976190D02*
X150454819Y-109976190D01*
X150454819Y-109976190D02*
X150597676Y-110071428D01*
X150597676Y-110071428D02*
X150692914Y-110166666D01*
X150692914Y-110166666D02*
X150740533Y-110261904D01*
X179699819Y-114481666D02*
X179223628Y-114814999D01*
X179699819Y-115053094D02*
X178699819Y-115053094D01*
X178699819Y-115053094D02*
X178699819Y-114672142D01*
X178699819Y-114672142D02*
X178747438Y-114576904D01*
X178747438Y-114576904D02*
X178795057Y-114529285D01*
X178795057Y-114529285D02*
X178890295Y-114481666D01*
X178890295Y-114481666D02*
X179033152Y-114481666D01*
X179033152Y-114481666D02*
X179128390Y-114529285D01*
X179128390Y-114529285D02*
X179176009Y-114576904D01*
X179176009Y-114576904D02*
X179223628Y-114672142D01*
X179223628Y-114672142D02*
X179223628Y-115053094D01*
X179128390Y-113910237D02*
X179080771Y-114005475D01*
X179080771Y-114005475D02*
X179033152Y-114053094D01*
X179033152Y-114053094D02*
X178937914Y-114100713D01*
X178937914Y-114100713D02*
X178890295Y-114100713D01*
X178890295Y-114100713D02*
X178795057Y-114053094D01*
X178795057Y-114053094D02*
X178747438Y-114005475D01*
X178747438Y-114005475D02*
X178699819Y-113910237D01*
X178699819Y-113910237D02*
X178699819Y-113719761D01*
X178699819Y-113719761D02*
X178747438Y-113624523D01*
X178747438Y-113624523D02*
X178795057Y-113576904D01*
X178795057Y-113576904D02*
X178890295Y-113529285D01*
X178890295Y-113529285D02*
X178937914Y-113529285D01*
X178937914Y-113529285D02*
X179033152Y-113576904D01*
X179033152Y-113576904D02*
X179080771Y-113624523D01*
X179080771Y-113624523D02*
X179128390Y-113719761D01*
X179128390Y-113719761D02*
X179128390Y-113910237D01*
X179128390Y-113910237D02*
X179176009Y-114005475D01*
X179176009Y-114005475D02*
X179223628Y-114053094D01*
X179223628Y-114053094D02*
X179318866Y-114100713D01*
X179318866Y-114100713D02*
X179509342Y-114100713D01*
X179509342Y-114100713D02*
X179604580Y-114053094D01*
X179604580Y-114053094D02*
X179652200Y-114005475D01*
X179652200Y-114005475D02*
X179699819Y-113910237D01*
X179699819Y-113910237D02*
X179699819Y-113719761D01*
X179699819Y-113719761D02*
X179652200Y-113624523D01*
X179652200Y-113624523D02*
X179604580Y-113576904D01*
X179604580Y-113576904D02*
X179509342Y-113529285D01*
X179509342Y-113529285D02*
X179318866Y-113529285D01*
X179318866Y-113529285D02*
X179223628Y-113576904D01*
X179223628Y-113576904D02*
X179176009Y-113624523D01*
X179176009Y-113624523D02*
X179128390Y-113719761D01*
X184866666Y-99684819D02*
X184866666Y-100399104D01*
X184866666Y-100399104D02*
X184819047Y-100541961D01*
X184819047Y-100541961D02*
X184723809Y-100637200D01*
X184723809Y-100637200D02*
X184580952Y-100684819D01*
X184580952Y-100684819D02*
X184485714Y-100684819D01*
X185295238Y-99780057D02*
X185342857Y-99732438D01*
X185342857Y-99732438D02*
X185438095Y-99684819D01*
X185438095Y-99684819D02*
X185676190Y-99684819D01*
X185676190Y-99684819D02*
X185771428Y-99732438D01*
X185771428Y-99732438D02*
X185819047Y-99780057D01*
X185819047Y-99780057D02*
X185866666Y-99875295D01*
X185866666Y-99875295D02*
X185866666Y-99970533D01*
X185866666Y-99970533D02*
X185819047Y-100113390D01*
X185819047Y-100113390D02*
X185247619Y-100684819D01*
X185247619Y-100684819D02*
X185866666Y-100684819D01*
X177883333Y-98104819D02*
X177550000Y-97628628D01*
X177311905Y-98104819D02*
X177311905Y-97104819D01*
X177311905Y-97104819D02*
X177692857Y-97104819D01*
X177692857Y-97104819D02*
X177788095Y-97152438D01*
X177788095Y-97152438D02*
X177835714Y-97200057D01*
X177835714Y-97200057D02*
X177883333Y-97295295D01*
X177883333Y-97295295D02*
X177883333Y-97438152D01*
X177883333Y-97438152D02*
X177835714Y-97533390D01*
X177835714Y-97533390D02*
X177788095Y-97581009D01*
X177788095Y-97581009D02*
X177692857Y-97628628D01*
X177692857Y-97628628D02*
X177311905Y-97628628D01*
X178835714Y-98104819D02*
X178264286Y-98104819D01*
X178550000Y-98104819D02*
X178550000Y-97104819D01*
X178550000Y-97104819D02*
X178454762Y-97247676D01*
X178454762Y-97247676D02*
X178359524Y-97342914D01*
X178359524Y-97342914D02*
X178264286Y-97390533D01*
D13*
X137836905Y-113554318D02*
X138260238Y-114824318D01*
X138260238Y-114824318D02*
X138683572Y-113554318D01*
X139832619Y-114824318D02*
X139409285Y-114219556D01*
X139106904Y-114824318D02*
X139106904Y-113554318D01*
X139106904Y-113554318D02*
X139590714Y-113554318D01*
X139590714Y-113554318D02*
X139711666Y-113614794D01*
X139711666Y-113614794D02*
X139772143Y-113675270D01*
X139772143Y-113675270D02*
X139832619Y-113796222D01*
X139832619Y-113796222D02*
X139832619Y-113977651D01*
X139832619Y-113977651D02*
X139772143Y-114098603D01*
X139772143Y-114098603D02*
X139711666Y-114159080D01*
X139711666Y-114159080D02*
X139590714Y-114219556D01*
X139590714Y-114219556D02*
X139106904Y-114219556D01*
X141042143Y-114824318D02*
X140316428Y-114824318D01*
X140679285Y-114824318D02*
X140679285Y-113554318D01*
X140679285Y-113554318D02*
X140558333Y-113735746D01*
X140558333Y-113735746D02*
X140437381Y-113856699D01*
X140437381Y-113856699D02*
X140316428Y-113917175D01*
D12*
X176154819Y-114466666D02*
X175678628Y-114799999D01*
X176154819Y-115038094D02*
X175154819Y-115038094D01*
X175154819Y-115038094D02*
X175154819Y-114657142D01*
X175154819Y-114657142D02*
X175202438Y-114561904D01*
X175202438Y-114561904D02*
X175250057Y-114514285D01*
X175250057Y-114514285D02*
X175345295Y-114466666D01*
X175345295Y-114466666D02*
X175488152Y-114466666D01*
X175488152Y-114466666D02*
X175583390Y-114514285D01*
X175583390Y-114514285D02*
X175631009Y-114561904D01*
X175631009Y-114561904D02*
X175678628Y-114657142D01*
X175678628Y-114657142D02*
X175678628Y-115038094D01*
X175154819Y-114133332D02*
X175154819Y-113466666D01*
X175154819Y-113466666D02*
X176154819Y-113895237D01*
X159800057Y-110595238D02*
X159752438Y-110690476D01*
X159752438Y-110690476D02*
X159657200Y-110785714D01*
X159657200Y-110785714D02*
X159514342Y-110928571D01*
X159514342Y-110928571D02*
X159466723Y-111023809D01*
X159466723Y-111023809D02*
X159466723Y-111119047D01*
X159704819Y-111071428D02*
X159657200Y-111166666D01*
X159657200Y-111166666D02*
X159561961Y-111261904D01*
X159561961Y-111261904D02*
X159371485Y-111309523D01*
X159371485Y-111309523D02*
X159038152Y-111309523D01*
X159038152Y-111309523D02*
X158847676Y-111261904D01*
X158847676Y-111261904D02*
X158752438Y-111166666D01*
X158752438Y-111166666D02*
X158704819Y-111071428D01*
X158704819Y-111071428D02*
X158704819Y-110880952D01*
X158704819Y-110880952D02*
X158752438Y-110785714D01*
X158752438Y-110785714D02*
X158847676Y-110690476D01*
X158847676Y-110690476D02*
X159038152Y-110642857D01*
X159038152Y-110642857D02*
X159371485Y-110642857D01*
X159371485Y-110642857D02*
X159561961Y-110690476D01*
X159561961Y-110690476D02*
X159657200Y-110785714D01*
X159657200Y-110785714D02*
X159704819Y-110880952D01*
X159704819Y-110880952D02*
X159704819Y-111071428D01*
X158800057Y-110261904D02*
X158752438Y-110214285D01*
X158752438Y-110214285D02*
X158704819Y-110119047D01*
X158704819Y-110119047D02*
X158704819Y-109880952D01*
X158704819Y-109880952D02*
X158752438Y-109785714D01*
X158752438Y-109785714D02*
X158800057Y-109738095D01*
X158800057Y-109738095D02*
X158895295Y-109690476D01*
X158895295Y-109690476D02*
X158990533Y-109690476D01*
X158990533Y-109690476D02*
X159133390Y-109738095D01*
X159133390Y-109738095D02*
X159704819Y-110309523D01*
X159704819Y-110309523D02*
X159704819Y-109690476D01*
X166552142Y-101794819D02*
X166218809Y-101318628D01*
X165980714Y-101794819D02*
X165980714Y-100794819D01*
X165980714Y-100794819D02*
X166361666Y-100794819D01*
X166361666Y-100794819D02*
X166456904Y-100842438D01*
X166456904Y-100842438D02*
X166504523Y-100890057D01*
X166504523Y-100890057D02*
X166552142Y-100985295D01*
X166552142Y-100985295D02*
X166552142Y-101128152D01*
X166552142Y-101128152D02*
X166504523Y-101223390D01*
X166504523Y-101223390D02*
X166456904Y-101271009D01*
X166456904Y-101271009D02*
X166361666Y-101318628D01*
X166361666Y-101318628D02*
X165980714Y-101318628D01*
X167504523Y-101794819D02*
X166933095Y-101794819D01*
X167218809Y-101794819D02*
X167218809Y-100794819D01*
X167218809Y-100794819D02*
X167123571Y-100937676D01*
X167123571Y-100937676D02*
X167028333Y-101032914D01*
X167028333Y-101032914D02*
X166933095Y-101080533D01*
X168361666Y-100794819D02*
X168171190Y-100794819D01*
X168171190Y-100794819D02*
X168075952Y-100842438D01*
X168075952Y-100842438D02*
X168028333Y-100890057D01*
X168028333Y-100890057D02*
X167933095Y-101032914D01*
X167933095Y-101032914D02*
X167885476Y-101223390D01*
X167885476Y-101223390D02*
X167885476Y-101604342D01*
X167885476Y-101604342D02*
X167933095Y-101699580D01*
X167933095Y-101699580D02*
X167980714Y-101747200D01*
X167980714Y-101747200D02*
X168075952Y-101794819D01*
X168075952Y-101794819D02*
X168266428Y-101794819D01*
X168266428Y-101794819D02*
X168361666Y-101747200D01*
X168361666Y-101747200D02*
X168409285Y-101699580D01*
X168409285Y-101699580D02*
X168456904Y-101604342D01*
X168456904Y-101604342D02*
X168456904Y-101366247D01*
X168456904Y-101366247D02*
X168409285Y-101271009D01*
X168409285Y-101271009D02*
X168361666Y-101223390D01*
X168361666Y-101223390D02*
X168266428Y-101175771D01*
X168266428Y-101175771D02*
X168075952Y-101175771D01*
X168075952Y-101175771D02*
X167980714Y-101223390D01*
X167980714Y-101223390D02*
X167933095Y-101271009D01*
X167933095Y-101271009D02*
X167885476Y-101366247D01*
X146547142Y-101754819D02*
X146213809Y-101278628D01*
X145975714Y-101754819D02*
X145975714Y-100754819D01*
X145975714Y-100754819D02*
X146356666Y-100754819D01*
X146356666Y-100754819D02*
X146451904Y-100802438D01*
X146451904Y-100802438D02*
X146499523Y-100850057D01*
X146499523Y-100850057D02*
X146547142Y-100945295D01*
X146547142Y-100945295D02*
X146547142Y-101088152D01*
X146547142Y-101088152D02*
X146499523Y-101183390D01*
X146499523Y-101183390D02*
X146451904Y-101231009D01*
X146451904Y-101231009D02*
X146356666Y-101278628D01*
X146356666Y-101278628D02*
X145975714Y-101278628D01*
X147499523Y-101754819D02*
X146928095Y-101754819D01*
X147213809Y-101754819D02*
X147213809Y-100754819D01*
X147213809Y-100754819D02*
X147118571Y-100897676D01*
X147118571Y-100897676D02*
X147023333Y-100992914D01*
X147023333Y-100992914D02*
X146928095Y-101040533D01*
X147880476Y-100850057D02*
X147928095Y-100802438D01*
X147928095Y-100802438D02*
X148023333Y-100754819D01*
X148023333Y-100754819D02*
X148261428Y-100754819D01*
X148261428Y-100754819D02*
X148356666Y-100802438D01*
X148356666Y-100802438D02*
X148404285Y-100850057D01*
X148404285Y-100850057D02*
X148451904Y-100945295D01*
X148451904Y-100945295D02*
X148451904Y-101040533D01*
X148451904Y-101040533D02*
X148404285Y-101183390D01*
X148404285Y-101183390D02*
X147832857Y-101754819D01*
X147832857Y-101754819D02*
X148451904Y-101754819D01*
X131288095Y-112747319D02*
X131288095Y-113556842D01*
X131288095Y-113556842D02*
X131335714Y-113652080D01*
X131335714Y-113652080D02*
X131383333Y-113699700D01*
X131383333Y-113699700D02*
X131478571Y-113747319D01*
X131478571Y-113747319D02*
X131669047Y-113747319D01*
X131669047Y-113747319D02*
X131764285Y-113699700D01*
X131764285Y-113699700D02*
X131811904Y-113652080D01*
X131811904Y-113652080D02*
X131859523Y-113556842D01*
X131859523Y-113556842D02*
X131859523Y-112747319D01*
X132859523Y-113747319D02*
X132288095Y-113747319D01*
X132573809Y-113747319D02*
X132573809Y-112747319D01*
X132573809Y-112747319D02*
X132478571Y-112890176D01*
X132478571Y-112890176D02*
X132383333Y-112985414D01*
X132383333Y-112985414D02*
X132288095Y-113033033D01*
X156547142Y-101754819D02*
X156213809Y-101278628D01*
X155975714Y-101754819D02*
X155975714Y-100754819D01*
X155975714Y-100754819D02*
X156356666Y-100754819D01*
X156356666Y-100754819D02*
X156451904Y-100802438D01*
X156451904Y-100802438D02*
X156499523Y-100850057D01*
X156499523Y-100850057D02*
X156547142Y-100945295D01*
X156547142Y-100945295D02*
X156547142Y-101088152D01*
X156547142Y-101088152D02*
X156499523Y-101183390D01*
X156499523Y-101183390D02*
X156451904Y-101231009D01*
X156451904Y-101231009D02*
X156356666Y-101278628D01*
X156356666Y-101278628D02*
X155975714Y-101278628D01*
X157499523Y-101754819D02*
X156928095Y-101754819D01*
X157213809Y-101754819D02*
X157213809Y-100754819D01*
X157213809Y-100754819D02*
X157118571Y-100897676D01*
X157118571Y-100897676D02*
X157023333Y-100992914D01*
X157023333Y-100992914D02*
X156928095Y-101040533D01*
X158356666Y-101088152D02*
X158356666Y-101754819D01*
X158118571Y-100707200D02*
X157880476Y-101421485D01*
X157880476Y-101421485D02*
X158499523Y-101421485D01*
X174059580Y-105866666D02*
X174107200Y-105914285D01*
X174107200Y-105914285D02*
X174154819Y-106057142D01*
X174154819Y-106057142D02*
X174154819Y-106152380D01*
X174154819Y-106152380D02*
X174107200Y-106295237D01*
X174107200Y-106295237D02*
X174011961Y-106390475D01*
X174011961Y-106390475D02*
X173916723Y-106438094D01*
X173916723Y-106438094D02*
X173726247Y-106485713D01*
X173726247Y-106485713D02*
X173583390Y-106485713D01*
X173583390Y-106485713D02*
X173392914Y-106438094D01*
X173392914Y-106438094D02*
X173297676Y-106390475D01*
X173297676Y-106390475D02*
X173202438Y-106295237D01*
X173202438Y-106295237D02*
X173154819Y-106152380D01*
X173154819Y-106152380D02*
X173154819Y-106057142D01*
X173154819Y-106057142D02*
X173202438Y-105914285D01*
X173202438Y-105914285D02*
X173250057Y-105866666D01*
X174154819Y-104914285D02*
X174154819Y-105485713D01*
X174154819Y-105199999D02*
X173154819Y-105199999D01*
X173154819Y-105199999D02*
X173297676Y-105295237D01*
X173297676Y-105295237D02*
X173392914Y-105390475D01*
X173392914Y-105390475D02*
X173440533Y-105485713D01*
X146954819Y-107866666D02*
X146478628Y-108199999D01*
X146954819Y-108438094D02*
X145954819Y-108438094D01*
X145954819Y-108438094D02*
X145954819Y-108057142D01*
X145954819Y-108057142D02*
X146002438Y-107961904D01*
X146002438Y-107961904D02*
X146050057Y-107914285D01*
X146050057Y-107914285D02*
X146145295Y-107866666D01*
X146145295Y-107866666D02*
X146288152Y-107866666D01*
X146288152Y-107866666D02*
X146383390Y-107914285D01*
X146383390Y-107914285D02*
X146431009Y-107961904D01*
X146431009Y-107961904D02*
X146478628Y-108057142D01*
X146478628Y-108057142D02*
X146478628Y-108438094D01*
X146050057Y-107485713D02*
X146002438Y-107438094D01*
X146002438Y-107438094D02*
X145954819Y-107342856D01*
X145954819Y-107342856D02*
X145954819Y-107104761D01*
X145954819Y-107104761D02*
X146002438Y-107009523D01*
X146002438Y-107009523D02*
X146050057Y-106961904D01*
X146050057Y-106961904D02*
X146145295Y-106914285D01*
X146145295Y-106914285D02*
X146240533Y-106914285D01*
X146240533Y-106914285D02*
X146383390Y-106961904D01*
X146383390Y-106961904D02*
X146954819Y-107533332D01*
X146954819Y-107533332D02*
X146954819Y-106914285D01*
X146547142Y-98154819D02*
X146213809Y-97678628D01*
X145975714Y-98154819D02*
X145975714Y-97154819D01*
X145975714Y-97154819D02*
X146356666Y-97154819D01*
X146356666Y-97154819D02*
X146451904Y-97202438D01*
X146451904Y-97202438D02*
X146499523Y-97250057D01*
X146499523Y-97250057D02*
X146547142Y-97345295D01*
X146547142Y-97345295D02*
X146547142Y-97488152D01*
X146547142Y-97488152D02*
X146499523Y-97583390D01*
X146499523Y-97583390D02*
X146451904Y-97631009D01*
X146451904Y-97631009D02*
X146356666Y-97678628D01*
X146356666Y-97678628D02*
X145975714Y-97678628D01*
X147499523Y-98154819D02*
X146928095Y-98154819D01*
X147213809Y-98154819D02*
X147213809Y-97154819D01*
X147213809Y-97154819D02*
X147118571Y-97297676D01*
X147118571Y-97297676D02*
X147023333Y-97392914D01*
X147023333Y-97392914D02*
X146928095Y-97440533D01*
X148451904Y-98154819D02*
X147880476Y-98154819D01*
X148166190Y-98154819D02*
X148166190Y-97154819D01*
X148166190Y-97154819D02*
X148070952Y-97297676D01*
X148070952Y-97297676D02*
X147975714Y-97392914D01*
X147975714Y-97392914D02*
X147880476Y-97440533D01*
X172554819Y-114466666D02*
X172078628Y-114799999D01*
X172554819Y-115038094D02*
X171554819Y-115038094D01*
X171554819Y-115038094D02*
X171554819Y-114657142D01*
X171554819Y-114657142D02*
X171602438Y-114561904D01*
X171602438Y-114561904D02*
X171650057Y-114514285D01*
X171650057Y-114514285D02*
X171745295Y-114466666D01*
X171745295Y-114466666D02*
X171888152Y-114466666D01*
X171888152Y-114466666D02*
X171983390Y-114514285D01*
X171983390Y-114514285D02*
X172031009Y-114561904D01*
X172031009Y-114561904D02*
X172078628Y-114657142D01*
X172078628Y-114657142D02*
X172078628Y-115038094D01*
X171554819Y-113609523D02*
X171554819Y-113799999D01*
X171554819Y-113799999D02*
X171602438Y-113895237D01*
X171602438Y-113895237D02*
X171650057Y-113942856D01*
X171650057Y-113942856D02*
X171792914Y-114038094D01*
X171792914Y-114038094D02*
X171983390Y-114085713D01*
X171983390Y-114085713D02*
X172364342Y-114085713D01*
X172364342Y-114085713D02*
X172459580Y-114038094D01*
X172459580Y-114038094D02*
X172507200Y-113990475D01*
X172507200Y-113990475D02*
X172554819Y-113895237D01*
X172554819Y-113895237D02*
X172554819Y-113704761D01*
X172554819Y-113704761D02*
X172507200Y-113609523D01*
X172507200Y-113609523D02*
X172459580Y-113561904D01*
X172459580Y-113561904D02*
X172364342Y-113514285D01*
X172364342Y-113514285D02*
X172126247Y-113514285D01*
X172126247Y-113514285D02*
X172031009Y-113561904D01*
X172031009Y-113561904D02*
X171983390Y-113609523D01*
X171983390Y-113609523D02*
X171935771Y-113704761D01*
X171935771Y-113704761D02*
X171935771Y-113895237D01*
X171935771Y-113895237D02*
X171983390Y-113990475D01*
X171983390Y-113990475D02*
X172031009Y-114038094D01*
X172031009Y-114038094D02*
X172126247Y-114085713D01*
X156607142Y-98204819D02*
X156273809Y-97728628D01*
X156035714Y-98204819D02*
X156035714Y-97204819D01*
X156035714Y-97204819D02*
X156416666Y-97204819D01*
X156416666Y-97204819D02*
X156511904Y-97252438D01*
X156511904Y-97252438D02*
X156559523Y-97300057D01*
X156559523Y-97300057D02*
X156607142Y-97395295D01*
X156607142Y-97395295D02*
X156607142Y-97538152D01*
X156607142Y-97538152D02*
X156559523Y-97633390D01*
X156559523Y-97633390D02*
X156511904Y-97681009D01*
X156511904Y-97681009D02*
X156416666Y-97728628D01*
X156416666Y-97728628D02*
X156035714Y-97728628D01*
X157559523Y-98204819D02*
X156988095Y-98204819D01*
X157273809Y-98204819D02*
X157273809Y-97204819D01*
X157273809Y-97204819D02*
X157178571Y-97347676D01*
X157178571Y-97347676D02*
X157083333Y-97442914D01*
X157083333Y-97442914D02*
X156988095Y-97490533D01*
X157892857Y-97204819D02*
X158511904Y-97204819D01*
X158511904Y-97204819D02*
X158178571Y-97585771D01*
X158178571Y-97585771D02*
X158321428Y-97585771D01*
X158321428Y-97585771D02*
X158416666Y-97633390D01*
X158416666Y-97633390D02*
X158464285Y-97681009D01*
X158464285Y-97681009D02*
X158511904Y-97776247D01*
X158511904Y-97776247D02*
X158511904Y-98014342D01*
X158511904Y-98014342D02*
X158464285Y-98109580D01*
X158464285Y-98109580D02*
X158416666Y-98157200D01*
X158416666Y-98157200D02*
X158321428Y-98204819D01*
X158321428Y-98204819D02*
X158035714Y-98204819D01*
X158035714Y-98204819D02*
X157940476Y-98157200D01*
X157940476Y-98157200D02*
X157892857Y-98109580D01*
D14*
G04 #@! TO.C,D1*
X143750000Y-110520000D02*
X143750000Y-109870000D01*
X142630000Y-109870000D02*
X144870000Y-109870000D01*
X144870000Y-109870000D02*
X144870000Y-105630000D01*
X142630000Y-109270000D02*
X144870000Y-109270000D01*
X142630000Y-109150000D02*
X144870000Y-109150000D01*
X142630000Y-109030000D02*
X144870000Y-109030000D01*
X142630000Y-105630000D02*
X142630000Y-109870000D01*
X144870000Y-105630000D02*
X142630000Y-105630000D01*
X143750000Y-104980000D02*
X143750000Y-105630000D01*
G04 #@! TO.C,LED3*
X165555000Y-116990000D02*
X168645000Y-116990000D01*
X165555170Y-116990000D02*
G75*
G02*
X167099952Y-111440000I1544830J2560000D01*
G01*
X167100048Y-111440000D02*
G75*
G02*
X168644830Y-116990000I-48J-2990000D01*
G01*
X169600000Y-114430000D02*
G75*
G02*
X164600000Y-114430000I-2500000J0D01*
G01*
X164600000Y-114430000D02*
G75*
G02*
X169600000Y-114430000I2500000J0D01*
G01*
G04 #@! TO.C,Q3*
X168885000Y-108780000D02*
X168885000Y-105180000D01*
X164435000Y-106980000D02*
G75*
G02*
X168873478Y-105141522I2600000J0D01*
G01*
X168873478Y-108818478D02*
G75*
G02*
X164434999Y-106980000I-1838478J1838478D01*
G01*
G04 #@! TO.C,R15*
X163925000Y-96320000D02*
X170465000Y-96320000D01*
X163925000Y-96650000D02*
X163925000Y-96320000D01*
X163925000Y-98730000D02*
X163925000Y-99060000D01*
X163925000Y-99060000D02*
X170465000Y-99060000D01*
X170465000Y-96320000D02*
X170465000Y-96650000D01*
X170465000Y-99060000D02*
X170465000Y-98730000D01*
G04 #@! TO.C,Q1*
X153085000Y-108870000D02*
X153085000Y-105270000D01*
X148635000Y-107070000D02*
G75*
G02*
X153073478Y-105231522I2600000J0D01*
G01*
X153073478Y-108908478D02*
G75*
G02*
X148634999Y-107070000I-1838478J1838478D01*
G01*
G04 #@! TO.C,LED1*
X149705000Y-117075000D02*
X152795000Y-117075000D01*
X149705170Y-117075000D02*
G75*
G02*
X151249952Y-111525000I1544830J2560000D01*
G01*
X151250048Y-111525000D02*
G75*
G02*
X152794830Y-117075000I-48J-2990000D01*
G01*
X153750000Y-114515000D02*
G75*
G02*
X148750000Y-114515000I-2500000J0D01*
G01*
X148750000Y-114515000D02*
G75*
G02*
X153750000Y-114515000I2500000J0D01*
G01*
G04 #@! TO.C,R8*
X177875000Y-111045000D02*
X178205000Y-111045000D01*
X177875000Y-117585000D02*
X177875000Y-111045000D01*
X178205000Y-117585000D02*
X177875000Y-117585000D01*
X180285000Y-117585000D02*
X180615000Y-117585000D01*
X180615000Y-111045000D02*
X180285000Y-111045000D01*
X180615000Y-117585000D02*
X180615000Y-111045000D01*
G04 #@! TO.C,J2*
X183870000Y-101230000D02*
X185200000Y-101230000D01*
X183870000Y-102560000D02*
X183870000Y-101230000D01*
X183870000Y-103830000D02*
X183870000Y-108970000D01*
X183870000Y-103830000D02*
X186530000Y-103830000D01*
X183870000Y-108970000D02*
X186530000Y-108970000D01*
X186530000Y-103830000D02*
X186530000Y-108970000D01*
G04 #@! TO.C,R1*
X174780000Y-96280000D02*
X181320000Y-96280000D01*
X174780000Y-96610000D02*
X174780000Y-96280000D01*
X174780000Y-98690000D02*
X174780000Y-99020000D01*
X174780000Y-99020000D02*
X181320000Y-99020000D01*
X181320000Y-96280000D02*
X181320000Y-96610000D01*
X181320000Y-99020000D02*
X181320000Y-98690000D01*
G04 #@! TO.C,LED2*
X157645000Y-117000000D02*
X160735000Y-117000000D01*
X157645170Y-117000000D02*
G75*
G02*
X159189952Y-111450000I1544830J2560000D01*
G01*
X159190048Y-111450000D02*
G75*
G02*
X160734830Y-117000000I-48J-2990000D01*
G01*
X161690000Y-114440000D02*
G75*
G02*
X156690000Y-114440000I-2500000J0D01*
G01*
X156690000Y-114440000D02*
G75*
G02*
X161690000Y-114440000I2500000J0D01*
G01*
D15*
G04 #@! TO.C,VR1*
X134795000Y-113840000D02*
X144325000Y-113840000D01*
X134795000Y-118670000D02*
X134795000Y-113840000D01*
X144325000Y-113840000D02*
X144325000Y-118670000D01*
X144325000Y-118670000D02*
X134795000Y-118670000D01*
X144700000Y-116250000D02*
X144700000Y-116250000D01*
X144800000Y-116250000D02*
X144800000Y-116250000D01*
X144700000Y-116250000D02*
G75*
G02*
X144800000Y-116250000I50000J0D01*
G01*
X144800000Y-116250000D02*
G75*
G02*
X144700000Y-116250000I-50000J0D01*
G01*
D14*
G04 #@! TO.C,R7*
X174330000Y-111030000D02*
X174660000Y-111030000D01*
X174330000Y-117570000D02*
X174330000Y-111030000D01*
X174660000Y-117570000D02*
X174330000Y-117570000D01*
X176740000Y-117570000D02*
X177070000Y-117570000D01*
X177070000Y-111030000D02*
X176740000Y-111030000D01*
X177070000Y-117570000D02*
X177070000Y-111030000D01*
G04 #@! TO.C,SW3*
X175900000Y-102300000D02*
X175900000Y-106800000D01*
X178400000Y-108050000D02*
X179900000Y-108050000D01*
X179900000Y-101050000D02*
X178400000Y-101050000D01*
X182400000Y-106800000D02*
X182400000Y-102300000D01*
G04 #@! TO.C,Q2*
X161050000Y-108790000D02*
X161050000Y-105190000D01*
X156600000Y-106990000D02*
G75*
G02*
X161038478Y-105151522I2600000J0D01*
G01*
X161038478Y-108828478D02*
G75*
G02*
X156599999Y-106990000I-1838478J1838478D01*
G01*
G04 #@! TO.C,R16*
X163925000Y-99970000D02*
X163925000Y-100300000D01*
X163925000Y-102710000D02*
X163925000Y-102380000D01*
X170465000Y-99970000D02*
X163925000Y-99970000D01*
X170465000Y-100300000D02*
X170465000Y-99970000D01*
X170465000Y-102380000D02*
X170465000Y-102710000D01*
X170465000Y-102710000D02*
X163925000Y-102710000D01*
G04 #@! TO.C,R12*
X143920000Y-99930000D02*
X143920000Y-100260000D01*
X143920000Y-102670000D02*
X143920000Y-102340000D01*
X150460000Y-99930000D02*
X143920000Y-99930000D01*
X150460000Y-100260000D02*
X150460000Y-99930000D01*
X150460000Y-102340000D02*
X150460000Y-102670000D01*
X150460000Y-102670000D02*
X143920000Y-102670000D01*
G04 #@! TO.C,U1*
X125940000Y-98802500D02*
X125940000Y-99777500D01*
X125940000Y-111022500D02*
X125940000Y-110047500D01*
X126915000Y-98802500D02*
X125940000Y-98802500D01*
X126915000Y-111022500D02*
X125940000Y-111022500D01*
X137185000Y-98802500D02*
X138160000Y-98802500D01*
X137185000Y-111022500D02*
X138160000Y-111022500D01*
X138160000Y-98802500D02*
X138160000Y-99777500D01*
X138160000Y-111022500D02*
X138160000Y-110047500D01*
X139102500Y-110517500D02*
X138422500Y-110517500D01*
X138762500Y-110047500D01*
X139102500Y-110517500D01*
G36*
X139102500Y-110517500D02*
G01*
X138422500Y-110517500D01*
X138762500Y-110047500D01*
X139102500Y-110517500D01*
G37*
G04 #@! TO.C,R14*
X153920000Y-99930000D02*
X153920000Y-100260000D01*
X153920000Y-102670000D02*
X153920000Y-102340000D01*
X160460000Y-99930000D02*
X153920000Y-99930000D01*
X160460000Y-100260000D02*
X160460000Y-99930000D01*
X160460000Y-102340000D02*
X160460000Y-102670000D01*
X160460000Y-102670000D02*
X153920000Y-102670000D01*
G04 #@! TO.C,C1*
X172630000Y-103430000D02*
X172630000Y-107970000D01*
X172645000Y-103430000D02*
X172630000Y-103430000D01*
X172645000Y-107970000D02*
X172630000Y-107970000D01*
X174770000Y-103430000D02*
X174755000Y-103430000D01*
X174770000Y-103430000D02*
X174770000Y-107970000D01*
X174770000Y-107970000D02*
X174755000Y-107970000D01*
G04 #@! TO.C,R2*
X145130000Y-104430000D02*
X145460000Y-104430000D01*
X145130000Y-110970000D02*
X145130000Y-104430000D01*
X145460000Y-110970000D02*
X145130000Y-110970000D01*
X147540000Y-110970000D02*
X147870000Y-110970000D01*
X147870000Y-104430000D02*
X147540000Y-104430000D01*
X147870000Y-110970000D02*
X147870000Y-104430000D01*
G04 #@! TO.C,R11*
X143920000Y-96330000D02*
X150460000Y-96330000D01*
X143920000Y-96660000D02*
X143920000Y-96330000D01*
X143920000Y-98740000D02*
X143920000Y-99070000D01*
X143920000Y-99070000D02*
X150460000Y-99070000D01*
X150460000Y-96330000D02*
X150460000Y-96660000D01*
X150460000Y-99070000D02*
X150460000Y-98740000D01*
G04 #@! TO.C,R6*
X170730000Y-111030000D02*
X171060000Y-111030000D01*
X170730000Y-117570000D02*
X170730000Y-111030000D01*
X171060000Y-117570000D02*
X170730000Y-117570000D01*
X173140000Y-117570000D02*
X173470000Y-117570000D01*
X173470000Y-111030000D02*
X173140000Y-111030000D01*
X173470000Y-117570000D02*
X173470000Y-111030000D01*
G04 #@! TO.C,R13*
X153920000Y-96330000D02*
X160460000Y-96330000D01*
X153920000Y-96660000D02*
X153920000Y-96330000D01*
X153920000Y-98740000D02*
X153920000Y-99070000D01*
X153920000Y-99070000D02*
X160460000Y-99070000D01*
X160460000Y-96330000D02*
X160460000Y-96660000D01*
X160460000Y-99070000D02*
X160460000Y-98740000D01*
G04 #@! TD*
M02*
