%TF.GenerationSoftware,KiCad,Pcbnew,8.0.8*%
%TF.CreationDate,2025-02-12T00:39:18+09:00*%
%TF.ProjectId,1bit-cpu_asic,31626974-2d63-4707-955f-617369632e6b,rev?*%
%TF.SameCoordinates,Original*%
%TF.FileFunction,Drillmap*%
%TF.FilePolarity,Positive*%
%FSLAX45Y45*%
G04 Gerber Fmt 4.5, Leading zero omitted, Abs format (unit mm)*
G04 Created by KiCad (PCBNEW 8.0.8) date 2025-02-12 00:39:18*
%MOMM*%
%LPD*%
G01*
G04 APERTURE LIST*
%ADD10C,0.100000*%
%ADD11C,0.200000*%
%ADD12C,0.101000*%
%ADD13C,0.110000*%
%ADD14C,0.112000*%
G04 APERTURE END LIST*
D10*
X10544000Y-6124000D02*
G75*
G02*
X10844000Y-5824000I300000J0D01*
G01*
X10544000Y-14024000D02*
X10544000Y-6124000D01*
X17244000Y-14324000D02*
X10844000Y-14324000D01*
X17244000Y-5824000D02*
G75*
G02*
X17544000Y-6124000I0J-300000D01*
G01*
X17544000Y-14024000D02*
G75*
G02*
X17244000Y-14324000I-300000J0D01*
G01*
X10844000Y-14324000D02*
G75*
G02*
X10544000Y-14024000I0J300000D01*
G01*
X17544000Y-6124000D02*
X17544000Y-14024000D01*
X10844000Y-5824000D02*
X17244000Y-5824000D01*
D11*
D10*
X14155000Y-9375000D02*
X14195000Y-9415000D01*
X14195000Y-9375000D02*
X14155000Y-9415000D01*
X14340000Y-10080000D02*
X14380000Y-10120000D01*
X14380000Y-10080000D02*
X14340000Y-10120000D01*
X14585000Y-10076500D02*
X14625000Y-10116500D01*
X14625000Y-10076500D02*
X14585000Y-10116500D01*
X14910000Y-10080000D02*
X14950000Y-10120000D01*
X14950000Y-10080000D02*
X14910000Y-10120000D01*
X15155000Y-8830000D02*
X15195000Y-8870000D01*
X15195000Y-8830000D02*
X15155000Y-8870000D01*
X15700000Y-8000000D02*
X15740000Y-8040000D01*
X15740000Y-8000000D02*
X15700000Y-8040000D01*
X15750000Y-8120000D02*
X15790000Y-8160000D01*
X15790000Y-8120000D02*
X15750000Y-8160000D01*
X15780000Y-10075000D02*
X15820000Y-10115000D01*
X15820000Y-10075000D02*
X15780000Y-10115000D01*
X15800000Y-8240000D02*
X15840000Y-8280000D01*
X15840000Y-8240000D02*
X15800000Y-8280000D01*
X15850000Y-8360000D02*
X15890000Y-8400000D01*
X15890000Y-8360000D02*
X15850000Y-8400000D01*
X15900000Y-8490000D02*
X15940000Y-8530000D01*
X15940000Y-8490000D02*
X15900000Y-8530000D01*
X15950000Y-8620000D02*
X15990000Y-8660000D01*
X15990000Y-8620000D02*
X15950000Y-8660000D01*
X16010000Y-8730000D02*
X16050000Y-8770000D01*
X16050000Y-8730000D02*
X16010000Y-8770000D01*
X16074388Y-8844388D02*
X16114388Y-8884388D01*
X16114388Y-8844388D02*
X16074388Y-8884388D01*
X16790000Y-7615000D02*
X16830000Y-7655000D01*
X16830000Y-7615000D02*
X16790000Y-7655000D01*
X16790000Y-9020000D02*
X16830000Y-9060000D01*
X16830000Y-9020000D02*
X16790000Y-9060000D01*
X10843000Y-7175500D02*
G75*
G02*
X10783000Y-7175500I-30000J0D01*
G01*
X10783000Y-7175500D02*
G75*
G02*
X10843000Y-7175500I30000J0D01*
G01*
X10848000Y-7145500D02*
X10778000Y-7145500D01*
X10778000Y-7205500D02*
G75*
G02*
X10778000Y-7145500I0J30000D01*
G01*
X10778000Y-7205500D02*
X10848000Y-7205500D01*
X10848000Y-7205500D02*
G75*
G03*
X10848000Y-7145500I0J30000D01*
G01*
X10843000Y-8039100D02*
G75*
G02*
X10783000Y-8039100I-30000J0D01*
G01*
X10783000Y-8039100D02*
G75*
G02*
X10843000Y-8039100I30000J0D01*
G01*
X10848000Y-8009100D02*
X10778000Y-8009100D01*
X10778000Y-8069100D02*
G75*
G02*
X10778000Y-8009100I0J30000D01*
G01*
X10778000Y-8069100D02*
X10848000Y-8069100D01*
X10848000Y-8069100D02*
G75*
G03*
X10848000Y-8009100I0J30000D01*
G01*
X12365000Y-9422500D02*
X12365000Y-9497500D01*
X12327500Y-9460000D02*
X12402500Y-9460000D01*
X12365000Y-10377500D02*
X12365000Y-10452500D01*
X12327500Y-10415000D02*
X12402500Y-10415000D01*
X12365000Y-11322500D02*
X12365000Y-11397500D01*
X12327500Y-11360000D02*
X12402500Y-11360000D01*
X12492000Y-9422500D02*
X12492000Y-9497500D01*
X12454500Y-9460000D02*
X12529500Y-9460000D01*
X12492000Y-10377500D02*
X12492000Y-10452500D01*
X12454500Y-10415000D02*
X12529500Y-10415000D01*
X12492000Y-11322500D02*
X12492000Y-11397500D01*
X12454500Y-11360000D02*
X12529500Y-11360000D01*
X12619000Y-9422500D02*
X12619000Y-9497500D01*
X12581500Y-9460000D02*
X12656500Y-9460000D01*
X12619000Y-10377500D02*
X12619000Y-10452500D01*
X12581500Y-10415000D02*
X12656500Y-10415000D01*
X12619000Y-11322500D02*
X12619000Y-11397500D01*
X12581500Y-11360000D02*
X12656500Y-11360000D01*
X11394784Y-12220284D02*
X11394784Y-12163715D01*
X11338215Y-12163715D01*
X11338215Y-12220284D01*
X11394784Y-12220284D01*
X11394784Y-12728284D02*
X11394784Y-12671715D01*
X11338215Y-12671715D01*
X11338215Y-12728284D01*
X11394784Y-12728284D01*
X11394784Y-13236284D02*
X11394784Y-13179715D01*
X11338215Y-13179715D01*
X11338215Y-13236284D01*
X11394784Y-13236284D01*
X12156784Y-12220284D02*
X12156784Y-12163715D01*
X12100215Y-12163715D01*
X12100215Y-12220284D01*
X12156784Y-12220284D01*
X12156784Y-12728284D02*
X12156784Y-12671715D01*
X12100215Y-12671715D01*
X12100215Y-12728284D01*
X12156784Y-12728284D01*
X12156784Y-13236284D02*
X12156784Y-13179715D01*
X12100215Y-13179715D01*
X12100215Y-13236284D01*
X12156784Y-13236284D01*
X12668784Y-7013284D02*
X12668784Y-6956715D01*
X12612215Y-6956715D01*
X12612215Y-7013284D01*
X12668784Y-7013284D01*
X12672784Y-8029284D02*
X12672784Y-7972715D01*
X12616215Y-7972715D01*
X12616215Y-8029284D01*
X12672784Y-8029284D01*
X13083284Y-11458284D02*
X13083284Y-11401715D01*
X13026715Y-11401715D01*
X13026715Y-11458284D01*
X13083284Y-11458284D01*
X13083284Y-12220284D02*
X13083284Y-12163715D01*
X13026715Y-12163715D01*
X13026715Y-12220284D01*
X13083284Y-12220284D01*
X13088284Y-9266285D02*
X13088284Y-9209716D01*
X13031715Y-9209716D01*
X13031715Y-9266285D01*
X13088284Y-9266285D01*
X13088284Y-10028285D02*
X13088284Y-9971716D01*
X13031715Y-9971716D01*
X13031715Y-10028285D01*
X13088284Y-10028285D01*
X13088284Y-10358285D02*
X13088284Y-10301716D01*
X13031715Y-10301716D01*
X13031715Y-10358285D01*
X13088284Y-10358285D01*
X13088284Y-11120285D02*
X13088284Y-11063716D01*
X13031715Y-11063716D01*
X13031715Y-11120285D01*
X13088284Y-11120285D01*
X13168784Y-7013284D02*
X13168784Y-6956715D01*
X13112215Y-6956715D01*
X13112215Y-7013284D01*
X13168784Y-7013284D01*
X13172784Y-8029284D02*
X13172784Y-7972715D01*
X13116215Y-7972715D01*
X13116215Y-8029284D01*
X13172784Y-8029284D01*
X13448284Y-9266285D02*
X13448284Y-9209716D01*
X13391715Y-9209716D01*
X13391715Y-9266285D01*
X13448284Y-9266285D01*
X13448284Y-10028285D02*
X13448284Y-9971716D01*
X13391715Y-9971716D01*
X13391715Y-10028285D01*
X13448284Y-10028285D01*
X13448284Y-10358285D02*
X13448284Y-10301716D01*
X13391715Y-10301716D01*
X13391715Y-10358285D01*
X13448284Y-10358285D01*
X13448284Y-11120285D02*
X13448284Y-11063716D01*
X13391715Y-11063716D01*
X13391715Y-11120285D01*
X13448284Y-11120285D01*
X13448284Y-11458284D02*
X13448284Y-11401715D01*
X13391715Y-11401715D01*
X13391715Y-11458284D01*
X13448284Y-11458284D01*
X13448284Y-12220284D02*
X13448284Y-12163715D01*
X13391715Y-12163715D01*
X13391715Y-12220284D01*
X13448284Y-12220284D01*
X13738284Y-13298284D02*
X13738284Y-13241715D01*
X13681715Y-13241715D01*
X13681715Y-13298284D01*
X13738284Y-13298284D01*
X13738284Y-13798284D02*
X13738284Y-13741715D01*
X13681715Y-13741715D01*
X13681715Y-13798284D01*
X13738284Y-13798284D01*
X13807284Y-7775284D02*
X13807284Y-7718715D01*
X13750715Y-7718715D01*
X13750715Y-7775284D01*
X13807284Y-7775284D01*
X13807784Y-9815285D02*
X13807784Y-9758716D01*
X13751215Y-9758716D01*
X13751215Y-9815285D01*
X13807784Y-9815285D01*
X13807784Y-10315285D02*
X13807784Y-10258716D01*
X13751215Y-10258716D01*
X13751215Y-10315285D01*
X13807784Y-10315285D01*
X13808284Y-10958285D02*
X13808284Y-10901716D01*
X13751715Y-10901716D01*
X13751715Y-10958285D01*
X13808284Y-10958285D01*
X13808284Y-11458284D02*
X13808284Y-11401715D01*
X13751715Y-11401715D01*
X13751715Y-11458284D01*
X13808284Y-11458284D01*
X13808284Y-12220284D02*
X13808284Y-12163715D01*
X13751715Y-12163715D01*
X13751715Y-12220284D01*
X13808284Y-12220284D01*
X14252284Y-9680285D02*
X14252284Y-9623716D01*
X14195715Y-9623716D01*
X14195715Y-9680285D01*
X14252284Y-9680285D01*
X14252284Y-10442285D02*
X14252284Y-10385716D01*
X14195715Y-10385716D01*
X14195715Y-10442285D01*
X14252284Y-10442285D01*
X14379284Y-12791784D02*
X14379284Y-12735215D01*
X14322715Y-12735215D01*
X14322715Y-12791784D01*
X14379284Y-12791784D01*
X14379284Y-13553784D02*
X14379284Y-13497215D01*
X14322715Y-13497215D01*
X14322715Y-13553784D01*
X14379284Y-13553784D01*
X14442284Y-11644534D02*
X14442284Y-11587965D01*
X14385715Y-11587965D01*
X14385715Y-11644534D01*
X14442284Y-11644534D01*
X14442284Y-12406534D02*
X14442284Y-12349965D01*
X14385715Y-12349965D01*
X14385715Y-12406534D01*
X14442284Y-12406534D01*
X14506284Y-9680285D02*
X14506284Y-9623716D01*
X14449715Y-9623716D01*
X14449715Y-9680285D01*
X14506284Y-9680285D01*
X14506284Y-10442285D02*
X14506284Y-10385716D01*
X14449715Y-10385716D01*
X14449715Y-10442285D01*
X14506284Y-10442285D01*
X14569284Y-7775284D02*
X14569284Y-7718715D01*
X14512715Y-7718715D01*
X14512715Y-7775284D01*
X14569284Y-7775284D01*
X14570284Y-10958285D02*
X14570284Y-10901716D01*
X14513715Y-10901716D01*
X14513715Y-10958285D01*
X14570284Y-10958285D01*
X14696284Y-11644534D02*
X14696284Y-11587965D01*
X14639715Y-11587965D01*
X14639715Y-11644534D01*
X14696284Y-11644534D01*
X14696284Y-12406534D02*
X14696284Y-12349965D01*
X14639715Y-12349965D01*
X14639715Y-12406534D01*
X14696284Y-12406534D01*
X14760284Y-9680285D02*
X14760284Y-9623716D01*
X14703715Y-9623716D01*
X14703715Y-9680285D01*
X14760284Y-9680285D01*
X14760284Y-10442285D02*
X14760284Y-10385716D01*
X14703715Y-10385716D01*
X14703715Y-10442285D01*
X14760284Y-10442285D01*
X14823784Y-12791784D02*
X14823784Y-12735215D01*
X14767215Y-12735215D01*
X14767215Y-12791784D01*
X14823784Y-12791784D01*
X14823784Y-13553784D02*
X14823784Y-13497215D01*
X14767215Y-13497215D01*
X14767215Y-13553784D01*
X14823784Y-13553784D01*
X15013284Y-7928284D02*
X15013284Y-7871715D01*
X14956715Y-7871715D01*
X14956715Y-7928284D01*
X15013284Y-7928284D01*
X15013284Y-8428285D02*
X15013284Y-8371715D01*
X14956715Y-8371715D01*
X14956715Y-8428285D01*
X15013284Y-8428285D01*
X15014284Y-9680285D02*
X15014284Y-9623716D01*
X14957715Y-9623716D01*
X14957715Y-9680285D01*
X15014284Y-9680285D01*
X15014284Y-10442285D02*
X15014284Y-10385716D01*
X14957715Y-10385716D01*
X14957715Y-10442285D01*
X15014284Y-10442285D01*
X15268284Y-9680285D02*
X15268284Y-9623716D01*
X15211715Y-9623716D01*
X15211715Y-9680285D01*
X15268284Y-9680285D01*
X15268284Y-10442285D02*
X15268284Y-10385716D01*
X15211715Y-10385716D01*
X15211715Y-10442285D01*
X15268284Y-10442285D01*
X15268284Y-12791784D02*
X15268284Y-12735215D01*
X15211715Y-12735215D01*
X15211715Y-12791784D01*
X15268284Y-12791784D01*
X15268284Y-13553784D02*
X15268284Y-13497215D01*
X15211715Y-13497215D01*
X15211715Y-13553784D01*
X15268284Y-13553784D01*
X15458284Y-11644534D02*
X15458284Y-11587965D01*
X15401715Y-11587965D01*
X15401715Y-11644534D01*
X15458284Y-11644534D01*
X15458284Y-12406534D02*
X15458284Y-12349965D01*
X15401715Y-12349965D01*
X15401715Y-12406534D01*
X15458284Y-12406534D01*
X15522284Y-9680285D02*
X15522284Y-9623716D01*
X15465715Y-9623716D01*
X15465715Y-9680285D01*
X15522284Y-9680285D01*
X15522284Y-10442285D02*
X15522284Y-10385716D01*
X15465715Y-10385716D01*
X15465715Y-10442285D01*
X15522284Y-10442285D01*
X15712284Y-11644534D02*
X15712284Y-11587965D01*
X15655715Y-11587965D01*
X15655715Y-11644534D01*
X15712284Y-11644534D01*
X15712284Y-12406534D02*
X15712284Y-12349965D01*
X15655715Y-12349965D01*
X15655715Y-12406534D01*
X15712284Y-12406534D01*
X15712784Y-12791784D02*
X15712784Y-12735215D01*
X15656215Y-12735215D01*
X15656215Y-12791784D01*
X15712784Y-12791784D01*
X15712784Y-13553784D02*
X15712784Y-13497215D01*
X15656215Y-13497215D01*
X15656215Y-13553784D01*
X15712784Y-13553784D01*
X15776284Y-9680285D02*
X15776284Y-9623716D01*
X15719715Y-9623716D01*
X15719715Y-9680285D01*
X15776284Y-9680285D01*
X15776284Y-10442285D02*
X15776284Y-10385716D01*
X15719715Y-10385716D01*
X15719715Y-10442285D01*
X15776284Y-10442285D01*
X16284784Y-9812285D02*
X16284784Y-9755716D01*
X16228215Y-9755716D01*
X16228215Y-9812285D01*
X16284784Y-9812285D01*
X16284784Y-10312285D02*
X16284784Y-10255716D01*
X16228215Y-10255716D01*
X16228215Y-10312285D01*
X16284784Y-10312285D01*
X16347784Y-11648784D02*
X16347784Y-11592215D01*
X16291215Y-11592215D01*
X16291215Y-11648784D01*
X16347784Y-11648784D01*
X16347784Y-12410784D02*
X16347784Y-12354215D01*
X16291215Y-12354215D01*
X16291215Y-12410784D01*
X16347784Y-12410784D01*
X16729284Y-9681285D02*
X16729284Y-9624716D01*
X16672715Y-9624716D01*
X16672715Y-9681285D01*
X16729284Y-9681285D01*
X16729284Y-10443285D02*
X16729284Y-10386716D01*
X16672715Y-10386716D01*
X16672715Y-10443285D01*
X16729284Y-10443285D01*
X16855785Y-11648784D02*
X16855785Y-11592215D01*
X16799216Y-11592215D01*
X16799216Y-11648784D01*
X16855785Y-11648784D01*
X16855785Y-12410784D02*
X16855785Y-12354215D01*
X16799216Y-12354215D01*
X16799216Y-12410784D01*
X16855785Y-12410784D01*
X17237285Y-9681285D02*
X17237285Y-9624716D01*
X17180716Y-9624716D01*
X17180716Y-9681285D01*
X17237285Y-9681285D01*
X17237285Y-10443285D02*
X17237285Y-10386716D01*
X17180716Y-10386716D01*
X17180716Y-10443285D01*
X17237285Y-10443285D01*
X17238285Y-8573285D02*
X17238285Y-8516716D01*
X17181716Y-8516716D01*
X17181716Y-8573285D01*
X17238285Y-8573285D01*
X17238285Y-9073285D02*
X17238285Y-9016716D01*
X17181716Y-9016716D01*
X17181716Y-9073285D01*
X17238285Y-9073285D01*
X11620000Y-10459000D02*
X11665000Y-10414000D01*
X11620000Y-10369000D01*
X11575000Y-10414000D01*
X11620000Y-10459000D01*
X11620000Y-11411500D02*
X11665000Y-11366500D01*
X11620000Y-11321500D01*
X11575000Y-11366500D01*
X11620000Y-11411500D01*
X11620500Y-9506500D02*
X11665500Y-9461500D01*
X11620500Y-9416500D01*
X11575500Y-9461500D01*
X11620500Y-9506500D01*
X11874000Y-10459000D02*
X11919000Y-10414000D01*
X11874000Y-10369000D01*
X11829000Y-10414000D01*
X11874000Y-10459000D01*
X11874000Y-11411500D02*
X11919000Y-11366500D01*
X11874000Y-11321500D01*
X11829000Y-11366500D01*
X11874000Y-11411500D01*
X11874500Y-9506500D02*
X11919500Y-9461500D01*
X11874500Y-9416500D01*
X11829500Y-9461500D01*
X11874500Y-9506500D01*
X14033000Y-7030000D02*
X14078000Y-6985000D01*
X14033000Y-6940000D01*
X13988000Y-6985000D01*
X14033000Y-7030000D01*
X14287000Y-7030000D02*
X14332000Y-6985000D01*
X14287000Y-6940000D01*
X14242000Y-6985000D01*
X14287000Y-7030000D01*
X13920000Y-6190000D02*
X14020000Y-6290000D01*
X14020000Y-6190000D02*
X13920000Y-6290000D01*
X14020000Y-6240000D02*
G75*
G02*
X13920000Y-6240000I-50000J0D01*
G01*
X13920000Y-6240000D02*
G75*
G02*
X14020000Y-6240000I50000J0D01*
G01*
X14174000Y-6190000D02*
X14274000Y-6290000D01*
X14274000Y-6190000D02*
X14174000Y-6290000D01*
X14274000Y-6240000D02*
G75*
G02*
X14174000Y-6240000I-50000J0D01*
G01*
X14174000Y-6240000D02*
G75*
G02*
X14274000Y-6240000I50000J0D01*
G01*
X14428000Y-6190000D02*
X14528000Y-6290000D01*
X14528000Y-6190000D02*
X14428000Y-6290000D01*
X14528000Y-6240000D02*
G75*
G02*
X14428000Y-6240000I-50000J0D01*
G01*
X14428000Y-6240000D02*
G75*
G02*
X14528000Y-6240000I50000J0D01*
G01*
X14682000Y-6190000D02*
X14782000Y-6290000D01*
X14782000Y-6190000D02*
X14682000Y-6290000D01*
X14782000Y-6240000D02*
G75*
G02*
X14682000Y-6240000I-50000J0D01*
G01*
X14682000Y-6240000D02*
G75*
G02*
X14782000Y-6240000I50000J0D01*
G01*
X14936000Y-6190000D02*
X15036000Y-6290000D01*
X15036000Y-6190000D02*
X14936000Y-6290000D01*
X15036000Y-6240000D02*
G75*
G02*
X14936000Y-6240000I-50000J0D01*
G01*
X14936000Y-6240000D02*
G75*
G02*
X15036000Y-6240000I50000J0D01*
G01*
X15190000Y-6190000D02*
X15290000Y-6290000D01*
X15290000Y-6190000D02*
X15190000Y-6290000D01*
X15290000Y-6240000D02*
G75*
G02*
X15190000Y-6240000I-50000J0D01*
G01*
X15190000Y-6240000D02*
G75*
G02*
X15290000Y-6240000I50000J0D01*
G01*
X15444000Y-6190000D02*
X15544000Y-6290000D01*
X15544000Y-6190000D02*
X15444000Y-6290000D01*
X15544000Y-6240000D02*
G75*
G02*
X15444000Y-6240000I-50000J0D01*
G01*
X15444000Y-6240000D02*
G75*
G02*
X15544000Y-6240000I50000J0D01*
G01*
X15698000Y-6190000D02*
X15798000Y-6290000D01*
X15798000Y-6190000D02*
X15698000Y-6290000D01*
X15798000Y-6240000D02*
G75*
G02*
X15698000Y-6240000I-50000J0D01*
G01*
X15698000Y-6240000D02*
G75*
G02*
X15798000Y-6240000I50000J0D01*
G01*
X15952000Y-6190000D02*
X16052000Y-6290000D01*
X16052000Y-6190000D02*
X15952000Y-6290000D01*
X16052000Y-6240000D02*
G75*
G02*
X15952000Y-6240000I-50000J0D01*
G01*
X15952000Y-6240000D02*
G75*
G02*
X16052000Y-6240000I50000J0D01*
G01*
X16206000Y-6190000D02*
X16306000Y-6290000D01*
X16306000Y-6190000D02*
X16206000Y-6290000D01*
X16306000Y-6240000D02*
G75*
G02*
X16206000Y-6240000I-50000J0D01*
G01*
X16206000Y-6240000D02*
G75*
G02*
X16306000Y-6240000I50000J0D01*
G01*
X16460000Y-6190000D02*
X16560000Y-6290000D01*
X16560000Y-6190000D02*
X16460000Y-6290000D01*
X16560000Y-6240000D02*
G75*
G02*
X16460000Y-6240000I-50000J0D01*
G01*
X16460000Y-6240000D02*
G75*
G02*
X16560000Y-6240000I50000J0D01*
G01*
D12*
X12585000Y-7382500D02*
X12686000Y-7483500D01*
X12686000Y-7382500D02*
X12585000Y-7483500D01*
X12635500Y-7382500D02*
X12635500Y-7483500D01*
X12585000Y-7433000D02*
X12686000Y-7433000D01*
X13095000Y-7502500D02*
X13196000Y-7603500D01*
X13196000Y-7502500D02*
X13095000Y-7603500D01*
X13145500Y-7502500D02*
X13145500Y-7603500D01*
X13095000Y-7553000D02*
X13196000Y-7553000D01*
D13*
X12510500Y-13245500D02*
X12620500Y-13355500D01*
X12620500Y-13245500D02*
X12510500Y-13355500D01*
X12604391Y-13339391D02*
X12604391Y-13261609D01*
X12526609Y-13261609D01*
X12526609Y-13339391D01*
X12604391Y-13339391D01*
X12510500Y-13695500D02*
X12620500Y-13805500D01*
X12620500Y-13695500D02*
X12510500Y-13805500D01*
X12604391Y-13789391D02*
X12604391Y-13711609D01*
X12526609Y-13711609D01*
X12526609Y-13789391D01*
X12604391Y-13789391D01*
X13160500Y-13245500D02*
X13270500Y-13355500D01*
X13270500Y-13245500D02*
X13160500Y-13355500D01*
X13254391Y-13339391D02*
X13254391Y-13261609D01*
X13176609Y-13261609D01*
X13176609Y-13339391D01*
X13254391Y-13339391D01*
X13160500Y-13695500D02*
X13270500Y-13805500D01*
X13270500Y-13695500D02*
X13160500Y-13805500D01*
X13254391Y-13789391D02*
X13254391Y-13711609D01*
X13176609Y-13711609D01*
X13176609Y-13789391D01*
X13254391Y-13789391D01*
D14*
X11138000Y-7373500D02*
X11250000Y-7485500D01*
X11250000Y-7373500D02*
X11138000Y-7485500D01*
X11194000Y-7485500D02*
X11250000Y-7429500D01*
X11194000Y-7373500D01*
X11138000Y-7429500D01*
X11194000Y-7485500D01*
X11138000Y-7729100D02*
X11250000Y-7841100D01*
X11250000Y-7729100D02*
X11138000Y-7841100D01*
X11194000Y-7841100D02*
X11250000Y-7785100D01*
X11194000Y-7729100D01*
X11138000Y-7785100D01*
X11194000Y-7841100D01*
D11*
X10799777Y-14640484D02*
X10799777Y-14440484D01*
X10799777Y-14440484D02*
X10847396Y-14440484D01*
X10847396Y-14440484D02*
X10875967Y-14450008D01*
X10875967Y-14450008D02*
X10895015Y-14469055D01*
X10895015Y-14469055D02*
X10904539Y-14488103D01*
X10904539Y-14488103D02*
X10914063Y-14526198D01*
X10914063Y-14526198D02*
X10914063Y-14554769D01*
X10914063Y-14554769D02*
X10904539Y-14592865D01*
X10904539Y-14592865D02*
X10895015Y-14611912D01*
X10895015Y-14611912D02*
X10875967Y-14630960D01*
X10875967Y-14630960D02*
X10847396Y-14640484D01*
X10847396Y-14640484D02*
X10799777Y-14640484D01*
X10999777Y-14640484D02*
X10999777Y-14507150D01*
X10999777Y-14545246D02*
X11009301Y-14526198D01*
X11009301Y-14526198D02*
X11018824Y-14516674D01*
X11018824Y-14516674D02*
X11037872Y-14507150D01*
X11037872Y-14507150D02*
X11056920Y-14507150D01*
X11123586Y-14640484D02*
X11123586Y-14507150D01*
X11123586Y-14440484D02*
X11114063Y-14450008D01*
X11114063Y-14450008D02*
X11123586Y-14459531D01*
X11123586Y-14459531D02*
X11133110Y-14450008D01*
X11133110Y-14450008D02*
X11123586Y-14440484D01*
X11123586Y-14440484D02*
X11123586Y-14459531D01*
X11247396Y-14640484D02*
X11228348Y-14630960D01*
X11228348Y-14630960D02*
X11218824Y-14611912D01*
X11218824Y-14611912D02*
X11218824Y-14440484D01*
X11352158Y-14640484D02*
X11333110Y-14630960D01*
X11333110Y-14630960D02*
X11323586Y-14611912D01*
X11323586Y-14611912D02*
X11323586Y-14440484D01*
X11580729Y-14640484D02*
X11580729Y-14440484D01*
X11580729Y-14440484D02*
X11647396Y-14583341D01*
X11647396Y-14583341D02*
X11714062Y-14440484D01*
X11714062Y-14440484D02*
X11714062Y-14640484D01*
X11895015Y-14640484D02*
X11895015Y-14535722D01*
X11895015Y-14535722D02*
X11885491Y-14516674D01*
X11885491Y-14516674D02*
X11866443Y-14507150D01*
X11866443Y-14507150D02*
X11828348Y-14507150D01*
X11828348Y-14507150D02*
X11809301Y-14516674D01*
X11895015Y-14630960D02*
X11875967Y-14640484D01*
X11875967Y-14640484D02*
X11828348Y-14640484D01*
X11828348Y-14640484D02*
X11809301Y-14630960D01*
X11809301Y-14630960D02*
X11799777Y-14611912D01*
X11799777Y-14611912D02*
X11799777Y-14592865D01*
X11799777Y-14592865D02*
X11809301Y-14573817D01*
X11809301Y-14573817D02*
X11828348Y-14564293D01*
X11828348Y-14564293D02*
X11875967Y-14564293D01*
X11875967Y-14564293D02*
X11895015Y-14554769D01*
X11990253Y-14507150D02*
X11990253Y-14707150D01*
X11990253Y-14516674D02*
X12009301Y-14507150D01*
X12009301Y-14507150D02*
X12047396Y-14507150D01*
X12047396Y-14507150D02*
X12066443Y-14516674D01*
X12066443Y-14516674D02*
X12075967Y-14526198D01*
X12075967Y-14526198D02*
X12085491Y-14545246D01*
X12085491Y-14545246D02*
X12085491Y-14602388D01*
X12085491Y-14602388D02*
X12075967Y-14621436D01*
X12075967Y-14621436D02*
X12066443Y-14630960D01*
X12066443Y-14630960D02*
X12047396Y-14640484D01*
X12047396Y-14640484D02*
X12009301Y-14640484D01*
X12009301Y-14640484D02*
X11990253Y-14630960D01*
X12171205Y-14621436D02*
X12180729Y-14630960D01*
X12180729Y-14630960D02*
X12171205Y-14640484D01*
X12171205Y-14640484D02*
X12161682Y-14630960D01*
X12161682Y-14630960D02*
X12171205Y-14621436D01*
X12171205Y-14621436D02*
X12171205Y-14640484D01*
X12171205Y-14516674D02*
X12180729Y-14526198D01*
X12180729Y-14526198D02*
X12171205Y-14535722D01*
X12171205Y-14535722D02*
X12161682Y-14526198D01*
X12161682Y-14526198D02*
X12171205Y-14516674D01*
X12171205Y-14516674D02*
X12171205Y-14535722D01*
D10*
X10499000Y-14949000D02*
X10539000Y-14989000D01*
X10539000Y-14949000D02*
X10499000Y-14989000D01*
D11*
X10837872Y-14860484D02*
X10856920Y-14860484D01*
X10856920Y-14860484D02*
X10875967Y-14870008D01*
X10875967Y-14870008D02*
X10885491Y-14879531D01*
X10885491Y-14879531D02*
X10895015Y-14898579D01*
X10895015Y-14898579D02*
X10904539Y-14936674D01*
X10904539Y-14936674D02*
X10904539Y-14984293D01*
X10904539Y-14984293D02*
X10895015Y-15022388D01*
X10895015Y-15022388D02*
X10885491Y-15041436D01*
X10885491Y-15041436D02*
X10875967Y-15050960D01*
X10875967Y-15050960D02*
X10856920Y-15060484D01*
X10856920Y-15060484D02*
X10837872Y-15060484D01*
X10837872Y-15060484D02*
X10818824Y-15050960D01*
X10818824Y-15050960D02*
X10809301Y-15041436D01*
X10809301Y-15041436D02*
X10799777Y-15022388D01*
X10799777Y-15022388D02*
X10790253Y-14984293D01*
X10790253Y-14984293D02*
X10790253Y-14936674D01*
X10790253Y-14936674D02*
X10799777Y-14898579D01*
X10799777Y-14898579D02*
X10809301Y-14879531D01*
X10809301Y-14879531D02*
X10818824Y-14870008D01*
X10818824Y-14870008D02*
X10837872Y-14860484D01*
X10990253Y-15041436D02*
X10999777Y-15050960D01*
X10999777Y-15050960D02*
X10990253Y-15060484D01*
X10990253Y-15060484D02*
X10980729Y-15050960D01*
X10980729Y-15050960D02*
X10990253Y-15041436D01*
X10990253Y-15041436D02*
X10990253Y-15060484D01*
X11171205Y-14927150D02*
X11171205Y-15060484D01*
X11123586Y-14850960D02*
X11075967Y-14993817D01*
X11075967Y-14993817D02*
X11199777Y-14993817D01*
X11314062Y-14860484D02*
X11333110Y-14860484D01*
X11333110Y-14860484D02*
X11352158Y-14870008D01*
X11352158Y-14870008D02*
X11361682Y-14879531D01*
X11361682Y-14879531D02*
X11371205Y-14898579D01*
X11371205Y-14898579D02*
X11380729Y-14936674D01*
X11380729Y-14936674D02*
X11380729Y-14984293D01*
X11380729Y-14984293D02*
X11371205Y-15022388D01*
X11371205Y-15022388D02*
X11361682Y-15041436D01*
X11361682Y-15041436D02*
X11352158Y-15050960D01*
X11352158Y-15050960D02*
X11333110Y-15060484D01*
X11333110Y-15060484D02*
X11314062Y-15060484D01*
X11314062Y-15060484D02*
X11295015Y-15050960D01*
X11295015Y-15050960D02*
X11285491Y-15041436D01*
X11285491Y-15041436D02*
X11275967Y-15022388D01*
X11275967Y-15022388D02*
X11266443Y-14984293D01*
X11266443Y-14984293D02*
X11266443Y-14936674D01*
X11266443Y-14936674D02*
X11275967Y-14898579D01*
X11275967Y-14898579D02*
X11285491Y-14879531D01*
X11285491Y-14879531D02*
X11295015Y-14870008D01*
X11295015Y-14870008D02*
X11314062Y-14860484D01*
X11504539Y-14860484D02*
X11523586Y-14860484D01*
X11523586Y-14860484D02*
X11542634Y-14870008D01*
X11542634Y-14870008D02*
X11552158Y-14879531D01*
X11552158Y-14879531D02*
X11561682Y-14898579D01*
X11561682Y-14898579D02*
X11571205Y-14936674D01*
X11571205Y-14936674D02*
X11571205Y-14984293D01*
X11571205Y-14984293D02*
X11561682Y-15022388D01*
X11561682Y-15022388D02*
X11552158Y-15041436D01*
X11552158Y-15041436D02*
X11542634Y-15050960D01*
X11542634Y-15050960D02*
X11523586Y-15060484D01*
X11523586Y-15060484D02*
X11504539Y-15060484D01*
X11504539Y-15060484D02*
X11485491Y-15050960D01*
X11485491Y-15050960D02*
X11475967Y-15041436D01*
X11475967Y-15041436D02*
X11466443Y-15022388D01*
X11466443Y-15022388D02*
X11456920Y-14984293D01*
X11456920Y-14984293D02*
X11456920Y-14936674D01*
X11456920Y-14936674D02*
X11466443Y-14898579D01*
X11466443Y-14898579D02*
X11475967Y-14879531D01*
X11475967Y-14879531D02*
X11485491Y-14870008D01*
X11485491Y-14870008D02*
X11504539Y-14860484D01*
X11656920Y-15060484D02*
X11656920Y-14927150D01*
X11656920Y-14946198D02*
X11666443Y-14936674D01*
X11666443Y-14936674D02*
X11685491Y-14927150D01*
X11685491Y-14927150D02*
X11714063Y-14927150D01*
X11714063Y-14927150D02*
X11733110Y-14936674D01*
X11733110Y-14936674D02*
X11742634Y-14955722D01*
X11742634Y-14955722D02*
X11742634Y-15060484D01*
X11742634Y-14955722D02*
X11752158Y-14936674D01*
X11752158Y-14936674D02*
X11771205Y-14927150D01*
X11771205Y-14927150D02*
X11799777Y-14927150D01*
X11799777Y-14927150D02*
X11818824Y-14936674D01*
X11818824Y-14936674D02*
X11828348Y-14955722D01*
X11828348Y-14955722D02*
X11828348Y-15060484D01*
X11923586Y-15060484D02*
X11923586Y-14927150D01*
X11923586Y-14946198D02*
X11933110Y-14936674D01*
X11933110Y-14936674D02*
X11952158Y-14927150D01*
X11952158Y-14927150D02*
X11980729Y-14927150D01*
X11980729Y-14927150D02*
X11999777Y-14936674D01*
X11999777Y-14936674D02*
X12009301Y-14955722D01*
X12009301Y-14955722D02*
X12009301Y-15060484D01*
X12009301Y-14955722D02*
X12018824Y-14936674D01*
X12018824Y-14936674D02*
X12037872Y-14927150D01*
X12037872Y-14927150D02*
X12066443Y-14927150D01*
X12066443Y-14927150D02*
X12085491Y-14936674D01*
X12085491Y-14936674D02*
X12095015Y-14955722D01*
X12095015Y-14955722D02*
X12095015Y-15060484D01*
X12485491Y-14850960D02*
X12314063Y-15108103D01*
X12742634Y-14860484D02*
X12761682Y-14860484D01*
X12761682Y-14860484D02*
X12780729Y-14870008D01*
X12780729Y-14870008D02*
X12790253Y-14879531D01*
X12790253Y-14879531D02*
X12799777Y-14898579D01*
X12799777Y-14898579D02*
X12809301Y-14936674D01*
X12809301Y-14936674D02*
X12809301Y-14984293D01*
X12809301Y-14984293D02*
X12799777Y-15022388D01*
X12799777Y-15022388D02*
X12790253Y-15041436D01*
X12790253Y-15041436D02*
X12780729Y-15050960D01*
X12780729Y-15050960D02*
X12761682Y-15060484D01*
X12761682Y-15060484D02*
X12742634Y-15060484D01*
X12742634Y-15060484D02*
X12723586Y-15050960D01*
X12723586Y-15050960D02*
X12714063Y-15041436D01*
X12714063Y-15041436D02*
X12704539Y-15022388D01*
X12704539Y-15022388D02*
X12695015Y-14984293D01*
X12695015Y-14984293D02*
X12695015Y-14936674D01*
X12695015Y-14936674D02*
X12704539Y-14898579D01*
X12704539Y-14898579D02*
X12714063Y-14879531D01*
X12714063Y-14879531D02*
X12723586Y-14870008D01*
X12723586Y-14870008D02*
X12742634Y-14860484D01*
X12895015Y-15041436D02*
X12904539Y-15050960D01*
X12904539Y-15050960D02*
X12895015Y-15060484D01*
X12895015Y-15060484D02*
X12885491Y-15050960D01*
X12885491Y-15050960D02*
X12895015Y-15041436D01*
X12895015Y-15041436D02*
X12895015Y-15060484D01*
X13028348Y-14860484D02*
X13047396Y-14860484D01*
X13047396Y-14860484D02*
X13066444Y-14870008D01*
X13066444Y-14870008D02*
X13075967Y-14879531D01*
X13075967Y-14879531D02*
X13085491Y-14898579D01*
X13085491Y-14898579D02*
X13095015Y-14936674D01*
X13095015Y-14936674D02*
X13095015Y-14984293D01*
X13095015Y-14984293D02*
X13085491Y-15022388D01*
X13085491Y-15022388D02*
X13075967Y-15041436D01*
X13075967Y-15041436D02*
X13066444Y-15050960D01*
X13066444Y-15050960D02*
X13047396Y-15060484D01*
X13047396Y-15060484D02*
X13028348Y-15060484D01*
X13028348Y-15060484D02*
X13009301Y-15050960D01*
X13009301Y-15050960D02*
X12999777Y-15041436D01*
X12999777Y-15041436D02*
X12990253Y-15022388D01*
X12990253Y-15022388D02*
X12980729Y-14984293D01*
X12980729Y-14984293D02*
X12980729Y-14936674D01*
X12980729Y-14936674D02*
X12990253Y-14898579D01*
X12990253Y-14898579D02*
X12999777Y-14879531D01*
X12999777Y-14879531D02*
X13009301Y-14870008D01*
X13009301Y-14870008D02*
X13028348Y-14860484D01*
X13285491Y-15060484D02*
X13171206Y-15060484D01*
X13228348Y-15060484D02*
X13228348Y-14860484D01*
X13228348Y-14860484D02*
X13209301Y-14889055D01*
X13209301Y-14889055D02*
X13190253Y-14908103D01*
X13190253Y-14908103D02*
X13171206Y-14917627D01*
X13466444Y-14860484D02*
X13371206Y-14860484D01*
X13371206Y-14860484D02*
X13361682Y-14955722D01*
X13361682Y-14955722D02*
X13371206Y-14946198D01*
X13371206Y-14946198D02*
X13390253Y-14936674D01*
X13390253Y-14936674D02*
X13437872Y-14936674D01*
X13437872Y-14936674D02*
X13456920Y-14946198D01*
X13456920Y-14946198D02*
X13466444Y-14955722D01*
X13466444Y-14955722D02*
X13475967Y-14974769D01*
X13475967Y-14974769D02*
X13475967Y-15022388D01*
X13475967Y-15022388D02*
X13466444Y-15041436D01*
X13466444Y-15041436D02*
X13456920Y-15050960D01*
X13456920Y-15050960D02*
X13437872Y-15060484D01*
X13437872Y-15060484D02*
X13390253Y-15060484D01*
X13390253Y-15060484D02*
X13371206Y-15050960D01*
X13371206Y-15050960D02*
X13361682Y-15041436D01*
X13542634Y-14860484D02*
X13675967Y-14860484D01*
X13675967Y-14860484D02*
X13590253Y-15060484D01*
X13742634Y-14860484D02*
X13742634Y-14898579D01*
X13818825Y-14860484D02*
X13818825Y-14898579D01*
X14114063Y-15136674D02*
X14104539Y-15127150D01*
X14104539Y-15127150D02*
X14085491Y-15098579D01*
X14085491Y-15098579D02*
X14075968Y-15079531D01*
X14075968Y-15079531D02*
X14066444Y-15050960D01*
X14066444Y-15050960D02*
X14056920Y-15003341D01*
X14056920Y-15003341D02*
X14056920Y-14965246D01*
X14056920Y-14965246D02*
X14066444Y-14917627D01*
X14066444Y-14917627D02*
X14075968Y-14889055D01*
X14075968Y-14889055D02*
X14085491Y-14870008D01*
X14085491Y-14870008D02*
X14104539Y-14841436D01*
X14104539Y-14841436D02*
X14114063Y-14831912D01*
X14295015Y-15060484D02*
X14180729Y-15060484D01*
X14237872Y-15060484D02*
X14237872Y-14860484D01*
X14237872Y-14860484D02*
X14218825Y-14889055D01*
X14218825Y-14889055D02*
X14199777Y-14908103D01*
X14199777Y-14908103D02*
X14180729Y-14917627D01*
X14466444Y-14860484D02*
X14428348Y-14860484D01*
X14428348Y-14860484D02*
X14409301Y-14870008D01*
X14409301Y-14870008D02*
X14399777Y-14879531D01*
X14399777Y-14879531D02*
X14380729Y-14908103D01*
X14380729Y-14908103D02*
X14371206Y-14946198D01*
X14371206Y-14946198D02*
X14371206Y-15022388D01*
X14371206Y-15022388D02*
X14380729Y-15041436D01*
X14380729Y-15041436D02*
X14390253Y-15050960D01*
X14390253Y-15050960D02*
X14409301Y-15060484D01*
X14409301Y-15060484D02*
X14447396Y-15060484D01*
X14447396Y-15060484D02*
X14466444Y-15050960D01*
X14466444Y-15050960D02*
X14475968Y-15041436D01*
X14475968Y-15041436D02*
X14485491Y-15022388D01*
X14485491Y-15022388D02*
X14485491Y-14974769D01*
X14485491Y-14974769D02*
X14475968Y-14955722D01*
X14475968Y-14955722D02*
X14466444Y-14946198D01*
X14466444Y-14946198D02*
X14447396Y-14936674D01*
X14447396Y-14936674D02*
X14409301Y-14936674D01*
X14409301Y-14936674D02*
X14390253Y-14946198D01*
X14390253Y-14946198D02*
X14380729Y-14955722D01*
X14380729Y-14955722D02*
X14371206Y-14974769D01*
X14723587Y-15060484D02*
X14723587Y-14860484D01*
X14809301Y-15060484D02*
X14809301Y-14955722D01*
X14809301Y-14955722D02*
X14799777Y-14936674D01*
X14799777Y-14936674D02*
X14780730Y-14927150D01*
X14780730Y-14927150D02*
X14752158Y-14927150D01*
X14752158Y-14927150D02*
X14733110Y-14936674D01*
X14733110Y-14936674D02*
X14723587Y-14946198D01*
X14933110Y-15060484D02*
X14914063Y-15050960D01*
X14914063Y-15050960D02*
X14904539Y-15041436D01*
X14904539Y-15041436D02*
X14895015Y-15022388D01*
X14895015Y-15022388D02*
X14895015Y-14965246D01*
X14895015Y-14965246D02*
X14904539Y-14946198D01*
X14904539Y-14946198D02*
X14914063Y-14936674D01*
X14914063Y-14936674D02*
X14933110Y-14927150D01*
X14933110Y-14927150D02*
X14961682Y-14927150D01*
X14961682Y-14927150D02*
X14980730Y-14936674D01*
X14980730Y-14936674D02*
X14990253Y-14946198D01*
X14990253Y-14946198D02*
X14999777Y-14965246D01*
X14999777Y-14965246D02*
X14999777Y-15022388D01*
X14999777Y-15022388D02*
X14990253Y-15041436D01*
X14990253Y-15041436D02*
X14980730Y-15050960D01*
X14980730Y-15050960D02*
X14961682Y-15060484D01*
X14961682Y-15060484D02*
X14933110Y-15060484D01*
X15114063Y-15060484D02*
X15095015Y-15050960D01*
X15095015Y-15050960D02*
X15085491Y-15031912D01*
X15085491Y-15031912D02*
X15085491Y-14860484D01*
X15266444Y-15050960D02*
X15247396Y-15060484D01*
X15247396Y-15060484D02*
X15209301Y-15060484D01*
X15209301Y-15060484D02*
X15190253Y-15050960D01*
X15190253Y-15050960D02*
X15180730Y-15031912D01*
X15180730Y-15031912D02*
X15180730Y-14955722D01*
X15180730Y-14955722D02*
X15190253Y-14936674D01*
X15190253Y-14936674D02*
X15209301Y-14927150D01*
X15209301Y-14927150D02*
X15247396Y-14927150D01*
X15247396Y-14927150D02*
X15266444Y-14936674D01*
X15266444Y-14936674D02*
X15275968Y-14955722D01*
X15275968Y-14955722D02*
X15275968Y-14974769D01*
X15275968Y-14974769D02*
X15180730Y-14993817D01*
X15352158Y-15050960D02*
X15371206Y-15060484D01*
X15371206Y-15060484D02*
X15409301Y-15060484D01*
X15409301Y-15060484D02*
X15428349Y-15050960D01*
X15428349Y-15050960D02*
X15437872Y-15031912D01*
X15437872Y-15031912D02*
X15437872Y-15022388D01*
X15437872Y-15022388D02*
X15428349Y-15003341D01*
X15428349Y-15003341D02*
X15409301Y-14993817D01*
X15409301Y-14993817D02*
X15380730Y-14993817D01*
X15380730Y-14993817D02*
X15361682Y-14984293D01*
X15361682Y-14984293D02*
X15352158Y-14965246D01*
X15352158Y-14965246D02*
X15352158Y-14955722D01*
X15352158Y-14955722D02*
X15361682Y-14936674D01*
X15361682Y-14936674D02*
X15380730Y-14927150D01*
X15380730Y-14927150D02*
X15409301Y-14927150D01*
X15409301Y-14927150D02*
X15428349Y-14936674D01*
X15504539Y-15136674D02*
X15514063Y-15127150D01*
X15514063Y-15127150D02*
X15533111Y-15098579D01*
X15533111Y-15098579D02*
X15542634Y-15079531D01*
X15542634Y-15079531D02*
X15552158Y-15050960D01*
X15552158Y-15050960D02*
X15561682Y-15003341D01*
X15561682Y-15003341D02*
X15561682Y-14965246D01*
X15561682Y-14965246D02*
X15552158Y-14917627D01*
X15552158Y-14917627D02*
X15542634Y-14889055D01*
X15542634Y-14889055D02*
X15533111Y-14870008D01*
X15533111Y-14870008D02*
X15514063Y-14841436D01*
X15514063Y-14841436D02*
X15504539Y-14831912D01*
D10*
X10539000Y-15233000D02*
G75*
G02*
X10479000Y-15233000I-30000J0D01*
G01*
X10479000Y-15233000D02*
G75*
G02*
X10539000Y-15233000I30000J0D01*
G01*
D11*
X10837872Y-15124484D02*
X10856920Y-15124484D01*
X10856920Y-15124484D02*
X10875967Y-15134008D01*
X10875967Y-15134008D02*
X10885491Y-15143531D01*
X10885491Y-15143531D02*
X10895015Y-15162579D01*
X10895015Y-15162579D02*
X10904539Y-15200674D01*
X10904539Y-15200674D02*
X10904539Y-15248293D01*
X10904539Y-15248293D02*
X10895015Y-15286388D01*
X10895015Y-15286388D02*
X10885491Y-15305436D01*
X10885491Y-15305436D02*
X10875967Y-15314960D01*
X10875967Y-15314960D02*
X10856920Y-15324484D01*
X10856920Y-15324484D02*
X10837872Y-15324484D01*
X10837872Y-15324484D02*
X10818824Y-15314960D01*
X10818824Y-15314960D02*
X10809301Y-15305436D01*
X10809301Y-15305436D02*
X10799777Y-15286388D01*
X10799777Y-15286388D02*
X10790253Y-15248293D01*
X10790253Y-15248293D02*
X10790253Y-15200674D01*
X10790253Y-15200674D02*
X10799777Y-15162579D01*
X10799777Y-15162579D02*
X10809301Y-15143531D01*
X10809301Y-15143531D02*
X10818824Y-15134008D01*
X10818824Y-15134008D02*
X10837872Y-15124484D01*
X10990253Y-15305436D02*
X10999777Y-15314960D01*
X10999777Y-15314960D02*
X10990253Y-15324484D01*
X10990253Y-15324484D02*
X10980729Y-15314960D01*
X10980729Y-15314960D02*
X10990253Y-15305436D01*
X10990253Y-15305436D02*
X10990253Y-15324484D01*
X11171205Y-15124484D02*
X11133110Y-15124484D01*
X11133110Y-15124484D02*
X11114063Y-15134008D01*
X11114063Y-15134008D02*
X11104539Y-15143531D01*
X11104539Y-15143531D02*
X11085491Y-15172103D01*
X11085491Y-15172103D02*
X11075967Y-15210198D01*
X11075967Y-15210198D02*
X11075967Y-15286388D01*
X11075967Y-15286388D02*
X11085491Y-15305436D01*
X11085491Y-15305436D02*
X11095015Y-15314960D01*
X11095015Y-15314960D02*
X11114063Y-15324484D01*
X11114063Y-15324484D02*
X11152158Y-15324484D01*
X11152158Y-15324484D02*
X11171205Y-15314960D01*
X11171205Y-15314960D02*
X11180729Y-15305436D01*
X11180729Y-15305436D02*
X11190253Y-15286388D01*
X11190253Y-15286388D02*
X11190253Y-15238769D01*
X11190253Y-15238769D02*
X11180729Y-15219722D01*
X11180729Y-15219722D02*
X11171205Y-15210198D01*
X11171205Y-15210198D02*
X11152158Y-15200674D01*
X11152158Y-15200674D02*
X11114063Y-15200674D01*
X11114063Y-15200674D02*
X11095015Y-15210198D01*
X11095015Y-15210198D02*
X11085491Y-15219722D01*
X11085491Y-15219722D02*
X11075967Y-15238769D01*
X11314062Y-15124484D02*
X11333110Y-15124484D01*
X11333110Y-15124484D02*
X11352158Y-15134008D01*
X11352158Y-15134008D02*
X11361682Y-15143531D01*
X11361682Y-15143531D02*
X11371205Y-15162579D01*
X11371205Y-15162579D02*
X11380729Y-15200674D01*
X11380729Y-15200674D02*
X11380729Y-15248293D01*
X11380729Y-15248293D02*
X11371205Y-15286388D01*
X11371205Y-15286388D02*
X11361682Y-15305436D01*
X11361682Y-15305436D02*
X11352158Y-15314960D01*
X11352158Y-15314960D02*
X11333110Y-15324484D01*
X11333110Y-15324484D02*
X11314062Y-15324484D01*
X11314062Y-15324484D02*
X11295015Y-15314960D01*
X11295015Y-15314960D02*
X11285491Y-15305436D01*
X11285491Y-15305436D02*
X11275967Y-15286388D01*
X11275967Y-15286388D02*
X11266443Y-15248293D01*
X11266443Y-15248293D02*
X11266443Y-15200674D01*
X11266443Y-15200674D02*
X11275967Y-15162579D01*
X11275967Y-15162579D02*
X11285491Y-15143531D01*
X11285491Y-15143531D02*
X11295015Y-15134008D01*
X11295015Y-15134008D02*
X11314062Y-15124484D01*
X11504539Y-15124484D02*
X11523586Y-15124484D01*
X11523586Y-15124484D02*
X11542634Y-15134008D01*
X11542634Y-15134008D02*
X11552158Y-15143531D01*
X11552158Y-15143531D02*
X11561682Y-15162579D01*
X11561682Y-15162579D02*
X11571205Y-15200674D01*
X11571205Y-15200674D02*
X11571205Y-15248293D01*
X11571205Y-15248293D02*
X11561682Y-15286388D01*
X11561682Y-15286388D02*
X11552158Y-15305436D01*
X11552158Y-15305436D02*
X11542634Y-15314960D01*
X11542634Y-15314960D02*
X11523586Y-15324484D01*
X11523586Y-15324484D02*
X11504539Y-15324484D01*
X11504539Y-15324484D02*
X11485491Y-15314960D01*
X11485491Y-15314960D02*
X11475967Y-15305436D01*
X11475967Y-15305436D02*
X11466443Y-15286388D01*
X11466443Y-15286388D02*
X11456920Y-15248293D01*
X11456920Y-15248293D02*
X11456920Y-15200674D01*
X11456920Y-15200674D02*
X11466443Y-15162579D01*
X11466443Y-15162579D02*
X11475967Y-15143531D01*
X11475967Y-15143531D02*
X11485491Y-15134008D01*
X11485491Y-15134008D02*
X11504539Y-15124484D01*
X11656920Y-15324484D02*
X11656920Y-15191150D01*
X11656920Y-15210198D02*
X11666443Y-15200674D01*
X11666443Y-15200674D02*
X11685491Y-15191150D01*
X11685491Y-15191150D02*
X11714063Y-15191150D01*
X11714063Y-15191150D02*
X11733110Y-15200674D01*
X11733110Y-15200674D02*
X11742634Y-15219722D01*
X11742634Y-15219722D02*
X11742634Y-15324484D01*
X11742634Y-15219722D02*
X11752158Y-15200674D01*
X11752158Y-15200674D02*
X11771205Y-15191150D01*
X11771205Y-15191150D02*
X11799777Y-15191150D01*
X11799777Y-15191150D02*
X11818824Y-15200674D01*
X11818824Y-15200674D02*
X11828348Y-15219722D01*
X11828348Y-15219722D02*
X11828348Y-15324484D01*
X11923586Y-15324484D02*
X11923586Y-15191150D01*
X11923586Y-15210198D02*
X11933110Y-15200674D01*
X11933110Y-15200674D02*
X11952158Y-15191150D01*
X11952158Y-15191150D02*
X11980729Y-15191150D01*
X11980729Y-15191150D02*
X11999777Y-15200674D01*
X11999777Y-15200674D02*
X12009301Y-15219722D01*
X12009301Y-15219722D02*
X12009301Y-15324484D01*
X12009301Y-15219722D02*
X12018824Y-15200674D01*
X12018824Y-15200674D02*
X12037872Y-15191150D01*
X12037872Y-15191150D02*
X12066443Y-15191150D01*
X12066443Y-15191150D02*
X12085491Y-15200674D01*
X12085491Y-15200674D02*
X12095015Y-15219722D01*
X12095015Y-15219722D02*
X12095015Y-15324484D01*
X12485491Y-15114960D02*
X12314063Y-15372103D01*
X12742634Y-15124484D02*
X12761682Y-15124484D01*
X12761682Y-15124484D02*
X12780729Y-15134008D01*
X12780729Y-15134008D02*
X12790253Y-15143531D01*
X12790253Y-15143531D02*
X12799777Y-15162579D01*
X12799777Y-15162579D02*
X12809301Y-15200674D01*
X12809301Y-15200674D02*
X12809301Y-15248293D01*
X12809301Y-15248293D02*
X12799777Y-15286388D01*
X12799777Y-15286388D02*
X12790253Y-15305436D01*
X12790253Y-15305436D02*
X12780729Y-15314960D01*
X12780729Y-15314960D02*
X12761682Y-15324484D01*
X12761682Y-15324484D02*
X12742634Y-15324484D01*
X12742634Y-15324484D02*
X12723586Y-15314960D01*
X12723586Y-15314960D02*
X12714063Y-15305436D01*
X12714063Y-15305436D02*
X12704539Y-15286388D01*
X12704539Y-15286388D02*
X12695015Y-15248293D01*
X12695015Y-15248293D02*
X12695015Y-15200674D01*
X12695015Y-15200674D02*
X12704539Y-15162579D01*
X12704539Y-15162579D02*
X12714063Y-15143531D01*
X12714063Y-15143531D02*
X12723586Y-15134008D01*
X12723586Y-15134008D02*
X12742634Y-15124484D01*
X12895015Y-15305436D02*
X12904539Y-15314960D01*
X12904539Y-15314960D02*
X12895015Y-15324484D01*
X12895015Y-15324484D02*
X12885491Y-15314960D01*
X12885491Y-15314960D02*
X12895015Y-15305436D01*
X12895015Y-15305436D02*
X12895015Y-15324484D01*
X13028348Y-15124484D02*
X13047396Y-15124484D01*
X13047396Y-15124484D02*
X13066444Y-15134008D01*
X13066444Y-15134008D02*
X13075967Y-15143531D01*
X13075967Y-15143531D02*
X13085491Y-15162579D01*
X13085491Y-15162579D02*
X13095015Y-15200674D01*
X13095015Y-15200674D02*
X13095015Y-15248293D01*
X13095015Y-15248293D02*
X13085491Y-15286388D01*
X13085491Y-15286388D02*
X13075967Y-15305436D01*
X13075967Y-15305436D02*
X13066444Y-15314960D01*
X13066444Y-15314960D02*
X13047396Y-15324484D01*
X13047396Y-15324484D02*
X13028348Y-15324484D01*
X13028348Y-15324484D02*
X13009301Y-15314960D01*
X13009301Y-15314960D02*
X12999777Y-15305436D01*
X12999777Y-15305436D02*
X12990253Y-15286388D01*
X12990253Y-15286388D02*
X12980729Y-15248293D01*
X12980729Y-15248293D02*
X12980729Y-15200674D01*
X12980729Y-15200674D02*
X12990253Y-15162579D01*
X12990253Y-15162579D02*
X12999777Y-15143531D01*
X12999777Y-15143531D02*
X13009301Y-15134008D01*
X13009301Y-15134008D02*
X13028348Y-15124484D01*
X13171206Y-15143531D02*
X13180729Y-15134008D01*
X13180729Y-15134008D02*
X13199777Y-15124484D01*
X13199777Y-15124484D02*
X13247396Y-15124484D01*
X13247396Y-15124484D02*
X13266444Y-15134008D01*
X13266444Y-15134008D02*
X13275967Y-15143531D01*
X13275967Y-15143531D02*
X13285491Y-15162579D01*
X13285491Y-15162579D02*
X13285491Y-15181627D01*
X13285491Y-15181627D02*
X13275967Y-15210198D01*
X13275967Y-15210198D02*
X13161682Y-15324484D01*
X13161682Y-15324484D02*
X13285491Y-15324484D01*
X13352158Y-15124484D02*
X13475967Y-15124484D01*
X13475967Y-15124484D02*
X13409301Y-15200674D01*
X13409301Y-15200674D02*
X13437872Y-15200674D01*
X13437872Y-15200674D02*
X13456920Y-15210198D01*
X13456920Y-15210198D02*
X13466444Y-15219722D01*
X13466444Y-15219722D02*
X13475967Y-15238769D01*
X13475967Y-15238769D02*
X13475967Y-15286388D01*
X13475967Y-15286388D02*
X13466444Y-15305436D01*
X13466444Y-15305436D02*
X13456920Y-15314960D01*
X13456920Y-15314960D02*
X13437872Y-15324484D01*
X13437872Y-15324484D02*
X13380729Y-15324484D01*
X13380729Y-15324484D02*
X13361682Y-15314960D01*
X13361682Y-15314960D02*
X13352158Y-15305436D01*
X13647396Y-15124484D02*
X13609301Y-15124484D01*
X13609301Y-15124484D02*
X13590253Y-15134008D01*
X13590253Y-15134008D02*
X13580729Y-15143531D01*
X13580729Y-15143531D02*
X13561682Y-15172103D01*
X13561682Y-15172103D02*
X13552158Y-15210198D01*
X13552158Y-15210198D02*
X13552158Y-15286388D01*
X13552158Y-15286388D02*
X13561682Y-15305436D01*
X13561682Y-15305436D02*
X13571206Y-15314960D01*
X13571206Y-15314960D02*
X13590253Y-15324484D01*
X13590253Y-15324484D02*
X13628348Y-15324484D01*
X13628348Y-15324484D02*
X13647396Y-15314960D01*
X13647396Y-15314960D02*
X13656920Y-15305436D01*
X13656920Y-15305436D02*
X13666444Y-15286388D01*
X13666444Y-15286388D02*
X13666444Y-15238769D01*
X13666444Y-15238769D02*
X13656920Y-15219722D01*
X13656920Y-15219722D02*
X13647396Y-15210198D01*
X13647396Y-15210198D02*
X13628348Y-15200674D01*
X13628348Y-15200674D02*
X13590253Y-15200674D01*
X13590253Y-15200674D02*
X13571206Y-15210198D01*
X13571206Y-15210198D02*
X13561682Y-15219722D01*
X13561682Y-15219722D02*
X13552158Y-15238769D01*
X13742634Y-15124484D02*
X13742634Y-15162579D01*
X13818825Y-15124484D02*
X13818825Y-15162579D01*
X14114063Y-15400674D02*
X14104539Y-15391150D01*
X14104539Y-15391150D02*
X14085491Y-15362579D01*
X14085491Y-15362579D02*
X14075968Y-15343531D01*
X14075968Y-15343531D02*
X14066444Y-15314960D01*
X14066444Y-15314960D02*
X14056920Y-15267341D01*
X14056920Y-15267341D02*
X14056920Y-15229246D01*
X14056920Y-15229246D02*
X14066444Y-15181627D01*
X14066444Y-15181627D02*
X14075968Y-15153055D01*
X14075968Y-15153055D02*
X14085491Y-15134008D01*
X14085491Y-15134008D02*
X14104539Y-15105436D01*
X14104539Y-15105436D02*
X14114063Y-15095912D01*
X14228348Y-15124484D02*
X14247396Y-15124484D01*
X14247396Y-15124484D02*
X14266444Y-15134008D01*
X14266444Y-15134008D02*
X14275968Y-15143531D01*
X14275968Y-15143531D02*
X14285491Y-15162579D01*
X14285491Y-15162579D02*
X14295015Y-15200674D01*
X14295015Y-15200674D02*
X14295015Y-15248293D01*
X14295015Y-15248293D02*
X14285491Y-15286388D01*
X14285491Y-15286388D02*
X14275968Y-15305436D01*
X14275968Y-15305436D02*
X14266444Y-15314960D01*
X14266444Y-15314960D02*
X14247396Y-15324484D01*
X14247396Y-15324484D02*
X14228348Y-15324484D01*
X14228348Y-15324484D02*
X14209301Y-15314960D01*
X14209301Y-15314960D02*
X14199777Y-15305436D01*
X14199777Y-15305436D02*
X14190253Y-15286388D01*
X14190253Y-15286388D02*
X14180729Y-15248293D01*
X14180729Y-15248293D02*
X14180729Y-15200674D01*
X14180729Y-15200674D02*
X14190253Y-15162579D01*
X14190253Y-15162579D02*
X14199777Y-15143531D01*
X14199777Y-15143531D02*
X14209301Y-15134008D01*
X14209301Y-15134008D02*
X14228348Y-15124484D01*
X14533110Y-15324484D02*
X14533110Y-15124484D01*
X14618825Y-15324484D02*
X14618825Y-15219722D01*
X14618825Y-15219722D02*
X14609301Y-15200674D01*
X14609301Y-15200674D02*
X14590253Y-15191150D01*
X14590253Y-15191150D02*
X14561682Y-15191150D01*
X14561682Y-15191150D02*
X14542634Y-15200674D01*
X14542634Y-15200674D02*
X14533110Y-15210198D01*
X14742634Y-15324484D02*
X14723587Y-15314960D01*
X14723587Y-15314960D02*
X14714063Y-15305436D01*
X14714063Y-15305436D02*
X14704539Y-15286388D01*
X14704539Y-15286388D02*
X14704539Y-15229246D01*
X14704539Y-15229246D02*
X14714063Y-15210198D01*
X14714063Y-15210198D02*
X14723587Y-15200674D01*
X14723587Y-15200674D02*
X14742634Y-15191150D01*
X14742634Y-15191150D02*
X14771206Y-15191150D01*
X14771206Y-15191150D02*
X14790253Y-15200674D01*
X14790253Y-15200674D02*
X14799777Y-15210198D01*
X14799777Y-15210198D02*
X14809301Y-15229246D01*
X14809301Y-15229246D02*
X14809301Y-15286388D01*
X14809301Y-15286388D02*
X14799777Y-15305436D01*
X14799777Y-15305436D02*
X14790253Y-15314960D01*
X14790253Y-15314960D02*
X14771206Y-15324484D01*
X14771206Y-15324484D02*
X14742634Y-15324484D01*
X14923587Y-15324484D02*
X14904539Y-15314960D01*
X14904539Y-15314960D02*
X14895015Y-15295912D01*
X14895015Y-15295912D02*
X14895015Y-15124484D01*
X15075968Y-15314960D02*
X15056920Y-15324484D01*
X15056920Y-15324484D02*
X15018825Y-15324484D01*
X15018825Y-15324484D02*
X14999777Y-15314960D01*
X14999777Y-15314960D02*
X14990253Y-15295912D01*
X14990253Y-15295912D02*
X14990253Y-15219722D01*
X14990253Y-15219722D02*
X14999777Y-15200674D01*
X14999777Y-15200674D02*
X15018825Y-15191150D01*
X15018825Y-15191150D02*
X15056920Y-15191150D01*
X15056920Y-15191150D02*
X15075968Y-15200674D01*
X15075968Y-15200674D02*
X15085491Y-15219722D01*
X15085491Y-15219722D02*
X15085491Y-15238769D01*
X15085491Y-15238769D02*
X14990253Y-15257817D01*
X15161682Y-15314960D02*
X15180730Y-15324484D01*
X15180730Y-15324484D02*
X15218825Y-15324484D01*
X15218825Y-15324484D02*
X15237872Y-15314960D01*
X15237872Y-15314960D02*
X15247396Y-15295912D01*
X15247396Y-15295912D02*
X15247396Y-15286388D01*
X15247396Y-15286388D02*
X15237872Y-15267341D01*
X15237872Y-15267341D02*
X15218825Y-15257817D01*
X15218825Y-15257817D02*
X15190253Y-15257817D01*
X15190253Y-15257817D02*
X15171206Y-15248293D01*
X15171206Y-15248293D02*
X15161682Y-15229246D01*
X15161682Y-15229246D02*
X15161682Y-15219722D01*
X15161682Y-15219722D02*
X15171206Y-15200674D01*
X15171206Y-15200674D02*
X15190253Y-15191150D01*
X15190253Y-15191150D02*
X15218825Y-15191150D01*
X15218825Y-15191150D02*
X15237872Y-15200674D01*
X15485492Y-15248293D02*
X15637873Y-15248293D01*
X15561682Y-15324484D02*
X15561682Y-15172103D01*
X15875968Y-15143531D02*
X15885492Y-15134008D01*
X15885492Y-15134008D02*
X15904539Y-15124484D01*
X15904539Y-15124484D02*
X15952158Y-15124484D01*
X15952158Y-15124484D02*
X15971206Y-15134008D01*
X15971206Y-15134008D02*
X15980730Y-15143531D01*
X15980730Y-15143531D02*
X15990253Y-15162579D01*
X15990253Y-15162579D02*
X15990253Y-15181627D01*
X15990253Y-15181627D02*
X15980730Y-15210198D01*
X15980730Y-15210198D02*
X15866444Y-15324484D01*
X15866444Y-15324484D02*
X15990253Y-15324484D01*
X16218825Y-15314960D02*
X16237873Y-15324484D01*
X16237873Y-15324484D02*
X16275968Y-15324484D01*
X16275968Y-15324484D02*
X16295015Y-15314960D01*
X16295015Y-15314960D02*
X16304539Y-15295912D01*
X16304539Y-15295912D02*
X16304539Y-15286388D01*
X16304539Y-15286388D02*
X16295015Y-15267341D01*
X16295015Y-15267341D02*
X16275968Y-15257817D01*
X16275968Y-15257817D02*
X16247396Y-15257817D01*
X16247396Y-15257817D02*
X16228349Y-15248293D01*
X16228349Y-15248293D02*
X16218825Y-15229246D01*
X16218825Y-15229246D02*
X16218825Y-15219722D01*
X16218825Y-15219722D02*
X16228349Y-15200674D01*
X16228349Y-15200674D02*
X16247396Y-15191150D01*
X16247396Y-15191150D02*
X16275968Y-15191150D01*
X16275968Y-15191150D02*
X16295015Y-15200674D01*
X16418825Y-15324484D02*
X16399777Y-15314960D01*
X16399777Y-15314960D02*
X16390254Y-15295912D01*
X16390254Y-15295912D02*
X16390254Y-15124484D01*
X16523587Y-15324484D02*
X16504539Y-15314960D01*
X16504539Y-15314960D02*
X16495015Y-15305436D01*
X16495015Y-15305436D02*
X16485492Y-15286388D01*
X16485492Y-15286388D02*
X16485492Y-15229246D01*
X16485492Y-15229246D02*
X16495015Y-15210198D01*
X16495015Y-15210198D02*
X16504539Y-15200674D01*
X16504539Y-15200674D02*
X16523587Y-15191150D01*
X16523587Y-15191150D02*
X16552158Y-15191150D01*
X16552158Y-15191150D02*
X16571206Y-15200674D01*
X16571206Y-15200674D02*
X16580730Y-15210198D01*
X16580730Y-15210198D02*
X16590254Y-15229246D01*
X16590254Y-15229246D02*
X16590254Y-15286388D01*
X16590254Y-15286388D02*
X16580730Y-15305436D01*
X16580730Y-15305436D02*
X16571206Y-15314960D01*
X16571206Y-15314960D02*
X16552158Y-15324484D01*
X16552158Y-15324484D02*
X16523587Y-15324484D01*
X16647396Y-15191150D02*
X16723587Y-15191150D01*
X16675968Y-15124484D02*
X16675968Y-15295912D01*
X16675968Y-15295912D02*
X16685492Y-15314960D01*
X16685492Y-15314960D02*
X16704539Y-15324484D01*
X16704539Y-15324484D02*
X16723587Y-15324484D01*
X16780730Y-15314960D02*
X16799777Y-15324484D01*
X16799777Y-15324484D02*
X16837873Y-15324484D01*
X16837873Y-15324484D02*
X16856920Y-15314960D01*
X16856920Y-15314960D02*
X16866444Y-15295912D01*
X16866444Y-15295912D02*
X16866444Y-15286388D01*
X16866444Y-15286388D02*
X16856920Y-15267341D01*
X16856920Y-15267341D02*
X16837873Y-15257817D01*
X16837873Y-15257817D02*
X16809301Y-15257817D01*
X16809301Y-15257817D02*
X16790254Y-15248293D01*
X16790254Y-15248293D02*
X16780730Y-15229246D01*
X16780730Y-15229246D02*
X16780730Y-15219722D01*
X16780730Y-15219722D02*
X16790254Y-15200674D01*
X16790254Y-15200674D02*
X16809301Y-15191150D01*
X16809301Y-15191150D02*
X16837873Y-15191150D01*
X16837873Y-15191150D02*
X16856920Y-15200674D01*
X16933111Y-15400674D02*
X16942635Y-15391150D01*
X16942635Y-15391150D02*
X16961682Y-15362579D01*
X16961682Y-15362579D02*
X16971206Y-15343531D01*
X16971206Y-15343531D02*
X16980730Y-15314960D01*
X16980730Y-15314960D02*
X16990254Y-15267341D01*
X16990254Y-15267341D02*
X16990254Y-15229246D01*
X16990254Y-15229246D02*
X16980730Y-15181627D01*
X16980730Y-15181627D02*
X16971206Y-15153055D01*
X16971206Y-15153055D02*
X16961682Y-15134008D01*
X16961682Y-15134008D02*
X16942635Y-15105436D01*
X16942635Y-15105436D02*
X16933111Y-15095912D01*
D10*
X10501500Y-15459500D02*
X10501500Y-15534500D01*
X10464000Y-15497000D02*
X10539000Y-15497000D01*
D11*
X10837872Y-15388484D02*
X10856920Y-15388484D01*
X10856920Y-15388484D02*
X10875967Y-15398008D01*
X10875967Y-15398008D02*
X10885491Y-15407531D01*
X10885491Y-15407531D02*
X10895015Y-15426579D01*
X10895015Y-15426579D02*
X10904539Y-15464674D01*
X10904539Y-15464674D02*
X10904539Y-15512293D01*
X10904539Y-15512293D02*
X10895015Y-15550388D01*
X10895015Y-15550388D02*
X10885491Y-15569436D01*
X10885491Y-15569436D02*
X10875967Y-15578960D01*
X10875967Y-15578960D02*
X10856920Y-15588484D01*
X10856920Y-15588484D02*
X10837872Y-15588484D01*
X10837872Y-15588484D02*
X10818824Y-15578960D01*
X10818824Y-15578960D02*
X10809301Y-15569436D01*
X10809301Y-15569436D02*
X10799777Y-15550388D01*
X10799777Y-15550388D02*
X10790253Y-15512293D01*
X10790253Y-15512293D02*
X10790253Y-15464674D01*
X10790253Y-15464674D02*
X10799777Y-15426579D01*
X10799777Y-15426579D02*
X10809301Y-15407531D01*
X10809301Y-15407531D02*
X10818824Y-15398008D01*
X10818824Y-15398008D02*
X10837872Y-15388484D01*
X10990253Y-15569436D02*
X10999777Y-15578960D01*
X10999777Y-15578960D02*
X10990253Y-15588484D01*
X10990253Y-15588484D02*
X10980729Y-15578960D01*
X10980729Y-15578960D02*
X10990253Y-15569436D01*
X10990253Y-15569436D02*
X10990253Y-15588484D01*
X11066444Y-15388484D02*
X11199777Y-15388484D01*
X11199777Y-15388484D02*
X11114063Y-15588484D01*
X11371205Y-15388484D02*
X11275967Y-15388484D01*
X11275967Y-15388484D02*
X11266443Y-15483722D01*
X11266443Y-15483722D02*
X11275967Y-15474198D01*
X11275967Y-15474198D02*
X11295015Y-15464674D01*
X11295015Y-15464674D02*
X11342634Y-15464674D01*
X11342634Y-15464674D02*
X11361682Y-15474198D01*
X11361682Y-15474198D02*
X11371205Y-15483722D01*
X11371205Y-15483722D02*
X11380729Y-15502769D01*
X11380729Y-15502769D02*
X11380729Y-15550388D01*
X11380729Y-15550388D02*
X11371205Y-15569436D01*
X11371205Y-15569436D02*
X11361682Y-15578960D01*
X11361682Y-15578960D02*
X11342634Y-15588484D01*
X11342634Y-15588484D02*
X11295015Y-15588484D01*
X11295015Y-15588484D02*
X11275967Y-15578960D01*
X11275967Y-15578960D02*
X11266443Y-15569436D01*
X11504539Y-15388484D02*
X11523586Y-15388484D01*
X11523586Y-15388484D02*
X11542634Y-15398008D01*
X11542634Y-15398008D02*
X11552158Y-15407531D01*
X11552158Y-15407531D02*
X11561682Y-15426579D01*
X11561682Y-15426579D02*
X11571205Y-15464674D01*
X11571205Y-15464674D02*
X11571205Y-15512293D01*
X11571205Y-15512293D02*
X11561682Y-15550388D01*
X11561682Y-15550388D02*
X11552158Y-15569436D01*
X11552158Y-15569436D02*
X11542634Y-15578960D01*
X11542634Y-15578960D02*
X11523586Y-15588484D01*
X11523586Y-15588484D02*
X11504539Y-15588484D01*
X11504539Y-15588484D02*
X11485491Y-15578960D01*
X11485491Y-15578960D02*
X11475967Y-15569436D01*
X11475967Y-15569436D02*
X11466443Y-15550388D01*
X11466443Y-15550388D02*
X11456920Y-15512293D01*
X11456920Y-15512293D02*
X11456920Y-15464674D01*
X11456920Y-15464674D02*
X11466443Y-15426579D01*
X11466443Y-15426579D02*
X11475967Y-15407531D01*
X11475967Y-15407531D02*
X11485491Y-15398008D01*
X11485491Y-15398008D02*
X11504539Y-15388484D01*
X11656920Y-15588484D02*
X11656920Y-15455150D01*
X11656920Y-15474198D02*
X11666443Y-15464674D01*
X11666443Y-15464674D02*
X11685491Y-15455150D01*
X11685491Y-15455150D02*
X11714063Y-15455150D01*
X11714063Y-15455150D02*
X11733110Y-15464674D01*
X11733110Y-15464674D02*
X11742634Y-15483722D01*
X11742634Y-15483722D02*
X11742634Y-15588484D01*
X11742634Y-15483722D02*
X11752158Y-15464674D01*
X11752158Y-15464674D02*
X11771205Y-15455150D01*
X11771205Y-15455150D02*
X11799777Y-15455150D01*
X11799777Y-15455150D02*
X11818824Y-15464674D01*
X11818824Y-15464674D02*
X11828348Y-15483722D01*
X11828348Y-15483722D02*
X11828348Y-15588484D01*
X11923586Y-15588484D02*
X11923586Y-15455150D01*
X11923586Y-15474198D02*
X11933110Y-15464674D01*
X11933110Y-15464674D02*
X11952158Y-15455150D01*
X11952158Y-15455150D02*
X11980729Y-15455150D01*
X11980729Y-15455150D02*
X11999777Y-15464674D01*
X11999777Y-15464674D02*
X12009301Y-15483722D01*
X12009301Y-15483722D02*
X12009301Y-15588484D01*
X12009301Y-15483722D02*
X12018824Y-15464674D01*
X12018824Y-15464674D02*
X12037872Y-15455150D01*
X12037872Y-15455150D02*
X12066443Y-15455150D01*
X12066443Y-15455150D02*
X12085491Y-15464674D01*
X12085491Y-15464674D02*
X12095015Y-15483722D01*
X12095015Y-15483722D02*
X12095015Y-15588484D01*
X12485491Y-15378960D02*
X12314063Y-15636103D01*
X12742634Y-15388484D02*
X12761682Y-15388484D01*
X12761682Y-15388484D02*
X12780729Y-15398008D01*
X12780729Y-15398008D02*
X12790253Y-15407531D01*
X12790253Y-15407531D02*
X12799777Y-15426579D01*
X12799777Y-15426579D02*
X12809301Y-15464674D01*
X12809301Y-15464674D02*
X12809301Y-15512293D01*
X12809301Y-15512293D02*
X12799777Y-15550388D01*
X12799777Y-15550388D02*
X12790253Y-15569436D01*
X12790253Y-15569436D02*
X12780729Y-15578960D01*
X12780729Y-15578960D02*
X12761682Y-15588484D01*
X12761682Y-15588484D02*
X12742634Y-15588484D01*
X12742634Y-15588484D02*
X12723586Y-15578960D01*
X12723586Y-15578960D02*
X12714063Y-15569436D01*
X12714063Y-15569436D02*
X12704539Y-15550388D01*
X12704539Y-15550388D02*
X12695015Y-15512293D01*
X12695015Y-15512293D02*
X12695015Y-15464674D01*
X12695015Y-15464674D02*
X12704539Y-15426579D01*
X12704539Y-15426579D02*
X12714063Y-15407531D01*
X12714063Y-15407531D02*
X12723586Y-15398008D01*
X12723586Y-15398008D02*
X12742634Y-15388484D01*
X12895015Y-15569436D02*
X12904539Y-15578960D01*
X12904539Y-15578960D02*
X12895015Y-15588484D01*
X12895015Y-15588484D02*
X12885491Y-15578960D01*
X12885491Y-15578960D02*
X12895015Y-15569436D01*
X12895015Y-15569436D02*
X12895015Y-15588484D01*
X13028348Y-15388484D02*
X13047396Y-15388484D01*
X13047396Y-15388484D02*
X13066444Y-15398008D01*
X13066444Y-15398008D02*
X13075967Y-15407531D01*
X13075967Y-15407531D02*
X13085491Y-15426579D01*
X13085491Y-15426579D02*
X13095015Y-15464674D01*
X13095015Y-15464674D02*
X13095015Y-15512293D01*
X13095015Y-15512293D02*
X13085491Y-15550388D01*
X13085491Y-15550388D02*
X13075967Y-15569436D01*
X13075967Y-15569436D02*
X13066444Y-15578960D01*
X13066444Y-15578960D02*
X13047396Y-15588484D01*
X13047396Y-15588484D02*
X13028348Y-15588484D01*
X13028348Y-15588484D02*
X13009301Y-15578960D01*
X13009301Y-15578960D02*
X12999777Y-15569436D01*
X12999777Y-15569436D02*
X12990253Y-15550388D01*
X12990253Y-15550388D02*
X12980729Y-15512293D01*
X12980729Y-15512293D02*
X12980729Y-15464674D01*
X12980729Y-15464674D02*
X12990253Y-15426579D01*
X12990253Y-15426579D02*
X12999777Y-15407531D01*
X12999777Y-15407531D02*
X13009301Y-15398008D01*
X13009301Y-15398008D02*
X13028348Y-15388484D01*
X13171206Y-15407531D02*
X13180729Y-15398008D01*
X13180729Y-15398008D02*
X13199777Y-15388484D01*
X13199777Y-15388484D02*
X13247396Y-15388484D01*
X13247396Y-15388484D02*
X13266444Y-15398008D01*
X13266444Y-15398008D02*
X13275967Y-15407531D01*
X13275967Y-15407531D02*
X13285491Y-15426579D01*
X13285491Y-15426579D02*
X13285491Y-15445627D01*
X13285491Y-15445627D02*
X13275967Y-15474198D01*
X13275967Y-15474198D02*
X13161682Y-15588484D01*
X13161682Y-15588484D02*
X13285491Y-15588484D01*
X13380729Y-15588484D02*
X13418825Y-15588484D01*
X13418825Y-15588484D02*
X13437872Y-15578960D01*
X13437872Y-15578960D02*
X13447396Y-15569436D01*
X13447396Y-15569436D02*
X13466444Y-15540865D01*
X13466444Y-15540865D02*
X13475967Y-15502769D01*
X13475967Y-15502769D02*
X13475967Y-15426579D01*
X13475967Y-15426579D02*
X13466444Y-15407531D01*
X13466444Y-15407531D02*
X13456920Y-15398008D01*
X13456920Y-15398008D02*
X13437872Y-15388484D01*
X13437872Y-15388484D02*
X13399777Y-15388484D01*
X13399777Y-15388484D02*
X13380729Y-15398008D01*
X13380729Y-15398008D02*
X13371206Y-15407531D01*
X13371206Y-15407531D02*
X13361682Y-15426579D01*
X13361682Y-15426579D02*
X13361682Y-15474198D01*
X13361682Y-15474198D02*
X13371206Y-15493246D01*
X13371206Y-15493246D02*
X13380729Y-15502769D01*
X13380729Y-15502769D02*
X13399777Y-15512293D01*
X13399777Y-15512293D02*
X13437872Y-15512293D01*
X13437872Y-15512293D02*
X13456920Y-15502769D01*
X13456920Y-15502769D02*
X13466444Y-15493246D01*
X13466444Y-15493246D02*
X13475967Y-15474198D01*
X13656920Y-15388484D02*
X13561682Y-15388484D01*
X13561682Y-15388484D02*
X13552158Y-15483722D01*
X13552158Y-15483722D02*
X13561682Y-15474198D01*
X13561682Y-15474198D02*
X13580729Y-15464674D01*
X13580729Y-15464674D02*
X13628348Y-15464674D01*
X13628348Y-15464674D02*
X13647396Y-15474198D01*
X13647396Y-15474198D02*
X13656920Y-15483722D01*
X13656920Y-15483722D02*
X13666444Y-15502769D01*
X13666444Y-15502769D02*
X13666444Y-15550388D01*
X13666444Y-15550388D02*
X13656920Y-15569436D01*
X13656920Y-15569436D02*
X13647396Y-15578960D01*
X13647396Y-15578960D02*
X13628348Y-15588484D01*
X13628348Y-15588484D02*
X13580729Y-15588484D01*
X13580729Y-15588484D02*
X13561682Y-15578960D01*
X13561682Y-15578960D02*
X13552158Y-15569436D01*
X13742634Y-15388484D02*
X13742634Y-15426579D01*
X13818825Y-15388484D02*
X13818825Y-15426579D01*
X14114063Y-15664674D02*
X14104539Y-15655150D01*
X14104539Y-15655150D02*
X14085491Y-15626579D01*
X14085491Y-15626579D02*
X14075968Y-15607531D01*
X14075968Y-15607531D02*
X14066444Y-15578960D01*
X14066444Y-15578960D02*
X14056920Y-15531341D01*
X14056920Y-15531341D02*
X14056920Y-15493246D01*
X14056920Y-15493246D02*
X14066444Y-15445627D01*
X14066444Y-15445627D02*
X14075968Y-15417055D01*
X14075968Y-15417055D02*
X14085491Y-15398008D01*
X14085491Y-15398008D02*
X14104539Y-15369436D01*
X14104539Y-15369436D02*
X14114063Y-15359912D01*
X14199777Y-15588484D02*
X14237872Y-15588484D01*
X14237872Y-15588484D02*
X14256920Y-15578960D01*
X14256920Y-15578960D02*
X14266444Y-15569436D01*
X14266444Y-15569436D02*
X14285491Y-15540865D01*
X14285491Y-15540865D02*
X14295015Y-15502769D01*
X14295015Y-15502769D02*
X14295015Y-15426579D01*
X14295015Y-15426579D02*
X14285491Y-15407531D01*
X14285491Y-15407531D02*
X14275968Y-15398008D01*
X14275968Y-15398008D02*
X14256920Y-15388484D01*
X14256920Y-15388484D02*
X14218825Y-15388484D01*
X14218825Y-15388484D02*
X14199777Y-15398008D01*
X14199777Y-15398008D02*
X14190253Y-15407531D01*
X14190253Y-15407531D02*
X14180729Y-15426579D01*
X14180729Y-15426579D02*
X14180729Y-15474198D01*
X14180729Y-15474198D02*
X14190253Y-15493246D01*
X14190253Y-15493246D02*
X14199777Y-15502769D01*
X14199777Y-15502769D02*
X14218825Y-15512293D01*
X14218825Y-15512293D02*
X14256920Y-15512293D01*
X14256920Y-15512293D02*
X14275968Y-15502769D01*
X14275968Y-15502769D02*
X14285491Y-15493246D01*
X14285491Y-15493246D02*
X14295015Y-15474198D01*
X14533110Y-15588484D02*
X14533110Y-15388484D01*
X14618825Y-15588484D02*
X14618825Y-15483722D01*
X14618825Y-15483722D02*
X14609301Y-15464674D01*
X14609301Y-15464674D02*
X14590253Y-15455150D01*
X14590253Y-15455150D02*
X14561682Y-15455150D01*
X14561682Y-15455150D02*
X14542634Y-15464674D01*
X14542634Y-15464674D02*
X14533110Y-15474198D01*
X14742634Y-15588484D02*
X14723587Y-15578960D01*
X14723587Y-15578960D02*
X14714063Y-15569436D01*
X14714063Y-15569436D02*
X14704539Y-15550388D01*
X14704539Y-15550388D02*
X14704539Y-15493246D01*
X14704539Y-15493246D02*
X14714063Y-15474198D01*
X14714063Y-15474198D02*
X14723587Y-15464674D01*
X14723587Y-15464674D02*
X14742634Y-15455150D01*
X14742634Y-15455150D02*
X14771206Y-15455150D01*
X14771206Y-15455150D02*
X14790253Y-15464674D01*
X14790253Y-15464674D02*
X14799777Y-15474198D01*
X14799777Y-15474198D02*
X14809301Y-15493246D01*
X14809301Y-15493246D02*
X14809301Y-15550388D01*
X14809301Y-15550388D02*
X14799777Y-15569436D01*
X14799777Y-15569436D02*
X14790253Y-15578960D01*
X14790253Y-15578960D02*
X14771206Y-15588484D01*
X14771206Y-15588484D02*
X14742634Y-15588484D01*
X14923587Y-15588484D02*
X14904539Y-15578960D01*
X14904539Y-15578960D02*
X14895015Y-15559912D01*
X14895015Y-15559912D02*
X14895015Y-15388484D01*
X15075968Y-15578960D02*
X15056920Y-15588484D01*
X15056920Y-15588484D02*
X15018825Y-15588484D01*
X15018825Y-15588484D02*
X14999777Y-15578960D01*
X14999777Y-15578960D02*
X14990253Y-15559912D01*
X14990253Y-15559912D02*
X14990253Y-15483722D01*
X14990253Y-15483722D02*
X14999777Y-15464674D01*
X14999777Y-15464674D02*
X15018825Y-15455150D01*
X15018825Y-15455150D02*
X15056920Y-15455150D01*
X15056920Y-15455150D02*
X15075968Y-15464674D01*
X15075968Y-15464674D02*
X15085491Y-15483722D01*
X15085491Y-15483722D02*
X15085491Y-15502769D01*
X15085491Y-15502769D02*
X14990253Y-15521817D01*
X15161682Y-15578960D02*
X15180730Y-15588484D01*
X15180730Y-15588484D02*
X15218825Y-15588484D01*
X15218825Y-15588484D02*
X15237872Y-15578960D01*
X15237872Y-15578960D02*
X15247396Y-15559912D01*
X15247396Y-15559912D02*
X15247396Y-15550388D01*
X15247396Y-15550388D02*
X15237872Y-15531341D01*
X15237872Y-15531341D02*
X15218825Y-15521817D01*
X15218825Y-15521817D02*
X15190253Y-15521817D01*
X15190253Y-15521817D02*
X15171206Y-15512293D01*
X15171206Y-15512293D02*
X15161682Y-15493246D01*
X15161682Y-15493246D02*
X15161682Y-15483722D01*
X15161682Y-15483722D02*
X15171206Y-15464674D01*
X15171206Y-15464674D02*
X15190253Y-15455150D01*
X15190253Y-15455150D02*
X15218825Y-15455150D01*
X15218825Y-15455150D02*
X15237872Y-15464674D01*
X15314063Y-15664674D02*
X15323587Y-15655150D01*
X15323587Y-15655150D02*
X15342634Y-15626579D01*
X15342634Y-15626579D02*
X15352158Y-15607531D01*
X15352158Y-15607531D02*
X15361682Y-15578960D01*
X15361682Y-15578960D02*
X15371206Y-15531341D01*
X15371206Y-15531341D02*
X15371206Y-15493246D01*
X15371206Y-15493246D02*
X15361682Y-15445627D01*
X15361682Y-15445627D02*
X15352158Y-15417055D01*
X15352158Y-15417055D02*
X15342634Y-15398008D01*
X15342634Y-15398008D02*
X15323587Y-15369436D01*
X15323587Y-15369436D02*
X15314063Y-15359912D01*
D10*
X10527285Y-15789284D02*
X10527285Y-15732715D01*
X10470716Y-15732715D01*
X10470716Y-15789284D01*
X10527285Y-15789284D01*
D11*
X10837872Y-15652484D02*
X10856920Y-15652484D01*
X10856920Y-15652484D02*
X10875967Y-15662008D01*
X10875967Y-15662008D02*
X10885491Y-15671531D01*
X10885491Y-15671531D02*
X10895015Y-15690579D01*
X10895015Y-15690579D02*
X10904539Y-15728674D01*
X10904539Y-15728674D02*
X10904539Y-15776293D01*
X10904539Y-15776293D02*
X10895015Y-15814388D01*
X10895015Y-15814388D02*
X10885491Y-15833436D01*
X10885491Y-15833436D02*
X10875967Y-15842960D01*
X10875967Y-15842960D02*
X10856920Y-15852484D01*
X10856920Y-15852484D02*
X10837872Y-15852484D01*
X10837872Y-15852484D02*
X10818824Y-15842960D01*
X10818824Y-15842960D02*
X10809301Y-15833436D01*
X10809301Y-15833436D02*
X10799777Y-15814388D01*
X10799777Y-15814388D02*
X10790253Y-15776293D01*
X10790253Y-15776293D02*
X10790253Y-15728674D01*
X10790253Y-15728674D02*
X10799777Y-15690579D01*
X10799777Y-15690579D02*
X10809301Y-15671531D01*
X10809301Y-15671531D02*
X10818824Y-15662008D01*
X10818824Y-15662008D02*
X10837872Y-15652484D01*
X10990253Y-15833436D02*
X10999777Y-15842960D01*
X10999777Y-15842960D02*
X10990253Y-15852484D01*
X10990253Y-15852484D02*
X10980729Y-15842960D01*
X10980729Y-15842960D02*
X10990253Y-15833436D01*
X10990253Y-15833436D02*
X10990253Y-15852484D01*
X11114063Y-15738198D02*
X11095015Y-15728674D01*
X11095015Y-15728674D02*
X11085491Y-15719150D01*
X11085491Y-15719150D02*
X11075967Y-15700103D01*
X11075967Y-15700103D02*
X11075967Y-15690579D01*
X11075967Y-15690579D02*
X11085491Y-15671531D01*
X11085491Y-15671531D02*
X11095015Y-15662008D01*
X11095015Y-15662008D02*
X11114063Y-15652484D01*
X11114063Y-15652484D02*
X11152158Y-15652484D01*
X11152158Y-15652484D02*
X11171205Y-15662008D01*
X11171205Y-15662008D02*
X11180729Y-15671531D01*
X11180729Y-15671531D02*
X11190253Y-15690579D01*
X11190253Y-15690579D02*
X11190253Y-15700103D01*
X11190253Y-15700103D02*
X11180729Y-15719150D01*
X11180729Y-15719150D02*
X11171205Y-15728674D01*
X11171205Y-15728674D02*
X11152158Y-15738198D01*
X11152158Y-15738198D02*
X11114063Y-15738198D01*
X11114063Y-15738198D02*
X11095015Y-15747722D01*
X11095015Y-15747722D02*
X11085491Y-15757246D01*
X11085491Y-15757246D02*
X11075967Y-15776293D01*
X11075967Y-15776293D02*
X11075967Y-15814388D01*
X11075967Y-15814388D02*
X11085491Y-15833436D01*
X11085491Y-15833436D02*
X11095015Y-15842960D01*
X11095015Y-15842960D02*
X11114063Y-15852484D01*
X11114063Y-15852484D02*
X11152158Y-15852484D01*
X11152158Y-15852484D02*
X11171205Y-15842960D01*
X11171205Y-15842960D02*
X11180729Y-15833436D01*
X11180729Y-15833436D02*
X11190253Y-15814388D01*
X11190253Y-15814388D02*
X11190253Y-15776293D01*
X11190253Y-15776293D02*
X11180729Y-15757246D01*
X11180729Y-15757246D02*
X11171205Y-15747722D01*
X11171205Y-15747722D02*
X11152158Y-15738198D01*
X11314062Y-15652484D02*
X11333110Y-15652484D01*
X11333110Y-15652484D02*
X11352158Y-15662008D01*
X11352158Y-15662008D02*
X11361682Y-15671531D01*
X11361682Y-15671531D02*
X11371205Y-15690579D01*
X11371205Y-15690579D02*
X11380729Y-15728674D01*
X11380729Y-15728674D02*
X11380729Y-15776293D01*
X11380729Y-15776293D02*
X11371205Y-15814388D01*
X11371205Y-15814388D02*
X11361682Y-15833436D01*
X11361682Y-15833436D02*
X11352158Y-15842960D01*
X11352158Y-15842960D02*
X11333110Y-15852484D01*
X11333110Y-15852484D02*
X11314062Y-15852484D01*
X11314062Y-15852484D02*
X11295015Y-15842960D01*
X11295015Y-15842960D02*
X11285491Y-15833436D01*
X11285491Y-15833436D02*
X11275967Y-15814388D01*
X11275967Y-15814388D02*
X11266443Y-15776293D01*
X11266443Y-15776293D02*
X11266443Y-15728674D01*
X11266443Y-15728674D02*
X11275967Y-15690579D01*
X11275967Y-15690579D02*
X11285491Y-15671531D01*
X11285491Y-15671531D02*
X11295015Y-15662008D01*
X11295015Y-15662008D02*
X11314062Y-15652484D01*
X11504539Y-15652484D02*
X11523586Y-15652484D01*
X11523586Y-15652484D02*
X11542634Y-15662008D01*
X11542634Y-15662008D02*
X11552158Y-15671531D01*
X11552158Y-15671531D02*
X11561682Y-15690579D01*
X11561682Y-15690579D02*
X11571205Y-15728674D01*
X11571205Y-15728674D02*
X11571205Y-15776293D01*
X11571205Y-15776293D02*
X11561682Y-15814388D01*
X11561682Y-15814388D02*
X11552158Y-15833436D01*
X11552158Y-15833436D02*
X11542634Y-15842960D01*
X11542634Y-15842960D02*
X11523586Y-15852484D01*
X11523586Y-15852484D02*
X11504539Y-15852484D01*
X11504539Y-15852484D02*
X11485491Y-15842960D01*
X11485491Y-15842960D02*
X11475967Y-15833436D01*
X11475967Y-15833436D02*
X11466443Y-15814388D01*
X11466443Y-15814388D02*
X11456920Y-15776293D01*
X11456920Y-15776293D02*
X11456920Y-15728674D01*
X11456920Y-15728674D02*
X11466443Y-15690579D01*
X11466443Y-15690579D02*
X11475967Y-15671531D01*
X11475967Y-15671531D02*
X11485491Y-15662008D01*
X11485491Y-15662008D02*
X11504539Y-15652484D01*
X11656920Y-15852484D02*
X11656920Y-15719150D01*
X11656920Y-15738198D02*
X11666443Y-15728674D01*
X11666443Y-15728674D02*
X11685491Y-15719150D01*
X11685491Y-15719150D02*
X11714063Y-15719150D01*
X11714063Y-15719150D02*
X11733110Y-15728674D01*
X11733110Y-15728674D02*
X11742634Y-15747722D01*
X11742634Y-15747722D02*
X11742634Y-15852484D01*
X11742634Y-15747722D02*
X11752158Y-15728674D01*
X11752158Y-15728674D02*
X11771205Y-15719150D01*
X11771205Y-15719150D02*
X11799777Y-15719150D01*
X11799777Y-15719150D02*
X11818824Y-15728674D01*
X11818824Y-15728674D02*
X11828348Y-15747722D01*
X11828348Y-15747722D02*
X11828348Y-15852484D01*
X11923586Y-15852484D02*
X11923586Y-15719150D01*
X11923586Y-15738198D02*
X11933110Y-15728674D01*
X11933110Y-15728674D02*
X11952158Y-15719150D01*
X11952158Y-15719150D02*
X11980729Y-15719150D01*
X11980729Y-15719150D02*
X11999777Y-15728674D01*
X11999777Y-15728674D02*
X12009301Y-15747722D01*
X12009301Y-15747722D02*
X12009301Y-15852484D01*
X12009301Y-15747722D02*
X12018824Y-15728674D01*
X12018824Y-15728674D02*
X12037872Y-15719150D01*
X12037872Y-15719150D02*
X12066443Y-15719150D01*
X12066443Y-15719150D02*
X12085491Y-15728674D01*
X12085491Y-15728674D02*
X12095015Y-15747722D01*
X12095015Y-15747722D02*
X12095015Y-15852484D01*
X12485491Y-15642960D02*
X12314063Y-15900103D01*
X12742634Y-15652484D02*
X12761682Y-15652484D01*
X12761682Y-15652484D02*
X12780729Y-15662008D01*
X12780729Y-15662008D02*
X12790253Y-15671531D01*
X12790253Y-15671531D02*
X12799777Y-15690579D01*
X12799777Y-15690579D02*
X12809301Y-15728674D01*
X12809301Y-15728674D02*
X12809301Y-15776293D01*
X12809301Y-15776293D02*
X12799777Y-15814388D01*
X12799777Y-15814388D02*
X12790253Y-15833436D01*
X12790253Y-15833436D02*
X12780729Y-15842960D01*
X12780729Y-15842960D02*
X12761682Y-15852484D01*
X12761682Y-15852484D02*
X12742634Y-15852484D01*
X12742634Y-15852484D02*
X12723586Y-15842960D01*
X12723586Y-15842960D02*
X12714063Y-15833436D01*
X12714063Y-15833436D02*
X12704539Y-15814388D01*
X12704539Y-15814388D02*
X12695015Y-15776293D01*
X12695015Y-15776293D02*
X12695015Y-15728674D01*
X12695015Y-15728674D02*
X12704539Y-15690579D01*
X12704539Y-15690579D02*
X12714063Y-15671531D01*
X12714063Y-15671531D02*
X12723586Y-15662008D01*
X12723586Y-15662008D02*
X12742634Y-15652484D01*
X12895015Y-15833436D02*
X12904539Y-15842960D01*
X12904539Y-15842960D02*
X12895015Y-15852484D01*
X12895015Y-15852484D02*
X12885491Y-15842960D01*
X12885491Y-15842960D02*
X12895015Y-15833436D01*
X12895015Y-15833436D02*
X12895015Y-15852484D01*
X13028348Y-15652484D02*
X13047396Y-15652484D01*
X13047396Y-15652484D02*
X13066444Y-15662008D01*
X13066444Y-15662008D02*
X13075967Y-15671531D01*
X13075967Y-15671531D02*
X13085491Y-15690579D01*
X13085491Y-15690579D02*
X13095015Y-15728674D01*
X13095015Y-15728674D02*
X13095015Y-15776293D01*
X13095015Y-15776293D02*
X13085491Y-15814388D01*
X13085491Y-15814388D02*
X13075967Y-15833436D01*
X13075967Y-15833436D02*
X13066444Y-15842960D01*
X13066444Y-15842960D02*
X13047396Y-15852484D01*
X13047396Y-15852484D02*
X13028348Y-15852484D01*
X13028348Y-15852484D02*
X13009301Y-15842960D01*
X13009301Y-15842960D02*
X12999777Y-15833436D01*
X12999777Y-15833436D02*
X12990253Y-15814388D01*
X12990253Y-15814388D02*
X12980729Y-15776293D01*
X12980729Y-15776293D02*
X12980729Y-15728674D01*
X12980729Y-15728674D02*
X12990253Y-15690579D01*
X12990253Y-15690579D02*
X12999777Y-15671531D01*
X12999777Y-15671531D02*
X13009301Y-15662008D01*
X13009301Y-15662008D02*
X13028348Y-15652484D01*
X13161682Y-15652484D02*
X13285491Y-15652484D01*
X13285491Y-15652484D02*
X13218825Y-15728674D01*
X13218825Y-15728674D02*
X13247396Y-15728674D01*
X13247396Y-15728674D02*
X13266444Y-15738198D01*
X13266444Y-15738198D02*
X13275967Y-15747722D01*
X13275967Y-15747722D02*
X13285491Y-15766769D01*
X13285491Y-15766769D02*
X13285491Y-15814388D01*
X13285491Y-15814388D02*
X13275967Y-15833436D01*
X13275967Y-15833436D02*
X13266444Y-15842960D01*
X13266444Y-15842960D02*
X13247396Y-15852484D01*
X13247396Y-15852484D02*
X13190253Y-15852484D01*
X13190253Y-15852484D02*
X13171206Y-15842960D01*
X13171206Y-15842960D02*
X13161682Y-15833436D01*
X13475967Y-15852484D02*
X13361682Y-15852484D01*
X13418825Y-15852484D02*
X13418825Y-15652484D01*
X13418825Y-15652484D02*
X13399777Y-15681055D01*
X13399777Y-15681055D02*
X13380729Y-15700103D01*
X13380729Y-15700103D02*
X13361682Y-15709627D01*
X13656920Y-15652484D02*
X13561682Y-15652484D01*
X13561682Y-15652484D02*
X13552158Y-15747722D01*
X13552158Y-15747722D02*
X13561682Y-15738198D01*
X13561682Y-15738198D02*
X13580729Y-15728674D01*
X13580729Y-15728674D02*
X13628348Y-15728674D01*
X13628348Y-15728674D02*
X13647396Y-15738198D01*
X13647396Y-15738198D02*
X13656920Y-15747722D01*
X13656920Y-15747722D02*
X13666444Y-15766769D01*
X13666444Y-15766769D02*
X13666444Y-15814388D01*
X13666444Y-15814388D02*
X13656920Y-15833436D01*
X13656920Y-15833436D02*
X13647396Y-15842960D01*
X13647396Y-15842960D02*
X13628348Y-15852484D01*
X13628348Y-15852484D02*
X13580729Y-15852484D01*
X13580729Y-15852484D02*
X13561682Y-15842960D01*
X13561682Y-15842960D02*
X13552158Y-15833436D01*
X13742634Y-15652484D02*
X13742634Y-15690579D01*
X13818825Y-15652484D02*
X13818825Y-15690579D01*
X14114063Y-15928674D02*
X14104539Y-15919150D01*
X14104539Y-15919150D02*
X14085491Y-15890579D01*
X14085491Y-15890579D02*
X14075968Y-15871531D01*
X14075968Y-15871531D02*
X14066444Y-15842960D01*
X14066444Y-15842960D02*
X14056920Y-15795341D01*
X14056920Y-15795341D02*
X14056920Y-15757246D01*
X14056920Y-15757246D02*
X14066444Y-15709627D01*
X14066444Y-15709627D02*
X14075968Y-15681055D01*
X14075968Y-15681055D02*
X14085491Y-15662008D01*
X14085491Y-15662008D02*
X14104539Y-15633436D01*
X14104539Y-15633436D02*
X14114063Y-15623912D01*
X14171206Y-15652484D02*
X14304539Y-15652484D01*
X14304539Y-15652484D02*
X14218825Y-15852484D01*
X14466444Y-15652484D02*
X14428348Y-15652484D01*
X14428348Y-15652484D02*
X14409301Y-15662008D01*
X14409301Y-15662008D02*
X14399777Y-15671531D01*
X14399777Y-15671531D02*
X14380729Y-15700103D01*
X14380729Y-15700103D02*
X14371206Y-15738198D01*
X14371206Y-15738198D02*
X14371206Y-15814388D01*
X14371206Y-15814388D02*
X14380729Y-15833436D01*
X14380729Y-15833436D02*
X14390253Y-15842960D01*
X14390253Y-15842960D02*
X14409301Y-15852484D01*
X14409301Y-15852484D02*
X14447396Y-15852484D01*
X14447396Y-15852484D02*
X14466444Y-15842960D01*
X14466444Y-15842960D02*
X14475968Y-15833436D01*
X14475968Y-15833436D02*
X14485491Y-15814388D01*
X14485491Y-15814388D02*
X14485491Y-15766769D01*
X14485491Y-15766769D02*
X14475968Y-15747722D01*
X14475968Y-15747722D02*
X14466444Y-15738198D01*
X14466444Y-15738198D02*
X14447396Y-15728674D01*
X14447396Y-15728674D02*
X14409301Y-15728674D01*
X14409301Y-15728674D02*
X14390253Y-15738198D01*
X14390253Y-15738198D02*
X14380729Y-15747722D01*
X14380729Y-15747722D02*
X14371206Y-15766769D01*
X14723587Y-15852484D02*
X14723587Y-15652484D01*
X14809301Y-15852484D02*
X14809301Y-15747722D01*
X14809301Y-15747722D02*
X14799777Y-15728674D01*
X14799777Y-15728674D02*
X14780730Y-15719150D01*
X14780730Y-15719150D02*
X14752158Y-15719150D01*
X14752158Y-15719150D02*
X14733110Y-15728674D01*
X14733110Y-15728674D02*
X14723587Y-15738198D01*
X14933110Y-15852484D02*
X14914063Y-15842960D01*
X14914063Y-15842960D02*
X14904539Y-15833436D01*
X14904539Y-15833436D02*
X14895015Y-15814388D01*
X14895015Y-15814388D02*
X14895015Y-15757246D01*
X14895015Y-15757246D02*
X14904539Y-15738198D01*
X14904539Y-15738198D02*
X14914063Y-15728674D01*
X14914063Y-15728674D02*
X14933110Y-15719150D01*
X14933110Y-15719150D02*
X14961682Y-15719150D01*
X14961682Y-15719150D02*
X14980730Y-15728674D01*
X14980730Y-15728674D02*
X14990253Y-15738198D01*
X14990253Y-15738198D02*
X14999777Y-15757246D01*
X14999777Y-15757246D02*
X14999777Y-15814388D01*
X14999777Y-15814388D02*
X14990253Y-15833436D01*
X14990253Y-15833436D02*
X14980730Y-15842960D01*
X14980730Y-15842960D02*
X14961682Y-15852484D01*
X14961682Y-15852484D02*
X14933110Y-15852484D01*
X15114063Y-15852484D02*
X15095015Y-15842960D01*
X15095015Y-15842960D02*
X15085491Y-15823912D01*
X15085491Y-15823912D02*
X15085491Y-15652484D01*
X15266444Y-15842960D02*
X15247396Y-15852484D01*
X15247396Y-15852484D02*
X15209301Y-15852484D01*
X15209301Y-15852484D02*
X15190253Y-15842960D01*
X15190253Y-15842960D02*
X15180730Y-15823912D01*
X15180730Y-15823912D02*
X15180730Y-15747722D01*
X15180730Y-15747722D02*
X15190253Y-15728674D01*
X15190253Y-15728674D02*
X15209301Y-15719150D01*
X15209301Y-15719150D02*
X15247396Y-15719150D01*
X15247396Y-15719150D02*
X15266444Y-15728674D01*
X15266444Y-15728674D02*
X15275968Y-15747722D01*
X15275968Y-15747722D02*
X15275968Y-15766769D01*
X15275968Y-15766769D02*
X15180730Y-15785817D01*
X15352158Y-15842960D02*
X15371206Y-15852484D01*
X15371206Y-15852484D02*
X15409301Y-15852484D01*
X15409301Y-15852484D02*
X15428349Y-15842960D01*
X15428349Y-15842960D02*
X15437872Y-15823912D01*
X15437872Y-15823912D02*
X15437872Y-15814388D01*
X15437872Y-15814388D02*
X15428349Y-15795341D01*
X15428349Y-15795341D02*
X15409301Y-15785817D01*
X15409301Y-15785817D02*
X15380730Y-15785817D01*
X15380730Y-15785817D02*
X15361682Y-15776293D01*
X15361682Y-15776293D02*
X15352158Y-15757246D01*
X15352158Y-15757246D02*
X15352158Y-15747722D01*
X15352158Y-15747722D02*
X15361682Y-15728674D01*
X15361682Y-15728674D02*
X15380730Y-15719150D01*
X15380730Y-15719150D02*
X15409301Y-15719150D01*
X15409301Y-15719150D02*
X15428349Y-15728674D01*
X15504539Y-15928674D02*
X15514063Y-15919150D01*
X15514063Y-15919150D02*
X15533111Y-15890579D01*
X15533111Y-15890579D02*
X15542634Y-15871531D01*
X15542634Y-15871531D02*
X15552158Y-15842960D01*
X15552158Y-15842960D02*
X15561682Y-15795341D01*
X15561682Y-15795341D02*
X15561682Y-15757246D01*
X15561682Y-15757246D02*
X15552158Y-15709627D01*
X15552158Y-15709627D02*
X15542634Y-15681055D01*
X15542634Y-15681055D02*
X15533111Y-15662008D01*
X15533111Y-15662008D02*
X15514063Y-15633436D01*
X15514063Y-15633436D02*
X15504539Y-15623912D01*
D10*
X10494000Y-16070000D02*
X10539000Y-16025000D01*
X10494000Y-15980000D01*
X10449000Y-16025000D01*
X10494000Y-16070000D01*
D11*
X10837872Y-15916484D02*
X10856920Y-15916484D01*
X10856920Y-15916484D02*
X10875967Y-15926008D01*
X10875967Y-15926008D02*
X10885491Y-15935531D01*
X10885491Y-15935531D02*
X10895015Y-15954579D01*
X10895015Y-15954579D02*
X10904539Y-15992674D01*
X10904539Y-15992674D02*
X10904539Y-16040293D01*
X10904539Y-16040293D02*
X10895015Y-16078388D01*
X10895015Y-16078388D02*
X10885491Y-16097436D01*
X10885491Y-16097436D02*
X10875967Y-16106960D01*
X10875967Y-16106960D02*
X10856920Y-16116484D01*
X10856920Y-16116484D02*
X10837872Y-16116484D01*
X10837872Y-16116484D02*
X10818824Y-16106960D01*
X10818824Y-16106960D02*
X10809301Y-16097436D01*
X10809301Y-16097436D02*
X10799777Y-16078388D01*
X10799777Y-16078388D02*
X10790253Y-16040293D01*
X10790253Y-16040293D02*
X10790253Y-15992674D01*
X10790253Y-15992674D02*
X10799777Y-15954579D01*
X10799777Y-15954579D02*
X10809301Y-15935531D01*
X10809301Y-15935531D02*
X10818824Y-15926008D01*
X10818824Y-15926008D02*
X10837872Y-15916484D01*
X10990253Y-16097436D02*
X10999777Y-16106960D01*
X10999777Y-16106960D02*
X10990253Y-16116484D01*
X10990253Y-16116484D02*
X10980729Y-16106960D01*
X10980729Y-16106960D02*
X10990253Y-16097436D01*
X10990253Y-16097436D02*
X10990253Y-16116484D01*
X11095015Y-16116484D02*
X11133110Y-16116484D01*
X11133110Y-16116484D02*
X11152158Y-16106960D01*
X11152158Y-16106960D02*
X11161682Y-16097436D01*
X11161682Y-16097436D02*
X11180729Y-16068865D01*
X11180729Y-16068865D02*
X11190253Y-16030769D01*
X11190253Y-16030769D02*
X11190253Y-15954579D01*
X11190253Y-15954579D02*
X11180729Y-15935531D01*
X11180729Y-15935531D02*
X11171205Y-15926008D01*
X11171205Y-15926008D02*
X11152158Y-15916484D01*
X11152158Y-15916484D02*
X11114063Y-15916484D01*
X11114063Y-15916484D02*
X11095015Y-15926008D01*
X11095015Y-15926008D02*
X11085491Y-15935531D01*
X11085491Y-15935531D02*
X11075967Y-15954579D01*
X11075967Y-15954579D02*
X11075967Y-16002198D01*
X11075967Y-16002198D02*
X11085491Y-16021246D01*
X11085491Y-16021246D02*
X11095015Y-16030769D01*
X11095015Y-16030769D02*
X11114063Y-16040293D01*
X11114063Y-16040293D02*
X11152158Y-16040293D01*
X11152158Y-16040293D02*
X11171205Y-16030769D01*
X11171205Y-16030769D02*
X11180729Y-16021246D01*
X11180729Y-16021246D02*
X11190253Y-16002198D01*
X11314062Y-15916484D02*
X11333110Y-15916484D01*
X11333110Y-15916484D02*
X11352158Y-15926008D01*
X11352158Y-15926008D02*
X11361682Y-15935531D01*
X11361682Y-15935531D02*
X11371205Y-15954579D01*
X11371205Y-15954579D02*
X11380729Y-15992674D01*
X11380729Y-15992674D02*
X11380729Y-16040293D01*
X11380729Y-16040293D02*
X11371205Y-16078388D01*
X11371205Y-16078388D02*
X11361682Y-16097436D01*
X11361682Y-16097436D02*
X11352158Y-16106960D01*
X11352158Y-16106960D02*
X11333110Y-16116484D01*
X11333110Y-16116484D02*
X11314062Y-16116484D01*
X11314062Y-16116484D02*
X11295015Y-16106960D01*
X11295015Y-16106960D02*
X11285491Y-16097436D01*
X11285491Y-16097436D02*
X11275967Y-16078388D01*
X11275967Y-16078388D02*
X11266443Y-16040293D01*
X11266443Y-16040293D02*
X11266443Y-15992674D01*
X11266443Y-15992674D02*
X11275967Y-15954579D01*
X11275967Y-15954579D02*
X11285491Y-15935531D01*
X11285491Y-15935531D02*
X11295015Y-15926008D01*
X11295015Y-15926008D02*
X11314062Y-15916484D01*
X11504539Y-15916484D02*
X11523586Y-15916484D01*
X11523586Y-15916484D02*
X11542634Y-15926008D01*
X11542634Y-15926008D02*
X11552158Y-15935531D01*
X11552158Y-15935531D02*
X11561682Y-15954579D01*
X11561682Y-15954579D02*
X11571205Y-15992674D01*
X11571205Y-15992674D02*
X11571205Y-16040293D01*
X11571205Y-16040293D02*
X11561682Y-16078388D01*
X11561682Y-16078388D02*
X11552158Y-16097436D01*
X11552158Y-16097436D02*
X11542634Y-16106960D01*
X11542634Y-16106960D02*
X11523586Y-16116484D01*
X11523586Y-16116484D02*
X11504539Y-16116484D01*
X11504539Y-16116484D02*
X11485491Y-16106960D01*
X11485491Y-16106960D02*
X11475967Y-16097436D01*
X11475967Y-16097436D02*
X11466443Y-16078388D01*
X11466443Y-16078388D02*
X11456920Y-16040293D01*
X11456920Y-16040293D02*
X11456920Y-15992674D01*
X11456920Y-15992674D02*
X11466443Y-15954579D01*
X11466443Y-15954579D02*
X11475967Y-15935531D01*
X11475967Y-15935531D02*
X11485491Y-15926008D01*
X11485491Y-15926008D02*
X11504539Y-15916484D01*
X11656920Y-16116484D02*
X11656920Y-15983150D01*
X11656920Y-16002198D02*
X11666443Y-15992674D01*
X11666443Y-15992674D02*
X11685491Y-15983150D01*
X11685491Y-15983150D02*
X11714063Y-15983150D01*
X11714063Y-15983150D02*
X11733110Y-15992674D01*
X11733110Y-15992674D02*
X11742634Y-16011722D01*
X11742634Y-16011722D02*
X11742634Y-16116484D01*
X11742634Y-16011722D02*
X11752158Y-15992674D01*
X11752158Y-15992674D02*
X11771205Y-15983150D01*
X11771205Y-15983150D02*
X11799777Y-15983150D01*
X11799777Y-15983150D02*
X11818824Y-15992674D01*
X11818824Y-15992674D02*
X11828348Y-16011722D01*
X11828348Y-16011722D02*
X11828348Y-16116484D01*
X11923586Y-16116484D02*
X11923586Y-15983150D01*
X11923586Y-16002198D02*
X11933110Y-15992674D01*
X11933110Y-15992674D02*
X11952158Y-15983150D01*
X11952158Y-15983150D02*
X11980729Y-15983150D01*
X11980729Y-15983150D02*
X11999777Y-15992674D01*
X11999777Y-15992674D02*
X12009301Y-16011722D01*
X12009301Y-16011722D02*
X12009301Y-16116484D01*
X12009301Y-16011722D02*
X12018824Y-15992674D01*
X12018824Y-15992674D02*
X12037872Y-15983150D01*
X12037872Y-15983150D02*
X12066443Y-15983150D01*
X12066443Y-15983150D02*
X12085491Y-15992674D01*
X12085491Y-15992674D02*
X12095015Y-16011722D01*
X12095015Y-16011722D02*
X12095015Y-16116484D01*
X12485491Y-15906960D02*
X12314063Y-16164103D01*
X12742634Y-15916484D02*
X12761682Y-15916484D01*
X12761682Y-15916484D02*
X12780729Y-15926008D01*
X12780729Y-15926008D02*
X12790253Y-15935531D01*
X12790253Y-15935531D02*
X12799777Y-15954579D01*
X12799777Y-15954579D02*
X12809301Y-15992674D01*
X12809301Y-15992674D02*
X12809301Y-16040293D01*
X12809301Y-16040293D02*
X12799777Y-16078388D01*
X12799777Y-16078388D02*
X12790253Y-16097436D01*
X12790253Y-16097436D02*
X12780729Y-16106960D01*
X12780729Y-16106960D02*
X12761682Y-16116484D01*
X12761682Y-16116484D02*
X12742634Y-16116484D01*
X12742634Y-16116484D02*
X12723586Y-16106960D01*
X12723586Y-16106960D02*
X12714063Y-16097436D01*
X12714063Y-16097436D02*
X12704539Y-16078388D01*
X12704539Y-16078388D02*
X12695015Y-16040293D01*
X12695015Y-16040293D02*
X12695015Y-15992674D01*
X12695015Y-15992674D02*
X12704539Y-15954579D01*
X12704539Y-15954579D02*
X12714063Y-15935531D01*
X12714063Y-15935531D02*
X12723586Y-15926008D01*
X12723586Y-15926008D02*
X12742634Y-15916484D01*
X12895015Y-16097436D02*
X12904539Y-16106960D01*
X12904539Y-16106960D02*
X12895015Y-16116484D01*
X12895015Y-16116484D02*
X12885491Y-16106960D01*
X12885491Y-16106960D02*
X12895015Y-16097436D01*
X12895015Y-16097436D02*
X12895015Y-16116484D01*
X13028348Y-15916484D02*
X13047396Y-15916484D01*
X13047396Y-15916484D02*
X13066444Y-15926008D01*
X13066444Y-15926008D02*
X13075967Y-15935531D01*
X13075967Y-15935531D02*
X13085491Y-15954579D01*
X13085491Y-15954579D02*
X13095015Y-15992674D01*
X13095015Y-15992674D02*
X13095015Y-16040293D01*
X13095015Y-16040293D02*
X13085491Y-16078388D01*
X13085491Y-16078388D02*
X13075967Y-16097436D01*
X13075967Y-16097436D02*
X13066444Y-16106960D01*
X13066444Y-16106960D02*
X13047396Y-16116484D01*
X13047396Y-16116484D02*
X13028348Y-16116484D01*
X13028348Y-16116484D02*
X13009301Y-16106960D01*
X13009301Y-16106960D02*
X12999777Y-16097436D01*
X12999777Y-16097436D02*
X12990253Y-16078388D01*
X12990253Y-16078388D02*
X12980729Y-16040293D01*
X12980729Y-16040293D02*
X12980729Y-15992674D01*
X12980729Y-15992674D02*
X12990253Y-15954579D01*
X12990253Y-15954579D02*
X12999777Y-15935531D01*
X12999777Y-15935531D02*
X13009301Y-15926008D01*
X13009301Y-15926008D02*
X13028348Y-15916484D01*
X13161682Y-15916484D02*
X13285491Y-15916484D01*
X13285491Y-15916484D02*
X13218825Y-15992674D01*
X13218825Y-15992674D02*
X13247396Y-15992674D01*
X13247396Y-15992674D02*
X13266444Y-16002198D01*
X13266444Y-16002198D02*
X13275967Y-16011722D01*
X13275967Y-16011722D02*
X13285491Y-16030769D01*
X13285491Y-16030769D02*
X13285491Y-16078388D01*
X13285491Y-16078388D02*
X13275967Y-16097436D01*
X13275967Y-16097436D02*
X13266444Y-16106960D01*
X13266444Y-16106960D02*
X13247396Y-16116484D01*
X13247396Y-16116484D02*
X13190253Y-16116484D01*
X13190253Y-16116484D02*
X13171206Y-16106960D01*
X13171206Y-16106960D02*
X13161682Y-16097436D01*
X13466444Y-15916484D02*
X13371206Y-15916484D01*
X13371206Y-15916484D02*
X13361682Y-16011722D01*
X13361682Y-16011722D02*
X13371206Y-16002198D01*
X13371206Y-16002198D02*
X13390253Y-15992674D01*
X13390253Y-15992674D02*
X13437872Y-15992674D01*
X13437872Y-15992674D02*
X13456920Y-16002198D01*
X13456920Y-16002198D02*
X13466444Y-16011722D01*
X13466444Y-16011722D02*
X13475967Y-16030769D01*
X13475967Y-16030769D02*
X13475967Y-16078388D01*
X13475967Y-16078388D02*
X13466444Y-16097436D01*
X13466444Y-16097436D02*
X13456920Y-16106960D01*
X13456920Y-16106960D02*
X13437872Y-16116484D01*
X13437872Y-16116484D02*
X13390253Y-16116484D01*
X13390253Y-16116484D02*
X13371206Y-16106960D01*
X13371206Y-16106960D02*
X13361682Y-16097436D01*
X13647396Y-15983150D02*
X13647396Y-16116484D01*
X13599777Y-15906960D02*
X13552158Y-16049817D01*
X13552158Y-16049817D02*
X13675967Y-16049817D01*
X13742634Y-15916484D02*
X13742634Y-15954579D01*
X13818825Y-15916484D02*
X13818825Y-15954579D01*
X14114063Y-16192674D02*
X14104539Y-16183150D01*
X14104539Y-16183150D02*
X14085491Y-16154579D01*
X14085491Y-16154579D02*
X14075968Y-16135531D01*
X14075968Y-16135531D02*
X14066444Y-16106960D01*
X14066444Y-16106960D02*
X14056920Y-16059341D01*
X14056920Y-16059341D02*
X14056920Y-16021246D01*
X14056920Y-16021246D02*
X14066444Y-15973627D01*
X14066444Y-15973627D02*
X14075968Y-15945055D01*
X14075968Y-15945055D02*
X14085491Y-15926008D01*
X14085491Y-15926008D02*
X14104539Y-15897436D01*
X14104539Y-15897436D02*
X14114063Y-15887912D01*
X14218825Y-16002198D02*
X14199777Y-15992674D01*
X14199777Y-15992674D02*
X14190253Y-15983150D01*
X14190253Y-15983150D02*
X14180729Y-15964103D01*
X14180729Y-15964103D02*
X14180729Y-15954579D01*
X14180729Y-15954579D02*
X14190253Y-15935531D01*
X14190253Y-15935531D02*
X14199777Y-15926008D01*
X14199777Y-15926008D02*
X14218825Y-15916484D01*
X14218825Y-15916484D02*
X14256920Y-15916484D01*
X14256920Y-15916484D02*
X14275968Y-15926008D01*
X14275968Y-15926008D02*
X14285491Y-15935531D01*
X14285491Y-15935531D02*
X14295015Y-15954579D01*
X14295015Y-15954579D02*
X14295015Y-15964103D01*
X14295015Y-15964103D02*
X14285491Y-15983150D01*
X14285491Y-15983150D02*
X14275968Y-15992674D01*
X14275968Y-15992674D02*
X14256920Y-16002198D01*
X14256920Y-16002198D02*
X14218825Y-16002198D01*
X14218825Y-16002198D02*
X14199777Y-16011722D01*
X14199777Y-16011722D02*
X14190253Y-16021246D01*
X14190253Y-16021246D02*
X14180729Y-16040293D01*
X14180729Y-16040293D02*
X14180729Y-16078388D01*
X14180729Y-16078388D02*
X14190253Y-16097436D01*
X14190253Y-16097436D02*
X14199777Y-16106960D01*
X14199777Y-16106960D02*
X14218825Y-16116484D01*
X14218825Y-16116484D02*
X14256920Y-16116484D01*
X14256920Y-16116484D02*
X14275968Y-16106960D01*
X14275968Y-16106960D02*
X14285491Y-16097436D01*
X14285491Y-16097436D02*
X14295015Y-16078388D01*
X14295015Y-16078388D02*
X14295015Y-16040293D01*
X14295015Y-16040293D02*
X14285491Y-16021246D01*
X14285491Y-16021246D02*
X14275968Y-16011722D01*
X14275968Y-16011722D02*
X14256920Y-16002198D01*
X14533110Y-16116484D02*
X14533110Y-15916484D01*
X14618825Y-16116484D02*
X14618825Y-16011722D01*
X14618825Y-16011722D02*
X14609301Y-15992674D01*
X14609301Y-15992674D02*
X14590253Y-15983150D01*
X14590253Y-15983150D02*
X14561682Y-15983150D01*
X14561682Y-15983150D02*
X14542634Y-15992674D01*
X14542634Y-15992674D02*
X14533110Y-16002198D01*
X14742634Y-16116484D02*
X14723587Y-16106960D01*
X14723587Y-16106960D02*
X14714063Y-16097436D01*
X14714063Y-16097436D02*
X14704539Y-16078388D01*
X14704539Y-16078388D02*
X14704539Y-16021246D01*
X14704539Y-16021246D02*
X14714063Y-16002198D01*
X14714063Y-16002198D02*
X14723587Y-15992674D01*
X14723587Y-15992674D02*
X14742634Y-15983150D01*
X14742634Y-15983150D02*
X14771206Y-15983150D01*
X14771206Y-15983150D02*
X14790253Y-15992674D01*
X14790253Y-15992674D02*
X14799777Y-16002198D01*
X14799777Y-16002198D02*
X14809301Y-16021246D01*
X14809301Y-16021246D02*
X14809301Y-16078388D01*
X14809301Y-16078388D02*
X14799777Y-16097436D01*
X14799777Y-16097436D02*
X14790253Y-16106960D01*
X14790253Y-16106960D02*
X14771206Y-16116484D01*
X14771206Y-16116484D02*
X14742634Y-16116484D01*
X14923587Y-16116484D02*
X14904539Y-16106960D01*
X14904539Y-16106960D02*
X14895015Y-16087912D01*
X14895015Y-16087912D02*
X14895015Y-15916484D01*
X15075968Y-16106960D02*
X15056920Y-16116484D01*
X15056920Y-16116484D02*
X15018825Y-16116484D01*
X15018825Y-16116484D02*
X14999777Y-16106960D01*
X14999777Y-16106960D02*
X14990253Y-16087912D01*
X14990253Y-16087912D02*
X14990253Y-16011722D01*
X14990253Y-16011722D02*
X14999777Y-15992674D01*
X14999777Y-15992674D02*
X15018825Y-15983150D01*
X15018825Y-15983150D02*
X15056920Y-15983150D01*
X15056920Y-15983150D02*
X15075968Y-15992674D01*
X15075968Y-15992674D02*
X15085491Y-16011722D01*
X15085491Y-16011722D02*
X15085491Y-16030769D01*
X15085491Y-16030769D02*
X14990253Y-16049817D01*
X15161682Y-16106960D02*
X15180730Y-16116484D01*
X15180730Y-16116484D02*
X15218825Y-16116484D01*
X15218825Y-16116484D02*
X15237872Y-16106960D01*
X15237872Y-16106960D02*
X15247396Y-16087912D01*
X15247396Y-16087912D02*
X15247396Y-16078388D01*
X15247396Y-16078388D02*
X15237872Y-16059341D01*
X15237872Y-16059341D02*
X15218825Y-16049817D01*
X15218825Y-16049817D02*
X15190253Y-16049817D01*
X15190253Y-16049817D02*
X15171206Y-16040293D01*
X15171206Y-16040293D02*
X15161682Y-16021246D01*
X15161682Y-16021246D02*
X15161682Y-16011722D01*
X15161682Y-16011722D02*
X15171206Y-15992674D01*
X15171206Y-15992674D02*
X15190253Y-15983150D01*
X15190253Y-15983150D02*
X15218825Y-15983150D01*
X15218825Y-15983150D02*
X15237872Y-15992674D01*
X15314063Y-16192674D02*
X15323587Y-16183150D01*
X15323587Y-16183150D02*
X15342634Y-16154579D01*
X15342634Y-16154579D02*
X15352158Y-16135531D01*
X15352158Y-16135531D02*
X15361682Y-16106960D01*
X15361682Y-16106960D02*
X15371206Y-16059341D01*
X15371206Y-16059341D02*
X15371206Y-16021246D01*
X15371206Y-16021246D02*
X15361682Y-15973627D01*
X15361682Y-15973627D02*
X15352158Y-15945055D01*
X15352158Y-15945055D02*
X15342634Y-15926008D01*
X15342634Y-15926008D02*
X15323587Y-15897436D01*
X15323587Y-15897436D02*
X15314063Y-15887912D01*
D10*
X10439000Y-16239000D02*
X10539000Y-16339000D01*
X10539000Y-16239000D02*
X10439000Y-16339000D01*
X10539000Y-16289000D02*
G75*
G02*
X10439000Y-16289000I-50000J0D01*
G01*
X10439000Y-16289000D02*
G75*
G02*
X10539000Y-16289000I50000J0D01*
G01*
D11*
X10904539Y-16380484D02*
X10790253Y-16380484D01*
X10847396Y-16380484D02*
X10847396Y-16180484D01*
X10847396Y-16180484D02*
X10828348Y-16209055D01*
X10828348Y-16209055D02*
X10809301Y-16228103D01*
X10809301Y-16228103D02*
X10790253Y-16237627D01*
X10990253Y-16361436D02*
X10999777Y-16370960D01*
X10999777Y-16370960D02*
X10990253Y-16380484D01*
X10990253Y-16380484D02*
X10980729Y-16370960D01*
X10980729Y-16370960D02*
X10990253Y-16361436D01*
X10990253Y-16361436D02*
X10990253Y-16380484D01*
X11123586Y-16180484D02*
X11142634Y-16180484D01*
X11142634Y-16180484D02*
X11161682Y-16190008D01*
X11161682Y-16190008D02*
X11171205Y-16199531D01*
X11171205Y-16199531D02*
X11180729Y-16218579D01*
X11180729Y-16218579D02*
X11190253Y-16256674D01*
X11190253Y-16256674D02*
X11190253Y-16304293D01*
X11190253Y-16304293D02*
X11180729Y-16342388D01*
X11180729Y-16342388D02*
X11171205Y-16361436D01*
X11171205Y-16361436D02*
X11161682Y-16370960D01*
X11161682Y-16370960D02*
X11142634Y-16380484D01*
X11142634Y-16380484D02*
X11123586Y-16380484D01*
X11123586Y-16380484D02*
X11104539Y-16370960D01*
X11104539Y-16370960D02*
X11095015Y-16361436D01*
X11095015Y-16361436D02*
X11085491Y-16342388D01*
X11085491Y-16342388D02*
X11075967Y-16304293D01*
X11075967Y-16304293D02*
X11075967Y-16256674D01*
X11075967Y-16256674D02*
X11085491Y-16218579D01*
X11085491Y-16218579D02*
X11095015Y-16199531D01*
X11095015Y-16199531D02*
X11104539Y-16190008D01*
X11104539Y-16190008D02*
X11123586Y-16180484D01*
X11314062Y-16180484D02*
X11333110Y-16180484D01*
X11333110Y-16180484D02*
X11352158Y-16190008D01*
X11352158Y-16190008D02*
X11361682Y-16199531D01*
X11361682Y-16199531D02*
X11371205Y-16218579D01*
X11371205Y-16218579D02*
X11380729Y-16256674D01*
X11380729Y-16256674D02*
X11380729Y-16304293D01*
X11380729Y-16304293D02*
X11371205Y-16342388D01*
X11371205Y-16342388D02*
X11361682Y-16361436D01*
X11361682Y-16361436D02*
X11352158Y-16370960D01*
X11352158Y-16370960D02*
X11333110Y-16380484D01*
X11333110Y-16380484D02*
X11314062Y-16380484D01*
X11314062Y-16380484D02*
X11295015Y-16370960D01*
X11295015Y-16370960D02*
X11285491Y-16361436D01*
X11285491Y-16361436D02*
X11275967Y-16342388D01*
X11275967Y-16342388D02*
X11266443Y-16304293D01*
X11266443Y-16304293D02*
X11266443Y-16256674D01*
X11266443Y-16256674D02*
X11275967Y-16218579D01*
X11275967Y-16218579D02*
X11285491Y-16199531D01*
X11285491Y-16199531D02*
X11295015Y-16190008D01*
X11295015Y-16190008D02*
X11314062Y-16180484D01*
X11504539Y-16180484D02*
X11523586Y-16180484D01*
X11523586Y-16180484D02*
X11542634Y-16190008D01*
X11542634Y-16190008D02*
X11552158Y-16199531D01*
X11552158Y-16199531D02*
X11561682Y-16218579D01*
X11561682Y-16218579D02*
X11571205Y-16256674D01*
X11571205Y-16256674D02*
X11571205Y-16304293D01*
X11571205Y-16304293D02*
X11561682Y-16342388D01*
X11561682Y-16342388D02*
X11552158Y-16361436D01*
X11552158Y-16361436D02*
X11542634Y-16370960D01*
X11542634Y-16370960D02*
X11523586Y-16380484D01*
X11523586Y-16380484D02*
X11504539Y-16380484D01*
X11504539Y-16380484D02*
X11485491Y-16370960D01*
X11485491Y-16370960D02*
X11475967Y-16361436D01*
X11475967Y-16361436D02*
X11466443Y-16342388D01*
X11466443Y-16342388D02*
X11456920Y-16304293D01*
X11456920Y-16304293D02*
X11456920Y-16256674D01*
X11456920Y-16256674D02*
X11466443Y-16218579D01*
X11466443Y-16218579D02*
X11475967Y-16199531D01*
X11475967Y-16199531D02*
X11485491Y-16190008D01*
X11485491Y-16190008D02*
X11504539Y-16180484D01*
X11656920Y-16380484D02*
X11656920Y-16247150D01*
X11656920Y-16266198D02*
X11666443Y-16256674D01*
X11666443Y-16256674D02*
X11685491Y-16247150D01*
X11685491Y-16247150D02*
X11714063Y-16247150D01*
X11714063Y-16247150D02*
X11733110Y-16256674D01*
X11733110Y-16256674D02*
X11742634Y-16275722D01*
X11742634Y-16275722D02*
X11742634Y-16380484D01*
X11742634Y-16275722D02*
X11752158Y-16256674D01*
X11752158Y-16256674D02*
X11771205Y-16247150D01*
X11771205Y-16247150D02*
X11799777Y-16247150D01*
X11799777Y-16247150D02*
X11818824Y-16256674D01*
X11818824Y-16256674D02*
X11828348Y-16275722D01*
X11828348Y-16275722D02*
X11828348Y-16380484D01*
X11923586Y-16380484D02*
X11923586Y-16247150D01*
X11923586Y-16266198D02*
X11933110Y-16256674D01*
X11933110Y-16256674D02*
X11952158Y-16247150D01*
X11952158Y-16247150D02*
X11980729Y-16247150D01*
X11980729Y-16247150D02*
X11999777Y-16256674D01*
X11999777Y-16256674D02*
X12009301Y-16275722D01*
X12009301Y-16275722D02*
X12009301Y-16380484D01*
X12009301Y-16275722D02*
X12018824Y-16256674D01*
X12018824Y-16256674D02*
X12037872Y-16247150D01*
X12037872Y-16247150D02*
X12066443Y-16247150D01*
X12066443Y-16247150D02*
X12085491Y-16256674D01*
X12085491Y-16256674D02*
X12095015Y-16275722D01*
X12095015Y-16275722D02*
X12095015Y-16380484D01*
X12485491Y-16170960D02*
X12314063Y-16428103D01*
X12742634Y-16180484D02*
X12761682Y-16180484D01*
X12761682Y-16180484D02*
X12780729Y-16190008D01*
X12780729Y-16190008D02*
X12790253Y-16199531D01*
X12790253Y-16199531D02*
X12799777Y-16218579D01*
X12799777Y-16218579D02*
X12809301Y-16256674D01*
X12809301Y-16256674D02*
X12809301Y-16304293D01*
X12809301Y-16304293D02*
X12799777Y-16342388D01*
X12799777Y-16342388D02*
X12790253Y-16361436D01*
X12790253Y-16361436D02*
X12780729Y-16370960D01*
X12780729Y-16370960D02*
X12761682Y-16380484D01*
X12761682Y-16380484D02*
X12742634Y-16380484D01*
X12742634Y-16380484D02*
X12723586Y-16370960D01*
X12723586Y-16370960D02*
X12714063Y-16361436D01*
X12714063Y-16361436D02*
X12704539Y-16342388D01*
X12704539Y-16342388D02*
X12695015Y-16304293D01*
X12695015Y-16304293D02*
X12695015Y-16256674D01*
X12695015Y-16256674D02*
X12704539Y-16218579D01*
X12704539Y-16218579D02*
X12714063Y-16199531D01*
X12714063Y-16199531D02*
X12723586Y-16190008D01*
X12723586Y-16190008D02*
X12742634Y-16180484D01*
X12895015Y-16361436D02*
X12904539Y-16370960D01*
X12904539Y-16370960D02*
X12895015Y-16380484D01*
X12895015Y-16380484D02*
X12885491Y-16370960D01*
X12885491Y-16370960D02*
X12895015Y-16361436D01*
X12895015Y-16361436D02*
X12895015Y-16380484D01*
X13028348Y-16180484D02*
X13047396Y-16180484D01*
X13047396Y-16180484D02*
X13066444Y-16190008D01*
X13066444Y-16190008D02*
X13075967Y-16199531D01*
X13075967Y-16199531D02*
X13085491Y-16218579D01*
X13085491Y-16218579D02*
X13095015Y-16256674D01*
X13095015Y-16256674D02*
X13095015Y-16304293D01*
X13095015Y-16304293D02*
X13085491Y-16342388D01*
X13085491Y-16342388D02*
X13075967Y-16361436D01*
X13075967Y-16361436D02*
X13066444Y-16370960D01*
X13066444Y-16370960D02*
X13047396Y-16380484D01*
X13047396Y-16380484D02*
X13028348Y-16380484D01*
X13028348Y-16380484D02*
X13009301Y-16370960D01*
X13009301Y-16370960D02*
X12999777Y-16361436D01*
X12999777Y-16361436D02*
X12990253Y-16342388D01*
X12990253Y-16342388D02*
X12980729Y-16304293D01*
X12980729Y-16304293D02*
X12980729Y-16256674D01*
X12980729Y-16256674D02*
X12990253Y-16218579D01*
X12990253Y-16218579D02*
X12999777Y-16199531D01*
X12999777Y-16199531D02*
X13009301Y-16190008D01*
X13009301Y-16190008D02*
X13028348Y-16180484D01*
X13161682Y-16180484D02*
X13285491Y-16180484D01*
X13285491Y-16180484D02*
X13218825Y-16256674D01*
X13218825Y-16256674D02*
X13247396Y-16256674D01*
X13247396Y-16256674D02*
X13266444Y-16266198D01*
X13266444Y-16266198D02*
X13275967Y-16275722D01*
X13275967Y-16275722D02*
X13285491Y-16294769D01*
X13285491Y-16294769D02*
X13285491Y-16342388D01*
X13285491Y-16342388D02*
X13275967Y-16361436D01*
X13275967Y-16361436D02*
X13266444Y-16370960D01*
X13266444Y-16370960D02*
X13247396Y-16380484D01*
X13247396Y-16380484D02*
X13190253Y-16380484D01*
X13190253Y-16380484D02*
X13171206Y-16370960D01*
X13171206Y-16370960D02*
X13161682Y-16361436D01*
X13380729Y-16380484D02*
X13418825Y-16380484D01*
X13418825Y-16380484D02*
X13437872Y-16370960D01*
X13437872Y-16370960D02*
X13447396Y-16361436D01*
X13447396Y-16361436D02*
X13466444Y-16332865D01*
X13466444Y-16332865D02*
X13475967Y-16294769D01*
X13475967Y-16294769D02*
X13475967Y-16218579D01*
X13475967Y-16218579D02*
X13466444Y-16199531D01*
X13466444Y-16199531D02*
X13456920Y-16190008D01*
X13456920Y-16190008D02*
X13437872Y-16180484D01*
X13437872Y-16180484D02*
X13399777Y-16180484D01*
X13399777Y-16180484D02*
X13380729Y-16190008D01*
X13380729Y-16190008D02*
X13371206Y-16199531D01*
X13371206Y-16199531D02*
X13361682Y-16218579D01*
X13361682Y-16218579D02*
X13361682Y-16266198D01*
X13361682Y-16266198D02*
X13371206Y-16285246D01*
X13371206Y-16285246D02*
X13380729Y-16294769D01*
X13380729Y-16294769D02*
X13399777Y-16304293D01*
X13399777Y-16304293D02*
X13437872Y-16304293D01*
X13437872Y-16304293D02*
X13456920Y-16294769D01*
X13456920Y-16294769D02*
X13466444Y-16285246D01*
X13466444Y-16285246D02*
X13475967Y-16266198D01*
X13647396Y-16247150D02*
X13647396Y-16380484D01*
X13599777Y-16170960D02*
X13552158Y-16313817D01*
X13552158Y-16313817D02*
X13675967Y-16313817D01*
X13742634Y-16180484D02*
X13742634Y-16218579D01*
X13818825Y-16180484D02*
X13818825Y-16218579D01*
X14114063Y-16456674D02*
X14104539Y-16447150D01*
X14104539Y-16447150D02*
X14085491Y-16418579D01*
X14085491Y-16418579D02*
X14075968Y-16399531D01*
X14075968Y-16399531D02*
X14066444Y-16370960D01*
X14066444Y-16370960D02*
X14056920Y-16323341D01*
X14056920Y-16323341D02*
X14056920Y-16285246D01*
X14056920Y-16285246D02*
X14066444Y-16237627D01*
X14066444Y-16237627D02*
X14075968Y-16209055D01*
X14075968Y-16209055D02*
X14085491Y-16190008D01*
X14085491Y-16190008D02*
X14104539Y-16161436D01*
X14104539Y-16161436D02*
X14114063Y-16151912D01*
X14295015Y-16380484D02*
X14180729Y-16380484D01*
X14237872Y-16380484D02*
X14237872Y-16180484D01*
X14237872Y-16180484D02*
X14218825Y-16209055D01*
X14218825Y-16209055D02*
X14199777Y-16228103D01*
X14199777Y-16228103D02*
X14180729Y-16237627D01*
X14485491Y-16380484D02*
X14371206Y-16380484D01*
X14428348Y-16380484D02*
X14428348Y-16180484D01*
X14428348Y-16180484D02*
X14409301Y-16209055D01*
X14409301Y-16209055D02*
X14390253Y-16228103D01*
X14390253Y-16228103D02*
X14371206Y-16237627D01*
X14723587Y-16380484D02*
X14723587Y-16180484D01*
X14809301Y-16380484D02*
X14809301Y-16275722D01*
X14809301Y-16275722D02*
X14799777Y-16256674D01*
X14799777Y-16256674D02*
X14780730Y-16247150D01*
X14780730Y-16247150D02*
X14752158Y-16247150D01*
X14752158Y-16247150D02*
X14733110Y-16256674D01*
X14733110Y-16256674D02*
X14723587Y-16266198D01*
X14933110Y-16380484D02*
X14914063Y-16370960D01*
X14914063Y-16370960D02*
X14904539Y-16361436D01*
X14904539Y-16361436D02*
X14895015Y-16342388D01*
X14895015Y-16342388D02*
X14895015Y-16285246D01*
X14895015Y-16285246D02*
X14904539Y-16266198D01*
X14904539Y-16266198D02*
X14914063Y-16256674D01*
X14914063Y-16256674D02*
X14933110Y-16247150D01*
X14933110Y-16247150D02*
X14961682Y-16247150D01*
X14961682Y-16247150D02*
X14980730Y-16256674D01*
X14980730Y-16256674D02*
X14990253Y-16266198D01*
X14990253Y-16266198D02*
X14999777Y-16285246D01*
X14999777Y-16285246D02*
X14999777Y-16342388D01*
X14999777Y-16342388D02*
X14990253Y-16361436D01*
X14990253Y-16361436D02*
X14980730Y-16370960D01*
X14980730Y-16370960D02*
X14961682Y-16380484D01*
X14961682Y-16380484D02*
X14933110Y-16380484D01*
X15114063Y-16380484D02*
X15095015Y-16370960D01*
X15095015Y-16370960D02*
X15085491Y-16351912D01*
X15085491Y-16351912D02*
X15085491Y-16180484D01*
X15266444Y-16370960D02*
X15247396Y-16380484D01*
X15247396Y-16380484D02*
X15209301Y-16380484D01*
X15209301Y-16380484D02*
X15190253Y-16370960D01*
X15190253Y-16370960D02*
X15180730Y-16351912D01*
X15180730Y-16351912D02*
X15180730Y-16275722D01*
X15180730Y-16275722D02*
X15190253Y-16256674D01*
X15190253Y-16256674D02*
X15209301Y-16247150D01*
X15209301Y-16247150D02*
X15247396Y-16247150D01*
X15247396Y-16247150D02*
X15266444Y-16256674D01*
X15266444Y-16256674D02*
X15275968Y-16275722D01*
X15275968Y-16275722D02*
X15275968Y-16294769D01*
X15275968Y-16294769D02*
X15180730Y-16313817D01*
X15352158Y-16370960D02*
X15371206Y-16380484D01*
X15371206Y-16380484D02*
X15409301Y-16380484D01*
X15409301Y-16380484D02*
X15428349Y-16370960D01*
X15428349Y-16370960D02*
X15437872Y-16351912D01*
X15437872Y-16351912D02*
X15437872Y-16342388D01*
X15437872Y-16342388D02*
X15428349Y-16323341D01*
X15428349Y-16323341D02*
X15409301Y-16313817D01*
X15409301Y-16313817D02*
X15380730Y-16313817D01*
X15380730Y-16313817D02*
X15361682Y-16304293D01*
X15361682Y-16304293D02*
X15352158Y-16285246D01*
X15352158Y-16285246D02*
X15352158Y-16275722D01*
X15352158Y-16275722D02*
X15361682Y-16256674D01*
X15361682Y-16256674D02*
X15380730Y-16247150D01*
X15380730Y-16247150D02*
X15409301Y-16247150D01*
X15409301Y-16247150D02*
X15428349Y-16256674D01*
X15504539Y-16456674D02*
X15514063Y-16447150D01*
X15514063Y-16447150D02*
X15533111Y-16418579D01*
X15533111Y-16418579D02*
X15542634Y-16399531D01*
X15542634Y-16399531D02*
X15552158Y-16370960D01*
X15552158Y-16370960D02*
X15561682Y-16323341D01*
X15561682Y-16323341D02*
X15561682Y-16285246D01*
X15561682Y-16285246D02*
X15552158Y-16237627D01*
X15552158Y-16237627D02*
X15542634Y-16209055D01*
X15542634Y-16209055D02*
X15533111Y-16190008D01*
X15533111Y-16190008D02*
X15514063Y-16161436D01*
X15514063Y-16161436D02*
X15504539Y-16151912D01*
D12*
X10438000Y-16502500D02*
X10539000Y-16603500D01*
X10539000Y-16502500D02*
X10438000Y-16603500D01*
X10488500Y-16502500D02*
X10488500Y-16603500D01*
X10438000Y-16553000D02*
X10539000Y-16553000D01*
D11*
X10904539Y-16644484D02*
X10790253Y-16644484D01*
X10847396Y-16644484D02*
X10847396Y-16444484D01*
X10847396Y-16444484D02*
X10828348Y-16473055D01*
X10828348Y-16473055D02*
X10809301Y-16492103D01*
X10809301Y-16492103D02*
X10790253Y-16501627D01*
X10990253Y-16625436D02*
X10999777Y-16634960D01*
X10999777Y-16634960D02*
X10990253Y-16644484D01*
X10990253Y-16644484D02*
X10980729Y-16634960D01*
X10980729Y-16634960D02*
X10990253Y-16625436D01*
X10990253Y-16625436D02*
X10990253Y-16644484D01*
X11123586Y-16444484D02*
X11142634Y-16444484D01*
X11142634Y-16444484D02*
X11161682Y-16454008D01*
X11161682Y-16454008D02*
X11171205Y-16463531D01*
X11171205Y-16463531D02*
X11180729Y-16482579D01*
X11180729Y-16482579D02*
X11190253Y-16520674D01*
X11190253Y-16520674D02*
X11190253Y-16568293D01*
X11190253Y-16568293D02*
X11180729Y-16606388D01*
X11180729Y-16606388D02*
X11171205Y-16625436D01*
X11171205Y-16625436D02*
X11161682Y-16634960D01*
X11161682Y-16634960D02*
X11142634Y-16644484D01*
X11142634Y-16644484D02*
X11123586Y-16644484D01*
X11123586Y-16644484D02*
X11104539Y-16634960D01*
X11104539Y-16634960D02*
X11095015Y-16625436D01*
X11095015Y-16625436D02*
X11085491Y-16606388D01*
X11085491Y-16606388D02*
X11075967Y-16568293D01*
X11075967Y-16568293D02*
X11075967Y-16520674D01*
X11075967Y-16520674D02*
X11085491Y-16482579D01*
X11085491Y-16482579D02*
X11095015Y-16463531D01*
X11095015Y-16463531D02*
X11104539Y-16454008D01*
X11104539Y-16454008D02*
X11123586Y-16444484D01*
X11380729Y-16644484D02*
X11266443Y-16644484D01*
X11323586Y-16644484D02*
X11323586Y-16444484D01*
X11323586Y-16444484D02*
X11304539Y-16473055D01*
X11304539Y-16473055D02*
X11285491Y-16492103D01*
X11285491Y-16492103D02*
X11266443Y-16501627D01*
X11504539Y-16444484D02*
X11523586Y-16444484D01*
X11523586Y-16444484D02*
X11542634Y-16454008D01*
X11542634Y-16454008D02*
X11552158Y-16463531D01*
X11552158Y-16463531D02*
X11561682Y-16482579D01*
X11561682Y-16482579D02*
X11571205Y-16520674D01*
X11571205Y-16520674D02*
X11571205Y-16568293D01*
X11571205Y-16568293D02*
X11561682Y-16606388D01*
X11561682Y-16606388D02*
X11552158Y-16625436D01*
X11552158Y-16625436D02*
X11542634Y-16634960D01*
X11542634Y-16634960D02*
X11523586Y-16644484D01*
X11523586Y-16644484D02*
X11504539Y-16644484D01*
X11504539Y-16644484D02*
X11485491Y-16634960D01*
X11485491Y-16634960D02*
X11475967Y-16625436D01*
X11475967Y-16625436D02*
X11466443Y-16606388D01*
X11466443Y-16606388D02*
X11456920Y-16568293D01*
X11456920Y-16568293D02*
X11456920Y-16520674D01*
X11456920Y-16520674D02*
X11466443Y-16482579D01*
X11466443Y-16482579D02*
X11475967Y-16463531D01*
X11475967Y-16463531D02*
X11485491Y-16454008D01*
X11485491Y-16454008D02*
X11504539Y-16444484D01*
X11656920Y-16644484D02*
X11656920Y-16511150D01*
X11656920Y-16530198D02*
X11666443Y-16520674D01*
X11666443Y-16520674D02*
X11685491Y-16511150D01*
X11685491Y-16511150D02*
X11714063Y-16511150D01*
X11714063Y-16511150D02*
X11733110Y-16520674D01*
X11733110Y-16520674D02*
X11742634Y-16539722D01*
X11742634Y-16539722D02*
X11742634Y-16644484D01*
X11742634Y-16539722D02*
X11752158Y-16520674D01*
X11752158Y-16520674D02*
X11771205Y-16511150D01*
X11771205Y-16511150D02*
X11799777Y-16511150D01*
X11799777Y-16511150D02*
X11818824Y-16520674D01*
X11818824Y-16520674D02*
X11828348Y-16539722D01*
X11828348Y-16539722D02*
X11828348Y-16644484D01*
X11923586Y-16644484D02*
X11923586Y-16511150D01*
X11923586Y-16530198D02*
X11933110Y-16520674D01*
X11933110Y-16520674D02*
X11952158Y-16511150D01*
X11952158Y-16511150D02*
X11980729Y-16511150D01*
X11980729Y-16511150D02*
X11999777Y-16520674D01*
X11999777Y-16520674D02*
X12009301Y-16539722D01*
X12009301Y-16539722D02*
X12009301Y-16644484D01*
X12009301Y-16539722D02*
X12018824Y-16520674D01*
X12018824Y-16520674D02*
X12037872Y-16511150D01*
X12037872Y-16511150D02*
X12066443Y-16511150D01*
X12066443Y-16511150D02*
X12085491Y-16520674D01*
X12085491Y-16520674D02*
X12095015Y-16539722D01*
X12095015Y-16539722D02*
X12095015Y-16644484D01*
X12485491Y-16434960D02*
X12314063Y-16692103D01*
X12742634Y-16444484D02*
X12761682Y-16444484D01*
X12761682Y-16444484D02*
X12780729Y-16454008D01*
X12780729Y-16454008D02*
X12790253Y-16463531D01*
X12790253Y-16463531D02*
X12799777Y-16482579D01*
X12799777Y-16482579D02*
X12809301Y-16520674D01*
X12809301Y-16520674D02*
X12809301Y-16568293D01*
X12809301Y-16568293D02*
X12799777Y-16606388D01*
X12799777Y-16606388D02*
X12790253Y-16625436D01*
X12790253Y-16625436D02*
X12780729Y-16634960D01*
X12780729Y-16634960D02*
X12761682Y-16644484D01*
X12761682Y-16644484D02*
X12742634Y-16644484D01*
X12742634Y-16644484D02*
X12723586Y-16634960D01*
X12723586Y-16634960D02*
X12714063Y-16625436D01*
X12714063Y-16625436D02*
X12704539Y-16606388D01*
X12704539Y-16606388D02*
X12695015Y-16568293D01*
X12695015Y-16568293D02*
X12695015Y-16520674D01*
X12695015Y-16520674D02*
X12704539Y-16482579D01*
X12704539Y-16482579D02*
X12714063Y-16463531D01*
X12714063Y-16463531D02*
X12723586Y-16454008D01*
X12723586Y-16454008D02*
X12742634Y-16444484D01*
X12895015Y-16625436D02*
X12904539Y-16634960D01*
X12904539Y-16634960D02*
X12895015Y-16644484D01*
X12895015Y-16644484D02*
X12885491Y-16634960D01*
X12885491Y-16634960D02*
X12895015Y-16625436D01*
X12895015Y-16625436D02*
X12895015Y-16644484D01*
X13028348Y-16444484D02*
X13047396Y-16444484D01*
X13047396Y-16444484D02*
X13066444Y-16454008D01*
X13066444Y-16454008D02*
X13075967Y-16463531D01*
X13075967Y-16463531D02*
X13085491Y-16482579D01*
X13085491Y-16482579D02*
X13095015Y-16520674D01*
X13095015Y-16520674D02*
X13095015Y-16568293D01*
X13095015Y-16568293D02*
X13085491Y-16606388D01*
X13085491Y-16606388D02*
X13075967Y-16625436D01*
X13075967Y-16625436D02*
X13066444Y-16634960D01*
X13066444Y-16634960D02*
X13047396Y-16644484D01*
X13047396Y-16644484D02*
X13028348Y-16644484D01*
X13028348Y-16644484D02*
X13009301Y-16634960D01*
X13009301Y-16634960D02*
X12999777Y-16625436D01*
X12999777Y-16625436D02*
X12990253Y-16606388D01*
X12990253Y-16606388D02*
X12980729Y-16568293D01*
X12980729Y-16568293D02*
X12980729Y-16520674D01*
X12980729Y-16520674D02*
X12990253Y-16482579D01*
X12990253Y-16482579D02*
X12999777Y-16463531D01*
X12999777Y-16463531D02*
X13009301Y-16454008D01*
X13009301Y-16454008D02*
X13028348Y-16444484D01*
X13161682Y-16444484D02*
X13285491Y-16444484D01*
X13285491Y-16444484D02*
X13218825Y-16520674D01*
X13218825Y-16520674D02*
X13247396Y-16520674D01*
X13247396Y-16520674D02*
X13266444Y-16530198D01*
X13266444Y-16530198D02*
X13275967Y-16539722D01*
X13275967Y-16539722D02*
X13285491Y-16558769D01*
X13285491Y-16558769D02*
X13285491Y-16606388D01*
X13285491Y-16606388D02*
X13275967Y-16625436D01*
X13275967Y-16625436D02*
X13266444Y-16634960D01*
X13266444Y-16634960D02*
X13247396Y-16644484D01*
X13247396Y-16644484D02*
X13190253Y-16644484D01*
X13190253Y-16644484D02*
X13171206Y-16634960D01*
X13171206Y-16634960D02*
X13161682Y-16625436D01*
X13380729Y-16644484D02*
X13418825Y-16644484D01*
X13418825Y-16644484D02*
X13437872Y-16634960D01*
X13437872Y-16634960D02*
X13447396Y-16625436D01*
X13447396Y-16625436D02*
X13466444Y-16596865D01*
X13466444Y-16596865D02*
X13475967Y-16558769D01*
X13475967Y-16558769D02*
X13475967Y-16482579D01*
X13475967Y-16482579D02*
X13466444Y-16463531D01*
X13466444Y-16463531D02*
X13456920Y-16454008D01*
X13456920Y-16454008D02*
X13437872Y-16444484D01*
X13437872Y-16444484D02*
X13399777Y-16444484D01*
X13399777Y-16444484D02*
X13380729Y-16454008D01*
X13380729Y-16454008D02*
X13371206Y-16463531D01*
X13371206Y-16463531D02*
X13361682Y-16482579D01*
X13361682Y-16482579D02*
X13361682Y-16530198D01*
X13361682Y-16530198D02*
X13371206Y-16549246D01*
X13371206Y-16549246D02*
X13380729Y-16558769D01*
X13380729Y-16558769D02*
X13399777Y-16568293D01*
X13399777Y-16568293D02*
X13437872Y-16568293D01*
X13437872Y-16568293D02*
X13456920Y-16558769D01*
X13456920Y-16558769D02*
X13466444Y-16549246D01*
X13466444Y-16549246D02*
X13475967Y-16530198D01*
X13590253Y-16530198D02*
X13571206Y-16520674D01*
X13571206Y-16520674D02*
X13561682Y-16511150D01*
X13561682Y-16511150D02*
X13552158Y-16492103D01*
X13552158Y-16492103D02*
X13552158Y-16482579D01*
X13552158Y-16482579D02*
X13561682Y-16463531D01*
X13561682Y-16463531D02*
X13571206Y-16454008D01*
X13571206Y-16454008D02*
X13590253Y-16444484D01*
X13590253Y-16444484D02*
X13628348Y-16444484D01*
X13628348Y-16444484D02*
X13647396Y-16454008D01*
X13647396Y-16454008D02*
X13656920Y-16463531D01*
X13656920Y-16463531D02*
X13666444Y-16482579D01*
X13666444Y-16482579D02*
X13666444Y-16492103D01*
X13666444Y-16492103D02*
X13656920Y-16511150D01*
X13656920Y-16511150D02*
X13647396Y-16520674D01*
X13647396Y-16520674D02*
X13628348Y-16530198D01*
X13628348Y-16530198D02*
X13590253Y-16530198D01*
X13590253Y-16530198D02*
X13571206Y-16539722D01*
X13571206Y-16539722D02*
X13561682Y-16549246D01*
X13561682Y-16549246D02*
X13552158Y-16568293D01*
X13552158Y-16568293D02*
X13552158Y-16606388D01*
X13552158Y-16606388D02*
X13561682Y-16625436D01*
X13561682Y-16625436D02*
X13571206Y-16634960D01*
X13571206Y-16634960D02*
X13590253Y-16644484D01*
X13590253Y-16644484D02*
X13628348Y-16644484D01*
X13628348Y-16644484D02*
X13647396Y-16634960D01*
X13647396Y-16634960D02*
X13656920Y-16625436D01*
X13656920Y-16625436D02*
X13666444Y-16606388D01*
X13666444Y-16606388D02*
X13666444Y-16568293D01*
X13666444Y-16568293D02*
X13656920Y-16549246D01*
X13656920Y-16549246D02*
X13647396Y-16539722D01*
X13647396Y-16539722D02*
X13628348Y-16530198D01*
X13742634Y-16444484D02*
X13742634Y-16482579D01*
X13818825Y-16444484D02*
X13818825Y-16482579D01*
X14114063Y-16720674D02*
X14104539Y-16711150D01*
X14104539Y-16711150D02*
X14085491Y-16682579D01*
X14085491Y-16682579D02*
X14075968Y-16663531D01*
X14075968Y-16663531D02*
X14066444Y-16634960D01*
X14066444Y-16634960D02*
X14056920Y-16587341D01*
X14056920Y-16587341D02*
X14056920Y-16549246D01*
X14056920Y-16549246D02*
X14066444Y-16501627D01*
X14066444Y-16501627D02*
X14075968Y-16473055D01*
X14075968Y-16473055D02*
X14085491Y-16454008D01*
X14085491Y-16454008D02*
X14104539Y-16425436D01*
X14104539Y-16425436D02*
X14114063Y-16415912D01*
X14180729Y-16463531D02*
X14190253Y-16454008D01*
X14190253Y-16454008D02*
X14209301Y-16444484D01*
X14209301Y-16444484D02*
X14256920Y-16444484D01*
X14256920Y-16444484D02*
X14275968Y-16454008D01*
X14275968Y-16454008D02*
X14285491Y-16463531D01*
X14285491Y-16463531D02*
X14295015Y-16482579D01*
X14295015Y-16482579D02*
X14295015Y-16501627D01*
X14295015Y-16501627D02*
X14285491Y-16530198D01*
X14285491Y-16530198D02*
X14171206Y-16644484D01*
X14171206Y-16644484D02*
X14295015Y-16644484D01*
X14533110Y-16644484D02*
X14533110Y-16444484D01*
X14618825Y-16644484D02*
X14618825Y-16539722D01*
X14618825Y-16539722D02*
X14609301Y-16520674D01*
X14609301Y-16520674D02*
X14590253Y-16511150D01*
X14590253Y-16511150D02*
X14561682Y-16511150D01*
X14561682Y-16511150D02*
X14542634Y-16520674D01*
X14542634Y-16520674D02*
X14533110Y-16530198D01*
X14742634Y-16644484D02*
X14723587Y-16634960D01*
X14723587Y-16634960D02*
X14714063Y-16625436D01*
X14714063Y-16625436D02*
X14704539Y-16606388D01*
X14704539Y-16606388D02*
X14704539Y-16549246D01*
X14704539Y-16549246D02*
X14714063Y-16530198D01*
X14714063Y-16530198D02*
X14723587Y-16520674D01*
X14723587Y-16520674D02*
X14742634Y-16511150D01*
X14742634Y-16511150D02*
X14771206Y-16511150D01*
X14771206Y-16511150D02*
X14790253Y-16520674D01*
X14790253Y-16520674D02*
X14799777Y-16530198D01*
X14799777Y-16530198D02*
X14809301Y-16549246D01*
X14809301Y-16549246D02*
X14809301Y-16606388D01*
X14809301Y-16606388D02*
X14799777Y-16625436D01*
X14799777Y-16625436D02*
X14790253Y-16634960D01*
X14790253Y-16634960D02*
X14771206Y-16644484D01*
X14771206Y-16644484D02*
X14742634Y-16644484D01*
X14923587Y-16644484D02*
X14904539Y-16634960D01*
X14904539Y-16634960D02*
X14895015Y-16615912D01*
X14895015Y-16615912D02*
X14895015Y-16444484D01*
X15075968Y-16634960D02*
X15056920Y-16644484D01*
X15056920Y-16644484D02*
X15018825Y-16644484D01*
X15018825Y-16644484D02*
X14999777Y-16634960D01*
X14999777Y-16634960D02*
X14990253Y-16615912D01*
X14990253Y-16615912D02*
X14990253Y-16539722D01*
X14990253Y-16539722D02*
X14999777Y-16520674D01*
X14999777Y-16520674D02*
X15018825Y-16511150D01*
X15018825Y-16511150D02*
X15056920Y-16511150D01*
X15056920Y-16511150D02*
X15075968Y-16520674D01*
X15075968Y-16520674D02*
X15085491Y-16539722D01*
X15085491Y-16539722D02*
X15085491Y-16558769D01*
X15085491Y-16558769D02*
X14990253Y-16577817D01*
X15161682Y-16634960D02*
X15180730Y-16644484D01*
X15180730Y-16644484D02*
X15218825Y-16644484D01*
X15218825Y-16644484D02*
X15237872Y-16634960D01*
X15237872Y-16634960D02*
X15247396Y-16615912D01*
X15247396Y-16615912D02*
X15247396Y-16606388D01*
X15247396Y-16606388D02*
X15237872Y-16587341D01*
X15237872Y-16587341D02*
X15218825Y-16577817D01*
X15218825Y-16577817D02*
X15190253Y-16577817D01*
X15190253Y-16577817D02*
X15171206Y-16568293D01*
X15171206Y-16568293D02*
X15161682Y-16549246D01*
X15161682Y-16549246D02*
X15161682Y-16539722D01*
X15161682Y-16539722D02*
X15171206Y-16520674D01*
X15171206Y-16520674D02*
X15190253Y-16511150D01*
X15190253Y-16511150D02*
X15218825Y-16511150D01*
X15218825Y-16511150D02*
X15237872Y-16520674D01*
X15314063Y-16720674D02*
X15323587Y-16711150D01*
X15323587Y-16711150D02*
X15342634Y-16682579D01*
X15342634Y-16682579D02*
X15352158Y-16663531D01*
X15352158Y-16663531D02*
X15361682Y-16634960D01*
X15361682Y-16634960D02*
X15371206Y-16587341D01*
X15371206Y-16587341D02*
X15371206Y-16549246D01*
X15371206Y-16549246D02*
X15361682Y-16501627D01*
X15361682Y-16501627D02*
X15352158Y-16473055D01*
X15352158Y-16473055D02*
X15342634Y-16454008D01*
X15342634Y-16454008D02*
X15323587Y-16425436D01*
X15323587Y-16425436D02*
X15314063Y-16415912D01*
D13*
X10429000Y-16762000D02*
X10539000Y-16872000D01*
X10539000Y-16762000D02*
X10429000Y-16872000D01*
X10522891Y-16855891D02*
X10522891Y-16778109D01*
X10445109Y-16778109D01*
X10445109Y-16855891D01*
X10522891Y-16855891D01*
D11*
X10904539Y-16908484D02*
X10790253Y-16908484D01*
X10847396Y-16908484D02*
X10847396Y-16708484D01*
X10847396Y-16708484D02*
X10828348Y-16737055D01*
X10828348Y-16737055D02*
X10809301Y-16756103D01*
X10809301Y-16756103D02*
X10790253Y-16765627D01*
X10990253Y-16889436D02*
X10999777Y-16898960D01*
X10999777Y-16898960D02*
X10990253Y-16908484D01*
X10990253Y-16908484D02*
X10980729Y-16898960D01*
X10980729Y-16898960D02*
X10990253Y-16889436D01*
X10990253Y-16889436D02*
X10990253Y-16908484D01*
X11190253Y-16908484D02*
X11075967Y-16908484D01*
X11133110Y-16908484D02*
X11133110Y-16708484D01*
X11133110Y-16708484D02*
X11114063Y-16737055D01*
X11114063Y-16737055D02*
X11095015Y-16756103D01*
X11095015Y-16756103D02*
X11075967Y-16765627D01*
X11314062Y-16708484D02*
X11333110Y-16708484D01*
X11333110Y-16708484D02*
X11352158Y-16718008D01*
X11352158Y-16718008D02*
X11361682Y-16727531D01*
X11361682Y-16727531D02*
X11371205Y-16746579D01*
X11371205Y-16746579D02*
X11380729Y-16784674D01*
X11380729Y-16784674D02*
X11380729Y-16832293D01*
X11380729Y-16832293D02*
X11371205Y-16870389D01*
X11371205Y-16870389D02*
X11361682Y-16889436D01*
X11361682Y-16889436D02*
X11352158Y-16898960D01*
X11352158Y-16898960D02*
X11333110Y-16908484D01*
X11333110Y-16908484D02*
X11314062Y-16908484D01*
X11314062Y-16908484D02*
X11295015Y-16898960D01*
X11295015Y-16898960D02*
X11285491Y-16889436D01*
X11285491Y-16889436D02*
X11275967Y-16870389D01*
X11275967Y-16870389D02*
X11266443Y-16832293D01*
X11266443Y-16832293D02*
X11266443Y-16784674D01*
X11266443Y-16784674D02*
X11275967Y-16746579D01*
X11275967Y-16746579D02*
X11285491Y-16727531D01*
X11285491Y-16727531D02*
X11295015Y-16718008D01*
X11295015Y-16718008D02*
X11314062Y-16708484D01*
X11504539Y-16708484D02*
X11523586Y-16708484D01*
X11523586Y-16708484D02*
X11542634Y-16718008D01*
X11542634Y-16718008D02*
X11552158Y-16727531D01*
X11552158Y-16727531D02*
X11561682Y-16746579D01*
X11561682Y-16746579D02*
X11571205Y-16784674D01*
X11571205Y-16784674D02*
X11571205Y-16832293D01*
X11571205Y-16832293D02*
X11561682Y-16870389D01*
X11561682Y-16870389D02*
X11552158Y-16889436D01*
X11552158Y-16889436D02*
X11542634Y-16898960D01*
X11542634Y-16898960D02*
X11523586Y-16908484D01*
X11523586Y-16908484D02*
X11504539Y-16908484D01*
X11504539Y-16908484D02*
X11485491Y-16898960D01*
X11485491Y-16898960D02*
X11475967Y-16889436D01*
X11475967Y-16889436D02*
X11466443Y-16870389D01*
X11466443Y-16870389D02*
X11456920Y-16832293D01*
X11456920Y-16832293D02*
X11456920Y-16784674D01*
X11456920Y-16784674D02*
X11466443Y-16746579D01*
X11466443Y-16746579D02*
X11475967Y-16727531D01*
X11475967Y-16727531D02*
X11485491Y-16718008D01*
X11485491Y-16718008D02*
X11504539Y-16708484D01*
X11656920Y-16908484D02*
X11656920Y-16775150D01*
X11656920Y-16794198D02*
X11666443Y-16784674D01*
X11666443Y-16784674D02*
X11685491Y-16775150D01*
X11685491Y-16775150D02*
X11714063Y-16775150D01*
X11714063Y-16775150D02*
X11733110Y-16784674D01*
X11733110Y-16784674D02*
X11742634Y-16803722D01*
X11742634Y-16803722D02*
X11742634Y-16908484D01*
X11742634Y-16803722D02*
X11752158Y-16784674D01*
X11752158Y-16784674D02*
X11771205Y-16775150D01*
X11771205Y-16775150D02*
X11799777Y-16775150D01*
X11799777Y-16775150D02*
X11818824Y-16784674D01*
X11818824Y-16784674D02*
X11828348Y-16803722D01*
X11828348Y-16803722D02*
X11828348Y-16908484D01*
X11923586Y-16908484D02*
X11923586Y-16775150D01*
X11923586Y-16794198D02*
X11933110Y-16784674D01*
X11933110Y-16784674D02*
X11952158Y-16775150D01*
X11952158Y-16775150D02*
X11980729Y-16775150D01*
X11980729Y-16775150D02*
X11999777Y-16784674D01*
X11999777Y-16784674D02*
X12009301Y-16803722D01*
X12009301Y-16803722D02*
X12009301Y-16908484D01*
X12009301Y-16803722D02*
X12018824Y-16784674D01*
X12018824Y-16784674D02*
X12037872Y-16775150D01*
X12037872Y-16775150D02*
X12066443Y-16775150D01*
X12066443Y-16775150D02*
X12085491Y-16784674D01*
X12085491Y-16784674D02*
X12095015Y-16803722D01*
X12095015Y-16803722D02*
X12095015Y-16908484D01*
X12485491Y-16698960D02*
X12314063Y-16956103D01*
X12742634Y-16708484D02*
X12761682Y-16708484D01*
X12761682Y-16708484D02*
X12780729Y-16718008D01*
X12780729Y-16718008D02*
X12790253Y-16727531D01*
X12790253Y-16727531D02*
X12799777Y-16746579D01*
X12799777Y-16746579D02*
X12809301Y-16784674D01*
X12809301Y-16784674D02*
X12809301Y-16832293D01*
X12809301Y-16832293D02*
X12799777Y-16870389D01*
X12799777Y-16870389D02*
X12790253Y-16889436D01*
X12790253Y-16889436D02*
X12780729Y-16898960D01*
X12780729Y-16898960D02*
X12761682Y-16908484D01*
X12761682Y-16908484D02*
X12742634Y-16908484D01*
X12742634Y-16908484D02*
X12723586Y-16898960D01*
X12723586Y-16898960D02*
X12714063Y-16889436D01*
X12714063Y-16889436D02*
X12704539Y-16870389D01*
X12704539Y-16870389D02*
X12695015Y-16832293D01*
X12695015Y-16832293D02*
X12695015Y-16784674D01*
X12695015Y-16784674D02*
X12704539Y-16746579D01*
X12704539Y-16746579D02*
X12714063Y-16727531D01*
X12714063Y-16727531D02*
X12723586Y-16718008D01*
X12723586Y-16718008D02*
X12742634Y-16708484D01*
X12895015Y-16889436D02*
X12904539Y-16898960D01*
X12904539Y-16898960D02*
X12895015Y-16908484D01*
X12895015Y-16908484D02*
X12885491Y-16898960D01*
X12885491Y-16898960D02*
X12895015Y-16889436D01*
X12895015Y-16889436D02*
X12895015Y-16908484D01*
X13028348Y-16708484D02*
X13047396Y-16708484D01*
X13047396Y-16708484D02*
X13066444Y-16718008D01*
X13066444Y-16718008D02*
X13075967Y-16727531D01*
X13075967Y-16727531D02*
X13085491Y-16746579D01*
X13085491Y-16746579D02*
X13095015Y-16784674D01*
X13095015Y-16784674D02*
X13095015Y-16832293D01*
X13095015Y-16832293D02*
X13085491Y-16870389D01*
X13085491Y-16870389D02*
X13075967Y-16889436D01*
X13075967Y-16889436D02*
X13066444Y-16898960D01*
X13066444Y-16898960D02*
X13047396Y-16908484D01*
X13047396Y-16908484D02*
X13028348Y-16908484D01*
X13028348Y-16908484D02*
X13009301Y-16898960D01*
X13009301Y-16898960D02*
X12999777Y-16889436D01*
X12999777Y-16889436D02*
X12990253Y-16870389D01*
X12990253Y-16870389D02*
X12980729Y-16832293D01*
X12980729Y-16832293D02*
X12980729Y-16784674D01*
X12980729Y-16784674D02*
X12990253Y-16746579D01*
X12990253Y-16746579D02*
X12999777Y-16727531D01*
X12999777Y-16727531D02*
X13009301Y-16718008D01*
X13009301Y-16718008D02*
X13028348Y-16708484D01*
X13266444Y-16775150D02*
X13266444Y-16908484D01*
X13218825Y-16698960D02*
X13171206Y-16841817D01*
X13171206Y-16841817D02*
X13295015Y-16841817D01*
X13352158Y-16708484D02*
X13475967Y-16708484D01*
X13475967Y-16708484D02*
X13409301Y-16784674D01*
X13409301Y-16784674D02*
X13437872Y-16784674D01*
X13437872Y-16784674D02*
X13456920Y-16794198D01*
X13456920Y-16794198D02*
X13466444Y-16803722D01*
X13466444Y-16803722D02*
X13475967Y-16822770D01*
X13475967Y-16822770D02*
X13475967Y-16870389D01*
X13475967Y-16870389D02*
X13466444Y-16889436D01*
X13466444Y-16889436D02*
X13456920Y-16898960D01*
X13456920Y-16898960D02*
X13437872Y-16908484D01*
X13437872Y-16908484D02*
X13380729Y-16908484D01*
X13380729Y-16908484D02*
X13361682Y-16898960D01*
X13361682Y-16898960D02*
X13352158Y-16889436D01*
X13542634Y-16708484D02*
X13666444Y-16708484D01*
X13666444Y-16708484D02*
X13599777Y-16784674D01*
X13599777Y-16784674D02*
X13628348Y-16784674D01*
X13628348Y-16784674D02*
X13647396Y-16794198D01*
X13647396Y-16794198D02*
X13656920Y-16803722D01*
X13656920Y-16803722D02*
X13666444Y-16822770D01*
X13666444Y-16822770D02*
X13666444Y-16870389D01*
X13666444Y-16870389D02*
X13656920Y-16889436D01*
X13656920Y-16889436D02*
X13647396Y-16898960D01*
X13647396Y-16898960D02*
X13628348Y-16908484D01*
X13628348Y-16908484D02*
X13571206Y-16908484D01*
X13571206Y-16908484D02*
X13552158Y-16898960D01*
X13552158Y-16898960D02*
X13542634Y-16889436D01*
X13742634Y-16708484D02*
X13742634Y-16746579D01*
X13818825Y-16708484D02*
X13818825Y-16746579D01*
X14114063Y-16984674D02*
X14104539Y-16975150D01*
X14104539Y-16975150D02*
X14085491Y-16946579D01*
X14085491Y-16946579D02*
X14075968Y-16927531D01*
X14075968Y-16927531D02*
X14066444Y-16898960D01*
X14066444Y-16898960D02*
X14056920Y-16851341D01*
X14056920Y-16851341D02*
X14056920Y-16813246D01*
X14056920Y-16813246D02*
X14066444Y-16765627D01*
X14066444Y-16765627D02*
X14075968Y-16737055D01*
X14075968Y-16737055D02*
X14085491Y-16718008D01*
X14085491Y-16718008D02*
X14104539Y-16689436D01*
X14104539Y-16689436D02*
X14114063Y-16679912D01*
X14275968Y-16775150D02*
X14275968Y-16908484D01*
X14228348Y-16698960D02*
X14180729Y-16841817D01*
X14180729Y-16841817D02*
X14304539Y-16841817D01*
X14533110Y-16908484D02*
X14533110Y-16708484D01*
X14618825Y-16908484D02*
X14618825Y-16803722D01*
X14618825Y-16803722D02*
X14609301Y-16784674D01*
X14609301Y-16784674D02*
X14590253Y-16775150D01*
X14590253Y-16775150D02*
X14561682Y-16775150D01*
X14561682Y-16775150D02*
X14542634Y-16784674D01*
X14542634Y-16784674D02*
X14533110Y-16794198D01*
X14742634Y-16908484D02*
X14723587Y-16898960D01*
X14723587Y-16898960D02*
X14714063Y-16889436D01*
X14714063Y-16889436D02*
X14704539Y-16870389D01*
X14704539Y-16870389D02*
X14704539Y-16813246D01*
X14704539Y-16813246D02*
X14714063Y-16794198D01*
X14714063Y-16794198D02*
X14723587Y-16784674D01*
X14723587Y-16784674D02*
X14742634Y-16775150D01*
X14742634Y-16775150D02*
X14771206Y-16775150D01*
X14771206Y-16775150D02*
X14790253Y-16784674D01*
X14790253Y-16784674D02*
X14799777Y-16794198D01*
X14799777Y-16794198D02*
X14809301Y-16813246D01*
X14809301Y-16813246D02*
X14809301Y-16870389D01*
X14809301Y-16870389D02*
X14799777Y-16889436D01*
X14799777Y-16889436D02*
X14790253Y-16898960D01*
X14790253Y-16898960D02*
X14771206Y-16908484D01*
X14771206Y-16908484D02*
X14742634Y-16908484D01*
X14923587Y-16908484D02*
X14904539Y-16898960D01*
X14904539Y-16898960D02*
X14895015Y-16879912D01*
X14895015Y-16879912D02*
X14895015Y-16708484D01*
X15075968Y-16898960D02*
X15056920Y-16908484D01*
X15056920Y-16908484D02*
X15018825Y-16908484D01*
X15018825Y-16908484D02*
X14999777Y-16898960D01*
X14999777Y-16898960D02*
X14990253Y-16879912D01*
X14990253Y-16879912D02*
X14990253Y-16803722D01*
X14990253Y-16803722D02*
X14999777Y-16784674D01*
X14999777Y-16784674D02*
X15018825Y-16775150D01*
X15018825Y-16775150D02*
X15056920Y-16775150D01*
X15056920Y-16775150D02*
X15075968Y-16784674D01*
X15075968Y-16784674D02*
X15085491Y-16803722D01*
X15085491Y-16803722D02*
X15085491Y-16822770D01*
X15085491Y-16822770D02*
X14990253Y-16841817D01*
X15161682Y-16898960D02*
X15180730Y-16908484D01*
X15180730Y-16908484D02*
X15218825Y-16908484D01*
X15218825Y-16908484D02*
X15237872Y-16898960D01*
X15237872Y-16898960D02*
X15247396Y-16879912D01*
X15247396Y-16879912D02*
X15247396Y-16870389D01*
X15247396Y-16870389D02*
X15237872Y-16851341D01*
X15237872Y-16851341D02*
X15218825Y-16841817D01*
X15218825Y-16841817D02*
X15190253Y-16841817D01*
X15190253Y-16841817D02*
X15171206Y-16832293D01*
X15171206Y-16832293D02*
X15161682Y-16813246D01*
X15161682Y-16813246D02*
X15161682Y-16803722D01*
X15161682Y-16803722D02*
X15171206Y-16784674D01*
X15171206Y-16784674D02*
X15190253Y-16775150D01*
X15190253Y-16775150D02*
X15218825Y-16775150D01*
X15218825Y-16775150D02*
X15237872Y-16784674D01*
X15314063Y-16984674D02*
X15323587Y-16975150D01*
X15323587Y-16975150D02*
X15342634Y-16946579D01*
X15342634Y-16946579D02*
X15352158Y-16927531D01*
X15352158Y-16927531D02*
X15361682Y-16898960D01*
X15361682Y-16898960D02*
X15371206Y-16851341D01*
X15371206Y-16851341D02*
X15371206Y-16813246D01*
X15371206Y-16813246D02*
X15361682Y-16765627D01*
X15361682Y-16765627D02*
X15352158Y-16737055D01*
X15352158Y-16737055D02*
X15342634Y-16718008D01*
X15342634Y-16718008D02*
X15323587Y-16689436D01*
X15323587Y-16689436D02*
X15314063Y-16679912D01*
D14*
X10427000Y-17025000D02*
X10539000Y-17137000D01*
X10539000Y-17025000D02*
X10427000Y-17137000D01*
X10483000Y-17137000D02*
X10539000Y-17081000D01*
X10483000Y-17025000D01*
X10427000Y-17081000D01*
X10483000Y-17137000D01*
D11*
X10904539Y-17172484D02*
X10790253Y-17172484D01*
X10847396Y-17172484D02*
X10847396Y-16972484D01*
X10847396Y-16972484D02*
X10828348Y-17001055D01*
X10828348Y-17001055D02*
X10809301Y-17020103D01*
X10809301Y-17020103D02*
X10790253Y-17029627D01*
X10990253Y-17153436D02*
X10999777Y-17162960D01*
X10999777Y-17162960D02*
X10990253Y-17172484D01*
X10990253Y-17172484D02*
X10980729Y-17162960D01*
X10980729Y-17162960D02*
X10990253Y-17153436D01*
X10990253Y-17153436D02*
X10990253Y-17172484D01*
X11190253Y-17172484D02*
X11075967Y-17172484D01*
X11133110Y-17172484D02*
X11133110Y-16972484D01*
X11133110Y-16972484D02*
X11114063Y-17001055D01*
X11114063Y-17001055D02*
X11095015Y-17020103D01*
X11095015Y-17020103D02*
X11075967Y-17029627D01*
X11266443Y-16991531D02*
X11275967Y-16982008D01*
X11275967Y-16982008D02*
X11295015Y-16972484D01*
X11295015Y-16972484D02*
X11342634Y-16972484D01*
X11342634Y-16972484D02*
X11361682Y-16982008D01*
X11361682Y-16982008D02*
X11371205Y-16991531D01*
X11371205Y-16991531D02*
X11380729Y-17010579D01*
X11380729Y-17010579D02*
X11380729Y-17029627D01*
X11380729Y-17029627D02*
X11371205Y-17058198D01*
X11371205Y-17058198D02*
X11256920Y-17172484D01*
X11256920Y-17172484D02*
X11380729Y-17172484D01*
X11504539Y-16972484D02*
X11523586Y-16972484D01*
X11523586Y-16972484D02*
X11542634Y-16982008D01*
X11542634Y-16982008D02*
X11552158Y-16991531D01*
X11552158Y-16991531D02*
X11561682Y-17010579D01*
X11561682Y-17010579D02*
X11571205Y-17048674D01*
X11571205Y-17048674D02*
X11571205Y-17096293D01*
X11571205Y-17096293D02*
X11561682Y-17134389D01*
X11561682Y-17134389D02*
X11552158Y-17153436D01*
X11552158Y-17153436D02*
X11542634Y-17162960D01*
X11542634Y-17162960D02*
X11523586Y-17172484D01*
X11523586Y-17172484D02*
X11504539Y-17172484D01*
X11504539Y-17172484D02*
X11485491Y-17162960D01*
X11485491Y-17162960D02*
X11475967Y-17153436D01*
X11475967Y-17153436D02*
X11466443Y-17134389D01*
X11466443Y-17134389D02*
X11456920Y-17096293D01*
X11456920Y-17096293D02*
X11456920Y-17048674D01*
X11456920Y-17048674D02*
X11466443Y-17010579D01*
X11466443Y-17010579D02*
X11475967Y-16991531D01*
X11475967Y-16991531D02*
X11485491Y-16982008D01*
X11485491Y-16982008D02*
X11504539Y-16972484D01*
X11656920Y-17172484D02*
X11656920Y-17039150D01*
X11656920Y-17058198D02*
X11666443Y-17048674D01*
X11666443Y-17048674D02*
X11685491Y-17039150D01*
X11685491Y-17039150D02*
X11714063Y-17039150D01*
X11714063Y-17039150D02*
X11733110Y-17048674D01*
X11733110Y-17048674D02*
X11742634Y-17067722D01*
X11742634Y-17067722D02*
X11742634Y-17172484D01*
X11742634Y-17067722D02*
X11752158Y-17048674D01*
X11752158Y-17048674D02*
X11771205Y-17039150D01*
X11771205Y-17039150D02*
X11799777Y-17039150D01*
X11799777Y-17039150D02*
X11818824Y-17048674D01*
X11818824Y-17048674D02*
X11828348Y-17067722D01*
X11828348Y-17067722D02*
X11828348Y-17172484D01*
X11923586Y-17172484D02*
X11923586Y-17039150D01*
X11923586Y-17058198D02*
X11933110Y-17048674D01*
X11933110Y-17048674D02*
X11952158Y-17039150D01*
X11952158Y-17039150D02*
X11980729Y-17039150D01*
X11980729Y-17039150D02*
X11999777Y-17048674D01*
X11999777Y-17048674D02*
X12009301Y-17067722D01*
X12009301Y-17067722D02*
X12009301Y-17172484D01*
X12009301Y-17067722D02*
X12018824Y-17048674D01*
X12018824Y-17048674D02*
X12037872Y-17039150D01*
X12037872Y-17039150D02*
X12066443Y-17039150D01*
X12066443Y-17039150D02*
X12085491Y-17048674D01*
X12085491Y-17048674D02*
X12095015Y-17067722D01*
X12095015Y-17067722D02*
X12095015Y-17172484D01*
X12485491Y-16962960D02*
X12314063Y-17220103D01*
X12742634Y-16972484D02*
X12761682Y-16972484D01*
X12761682Y-16972484D02*
X12780729Y-16982008D01*
X12780729Y-16982008D02*
X12790253Y-16991531D01*
X12790253Y-16991531D02*
X12799777Y-17010579D01*
X12799777Y-17010579D02*
X12809301Y-17048674D01*
X12809301Y-17048674D02*
X12809301Y-17096293D01*
X12809301Y-17096293D02*
X12799777Y-17134389D01*
X12799777Y-17134389D02*
X12790253Y-17153436D01*
X12790253Y-17153436D02*
X12780729Y-17162960D01*
X12780729Y-17162960D02*
X12761682Y-17172484D01*
X12761682Y-17172484D02*
X12742634Y-17172484D01*
X12742634Y-17172484D02*
X12723586Y-17162960D01*
X12723586Y-17162960D02*
X12714063Y-17153436D01*
X12714063Y-17153436D02*
X12704539Y-17134389D01*
X12704539Y-17134389D02*
X12695015Y-17096293D01*
X12695015Y-17096293D02*
X12695015Y-17048674D01*
X12695015Y-17048674D02*
X12704539Y-17010579D01*
X12704539Y-17010579D02*
X12714063Y-16991531D01*
X12714063Y-16991531D02*
X12723586Y-16982008D01*
X12723586Y-16982008D02*
X12742634Y-16972484D01*
X12895015Y-17153436D02*
X12904539Y-17162960D01*
X12904539Y-17162960D02*
X12895015Y-17172484D01*
X12895015Y-17172484D02*
X12885491Y-17162960D01*
X12885491Y-17162960D02*
X12895015Y-17153436D01*
X12895015Y-17153436D02*
X12895015Y-17172484D01*
X13028348Y-16972484D02*
X13047396Y-16972484D01*
X13047396Y-16972484D02*
X13066444Y-16982008D01*
X13066444Y-16982008D02*
X13075967Y-16991531D01*
X13075967Y-16991531D02*
X13085491Y-17010579D01*
X13085491Y-17010579D02*
X13095015Y-17048674D01*
X13095015Y-17048674D02*
X13095015Y-17096293D01*
X13095015Y-17096293D02*
X13085491Y-17134389D01*
X13085491Y-17134389D02*
X13075967Y-17153436D01*
X13075967Y-17153436D02*
X13066444Y-17162960D01*
X13066444Y-17162960D02*
X13047396Y-17172484D01*
X13047396Y-17172484D02*
X13028348Y-17172484D01*
X13028348Y-17172484D02*
X13009301Y-17162960D01*
X13009301Y-17162960D02*
X12999777Y-17153436D01*
X12999777Y-17153436D02*
X12990253Y-17134389D01*
X12990253Y-17134389D02*
X12980729Y-17096293D01*
X12980729Y-17096293D02*
X12980729Y-17048674D01*
X12980729Y-17048674D02*
X12990253Y-17010579D01*
X12990253Y-17010579D02*
X12999777Y-16991531D01*
X12999777Y-16991531D02*
X13009301Y-16982008D01*
X13009301Y-16982008D02*
X13028348Y-16972484D01*
X13266444Y-17039150D02*
X13266444Y-17172484D01*
X13218825Y-16962960D02*
X13171206Y-17105817D01*
X13171206Y-17105817D02*
X13295015Y-17105817D01*
X13456920Y-17039150D02*
X13456920Y-17172484D01*
X13409301Y-16962960D02*
X13361682Y-17105817D01*
X13361682Y-17105817D02*
X13485491Y-17105817D01*
X13666444Y-17172484D02*
X13552158Y-17172484D01*
X13609301Y-17172484D02*
X13609301Y-16972484D01*
X13609301Y-16972484D02*
X13590253Y-17001055D01*
X13590253Y-17001055D02*
X13571206Y-17020103D01*
X13571206Y-17020103D02*
X13552158Y-17029627D01*
X13742634Y-16972484D02*
X13742634Y-17010579D01*
X13818825Y-16972484D02*
X13818825Y-17010579D01*
X14114063Y-17248674D02*
X14104539Y-17239150D01*
X14104539Y-17239150D02*
X14085491Y-17210579D01*
X14085491Y-17210579D02*
X14075968Y-17191531D01*
X14075968Y-17191531D02*
X14066444Y-17162960D01*
X14066444Y-17162960D02*
X14056920Y-17115341D01*
X14056920Y-17115341D02*
X14056920Y-17077246D01*
X14056920Y-17077246D02*
X14066444Y-17029627D01*
X14066444Y-17029627D02*
X14075968Y-17001055D01*
X14075968Y-17001055D02*
X14085491Y-16982008D01*
X14085491Y-16982008D02*
X14104539Y-16953436D01*
X14104539Y-16953436D02*
X14114063Y-16943912D01*
X14180729Y-16991531D02*
X14190253Y-16982008D01*
X14190253Y-16982008D02*
X14209301Y-16972484D01*
X14209301Y-16972484D02*
X14256920Y-16972484D01*
X14256920Y-16972484D02*
X14275968Y-16982008D01*
X14275968Y-16982008D02*
X14285491Y-16991531D01*
X14285491Y-16991531D02*
X14295015Y-17010579D01*
X14295015Y-17010579D02*
X14295015Y-17029627D01*
X14295015Y-17029627D02*
X14285491Y-17058198D01*
X14285491Y-17058198D02*
X14171206Y-17172484D01*
X14171206Y-17172484D02*
X14295015Y-17172484D01*
X14533110Y-17172484D02*
X14533110Y-16972484D01*
X14618825Y-17172484D02*
X14618825Y-17067722D01*
X14618825Y-17067722D02*
X14609301Y-17048674D01*
X14609301Y-17048674D02*
X14590253Y-17039150D01*
X14590253Y-17039150D02*
X14561682Y-17039150D01*
X14561682Y-17039150D02*
X14542634Y-17048674D01*
X14542634Y-17048674D02*
X14533110Y-17058198D01*
X14742634Y-17172484D02*
X14723587Y-17162960D01*
X14723587Y-17162960D02*
X14714063Y-17153436D01*
X14714063Y-17153436D02*
X14704539Y-17134389D01*
X14704539Y-17134389D02*
X14704539Y-17077246D01*
X14704539Y-17077246D02*
X14714063Y-17058198D01*
X14714063Y-17058198D02*
X14723587Y-17048674D01*
X14723587Y-17048674D02*
X14742634Y-17039150D01*
X14742634Y-17039150D02*
X14771206Y-17039150D01*
X14771206Y-17039150D02*
X14790253Y-17048674D01*
X14790253Y-17048674D02*
X14799777Y-17058198D01*
X14799777Y-17058198D02*
X14809301Y-17077246D01*
X14809301Y-17077246D02*
X14809301Y-17134389D01*
X14809301Y-17134389D02*
X14799777Y-17153436D01*
X14799777Y-17153436D02*
X14790253Y-17162960D01*
X14790253Y-17162960D02*
X14771206Y-17172484D01*
X14771206Y-17172484D02*
X14742634Y-17172484D01*
X14923587Y-17172484D02*
X14904539Y-17162960D01*
X14904539Y-17162960D02*
X14895015Y-17143912D01*
X14895015Y-17143912D02*
X14895015Y-16972484D01*
X15075968Y-17162960D02*
X15056920Y-17172484D01*
X15056920Y-17172484D02*
X15018825Y-17172484D01*
X15018825Y-17172484D02*
X14999777Y-17162960D01*
X14999777Y-17162960D02*
X14990253Y-17143912D01*
X14990253Y-17143912D02*
X14990253Y-17067722D01*
X14990253Y-17067722D02*
X14999777Y-17048674D01*
X14999777Y-17048674D02*
X15018825Y-17039150D01*
X15018825Y-17039150D02*
X15056920Y-17039150D01*
X15056920Y-17039150D02*
X15075968Y-17048674D01*
X15075968Y-17048674D02*
X15085491Y-17067722D01*
X15085491Y-17067722D02*
X15085491Y-17086770D01*
X15085491Y-17086770D02*
X14990253Y-17105817D01*
X15161682Y-17162960D02*
X15180730Y-17172484D01*
X15180730Y-17172484D02*
X15218825Y-17172484D01*
X15218825Y-17172484D02*
X15237872Y-17162960D01*
X15237872Y-17162960D02*
X15247396Y-17143912D01*
X15247396Y-17143912D02*
X15247396Y-17134389D01*
X15247396Y-17134389D02*
X15237872Y-17115341D01*
X15237872Y-17115341D02*
X15218825Y-17105817D01*
X15218825Y-17105817D02*
X15190253Y-17105817D01*
X15190253Y-17105817D02*
X15171206Y-17096293D01*
X15171206Y-17096293D02*
X15161682Y-17077246D01*
X15161682Y-17077246D02*
X15161682Y-17067722D01*
X15161682Y-17067722D02*
X15171206Y-17048674D01*
X15171206Y-17048674D02*
X15190253Y-17039150D01*
X15190253Y-17039150D02*
X15218825Y-17039150D01*
X15218825Y-17039150D02*
X15237872Y-17048674D01*
X15314063Y-17248674D02*
X15323587Y-17239150D01*
X15323587Y-17239150D02*
X15342634Y-17210579D01*
X15342634Y-17210579D02*
X15352158Y-17191531D01*
X15352158Y-17191531D02*
X15361682Y-17162960D01*
X15361682Y-17162960D02*
X15371206Y-17115341D01*
X15371206Y-17115341D02*
X15371206Y-17077246D01*
X15371206Y-17077246D02*
X15361682Y-17029627D01*
X15361682Y-17029627D02*
X15352158Y-17001055D01*
X15352158Y-17001055D02*
X15342634Y-16982008D01*
X15342634Y-16982008D02*
X15323587Y-16953436D01*
X15323587Y-16953436D02*
X15314063Y-16943912D01*
M02*
